<svg width="172" height="163" fill="none" xmlns="http://www.w3.org/2000/svg"><g clip-path="url(#clip0_280_789)"><path d="M166.966 163h-22.12c0-7.09.283-13.896-.142-20.703-.142-2.552-1.56-5.317-3.19-7.303-2.695-3.332-2.624-5.884.141-9.075 1.56-1.772 2.836-4.325 3.049-6.665.496-4.821.993-9.855-.142-14.463-.992-4.042-3.403-8.58-6.664-10.919-3.332-2.481-7.87-2.056-11.131 2.623-2.198 3.05-5.672 2.127-8.154-.992-3.757-4.821-7.019-3.758-10.351.709-12.549 17.229-33.606 17.158-46.226-.142-3.261-4.467-6.452-5.247-10.21-.496-2.622 3.403-6.522 3.757-8.72.354-2.977-4.608-7.16-3.97-10.138-2.269-2.978 1.702-6.097 5.389-6.665 8.579-1.063 6.31-2.41 13.897.142 19.073 3.403 6.948 3.261 11.202.071 18.292-2.836 6.31-.567 14.889-.567 23.113H3.687c0-6.735.354-13.329-.142-19.923-.213-2.765-2.552-5.246-3.12-8.011-.567-2.695-.567-5.743 0-8.438.568-2.765 2.907-5.317 3.19-8.082.568-5.743 0-11.486.284-17.3.922-16.023 13.755-28.998 29.778-30.133 3.758-.283 7.657.355 10.28-3.97.567-.922 6.31-.355 7.94 1.276 4.326 4.254 6.807 3.403 10.423-.78 3.332-3.9 7.302-7.657 11.769-10.28 5.814-3.474 8.65-13.046 3.9-18.009-8.438-8.933-17.229-17.441-25.95-25.95-.992-.992-3.048-.85-4.183-1.772-2.197-1.843-4.112-3.97-6.168-6.027 2.34-1.701 4.609-4.82 7.02-4.963 11.06-.567 22.12-.212 33.18-.212h39.419c3.758 0 7.728.638 7.019 5.246-.354 2.27-3.615 4.184-5.813 5.956-1.702 1.347-4.183 1.843-5.672 3.332-7.657 7.303-14.889 15.102-22.617 22.334-5.459 5.034-2.623 11.131-3.048 16.803 0 .497.709 1.277 1.205 1.418 7.657 2.27 13.045 7.161 17.583 13.684.851 1.206 6.381.922 7.869-.567 4.113-4.112 6.949-4.396 10.777.142 1.205 1.418 3.899 1.914 5.956 2.056 19.426 1.205 32.258 14.605 32.471 34.174.071 3.899.922 8.082-.213 11.698-2.056 6.665 5.814 9.43 5.176 14.464-.567 4.68-6.523 7.374-5.247 13.755 1.135 5.743.213 11.911.213 18.363zm-74.23-97.843c-3.758-2.41-5.814-4.75-7.8-4.679-1.701.07-4.75 3.261-4.466 4.608.354 2.057 2.836 4.822 4.75 5.105 1.702.284 3.829-2.41 7.515-5.034zm-1.631-42.823c3.757-3.687 7.231-7.09 10.705-10.494H91.105v10.494zM66.574 11.698c4.892 4.61 8.508 8.154 12.832 12.195V11.698H66.574zm9.996 69.98c-3.686-2.482-5.955-5.035-7.727-4.822-1.844.284-4.184 3.12-4.68 5.247-.283 1.063 2.978 4.183 4.68 4.183 1.985 0 4.04-2.27 7.727-4.609zm8.58 23.68c2.552-3.545 5.104-5.672 4.75-7.09-.497-2.056-2.837-4.538-4.893-5.034-1.205-.284-4.466 2.765-4.608 4.467-.07 1.914 2.34 3.97 4.75 7.657zm23.821-23.823c-3.687-2.41-5.743-4.75-7.657-4.679-1.701.07-4.68 3.403-4.396 4.68.426 1.985 2.978 4.324 5.034 4.75 1.418.283 3.474-2.27 7.019-4.75z" fill="#E3E7ED"/></g><defs><clipPath id="clip0_280_789"><path fill="#fff" d="M0 0h172v163H0z"/></clipPath></defs></svg>