<svg width="185" height="184" fill="none" xmlns="http://www.w3.org/2000/svg"><g clip-path="url(#clip0_280_792)" fill="#F2D4C0"><path d="M40.955 28.638c0-5.853-.235-11.47.078-17.011C41.346 4.37 45.41.234 52.6.157a6955.57 6955.57 0 0180.816-.001c7.347.077 11.254 4.369 11.88 12.172.234 2.653.078 5.384.078 8.037v8.038c8.675 0 16.726-.312 24.698.156 3.048.156 5.94 2.185 8.988 3.433-1.172 2.81-3.283 5.54-3.439 8.35-.391 11.548-1.798 23.487.703 34.49 1.095 4.682 4.768 7.413-.39 11.627-1.329 1.092-1.954 3.667-2.032 5.618-.235 7.57-.391 15.138.078 22.707.156 2.419 2.188 4.76 3.204 7.179.86 2.107 2.658 4.838 1.954 6.399-.86 1.951-3.83 4.136-5.862 4.136-22.744.312-45.566.312-68.31 0-2.032 0-4.924-2.419-5.705-4.37-.626-1.483 1.328-4.136 2.344-6.243.235-.546 1.798-.78 1.798-1.17 0-11.393-.078-22.785-.313-34.178 0-.39-1.25-.703-1.797-1.17-3.44-3.122-3.127-6.01-.157-9.443 1.642-1.872 3.127-4.525 3.283-6.944.469-6.555.235-13.188.156-19.82 0-3.98 1.016-8.194-3.986-10.613-1.172-.546-2.032-4.682-1.172-5.696 1.563-2.03 4.377-3.98 6.878-4.136 7.581-.546 15.163-.234 22.744-.234 1.172 0 2.345-.312 3.83-.546V12.407H53.382v16.387c11.176 2.731 21.728 7.725 27.277 18.415 3.595 6.945 6.33 15.139 6.487 22.786.391 19.196-11.176 31.915-34.233 39.718v22.24H41.189v-21.928C16.726 101.052 5.393 87.162 6.175 67.888c.703-19.118 12.505-32.695 34.78-39.25zm-16.96 43.698c.781-.078 1.563-.156 2.266-.234 1.25 2.497 3.752 5.228 3.517 7.569-.625 5.15 1.173 7.1 6.487 6.477 1.876-.234 4.768 1.248 5.94 2.887 2.892 3.901 6.253 3.901 9.145.156 1.328-1.639 4.377-2.965 6.487-2.81 4.69.469 6.878-1.794 6.174-6.632-.234-1.873 1.485-4.136 2.58-6.008.86-1.561 2.97-2.888 3.048-4.37 0-1.483-1.876-2.965-2.892-4.526-1.172-1.795-2.814-3.512-3.36-5.462-.782-2.81-.704-5.775-1.095-10.223-5.784 3.902-9.379 5.853-11.255-.624-.312-1.17-2.813-2.419-4.298-2.34-1.407 0-3.674 1.326-4.065 2.574-1.25 3.98-3.048 4.838-6.956 3.121-3.36-1.482-8.05 2.498-6.409 5.229 3.986 6.554-.938 7.257-5.236 8.583v6.633h-.079zm103.559 2.263c0-7.881.469-14.904-.235-21.85-.234-2.262-3.673-4.213-5.705-6.32-1.798 1.717-5.002 3.278-5.159 5.072-.547 7.648-.234 15.373-.234 23.098h11.333zm-11.411 12.407c0 7.491-.391 14.748.234 22.005.157 2.029 3.439 5.306 5.315 5.306 1.876 0 5.315-3.121 5.471-5.15.704-7.179.235-14.514.235-22.161h-11.255zm-69.17 80.919V184H23.682v-16.699c-5.002 0-9.535-.156-14.069 0-6.487.234-9.613-2.653-9.379-9.13.079-2.653-.781-5.774.313-7.959 1.329-2.575 4.064-4.604 6.565-6.243 1.173-.78 3.361-.156 5.08-.156 54.086 0 108.171-.078 162.178.156 3.439 0 9.536 1.561 9.927 3.434 1.172 5.462.547 11.471-.391 17.167-.235 1.249-4.455 2.419-6.956 2.653-4.533.39-9.145.156-14.381.156v16.543h-23.448v-15.841H46.973v-.156z"/><path d="M46.739 78.344c-5.784-.39-9.067-3.433-9.067-9.285 0-5.853 3.44-9.208 9.223-9.13 5.705.078 9.144 3.355 9.144 9.285-.078 5.853-3.439 8.74-9.3 9.13z"/></g><defs><clipPath id="clip0_280_792"><path fill="#fff" d="M0 0h185v184H0z"/></clipPath></defs></svg>