<svg width="100" height="100" fill="none" xmlns="http://www.w3.org/2000/svg"><g clip-path="url(#clip0_280_797)" fill="#545454"><path d="M99.9 53.1l-6 1.2c-1.3.3-2.6.6-4 .9-.2 0-.4.2-.4.4-.5 3.2-1.3 6.3-2.5 9.2-.1.3-.1.4.2.6 2.4 2.1 4.8 4.3 7.2 6.5.2.2.2.4.1.7-.9 1.6-1.8 3.1-2.7 4.7-.2.3-.3.3-.6.2-3.1-1-6.2-2-9.2-3-.3-.1-.4 0-.6.2-2 2.5-4.2 4.8-6.7 6.7-.2.2-.2.3-.2.6 1 3.1 2 6.2 3 9.2 0 .1-.1.4-.2.5-1.6.9-3.2 1.8-4.8 2.8-.3.2-.5.1-.7-.1-2.1-2.4-4.3-4.8-6.4-7.1-.2-.2-.4-.3-.6-.2-3 1.2-6.1 2-9.2 2.5-.1 0-.3.2-.4.4-.7 3.1-1.3 6.2-2 9.3-.1.4-.2.6-.7.6h-5.2c-.3 0-.5-.1-.6-.4-.7-3.2-1.3-6.3-2-9.5 0-.1-.2-.3-.4-.4-3.2-.5-6.3-1.3-9.3-2.5-.1-.1-.4 0-.5.1-2.2 2.4-4.3 4.8-6.5 7.2-.2.2-.4.2-.6.1l-4.8-2.7c-.3-.2-.3-.3-.2-.6 1-3.1 2-6.2 3-9.2 0-.2 0-.4-.1-.5-2.5-2-4.8-4.3-6.8-6.8-.1-.1-.4-.2-.5-.1l-9.3 3c-.1 0-.4 0-.5-.2-1-1.7-2-3.4-3-5.2 1.6-1.5 3.2-2.9 4.8-4.3.9-.8 1.9-1.6 2.8-2.5.1-.1.1-.4.1-.5-1.1-2.8-1.9-5.6-2.4-8.5-.1-.3-.1-.7-.2-1L.7 53.3c-.6-.2-.7-.4-.7-.9v-5.1c0-.3.1-.5.5-.6 3.1-.6 6.1-1.3 9.2-1.9.2 0 .4-.1.6-.1.2-1 .3-2 .6-3 .6-2.2 1.3-4.4 2-6.5.1-.3.1-.5-.2-.7-2.5-2.2-4.9-4.4-7.4-6.7.6-1.1 1.2-2.2 1.9-3.2.4-.6.7-1.2 1-1.8.1-.3.3-.4.6-.3 3.1 1 6.1 2 9.2 3 .3.1.4.1.6-.1 2-2.5 4.3-4.8 6.8-6.8.1-.1.2-.4.1-.5-1-3.1-2-6.1-3-9.2-.1-.3-.1-.5.2-.7 1.6-.9 3.2-1.8 4.7-2.7.3-.2.4-.1.6.1 2.2 2.4 4.3 4.8 6.5 7.2.1.1.4.2.5.1 3-1.2 6.1-2 9.3-2.5.2 0 .4-.2.4-.3L46.8.2V.1h6.3v.3c.7 3.2 1.4 6.4 2.1 9.7 0 .1.3.3.4.3 3.2.5 6.3 1.3 9.3 2.5.1.1.4 0 .5-.1 2.2-2.4 4.3-4.8 6.5-7.2.2-.3.4-.3.7-.1 1.5.9 3.1 1.8 4.7 2.7.3.2.4.3.3.6-1 3.1-2 6.2-3 9.2-.1.3 0 .4.2.6 2.5 2 4.7 4.2 6.7 6.7.2.2.3.3.6.2 3.1-1 6.1-2 9.2-3 .3-.1.4-.1.6.2l2.7 4.8c.2.3.1.4-.1.6-2.4 2.1-4.7 4.2-7.1 6.3-.3.3-.4.5-.2.9 1.2 2.9 1.9 5.9 2.4 8.9 0 .3.1.5.5.6.4 0 .8.2 1.2.2 2.9.6 5.7 1.2 8.6 1.8v6.3zM49.4 84.8c19.4.2 35-15.1 35.4-34.1.4-19.4-15.1-35.2-34.2-35.5-19.4-.4-35.2 15.1-35.5 34.2-.3 19.2 15 35 34.3 35.4z"/><path d="M47.7 42c3.9-.2 6.3 3.4 5 6.9H55c.1 0 .2-.3.2-.5 0-1.1-.2-2.3.1-3.4.4-2.1.3-4.1.4-6.2.2-5.1.3-10.2.4-15.3 0-.7 0-.7.7-.7 1 0 1 0 1 1 .2 6 .4 12.1.6 18.1 0 .8.1 1.6.1 2.3 0 .4.1.5.5.5h1.2c.5 0 .6-.1.6-.6V29.9c0-.5.1-.6.6-.6h3.2v1.6c0 .4.1.6.5.6.3 0 .6-.2.8.2-.3.1-.5.2-.8.2-.5 0-.6.2-.5.6v.3c-.1.5.2.7.7.6.2 0 .4.1.7.2-.2.1-.5.2-.7.2-.5 0-.7.2-.6.7v.4c-.1.4.2.5.6.5.3 0 .5.1.8.2-.3.1-.5.2-.8.2-.4 0-.6.2-.5.6v.2c0 .8 0 .8.8.8h.3c.1 0 .2.1.2.2s-.1.2-.2.2h-.2c-.3 0-.8 0-.8.1-.1.4-.1.8-.1 1.2 0 .1.3.2.5.2.3.1.5.1.8.2-.3.1-.5.2-.8.2-.4 0-.6.1-.6.6v.5c0 .4.1.5.5.5h.6c.1 0 .2.1.2.2s-.1.2-.2.2h-.2c-.3 0-.8 0-.8.1-.1.4-.1.8 0 1.2 0 .1.3.2.5.2.2.1.5.2.8.2-.3.1-.5.2-.8.2-.4 0-.6.1-.6.6v.4c-.1.5.1.6.6.6.2 0 .5.1.8.2-.2.1-.5.2-.7.2-.5 0-.7.1-.6.6v.4c0 .4.1.5.5.5h.6c.1 0 .2.2.3.2-.1.1-.2.2-.3.2H65c-.1.1-.1.1-.1.2 0 .4-.1 1 .1 1.2.2.2.8.1 1.4.2-.2.2-.3.4-.4.4-.7-.1-1 .3-1.5.7-3.1 3-6.2 5.9-9.3 8.9-.3.3-.7.6-1 .9-1 1.1-2.1 1.9-3.5 2.5-.2.1-.4.3-.7.5.2.2.3.4.5.5 1.8 1.7 3.5 3.4 5.3 5.2.6.6 1.1 1.3 1.6 2.1.9 1.5.3 2.7-1.4 3.1-.5.1-1.1.2-1.6.2H47c.6 2.2 3.7 5.5 8 5.6 4.2.1 8.1-2.8 9.2-6.9 1.1-3.9-.8-9.3-6.2-11.1.1-.2.2-.3.3-.5 2.1-3 4.1-6 6.2-9 .2-.3.5-.4.8-.4h2.4c.5 0 .6-.2.6-.6v-8.4c0-.5.1-.7.6-.7h2.4c.4 0 .6.1.5.5v3.7c0 .6.2.7.7.7h6c.9 0 .8-.1.9.8.1 3.1.1 6.1.3 9.2.1 1.1-.2 1.7-1 2.4-4.4 3.8-8.8 7.7-13.2 11.5-.4.4-.7.8-.8 1.3-.7 3.7-3.8 6.9-7.4 7.6-4 .8-7.9-.9-10-4.2-.1-.2-.3-.4-.4-.6-.2-.9-.9-1-1.7-1h-12c-.9 0-1.8-.2-2.6-.3-1-.2-1.5-1-1.3-2 .2-1.1.9-2 1.7-2.8l3-3c.2-.2.4-.3.6-.4-.3-.2-.5-.4-.7-.5-3-2.1-6-4.2-9-6.2-.3-.2-.5-.5-.5-.9v-6.7h6.3c.4 0 .6-.1.6-.6v-.1c.3-1.7-.2-3.1-1.6-4.1-.4-.3-.8-.8-1.1-1.2-.4-.5-.8-.9-1.5-1-.8-.1-1.3-1-1.3-1.8s.5-1.5 1.3-1.8c.8-.3 1.6 0 2.1.7s.5 1.6 0 2.3c-.2.2-.3.4-.6.6.8.9 1.7 1.8 2.6 2.8.1-.3.1-.4.2-.6H35v4.3c0 .4.1.5.5.5h1.3c.5 0 .5-.2.5-.6V40h1.6c.4 0 .5-.1.5-.5V32c0-.1.1-.2.2-.2 0 0 .2.1.2.2v7.4c0 .6.1.8.7.7h.8c-.1.7.4.7.8.8-.8.3-.8.3-.8 1.1v.5c0 .5-.2 1.2.9 1.2-1.1 0-.8.7-.9 1.3v.1c.1.5-.4 1.4.9 1.3-1.2 0-.9.8-.9 1.4V59c0 .4-.1.7-.4 1-3.2 3.1-6.4 6.2-9.5 9.4-.6.6-1.2 1.4-1.6 2.2-.6 1.1-.1 1.9 1.1 2.2.5.1 1.1.2 1.6.2H46c-1.2-4.2-.1-7.8 3.1-10.7-.1-.2-.3-.3-.4-.4-1-1-1.9-1.9-2.9-2.8-.3-.3-.5-.6-.5-1.1v-9.3c0-.5-.2-.7-.7-.6-.6.1-.9-.1-1-.8-.4-1.9.1-3.5 1.5-4.8.3-.3.4-.5.4-.9V23.8c0-.8 0-.8.8-.8 1.3 0 1.3 0 1.3 1.3v2.2c0 .3.1.5.4.6 1.4.5 1.4.5 1.4 2 0 1.9 0 3.7.1 5.6 0 .5-.1.8-.4 1.2-.4.6-.9 1.2-1.2 1.8-.2.3-.3.7-.3 1.1.1.9.1 2 .1 3.2zm1.7 21.4c-.1 0-.1.1-.2.1-2.8 2.1-4.2 6.6-3 9.9.1.3.3.4.6.4h8.1c.4 0 .9-.1 1.3-.3.6-.3.9-.9.7-1.5-.2-.5-.4-1-.7-1.4-.7-.8-1.4-1.6-2.2-2.4-1.5-1.8-3-3.3-4.6-4.8z"/></g><defs><clipPath id="clip0_280_797"><path fill="#fff" d="M0 0h99.9v99.9H0z"/></clipPath></defs></svg>