<svg width="48" height="38" fill="none" xmlns="http://www.w3.org/2000/svg"><path d="M6.605 18.701L0 11.247 7.672 0h32.09L47.5 10.25l-5.604 6.92-.667-.532 5.27-6.456L39.361.8H8.072L1.001 11.18l6.204 6.988-.6.532zM23.75 37.136L10.674 23.293l.6-.599L23.75 35.938 35.692 22.96l.6.533L23.75 37.136z" fill="#201600"/><path d="M26.819 20.698c-.134 0-.334 0-.467-.067-.067-.532-.067-2.795-.067-4.792.2-.066.4-.133.6-.133.801 0 1.268.999 1.268 2.263.067 1.53-.534 2.729-1.334 2.729zm.867-5.59c-.534 0-.934.133-1.334.332 0-1.264 0-2.33.067-2.729l-2.536.466v.2l.267.067c.334.066.467.266.534.732.067.931.067 5.856 0 6.655.667.133 1.4.266 2.135.266 2.001 0 3.202-1.264 3.202-3.26-.067-1.598-1-2.73-2.335-2.73zm-13.343-2.263H7.672v.332l.4.067c.467.067.667.4.734 1.131.134 1.398.067 3.927 0 5.125-.067.732-.267 1.065-.734 1.131h-.4v.333h4.27v-.333l-.467-.066c-.467-.067-.667-.4-.734-1.132-.067-.532-.067-1.33-.067-2.329l.934.067c.6 0 .8.466.934 1.131h.334v-2.729h-.334c-.133.666-.4 1.132-.934 1.132h-.934c0-1.331.067-2.53.067-3.261h1.334c1 0 1.535.665 1.935 1.797l.4-.133-.067-2.263z" fill="#201600"/><path d="M16.345 15.374c-.8 0-1.068 1.131-1.068 2.662 0 1.464.4 2.662 1.135 2.662.867 0 1.067-1.131 1.067-2.662.067-1.464-.334-2.662-1.134-2.662zm.133-.4c1.868 0 2.869 1.331 2.869 3.062 0 1.664-1.068 3.061-2.936 3.061-1.868 0-2.868-1.33-2.868-3.061 0-1.664 1-3.062 2.935-3.062zm15.745 2.396l1.8-.066c0-.799-.133-1.93-.733-1.93-.734 0-1.067 1.131-1.067 1.996zm-1.735.732c0-1.597 1-3.061 2.935-3.061 1.602 0 2.335 1.198 2.335 2.795h-3.535c-.067 1.398.667 2.463 2.001 2.463.6 0 .934-.134 1.268-.4l.133.2c-.4.532-1.2 1.065-2.268 1.065-1.668-.067-2.869-1.265-2.869-3.062zm9.74-2.795a4.473 4.473 0 00-1.734-.333c-1.401 0-2.269.865-2.269 1.864 0 .998.667 1.397 1.535 1.73.934.333 1.2.6 1.2 1.065 0 .466-.333.865-.933.865-.734 0-1.268-.4-1.668-1.597l-.267.067.067 1.73c.467.2 1.267.333 2.001.333 1.468 0 2.402-.799 2.402-1.997 0-.799-.4-1.264-1.401-1.664-1.068-.4-1.468-.665-1.468-1.198 0-.532.334-.865.8-.865.668 0 1.135.4 1.468 1.464l.267-.066v-1.398zm-16.011-.133c-.667-.4-1.801-.2-2.402 1.198l.067-1.331-2.535.466v.2l.267.066c.333.066.467.2.534.732.066.932.066 2.529 0 3.328-.067.466-.2.665-.534.732l-.267.066v.333h3.536v-.333h-.467c-.4-.066-.467-.266-.534-.732-.067-.732-.067-2.196-.067-3.128.2-.266 1.001-.532 1.802 0l.6-1.597zM8.74 7.787c.133-.067.333-.067.466-.067.334 0 .534.067.734.266.267.2.4.6.4 1.265 0 .732-.2 1.131-.4 1.33-.2.2-.533.334-.867.334h-.4V7.787h.066zm.333 2.795h.133c.4 0 .801-.266.801-1.331 0-.799-.267-1.198-.734-1.198h-.2v2.529zm1.868-2.263c-.133 0-.2-.067-.2-.266 0-.2.067-.266.2-.266s.2.066.2.266-.067.266-.2.266zm-.2.333h.333v2.263h-.333V8.652zm2.001 1.73v.533h-.333v-.266c-.067.2-.267.266-.467.266-.334 0-.534-.266-.534-.666 0-.599.467-.798.934-.798v-.067c0-.333-.067-.532-.334-.532-.133 0-.266.066-.4.133l-.067-.267c.067-.066.334-.133.534-.133.467 0 .667.267.667.799v.998zm-.333-.665c-.2 0-.6.066-.6.532 0 .266.133.4.266.4.134 0 .267-.134.334-.333v-.599zm.801-.467v-.598h.333v.266c.067-.2.267-.333.534-.333.2 0 .4.067.467.333a.919.919 0 01.2-.266c.066-.067.2-.067.333-.067.334 0 .534.2.534.799v1.464h-.334V9.451c0-.267-.066-.6-.333-.6-.134 0-.267.134-.334.333v1.664h-.333V9.384c0-.266-.067-.532-.334-.532-.133 0-.267.133-.333.399v1.664h-.334V9.25h-.067zm3.135.533c0 .666.267.865.534.865.133 0 .266-.066.4-.066l.067.266a1.24 1.24 0 01-.468.133c-.533 0-.8-.466-.8-1.131 0-.732.334-1.198.734-1.198.467 0 .667.466.667.998v.2h-1.134v-.067zm.734-.266c0-.466-.134-.665-.334-.665s-.334.332-.4.665h.734zm.667-.267v-.598h.333v.266c.067-.2.267-.333.534-.333.334 0 .534.2.534.799v1.53h-.334V9.452c0-.267-.066-.533-.333-.533-.134 0-.267.133-.334.4v1.597h-.334V9.25h-.066zm2.334-1.13v.532h.401v.266h-.4v1.331c0 .266.133.4.2.4h.133v.266c-.066 0-.133.066-.267.066a.51.51 0 01-.333-.133c-.067-.133-.134-.266-.134-.599V8.92h-.266v-.267h.266v-.4l.4-.132zm4.004 1.397c0-.4-.067-.865 0-1.198-.067.333-.134.732-.267 1.065l-.4 1.464h-.267l-.334-1.398c-.133-.399-.2-.798-.267-1.131 0 .4 0 .799-.067 1.265l-.066 1.33h-.334l.2-3.127h.4l.334 1.464c.134.4.2.732.267 1.065.067-.333.133-.666.2-1.065l.334-1.464h.4l.2 3.128h-.333V9.517zm1-1.198c-.133 0-.2-.067-.2-.266 0-.2.067-.266.2-.266.134 0 .2.066.2.266s-.066.266-.2.266zm-.133.333h.333v2.263h-.333V8.652zm1.067 1.131c0 .666.267.865.534.865.133 0 .267-.066.4-.066l.067.266a1.24 1.24 0 01-.467.133c-.534 0-.8-.466-.8-1.131 0-.732.333-1.198.733-1.198.467 0 .667.466.667.998v.2h-1.134v-.067zm.734-.266c0-.466-.133-.665-.333-.665-.267 0-.334.332-.4.665h.733zm.668.998a.51.51 0 00.333.133c.2 0 .333-.133.333-.332 0-.2-.066-.267-.266-.466-.267-.2-.468-.4-.468-.666 0-.399.267-.599.6-.599.201 0 .334.067.401.133l-.067.267a.51.51 0 00-.333-.133c-.2 0-.267.133-.267.266s.067.266.267.4c.267.199.467.398.467.665 0 .466-.334.665-.667.665-.134 0-.334-.066-.467-.133l.133-.2zm1.534-2.196c-.134 0-.2-.067-.2-.266 0-.2.066-.266.2-.266.133 0 .2.066.2.266s-.067.266-.2.266zm-.2.333h.333v2.263h-.334V8.652zm1.934 3.061c-.133.067-.267.133-.333.133-.2 0-.4-.133-.4-.332 0-.2.2-.466.333-.533-.534 0-.8-.466-.8-1.131 0-.732.333-1.198.733-1.198.467 0 .667.466.667.998v.2h-1.067c0 .665.267.865.534.865.133 0 .267-.067.4-.067l.067.267c-.067 0-.067.066-.134.066-.2.133-.467.333-.467.533 0 .133.067.2.2.2.067 0 .134 0 .2-.067l.067.066zm-.133-2.196c0-.466-.134-.665-.334-.665-.267 0-.333.332-.4.665h.734zm1.801 1.331c-.067.067-.2.067-.4.067-.467 0-.8-.4-.8-1.132 0-.665.333-1.198.867-1.198.133 0 .266 0 .333.067l-.067.266c-.066 0-.133-.066-.267-.066-.333 0-.533.399-.533.865 0 .532.2.865.534.865.066 0 .2 0 .266-.067l.067.333zm.2-.2l.734-1.397c.067-.133.133-.2.2-.333h-.8v-.266h1.2v.266l-.733 1.398c-.067.133-.134.2-.2.332h.867v.267h-1.268v-.267zm1.668-1.398v-.598h.334v.266c.066-.2.266-.333.533-.333.334 0 .534.2.534.799v1.53h-.334V9.452c0-.267-.066-.533-.333-.533-.134 0-.267.133-.334.4v1.597h-.333V9.25h-.067zm2.001-.931c-.133 0-.2-.067-.2-.266 0-.2.067-.266.2-.266.134 0 .2.066.2.266s-.066.266-.2.266zm-.133.333h.334v2.263h-.334V8.652zm1.134 1.065c.067-.067.067-.2.133-.267l.468-.798h.4l-.6.932.666 1.33h-.4L37.36 9.85l-.133.2v.865h-.334V7.72h.334v1.997zm2.468.665v.533h-.333v-.266c-.067.2-.267.266-.467.266-.334 0-.534-.266-.534-.666 0-.599.467-.798.934-.798v-.067c0-.333-.066-.532-.333-.532-.134 0-.267.066-.4.133l-.067-.267c.066-.066.333-.133.533-.133.467 0 .667.267.667.799v.998zm-.333-.665c-.2 0-.6.066-.6.532 0 .266.133.4.266.4.134 0 .267-.134.334-.333v-.599z" fill="#201600"/><path d="M18.48 27.486v-.532l.4-.533c.534-.665 1-1.264 1-1.863 0-.333-.2-.533-.533-.533-.267 0-.467.134-.6.2l-.134-.666c.2-.133.534-.266.934-.266.934 0 1.2.6 1.2 1.198 0 .799-.466 1.398-.933 1.93l-.267.267h1.268v.732H18.48v.066zm5.137-2.129c0 1.464-.534 2.13-1.201 2.13-.934 0-1.201-1.066-1.201-2.13 0-1.198.4-2.13 1.267-2.13.934.066 1.135 1.198 1.135 2.13zm-1.602.066c0 .998.134 1.398.4 1.398.268 0 .334-.466.334-1.398 0-.865-.066-1.398-.333-1.398-.267-.066-.4.4-.4 1.398zm1.935 2.063v-.532l.4-.533c.534-.665 1.001-1.264 1.001-1.863 0-.333-.2-.533-.534-.533-.266 0-.467.134-.6.2l-.133-.666c.2-.133.533-.266.933-.266.934 0 1.201.6 1.201 1.198 0 .799-.467 1.398-.934 1.93l-.267.267h1.268v.732H23.95v.066zm3.67-3.394l-.735.333-.133-.666.934-.466h.734v4.127h-.8v-3.328z" fill="#000"/></svg>