<svg width="47" height="38" fill="none" xmlns="http://www.w3.org/2000/svg"><path d="M6.485 18.701L0 11.247 7.533 0h31.505l7.598 10.25-5.502 6.92-.655-.532 5.175-6.456L38.645.8H7.925L.984 11.18l6.091 6.988-.59.532zm16.833 18.435L10.48 23.293l.59-.599 12.248 13.244L35.043 22.96l.59.533-12.315 13.643z" fill="#201600"/><path d="M26.331 20.698c-.13 0-.327 0-.458-.067-.066-.532-.066-2.795-.066-4.792.197-.066.393-.133.59-.133.786 0 1.244.999 1.244 2.263.066 1.53-.524 2.729-1.31 2.729zm.852-5.59c-.524 0-.917.133-1.31.332 0-1.264 0-2.33.065-2.729l-2.489.466v.2l.262.067c.328.066.459.266.524.732.066.931.066 5.856 0 6.655.655.133 1.376.266 2.096.266 1.965 0 3.144-1.264 3.144-3.26-.065-1.598-.982-2.73-2.292-2.73zm-13.1-2.263h-6.55v.332l.393.067c.458.067.655.4.72 1.131.131 1.398.066 3.927 0 5.125-.065.732-.262 1.065-.72 1.131h-.393v.333h4.192v-.333l-.459-.066c-.458-.067-.655-.4-.72-1.132-.066-.532-.066-1.33-.066-2.329l.917.067c.59 0 .786.466.917 1.131h.328v-2.729h-.328c-.13.666-.393 1.132-.917 1.132h-.917c0-1.331.066-2.53.066-3.261h1.31c.982 0 1.506.665 1.9 1.797l.392-.133-.065-2.263z" fill="#201600"/><path d="M16.048 15.374c-.786 0-1.048 1.131-1.048 2.662 0 1.464.393 2.662 1.113 2.662.852 0 1.048-1.131 1.048-2.662.066-1.464-.327-2.662-1.113-2.662zm.13-.4c1.835 0 2.817 1.331 2.817 3.062 0 1.664-1.048 3.061-2.882 3.061s-2.816-1.33-2.816-3.061c0-1.664.982-3.062 2.882-3.062zm15.459 2.396l1.768-.066c0-.799-.13-1.93-.72-1.93-.72 0-1.048 1.131-1.048 1.996zm-1.703.732c0-1.597.982-3.061 2.882-3.061 1.572 0 2.292 1.198 2.292 2.795h-3.471c-.066 1.398.655 2.463 1.965 2.463.59 0 .917-.134 1.244-.4l.131.2c-.393.532-1.179 1.065-2.227 1.065-1.637-.067-2.816-1.265-2.816-3.062zm9.563-2.795a4.322 4.322 0 00-1.703-.333c-1.376 0-2.227.865-2.227 1.864 0 .998.655 1.397 1.506 1.73.917.333 1.18.6 1.18 1.065 0 .466-.328.865-.918.865-.72 0-1.244-.4-1.637-1.597l-.262.067.065 1.73c.459.2 1.245.333 1.965.333 1.441 0 2.358-.799 2.358-1.997 0-.799-.393-1.264-1.375-1.664-1.048-.4-1.441-.665-1.441-1.198 0-.532.327-.865.786-.865.655 0 1.113.4 1.44 1.464l.263-.066v-1.398zm-15.72-.133c-.655-.4-1.769-.2-2.358 1.198l.065-1.331-2.489.466v.2l.262.066c.328.066.459.2.524.732.066.932.066 2.529 0 3.328-.065.466-.196.665-.524.732l-.262.066v.333h3.472v-.333h-.459c-.393-.066-.458-.266-.524-.732-.065-.732-.065-2.196-.065-3.128.196-.266.982-.532 1.768 0l.59-1.597zM8.58 7.787c.132-.067.328-.067.46-.067.327 0 .523.067.72.266.262.2.393.6.393 1.265 0 .732-.197 1.131-.393 1.33-.197.2-.524.334-.852.334h-.393V7.787h.066zm.328 2.795h.131c.393 0 .786-.266.786-1.331 0-.799-.262-1.198-.72-1.198h-.197v2.529zm1.834-2.263c-.13 0-.196-.067-.196-.266 0-.2.065-.266.196-.266s.197.066.197.266-.066.266-.197.266zm-.196.333h.327v2.263h-.327V8.652zm1.964 1.73v.533h-.327v-.266c-.065.2-.262.266-.458.266-.328 0-.524-.266-.524-.666 0-.599.458-.798.917-.798v-.067c0-.333-.066-.532-.328-.532-.13 0-.262.066-.393.133l-.065-.267c.065-.066.327-.133.524-.133.458 0 .655.267.655.799v.998zm-.327-.665c-.196 0-.59.066-.59.532 0 .266.132.4.263.4.13 0 .262-.134.327-.333v-.599zm.787-.467v-.598h.327v.266c.065-.2.262-.333.524-.333.196 0 .393.067.458.333a.91.91 0 01.197-.266c.065-.067.196-.067.327-.067.328 0 .524.2.524.799v1.464H15V9.451c0-.267-.066-.6-.328-.6-.13 0-.262.134-.327.333v1.664h-.328V9.384c0-.266-.065-.532-.327-.532-.131 0-.262.133-.328.399v1.664h-.327V9.25h-.066zm3.078.533c0 .666.262.865.524.865.13 0 .262-.066.393-.066l.065.266a1.2 1.2 0 01-.458.133c-.524 0-.786-.466-.786-1.131 0-.732.327-1.198.72-1.198.459 0 .655.466.655.998v.2h-1.113v-.067zm.72-.266c0-.466-.13-.665-.327-.665s-.328.332-.393.665h.72zm.655-.267v-.598h.328v.266c.065-.2.262-.333.524-.333.327 0 .524.2.524.799v1.53h-.328V9.452c0-.267-.065-.533-.327-.533-.131 0-.262.133-.328.4v1.597h-.327V9.25h-.066zm2.293-1.13v.532h.393v.266h-.393v1.331c0 .266.13.4.196.4h.131v.266c-.065 0-.13.066-.262.066a.496.496 0 01-.327-.133c-.066-.133-.131-.266-.131-.599V8.92h-.262v-.267h.262v-.4l.393-.132zm3.93 1.397c0-.4-.066-.865 0-1.198-.066.333-.131.732-.262 1.065l-.393 1.464h-.262L22.4 9.45c-.13-.399-.196-.798-.262-1.131 0 .4 0 .799-.065 1.265l-.066 1.33h-.327l.196-3.127h.393l.328 1.464c.13.4.196.732.262 1.065.065-.333.13-.666.196-1.065l.328-1.464h.393l.196 3.128h-.327V9.517zm.982-1.198c-.13 0-.196-.067-.196-.266 0-.2.065-.266.196-.266s.197.066.197.266-.066.266-.197.266zm-.13.333h.327v2.263h-.328V8.652zm1.047 1.131c0 .666.262.865.524.865.131 0 .262-.066.393-.066l.066.266a1.2 1.2 0 01-.459.133c-.524 0-.786-.466-.786-1.131 0-.732.328-1.198.72-1.198.46 0 .656.466.656.998v.2h-1.114v-.067zm.72-.266c0-.466-.13-.665-.327-.665-.262 0-.327.332-.393.665h.72zm.655.998a.496.496 0 00.328.133c.197 0 .328-.133.328-.332 0-.2-.066-.267-.262-.466-.262-.2-.459-.4-.459-.666 0-.399.262-.599.59-.599.196 0 .327.067.393.133l-.066.267a.496.496 0 00-.327-.133c-.197 0-.262.133-.262.266s.065.266.262.4c.262.199.458.398.458.665 0 .466-.327.665-.655.665-.13 0-.327-.066-.458-.133l.13-.2zm1.507-2.196c-.13 0-.196-.067-.196-.266 0-.2.065-.266.196-.266s.197.066.197.266-.066.266-.197.266zm-.196.333h.327v2.263h-.327V8.652zm1.899 3.061c-.13.067-.262.133-.327.133-.197 0-.393-.133-.393-.332 0-.2.196-.466.327-.533-.524 0-.786-.466-.786-1.131 0-.732.328-1.198.72-1.198.46 0 .656.466.656.998v.2h-1.048c0 .665.262.865.524.865.13 0 .262-.067.393-.067l.065.267c-.065 0-.065.066-.13.066-.197.133-.46.333-.46.533 0 .133.066.2.197.2.066 0 .131 0 .197-.067l.065.066zM30 9.517c0-.466-.132-.665-.328-.665-.262 0-.328.332-.393.665h.72zm1.768 1.331c-.066.067-.197.067-.393.067-.459 0-.786-.4-.786-1.132 0-.665.327-1.198.851-1.198.131 0 .262 0 .328.067l-.066.266c-.065 0-.13-.066-.262-.066-.327 0-.524.399-.524.865 0 .532.197.865.524.865.066 0 .197 0 .262-.067l.066.333zm.196-.2l.72-1.397c.066-.133.132-.2.197-.333h-.786v-.266h1.18v.266l-.721 1.398c-.066.133-.131.2-.197.332h.852v.267h-1.245v-.267zm1.638-1.398v-.598h.327v.266c.066-.2.262-.333.524-.333.328 0 .524.2.524.799v1.53h-.327V9.452c0-.267-.066-.533-.328-.533-.13 0-.262.133-.327.4v1.597h-.328V9.25h-.065zm1.965-.931c-.131 0-.197-.067-.197-.266 0-.2.066-.266.197-.266.13 0 .196.066.196.266s-.065.266-.196.266zm-.131.333h.327v2.263h-.327V8.652zm1.114 1.065c.065-.067.065-.2.13-.267l.459-.798h.393l-.59.932.655 1.33h-.393L36.68 9.85l-.13.2v.865h-.328V7.72h.327v1.997zm2.423.665v.533h-.328v-.266c-.065.2-.262.266-.458.266-.328 0-.524-.266-.524-.666 0-.599.458-.798.917-.798v-.067c0-.333-.066-.532-.328-.532-.13 0-.262.066-.393.133l-.065-.267c.065-.066.327-.133.524-.133.458 0 .655.267.655.799v.998zm-.328-.665c-.196 0-.59.066-.59.532 0 .266.132.4.263.4.13 0 .262-.134.327-.333v-.599z" fill="#201600"/><path d="M18.144 27.486v-.532l.393-.533c.524-.665.982-1.264.982-1.863 0-.333-.196-.533-.524-.533-.262 0-.458.134-.59.2l-.13-.666c.196-.133.524-.266.917-.266.917 0 1.179.6 1.179 1.198 0 .799-.459 1.398-.917 1.93l-.262.267h1.244v.732h-2.292v.066zm5.043-2.129c0 1.464-.524 2.13-1.179 2.13-.917 0-1.179-1.066-1.179-2.13 0-1.198.393-2.13 1.245-2.13.917.066 1.113 1.198 1.113 2.13zm-1.572.066c0 .998.131 1.398.393 1.398s.328-.466.328-1.398c0-.865-.066-1.398-.328-1.398-.262-.066-.393.4-.393 1.398zm1.9 2.063v-.532l.393-.533c.524-.665.982-1.264.982-1.863 0-.333-.196-.533-.524-.533-.262 0-.458.134-.59.2l-.13-.666c.196-.133.524-.266.917-.266.917 0 1.179.6 1.179 1.198 0 .799-.459 1.398-.917 1.93l-.262.267h1.244v.732h-2.292v.066zm2.62 0v-.532l.393-.533c.524-.665.982-1.264.982-1.863 0-.333-.196-.533-.524-.533-.262 0-.458.134-.59.2l-.13-.666c.196-.133.524-.266.917-.266.917 0 1.179.6 1.179 1.198 0 .799-.459 1.398-.917 1.93l-.262.267h1.244v.732h-2.292v.066z" fill="#000"/></svg>