<svg width="48" height="38" fill="none" xmlns="http://www.w3.org/2000/svg"><path d="M6.605 18.701L0 11.247 7.672 0h32.09L47.5 10.25l-5.604 6.92-.667-.532 5.27-6.456L39.361.8H8.072L1.001 11.18l6.204 6.988-.6.532zM23.75 37.136L10.674 23.293l.6-.599L23.75 35.938 35.692 22.96l.6.533L23.75 37.136z" fill="#201600"/><path d="M26.819 20.698c-.134 0-.334 0-.467-.067-.067-.532-.067-2.795-.067-4.791.2-.067.4-.133.6-.133.801 0 1.268.998 1.268 2.262.067 1.531-.534 2.729-1.334 2.729zm.867-5.59c-.534 0-.934.133-1.334.332 0-1.264 0-2.329.067-2.728l-2.536.466v.2l.267.066c.334.066.467.266.534.732.067.932.067 5.856 0 6.655.667.133 1.401.266 2.135.266 2.001 0 3.202-1.264 3.202-3.26-.067-1.598-1-2.73-2.335-2.73zm-13.343-2.263H7.672v.332l.4.067c.467.067.667.4.734 1.131.134 1.398.067 3.927 0 5.125-.067.732-.267 1.065-.734 1.131h-.4v.333h4.27v-.333l-.467-.066c-.467-.067-.667-.4-.734-1.132-.067-.532-.067-1.33-.067-2.329l.934.067c.6 0 .8.466.934 1.131h.334v-2.729h-.334c-.133.666-.4 1.132-.934 1.132h-.934c0-1.331.067-2.53.067-3.261h1.334c1 0 1.535.665 1.935 1.797l.4-.133-.067-2.263z" fill="#201600"/><path d="M16.345 15.374c-.8 0-1.068 1.131-1.068 2.662 0 1.464.4 2.662 1.135 2.662.867 0 1.067-1.131 1.067-2.662.067-1.464-.334-2.662-1.134-2.662zm.133-.4c1.868 0 2.869 1.331 2.869 3.062 0 1.664-1.068 3.061-2.936 3.061-1.868 0-2.868-1.33-2.868-3.061 0-1.664 1-3.062 2.935-3.062zm15.745 2.396l1.8-.066c0-.799-.133-1.93-.733-1.93-.734 0-1.067 1.131-1.067 1.996zm-1.735.732c0-1.597 1-3.061 2.935-3.061 1.602 0 2.335 1.198 2.335 2.795h-3.535c-.067 1.398.667 2.463 2.001 2.463.6 0 .934-.133 1.268-.4l.133.2c-.4.532-1.2 1.065-2.268 1.065-1.668-.067-2.869-1.265-2.869-3.062zm9.74-2.795a4.47 4.47 0 00-1.734-.332c-1.401 0-2.269.865-2.269 1.863s.667 1.398 1.535 1.73c.934.333 1.2.6 1.2 1.065 0 .466-.333.865-.933.865-.734 0-1.268-.399-1.668-1.597l-.267.067.067 1.73c.467.2 1.267.333 2.001.333 1.468 0 2.402-.799 2.402-1.997 0-.798-.4-1.264-1.401-1.664-1.068-.399-1.468-.665-1.468-1.198 0-.532.334-.865.8-.865.668 0 1.135.4 1.468 1.464l.267-.066v-1.398zm-16.011-.133c-.667-.4-1.801-.2-2.402 1.198l.067-1.331-2.535.466v.2l.267.066c.333.067.467.2.534.732.066.932.066 2.53 0 3.328-.067.466-.2.665-.534.732l-.267.066v.333h3.536v-.333h-.467c-.4-.066-.467-.266-.534-.732-.067-.732-.067-2.196-.067-3.128.2-.266 1.001-.532 1.802 0l.6-1.597zM8.74 7.787c.133-.067.333-.067.466-.067.334 0 .534.067.734.266.267.2.4.6.4 1.265 0 .732-.2 1.131-.4 1.331-.2.2-.533.333-.867.333h-.4V7.787h.066zm.333 2.795h.133c.4 0 .801-.266.801-1.331 0-.799-.267-1.198-.734-1.198h-.2v2.529zm1.868-2.262c-.133 0-.2-.067-.2-.267s.067-.266.2-.266.2.066.2.266-.067.266-.2.266zm-.2.332h.333v2.263h-.333V8.652zm2.001 1.73v.533h-.333v-.266c-.067.2-.267.266-.467.266-.334 0-.534-.266-.534-.666 0-.599.467-.798.934-.798v-.067c0-.333-.067-.532-.334-.532-.133 0-.266.066-.4.133l-.067-.266c.067-.067.334-.134.534-.134.467 0 .667.267.667.8v.997zm-.333-.665c-.2 0-.6.066-.6.532 0 .266.133.4.266.4.134 0 .267-.133.334-.333v-.599zm.801-.466v-.599h.333v.266c.067-.2.267-.333.534-.333.2 0 .4.067.466.333.067-.133.134-.2.2-.266.067-.067.2-.067.334-.067.334 0 .534.2.534.8v1.463h-.334V9.451c0-.267-.066-.6-.333-.6-.134 0-.267.134-.334.333v1.664h-.333V9.384c0-.266-.067-.532-.334-.532-.133 0-.267.133-.333.399v1.664h-.334V9.25h-.067zm3.135.532c0 .666.267.866.534.866.133 0 .266-.067.4-.067l.067.266a1.238 1.238 0 01-.468.133c-.533 0-.8-.466-.8-1.131 0-.732.334-1.198.734-1.198.467 0 .667.466.667.998v.2h-1.134v-.067zm.734-.266c0-.466-.134-.665-.334-.665s-.334.332-.4.665h.734zm.667-.266v-.599h.333v.266c.067-.2.267-.333.534-.333.334 0 .534.2.534.8v1.53h-.334V9.45c0-.267-.066-.533-.333-.533-.134 0-.267.133-.334.4v1.597h-.334V9.25h-.066zM20.08 8.12v.532h.401v.266h-.4v1.331c0 .266.133.4.2.4h.133v.266c-.066 0-.133.066-.267.066a.51.51 0 01-.333-.133c-.067-.133-.134-.266-.134-.599V8.92h-.266v-.267h.266v-.4l.4-.132zm4.004 1.397c0-.4-.067-.865 0-1.198-.067.333-.134.732-.267 1.065l-.4 1.464h-.267l-.334-1.397c-.133-.4-.2-.8-.267-1.132 0 .4 0 .799-.067 1.265l-.066 1.33h-.334l.2-3.127h.4l.334 1.464c.134.4.2.732.267 1.065.067-.333.133-.666.2-1.065l.334-1.464h.4l.2 3.128h-.333V9.517zm1-1.197c-.133 0-.2-.067-.2-.267s.067-.266.2-.266c.134 0 .2.066.2.266s-.066.266-.2.266zm-.133.332h.333v2.263h-.333V8.652zm1.067 1.131c0 .666.267.866.534.866.133 0 .267-.067.4-.067l.067.266a1.239 1.239 0 01-.467.133c-.534 0-.8-.466-.8-1.131 0-.732.333-1.198.733-1.198.467 0 .667.466.667.998v.2h-1.134v-.067zm.734-.266c0-.466-.133-.665-.333-.665-.267 0-.334.332-.4.665h.733zm.668.998a.51.51 0 00.333.134c.2 0 .333-.133.333-.333s-.066-.266-.266-.466c-.267-.2-.468-.4-.468-.666 0-.399.267-.599.6-.599.201 0 .334.067.401.134l-.067.266a.51.51 0 00-.333-.133c-.2 0-.267.133-.267.266s.067.266.267.4c.267.199.467.398.467.665 0 .466-.334.665-.667.665-.134 0-.334-.066-.467-.133l.133-.2zm1.534-2.195c-.134 0-.2-.067-.2-.267s.066-.266.2-.266c.133 0 .2.066.2.266s-.067.266-.2.266zm-.2.332h.333v2.263h-.334V8.652zm1.934 3.061c-.133.067-.267.134-.333.134-.2 0-.4-.134-.4-.333 0-.2.2-.466.333-.533-.534 0-.8-.466-.8-1.131 0-.732.333-1.198.733-1.198.467 0 .667.466.667.998v.2h-1.067c0 .665.267.865.534.865.133 0 .267-.066.4-.066l.067.266c-.067 0-.067.066-.134.066-.2.133-.467.333-.467.533 0 .133.067.2.2.2.067 0 .134 0 .2-.067l.067.066zm-.133-2.196c0-.466-.134-.665-.334-.665-.267 0-.333.332-.4.665h.734zm1.801 1.331c-.067.067-.2.067-.4.067-.467 0-.8-.4-.8-1.132 0-.665.333-1.198.867-1.198.133 0 .266 0 .333.067l-.067.266c-.066 0-.133-.066-.267-.066-.333 0-.533.399-.533.865 0 .532.2.865.534.865.066 0 .2 0 .266-.067l.067.333zm.2-.199l.734-1.398c.067-.133.133-.2.2-.333h-.8v-.266h1.2v.266l-.733 1.398c-.067.133-.134.2-.2.333h.867v.266h-1.268v-.266zm1.668-1.398v-.599h.334v.266c.066-.2.266-.333.533-.333.334 0 .534.2.534.8v1.53h-.334V9.45c0-.267-.066-.533-.333-.533-.134 0-.267.133-.334.4v1.597h-.333V9.25h-.067zm2.001-.931c-.133 0-.2-.067-.2-.267s.067-.266.2-.266c.134 0 .2.066.2.266s-.066.266-.2.266zm-.133.332h.334v2.263h-.334V8.652zm1.134 1.065c.067-.067.067-.2.133-.266l.468-.8h.4l-.6.933.666 1.33h-.4L37.36 9.85l-.133.2v.865h-.334V7.72h.334v1.997zm2.468.665v.533h-.333v-.266c-.067.2-.267.266-.467.266-.334 0-.534-.266-.534-.666 0-.599.467-.798.934-.798v-.067c0-.333-.066-.532-.333-.532-.134 0-.267.066-.4.133l-.067-.266c.066-.067.333-.134.533-.134.467 0 .667.267.667.8v.997zm-.333-.665c-.2 0-.6.066-.6.532 0 .266.133.4.266.4.134 0 .267-.133.334-.333v-.599z" fill="#201600"/><path d="M18.48 27.486v-.532l.4-.532c.534-.666 1-1.265 1-1.864 0-.333-.2-.532-.533-.532-.267 0-.467.133-.6.2l-.134-.666c.2-.133.534-.266.934-.266.934 0 1.2.599 1.2 1.197 0 .8-.466 1.398-.933 1.93l-.267.267h1.268v.732H18.48v.066zm5.136-2.129c0 1.464-.533 2.13-1.2 2.13-.934 0-1.201-1.065-1.201-2.13 0-1.198.4-2.13 1.267-2.13.934.067 1.134 1.198 1.134 2.13zm-1.6.066c0 .999.133 1.398.4 1.398s.333-.466.333-1.398c0-.865-.066-1.397-.333-1.397-.267-.067-.4.399-.4 1.397zm1.934 2.063v-.532l.4-.532c.534-.666 1.001-1.265 1.001-1.864 0-.333-.2-.532-.534-.532-.267 0-.467.133-.6.2l-.133-.666c.2-.133.533-.266.933-.266.934 0 1.201.599 1.201 1.197 0 .8-.467 1.398-.934 1.93l-.267.267h1.268v.732H23.95v.066zm2.802-.798c.134.066.4.133.6.133.4 0 .6-.266.6-.6 0-.465-.333-.665-.8-.665h-.133v-.599h.067c.333 0 .667-.133.667-.532 0-.333-.2-.466-.467-.466-.2 0-.4.067-.534.133l-.133-.599c.2-.133.533-.2.867-.2.734 0 1.067.466 1.067.999 0 .4-.2.732-.6.932.4.133.734.465.734 1.064 0 .666-.467 1.265-1.401 1.265-.334 0-.6-.067-.8-.2l.266-.665z" fill="#000"/></svg>