<svg width="190" height="108" fill="none" xmlns="http://www.w3.org/2000/svg"><path d="M65.293 63.256c-1.464.764-2.864 1.146-4.392.51-1.082-.446-1.846-1.21-2.356-2.229-.636-1.273-.7-2.61-.127-3.883.573-1.273 1.719-2.037 3.056-2.547-.064-.19-.127-.382-.255-.509-3.565-7.576-7.066-15.151-10.631-22.727-.637-1.337-1.21-2.737-1.21-4.265 0-1.146.255-2.165.7-3.183 1.528-3.374 4.839-5.411 8.722-5.284.955.064 1.91.255 2.801.446 2.037.445 4.138 1.018 6.175 1.464.7.127 1.019.51 1.21 1.21 1.528 5.347 3.055 10.758 4.647 16.105.064.192.127.319.255.51.063-.191.063-.382.127-.51 1.273-4.838 4.138-8.148 9.103-9.421.892-.255 1.91-.319 2.865-.319 1.082-.063 2.228 0 3.31 0 .383 0 .574.128.765.51 1.782 3.947 3.565 7.957 5.347 11.904.064.128.127.319.191.446h.127V29.006c0-.445.128-.573.51-.509h3.565v13.178c.063 0 .063 0 .127.064.064-.128.127-.319.255-.446 1.782-4.01 3.628-8.021 5.411-12.032.127-.318.318-.446.7-.446 1.719.064 3.438-.063 5.093.128 5.284.764 8.594 3.947 10.313 8.849.446 1.337.637 2.8.637 4.265v26.865c0 .573-.064 1.21-.255 1.782-.509 1.72-1.973 2.801-3.629 2.801-1.718 0-3.183-1.082-3.628-2.8-.191-.701-.255-1.401-.255-2.102V42.63h-2.419v30.684h-28.01V42.375H81.59v16.743c0 1.146-.128 2.228-.828 3.247a.543.543 0 000 .445c.382 1.274.7 2.547 1.082 3.82.446 1.464.255 2.928-.509 4.265-1.591 2.865-5.475 4.52-8.658 3.502-1.655-.51-2.865-1.528-3.565-3.056-1.21-2.546-2.419-5.093-3.565-7.64-.127-.063-.19-.254-.255-.445zm2.165-1.019c0 .064.064.128.064.191 1.273 2.674 2.482 5.412 3.756 8.085.509 1.083 1.4 1.655 2.546 1.846 1.719.255 3.183-.254 4.456-1.4 1.337-1.21 1.592-2.61.828-4.265-5.348-11.46-10.695-22.918-16.106-34.377l-.191-.382c-1.974 3.055-4.711 3.82-8.149 3.12 2.992 6.365 5.92 12.668 8.913 19.034 1.21-.573 2.419-.764 3.628-.319 1.21.446 2.101 1.274 2.61 2.483 1.146 2.228.382 4.202-2.355 5.984zm7.512-10.313s.064 0 .064-.063c-.064-.128-.064-.319-.128-.446-.573-1.974-1.146-4.01-1.719-5.984-2.1-7.194-4.138-14.387-6.175-21.581-.127-.382-.318-.573-.7-.7-1.655-.382-3.31-.764-4.965-1.21-1.02-.255-2.101-.51-3.184-.51-2.61.064-5.029 1.783-5.92 4.202-1.4 3.629 1.337 7.512 5.157 7.194 1.846-.127 3.373-1.337 3.756-2.992.254-1.082.063-2.1-.637-3.056 0 .128.064.255.127.382.255.637.382 1.273.191 1.91-.254 1.273-1.018 2.1-2.292 2.483-1.337.445-2.61.127-3.628-.828-1.974-1.782-1.592-5.156.7-6.684 2.483-1.592 5.793-.828 7.257 1.782.255.382.446.828.637 1.21l11.077 23.682c.064.51.19.827.382 1.21zM93.877 1.187v7.957c.064.51.382.828.892.828.445 0 .763-.319.827-.828V1.123c0-.382.064-.637.51-.637h3.119c.382 0 .509.191.509.573v8.085c.064.446.382.764.828.764.382 0 .764-.255.827-.7V1.124c.255.064.382.127.573.255 2.929 1.464 4.838 3.82 6.048 6.811.446 1.146.7 2.356.955 3.565.064.382.191.51.573.51h2.101c.254 0 .382.127.382.382v1.527c0 .319-.128.382-.382.382H83.882c-.573 0-.573 0-.573-.573v-1.21c0-.317.128-.445.446-.381h1.974c.445 0 .573-.127.636-.573.446-3.056 1.72-5.73 3.82-8.021.955-.955 1.973-1.783 3.183-2.356.127-.063.19-.127.318-.127 0-.127.064-.127.191-.127z" fill="#221F21"/><path d="M97.57 16.21h8.466c.319 0 .51.064.51.383 0 3.501-1.337 6.302-4.266 8.212-2.864 1.846-5.856 1.973-8.848.318-3.247-1.782-4.711-4.71-4.839-8.403 0-.382.128-.573.573-.573 2.801.064 5.603.064 8.404.064zm-83.8 87.556c0 .063 0 .127-.063.191-.064.063-.128.063-.191.127-.064 0-.191.064-.382.064h-1.146c-.128 0-.255-.064-.382-.064-.064 0-.128-.064-.191-.127-.064-.064-.064-.128-.064-.191V98.8c0-.254 0-.51-.064-.764-.063-.254-.127-.445-.254-.573-.127-.19-.255-.318-.446-.382-.19-.063-.382-.127-.573-.127-.254 0-.573.127-.827.318-.319.191-.573.51-.955.955v5.602c0 .064 0 .128-.064.191-.064.064-.127.064-.19.128-.065 0-.192.063-.383.063H6.45c-.127 0-.254-.063-.382-.063-.063 0-.127-.064-.19-.128-.064-.063-.064-.127-.064-.191v-4.965c0-.255 0-.51-.064-.764-.064-.255-.127-.446-.255-.573-.127-.191-.254-.318-.445-.382s-.382-.127-.573-.127c-.319 0-.573.127-.892.318-.318.191-.572.51-.954.955v5.602c0 .064 0 .127-.064.191s-.127.064-.191.127c-.064 0-.191.064-.382.064H.847c-.127 0-.255-.064-.382-.064-.064 0-.127-.063-.19-.127.126-.191.126-.255.126-.318v-8.404c0-.063 0-.127.064-.19.064-.064.064-.064.191-.128.064 0 .191-.063.318-.063h1.019c.127 0 .255.063.318.063.064.064.128.064.128.127.063.064.063.128.063.191v.955c.446-.509.955-.89 1.4-1.145a2.958 2.958 0 011.465-.382c.318 0 .637.063.955.127.255.064.51.19.764.318.19.127.382.319.573.51.127.19.318.381.382.636.254-.255.509-.51.764-.7.254-.191.509-.382.7-.446.255-.127.446-.19.7-.254.255-.064.446-.064.7-.064.573 0 1.02.064 1.401.254.382.191.7.446.955.764.255.319.382.7.51 1.146.127.446.127.892.127 1.4v5.285h-.128zm9.486 0c0 .064 0 .127-.064.191s-.19.064-.318.127c-.128 0-.319.064-.573.064-.255 0-.51 0-.637-.064-.127 0-.19-.063-.255-.127-.063-.064-.063-.127-.063-.191v-.637c-.318.382-.764.637-1.21.892a3.776 3.776 0 01-1.464.318 3.72 3.72 0 01-1.21-.191 3.366 3.366 0 01-.954-.509c-.255-.255-.51-.51-.637-.828-.127-.318-.255-.764-.255-1.209 0-.51.064-.892.255-1.274s.446-.636.828-.89c.382-.255.827-.383 1.4-.51s1.21-.191 1.974-.191h.827v-.51c0-.254 0-.509-.063-.7-.064-.19-.128-.382-.255-.509s-.255-.255-.51-.318c-.19-.064-.445-.064-.763-.064-.382 0-.764.064-1.082.127-.319.064-.573.191-.828.319-.255.127-.446.19-.573.318-.191.064-.318.127-.382.127s-.127 0-.191-.063c-.064-.064-.127-.128-.127-.191-.064-.064-.064-.191-.064-.319v-.382c0-.19 0-.318.064-.445 0-.128.063-.191.19-.319.064-.063.255-.19.446-.318.191-.127.446-.19.764-.318.319-.064.637-.191.955-.255.318-.064.7-.064 1.082-.064.637 0 1.21.064 1.72.192.445.127.827.318 1.145.572.318.255.51.637.637 1.019.127.446.19.891.19 1.464v5.666zm-2.356-3.565h-.891c-.382 0-.7 0-.955.064-.255.063-.51.127-.636.254-.191.128-.319.255-.383.382a1.276 1.276 0 00-.127.573c0 .382.127.637.319.828.19.191.509.318.954.318.319 0 .637-.064.892-.255.254-.19.573-.445.827-.763v-1.401zm18.08 3.565c0 .064 0 .127-.064.191-.063.064-.127.064-.19.127-.064 0-.192.064-.383.064h-1.146c-.127 0-.254-.064-.382-.064-.063 0-.127-.063-.19-.127-.064-.064-.064-.127-.064-.191V98.8c0-.254 0-.509-.064-.764-.063-.254-.127-.445-.255-.573-.127-.19-.254-.318-.381-.381-.191-.064-.382-.128-.573-.128-.255 0-.573.128-.828.318-.318.191-.573.51-.955.955v5.603c0 .063 0 .127-.064.191-.063.063-.127.063-.19.127-.064 0-.191.063-.383.063h-1.145c-.128 0-.255-.063-.382-.063-.064 0-.128-.064-.191-.127-.064-.064-.064-.128-.064-.191v-4.966c0-.255 0-.51-.064-.764-.063-.255-.127-.446-.254-.573-.128-.19-.255-.318-.382-.382-.191-.063-.382-.127-.573-.127-.319 0-.573.127-.891.318-.319.191-.573.51-.955.955v5.602c0 .064 0 .128-.064.191-.064.064-.127.064-.191.127-.064 0-.191.064-.382.064h-1.146c-.127 0-.255-.064-.382-.064-.064 0-.127-.063-.19-.127-.064-.063-.064-.127-.064-.191V95.49c0-.064 0-.127.063-.191 0-.064.064-.064.191-.127.064 0 .191-.064.318-.064h1.02c.127 0 .255.064.318.064.064.063.128.063.128.127s.063.127.063.19v.956a5.55 5.55 0 011.4-1.146 2.957 2.957 0 011.465-.382c.318 0 .637.064.955.127.255.064.51.191.764.319.19.127.382.318.573.509.127.19.318.382.382.636.254-.254.51-.509.764-.7.254-.19.509-.382.7-.445a3.1 3.1 0 01.7-.255c.255-.064.446-.064.7-.064.573 0 1.02.064 1.401.255.382.19.7.446.955.764s.382.7.51 1.146c.127.445.127.891.127 1.4v5.157h-.064zm6.812.318l-1.019 2.992c-.064.128-.19.255-.446.319a4.61 4.61 0 01-1.082.127c-.254 0-.445 0-.573-.064a.484.484 0 01-.318-.127c-.064-.064-.127-.127-.127-.191s0-.191.063-.255l1.146-2.801c-.063-.063-.127-.063-.19-.191-.064-.127-.128-.191-.128-.254l-2.865-7.703c-.063-.191-.127-.382-.127-.51 0-.127.064-.19.127-.254.064-.064.191-.128.382-.128s.446-.063.7-.063h.637c.127 0 .255.063.382.063.064.064.127.064.191.191.064.064.064.191.127.319l1.974 5.602 1.782-5.73c.064-.19.064-.254.128-.318.063-.064.127-.064.318-.127.127 0 .382-.064.7-.064.255 0 .51 0 .7.064.191 0 .319.063.382.127a.482.482 0 01.128.255c0 .127 0 .254-.064.382l-2.928 8.339zm18.907-6.302c0 1.145-.127 2.1-.446 2.864-.318.764-.7 1.465-1.273 1.974-.573.509-1.21.891-1.973 1.082-.764.255-1.72.382-2.801.382h-2.929a.724.724 0 01-.51-.191c-.126-.127-.19-.318-.19-.573V92.689c0-.255.064-.446.19-.573a.723.723 0 01.51-.191h3.12c1.082 0 2.037.127 2.737.382.764.254 1.4.636 1.91 1.146.51.509.891 1.146 1.21 1.846.318.7.445 1.528.445 2.483zm-2.546.127c0-.573-.064-1.146-.191-1.592a3.416 3.416 0 00-.637-1.273c-.318-.382-.7-.636-1.146-.827-.446-.191-1.082-.319-1.846-.319H57.06v8.276h1.273c.7 0 1.273-.063 1.719-.254a3.617 3.617 0 001.146-.764c.318-.382.573-.764.7-1.337.127-.637.255-1.21.255-1.91zm15.533-.063c0 1.018-.128 1.91-.382 2.737a5.307 5.307 0 01-1.146 2.037c-.51.573-1.082.955-1.846 1.273-.7.319-1.592.446-2.547.446-.955 0-1.782-.127-2.483-.382a4.783 4.783 0 01-1.782-1.146 5.548 5.548 0 01-1.082-1.91c-.255-.764-.382-1.719-.382-2.8 0-.956.127-1.847.382-2.675.254-.764.636-1.464 1.146-2.037.509-.573 1.082-.955 1.846-1.273.7-.318 1.591-.446 2.546-.446.891 0 1.72.128 2.42.382a4.78 4.78 0 011.782 1.146c.445.51.828 1.146 1.082 1.91.319.764.446 1.655.446 2.737zm-2.61.127c0-.637-.064-1.21-.128-1.719-.127-.51-.254-.955-.509-1.337s-.573-.636-.955-.891c-.382-.191-.891-.318-1.528-.318-.636 0-1.146.127-1.528.318-.382.255-.763.51-1.018.891a3.087 3.087 0 00-.51 1.337c-.127.51-.127 1.082-.127 1.591 0 .637.064 1.274.128 1.783.127.509.254.955.509 1.337s.573.637.955.891c.382.191.891.318 1.528.318.636 0 1.145-.127 1.528-.318.381-.254.763-.509 1.018-.891s.446-.828.51-1.337c.063-.51.127-1.082.127-1.655zm11.904 2.419c0 .637-.127 1.21-.382 1.656a3.662 3.662 0 01-.955 1.209 3.63 3.63 0 01-1.4.7c-.573.191-1.146.255-1.783.255a5.76 5.76 0 01-1.146-.127c-.381-.064-.7-.128-.954-.255-.255-.127-.51-.191-.7-.318-.192-.128-.32-.191-.383-.255s-.127-.191-.19-.382c-.064-.127-.064-.382-.064-.637v-.509c0-.127.063-.254.063-.318s.064-.127.128-.191c.063-.064.127-.064.19-.064.064 0 .192.064.383.128.19.127.381.191.636.318s.573.255.891.318c.319.128.764.128 1.21.128.318 0 .573-.064.828-.128.254-.063.445-.191.636-.318a.988.988 0 00.382-.509c.064-.191.127-.382.127-.637s-.063-.51-.254-.7a1.504 1.504 0 00-.573-.51c-.255-.127-.51-.318-.828-.445a6.42 6.42 0 01-.955-.446c-.318-.127-.636-.318-.954-.51-.319-.19-.574-.445-.828-.7a2.397 2.397 0 01-.573-.954c-.127-.382-.255-.828-.255-1.337 0-.573.128-1.082.319-1.528.19-.446.509-.828.89-1.082.383-.319.828-.51 1.274-.637a6.414 6.414 0 011.592-.19c.318 0 .572 0 .89.063.32.063.574.127.828.19.255.064.446.192.637.255a.978.978 0 01.382.255c.064.064.127.127.127.191s.064.127.064.191 0 .191.064.255v.827c0 .128 0 .255-.064.319 0 .063-.064.127-.064.19-.063.064-.127.064-.19.064-.064 0-.192-.063-.319-.127s-.318-.191-.573-.318c-.19-.128-.445-.191-.764-.255-.318-.064-.636-.127-.955-.127a2.28 2.28 0 00-.7.127c-.191.064-.382.127-.51.255-.127.127-.254.254-.318.445-.063.191-.127.319-.127.51 0 .254.064.509.191.7.127.19.318.382.573.51.255.126.51.317.828.445.318.127.636.254.954.445.319.128.637.319.955.51.319.19.573.445.828.7.255.254.446.573.573.955.255.51.318.955.318 1.4zm-3.183-11.777l.255-.255a.482.482 0 01.254-.127c.128 0 .255-.064.383-.064h.572c.319 0 .51 0 .7.064.192.064.255.064.319.127.064.064.064.128.064.191-.064.064-.064.128-.191.255l-2.101 1.91c-.064.064-.128.127-.191.127-.064.064-.127.064-.255.127-.063 0-.19.064-.318.064h-1.019c-.127 0-.19-.064-.254-.064-.064-.063-.064-.063-.064-.127s.064-.127.127-.255l1.72-1.973zm17.762 14.833c-.064.127-.064.254-.128.382-.063.063-.191.191-.318.191-.127.063-.318.063-.509.063h-1.655c-.191 0-.382-.063-.51-.063-.127-.064-.19-.128-.254-.191-.064-.064-.128-.191-.128-.382l-1.973-7.703-1.846 7.703c0 .127-.064.254-.128.382-.063.063-.127.191-.254.191-.128.063-.319.063-.51.127h-1.718c-.191 0-.382-.064-.51-.064-.127-.063-.19-.127-.254-.191-.064-.063-.128-.191-.128-.382L88 92.88c-.064-.255-.064-.382-.064-.51 0-.127 0-.254.128-.318.063-.063.19-.127.382-.127h1.464c.19 0 .318.064.382.064.063.063.127.063.19.127 0 .064.064.191.064.255l2.165 9.358 2.228-9.295c0-.127.064-.19.127-.318l.191-.191c.128-.064.255-.064.382-.064h1.4c.192 0 .32.064.446.064.128.064.191.127.191.191.064.064.064.191.128.318l2.291 9.295 2.165-9.295c0-.127.064-.19.064-.254s.063-.128.191-.191c.063-.064.191-.064.382-.064h1.335a.49.49 0 01.319.127c.063.064.127.191.063.319 0 .127-.063.318-.127.573l-2.928 10.504zm7.13.318c0 .064 0 .127-.064.191s-.127.064-.191.127c-.064.064-.191.064-.382.064h-1.146c-.191 0-.318-.064-.382-.064-.063 0-.191-.063-.191-.127-.063-.064-.063-.127-.063-.191V92.243c0-.063 0-.127.063-.19.064-.064.128-.064.191-.128.128 0 .255-.064.382-.064h1.146c.127 0 .255.064.382.064.064.064.191.064.191.127.064.064.064.128.064.191v11.523zm12.605-.637c.063.255.127.382.127.509 0 .128 0 .255-.064.319-.063.063-.191.127-.382.127h-1.464c-.191 0-.318 0-.382-.064-.064 0-.127-.063-.191-.127s-.064-.127-.064-.191l-.827-2.419h-4.584l-.764 2.355c0 .064-.063.191-.127.191-.064.064-.127.128-.191.128-.064.063-.191.063-.382.063h-1.337c-.191 0-.254-.063-.318-.127s-.064-.191-.064-.318c0-.128.064-.319.128-.51l3.756-10.822c.063-.127.063-.191.127-.255.064-.063.127-.127.254-.127.128-.064.255-.064.446-.064h1.655c.191 0 .382.064.51.064.127.064.191.064.254.127a.482.482 0 01.128.255l3.756 10.886zm-5.603-8.913l-1.718 5.157h3.437l-1.719-5.157zm17.443 3.566c0 1.145-.127 2.1-.445 2.864-.319.764-.7 1.465-1.273 1.974-.573.509-1.21.891-1.974 1.082-.764.255-1.719.382-2.801.382h-2.928a.727.727 0 01-.51-.191c-.127-.127-.191-.318-.191-.573V92.689c0-.255.064-.446.191-.573a.726.726 0 01.51-.191h3.119c1.082 0 2.037.127 2.737.382.764.254 1.401.636 1.91 1.146.51.509.891 1.146 1.21 1.846.318.7.445 1.528.445 2.483zm-2.546.127c0-.573-.064-1.146-.191-1.592a3.405 3.405 0 00-.637-1.273c-.318-.382-.7-.636-1.146-.827-.445-.191-1.082-.319-1.846-.319h-1.273v8.276h1.273c.701 0 1.274-.063 1.719-.254a3.61 3.61 0 001.146-.764c.318-.382.573-.764.7-1.337.191-.637.255-1.21.255-1.91zm12.987 4.329v.382c0 .128 0 .191-.064.255 0 .064-.063.127-.063.191-.064.064-.064.127-.128.191a.974.974 0 01-.382.255c-.191.127-.445.191-.7.318-.255.127-.637.191-.955.254-.382.064-.764.128-1.209.128-.828 0-1.592-.128-2.229-.382-.7-.255-1.273-.637-1.718-1.146a5.55 5.55 0 01-1.083-1.91c-.254-.764-.382-1.655-.382-2.674 0-1.018.128-1.973.382-2.737a5.32 5.32 0 011.146-2.037c.51-.573 1.082-.955 1.783-1.273.7-.255 1.464-.446 2.292-.446.318 0 .636 0 .954.064.319.063.573.127.892.19.254.064.509.192.7.319.191.127.382.19.446.318l.191.191c.063.064.063.128.063.191 0 .064 0 .191.064.319v.954c0 .127-.064.254-.064.318-.063.063-.063.127-.127.19-.064.064-.064.064-.127.064-.064 0-.191-.063-.382-.19a2.246 2.246 0 00-.573-.383c-.255-.127-.51-.254-.828-.382-.318-.127-.7-.19-1.146-.19-.509 0-.891.127-1.273.318-.382.19-.7.509-.955.827-.255.382-.446.828-.637 1.337-.127.51-.191 1.082-.191 1.783 0 .7.064 1.337.191 1.846.128.509.382.955.637 1.273.255.318.573.573 1.019.764.382.191.827.255 1.273.255.445 0 .827-.064 1.146-.128.318-.127.573-.191.827-.318.255-.127.446-.255.573-.318.128-.128.255-.128.319-.128.063 0 .127 0 .127.064.064 0 .064.064.064.127 0 .064.063.191.063.319.064.254.064.382.064.636zm9.294.891v.446c0 .127-.063.255-.063.318-.064.064-.064.128-.128.191-.063 0-.127.064-.127.064h-7.194c-.254 0-.445-.064-.573-.191-.127-.127-.191-.382-.191-.637v-.7c0-.127.064-.191.064-.318.064-.127.064-.191.191-.318.064-.128.191-.255.255-.446l4.711-7.512h-4.711c-.064 0-.128 0-.191-.064-.064-.063-.128-.063-.128-.19-.063-.064-.063-.192-.063-.319v-.891c0-.128.063-.255.063-.319.064-.063.064-.127.128-.19.063 0 .127-.064.191-.064h6.748c.254 0 .445.063.573.19.127.128.191.32.191.574v.891c0 .127-.064.255-.064.382-.064.127-.064.255-.191.382-.064.127-.127.254-.255.445l-4.647 7.385h5.093c.127 0 .191.064.255.255 0 0 .063.254.063.636zm8.913 0v.446c0 .127-.064.191-.064.318-.063.064-.063.128-.127.191-.064.064-.127.064-.127.064h-6.112a.723.723 0 01-.509-.191c-.127-.127-.191-.318-.191-.573V92.753c0-.255.064-.446.191-.573a.722.722 0 01.509-.191h6.112c.063 0 .127 0 .127.063.064.064.064.064.127.191 0 .064.064.191.064.319v.891c0 .127-.064.19-.064.318 0 .064-.063.128-.127.191-.064.064-.064.064-.127.064h-4.329v2.992h3.692c.064 0 .127 0 .127.064.064.063.064.063.128.19.063.064.063.192.063.319v.891c0 .127-.063.191-.063.319 0 .063-.064.127-.128.127-.063.064-.127.064-.127.064h-3.692v3.437h4.392c.064 0 .128 0 .128.064.063.063.063.063.127.191 0 .063.064.191.064.318-.064-.255-.064-.064-.064.127zm12.286.064c0 .127 0 .254-.063.382a.888.888 0 01-.191.254c-.064.064-.191.128-.319.191-.127.064-.254.064-.381.064h-1.083c-.191 0-.382 0-.573-.064a1.018 1.018 0 01-.445-.254 2.752 2.752 0 01-.382-.446c-.128-.191-.255-.446-.446-.764l-3.056-5.666a5.622 5.622 0 01-.509-1.082c-.191-.382-.318-.764-.509-1.146 0 .446.063.891.063 1.337v7.767c0 .063 0 .127-.063.191-.064.063-.064.063-.191.127-.064.064-.191.064-.318.064h-1.146c-.128 0-.255-.064-.319-.064-.063 0-.127-.064-.191-.127-.063-.064-.063-.128-.063-.191v-10.95c0-.318.063-.51.254-.637s.382-.19.637-.19h1.337c.254 0 .445 0 .573.063.191.064.318.127.445.191.128.064.255.255.382.382.128.127.255.382.319.637l2.355 4.456.382.764.382.764.382.764c.127.254.255.509.318.764 0-.446-.063-.892-.063-1.4v-7.069c0-.063 0-.126.063-.19.064-.064.128-.064.191-.127.064-.064.191-.064.319-.064h1.082c.127 0 .254.064.318.064.064.063.127.063.191.127 0 .064.064.127.064.19v10.887h.254zm5.093.573c0 .064 0 .127-.063.191-.064.064-.128.064-.191.127-.064.064-.191.064-.382.064h-1.146c-.191 0-.319-.064-.382-.064-.064 0-.191-.063-.191-.127-.064-.064-.064-.127-.064-.191V92.243c0-.063 0-.127.064-.19.064-.064.127-.064.191-.128.127 0 .254-.064.382-.064h1.146c.127 0 .254.064.382.064.063.064.191.064.191.127.063.064.063.128.063.191v11.523zm9.868-.637v.446c0 .127-.064.191-.064.318 0 .064-.063.128-.127.191-.064.064-.127.064-.127.064h-6.112a.723.723 0 01-.509-.191c-.128-.127-.191-.318-.191-.573V92.753c0-.255.063-.446.191-.573a.722.722 0 01.509-.191h6.112c.063 0 .127 0 .127.063.064.064.064.064.127.191 0 .064.064.191.064.319v.891c0 .127-.064.19-.064.318s-.063.128-.127.191c-.064.064-.064.064-.127.064h-4.329v2.992h3.692c.064 0 .127 0 .127.064.064.063.064.063.128.19 0 .064.063.192.063.319v.891c0 .127-.063.191-.063.319 0 .063-.064.127-.128.127-.063.064-.127.064-.127.064h-3.692v3.437h4.392c.064 0 .128 0 .128.064.063.063.063.063.127.191 0 .063.063.191.063.318-.063-.255-.063-.064-.063.127z" fill="#221F21"/></svg>