<svg width="201" height="100" fill="none" xmlns="http://www.w3.org/2000/svg"><g clip-path="url(#clip0_290_742)"><path d="M4.532 95.844c0 .622-.062 1.182-.186 1.555-.125.373-.249.747-.498.995-.249.25-.497.498-.87.623-.312.124-.747.186-1.182.186-.25 0-.436 0-.623-.062-.186-.062-.31-.062-.373-.124-.062-.063-.124-.063-.186-.125 0-.062-.063-.124-.063-.186v-1.058c0-.124 0-.186.063-.249 0-.062.062-.124.062-.124 0-.062.062-.062.124-.062h.497c.187 0 .312 0 .436-.063.125-.062.187-.124.311-.248.063-.125.125-.25.187-.436s.062-.435.062-.808v-8.274c0-.062 0-.124.062-.186.063-.062.125-.062.187-.125.062-.062.187-.062.373-.062h1.12c.124 0 .249.062.373.062.062.063.124.063.187.125.062.062.062.124.062.186v8.46h-.125zm.187-11.259c0 .436-.124.809-.31.996-.188.186-.56.248-1.058.248s-.871-.062-1.058-.248c-.186-.187-.249-.498-.249-.934 0-.435.125-.808.311-.995.187-.186.56-.249 1.058-.249.497 0 .87.063 1.057.25.187.186.25.497.25.932zm9.704 6.657c0 .31-.062.497-.187.622a.707.707 0 01-.497.186H8.762c0 .374.063.684.125.933.062.311.186.498.373.747.187.186.435.373.684.435.311.125.622.187.995.187.436 0 .747 0 1.058-.062.311-.063.56-.125.809-.187s.435-.124.56-.187c.124-.062.248-.062.373-.062.062 0 .124 0 .124.062.062 0 .062.063.062.125s.063.124.063.249v.995c0 .062 0 .124-.063.187 0 .062-.062.062-.124.124a.665.665 0 01-.311.186 5.046 5.046 0 01-.684.187c-.25.062-.622.125-.933.187-.374.062-.747.062-1.12.062-.746 0-1.369-.062-1.928-.249-.56-.186-.996-.435-1.369-.808-.373-.374-.622-.871-.809-1.431-.186-.56-.248-1.244-.248-1.99 0-.747.124-1.37.31-1.991.187-.56.436-1.058.81-1.493a3.177 3.177 0 011.306-.933 5.107 5.107 0 011.741-.311 4.84 4.84 0 011.742.31c.498.187.87.498 1.182.872.31.373.56.808.684 1.244.125.497.249.995.249 1.617v.187zm-2.24-.685c0-.622-.124-1.181-.373-1.555-.248-.373-.684-.56-1.306-.56-.31 0-.56.063-.746.187-.25.124-.374.249-.56.435a2.3 2.3 0 00-.311.685c-.062.249-.125.497-.125.808h3.422zm9.953 2.675c0 .498-.062.87-.248 1.244-.187.373-.436.684-.747.87a3.157 3.157 0 01-1.12.56 5.303 5.303 0 01-1.43.187c-.311 0-.622 0-.871-.062s-.56-.124-.747-.187a2.89 2.89 0 01-.56-.186c-.124-.062-.248-.124-.31-.187-.063-.062-.125-.186-.187-.31-.062-.125-.062-.312-.062-.623v-.435c0-.125 0-.187.062-.249 0-.062.062-.124.062-.124.062 0 .062-.063.124-.063.063 0 .187.063.311.125.125.062.311.186.498.249.187.062.436.186.684.248.25.063.56.125.871.125.187 0 .373 0 .56-.062.187-.063.311-.125.436-.187.124-.062.186-.187.248-.311.063-.124.063-.249.063-.435a.706.706 0 00-.187-.498 2.705 2.705 0 00-.435-.373c-.187-.125-.374-.187-.622-.25-.25-.061-.498-.186-.747-.31l-.746-.373c-.25-.125-.436-.311-.623-.498-.186-.187-.31-.435-.435-.684-.124-.25-.187-.622-.187-.996 0-.373.063-.746.25-1.057.124-.311.372-.622.683-.87a2.868 2.868 0 011.058-.56c.435-.125.87-.187 1.369-.187.248 0 .497 0 .746.062s.435.062.684.124c.187.063.373.125.498.187.124.062.249.124.31.187.063.062.125.062.125.124s.063.124.063.187c0 .062 0 .124.062.248v.747c0 .124 0 .186-.063.249 0 .062-.062.124-.062.124-.062 0-.062.062-.124.062s-.125-.062-.249-.124a3.032 3.032 0 00-.435-.187c-.187-.062-.374-.124-.622-.186-.25-.063-.498-.125-.81-.125-.186 0-.372 0-.559.062l-.373.187c-.125.062-.187.187-.249.311s-.062.249-.062.373c0 .187.062.374.186.498.125.124.25.249.436.31.187.125.435.188.622.25.249.062.498.186.746.31l.747.374c.249.124.435.311.622.498.186.186.373.435.435.684.25.249.311.56.311.933zm6.345 1.493c0 .249 0 .497-.062.622-.062.124-.062.249-.125.31a.839.839 0 01-.248.187c-.125.063-.25.063-.373.125-.125.062-.311.062-.498.062h-.498c-.435 0-.87-.062-1.182-.187-.31-.124-.622-.31-.808-.56-.25-.248-.374-.56-.498-.933a4.135 4.135 0 01-.187-1.306v-4.23h-.995c-.124 0-.187-.062-.249-.186-.062-.125-.062-.374-.062-.747v-.435c0-.125.062-.25.062-.311 0-.063.063-.125.125-.125s.124-.062.186-.062h.996v-1.804c0-.062 0-.124.062-.186.062-.063.124-.063.186-.125.063-.062.187-.062.374-.062h1.12c.124 0 .248.062.373.062.062.062.124.062.186.125.062.062.062.124.062.186v1.804h1.804c.063 0 .125 0 .187.062.062 0 .062.063.124.125 0 .062.063.186.063.31v.436c0 .311-.063.56-.063.747-.062.124-.124.186-.248.186H26.49v3.857c0 .435.062.809.186.995.125.249.373.311.747.311.124 0 .248 0 .31-.062.125 0 .187-.062.25-.062.062 0 .124-.062.186-.062s.124-.063.124-.063c.063 0 .063 0 .125.063.062 0 .062.062.062.124s.062.124.062.249c-.062.249-.062.435-.062.56zm9.019-3.483c0 .31-.062.497-.186.622a.706.706 0 01-.498.186H31.84c0 .374.062.684.125.933.062.311.186.498.373.747.186.186.435.373.684.435.311.125.622.187.995.187.436 0 .747 0 1.058-.062.31-.063.56-.125.808-.187a2.89 2.89 0 00.56-.187c.125-.062.25-.062.373-.062.063 0 .125 0 .125.062.062 0 .062.063.062.125s.062.124.062.249v.995c0 .062-.062.124-.062.187 0 .062-.062.062-.124.124a.665.665 0 01-.311.186c-.187.063-.436.125-.685.187-.248.062-.622.125-.933.187-.373.062-.746.062-1.12.062-.746 0-1.368-.062-1.928-.249-.56-.186-.995-.435-1.368-.808-.373-.374-.622-.871-.809-1.431-.186-.56-.249-1.244-.249-1.99 0-.747.125-1.37.311-1.991.187-.56.436-1.058.81-1.493a3.177 3.177 0 011.305-.933 5.107 5.107 0 011.742-.311 4.84 4.84 0 011.742.31c.497.187.87.498 1.182.872.31.373.56.808.684 1.244.124.497.249.995.249 1.617v.187zm-2.239-.685c0-.622-.124-1.181-.373-1.555-.249-.373-.684-.56-1.306-.56-.311 0-.56.063-.747.187-.248.124-.373.249-.56.435a2.3 2.3 0 00-.31.685c-.063.249-.125.497-.125.808h3.421zm9.953 2.674c0 .498-.062.871-.249 1.245-.186.373-.435.684-.746.87a3.157 3.157 0 01-1.12.56 5.302 5.302 0 01-1.43.187c-.312 0-.623 0-.871-.062-.311-.063-.498-.125-.747-.187a2.892 2.892 0 01-.56-.186c-.124-.063-.248-.125-.31-.187-.063-.062-.125-.187-.187-.311-.063-.125-.063-.373-.063-.622v-.436c0-.124 0-.186.063-.249 0-.062.062-.124.062-.124.062 0 .062-.062.124-.062.063 0 .187.062.311.124.125.063.311.187.498.25.187.061.435.186.684.248.249.062.56.124.871.124.187 0 .373 0 .56-.062.187-.062.31-.124.435-.186.125-.063.187-.187.25-.312.061-.124.061-.248.061-.435s-.062-.31-.186-.498a2.7 2.7 0 00-.436-.373c-.186-.124-.373-.186-.622-.249-.249-.062-.497-.186-.746-.31l-.747-.374c-.248-.124-.435-.31-.622-.498-.186-.186-.31-.435-.435-.684-.124-.249-.187-.622-.187-.995s.063-.746.25-1.057c.123-.311.372-.623.683-.871a2.867 2.867 0 011.058-.56c.435-.125.87-.187 1.368-.187.25 0 .498 0 .747.062.248.063.435.063.684.125.187.062.373.124.498.186.124.063.248.125.31.187.063.062.125.062.125.124 0 .063.062.125.062.187s0 .124.062.249v.808c0 .124 0 .186-.062.248 0 .063-.062.125-.062.125-.062 0-.062.062-.124.062-.063 0-.125-.062-.25-.124a2.877 2.877 0 00-.435-.187 7.822 7.822 0 00-.622-.187c-.248-.062-.497-.124-.808-.124-.187 0-.373 0-.56.062l-.373.187c-.125.062-.187.186-.25.31-.061.125-.061.25-.061.374 0 .187.062.373.186.498.125.124.249.248.436.31.186.125.435.187.622.25.248.062.497.186.746.31l.747.374c.248.124.435.31.622.497.186.187.373.436.435.685.249.186.311.497.311.87zm-2.675-9.89l.187-.187c.062-.062.124-.062.249-.124.062 0 .186-.062.373-.062h.498c.31 0 .497 0 .684.062.186 0 .249.062.373.124.062.063.125.125.125.187s-.063.124-.063.187l-1.804 2.115-.124.124c-.062.062-.124.062-.187.124-.062 0-.186.063-.31.063h-.935c-.124 0-.186-.063-.249-.063-.062-.062-.062-.062-.062-.124s.062-.124.125-.187l1.12-2.239zm17.48 12.193c0 .062 0 .124-.063.186-.062.062-.124.062-.186.125-.062 0-.187.062-.373.062h-1.12c-.124 0-.249-.062-.373-.062-.062 0-.125-.063-.187-.125s-.062-.124-.062-.186v-4.852c0-.25 0-.498-.062-.747-.063-.249-.125-.435-.25-.56-.124-.186-.248-.31-.435-.373-.186-.062-.373-.124-.56-.124-.248 0-.56.124-.808.31-.311.187-.56.498-.933.934v5.474c0 .062 0 .124-.062.186-.063.063-.125.063-.187.125-.062 0-.186.062-.373.062h-1.12c-.124 0-.249-.062-.373-.062-.062 0-.124-.062-.187-.125-.062-.062-.062-.124-.062-.186v-4.852c0-.249 0-.498-.062-.747-.062-.248-.124-.435-.249-.56-.124-.186-.249-.31-.373-.373-.187-.062-.373-.124-.56-.124-.31 0-.56.124-.87.311-.312.187-.56.498-.934.933v5.474c0 .062 0 .124-.062.187-.062.062-.124.062-.187.124-.062 0-.186.062-.373.062h-1.12c-.124 0-.248-.062-.373-.062-.062 0-.124-.062-.186-.124-.063-.063-.063-.125-.063-.187v-8.21c0-.063 0-.125.063-.188 0-.062.062-.062.186-.124.062 0 .187-.062.311-.062h.995c.125 0 .25.062.311.062.063 0 .125.062.125.124.062.063.062.125.062.187v.933c.436-.498.933-.87 1.369-1.12a2.89 2.89 0 011.43-.373c.311 0 .622.062.933.125.25.062.498.186.747.31.187.125.373.312.56.498.124.187.31.374.373.622.249-.248.498-.497.746-.684.25-.186.498-.373.685-.435a3.03 3.03 0 01.684-.25c.249-.061.435-.061.684-.061.56 0 .995.062 1.369.248.373.187.684.436.933.747.248.31.373.684.497 1.12.125.435.125.87.125 1.368v5.039zm6.655.311l-.995 2.923c-.062.125-.186.249-.435.311a4.46 4.46 0 01-1.058.125c-.248 0-.435 0-.56-.063a.475.475 0 01-.31-.124c-.063-.062-.125-.124-.125-.187 0-.062 0-.186.062-.248l1.12-2.737c-.062-.063-.124-.063-.187-.187-.062-.124-.124-.187-.124-.249l-2.8-7.527c-.061-.186-.124-.373-.124-.497 0-.125.063-.187.125-.249s.186-.124.373-.124.435-.063.684-.063h.622c.125 0 .25.063.373.063.063.062.125.062.187.186.062.062.062.187.124.311l1.929 5.474 1.742-5.598c.062-.187.062-.249.124-.311s.124-.062.311-.125c.124 0 .373-.062.684-.062.25 0 .498 0 .684.062.187 0 .312.063.374.125a.472.472 0 01.124.249c0 .124 0 .249-.062.373l-2.862 8.149zm16.733-8.273c0 .684-.124 1.244-.31 1.803a3.175 3.175 0 01-.934 1.307c-.373.373-.87.622-1.492.808-.56.187-1.245.25-2.053.25h-.933v3.794c0 .062 0 .124-.063.186-.062.063-.124.063-.186.125-.062 0-.187.062-.373.062h-1.12c-.187 0-.311-.062-.373-.062-.062-.063-.187-.063-.187-.125-.062-.062-.062-.124-.062-.186v-10.7c0-.31.062-.497.249-.621.124-.125.373-.187.622-.187h2.799c.311 0 .56 0 .809.062.249 0 .56.062.933.125a3.05 3.05 0 011.057.373c.373.186.684.435.933.746.25.311.436.622.56.995.062.311.124.747.124 1.245zm-2.55.186c0-.435-.062-.746-.249-1.057-.124-.25-.31-.498-.56-.622-.186-.125-.435-.187-.684-.25-.249-.061-.497-.061-.746-.061h-.933v4.043h1.057c.373 0 .684-.062.995-.187.25-.124.498-.249.623-.435a1.5 1.5 0 00.373-.684 2.32 2.32 0 00.124-.747zm13.25 7.775c0 .063 0 .125-.063.187 0 .062-.062.062-.186.124-.062 0-.249.063-.436.063h-1.368c-.124 0-.249-.063-.373-.063-.063-.062-.125-.062-.187-.124s-.062-.124-.124-.187l-1.058-2.674c-.124-.311-.249-.56-.373-.81-.124-.248-.249-.434-.435-.559-.125-.186-.312-.249-.498-.373a2.236 2.236 0 00-.684-.124h-.747v4.54c0 .063 0 .125-.062.187s-.124.062-.187.124c-.062 0-.186.063-.373.063h-1.12c-.186 0-.248-.063-.373-.063-.062 0-.186-.062-.186-.124-.063-.062-.063-.124-.063-.187V84.71c0-.249.063-.436.187-.56a.706.706 0 01.498-.187h3.856c.187 0 .374 0 .56.063a4.02 4.02 0 011.306.373c.374.186.685.373.996.622.249.249.497.56.622.933.124.373.186.809.186 1.244 0 .373-.062.747-.124 1.12-.124.31-.249.622-.435.87a2.65 2.65 0 01-.747.685c-.31.186-.622.373-.995.435.187.062.373.187.498.311.186.125.31.25.435.436.124.186.249.373.373.622l.373.746.996 2.364c.062.249.124.373.186.498.125.124.125.186.125.248zm-3.11-8.086c0-.373-.063-.747-.25-.995-.186-.25-.497-.436-.87-.56-.125 0-.249-.063-.436-.063h-1.679v3.36h1.244c.373 0 .622-.063.933-.125.249-.062.498-.186.622-.373a.906.906 0 00.373-.56c0-.186.062-.373.062-.684zm15.426 2.363c0 .996-.124 1.867-.373 2.675a5.188 5.188 0 01-1.12 1.991c-.497.56-1.057.933-1.804 1.244-.684.311-1.555.436-2.488.436s-1.742-.125-2.426-.374a4.665 4.665 0 01-1.742-1.12 5.424 5.424 0 01-1.057-1.866c-.249-.746-.373-1.679-.373-2.737 0-.933.124-1.803.373-2.612.249-.746.622-1.43 1.12-1.99.497-.56 1.057-.934 1.803-1.245.685-.31 1.556-.435 2.489-.435.871 0 1.679.124 2.363.373a4.654 4.654 0 011.742 1.12c.436.497.809 1.12 1.058 1.866.311.746.435 1.617.435 2.675zm-2.55.125c0-.622-.062-1.182-.125-1.68-.124-.497-.249-.932-.497-1.306-.249-.373-.56-.622-.933-.87-.374-.187-.871-.312-1.493-.312-.622 0-1.12.125-1.493.311-.373.25-.747.498-.995.871a3.017 3.017 0 00-.498 1.307c-.124.497-.124 1.057-.124 1.555 0 .622.062 1.244.124 1.741.124.498.249.933.498 1.307.248.373.56.622.933.87.373.187.87.312 1.493.312.622 0 1.119-.125 1.492-.311.374-.25.747-.498.996-.871.248-.373.435-.809.497-1.307.063-.56.125-1.057.125-1.617zm11.259-4.976v.435c0 .125-.063.25-.063.311-.062.063-.062.125-.124.187s-.062.062-.124.062h-3.919v3.173h3.67c.062 0 .124 0 .124.062.062 0 .062.062.125.186.062.063.062.187.062.311v.871c0 .125-.062.25-.062.311-.063.063-.063.125-.125.187s-.062.062-.124.062h-3.67v4.417c0 .062 0 .124-.062.186-.063.063-.125.063-.187.125-.124.062-.249.062-.373.062h-1.12c-.187 0-.311-.062-.373-.062-.062-.063-.187-.063-.187-.125-.062-.062-.062-.124-.062-.186V84.772c0-.249.062-.435.187-.56a.705.705 0 01.497-.186h5.599c.062 0 .124 0 .124.062.062.062.062.062.124.187.063.062.063.186.063.31v.374zm9.019 9.953v.435c0 .125-.062.187-.062.311-.062.062-.062.124-.124.187-.063.062-.125.062-.125.062h-5.971a.706.706 0 01-.498-.187c-.124-.124-.187-.31-.187-.56V84.772c0-.249.063-.435.187-.56a.706.706 0 01.498-.186h5.971c.062 0 .125 0 .125.062.062.062.062.062.124.187 0 .062.062.186.062.31v.872c0 .124-.062.186-.062.31 0 .063-.062.125-.124.187-.063.062-.125.062-.125.062h-4.23v2.924h3.608c.062 0 .125 0 .125.062.062.062.062.062.124.187 0 .062.062.186.062.31v.872c0 .124-.062.186-.062.31 0 .063-.062.125-.124.125-.063.062-.125.062-.125.062h-3.608v3.36h4.292c.063 0 .125 0 .125.062.062.062.062.062.124.186 0 .062.063.187.063.311-.063-.186-.063-.062-.063.125zm9.02-2.612c0 .621-.124 1.181-.373 1.616-.249.498-.56.871-.933 1.182-.374.311-.871.56-1.369.685-.56.186-1.12.248-1.742.248-.435 0-.808-.062-1.119-.124-.373-.062-.685-.124-.933-.249-.249-.124-.498-.186-.685-.31-.186-.125-.311-.188-.373-.25s-.124-.186-.186-.373c-.063-.124-.063-.373-.063-.622v-.498c0-.124.063-.248.063-.31 0-.063.062-.125.124-.187s.124-.062.187-.062c.062 0 .186.062.373.124.186.124.373.187.622.311s.56.249.871.311c.311.124.746.124 1.182.124.311 0 .559-.062.808-.124s.436-.187.622-.311a.971.971 0 00.374-.498c.062-.186.124-.373.124-.622s-.062-.497-.249-.684a1.466 1.466 0 00-.56-.498c-.249-.124-.497-.31-.808-.435a6.277 6.277 0 01-.933-.435c-.311-.125-.622-.311-.933-.498-.312-.187-.56-.436-.809-.684a2.335 2.335 0 01-.56-.933c-.124-.374-.249-.809-.249-1.307 0-.56.125-1.057.311-1.493.187-.435.498-.808.871-1.057.373-.311.809-.498 1.244-.622a6.268 6.268 0 011.555-.187c.311 0 .56 0 .871.063.311.062.56.124.809.186s.435.187.684.249a.95.95 0 01.373.249c.062.062.125.124.125.186 0 .063.062.125.062.187s0 .187.062.249v.809c0 .124 0 .248-.062.31 0 .063-.062.125-.062.187-.063.062-.125.062-.187.062s-.187-.062-.311-.124-.311-.187-.56-.311c-.186-.124-.435-.187-.746-.249s-.622-.124-.933-.124c-.249 0-.498.062-.685.124-.186.062-.373.124-.497.249-.125.124-.249.249-.311.435-.062.187-.125.311-.125.498 0 .249.063.498.187.684.124.187.311.373.56.498.249.124.497.31.808.435.312.125.623.25.934.436.311.124.622.31.933.497.311.187.559.436.808.685.249.248.436.56.56.933.125.497.249.87.249 1.368zm5.412.248c0 .56-.063 1.057-.125 1.43-.124.436-.249.81-.497 1.12-.249.311-.56.56-.933.684-.374.187-.871.25-1.431.25-.187 0-.373 0-.56-.063-.187 0-.373-.062-.498-.124-.124-.063-.311-.063-.373-.125-.124-.062-.186-.124-.249-.124-.062-.062-.062-.062-.062-.125 0-.062-.062-.124-.062-.186 0-.063 0-.187-.062-.25v-.932c0-.124 0-.249.062-.311 0-.062.062-.125.062-.187.062-.062.062-.062.125-.062.062 0 .124 0 .186.062s.187.062.249.125c.124.062.187.062.311.124s.249.062.435.062c.187 0 .311 0 .436-.062.124-.062.249-.124.311-.249a3.15 3.15 0 00.187-.435c.062-.187.062-.436.062-.747v-8.148c0-.063 0-.125.062-.187s.124-.062.187-.124c.062 0 .186-.063.373-.063h1.119c.125 0 .249.063.374.063.124 0 .186.062.186.124.062.062.062.124.062.187v8.273h.063zm13.249-2.738c0 .996-.124 1.867-.373 2.675a5.188 5.188 0 01-1.12 1.991c-.497.56-1.057.933-1.804 1.244-.684.311-1.555.436-2.488.436s-1.742-.125-2.426-.374a4.66 4.66 0 01-1.741-1.12 5.418 5.418 0 01-1.058-1.866c-.249-.746-.373-1.679-.373-2.737 0-.933.124-1.803.373-2.612.249-.746.622-1.43 1.12-1.99.497-.56 1.057-.934 1.804-1.245.684-.31 1.555-.435 2.488-.435.871 0 1.679.124 2.364.373a4.658 4.658 0 011.741 1.12c.436.497.809 1.12 1.058 1.866.373.746.435 1.617.435 2.675zm-2.488.125c0-.622-.062-1.182-.124-1.68-.125-.497-.249-.932-.498-1.306-.249-.373-.56-.622-.933-.87-.373-.187-.871-.312-1.493-.312-.622 0-1.12.125-1.493.311-.373.25-.746.498-.995.871a3.013 3.013 0 00-.498 1.307c-.124.497-.124 1.057-.124 1.555 0 .622.062 1.244.124 1.741.125.498.249.933.498 1.307.249.373.56.622.933.87.373.187.871.312 1.493.312.622 0 1.119-.125 1.493-.311.373-.25.746-.498.995-.871s.435-.809.498-1.307c.062-.56.124-1.057.124-1.617zm14.369 5.101c0 .124 0 .249-.062.373a.841.841 0 01-.187.25c-.062.061-.186.123-.311.186-.124.062-.248.062-.373.062h-1.057c-.187 0-.374 0-.56-.062a1.006 1.006 0 01-.436-.25 2.753 2.753 0 01-.373-.435c-.124-.186-.249-.435-.435-.746l-2.986-5.536a5.525 5.525 0 01-.498-1.058c-.186-.373-.311-.746-.497-1.12 0 .436.062.871.062 1.307v7.588c0 .063 0 .125-.062.188-.063.062-.063.062-.187.124-.062.062-.187.062-.311.062h-1.12c-.124 0-.248-.062-.311-.062-.062-.062-.124-.062-.186-.124-.062-.063-.062-.125-.062-.187v-10.7c0-.31.062-.497.248-.621a1.05 1.05 0 01.622-.187h1.307c.248 0 .435 0 .56.062.186.063.311.125.435.187s.249.249.373.373c.125.187.249.373.311.622l2.302 4.355.373.746.373.746.373.747c.125.249.249.498.311.746 0-.435-.062-.87-.062-1.368v-6.905c0-.062 0-.124.062-.186.063-.063.125-.063.187-.125s.187-.062.311-.062h1.058c.124 0 .248.062.311.062.062.062.124.062.186.125.062.062.062.124.062.186v10.637h.249zm12.317-.062c.062.248.124.373.124.497 0 .125 0 .25-.062.311-.062.063-.187.125-.373.125h-1.431c-.187 0-.311 0-.373-.062-.062 0-.187-.063-.187-.125-.062-.062-.062-.124-.062-.186l-.809-2.364h-4.478l-.747 2.301c0 .063-.062.187-.124.187-.063.062-.125.124-.187.124-.062.063-.187.063-.373.063h-1.306c-.187 0-.249-.063-.311-.125-.063-.062-.063-.186-.063-.31 0-.125.063-.312.125-.498l3.67-10.575c.062-.125.062-.187.124-.249s.125-.124.249-.124c.124-.063.249-.063.435-.063h1.618c.186 0 .373.063.497.063.125.062.187.062.249.124a.474.474 0 01.125.249l3.67 10.637zm-5.474-8.709l-1.68 5.039h3.359l-1.679-5.039zm13.685 8.585v.435c0 .124-.063.249-.063.31 0 .063-.062.125-.124.187-.062.063-.124.063-.187.063h-5.411a.706.706 0 01-.498-.187c-.124-.124-.187-.311-.187-.56V84.275c0-.063 0-.125.063-.187.062-.062.124-.062.186-.124.062 0 .187-.063.373-.063h1.12c.125 0 .249.063.373.063.063.062.187.062.187.124.062.062.062.124.062.187v9.58h3.732c.063 0 .125 0 .187.061.062.063.062.063.124.187 0 .062.063.187.063.31v.436zm11.259.186c0 .124 0 .249-.063.373-.062.125-.124.187-.186.25-.062.061-.187.123-.311.186-.125.062-.249.062-.373.062h-1.058c-.187 0-.373 0-.56-.062a1.002 1.002 0 01-.435-.25 2.652 2.652 0 01-.373-.435c-.125-.186-.249-.435-.436-.746l-2.986-5.536a5.522 5.522 0 01-.497-1.058c-.187-.373-.311-.746-.498-1.12 0 .436.062.871.062 1.307v7.588c0 .063 0 .125-.062.188-.062.062-.062.062-.187.124-.062.062-.186.062-.311.062h-1.119c-.125 0-.249-.062-.311-.062-.062-.062-.125-.062-.187-.124-.062-.063-.062-.125-.062-.187v-10.7c0-.31.062-.497.249-.621a1.05 1.05 0 01.622-.187h1.306c.249 0 .435 0 .56.062.187.063.311.125.435.187.125.062.249.249.374.373.124.187.248.373.311.622l2.301 4.355.373.746.374.746.373.747c.124.249.249.498.311.746 0-.435 0-.87-.062-1.368-.063-.498 0-.933 0-1.306v-5.599c0-.062 0-.124.062-.186.062-.063.124-.063.186-.125.063-.062.187-.062.311-.062h1.058c.124 0 .249.062.311.062.062.062.124.062.187.125 0 .062.062.124.062.186v10.637h.249zm5.038.498c0 .062 0 .124-.062.186s-.124.062-.187.125c-.062 0-.186.062-.373.062h-1.12c-.186 0-.311-.062-.373-.062s-.186-.063-.186-.125c-.063-.062-.063-.124-.063-.186v-11.26c0-.062 0-.124.063-.186.062-.062.124-.062.186-.124.125 0 .249-.063.373-.063h1.12c.125 0 .249.063.373.063.063.062.187.062.187.124.062.062.062.124.062.187v11.259zm-71.41-27.122c-.809 0-1.555-.248-2.302-.684-.56-.31-.995-.746-1.368-1.306-.933 1.555-2.862 2.301-4.728 1.804-2.053-.56-3.172-2.053-3.172-4.168V39.363c0-.249 0-.498-.063-.746-.062-.25-.062-.436-.124-.685a5.318 5.318 0 01-.187-1.43V23.563c-2.674-.373-5.1-1.493-7.713-3.608v48.022H61.636V8.199h40.993c.622-1.182 1.741-1.866 3.11-1.929 1.555-.062 2.737.56 3.483 1.804 1.182 2.053 2.426 3.732 3.795 5.225 1.244 1.369 2.363 2.24 3.545 2.8 1.307.684 2.489.684 3.733.062l1.679-.747.933-.373c.498-.249 1.306-.31 1.991.436l.746.746c.249-.187.436-.373.622-.56.373-.435 1.182-1.12 2.488-.497.311.186.685.31.996.497.808.436 1.679.809 2.488 1.306 2.301 1.307 4.105 2.862 5.598 4.666 2.551 3.11 3.421 6.718 2.675 10.699-.435 2.177-1.244 4.354-2.675 6.78-.933 1.617-2.675 2.364-4.416 1.866h-.062v23.203c0 1.43-.623 2.612-1.742 3.359-.809.622-1.68.87-2.488.87zm-4.79-26.56h2.239v22.144c0 1.12.311 1.804 1.12 2.24.995.621 1.99.56 2.986-.063.622-.435.933-1.057.933-1.928V38.306l1.244.56c.124.062.311.124.435.186.249.124.436.187.622.249.996.249 1.929-.125 2.426-1.058 1.307-2.301 2.115-4.23 2.489-6.282.622-3.484-.125-6.532-2.302-9.269-1.306-1.68-2.986-3.048-5.101-4.23a29.478 29.478 0 00-2.426-1.244c-.311-.186-.684-.31-.995-.497-.187-.063-.249-.063-.249-.063s-.062 0-.124.125c-.311.373-.622.622-.933.933l-.063.062.187 1.12c.124.87.249 1.68.436 2.55l1.119 6.718c.062.25.125.684-.186 1.058-.436.56-.871 1.057-1.307 1.617l-1.119 1.43-1.12-1.43-1.306-1.68c-.311-.373-.249-.87-.187-1.057.56-3.359 1.12-6.78 1.68-10.14 0-.061.062-.186.062-.248l-.125-.125c-.311-.31-.684-.622-.995-.995-.311.125-.622.25-.933.373-.56.25-1.057.436-1.617.685-1.68.808-3.484.808-5.288-.125-1.368-.684-2.674-1.68-4.043-3.172a27.48 27.48 0 01-3.981-5.536c-.373-.685-.995-.996-1.866-.933-.809.062-1.369.373-1.742 1.12-.435.87-1.12.87-1.431.87h-39.25v56.357h44.351v-50.26l1.493 1.43c3.048 2.923 5.785 4.354 8.895 4.54l.809.063v14.555c0 .312.062.685.187 1.12.062.25.124.498.124.747.062.311.062.684.062.995v24.696c0 1.368.56 2.114 1.929 2.488 1.119.31 2.363-.187 2.861-1.182.187-.311.249-.809.249-1.245v-16.42l-.249-5.91zm.373-13.375c.311.373.56.747.871 1.12.311-.373.56-.747.871-1.12l-.871-5.412c-.311 1.804-.622 3.608-.871 5.412zM105.49 64.245H65.742V11.993l.933-.062h37.322c1.058 0 1.493.435 1.493 1.43v50.884zm-38.069-1.742h36.265V13.611H67.421v48.892zM132.3 36.751V24.93l1.431 1.058c1.617 1.244 1.493 6.158.186 8.211l-1.617 2.55z" fill="#221F21"/><path d="M125.582 16.285c-1.493 0-3.048-.436-4.479-1.306-1.866-1.12-3.234-2.924-3.608-4.977-.435-1.99.063-4.043 1.245-5.723 1.368-1.928 3.359-3.048 5.785-3.359h1.928l.311.063c.186.062.373.062.56.124 3.67.622 6.593 3.857 6.531 7.402 0 2.862-1.368 5.163-3.981 6.594a8.44 8.44 0 01-4.292 1.182zm-.498-13.623c-.124.062-.248.062-.373.062-1.99.25-3.483 1.12-4.603 2.613-.933 1.306-1.306 2.861-.995 4.354.311 1.555 1.368 2.986 2.799 3.795 2.364 1.368 4.727 1.43 7.091.062 2.053-1.12 3.048-2.861 3.048-5.1 0-2.676-2.301-5.226-5.101-5.724-.186-.062-.435-.062-.622-.124l-.124.062h-1.12z" fill="#221F21"/><path d="M133.171 33.702v-7.029c1.12.871 1.182 5.226 0 7.03z" fill="#fff"/><path d="M83.532 32.893a91.202 91.202 0 01-2.613-.56c-.31-.062-.56 0-.746.312a43.465 43.465 0 01-1.555 1.99 404.597 404.597 0 01-1.742-7.278c-.435 0-.809.062-1.306.062v7.278c-.56-.435-1.058-.746-1.493-1.182-.622-.684-1.244-.87-2.115-.373-.684.373-1.493.56-2.24.809-.124.062-.248.062-.497.124 1.12-2.55 2.177-5.1 3.235-7.589-.436-.435-.871-.746-1.244-1.181-2.489-2.862-1.058-6.78 2.114-8.15 1.867-.808 3.733-.746 5.474.25 2.737 1.492 3.795 4.79 1.929 7.526-.311.436-.684.747-1.058 1.182.622 1.058 1.244 2.24 1.866 3.36.685 1.057 1.307 2.176 1.99 3.42zM75.88 19.21c-.311.062-.622.062-.933.124-2.115.56-2.8 2.986-1.307 4.54.871.872 2.24 1.12 3.546.623 1.493-.622 2.115-2.364 1.369-3.732-.56-1.058-1.493-1.555-2.675-1.555z" fill="#69D6BA"/><path d="M102.318 41.104h-32.72v-3.296h32.72v3.296zm-31.849-.87h30.978v-1.556H70.469v1.556zm31.849 8.273h-32.72V45.21h32.72v3.297zm-31.849-.871h30.978V46.08H70.469v1.555zm31.849 9.02h-32.72V53.42h32.72v3.235zm-31.849-.871h30.978v-1.493H70.469v1.493zm31.6-21.958h-16.92V30.53h16.92v3.297zm-16.049-.87h15.178V31.4H86.02v1.555zm16.049-5.724h-16.92v-3.235h16.92v3.235zm-16.049-.87h15.178v-1.494H86.02v1.493zm16.049-5.35H88.695v-3.297h13.374v3.297zm-12.566-.871h11.633v-1.555H89.504v1.555z" fill="#221F21"/></g><defs><clipPath id="clip0_290_742"><path fill="#fff" transform="translate(.551 .92)" d="M0 0h199.987v98.283H0z"/></clipPath></defs></svg>