<svg width="189" height="100" fill="none" xmlns="http://www.w3.org/2000/svg"><g clip-path="url(#clip0_292_804)"><path d="M72.17 34.664c-3.205-.59-6.41-1.106-9.54-1.622-1.266-.221-1.564-.663-1.117-1.843 2.757-6.858 5.44-13.642 8.197-20.5.447-1.18.894-1.401 2.087-.885 3.577 1.475 7.303 2.507 11.252 2.433.373 0 .745-.147 1.118-.368 2.012-1.033 3.95-2.213 6.036-3.097A23.422 23.422 0 01100.71 6.79c.597 0 1.044-.074 1.416-.517.894-1.032 2.087-1.106 3.354-1.18 2.831-.147 5.663-.073 8.346.812a40.56 40.56 0 016.632 2.802c1.565.811 2.981.885 4.695.369 2.534-.812 5.142-1.402 7.75-2.065.745-.221 1.341.147 1.49.885 1.342 6.931 2.683 13.937 4.025 20.868.298 1.475.223 1.475-1.044 2.065-1.49.664-2.906 1.327-4.396 1.99.372 1.476.149 2.803-1.044 3.688-1.416 1.106-2.981 1.253-4.694.737-.373-.147-.597-.147-.895.074-.596.295-1.267.59-1.863.811-.372.148-.521.369-.521.738-.149 1.622-.522 3.097-1.789 4.277-1.565 1.474-3.502 1.696-5.44 1.622-.596.737-1.118 1.548-1.788 2.212-1.342 1.327-3.056 1.77-4.919 1.549-.223 0-.447 0-.596.073-2.012 2.065-4.471 2.139-7.005 1.18-.745-.295-1.192-.147-1.788.369-2.608 2.507-7.08 1.327-8.272-2.065a1.378 1.378 0 01-.149-.59c-2.683 1.18-6.11-.516-6.93-3.392-1.714.664-3.28.221-4.546-.958-1.267-1.18-2.161-2.508-1.714-4.351-1.118.147-2.161.442-3.204.442-2.087.074-3.354-1.18-3.503-3.244-.149-.295-.149-.738-.149-1.328zm42.401 9.218a413.335 413.335 0 00-5.887-3.318c-.745-.443-.894-.959-.596-1.475.298-.516.894-.59 1.565-.148 2.086 1.18 4.098 2.36 6.185 3.54 2.31 1.327 5.514-.148 5.887-2.802.075-.59.075-.959-.596-1.18-.447-.148-.894-.443-1.342-.738-2.831-1.548-5.589-3.17-7.824-5.53-1.043-1.106-1.863-2.286-2.087-3.76-.074-.59.224-.96.746-1.107.596-.147 1.117.221 1.117.664.149 1.253.82 1.77 1.938 1.99.223.075.447.148.671.222 4.471 1.622 9.016 2.802 13.19 5.088.894.516 2.384.221 3.055-.442.522-.59.522-1.328-.224-2.508-.968-1.548-2.459-2.654-3.949-3.686-2.385-1.623-5.068-2.655-7.676-3.835-4.546-2.065-8.942-4.35-13.488-6.49-.298-.147-.745-.294-1.043-.147-.671.222-1.342.443-1.863.885-.969.885-1.789 1.844-2.608 2.876-2.385 2.728-5.515 3.318-8.943 2.876-.67-.074-1.267-.369-1.863-.664-1.118-.59-1.565-1.622-1.118-2.802.299-.885.746-1.77 1.193-2.654.82-1.401 1.937-2.581 2.384-4.204.15-.59.373-1.106.597-1.622.447-1.18 1.117-2.065 2.384-2.507.522-.221 1.118-.369 1.64-.59.82-.295 1.714-.59 2.608-.885 0-.074-.075-.221-.075-.295-2.086.516-4.322.811-6.334 1.549-2.161.737-4.173 1.917-6.185 2.95-1.416.737-2.832 1.327-4.471 1.18-2.236-.296-4.397-.296-6.558-1.107-1.267-.442-2.46-.885-3.8-1.327-2.609 6.489-5.142 12.978-7.75 19.467 2.682.516 5.216.885 7.75 1.475 3.055.664 6.11 1.549 9.165 2.36.448.147.82.295 1.342 0 1.416-.811 2.906-.738 4.247.295.746.59 1.342 1.474 2.012 2.212l.15-.148c2.608-2.064 5.588-1.327 6.855 1.77.522 1.18.447 2.36.224 3.613 2.385-.073 4.024 1.033 4.844 3.097.596 1.475 1.714 2.065 3.055 2.286.224.074.447.148.745.222 1.342.295 2.534 0 3.577-.959a531.785 531.785 0 00-5.291-3.245c-.745-.442-1.043-.958-.67-1.548.372-.59.894-.664 1.639-.148 1.938 1.18 3.801 2.36 5.738 3.466.373.221.745.516 1.192.59 2.087.221 3.875-.959 4.546-2.802zM132.53 9.15c-.223 0-.372 0-.447.074-2.98.737-5.887 1.549-8.868 2.286-.372.074-.894.148-1.192 0a85.034 85.034 0 01-4.546-2.065c-3.577-1.843-7.377-2.58-11.327-2.433-1.341 0-2.459.295-3.502 1.327-.969.959-2.087 1.696-3.204 2.36-.746.442-1.714.664-2.609.885-1.788.295-2.831 1.327-3.204 3.023-.447 1.696-1.267 3.17-2.31 4.498-.447.664-.894 1.328-1.192 2.065-.373.885-.224 1.254.745 1.548 2.757.738 6.483-.073 8.197-2.728a8.446 8.446 0 013.353-3.097c1.416-.737 2.832-.959 4.397-.074 2.608 1.475 5.291 2.802 7.974 4.056 3.204 1.475 6.408 2.802 9.613 4.35 2.533 1.18 4.918 2.73 6.781 4.868.894 1.032.894 1.032 2.161.442 1.043-.516 2.161-.959 3.205-1.475-1.416-6.71-2.683-13.273-4.025-19.91zM93.631 41.154c-.075-.37-.15-.812-.298-1.254-.67-1.843-2.46-2.286-3.875-.885-1.192 1.18-1.938 2.655-2.385 4.203-.223.738.075 1.401.745 1.844a16.07 16.07 0 001.938 1.032c.298.148.82.074 1.043-.074 1.714-1.18 2.608-2.802 2.832-4.866zm-12.892-1.549c-.075 1.18 1.118 2.507 2.31 2.876.373.074.894.074 1.267-.074 1.341-.663 2.161-2.58 1.788-3.982-.372-1.475-1.863-2.36-3.055-1.843-1.341.59-2.012 1.843-2.31 3.023zm15.053 5.088c-.894 0-1.416.221-1.788.885-.448.811-.15 1.549.149 2.212.67 1.696 3.353 2.434 4.769 1.254.223-.221.447-.295.223-.738-.372-.737-.67-1.474-.968-2.138-.447-1.106-1.416-1.475-2.385-1.475zm28.765-8.775c-3.13-1.18-6.111-2.212-9.092-3.318 2.012 1.696 4.248 3.023 6.633 4.13a.817.817 0 00.372.073c.671-.221 1.267-.516 2.087-.885zm-45.532.811v-.295c-1.64-.442-3.204-.885-4.918-1.327v.516c0 1.254.521 1.844 1.788 1.77 1.044-.074 2.087-.369 3.13-.664zm62.299-6.12c-.671 0-1.044-.221-1.193-.811-.745-3.761-1.564-7.522-2.384-11.282-.894-4.425-1.789-8.85-2.757-13.2-.299-1.254-.075-1.475 1.117-1.917 2.758-.885 5.589-1.77 8.347-2.655.223-.074.447-.147.67-.147.671-.074 1.118.073 1.267.81.596 2.434 1.267 4.941 1.863 7.375l2.012 8.406c.82 3.319 1.64 6.563 2.459 9.808.298 1.253 0 1.622-1.266 1.843-2.534.443-4.993.959-7.527 1.401-.894 0-1.789.148-2.608.369zm.521-2.139c2.981-.59 5.887-1.106 8.794-1.696-2.012-8.111-3.95-16.149-5.962-24.186-2.608.81-5.142 1.622-7.75 2.433 1.714 7.89 3.279 15.633 4.918 23.45zm-83.387 4.572c-1.044-.294-1.864-.516-2.609-.737a236.957 236.957 0 01-7.75-2.36c-.969-.294-1.192-.81-.745-1.696 3.13-6.563 6.185-13.2 9.315-19.762.67-1.401 1.267-2.728 1.863-4.13.373-.884.894-1.106 1.714-.663 2.683 1.18 5.365 2.433 8.048 3.613.596.295.745.738.447 1.549-.67 1.77-1.416 3.54-2.16 5.309-1.79 4.498-3.652 8.923-5.44 13.42-.597 1.55-1.268 3.098-1.938 4.646-.075.295-.522.59-.745.811zm1.639-27.357c-3.577 7.595-7.08 15.117-10.657 22.638 2.683.811 5.291 1.549 7.9 2.286.149.074.521-.147.596-.295.372-.737.596-1.475.894-2.212 2.087-5.088 4.173-10.25 6.26-15.338a149.32 149.32 0 011.64-4.056 572.895 572.895 0 00-6.633-3.023z" fill="#F47722"/><path d="M9.796 91.076c0 .295-.075.517-.224.664-.149.148-.298.221-.596.221h-5.44c0 .369.075.738.15 1.033.074.294.223.59.446.81.224.222.447.37.746.517.298.147.67.147 1.117.147.447 0 .82 0 1.193-.073.372-.074.596-.148.894-.222a5.22 5.22 0 00.596-.22c.15-.075.298-.075.373-.075H9.2c.074 0 .074.074.074.148s.075.147.075.221v1.106c0 .074 0 .148-.075.222 0 .073-.074.073-.074.147-.075.074-.15.074-.373.221a8.992 8.992 0 01-.745.221c-.298.074-.67.148-1.043.222-.373.073-.82.073-1.267.073-.82 0-1.49-.073-2.087-.295-.596-.22-1.118-.516-1.49-.885-.373-.442-.67-.884-.894-1.548-.224-.59-.298-1.327-.298-2.212 0-.811.074-1.475.298-2.139.223-.663.521-1.18.894-1.622a3.891 3.891 0 011.416-1.032c.596-.222 1.192-.37 1.937-.37.745 0 1.416.075 1.938.296.521.221.969.516 1.341.885.373.368.596.885.745 1.4.15.517.224 1.107.224 1.77v.37zm-2.46-.737c0-.737-.148-1.254-.446-1.696-.298-.369-.746-.59-1.416-.59-.298 0-.596.074-.82.147-.224.148-.447.295-.596.517-.15.22-.298.442-.373.737-.074.295-.149.59-.149.885h3.8zm10.881 2.949c0 .517-.075.96-.298 1.328-.224.368-.448.737-.82.958-.373.295-.745.443-1.267.59-.447.148-.969.222-1.565.222-.373 0-.67 0-.969-.074a13.094 13.094 0 01-.82-.221 5.169 5.169 0 01-.596-.222c-.149-.073-.298-.147-.372-.22-.075-.075-.15-.148-.15-.296-.074-.147-.074-.368-.074-.663v-.443c0-.147 0-.221.075-.295 0-.074.074-.147.074-.147h.15c.074 0 .148.073.297.147.15.074.299.148.522.295.224.074.447.221.745.295.298.074.596.148.969.148.223 0 .447 0 .596-.074l.447-.221c.15-.074.224-.222.298-.295.075-.148.075-.295.075-.443 0-.221-.075-.368-.15-.516-.148-.148-.297-.295-.52-.369-.224-.073-.448-.22-.671-.295-.224-.073-.522-.22-.82-.295-.298-.073-.522-.22-.82-.368-.224-.148-.522-.295-.67-.516a2.648 2.648 0 01-.522-.738c-.15-.295-.15-.664-.15-1.106 0-.442.075-.811.224-1.18.15-.369.447-.663.745-.885a3.593 3.593 0 011.193-.59c.447-.147.969-.22 1.565-.22.298 0 .521 0 .82.073.297.074.521.074.745.147.223.074.372.148.521.222.15.073.224.147.298.147l.15.147c0 .074.074.074.074.148v1.106c0 .148 0 .221-.075.295 0 .074-.074.148-.074.148h-.15c-.074 0-.148 0-.297-.074l-.447-.221-.671-.222c-.224-.073-.522-.073-.894-.073-.224 0-.447 0-.597.073l-.447.222c-.074.073-.223.22-.223.295-.075.147-.075.22-.075.368 0 .222.075.369.224.516.149.148.298.295.521.37.224.073.448.22.746.294.298.074.521.221.82.295.297.074.521.221.82.369.297.147.52.295.744.516.224.221.373.442.522.737.15.295.224.37.224.811zm7.004 1.622c0 .296 0 .517-.074.664 0 .148-.074.295-.15.295-.074.074-.148.148-.297.148-.15.074-.224.074-.447.147-.15 0-.298.074-.522.074h-.596c-.522 0-.969-.074-1.341-.221-.373-.148-.671-.295-.895-.59-.223-.295-.447-.59-.521-.959-.15-.368-.15-.885-.15-1.4v-4.573h-1.043c-.149 0-.223-.074-.298-.221-.074-.148-.074-.442-.074-.811v-.516c0-.148.074-.222.074-.295 0-.074.075-.148.15-.148.074 0 .074-.074.148-.074h1.118v-1.99c0-.074 0-.148.075-.148 0-.074.074-.074.223-.148.075-.073.224-.073.373-.073h1.192c.15 0 .298.073.373.073.074.074.149.074.223.148a.227.227 0 01.075.147v1.992h1.937c.075 0 .15 0 .15.073.074 0 .074.074.149.148 0 .073.074.147.074.295v.516c0 .369 0 .663-.074.811-.075.147-.15.221-.299.221h-1.937v4.203c0 .517.074.885.223 1.107.15.22.448.368.82.368h.373c.074 0 .223-.073.298-.073.074 0 .149-.074.223-.074h.299c.074 0 .074.074.074.147 0 .074 0 .148.075.295v.443zm9.912-3.834c0 .295-.075.517-.224.664-.149.148-.298.221-.596.221h-5.515c0 .369.075.738.15 1.033.074.294.223.59.447.81.223.222.447.37.745.517.298.147.67.147 1.118.147.447 0 .82 0 1.192-.073.373-.074.596-.148.894-.222a5.15 5.15 0 00.596-.22c.15-.075.298-.075.373-.075h.149c.074 0 .074.074.074.148s.075.147.075.221v1.106c0 .074 0 .148-.075.222 0 .073-.074.073-.074.147-.075.074-.149.074-.373.221a8.992 8.992 0 01-.745.221c-.298.074-.67.148-1.043.222-.373.073-.82.073-1.267.073-.82 0-1.49-.073-2.086-.295-.597-.22-1.118-.516-1.49-.885-.373-.442-.672-.884-.895-1.548-.224-.59-.298-1.327-.298-2.212 0-.811.074-1.475.298-2.139.223-.663.521-1.18.894-1.622a3.891 3.891 0 011.416-1.032c.596-.222 1.192-.37 1.938-.37.745 0 1.415.075 1.937.296.522.221.969.516 1.341.885.373.368.597.885.746 1.4.149.517.223 1.107.223 1.77v.37h.075zm-2.46-.737c0-.737-.148-1.254-.447-1.696-.298-.369-.745-.59-1.415-.59a2.72 2.72 0 00-.82.147c-.224.148-.447.295-.596.517-.15.22-.298.442-.373.737-.074.295-.149.59-.149.885h3.8zm10.88 2.949c0 .516-.074.959-.298 1.327-.223.37-.447.738-.82.96-.372.294-.745.441-1.266.589-.447.147-.969.221-1.565.221-.373 0-.67 0-.969-.074a12.484 12.484 0 01-.82-.22c-.223-.075-.447-.148-.596-.222-.149-.074-.298-.147-.372-.221-.075-.074-.15-.148-.15-.295 0-.148-.074-.369-.074-.664v-.442c0-.148 0-.222.075-.295 0-.074.074-.148.074-.148h.15c.074 0 .148.074.297.148.15.073.298.147.522.295.224.073.447.221.745.295.298.073.596.147.969.147.223 0 .447 0 .596-.074l.447-.22c.15-.075.224-.222.298-.296.075-.147.075-.295.075-.442 0-.221-.075-.369-.15-.516-.148-.148-.297-.295-.52-.37-.224-.073-.448-.22-.672-.294-.223-.074-.521-.221-.82-.295-.297-.148-.521-.221-.82-.369-.223-.147-.52-.295-.67-.516a2.648 2.648 0 01-.521-.737c-.15-.295-.224-.664-.224-1.106 0-.443.075-.811.224-1.18.149-.369.447-.664.745-.885a3.57 3.57 0 011.192-.59c.447-.148.969-.221 1.565-.221.298 0 .522 0 .82.073.298.074.521.074.745.148.224.074.373.147.522.221.149.074.223.148.298.148l.149.147c0 .074.074.074.074.148v1.106c0 .147 0 .221-.074.295 0 .073-.075.147-.075.147h-.149c-.074 0-.149 0-.298-.074l-.447-.22-.67-.222c-.224-.074-.522-.074-.895-.074-.224 0-.447 0-.596.074l-.447.221c-.075.074-.224.221-.224.295-.074.148-.074.221-.074.369 0 .221.074.369.223.516.15.148.298.295.522.369.224.073.447.221.745.295.298.073.522.221.82.295.298.073.522.22.82.368.298.148.521.295.745.517.223.22.372.442.521.737.224.074.298.369.298.811zm-2.906-10.766c.075-.074.075-.147.15-.221.074-.074.148-.074.223-.148.074 0 .223-.073.372-.073h.596c.299 0 .522 0 .746.073.149 0 .298.074.372.148.075.074.15.074.075.147 0 .074-.075.148-.075.222l-1.937 2.285c-.075.074-.075.148-.15.148-.074.074-.148.074-.223.074-.074 0-.223.073-.298.073H39.38c-.149 0-.223-.073-.298-.073-.074-.074-.074-.074-.074-.148 0-.073.074-.147.074-.221l1.565-2.286zm19.152 13.273c0 .074 0 .148-.075.148-.074.073-.074.073-.223.147-.075 0-.224.074-.373.074h-1.192c-.15 0-.298-.074-.373-.074-.074 0-.149-.074-.223-.147 0-.074-.075-.074-.075-.148v-5.31c0-.294 0-.589-.074-.81-.075-.221-.15-.443-.299-.664l-.447-.442a1.5 1.5 0 00-.67-.148c-.298 0-.596.148-.895.369-.298.221-.67.59-1.043 1.032v5.9c0 .073 0 .147-.074.147-.075.074-.075.074-.224.147-.074 0-.223.074-.373.074h-1.192c-.149 0-.298-.074-.372-.074-.075 0-.15-.073-.224-.147-.075-.074-.075-.074-.075-.147v-5.31c0-.295 0-.59-.074-.811l-.224-.664-.447-.442a1.501 1.501 0 00-.67-.148c-.298 0-.596.148-.895.37-.298.22-.67.59-.968 1.032v5.899c0 .074 0 .147-.075.147-.074.074-.074.074-.223.148-.075 0-.224.073-.373.073h-1.192c-.15 0-.298-.073-.373-.073-.075 0-.149-.074-.224-.148-.074-.073-.074-.073-.074-.147v-8.923c0-.074 0-.147.075-.147 0-.074.074-.074.148-.148.075 0 .224-.074.373-.074h1.043c.15 0 .224.074.298.074.075 0 .15.074.15.148 0 .073.074.073.074.147v1.032c.522-.516.969-.958 1.49-1.18.522-.294 1.044-.368 1.565-.368.373 0 .671.074.97.147.297.074.595.222.819.295.223.148.447.295.596.517.15.22.298.442.447.663.298-.295.522-.516.82-.737.223-.221.521-.369.745-.516.224-.148.522-.222.745-.295.224-.074.522-.074.745-.074.597 0 1.118.074 1.49.295.373.221.746.442.97.811.223.369.447.737.521 1.18.075.442.15.959.15 1.475v5.825h.074zm7.377.369l-1.118 3.171c-.074.148-.223.295-.521.369-.298.074-.67.074-1.192.074h-.671a.573.573 0 01-.373-.148c-.074-.073-.149-.147-.149-.221 0-.074 0-.148.075-.295l1.192-3.023c-.074-.074-.149-.074-.224-.222-.074-.073-.148-.147-.148-.294l-3.056-8.112c-.074-.221-.149-.442-.149-.516 0-.074.075-.221.15-.295a.572.572 0 01.372-.148c.223 0 .447-.073.745-.073h.67c.15 0 .299 0 .373.073.075.074.15.074.224.222.074.073.074.22.149.368l2.086 5.973 1.938-6.12c.075-.148.075-.295.149-.369.075-.074.149-.074.298-.147.15 0 .373-.074.745-.074.298 0 .522 0 .746.074.223 0 .297.073.447.147.074.074.149.148.149.295 0 .148 0 .295-.075.443l-2.832 8.848zm20.121-.958c0 .147 0 .295-.075.442a1.02 1.02 0 01-.223.295c-.075.074-.224.148-.298.148-.15 0-.224.073-.373.073H85.21c-.223 0-.447 0-.596-.073l-.447-.222a3.155 3.155 0 01-.447-.516c-.15-.221-.298-.516-.447-.811l-3.28-6.047c-.223-.368-.372-.737-.595-1.18a14.43 14.43 0 01-.522-1.18c0 .517.075.96.075 1.402v8.259c0 .073 0 .147-.075.147 0 .074-.075.074-.224.148-.074 0-.223.073-.372.073h-1.192c-.15 0-.299-.073-.373-.073-.075-.074-.15-.074-.15-.148s-.074-.147-.074-.147V84.145c0-.295.075-.516.298-.738.15-.147.448-.221.671-.221h1.416c.224 0 .447 0 .67.074l.448.221a.757.757 0 01.372.442c.15.148.224.37.373.664l2.534 4.72c.149.294.298.59.447.81.149.296.298.517.447.812.149.295.298.516.373.81.148.296.223.517.372.812 0-.442 0-.959-.074-1.475v-7.521c0-.074 0-.148.074-.148.075-.073.075-.073.224-.147.074-.074.223-.074.372-.074h1.193c.149 0 .298.074.372.074.075.073.15.073.15.147s.074.148.074.148v11.65zm5.514.59c0 .073 0 .147-.074.147-.075.074-.15.074-.224.148-.074 0-.223.073-.372.073H90.8c-.15 0-.299-.073-.373-.073-.075 0-.15-.074-.224-.148-.075-.074-.075-.147-.075-.147V83.555c0-.074 0-.148.075-.148.075-.073.15-.073.224-.147.074 0 .223-.074.372-.074h1.342c.149 0 .298.074.372.074.075 0 .15.073.224.147a.227.227 0 01.074.148v12.24zm10.657-.664v.516c0 .147-.075.22-.075.295 0 .073-.074.147-.149.147-.074 0-.074.074-.149.074h-6.558c-.223 0-.372-.074-.596-.221-.149-.148-.224-.37-.224-.664V83.997c0-.295.075-.516.224-.664a.852.852 0 01.596-.221h6.558c.075 0 .149 0 .149.074.075 0 .075.073.149.147 0 .074.075.221.075.295v.959c0 .147-.075.22-.075.295 0 .073-.074.147-.149.147-.074 0-.074.074-.149.074H98.4v3.17h3.95c.074 0 .149 0 .149.074.074 0 .074.074.149.148 0 .074.074.147.074.295v.958c0 .148-.074.222-.074.295 0 .074-.075.148-.149.148-.075 0-.075.074-.149.074H98.4v3.613h4.695c.075 0 .149 0 .149.074.075 0 .075.073.149.147 0 .074.075.221.075.295v.737zm10.209 0v.516c0 .148-.075.221-.075.295 0 .074-.074.148-.149.148-.074 0-.074.073-.149.073h-7.675c-.298 0-.447-.073-.596-.22-.15-.148-.224-.37-.224-.665v-.811c0-.147.074-.22.074-.368.075-.148.075-.222.15-.37a4.15 4.15 0 01.298-.515l5.067-7.964h-5.067c-.075 0-.149 0-.224-.074-.074 0-.074-.074-.149-.148 0-.073-.075-.22-.075-.294v-1.033c0-.147.075-.221.075-.295 0-.073.075-.147.149-.147.075 0 .149-.074.224-.074h7.228c.298 0 .447.074.596.221a.833.833 0 01.224.59v.959c0 .147-.075.221-.075.368-.074.148-.074.222-.149.37a1.53 1.53 0 01-.298.442l-4.993 7.816h5.44c.149 0 .224.074.298.221.075.295.075.516.075.959zm12.445 0c.074.22.149.442.149.59 0 .147 0 .22-.075.294a.57.57 0 01-.372.148h-1.565c-.224 0-.373 0-.447-.074-.075 0-.149-.074-.224-.147-.075-.074-.075-.148-.075-.222l-.894-2.58h-4.918l-.82 2.507c0 .073-.074.147-.074.22-.075.075-.149.148-.224.148-.074 0-.223.074-.447.074h-1.416a.57.57 0 01-.372-.147c-.075-.074-.075-.222-.075-.295 0-.148.075-.295.149-.59l4.024-11.504c.075-.147.075-.221.149-.295.075-.073.149-.147.224-.147.149-.074.298-.074.521-.074h1.789c.223 0 .447 0 .521.074.15 0 .224.074.299.147.074.074.074.148.149.295l4.024 11.578zm-5.962-9.44l-1.863 5.531h3.726l-1.863-5.53zm20.791 9.808c-.074.148-.074.296-.149.37a1.02 1.02 0 01-.298.22c-.149.074-.298.074-.522.074h-1.714c-.223 0-.447-.073-.521-.073a1.02 1.02 0 01-.298-.222c-.075-.073-.075-.22-.149-.368l-2.087-8.186-2.012 8.186a.558.558 0 01-.149.368 1.02 1.02 0 01-.298.222c-.149.073-.298.073-.522.073h-1.863c-.223 0-.447-.073-.521-.073a1.02 1.02 0 01-.298-.222c-.075-.073-.075-.22-.149-.368l-2.981-11.283c-.075-.22-.075-.442-.075-.59 0-.147 0-.22.149-.294.075-.074.224-.148.447-.148h1.565c.149 0 .298 0 .447.074.075 0 .149.073.224.147 0 .074.075.148.075.295l2.31 9.881 2.384-9.807c0-.147.075-.221.075-.295.074-.074.149-.147.223-.147.075-.074.224-.074.447-.074h1.491c.223 0 .372.073.447.073.075.074.149.074.224.148.074.074.074.221.074.295l2.459 9.807 2.31-9.88c0-.075.075-.222.075-.296 0-.073.074-.147.223-.147.075-.074.224-.074.373-.074h1.416c.149 0 .298.074.373.147.074.074.074.148.074.296 0 .147-.074.368-.074.59L140.951 95.5zm16.469-5.973c0 1.106-.149 2.065-.372 2.876-.299.811-.671 1.549-1.193 2.139-.521.59-1.192 1.032-2.012 1.327-.82.295-1.714.442-2.757.442a9.409 9.409 0 01-2.683-.368c-.745-.295-1.416-.664-1.863-1.18-.521-.516-.894-1.254-1.118-2.065-.223-.811-.372-1.843-.372-2.95 0-1.032.149-1.99.372-2.802.298-.81.671-1.548 1.193-2.138.521-.59 1.192-1.033 2.012-1.328.819-.294 1.714-.442 2.757-.442.969 0 1.863.148 2.608.369.745.295 1.416.663 1.863 1.18.522.516.894 1.253 1.118 2.064.298.812.447 1.77.447 2.876zm-2.832.148c0-.664-.074-1.328-.149-1.844-.074-.59-.298-1.032-.521-1.4-.224-.37-.596-.738-1.044-.886-.447-.221-.968-.295-1.639-.295a3.58 3.58 0 00-1.639.369 2.62 2.62 0 00-1.044.959c-.298.442-.447.885-.596 1.4-.074.517-.149 1.107-.149 1.697 0 .737.075 1.327.149 1.917.075.59.298 1.032.522 1.475.223.369.596.737 1.043.885.447.22.969.295 1.639.295.671 0 1.193-.148 1.64-.37.447-.22.82-.589 1.043-.958.298-.442.447-.885.596-1.474.149-.59.149-1.18.149-1.77zm15.948-.148c0 1.18-.149 2.212-.447 3.024-.299.81-.746 1.548-1.342 2.064-.596.517-1.267.959-2.161 1.18-.82.221-1.863.369-2.981.369h-3.204c-.224 0-.373-.074-.596-.221-.149-.148-.224-.37-.224-.664V83.997c0-.295.075-.516.224-.664a.85.85 0 01.596-.221h3.353c1.193 0 2.161.147 2.981.369.82.294 1.491.663 2.087 1.18a5.43 5.43 0 011.267 1.99 8.96 8.96 0 01.447 2.876zm-2.758.074c0-.59-.074-1.18-.223-1.696a4.87 4.87 0 00-.671-1.401c-.298-.369-.745-.664-1.267-.885-.521-.221-1.192-.295-1.937-.295h-1.342v8.775h1.416c.746 0 1.342-.074 1.863-.295.522-.221.895-.442 1.267-.811.298-.369.596-.811.745-1.401.075-.59.149-1.254.149-1.991zm15.65 5.605c0 .147 0 .295-.075.442-.074.148-.149.221-.223.295-.075.074-.224.148-.299.148-.149 0-.223.073-.372.073h-1.118c-.224 0-.447 0-.596-.073l-.447-.222a3.219 3.219 0 01-.447-.516c-.149-.221-.298-.516-.447-.811l-3.279-6.047c-.224-.368-.373-.737-.597-1.18-.223-.442-.372-.81-.521-1.18 0 .517.074.96.074 1.402v8.259c0 .073 0 .147-.074.147 0 .074-.075.074-.224.148-.074 0-.223.073-.372.073h-1.193c-.149 0-.298-.073-.372-.073-.075-.074-.149-.074-.149-.148s-.075-.147-.075-.147V84.145c0-.295.075-.516.298-.738.149-.147.447-.221.671-.221h1.416c.223 0 .447 0 .671.074.223.073.298.147.447.221a.755.755 0 01.372.442c.149.148.224.37.373.664l2.534 4.72c.149.294.298.59.447.81.149.296.298.517.447.812.149.295.298.516.372.81.149.296.224.517.373.812 0-.442 0-.959-.075-1.475v-7.521c0-.074 0-.148.075-.148.074-.073.074-.073.224-.147.074-.074.223-.074.372-.074h1.192c.149 0 .299.074.373.074.075.073.149.073.149.147s.075.148.075.148v11.65zm5.514.59c0 .073 0 .147-.074.147-.075.074-.149.074-.224.148-.074 0-.224.073-.373.073h-1.341c-.149 0-.298-.073-.373-.073-.074 0-.149-.074-.223-.148-.075-.074-.075-.147-.075-.147V83.555c0-.074 0-.148.075-.148.074-.073.149-.073.223-.147.075 0 .224-.074.373-.074h1.341c.149 0 .299.074.373.074.075 0 .149.073.224.147a.228.228 0 01.074.148v12.24z" fill="#221F21"/></g><defs><clipPath id="clip0_292_804"><path fill="#fff" transform="translate(.928 .45)" d="M0 0h188.014v99.328H0z"/></clipPath></defs></svg>