<svg width="198" height="121" fill="none" xmlns="http://www.w3.org/2000/svg"><g clip-path="url(#clip0_292_776)" fill="#221F21"><path d="M5.063 116.08c0 .744-.075 1.414-.224 1.861-.15.446-.299.892-.597 1.19-.298.298-.597.595-1.044.744-.373.149-.896.223-1.418.223-.298 0-.522 0-.746-.074-.224-.074-.373-.074-.448-.149-.074-.074-.149-.074-.223-.149 0-.074-.075-.148-.075-.223v-1.265c0-.149 0-.223.075-.297 0-.075.074-.149.074-.149 0-.075.075-.075.15-.075h.596c.224 0 .373 0 .522-.074.15-.075.224-.149.374-.298.074-.149.149-.297.223-.521.075-.223.075-.52.075-.967v-10.045c0-.075 0-.149.075-.224.074-.074.149-.074.223-.148.075-.075.224-.075.448-.075h1.343c.15 0 .298.075.448.075.074.074.149.074.223.148.075.075.075.149.075.224v10.268h-.15zm.224-13.468c0 .521-.15.967-.373 1.191-.224.223-.672.297-1.269.297-.597 0-1.044-.074-1.268-.297-.224-.224-.298-.596-.298-1.117 0-.52.149-.967.373-1.19.223-.223.671-.298 1.268-.298s1.044.075 1.268.298c.224.149.299.521.299 1.116zm11.638 7.888c0 .372-.075.595-.224.744a.847.847 0 01-.597.223h-5.968c0 .447.075.819.15 1.116.074.372.223.596.447.893.223.223.522.447.82.521.373.149.746.223 1.269.223.447 0 .895 0 1.268-.074s.671-.149.97-.223c.298-.075.522-.149.671-.224.15-.074.299-.074.448-.074.075 0 .15 0 .15.074.074 0 .074.075.074.149 0 .075.074.149.074.298v1.19c0 .075-.074.149-.074.224 0 .074-.075.074-.15.149a.806.806 0 01-.373.223c-.223.074-.522.149-.82.223-.299.074-.746.149-1.12.223-.447.075-.894.075-1.342.075-.895 0-1.642-.075-2.313-.298-.671-.223-1.194-.521-1.641-.967-.448-.447-.746-1.042-.97-1.712-.224-.669-.299-1.488-.299-2.381 0-.893.15-1.637.374-2.381.223-.67.522-1.265.97-1.786.447-.521.97-.893 1.566-1.116a6.145 6.145 0 012.089-.372c.82 0 1.492.149 2.089.372s1.044.595 1.418 1.042c.372.446.67.967.82 1.488.15.595.299 1.191.299 1.935v.223h-.075zm-2.686-.744c0-.744-.15-1.414-.448-1.861-.298-.446-.82-.669-1.566-.669-.373 0-.672.074-.895.223a4.118 4.118 0 00-.672.521 2.74 2.74 0 00-.373.818c-.075.298-.15.596-.15.968h4.104zm11.937 3.199c0 .595-.075 1.042-.298 1.488-.224.447-.523.819-.896 1.042a3.79 3.79 0 01-1.343.67 6.408 6.408 0 01-1.715.223c-.374 0-.747 0-1.045-.075l-.895-.223a3.477 3.477 0 01-.672-.223c-.149-.074-.298-.149-.373-.223-.074-.075-.149-.223-.224-.372-.074-.149-.074-.372-.074-.744v-.521c0-.149.074-.224.074-.298 0-.074.075-.149.075-.149.075 0 .075-.074.15-.074.074 0 .223.074.372.149.15.074.373.223.597.297.224.075.522.224.82.298.3.074.672.149 1.045.149.224 0 .448 0 .672-.075.223-.074.373-.148.522-.223.15-.074.224-.223.298-.372.075-.149.075-.298.075-.521a.843.843 0 00-.224-.595c-.15-.149-.298-.298-.522-.447-.224-.148-.448-.223-.746-.297-.299-.075-.597-.223-.895-.372l-.896-.447c-.298-.149-.522-.372-.746-.595-.224-.223-.373-.521-.522-.818-.15-.298-.224-.745-.224-1.191 0-.447.075-.893.299-1.265.149-.372.447-.744.82-1.042a3.437 3.437 0 011.269-.669 5.826 5.826 0 011.64-.224c.3 0 .598 0 .896.075.299.074.522.074.82.149.225.074.449.148.598.223.149.074.298.149.373.223.074.074.149.074.149.149 0 .074.075.149.075.223 0 .074 0 .149.074.298v.893c0 .148 0 .223-.075.297 0 .075-.074.149-.074.149-.075 0-.075.074-.15.074-.074 0-.149-.074-.298-.148a3.637 3.637 0 00-.522-.224c-.224-.074-.448-.148-.746-.223-.298-.074-.597-.149-.97-.149-.224 0-.447 0-.671.075l-.448.223c-.15.074-.224.223-.298.372-.075.149-.075.298-.075.447 0 .223.075.446.224.595.149.149.298.297.522.372.224.149.522.223.746.298.299.074.597.223.895.372l.896.446c.298.149.522.372.746.595.224.224.447.521.522.819.298.297.373.67.373 1.116zm7.61 1.786c0 .298 0 .595-.075.744-.075.149-.075.298-.15.372a.99.99 0 01-.298.223c-.149.075-.298.075-.447.149-.15.075-.373.075-.597.075h-.597c-.522 0-1.044-.075-1.417-.224-.373-.148-.746-.372-.97-.669-.299-.298-.448-.67-.597-1.116-.15-.447-.224-.968-.224-1.563v-5.06H27.22c-.149 0-.223-.074-.298-.223-.075-.149-.075-.447-.075-.893v-.521c0-.149.075-.298.075-.372 0-.074.075-.149.15-.149.074 0 .148-.074.223-.074h1.194v-2.158c0-.074 0-.149.074-.223.075-.075.15-.075.224-.149.075-.075.224-.075.448-.075h1.343c.149 0 .298.075.447.075.075.074.15.074.224.149.075.074.075.149.075.223v2.158h2.163c.075 0 .15 0 .224.074.075 0 .075.075.15.149 0 .074.074.223.074.372v.521c0 .372-.075.67-.075.893-.074.149-.149.223-.298.223h-2.164v4.614c0 .52.075.967.224 1.19.15.298.448.372.895.372.15 0 .299 0 .373-.074.15 0 .224-.075.299-.075.074 0 .149-.074.224-.074.074 0 .149-.074.149-.074.075 0 .075 0 .15.074.074 0 .074.074.074.149 0 .074.074.149.074.297-.074.298-.074.447-.074.67zm10.817-4.241c0 .372-.074.595-.223.744a.847.847 0 01-.597.223h-5.969c0 .447.075.819.15 1.116.074.372.223.596.447.893.224.223.522.447.82.521.374.149.747.223 1.27.223.447 0 .894 0 1.267-.074.373-.074.672-.149.97-.223.299-.075.523-.149.672-.224.149-.074.298-.074.447-.074.075 0 .15 0 .15.074.074 0 .074.075.074.149 0 .075.075.149.075.298v1.19c0 .075 0 .149-.075.224 0 .074-.074.074-.149.149-.075.074-.15.148-.373.223a12.35 12.35 0 01-.82.223c-.3.074-.747.149-1.12.223-.447.075-.895.075-1.343.075-.895 0-1.641-.075-2.312-.298-.672-.223-1.194-.521-1.642-.967-.447-.447-.746-1.042-.97-1.712-.223-.669-.298-1.488-.298-2.381 0-.893.15-1.637.373-2.381.224-.67.522-1.265.97-1.786.447-.521.97-.893 1.567-1.116a6.144 6.144 0 012.089-.372c.82 0 1.492.149 2.088.372.597.223 1.045.595 1.418 1.042.373.446.671.967.82 1.488.15.595.299 1.191.299 1.935v.223h-.075zm-2.685-.744c0-.744-.15-1.414-.448-1.861-.298-.446-.82-.669-1.567-.669-.373 0-.671.074-.895.223a4.122 4.122 0 00-.671.521c-.15.223-.299.521-.373.818-.075.298-.15.596-.15.968h4.104zm11.936 3.199c0 .595-.074 1.042-.298 1.488-.224.447-.522.819-.895 1.042-.373.298-.82.521-1.343.67a6.368 6.368 0 01-1.716.223c-.373 0-.746 0-1.044-.074a7.733 7.733 0 01-.896-.224c-.224-.074-.522-.148-.671-.223-.15-.074-.299-.149-.373-.223-.075-.075-.15-.223-.224-.372-.075-.149-.075-.447-.075-.744v-.521c0-.149 0-.223.075-.298 0-.074.075-.149.075-.149.074 0 .074-.074.149-.074.074 0 .224.074.373.149.149.074.373.223.597.297.223.075.522.224.82.298.299.075.672.149 1.045.149.223 0 .447 0 .671-.074.224-.075.373-.149.522-.224.15-.074.224-.223.299-.372.074-.149.074-.297.074-.521 0-.223-.074-.372-.223-.595a3.192 3.192 0 00-.523-.446c-.223-.149-.447-.224-.746-.298-.298-.074-.596-.223-.895-.372l-.895-.447c-.299-.148-.522-.372-.746-.595-.224-.223-.373-.521-.523-.818-.149-.298-.223-.744-.223-1.191 0-.446.074-.893.298-1.265.15-.372.448-.744.82-1.042.374-.297.747-.52 1.27-.669a5.825 5.825 0 011.64-.224c.299 0 .597 0 .896.075.298.074.522.074.82.149.224.074.448.149.597.223.15.074.299.149.373.223.075.075.15.075.15.149s.074.149.074.223c0 .075 0 .149.075.298v.967c0 .149 0 .223-.075.298 0 .074-.075.149-.075.149-.074 0-.074.074-.149.074-.074 0-.15-.074-.298-.149-.15-.074-.299-.149-.523-.223-.223-.074-.447-.149-.745-.223-.299-.075-.597-.149-.97-.149-.224 0-.448 0-.672.074l-.447.224c-.15.074-.224.223-.299.372-.075.148-.075.297-.075.446 0 .223.075.447.224.595.15.149.299.298.522.372.224.149.523.224.747.298.298.074.596.223.895.372l.895.447c.298.148.522.372.746.595.224.223.448.521.522.818.299.224.373.596.373 1.042zm-3.208-11.906l.224-.223c.075-.074.15-.074.299-.149.074 0 .224-.074.447-.074h.597c.373 0 .597 0 .82.074.225 0 .3.075.448.149.075.075.15.149.15.223 0 .075-.075.149-.075.224l-2.163 2.53-.15.148c-.074.075-.149.075-.224.149-.074 0-.223.075-.373.075h-1.119c-.149 0-.224-.075-.298-.075-.075-.074-.075-.074-.075-.149 0-.074.075-.148.15-.223l1.342-2.679zm20.964 14.659c0 .075 0 .149-.074.223-.075.075-.15.075-.224.149-.075 0-.224.075-.448.075h-1.342c-.15 0-.299-.075-.448-.075-.075 0-.15-.074-.224-.149-.075-.074-.075-.148-.075-.223v-5.804c0-.297 0-.595-.074-.893-.075-.297-.15-.521-.299-.669-.149-.149-.298-.372-.522-.447-.224-.074-.447-.149-.671-.149-.299 0-.672.149-.97.372-.373.224-.672.596-1.12 1.117v6.548c0 .074 0 .148-.074.223-.074.074-.149.074-.224.149-.074 0-.223.074-.447.074H63.03c-.15 0-.299-.074-.448-.074-.074 0-.149-.075-.224-.149-.074-.075-.074-.149-.074-.223v-5.804c0-.298 0-.596-.075-.893-.074-.298-.149-.521-.298-.67-.15-.223-.299-.372-.448-.446-.224-.075-.447-.149-.671-.149-.373 0-.672.149-1.045.372-.373.223-.671.595-1.119 1.116v6.548c0 .074 0 .149-.075.223-.074.075-.149.075-.223.149-.075 0-.224.075-.448.075H56.54c-.149 0-.298-.075-.447-.075-.075 0-.15-.074-.224-.149-.075-.074-.075-.149-.075-.223v-9.822c0-.074 0-.149.075-.223.074-.075.074-.075.224-.149.074 0 .223-.075.373-.075h1.193c.15 0 .299.075.373.075a.16.16 0 01.15.149c0 .074.074.149.074.223v1.116a6.494 6.494 0 011.641-1.339 3.47 3.47 0 011.716-.447c.373 0 .746.075 1.12.149.298.074.596.223.895.372.224.149.447.372.671.595.15.224.373.447.448.744.298-.297.597-.595.895-.818.298-.223.597-.446.82-.521.3-.149.523-.223.821-.298.299-.074.523-.074.821-.074.671 0 1.194.074 1.641.298a3.3 3.3 0 011.12.893c.298.372.447.818.596 1.339.15.521.15 1.042.15 1.637v6.027zm7.983.372l-1.194 3.498c-.074.148-.223.297-.522.372a5.398 5.398 0 01-1.268.148c-.298 0-.522 0-.671-.074a.568.568 0 01-.374-.149c-.074-.074-.149-.149-.149-.223 0-.074 0-.223.075-.298l1.343-3.274c-.075-.074-.15-.074-.224-.223-.075-.074-.15-.223-.15-.298l-3.356-9.003c-.075-.223-.15-.447-.15-.595 0-.149.075-.224.15-.298.074-.075.223-.149.447-.149s.522-.074.82-.074h.747c.15 0 .298.074.447.074.075.074.15.074.224.223.075.075.075.224.15.372l2.312 6.548 2.09-6.696c.074-.224.074-.298.148-.373.075-.074.15-.074.374-.148.149 0 .447-.075.82-.075.299 0 .597 0 .82.075.225 0 .374.074.448.148.075.075.15.224.15.298 0 .149 0 .298-.075.447l-3.432 9.747zm18.726-1.115v.521c0 .148-.075.223-.075.372 0 .074-.074.148-.149.223-.074.074-.149.074-.149.074h-7.162a.847.847 0 01-.597-.223c-.15-.149-.224-.372-.224-.67v-12.426c0-.298.075-.521.224-.67a.847.847 0 01.597-.223h7.162c.075 0 .15 0 .15.074.074.075.074.075.148.224 0 .074.075.223.075.372v1.041c0 .149-.075.224-.075.372 0 .075-.074.149-.149.224-.074.074-.074.074-.149.074h-5.148v3.497h4.327c.075 0 .15 0 .15.075.074.074.074.074.149.223 0 .074.074.223.074.372v1.042c0 .149-.074.223-.074.372-.075.074-.075.149-.15.149-.074.074-.149.074-.149.074h-4.327v4.018h5.148c.075 0 .15 0 .15.075.074.074.074.074.148.223 0 .074.075.223.075.372v.149zm10.445-.075v.521c0 .148-.075.297-.075.372-.074.074-.074.148-.149.223-.075.074-.149.074-.224.074h-6.565a.847.847 0 01-.597-.223c-.149-.149-.224-.372-.224-.67V102.24c0-.074 0-.149.075-.223.074-.075.149-.075.224-.149.149 0 .223-.075.447-.075h1.343c.149 0 .299.075.448.075.074.074.224.074.224.149.074.074.074.149.074.223v11.459h4.477c.074 0 .149 0 .223.074.075.075.075.075.15.224 0 .074.074.223.074.372.075.074.075.297.075.521zm13.354.148c.075.298.149.447.149.596 0 .149 0 .297-.074.372-.075.074-.224.149-.448.149h-1.716c-.224 0-.373 0-.448-.075-.074 0-.149-.074-.223-.149-.075-.074-.075-.148-.075-.223l-.97-2.827h-5.371l-.896 2.753c0 .074-.074.223-.149.223-.074.074-.149.149-.224.149-.074.074-.223.074-.447.074h-1.567c-.224 0-.298-.074-.373-.149-.075-.074-.075-.223-.075-.372 0-.148.075-.372.15-.595l4.401-12.65c.075-.148.075-.223.149-.297.075-.075.15-.149.299-.149.149-.075.298-.075.522-.075h1.94c.224 0 .448.075.597.075.149.074.224.074.298.149.075.074.149.223.149.297l4.402 12.724zm-6.565-10.491l-2.015 6.027h4.029l-2.014-6.027zm17.01 7.292c0 .744-.149 1.414-.448 1.935a4.273 4.273 0 01-1.119 1.413 4.25 4.25 0 01-1.641.819c-.672.223-1.343.298-2.089.298a6.74 6.74 0 01-1.343-.149c-.448-.075-.821-.149-1.119-.298-.299-.149-.597-.223-.821-.372-.224-.149-.373-.223-.447-.298-.075-.074-.15-.223-.224-.446-.075-.149-.075-.446-.075-.744v-.595c0-.149.075-.298.075-.372 0-.075.074-.149.149-.224.075-.074.149-.074.224-.074.074 0 .224.074.447.149.224.149.448.223.746.372.299.149.672.297 1.045.372.373.149.895.149 1.417.149.373 0 .672-.075.97-.149.299-.075.522-.223.746-.372a1.16 1.16 0 00.448-.595c.075-.224.149-.447.149-.745 0-.297-.074-.595-.298-.818a1.75 1.75 0 00-.672-.595c-.298-.149-.597-.372-.97-.521-.373-.149-.746-.298-1.119-.521-.373-.149-.746-.372-1.119-.595-.373-.224-.671-.521-.97-.819a2.807 2.807 0 01-.671-1.116c-.149-.447-.298-.967-.298-1.563 0-.669.149-1.265.373-1.786.223-.52.596-.967 1.044-1.264.448-.298.97-.596 1.492-.745a7.576 7.576 0 011.865-.223c.373 0 .672 0 1.045.075.373.074.671.148.97.223.298.074.522.223.746.297.223.075.373.224.447.298.075.074.149.149.149.223 0 .075.075.149.075.224 0 .074 0 .223.075.297v.968c0 .148 0 .297-.075.372 0 .074-.075.148-.075.223-.074.074-.149.074-.223.074-.075 0-.224-.074-.373-.149-.15-.074-.373-.223-.672-.372-.224-.148-.522-.223-.895-.297-.373-.075-.746-.149-1.119-.149a2.67 2.67 0 00-.821.149c-.224.074-.447.149-.597.297-.149.149-.298.298-.373.521-.074.223-.149.372-.149.595 0 .298.075.596.224.819.149.223.373.446.671.595.299.149.597.372.97.521.373.149.746.298 1.119.521.373.149.746.372 1.119.595.373.224.672.521.97.819.299.297.523.67.672 1.116.298.521.373 1.042.373 1.637zm11.564-8.781v.521c0 .149-.075.298-.075.372 0 .075-.075.149-.149.224-.075.074-.149.074-.149.074h-3.582v11.459c0 .075 0 .149-.074.223-.075.075-.149.075-.224.149-.075.075-.224.075-.448.075h-1.342c-.224 0-.373-.075-.448-.075-.075 0-.224-.074-.224-.149-.075-.074-.075-.148-.075-.223v-11.459h-3.581c-.074 0-.149 0-.223-.074-.075-.075-.075-.149-.15-.224 0-.074-.074-.223-.074-.372v-1.116c0-.149.074-.297.074-.372.075-.074.075-.149.15-.223.074-.075.149-.075.223-.075h10.072c.075 0 .149 0 .149.075.075.074.075.074.15.223 0 .075.074.223.074.372-.149.149-.074.372-.074.595zm7.46 7.665v4.985c0 .075 0 .149-.075.223-.074.075-.149.075-.223.149-.075 0-.224.075-.448.075h-1.343c-.149 0-.298-.075-.448-.075-.149 0-.223-.074-.223-.149-.075-.074-.075-.148-.075-.223v-4.985l-3.879-7.739-.299-.595c-.074-.149 0-.298.075-.372.074-.075.224-.149.447-.149h1.791c.224 0 .373.074.448.074.149.075.223.075.223.149.075.075.075.149.15.223l1.566 3.498c.149.372.299.669.448 1.041.149.372.298.744.448 1.191.149-.372.298-.744.447-1.191.149-.372.299-.744.448-1.041l1.566-3.498c.075-.148.075-.223.15-.297.074-.075.149-.149.224-.149.074-.075.223-.075.447-.075h1.716c.224 0 .373.075.448.149.074.075.074.224.074.372-.074.149-.149.372-.298.596l-3.805 7.813zm14.921 3.2v.446c0 .149 0 .223-.075.298 0 .074-.074.149-.074.223 0 .074-.075.149-.149.223a1.15 1.15 0 01-.448.298c-.224.149-.522.223-.821.372-.298.149-.746.223-1.119.297-.447.075-.895.149-1.417.149-.97 0-1.865-.149-2.611-.446-.821-.298-1.493-.744-2.015-1.34a6.476 6.476 0 01-1.268-2.232c-.298-.893-.448-1.934-.448-3.125s.15-2.307.448-3.2a6.2 6.2 0 011.343-2.381c.597-.67 1.268-1.116 2.089-1.488.82-.298 1.716-.521 2.686-.521.373 0 .746 0 1.119.075.373.074.671.148 1.044.223.299.074.597.223.821.372.224.149.447.223.522.372l.224.223c.074.074.074.149.074.223 0 .075.075.224.075.372v1.117c0 .148-.075.297-.075.372 0 .074-.074.148-.149.223-.074.074-.074.074-.149.074s-.224-.074-.448-.223c-.149-.149-.373-.298-.671-.446a12.092 12.092 0 00-.97-.447c-.373-.149-.821-.223-1.343-.223-.597 0-1.044.149-1.492.372-.448.223-.821.595-1.119.967-.298.447-.522.968-.746 1.563-.149.595-.224 1.265-.224 2.083 0 .819.075 1.563.224 2.158.149.595.448 1.116.746 1.488.298.372.671.67 1.194.893.447.224.97.298 1.492.298s.97-.074 1.343-.149c.373-.149.671-.223.97-.372.298-.149.522-.298.671-.372.149-.149.298-.149.373-.149.075 0 .149 0 .149.075.075 0 .075.074.075.148 0 .075.074.224.074.373.075.297.075.52.075.744zm10.892 1.042v.521c0 .148-.074.297-.074.372 0 .074-.075.148-.149.223-.075 0-.15.074-.15.074h-8.43c-.298 0-.522-.074-.671-.223-.15-.149-.224-.446-.224-.744v-.819c0-.148.074-.223.074-.372.075-.149.075-.223.224-.372.075-.149.224-.297.299-.521l5.52-8.78h-5.52c-.075 0-.15 0-.224-.074-.075-.075-.149-.075-.149-.224-.075-.074-.075-.223-.075-.372v-1.041c0-.149.075-.298.075-.372.074-.075.074-.149.149-.224.074 0 .149-.074.224-.074h7.908c.298 0 .522.074.671.223.149.149.224.372.224.67v1.042c0 .148-.075.297-.075.446-.074.149-.074.298-.223.446-.075.149-.15.298-.299.521l-5.446 8.632h5.968c.15 0 .224.074.299.298 0 0 .074.297.074.744zm13.728.148c0 .149 0 .298-.075.447-.074.149-.149.223-.224.298-.074.074-.224.148-.373.223-.149.074-.298.074-.447.074h-1.269c-.223 0-.447 0-.671-.074-.224-.075-.373-.149-.522-.298-.15-.149-.299-.297-.448-.521-.149-.223-.298-.521-.522-.893l-3.581-6.622a6.577 6.577 0 01-.597-1.265c-.224-.447-.373-.893-.597-1.339 0 .52.075 1.041.075 1.562v9.078c0 .075 0 .149-.075.223-.075.075-.075.075-.224.149-.074.075-.224.075-.373.075h-1.343c-.149 0-.298-.075-.373-.075-.074-.074-.149-.074-.223-.149 0-.074-.075-.148-.075-.223v-12.798c0-.372.075-.596.298-.744.224-.149.448-.224.746-.224h1.567c.299 0 .522 0 .672.075.223.074.373.149.522.223.149.074.298.298.447.446.15.224.299.447.373.744l2.761 5.209.447.893.448.893.448.893c.149.298.298.595.373.893 0-.521-.075-1.042-.075-1.637v-8.26c0-.074 0-.148.075-.223.074-.074.149-.074.224-.149.074-.074.223-.074.373-.074h1.268c.149 0 .298.074.373.074.074.075.149.075.224.149 0 .075.074.149.074.223v12.724h.299zm6.043.595c0 .075 0 .149-.075.223-.074.075-.149.075-.224.149-.074.075-.223.075-.447.075h-1.343c-.224 0-.373-.075-.448-.075-.074 0-.224-.074-.224-.149-.074-.074-.074-.148-.074-.223V102.24c0-.074 0-.149.074-.223.075-.075.15-.075.224-.149.149 0 .299-.075.448-.075h1.343c.149 0 .298.075.447.075.075.074.224.074.224.149.075.074.075.149.075.223v13.468zm-97.136-32.889h-5.968c-1.642 0-2.835-1.19-2.835-2.976-.15-18.008 5.744-31.178 17.905-40.48 1.716-1.339 3.655-2.455 5.446-3.497l2.238-1.34c.373-.222.821-.446 1.194-.669l-3.805-8.036 25.067 7.664-12.086 22.62-2.76-6.77c-12.086 5.952-17.234 16.146-16.264 31.773l.075 1.637h-4.999c-1.045.074-2.164.074-3.208.074zm-5.745-3.125h10.67c-.597-16.594 5.894-27.68 19.696-33.857l1.492-.67 1.492 3.646 7.162-13.393-14.697-4.465 2.014 4.316-1.268.67a8.11 8.11 0 00-.821.446c-.522.298-1.044.52-1.492.819-.746.446-1.492.892-2.313 1.339-1.865 1.042-3.581 2.083-5.148 3.274-11.414 8.632-16.86 20.984-16.786 37.875z"/><path d="M99.662 51.195l-1.12-1.265c-.521-.596-1.044-1.19-1.566-1.786-1.492-1.637-3.059-3.349-4.476-5.06-.746-.819-.82-2.01-.82-3.05V20.537H83.1L99.886.373l16.86 20.24h-8.579v4.761c0 4.763 0 9.6.075 14.362 0 1.711-.597 3.2-1.866 4.464a190.239 190.239 0 01-3.879 4.018l-2.835 2.977zm-9.997-33.708h4.998v22.546c0 .819.075 1.042.15 1.116 1.343 1.637 2.91 3.274 4.327 4.911.149.15.298.372.447.521l.523-.52c1.342-1.414 2.611-2.754 3.879-4.093.671-.67.97-1.34.97-2.233-.075-4.762-.075-9.598-.075-14.36v-4.019c0-1.116.149-2.307.97-3.05.895-.82 2.164-.82 3.208-.745h.895L99.886 5.284 89.665 17.487z"/><path d="M91.008 73.37l-.672-4.02c-1.492-9.003-6.49-15.55-15.741-20.462l-2.76 6.846-12.087-22.695 25.068-7.665-3.805 8.037c.298.149.671.372.97.52 7.236 3.87 12.459 8.111 16.487 13.246 1.94 2.455 2.015 3.571.448 6.25-2.313 4.018-3.954 8.78-5.073 14.808-.075.595-.299 1.116-.597 1.637l-2.238 3.497zM72.953 44.497l1.492.744c8.804 4.316 14.548 10.12 17.383 17.56 1.12-4.166 2.537-7.663 4.328-10.863.82-1.414.82-1.414-.224-2.753-3.73-4.837-8.654-8.78-15.518-12.427l-1.567-.893-2.014-1.116 2.014-4.241-14.697 4.464 7.162 13.394 1.641-3.87z"/></g><defs><clipPath id="clip0_292_776"><path fill="#fff" transform="translate(.288 .373)" d="M0 0h196.883v119.726H0z"/></clipPath></defs></svg>