<svg width="20" height="20" fill="none" xmlns="http://www.w3.org/2000/svg"><g clip-path="url(#clip0_277_563)" fill="#fff"><path d="M10 1.667a5.83 5.83 0 00-5.833 5.834C4.167 11.876 10 18.334 10 18.334s5.833-6.458 5.833-10.833A5.83 5.83 0 0010 1.667zM5.833 7.501a4.168 4.168 0 018.334 0c0 2.4-2.4 5.991-4.167 8.233-1.733-2.225-4.167-5.858-4.167-8.233z"/><path d="M10 9.584a2.083 2.083 0 100-4.167 2.083 2.083 0 000 4.167z"/></g><defs><clipPath id="clip0_277_563"><path fill="#fff" transform="translate(0 .001)" d="M0 0h20v20H0z"/></clipPath></defs></svg>