<svg width="20" height="20" fill="none" xmlns="http://www.w3.org/2000/svg"><g clip-path="url(#clip0_280_978)"><path d="M9.992 1.667c-4.6 0-8.325 3.734-8.325 8.334s3.725 8.333 8.325 8.333c4.608 0 8.341-3.733 8.341-8.333S14.6 1.667 9.992 1.667zm.008 15a6.665 6.665 0 01-6.667-6.666A6.665 6.665 0 0110 3.334a6.665 6.665 0 016.667 6.667A6.665 6.665 0 0110 16.668zm.417-10.833h-1.25v5l4.375 2.625.625-1.025-3.75-2.225V5.834z" fill="#fff"/></g><defs><clipPath id="clip0_280_978"><path fill="#fff" transform="translate(0 .001)" d="M0 0h20v20H0z"/></clipPath></defs></svg>