<svg width="18" height="18" fill="none" xmlns="http://www.w3.org/2000/svg"><g clip-path="url(#clip0_277_560)"><path d="M4.905 3.751a9.23 9.23 0 00.337 1.942l-.9.9a11.12 11.12 0 01-.57-2.842h1.133zm7.395 9.015a9.56 9.56 0 001.95.338v1.117a11.57 11.57 0 01-2.85-.563l.9-.892zM5.625 2.251H3a.752.752 0 00-.75.75c0 7.043 5.707 12.75 12.75 12.75.412 0 .75-.337.75-.75v-2.617a.752.752 0 00-.75-.75c-.93 0-1.838-.15-2.678-.428a.768.768 0 00-.765.18l-1.65 1.65a11.361 11.361 0 01-4.942-4.943l1.65-1.65c.21-.21.27-.502.188-.765a8.52 8.52 0 01-.428-2.677.752.752 0 00-.75-.75z" fill="#fff"/></g><defs><clipPath id="clip0_277_560"><path fill="#fff" transform="translate(0 .001)" d="M0 0h18v18H0z"/></clipPath></defs></svg>