<svg width="306" height="77" fill="none" xmlns="http://www.w3.org/2000/svg"><path d="M157.361 1.001l1.113.557c2.041.928 2.969 3.156 2.412 5.198-.556 2.228-2.412 3.527-4.824 3.527-2.042 0-3.897-1.67-4.268-3.713-.371-2.413.742-4.455 2.969-5.383.371-.186.556-.186.928-.372.556.186 1.113.186 1.67.186zm-4.825 18.007c-2.227-3.712-5.01-7.054-8.351-9.653-2.412-1.857-5.196-3.342-8.165-4.456-.371-.185-.742-.37-.927-.556.371.185.927.185 1.299.37 7.051 2.229 12.618 6.127 17.072 11.882.928 1.114.928 1.485 1.855-.186.186-.185.372-.557.743-.742-.186.185-.371.742-.557 1.114-1.67 4.455-4.268 8.54-7.237 12.252-7.98 10.21-17.629 18.564-28.949 24.876-4.082 2.228-8.35 3.899-12.989 4.641-3.526.557-7.052.557-10.578-.556-4.639-1.671-7.422-5.384-7.608-10.21-.186-3.714.557-7.241 2.041-10.768l-.556 4.455c-.186 2.228 0 4.641.927 6.683 1.114 2.785 3.155 4.827 6.124 5.941-3.526-6.498-5.01-13.366-4.082-20.792v2.228c0 .742.185 1.485.185 2.227.557 6.127 2.784 11.51 6.495 16.337l.557.557c.371.186.742 0 .928.186-.186-.186-.186-.557-.371-.743-3.897-4.827-6.124-10.21-6.866-16.151-.743-8.54 1.299-16.151 6.68-22.834S112.639 4.528 121.175 3.6c12.99-1.3 24.309 5.012 30.247 15.223.186.371.372.557.557.928-.371-.371-.742-.557-1.113-1.114-3.712-4.455-8.165-7.611-13.361-9.653-4.083-1.486-8.351-2.042-12.804-1.857-.186 0-.557.186-.742.186l.556.557c2.041 1.485 3.897 2.784 5.938 4.27.743.556 1.114.556 2.042.37.742-.37 1.855-.556 2.969-.927v.185c-.928.371-1.856.928-2.784 1.3-.928.371-.742.371-.185 1.114 1.855 2.227 3.897 4.455 5.752 6.868.557.557.742.557 1.485.372 1.855-.743 3.526-1.485 5.381-2.228.371-.186.928-.186 1.299-.371-1.856 1.3-3.711 2.227-5.752 3.341-1.299.743-1.114.743-.372 1.857.186.371.557.928.743 1.3.742 1.299 1.299 2.598 2.041 3.898a47.455 47.455 0 01-3.711-4.827c-.743-.928-.743-.928-1.67-.371-4.269 2.599-8.351 5.383-12.619 8.168l-.371.371c-.557.186-.557.557-.186 1.114.557.928 1.114 1.857 1.856 2.785.557.742.928 1.485 1.484 2.228l-.185.185c-1.114-1.485-2.412-3.156-3.526-4.64-.371-.558-.742-.558-1.113-.187-4.268 3.156-8.351 6.498-12.619 9.654-.557.371-.371.742-.185 1.114.927 1.485 1.855 2.784 2.783 4.27.186.37.371.556.557.928l-.186.185-3.897-4.455c-.556-.743-.556-.743-1.484-.186-1.485 1.3-3.155 2.785-4.639 4.084-.186.186-.557.372-.743.557l-.185-.185c1.67-1.671 3.34-3.527 5.01-5.198.557-.557.557-.743.186-1.485l-4.454-7.797c-.371-.743-.371-.929-1.113-.186-.743.743-1.67 1.485-2.413 2.413l-.185-.185c.742-.928 1.484-2.042 2.227-2.97.556-.558.556-1.114.371-1.857-.743-1.857-1.114-3.899-1.67-5.755-.186-.557-.186-1.3-.372-2.228-.37.743-.556 1.114-.742 1.485-1.67 4.085-2.412 8.354-2.412 12.81.185 5.57 1.67 10.767 4.639 15.594.557.928 1.113 1.3 2.041 1.114.928-.186 2.041-.186 2.969-.371 3.712-.557 7.237-2.043 10.763-3.713 6.309-2.97 11.876-7.055 17.258-11.51 6.495-5.384 12.433-11.324 17.629-17.822-.371-.928.928-2.413.371-3.342zm-37.114 4.085c-.371.185-.556.37-.927.556-3.341 2.785-6.681 5.755-10.021 8.54-.557.371-.557.743-.371 1.485 1.299 2.785 2.783 5.57 4.082 8.354.371.557.557.743 1.114.186 1.855-1.671 3.897-3.156 5.752-4.641 2.042-1.671 4.268-3.156 6.495-4.641.371-.372.742-.557.371-1.114-2.041-2.785-4.082-5.384-6.123-8.169-.186-.37-.186-.37-.372-.556zm7.794 8.54c.371-.186.557-.372.928-.558 4.268-2.784 8.536-5.383 12.804-8.168.743-.557.928-.557.186-1.3-2.041-2.227-4.083-4.27-6.124-6.497-.557-.557-1.113-.557-1.856-.186-3.525 2.042-7.051 3.899-10.577 5.94-1.67.929-1.67 1.115-.557 2.785.186.186.372.557.557.743 1.299 2.042 2.784 4.27 4.083 6.312 0 .371.185.557.556.928zm5.567-18.008l-.556-.557c-2.413-1.857-5.011-3.713-7.98-4.827-.371-.186-.928-.186-1.299 0-2.783.743-5.567 1.857-7.979 3.342-.928.556-.928.556-.371 1.3 1.484 2.413 3.154 4.826 4.639 7.054.557.928.557.928 1.67.185 2.227-1.3 4.454-2.784 6.68-4.084 1.485-.742 2.969-1.3 4.454-2.042.186 0 .557-.186.742-.371zm-27.649 8.354c.185 3.156.928 6.126 1.855 8.91.186.558.372.743.928.186 2.969-3.156 6.31-5.94 9.835-8.54.557-.37.557-.742.186-1.299l-5.01-6.683c-.743-1.114-.743-1.114-1.67-.186-2.042 1.671-3.712 3.527-5.196 5.755-.743.372-1.114 1.114-.928 1.857z" fill="#969696"/><path d="M84.433 57.994c.371 1.485.742 3.156 1.299 4.64 2.227 6.313 7.423 10.025 14.103 10.397 5.01.185 9.65-.928 14.103-2.785 9.093-3.341 17.258-8.54 24.681-14.48 11.876-9.468 21.711-20.606 29.319-33.787 0-.186.186-.371.186-.371s.185-.186.371-.186c-.186.371-.186.557-.371.928-2.227 4.27-4.639 8.54-6.866 12.81-.371.742-.557 1.299-.557 2.227-.185 9.654-3.711 18.008-10.763 24.69-5.938 5.57-13.175 8.726-21.526 9.097-2.226.186-4.453-.185-6.68-.185-.928 0-1.67 0-2.412.371-4.454 2.042-9.093 3.713-13.918 4.455-3.711.557-7.422.557-10.948-.742-5.753-2.042-9.279-6.126-9.835-12.438-.371-1.671-.557-3.156-.186-4.641zm44.351 8.354c4.268.37 12.061-3.156 16.701-7.055 4.824-4.084 9.464-11.51 9.649-15.408-7.051 9.468-16.144 16.522-26.35 22.463zM18.371 32.004c-.557 2.227-1.113 4.27-1.67 6.497-.928 4.27-2.041 8.354-2.97 12.624-.185.742-.556 1.114-1.298 1.114H9.278c-.928 0-1.113-.372-1.484-1.114-2.042-7.24-3.897-14.295-5.938-21.535-.557-2.042-1.114-3.898-1.67-5.94-.186-.93-.186-.93.741-.93h3.897c.927 0 1.113.372 1.299 1.114 1.113 5.012 2.412 9.84 3.71 14.852.372 1.3.743 2.784 1.114 4.084a.4.4 0 00.371.371c0-.186.186-.371.186-.371.742-2.785 1.299-5.755 2.041-8.54.928-3.527 1.67-6.869 2.598-10.396.186-.928.557-1.114 1.485-1.114h2.412c.742 0 1.113.372 1.3 1.114 1.112 5.012 2.412 10.21 3.525 15.223.371 1.485.742 2.97 1.299 4.27.185-.372.185-.743.371-1.3 1.484-6.126 2.97-12.067 4.64-18.193.37-1.3.37-1.3 1.484-1.3h3.526c1.298 0 1.298 0 .927 1.3-1.113 3.899-2.227 7.611-3.34 11.51-1.484 5.198-2.969 10.21-4.454 15.409-.37 1.67-.37 1.299-1.67 1.299h-2.412c-1.484 0-1.484 0-1.67-1.3l-3.34-14.48-1.114-4.455c-.556.186-.742.186-.742.186zm170.165 4.269h7.794c1.113 0 1.113 0 1.113 1.114-.185 7.426-5.196 13.923-12.804 15.037-11.134 1.486-18-7.24-18-15.222 0-8.911 7.237-14.852 14.103-15.223 4.825-.371 8.907.928 12.433 4.27 1.299 1.114 2.227 2.599 2.784 4.084.371.742.185.742-.557.742h-5.381c-.557 0-.928-.185-1.114-.556-2.412-2.97-5.381-3.713-8.907-2.97-3.711.927-5.938 3.34-6.866 7.054-.928 3.898 0 7.24 2.784 10.21 3.34 3.713 11.505 3.898 14.659-2.413.371-.929.371-.929-.556-.929h-8.722c-1.299 0-1.299 0-1.299-1.3v-2.227c0-1.485 0-1.485 1.67-1.485 2.041-.186 4.454-.186 6.866-.186zm-128.041 0h7.98c.927 0 1.113 0 .927 1.114-.371 5.384-2.412 10.025-7.052 12.995-5.01 3.156-10.206 3.342-15.402.743-5.196-2.6-7.98-6.87-8.35-12.81-.371-7.982 4.453-14.48 12.433-15.965 6.123-1.114 11.505.557 15.402 5.755.556.557.928 1.3 1.299 2.042.371.928.371 1.114-.557 1.114h-5.01c-.557 0-.928-.186-1.3-.557-2.597-3.342-7.05-3.713-10.205-2.6-3.526 1.3-5.938 4.828-6.124 8.726-.186 3.342 1.113 6.126 3.526 8.354 3.34 3.156 11.134 3.342 14.103-2.97.37-.743.37-.928-.557-.928h-8.721c-1.485 0-1.485 0-1.485-1.486v-2.413c0-1.114 0-1.114 1.113-1.114h7.98zm195.402 1.114c.185 8.54-7.052 15.409-15.402 15.409-8.165 0-15.402-7.055-15.402-15.594 0-7.612 6.494-15.223 15.587-15.223 8.907 0 15.588 7.426 15.217 15.408zm-5.938 0v-1.485c-.557-3.527-2.227-6.312-5.567-7.797-3.155-1.485-6.31-1.114-9.093.928-4.454 3.342-5.382 9.654-2.227 14.11 4.268 5.94 12.804 5.197 15.959-1.486.556-1.114.928-2.599.928-4.27zm-42.681 3.156v10.21c0 1.3 0 1.3-1.113 1.3h-3.897c-.557 0-.742-.186-.742-.743V23.649c0-.742.185-1.114.927-.928h10.021c2.598 0 5.01.743 7.052 2.6 2.783 2.598 3.525 6.125 2.598 9.653-.743 3.341-2.97 5.569-6.495 6.497-.928.186-.928.186-.371.928l6.68 8.911c.186.186.371.557.557.928-.371 0-.743.186-1.114.186h-4.453c-.743 0-1.299-.185-1.67-.928-2.227-3.342-4.454-6.498-6.681-9.84-.185-.37-.557-.742-.742-.927-.371-.186-.371-.186-.557-.186zm0-7.983v3.713c0 .371 0 .928.557.928 2.227 0 4.454.186 6.495-.557.928-.37 1.484-.928 1.855-1.67 1.299-2.97-.185-6.127-3.34-6.684-1.484-.185-3.154-.185-4.825-.185-.556 0-.742.185-.742.742v3.713zm67.547.557v-9.096c0-1.114 0-1.3 1.299-1.3h3.525c1.114 0 1.114 0 1.114 1.114v12.438c0 2.6 0 5.198-.186 7.797-.556 5.384-4.453 8.725-9.835 8.725-5.752.186-9.093-3.341-10.02-6.868a14.105 14.105 0 01-.557-3.899V24.021c0-1.3 0-1.3 1.299-1.3h3.154c1.299 0 1.299 0 1.299 1.3v17.45c0 1.114.186 2.228.557 3.342.742 1.856 2.227 2.784 4.639 2.599 2.042-.186 3.155-1.114 3.712-2.97.185-.743.371-1.671.371-2.6-.371-2.97-.371-5.94-.371-8.725zm10.948 4.27V24.021c0-1.3 0-1.3 1.299-1.3h10.021c1.299 0 2.412.372 3.711.743 2.598.928 4.268 2.784 4.825 5.383a14.073 14.073 0 010 5.57c-.742 3.713-3.526 6.312-7.608 6.868-1.67.186-3.526.186-5.196.372-1.114 0-1.114 0-1.114 1.114v8.354c0 1.114 0 1.114-1.113 1.114h-3.711c-.743 0-.928-.186-.928-.929v-3.898c-.186-3.342-.186-6.683-.186-10.025zm5.753-5.384v3.342c0 .557.185.928.742.928 1.67-.186 3.34 0 4.825-.371 2.041-.371 2.969-1.857 2.969-3.899s-1.114-3.527-3.155-3.898c-1.484-.186-3.154-.186-4.825-.371-.556 0-.742.37-.742.742.371 1.3.371 2.414.186 3.527z" fill="#969696"/><path d="M156.062 28.848s-.928 1.113-1.485 1.856c-7.979 12.067-18 22.091-30.433 29.703-5.196 2.97-10.391 5.57-16.33 6.683-3.34.743-6.866.928-10.206.186-3.897-.928-6.68-2.97-8.721-6.312-1.856-3.156-2.598-6.498-2.598-10.21.185.37.185.928.37 1.299.557 2.042 1.3 4.084 2.413 5.94 2.598 4.27 6.495 6.498 11.505 6.684 3.712.185 7.237-.743 10.578-1.857 6.494-2.227 12.433-5.755 18-9.653 9.649-6.498 17.814-14.666 25.051-23.577.186-.371 1.114-1.3 1.114-1.3M76.268 40.172V29.404c0-1.3 0-1.3-1.3-1.3h-3.525c-.557 0-.928-.185-.928-.927v-3.528c0-.742.371-.928.928-.928h15.402c1.3 0 1.3 0 1.3 1.3v2.97c0 .743-.186.928-.929.928h-3.34c-1.484 0-1.484 0-1.484 1.485v21.72c0 1.114 0 1.114-1.114 1.114h-3.526c-1.299 0-1.299 0-1.299-1.299v-5.384c-.185-1.856-.185-3.712-.185-5.383zm101.691-18.193c-1.67 0-2.969-.928-3.897-2.413-.186-.372-.186-.743.185-1.114 1.299-.743 1.67-2.6 1.114-3.899-.371-.557.185-.557.371-.742 1.67-.929 3.711-.743 5.01.556 1.485 1.114 1.856 3.156 1.299 5.013-.742 1.485-2.227 2.599-4.082 2.599z" fill="#969696"/><path d="M169.237 13.625c0 2.413-1.856 4.084-4.082 4.084-2.227 0-4.083-1.856-4.083-4.084 0-.743.186-.743.742-.557.928.557 1.856.371 2.598-.371.743-.743.743-1.671.371-2.6-.371-.928-.371-.928.557-.928 2.041.372 3.897 2.228 3.897 4.456z" fill="#FF0008"/><path d="M164.969 6.756c-.742-1.856 0-3.898 1.67-4.64 1.856-.743 3.897 0 4.825 1.856.928 2.042 0 3.898-2.042 4.826.557-1.856.186-2.97-1.113-3.527-1.299-.743-2.227-.371-3.34 1.485zm-1.67 11.51l-.371.371c-.371.557-.928 1.3-1.299 1.857-.557.742-.742 1.485-.557 2.227.186.743-.185 1.114-.928.743-.742-.371-1.299-.742-1.855-1.114-.372-.371-.372-.742.185-.928 1.67-.371 2.227-2.042 2.969-3.156.557-.742.371-.742 1.299-.371.186 0 .371.185.557.371zm.928-6.869c0 .743-.557 1.486-1.299 1.671-.742.186-1.67-.185-1.856-1.114-.185-.742-.371-1.3-.928-1.67-.371-.372-.185-.557.186-.929.186-.185.557-.557.742-.185.557.557 1.114.557 1.856.742.742 0 1.299.557 1.299 1.485zm10.763 4.455c0 .186 0 .558-.186.743-.185.371-.557.928-.742 1.3-.371-.372-.742-.557-.928-.929-.371-.185-.742-.556-1.113-.556-.557-.186-1.299-.372-1.856-.558-.742-.185-.557-.556-.371-1.113.185-.743.556-.186.928-.186.371.186.742.186 1.299.371.742.372 1.484.372 2.412.186.371-.186.557 0 .557.742z" fill="#969696"/><path d="M165.711 7.313c0-.928.557-1.485 1.299-1.671.557-.186 1.485.186 1.856.743.371.557.371 1.485-.186 1.856-.371.371-.742.928-1.299 1.114-.185.186-.927 0-1.113-.371-.371-.557-.371-1.3-.557-1.671zM156.99 29.59c2.969.557 5.567-2.228 5.01-5.198 0-.186-.371-.371-.371-.371-1.67.742-2.598-.557-3.711-1.486-.186-.185-.372-.556-.372-.742-.185-.928-.185-1.114-1.113-.743-2.784.929-3.897 4.27-2.041 6.683 0 .372.928 1.486 2.598 1.857z" fill="#969696"/><path d="M164.291 54.267c.489 0 .873.117 1.154.35.28.234.42.556.42.965 0 .41-.14.732-.42.965-.281.234-.665.35-1.154.35h-.933v1.144h-.539v-3.774h1.472zm-.016 2.162c.341 0 .602-.072.781-.216.18-.147.27-.358.27-.63 0-.274-.09-.482-.27-.626-.179-.147-.44-.221-.781-.221h-.917v1.693h.917zm4.878.2c0 .039-.003.09-.011.155h-2.318a.914.914 0 00.329.61c.191.15.426.226.706.226.342 0 .617-.115.825-.345l.286.334a1.243 1.243 0 01-.485.345 1.665 1.665 0 01-.642.119 1.71 1.71 0 01-.803-.183 1.357 1.357 0 01-.544-.523 1.507 1.507 0 01-.189-.755c0-.277.061-.527.183-.75.126-.222.297-.395.512-.517a1.46 1.46 0 01.739-.189 1.4 1.4 0 01.728.19c.215.121.382.294.501.517.122.222.183.478.183.765zm-1.412-1.036a.906.906 0 00-.626.226.92.92 0 00-.291.593h1.833a.898.898 0 00-.296-.587.874.874 0 00-.62-.232zm3.737 2.28a.803.803 0 01-.28.151 1.228 1.228 0 01-.345.049c-.287 0-.51-.077-.668-.232-.159-.154-.238-.376-.238-.663v-1.569h-.485v-.426h.485v-.625h.518v.625h.819v.426h-.819v1.547c0 .155.038.274.113.356a.441.441 0 00.334.124.627.627 0 00.405-.135l.161.372zm1.122-2.21a.884.884 0 01.399-.377c.176-.087.39-.13.641-.13v.502a1.018 1.018 0 00-.118-.006c-.28 0-.501.085-.663.254-.158.165-.237.402-.237.711v1.424h-.518v-2.858h.496v.48zm2.876 2.41a1.55 1.55 0 01-.766-.189 1.392 1.392 0 01-.533-.517 1.507 1.507 0 01-.189-.755c0-.28.063-.53.189-.75.129-.222.307-.395.533-.517a1.55 1.55 0 01.766-.189c.284 0 .537.063.76.19.226.121.402.294.528.517.13.219.194.469.194.749s-.064.532-.194.755a1.36 1.36 0 01-.528.517 1.519 1.519 0 01-.76.189zm0-.453a.963.963 0 00.49-.124.903.903 0 00.345-.356c.083-.154.124-.33.124-.528s-.041-.372-.124-.523a.86.86 0 00-.345-.356.964.964 0 00-.49-.124.91.91 0 00-.841.48 1.068 1.068 0 00-.124.523c0 .198.041.374.124.528a.96.96 0 00.345.356.993.993 0 00.496.124zm3.443.453a1.6 1.6 0 01-.781-.189 1.388 1.388 0 01-.534-.517 1.47 1.47 0 01-.194-.755c0-.28.064-.53.194-.75.129-.222.307-.395.534-.517a1.6 1.6 0 01.781-.189c.259 0 .489.053.69.157.205.104.363.255.475.453l-.394.253a.88.88 0 00-.334-.307.952.952 0 00-.442-.103c-.187 0-.356.042-.507.124a.902.902 0 00-.35.356 1.068 1.068 0 00-.124.523c0 .201.041.38.124.534a.91.91 0 00.35.35c.151.083.32.124.507.124a.952.952 0 00.442-.102.88.88 0 00.334-.308l.394.248c-.112.198-.27.35-.475.459a1.476 1.476 0 01-.69.156zm3.323-2.917c.363 0 .651.106.863.319.216.208.323.515.323.921v1.645h-.517v-1.585c0-.277-.067-.486-.2-.626-.132-.14-.323-.21-.571-.21-.28 0-.501.083-.663.248-.162.162-.243.395-.243.7v1.473h-.517v-4h.517v1.547c.108-.137.248-.243.421-.318.176-.076.372-.114.587-.114zm4.742 1.472c0 .04-.003.092-.01.156h-2.319a.914.914 0 00.329.61c.191.15.426.226.706.226.342 0 .617-.115.825-.345l.286.334a1.243 1.243 0 01-.485.345 1.662 1.662 0 01-.642.119 1.71 1.71 0 01-.803-.183 1.357 1.357 0 01-.544-.523 1.507 1.507 0 01-.189-.755c0-.277.061-.527.183-.75.126-.222.297-.395.512-.517a1.46 1.46 0 01.739-.189 1.4 1.4 0 01.728.19c.215.121.382.294.501.517.122.222.183.478.183.765zm-1.412-1.035a.902.902 0 00-.625.226.917.917 0 00-.292.593h1.833a.898.898 0 00-.296-.587.872.872 0 00-.62-.232zm5.705-.437c.359 0 .643.105.852.313.212.209.318.518.318.927v1.645h-.518v-1.585c0-.277-.064-.486-.194-.626-.125-.14-.307-.21-.544-.21-.263 0-.471.083-.626.248-.154.162-.231.395-.231.7v1.473h-.518v-1.585c0-.277-.065-.486-.194-.626-.126-.14-.307-.21-.544-.21-.263 0-.471.083-.626.248-.154.162-.232.395-.232.7v1.473h-.517v-2.858h.496v.426a.982.982 0 01.41-.334 1.33 1.33 0 01.576-.119c.223 0 .421.045.593.135a.93.93 0 01.399.394 1.09 1.09 0 01.448-.388c.194-.094.411-.14.652-.14zm2.122.027h.518v2.858h-.518v-2.858zm.259-.55a.352.352 0 01-.253-.097.321.321 0 01-.097-.237.343.343 0 01.35-.34c.101 0 .183.033.248.098a.298.298 0 01.102.231.338.338 0 01-.35.346zm2.492 3.44c-.291 0-.552-.063-.782-.189a1.392 1.392 0 01-.533-.517 1.47 1.47 0 01-.194-.755c0-.28.064-.53.194-.75.129-.222.307-.395.533-.517.23-.126.491-.189.782-.189.259 0 .489.053.69.157.205.104.363.255.475.453l-.394.253a.88.88 0 00-.334-.307.955.955 0 00-.442-.103c-.187 0-.356.042-.507.124a.902.902 0 00-.35.356 1.068 1.068 0 00-.124.523c0 .201.041.38.124.534a.91.91 0 00.35.35c.151.083.32.124.507.124a.955.955 0 00.442-.102.88.88 0 00.334-.308l.394.248c-.112.198-.27.35-.475.459a1.476 1.476 0 01-.69.156zm2.875-2.917c.395 0 .697.097.906.291.212.195.318.484.318.868v1.726h-.491v-.378a.83.83 0 01-.372.307 1.422 1.422 0 01-.566.103c-.32 0-.577-.077-.771-.232a.747.747 0 01-.285-.61.74.74 0 01.275-.603c.183-.154.474-.232.873-.232h.819v-.102c0-.223-.064-.394-.194-.512-.129-.119-.32-.178-.571-.178-.169 0-.334.029-.496.086a1.235 1.235 0 00-.41.221l-.216-.388c.148-.119.324-.209.529-.27.205-.064.422-.097.652-.097zm-.119 2.518a.98.98 0 00.513-.13.77.77 0 00.312-.377v-.399h-.798c-.438 0-.657.148-.657.442a.4.4 0 00.167.34c.111.083.266.124.463.124zm2.301-3.633h.517v4h-.517v-4zm3.778.695h-1.294v-.47h3.121v.47h-1.294v3.305h-.533v-3.305zm2.766.927a.884.884 0 01.399-.377c.176-.087.39-.13.642-.13v.502a1.038 1.038 0 00-.119-.006c-.28 0-.501.085-.663.254-.158.165-.237.402-.237.711v1.424h-.518v-2.858h.496v.48zm2.714-.507c.395 0 .697.097.906.291.212.195.318.484.318.868v1.726h-.491v-.378a.83.83 0 01-.372.307 1.422 1.422 0 01-.566.103c-.32 0-.577-.077-.771-.232a.748.748 0 01-.286-.61c0-.25.092-.452.275-.603.184-.154.475-.232.874-.232h.819v-.102c0-.223-.065-.394-.194-.512-.129-.119-.32-.178-.571-.178a1.48 1.48 0 00-.496.086 1.235 1.235 0 00-.41.221l-.216-.388c.148-.119.324-.209.529-.27a2.17 2.17 0 01.652-.097zm-.119 2.518a.974.974 0 00.512-.13.771.771 0 00.313-.377v-.399h-.798c-.438 0-.657.148-.657.442a.4.4 0 00.167.34c.111.083.266.124.463.124zm5.012-3.633v4h-.496v-.453a1.123 1.123 0 01-.437.36c-.176.084-.37.125-.582.125a1.5 1.5 0 01-.744-.183 1.341 1.341 0 01-.518-.513 1.568 1.568 0 01-.183-.765c0-.288.061-.54.183-.76.126-.22.299-.39.518-.512a1.5 1.5 0 01.744-.184c.205 0 .393.04.566.119.172.075.316.189.431.34V54.04h.518zm-1.472 3.579c.18 0 .343-.041.49-.124a.903.903 0 00.345-.356c.083-.154.124-.33.124-.528s-.041-.372-.124-.523a.86.86 0 00-.345-.356.982.982 0 00-.49-.124.91.91 0 00-.841.48 1.068 1.068 0 00-.124.523c0 .198.041.374.124.528a.96.96 0 00.345.356.996.996 0 00.496.124zm2.451-2.437h.517v2.858h-.517v-2.858zm.259-.55a.356.356 0 01-.254-.097.325.325 0 01-.097-.237c0-.093.033-.172.097-.237a.346.346 0 01.254-.102c.1 0 .183.032.248.097a.298.298 0 01.102.231.338.338 0 01-.35.346zm2.772.523c.363 0 .651.106.863.319.215.208.323.515.323.921v1.645h-.517v-1.585c0-.277-.067-.486-.2-.626s-.323-.21-.571-.21c-.281 0-.502.083-.663.248-.162.162-.243.395-.243.7v1.473h-.518v-2.858h.496v.432c.105-.148.245-.26.421-.34.18-.08.383-.119.609-.119zm4.893.027v2.47c0 .499-.124.867-.372 1.105-.248.24-.618.36-1.111.36-.269 0-.526-.037-.771-.113a1.503 1.503 0 01-.593-.312l.248-.4c.133.116.297.206.491.27.198.069.401.103.609.103.334 0 .581-.08.739-.237.161-.159.242-.4.242-.723v-.226a1.167 1.167 0 01-.452.334 1.517 1.517 0 01-.577.108 1.6 1.6 0 01-.744-.173 1.337 1.337 0 01-.518-.49 1.386 1.386 0 01-.188-.723c0-.27.062-.508.188-.717.126-.212.299-.375.518-.49a1.6 1.6 0 01.744-.173c.215 0 .415.04.598.119.187.08.34.196.458.35v-.442h.491zm-1.488 2.286c.187 0 .354-.04.501-.119a.864.864 0 00.351-.328.926.926 0 00.129-.486c0-.276-.092-.5-.275-.668-.183-.172-.419-.259-.706-.259-.291 0-.528.087-.712.259a.867.867 0 00-.275.668c0 .18.042.342.124.486a.91.91 0 00.351.328c.151.08.321.12.512.12zm5.687.615c-.377 0-.718-.083-1.024-.248a1.88 1.88 0 01-.712-.69 1.931 1.931 0 01-.258-.992c0-.367.086-.696.258-.987.173-.294.412-.525.717-.69a2.083 2.083 0 011.025-.253c.294 0 .564.05.808.15.245.098.453.243.626.437l-.351.34a1.406 1.406 0 00-1.062-.447c-.28 0-.533.063-.76.188a1.39 1.39 0 00-.534.523c-.125.22-.188.466-.188.739 0 .273.063.52.188.744.13.219.308.391.534.517.227.126.48.189.76.189.421 0 .775-.151 1.062-.453l.351.34a1.678 1.678 0 01-.631.442c-.244.1-.514.15-.809.15zm3.236-.011a1.55 1.55 0 01-.766-.189 1.392 1.392 0 01-.533-.517 1.507 1.507 0 01-.189-.755c0-.28.063-.53.189-.75.129-.222.307-.395.533-.517a1.55 1.55 0 01.766-.189c.284 0 .537.063.76.19.226.121.403.294.528.517.13.219.194.469.194.749s-.064.532-.194.755a1.353 1.353 0 01-.528.517 1.519 1.519 0 01-.76.189zm0-.453a.963.963 0 00.49-.124.903.903 0 00.345-.356c.083-.154.124-.33.124-.528s-.041-.372-.124-.523a.86.86 0 00-.345-.356.964.964 0 00-.49-.124.91.91 0 00-.841.48 1.068 1.068 0 00-.124.523c0 .198.041.374.124.528a.96.96 0 00.345.356.996.996 0 00.496.124zm5.772-2.464c.36 0 .644.105.852.313.212.209.318.518.318.927v1.645h-.517v-1.585c0-.277-.065-.486-.194-.626-.126-.14-.308-.21-.545-.21-.262 0-.471.083-.625.248-.155.162-.232.395-.232.7v1.473h-.518v-1.585c0-.277-.064-.486-.194-.626-.126-.14-.307-.21-.544-.21-.263 0-.471.083-.626.248-.154.162-.231.395-.231.7v1.473h-.518v-2.858h.496v.426a.982.982 0 01.41-.334c.169-.08.361-.119.577-.119.222 0 .42.045.593.135.172.09.305.221.399.394a1.08 1.08 0 01.447-.388c.194-.094.411-.14.652-.14zm3.637 0a1.5 1.5 0 01.744.184 1.3 1.3 0 01.512.512c.126.22.189.472.189.76 0 .288-.063.543-.189.765a1.3 1.3 0 01-.512.513 1.5 1.5 0 01-.744.183c-.205 0-.393-.04-.566-.119a1.172 1.172 0 01-.431-.345v1.477h-.518v-3.903h.496v.453a1.08 1.08 0 01.437-.356c.176-.082.37-.124.582-.124zm-.043 2.464a.916.916 0 00.836-.48c.086-.154.129-.33.129-.528s-.043-.372-.129-.523a.871.871 0 00-.345-.356.97.97 0 00-.491-.124.95.95 0 00-.836.48 1.079 1.079 0 00-.124.523c0 .198.042.374.124.528a.912.912 0 00.836.48zm3.217-2.464c.395 0 .697.097.906.291.212.195.318.484.318.868v1.726h-.491v-.378a.83.83 0 01-.372.307 1.418 1.418 0 01-.566.103c-.32 0-.577-.077-.771-.232a.747.747 0 01-.285-.61.74.74 0 01.275-.603c.183-.154.474-.232.873-.232h.819v-.102c0-.223-.064-.394-.194-.512-.129-.119-.32-.178-.571-.178-.169 0-.334.029-.496.086a1.245 1.245 0 00-.41.221l-.215-.388c.147-.119.323-.209.528-.27.205-.064.422-.097.652-.097zm-.118 2.518a.98.98 0 00.512-.13.77.77 0 00.312-.377v-.399h-.798c-.438 0-.657.148-.657.442 0 .144.056.257.167.34.111.083.266.124.464.124zm3.825-2.518c.363 0 .651.106.863.319.215.208.323.515.323.921v1.645h-.517v-1.585c0-.277-.067-.486-.2-.626s-.323-.21-.571-.21c-.281 0-.502.083-.663.248-.162.162-.243.395-.243.7v1.473h-.517v-2.858h.496v.432a1.01 1.01 0 01.42-.34c.18-.08.383-.119.609-.119zm4.62.027l-1.386 3.143c-.122.291-.266.496-.431.615a.968.968 0 01-.588.178c-.14 0-.276-.024-.409-.07a.808.808 0 01-.324-.194l.221-.389c.148.14.318.21.512.21.126 0 .23-.034.313-.102.086-.064.164-.178.232-.34l.091-.199-1.261-2.852h.539l.997 2.286.987-2.286h.507z" fill="#221F21"/></svg>