<svg width="573" height="150" fill="none" xmlns="http://www.w3.org/2000/svg"><path d="M471.213 124.428v4.055h-1.091v-10.528h3.119c.624 0 1.17.078 1.638.234.468.156.935.312 1.247.624.312.234.624.546.78.936.156.39.234.78.234 1.326 0 .468-.078.935-.312 1.325-.234.39-.468.78-.858 1.092a3.59 3.59 0 01-1.325.702 6.253 6.253 0 01-1.794.234h-1.638zm0-5.537v4.601h1.56c1.014 0 1.794-.234 2.34-.624.545-.39.779-1.014.779-1.793 0-1.482-1.013-2.184-2.963-2.184h-1.716zm8.345 6.083c0 .468.078.858.234 1.248.156.39.312.702.546.935.233.234.545.468.935.546.39.156.78.234 1.248.234.936 0 1.872-.312 2.73-.858v.936c-.858.546-1.794.78-2.964.78a5.03 5.03 0 01-1.56-.234c-.467-.156-.857-.468-1.169-.78-.312-.312-.546-.78-.78-1.247-.156-.468-.234-1.014-.234-1.638 0-.546.078-1.092.312-1.56.156-.468.468-.858.78-1.248.312-.312.78-.623 1.247-.779.468-.156 1.014-.312 1.56-.312s1.014.078 1.482.234c.39.156.78.39 1.092.701.312.312.546.702.624 1.17.078.468.233.936.233 1.482v.468h-6.316v-.078zm5.069-.858c0-.78-.234-1.404-.624-1.794-.39-.468-.936-.623-1.716-.623-.39 0-.702.077-1.014.155-.312.078-.546.312-.779.468-.234.234-.39.468-.546.78-.156.312-.234.624-.312 1.014h4.991zm6.94 4.289c-.39.156-.78.234-1.169.234-1.404 0-2.106-.702-2.106-2.105v-4.68h-1.482v-.857h1.482v-1.872l1.092-.312v2.184h2.183v.857h-2.183v4.602c0 .545.078.857.312 1.091.156.234.546.312.935.312.312 0 .624-.078.936-.234v.78zm6.005-6.395c-.234-.156-.546-.234-.936-.234-.312 0-.546.078-.779.156-.234.078-.39.234-.546.39-.156.156-.312.312-.39.546-.078.234-.234.468-.312.624a1.863 1.863 0 00-.156.702c0 .234-.078.468-.078.702v3.665h-1.092v-7.486h1.092v1.637c.078-.234.234-.546.39-.702a1.82 1.82 0 01.546-.545c.234-.156.39-.234.623-.312.234-.078.468-.078.78-.078h.468c.156 0 .234.078.39.078v.857zm5.069 6.707c-.624 0-1.169-.078-1.715-.312-.468-.156-.936-.468-1.326-.78s-.624-.779-.858-1.247c-.156-.468-.312-1.014-.312-1.56 0-.624.078-1.17.312-1.638.234-.468.468-.936.858-1.248.39-.311.858-.623 1.326-.779a6.246 6.246 0 011.793-.234c.624 0 1.17.078 1.638.234.468.156.936.468 1.248.779.312.312.624.78.78 1.248.156.468.312 1.014.312 1.638 0 .624-.078 1.092-.312 1.56-.156.468-.468.857-.858 1.247-.39.312-.78.624-1.326.78-.312.156-.936.312-1.56.312zm.078-7.019c-.468 0-.858.078-1.247.234-.39.156-.702.312-1.014.624-.234.234-.468.624-.624 1.014-.156.39-.234.858-.234 1.326 0 .468.078.858.234 1.248.156.39.312.702.624.935.234.234.624.468.936.624.389.156.779.234 1.247.234.468 0 .936-.078 1.248-.234.39-.156.702-.312.936-.624a2.12 2.12 0 00.546-1.013c.078-.39.234-.858.234-1.326 0-1.014-.234-1.794-.78-2.34-.39-.468-1.17-.702-2.106-.702zm11.932 6.473a5.18 5.18 0 01-2.34.546c-.623 0-1.169-.078-1.637-.312a3.397 3.397 0 01-1.248-.78c-.312-.312-.624-.702-.78-1.169-.156-.468-.312-.936-.312-1.482 0-.546.078-1.092.312-1.56.156-.468.468-.936.858-1.326.39-.39.858-.623 1.404-.857.546-.234 1.169-.312 1.871-.312s1.326.156 1.95.39v1.013c-.624-.39-1.326-.546-2.028-.546-.546 0-.935.078-1.325.234-.39.156-.702.39-1.014.702-.234.312-.468.624-.624 1.014-.156.39-.234.78-.234 1.248 0 .39.078.78.156 1.17.156.39.312.702.546.935.234.312.546.468.936.702.39.156.857.234 1.325.234.78 0 1.56-.234 2.184-.624v.78zm7.876.312v-4.367c0-.858-.156-1.482-.545-1.872-.312-.39-.858-.623-1.638-.623-.312 0-.702.077-1.014.155-.312.156-.624.312-.858.546-.234.234-.39.546-.546.858a2.491 2.491 0 00-.234 1.092v4.211h-1.091v-11.074h1.091v4.913c.702-1.013 1.638-1.481 2.886-1.481.936 0 1.637.234 2.183.78.468.545.702 1.247.702 2.261v4.601h-.936zm4.134-3.509c0 .468.078.858.234 1.248.156.39.312.702.546.935.234.234.545.468.935.546.39.156.78.234 1.248.234.936 0 1.872-.312 2.73-.858v.936c-.858.546-1.794.78-2.964.78a5.03 5.03 0 01-1.56-.234c-.467-.156-.857-.468-1.169-.78-.312-.312-.546-.78-.78-1.247-.156-.468-.234-1.014-.234-1.638 0-.546.078-1.092.312-1.56.234-.468.468-.858.78-1.248.312-.312.78-.623 1.247-.779.468-.234 1.014-.312 1.56-.312s1.014.078 1.482.234c.39.156.78.39 1.092.701.312.312.546.702.624 1.17.078.468.233.936.233 1.482v.468h-6.316v-.078zm5.147-.858c0-.78-.234-1.404-.624-1.794-.39-.468-.936-.623-1.716-.623-.39 0-.702.077-1.014.155-.312.078-.546.312-.779.468-.234.234-.39.468-.546.78-.156.312-.234.624-.312 1.014h4.991zm13.959 4.367v-4.367a4.72 4.72 0 00-.156-1.17c-.078-.312-.234-.546-.39-.78a1.698 1.698 0 00-.624-.39 2.94 2.94 0 00-.936-.155c-.312 0-.623.078-.857.155-.312.156-.546.312-.702.546-.234.234-.39.468-.468.78-.156.312-.156.624-.156 1.014v4.367h-1.092v-4.523c0-1.56-.702-2.339-2.106-2.339-.311 0-.623.078-.857.155-.312.156-.546.312-.702.546-.234.234-.39.468-.468.78-.078.312-.156.624-.156 1.014v4.289h-1.092v-7.486h1.092v1.247c.624-.935 1.482-1.403 2.651-1.403.312 0 .624.078.858.156.234.078.546.156.702.312.234.156.39.312.546.545.156.234.234.39.312.624a3.607 3.607 0 011.17-1.247c.468-.312 1.013-.39 1.637-.39 1.872 0 2.808 1.013 2.808 3.041v4.601h-1.014v.078zm4.211-9.358c-.234 0-.39-.078-.546-.156-.156-.156-.234-.312-.234-.468 0-.156.078-.39.234-.468.156-.156.312-.156.546-.156.078 0 .234 0 .312.078.078 0 .156.078.234.156.078.078.156.156.156.234.078.078.078.156.078.234 0 .078 0 .156-.078.234-.078.078-.078.156-.156.234-.078.078-.156.078-.234.156-.156-.078-.234-.078-.312-.078zm-.546 1.872h1.092v7.486h-1.092v-7.486zm9.515 7.174a5.18 5.18 0 01-2.34.546c-.624 0-1.17-.078-1.638-.312a3.384 3.384 0 01-1.247-.78c-.312-.312-.624-.702-.78-1.169-.156-.468-.312-.936-.312-1.482 0-.546.078-1.092.312-1.56.234-.468.468-.936.857-1.326.39-.39.858-.623 1.404-.857.546-.234 1.17-.312 1.872-.312.702 0 1.326.156 1.949.39v1.013c-.623-.39-1.325-.546-2.027-.546-.546 0-.936.078-1.326.234-.39.156-.702.39-1.014.702-.312.312-.468.624-.624 1.014-.156.39-.234.78-.234 1.248 0 .39.078.78.156 1.17.156.39.312.702.546.935.234.312.546.468.936.702.39.156.858.234 1.326.234.78 0 1.56-.234 2.184-.624v.78zm7.018.312v-1.326c-.312.468-.624.858-1.17 1.092a3.621 3.621 0 01-1.637.39c-.39 0-.78-.078-1.092-.156a1.86 1.86 0 01-.858-.468c-.234-.156-.39-.39-.546-.702-.156-.234-.156-.545-.156-.857 0-.702.234-1.248.702-1.638.468-.39 1.17-.702 2.184-.78l2.573-.312c0-1.404-.624-2.183-1.95-2.183-1.013 0-1.949.311-2.807.935v-1.013c.156-.078.39-.234.624-.312l.702-.234c.234-.078.546-.156.78-.156.234 0 .546-.078.779-.078.936 0 1.716.234 2.184.702.468.467.702 1.169.702 2.105v4.835h-1.014v.156zm-2.184-3.587c-.389.078-.701.078-1.013.156-.234.078-.468.156-.702.312-.156.156-.312.312-.39.468-.078.156-.156.39-.156.702 0 .234.078.39.156.545.078.156.234.312.39.468.156.156.312.234.546.312.234.078.468.078.78.078.389 0 .701-.078 1.013-.156.312-.156.624-.312.858-.546.234-.234.39-.467.546-.779a2.16 2.16 0 00.234-1.014v-.702l-2.262.156zm6.941-7.487h-1.092v11.074h1.092v-11.074zM446.96 135.97v9.592h-1.092v-9.592h-3.431v-.936h8.032v.936h-3.509zm7.876 3.041c-.233-.156-.545-.234-.935-.234-.312 0-.546.078-.78.156-.234.078-.39.234-.546.39-.156.156-.312.312-.39.546-.078.234-.234.468-.312.624a1.863 1.863 0 00-.156.702c0 .234-.078.468-.078.702v3.665h-1.092v-7.487h1.092v1.638c.078-.234.234-.546.39-.702.156-.234.312-.39.546-.546.234-.156.39-.234.624-.312.234-.078.468-.078.78-.078h.468c.156 0 .234.078.389.078v.858zm6.473 6.551v-1.326c-.312.468-.624.858-1.17 1.092a3.621 3.621 0 01-1.637.39c-.39 0-.78-.078-1.092-.156a1.86 1.86 0 01-.858-.468c-.234-.156-.39-.39-.546-.702-.156-.234-.156-.546-.156-.858 0-.702.234-1.247.702-1.637.468-.39 1.17-.702 2.184-.78l2.573-.312c0-1.404-.624-2.184-1.95-2.184-1.013 0-1.949.312-2.807.936v-1.014c.156-.078.39-.234.624-.312l.702-.234c.234-.078.546-.156.78-.156.234 0 .545-.078.779-.078.936 0 1.716.234 2.184.702.468.468.702 1.17.702 2.106v4.835h-1.014v.156zm-2.183-3.665c-.39.078-.702.078-1.014.156a1.927 1.927 0 00-.702.312 1.038 1.038 0 00-.39.467c-.078.156-.156.39-.156.702 0 .234.078.39.156.546.078.156.234.312.39.468.156.156.312.234.546.312.234.078.468.078.78.078.39 0 .701-.078 1.013-.156.312-.156.624-.312.858-.546.234-.234.39-.468.546-.78.156-.312.234-.624.234-1.013v-.702l-2.261.156zm11.853 3.665v-1.326c-.312.468-.701.858-1.247 1.092-.546.234-1.092.39-1.794.39a4.541 4.541 0 01-1.482-.234c-.468-.156-.78-.39-1.092-.78a2.947 2.947 0 01-.701-1.17 5.027 5.027 0 01-.234-1.559c0-.624.078-1.17.312-1.638.156-.468.467-.936.779-1.326s.78-.624 1.248-.858c.468-.234 1.014-.312 1.638-.312 1.248 0 2.105.468 2.651 1.326v-4.757h1.092v11.074h-1.17v.078zm0-4.523c0-.312-.078-.624-.156-.936-.156-.312-.312-.546-.545-.702a1.54 1.54 0 00-.858-.468c-.312-.156-.702-.156-1.092-.156-.39 0-.78.078-1.17.234-.39.156-.702.39-.936.624-.234.312-.468.624-.624 1.014-.156.39-.234.858-.234 1.326 0 .468.078.935.156 1.247.156.39.312.702.546.936.234.234.546.468.858.624.312.156.702.234 1.092.234.468 0 .858-.078 1.17-.234.312-.156.624-.312.858-.546.234-.234.467-.546.545-.858a2.4 2.4 0 00.234-1.013v-1.326h.156zm4.367-4.913c-.234 0-.389-.078-.545-.156-.156-.156-.234-.312-.234-.468 0-.156.078-.39.234-.468.156-.156.311-.156.545-.156.078 0 .234 0 .312.078.078 0 .156.078.234.156.078.078.156.156.156.234.078.078.078.156.078.234 0 .078 0 .156-.078.234 0 .078-.078.156-.156.234-.078.078-.156.078-.234.156-.078-.078-.234-.078-.312-.078zm-.545 1.949h1.091v7.487h-1.091v-7.487zm9.592 7.487v-4.289c0-1.716-.702-2.574-2.106-2.574-.39 0-.702.078-1.014.156-.312.078-.623.312-.857.546-.234.234-.39.468-.546.78a2.16 2.16 0 00-.234 1.014v4.289h-1.092v-7.487h1.092v1.326c.624-1.014 1.559-1.482 2.885-1.482.936 0 1.638.234 2.184.78.468.546.702 1.326.702 2.34v4.601h-1.014zm10.762-.624c0 1.404-.39 2.418-1.092 3.119-.702.702-1.872 1.014-3.353 1.014-.936 0-1.794-.156-2.652-.546v-.935c.936.467 1.794.701 2.652.701 2.261 0 3.353-1.013 3.353-3.119v-.936c-.624 1.014-1.638 1.482-3.042 1.482a4.54 4.54 0 01-1.481-.234c-.468-.156-.78-.39-1.092-.702a2.937 2.937 0 01-.702-1.17 5.023 5.023 0 01-.234-1.559c0-.624.078-1.17.312-1.716.156-.468.468-.936.78-1.326s.78-.624 1.248-.858c.468-.234 1.014-.312 1.637-.312 1.248 0 2.106.468 2.652 1.326v-1.092h1.092v6.863h-.078zm-1.092-3.977c0-.312-.078-.624-.156-.858-.156-.312-.312-.546-.546-.702-.234-.234-.468-.39-.78-.468-.312-.156-.702-.156-1.014-.156-.468 0-.857.078-1.247.234-.39.156-.702.39-.936.624-.234.312-.468.624-.624 1.014-.156.39-.234.858-.234 1.326 0 .468.078.857.156 1.247.156.39.312.702.546.936.234.234.546.468.858.624a2.49 2.49 0 001.091.234c.39 0 .78-.078 1.17-.234.312-.156.624-.312.858-.546.234-.234.468-.546.546-.858a2.4 2.4 0 00.234-1.013v-1.404h.078zm16.845 4.211c-.936.39-1.95.546-3.198.546a7.347 7.347 0 01-2.339-.39c-.702-.234-1.248-.624-1.794-1.092-.468-.468-.858-1.014-1.092-1.637a5.955 5.955 0 01-.39-2.106c0-.78.156-1.56.39-2.184a5.71 5.71 0 011.248-1.793c.546-.468 1.17-.936 1.872-1.17a6.462 6.462 0 012.495-.468c1.014 0 1.95.156 2.73.39v1.014c-.858-.39-1.794-.546-2.73-.546a5.95 5.95 0 00-2.105.39 4.156 4.156 0 00-1.56 1.014c-.39.389-.702.935-.936 1.481-.234.546-.312 1.17-.312 1.872 0 .624.078 1.17.312 1.716.234.545.468 1.013.858 1.403.39.39.858.702 1.404.936.546.234 1.247.39 1.949.39 1.17 0 2.184-.234 3.042-.624v.858h.156zm5.849.546c-.624 0-1.17-.078-1.716-.312-.468-.156-.936-.468-1.326-.78s-.624-.78-.858-1.248c-.156-.468-.312-1.013-.312-1.559 0-.624.078-1.17.312-1.638.234-.468.468-.936.858-1.248.39-.312.858-.624 1.326-.78a6.253 6.253 0 011.794-.234c.623 0 1.169.078 1.637.234.468.156.936.468 1.248.78.312.312.624.78.78 1.248.156.468.312 1.014.312 1.638 0 .624-.078 1.091-.312 1.559-.156.468-.468.858-.858 1.248-.39.312-.78.624-1.326.78-.312.234-.858.312-1.559.312zm.078-7.019c-.468 0-.858.078-1.248.234-.39.156-.702.312-1.014.624-.234.234-.468.624-.624 1.014-.156.39-.234.858-.234 1.326 0 .468.078.857.234 1.247.156.39.312.702.624.936.234.234.624.468.936.624.39.156.78.234 1.248.234.467 0 .935-.078 1.247-.234.39-.156.702-.312.936-.624.234-.234.468-.624.546-1.014.156-.39.234-.857.234-1.325 0-1.014-.234-1.794-.78-2.34-.39-.468-1.092-.702-2.105-.702zm17.078 6.863v-4.367a4.72 4.72 0 00-.156-1.17c-.078-.312-.234-.546-.39-.78a1.698 1.698 0 00-.624-.39 2.897 2.897 0 00-.935-.156c-.312 0-.624.078-.858.156-.312.156-.546.312-.702.546-.234.234-.39.468-.468.78-.156.312-.156.624-.156 1.014v4.367h-1.092v-4.523c0-1.56-.702-2.34-2.105-2.34-.312 0-.624.078-.858.156-.312.156-.546.312-.702.546-.234.234-.39.468-.468.78-.078.312-.156.624-.156 1.014v4.289h-1.092v-7.487h1.092v1.248c.624-.936 1.482-1.404 2.652-1.404.312 0 .623.078.857.156.234.078.546.156.702.312.234.156.39.312.546.546.156.234.234.39.312.624a3.61 3.61 0 011.17-1.248c.468-.312 1.014-.39 1.638-.39 1.871 0 2.807 1.014 2.807 3.042v4.601h-1.014v.078zm4.679-1.248v4.679h-1.091v-10.918h1.091v1.404c.312-.546.78-.936 1.248-1.17.546-.312 1.17-.39 1.794-.39.546 0 1.014.078 1.481.234.468.156.78.39 1.092.702.312.312.546.702.702 1.17.156.468.234.936.234 1.56s-.078 1.169-.234 1.715c-.156.546-.468.936-.78 1.326s-.78.624-1.248.858c-.467.234-1.013.312-1.637.312-1.092-.078-2.028-.546-2.652-1.482zm0-1.871c0 .311.078.623.234.935.156.312.312.546.546.78.234.234.546.39.858.546.312.156.702.234 1.092.234.468 0 .78-.078 1.17-.234.312-.156.623-.39.857-.702.234-.312.468-.624.546-1.092.156-.389.234-.857.234-1.403a4.72 4.72 0 00-.156-1.17c-.156-.39-.312-.624-.546-.936-.234-.234-.467-.468-.857-.546a2.491 2.491 0 00-1.092-.234c-.468 0-.858.078-1.17.234a2.47 2.47 0 00-.936.624c-.234.234-.468.546-.546.858a2.491 2.491 0 00-.234 1.092v1.014zm13.726 3.119v-1.326c-.312.468-.624.858-1.17 1.092a3.626 3.626 0 01-1.638.39c-.39 0-.78-.078-1.091-.156a1.86 1.86 0 01-.858-.468c-.234-.156-.39-.39-.546-.702-.156-.234-.156-.546-.156-.858 0-.702.234-1.247.702-1.637.468-.39 1.169-.702 2.183-.78l2.574-.312c0-1.404-.624-2.184-1.95-2.184-1.014 0-1.95.312-2.807.936v-1.014c.156-.078.39-.234.624-.312l.701-.234c.234-.078.546-.156.78-.156.234 0 .546-.078.78-.078.936 0 1.716.234 2.184.702.468.468.702 1.17.702 2.106v4.835h-1.014v.156zm-2.184-3.665c-.39.078-.702.078-1.014.156-.234.078-.468.156-.701.312-.156.156-.312.311-.39.467-.078.156-.156.39-.156.702 0 .234.078.39.156.546.078.156.234.312.39.468.155.156.311.234.545.312.234.078.468.078.78.078.39 0 .702-.078 1.014-.156.312-.156.624-.312.858-.546.234-.234.39-.468.546-.78.156-.312.234-.624.234-1.013v-.702l-2.262.156zm11.62 3.665v-4.289c0-1.716-.702-2.574-2.106-2.574-.39 0-.701.078-1.013.156-.312.078-.624.312-.858.546-.234.234-.39.468-.546.78a2.16 2.16 0 00-.234 1.014v4.289h-1.092v-7.487h1.092v1.326c.624-1.014 1.56-1.482 2.885-1.482.936 0 1.638.234 2.184.78.468.546.702 1.326.702 2.34v4.601h-1.014zm6.161 1.326c-.312.702-.702 1.247-1.17 1.637-.468.39-.936.546-1.56.546-.312 0-.546 0-.78-.078v-.858c.156 0 .234.078.39.078h.39c.39 0 .624-.078.936-.312.234-.155.468-.467.702-.857l.78-1.56-3.276-7.487h1.17l2.418 5.927c0 .078.078.156.078.234 0 .078.078.234.078.312h.078c0-.078.078-.156.078-.234 0-.078.078-.156.078-.312l2.573-5.927h1.17l-4.133 8.891z" fill="#221F21"/><path d="M294.379.705l2.08 1.036c3.813 1.728 5.546 5.874 4.506 9.675-1.04 4.146-4.506 6.565-9.013 6.565-3.813 0-7.279-3.11-7.973-6.91-.693-4.492 1.387-8.293 5.547-10.02.693-.346 1.04-.346 1.733-.692 1.04.346 2.08.346 3.12.346z" fill="#969696"/><path d="M285.366 34.22c-4.16-6.91-9.36-13.13-15.6-17.967-4.506-3.455-9.706-6.22-15.252-8.292-.694-.346-1.387-.691-1.734-1.037.694.346 1.734.346 2.427.691 13.173 4.147 23.572 11.403 31.892 22.114 1.733 2.073 1.733 2.764 3.467-.345.346-.346.693-1.037 1.386-1.383-.347.346-.693 1.383-1.04 2.074-3.12 8.292-7.973 15.894-13.519 22.804-14.906 19.004-32.932 34.553-54.078 46.301-7.626 4.146-15.6 7.256-24.266 8.638-6.586 1.037-13.173 1.037-19.759-1.036-8.666-3.11-13.866-10.02-14.213-19.004-.346-6.91 1.04-13.476 3.813-20.04l-1.04 8.292c-.346 4.146 0 8.638 1.734 12.439 2.08 5.183 5.893 8.984 11.439 11.057-6.586-12.094-9.359-24.878-7.626-38.7v4.147c0 1.382.347 2.764.347 4.146 1.039 11.403 5.199 21.423 12.132 30.407l1.04 1.036c.694.346 1.387 0 1.734.346-.347-.346-.347-1.037-.694-1.382-7.279-8.984-11.439-19.004-12.826-30.061-1.386-15.895 2.427-30.061 12.48-42.5 10.053-12.44 23.225-19.695 39.171-21.423 24.266-2.419 45.412 9.33 56.505 28.333.346.691.693 1.037 1.04 1.728-.694-.691-1.387-1.037-2.08-2.073-6.933-8.293-15.253-14.167-24.959-17.968-7.627-2.764-15.6-3.8-23.919-3.455-.347 0-1.04.346-1.387.346l1.04 1.036c3.813 2.764 7.28 5.183 11.093 7.947 1.387 1.037 2.08 1.037 3.813.691 1.387-.69 3.467-1.036 5.547-1.727v.345c-1.734.691-3.467 1.728-5.2 2.419-1.733.691-1.387.691-.347 2.073 3.467 4.147 7.28 8.293 10.746 12.785 1.04 1.036 1.387 1.036 2.774.69 3.466-1.381 6.586-2.764 10.053-4.146.693-.345 1.733-.345 2.426-.69-3.466 2.418-6.933 4.146-10.746 6.219-2.427 1.382-2.08 1.382-.693 3.455.346.691 1.04 1.728 1.386 2.419 1.387 2.419 2.427 4.837 3.813 7.256-2.426-2.764-4.853-5.874-6.933-8.984-1.386-1.727-1.386-1.727-3.12-.69-7.973 4.837-15.599 10.02-23.572 15.202l-.693.691c-1.04.346-1.04 1.037-.347 2.074 1.04 1.727 2.08 3.455 3.467 5.183 1.04 1.382 1.733 2.764 2.773 4.146l-.347.345c-2.08-2.764-4.506-5.874-6.586-8.638-.693-1.036-1.387-1.036-2.08-.345-7.973 5.874-15.599 12.093-23.572 17.967-1.04.691-.694 1.382-.347 2.073 1.733 2.764 3.466 5.183 5.2 7.947.346.692.693 1.037 1.04 1.728l-.347.346-7.28-8.293c-1.04-1.382-1.04-1.382-2.773-.346-2.773 2.42-5.893 5.183-8.666 7.602-.347.346-1.04.691-1.387 1.037l-.347-.346c3.12-3.11 6.24-6.565 9.36-9.675 1.04-1.036 1.04-1.382.347-2.764l-8.32-14.512c-.693-1.382-.693-1.728-2.08-.346-1.386 1.383-3.12 2.765-4.506 4.492l-.347-.345c1.387-1.728 2.773-3.801 4.16-5.529 1.04-1.036 1.04-2.073.693-3.455-1.386-3.455-2.08-7.256-3.12-10.711-.346-1.037-.346-2.42-.693-4.147l-1.387 2.764c-3.12 7.602-4.506 15.55-4.506 23.842.347 10.366 3.12 20.04 8.666 29.024 1.04 1.728 2.08 2.419 3.813 2.073 1.734-.345 3.814-.345 5.547-.691 6.933-1.036 13.519-3.8 20.106-6.91 11.786-5.529 22.185-13.13 32.238-21.423 12.133-10.02 23.226-21.077 32.932-33.17-.693-1.728 1.734-4.492.694-6.22zm-69.331 7.602c-.693.346-1.04.692-1.733 1.037-6.24 5.183-12.48 10.712-18.719 15.894-1.04.691-1.04 1.383-.694 2.765 2.427 5.183 5.2 10.365 7.627 15.548.693 1.037 1.04 1.382 2.08.346 3.466-3.11 7.279-5.874 10.746-8.638 3.813-3.11 7.973-5.874 12.133-8.639.693-.69 1.386-1.036.693-2.073-3.813-5.183-7.626-10.02-11.44-15.203-.346-.691-.346-.691-.693-1.037zm14.56 15.895c.693-.346 1.04-.691 1.733-1.037 7.973-5.183 15.946-10.02 23.919-15.203 1.387-1.037 1.733-1.037.347-2.419-3.814-4.146-7.627-7.947-11.44-12.093-1.04-1.037-2.08-1.037-3.467-.346-6.586 3.801-13.172 7.256-19.759 11.057-3.12 1.728-3.12 2.073-1.04 5.183.347.346.694 1.037 1.04 1.382 2.427 3.801 5.2 7.947 7.627 11.748 0 .691.346 1.037 1.04 1.728zM240.994 24.2l-1.04-1.037c-4.506-3.455-9.359-6.91-14.906-8.984-.693-.345-1.733-.345-2.426 0-5.2 1.382-10.4 3.456-14.907 6.22-1.733 1.036-1.733 1.036-.693 2.419 2.773 4.491 5.893 8.983 8.667 13.13 1.039 1.727 1.039 1.727 3.119.345 4.16-2.419 8.32-5.183 12.48-7.602 2.773-1.382 5.546-2.418 8.32-3.8.346 0 1.04-.346 1.386-.691zm-51.651 15.548c.347 5.874 1.733 11.403 3.466 16.586.347 1.036.694 1.382 1.734.345 5.546-5.874 11.786-11.057 18.372-15.894 1.04-.691 1.04-1.382.347-2.419l-9.36-12.439c-1.386-2.073-1.386-2.073-3.12-.345-3.813 3.11-6.933 6.565-9.706 10.711-1.386.691-2.08 2.073-1.733 3.455z" fill="#284997"/><path d="M158.145 106.782c.693 2.764 1.386 5.874 2.426 8.638 4.16 11.748 13.866 18.658 26.346 19.35 9.359.345 18.026-1.728 26.345-5.183 16.986-6.22 32.239-15.895 46.105-26.952 22.186-17.622 40.559-38.353 54.771-62.886 0-.345.347-.69.347-.69s.347-.346.693-.346c-.346.69-.346 1.036-.693 1.727-4.16 7.948-8.666 15.895-12.826 23.842-.693 1.382-1.04 2.419-1.04 4.146-.347 17.968-6.933 33.516-20.106 45.955-11.093 10.366-24.612 16.24-40.212 16.931-4.159.346-8.319-.345-12.479-.345-1.733 0-3.12 0-4.507.691-8.319 3.801-16.986 6.91-25.999 8.292-6.933 1.037-13.866 1.037-20.452-1.382-10.746-3.8-17.333-11.402-18.373-23.15-.693-3.11-1.04-5.874-.346-8.638zm82.85 15.549c7.973.691 22.532-5.874 31.198-13.131 9.013-7.601 17.68-21.422 18.026-28.678-13.172 17.622-30.158 30.752-49.224 41.809zM34.736 58.408c-1.04 4.146-2.08 7.947-3.12 12.093-1.733 7.947-3.813 15.55-5.546 23.496-.347 1.382-1.04 2.073-2.427 2.073H17.75c-1.733 0-2.08-.69-2.773-2.073-3.813-13.475-7.28-26.605-11.093-40.081-1.04-3.8-2.08-7.256-3.12-11.057-.347-1.727-.347-1.727 1.387-1.727h7.28c1.733 0 2.08.69 2.426 2.073 2.08 9.329 4.506 18.313 6.933 27.642.693 2.419 1.387 5.183 2.08 7.602 0 .345.346.69.693.69 0-.345.347-.69.347-.69 1.386-5.183 2.426-10.712 3.813-15.895 1.733-6.565 3.12-12.784 4.853-19.35.347-1.727 1.04-2.072 2.773-2.072h4.507c1.386 0 2.08.69 2.426 2.073 2.08 9.329 4.507 19.004 6.587 28.333.693 2.764 1.386 5.528 2.426 7.947.347-.691.347-1.382.694-2.419 2.773-11.402 5.546-22.459 8.666-33.861.693-2.42.693-2.42 2.773-2.42h6.587c2.426 0 2.426 0 1.733 2.42-2.08 7.256-4.16 14.166-6.24 21.422-2.773 9.675-5.546 19.004-8.32 28.68-.693 3.109-.693 2.418-3.12 2.418h-4.506c-2.773 0-2.773 0-3.12-2.419l-6.24-26.951-2.08-8.293c-1.04.346-1.386.346-1.386.346zm317.881 7.947h14.559c2.08 0 2.08 0 2.08 2.073-.347 13.821-9.706 25.915-23.919 27.988-20.799 2.764-33.625-13.476-33.625-28.333 0-16.586 13.519-27.643 26.345-28.334 9.013-.69 16.64 1.728 23.226 7.947 2.427 2.074 4.16 4.838 5.2 7.602.693 1.382.347 1.382-1.04 1.382H355.39c-1.04 0-1.733-.345-2.08-1.036-4.506-5.529-10.053-6.911-16.639-5.529-6.933 1.728-11.093 6.22-12.826 13.13-1.734 7.256 0 13.476 5.199 19.004 6.24 6.91 21.493 7.256 27.386-4.492.693-1.727.693-1.727-1.04-1.727h-16.293c-2.426 0-2.426 0-2.426-2.419v-4.146c0-2.764 0-2.764 3.12-2.764 3.813-.346 8.319-.346 12.826-.346zm-239.191 0h14.906c1.733 0 2.08 0 1.733 2.073-.693 10.02-4.506 18.659-13.172 24.187-9.36 5.874-19.066 6.22-28.773 1.382-9.706-4.837-14.906-12.784-15.599-23.841-.693-14.858 8.32-26.951 23.226-29.716 11.439-2.073 21.492 1.037 28.772 10.712 1.04 1.036 1.733 2.418 2.427 3.8.693 1.728.693 2.074-1.04 2.074h-9.36c-1.04 0-1.733-.346-2.427-1.037-4.853-6.22-13.172-6.91-19.066-4.837-6.586 2.418-11.092 8.983-11.44 16.24-.346 6.22 2.08 11.402 6.587 15.548 6.24 5.874 20.799 6.22 26.346-5.528.693-1.382.693-1.728-1.04-1.728H99.213c-2.773 0-2.773 0-2.773-2.764v-4.492c0-2.073 0-2.073 2.08-2.073h14.906zm365.025 2.073c.347 15.895-13.172 28.679-28.772 28.679-15.252 0-28.772-13.13-28.772-29.024 0-14.167 12.133-28.334 29.119-28.334 16.639 0 29.119 13.822 28.425 28.68zm-11.092 0v-2.764c-1.04-6.565-4.16-11.748-10.4-14.512-5.893-2.764-11.786-2.073-16.986 1.727-8.32 6.22-10.053 17.968-4.16 26.26 7.973 11.057 23.919 9.675 29.812-2.764 1.04-2.073 1.734-4.837 1.734-7.947zm-79.731 5.874v19.004c0 2.419 0 2.419-2.08 2.419h-7.279c-1.04 0-1.387-.346-1.387-1.382V42.859c0-1.382.347-2.073 1.733-1.728h18.72c4.853 0 9.359 1.383 13.173 4.838 5.199 4.837 6.586 11.402 4.853 17.967-1.387 6.22-5.547 10.366-12.133 12.094-1.733.345-1.733.345-.694 1.727l12.48 16.586c.347.345.693 1.036 1.04 1.727-.693 0-1.387.346-2.08.346h-8.32c-1.386 0-2.426-.346-3.12-1.728-4.159-6.22-8.319-12.093-12.479-18.313-.347-.69-1.04-1.382-1.387-1.727-.693-.346-.693-.346-1.04-.346zm0-14.858v6.911c0 .691 0 1.728 1.04 1.728 4.16 0 8.32.345 12.133-1.037 1.733-.691 2.773-1.728 3.467-3.11 2.426-5.528-.347-11.402-6.24-12.439-2.773-.345-5.893-.345-9.013-.345-1.04 0-1.387.345-1.387 1.382v6.91zm126.182 1.037v-16.93c0-2.074 0-2.42 2.427-2.42h6.586c2.08 0 2.08 0 2.08 2.074v23.15c0 4.837 0 9.675-.347 14.512-1.039 10.02-8.319 16.24-18.372 16.24-10.746.346-16.986-6.22-18.719-12.784a26.198 26.198 0 01-1.04-7.257V43.55c0-2.418 0-2.418 2.426-2.418h5.893c2.427 0 2.427 0 2.427 2.418v32.48c0 2.073.347 4.146 1.04 6.22 1.387 3.455 4.16 5.182 8.666 4.837 3.813-.346 5.893-2.074 6.933-5.529.347-1.382.694-3.11.694-4.837-.694-5.529-.694-11.057-.694-16.24zm20.453 7.947V43.55c0-2.418 0-2.418 2.426-2.418h18.72c2.426 0 4.506.69 6.933 1.382 4.853 1.727 7.973 5.182 9.013 10.02.693 3.455.693 6.91 0 10.366-1.387 6.91-6.587 11.748-14.213 12.784-3.12.346-6.586.346-9.706.691-2.08 0-2.08 0-2.08 2.073v15.55c0 2.072 0 2.072-2.08 2.072h-6.933c-1.387 0-1.733-.345-1.733-1.727v-7.256c-.347-6.22-.347-12.44-.347-18.659zm10.746-10.02v6.22c0 1.036.347 1.727 1.387 1.727 3.12-.346 6.239 0 9.013-.691 3.813-.691 5.546-3.455 5.546-7.256 0-3.8-2.08-6.565-5.893-7.256-2.773-.346-5.893-.346-9.013-.691-1.04 0-1.387.69-1.387 1.382.694 2.418.694 4.492.347 6.565z" fill="#284997"/><path d="M291.953 52.534s-1.734 2.073-2.774 3.455c-14.906 22.46-33.625 41.118-56.851 55.285-9.706 5.528-19.412 10.365-30.505 12.439-6.24 1.382-12.826 1.727-19.066.345-7.28-1.727-12.48-5.528-16.293-11.748-3.466-5.874-4.853-12.093-4.853-19.004.347.691.347 1.728.693 2.419 1.04 3.8 2.427 7.602 4.507 11.057 4.853 7.947 12.133 12.093 21.492 12.439 6.933.345 13.52-1.382 19.76-3.455 12.132-4.147 23.225-10.712 33.625-17.968 18.026-12.093 33.279-27.297 46.798-43.882.347-.691 2.08-2.419 2.08-2.419M142.891 73.611v-20.04c0-2.42 0-2.42-2.426-2.42h-6.587c-1.039 0-1.733-.345-1.733-1.727V42.86c0-1.382.694-1.727 1.733-1.727h28.773c2.426 0 2.426 0 2.426 2.418v5.529c0 1.382-.346 1.727-1.733 1.727h-6.24c-2.773 0-2.773 0-2.773 2.765v40.424c0 2.073 0 2.073-2.08 2.073h-6.586c-2.427 0-2.427 0-2.427-2.418v-10.02c-.347-3.456-.347-6.911-.347-10.02z" fill="#284997"/><path d="M332.857 39.75c-3.12 0-5.546-1.728-7.279-4.492-.347-.692-.347-1.383.346-2.074 2.427-1.382 3.12-4.837 2.08-7.256-.693-1.036.347-1.036.694-1.382 3.119-1.727 6.933-1.382 9.359 1.037 2.773 2.073 3.467 5.874 2.427 9.329-1.387 2.764-4.16 4.837-7.627 4.837z" fill="#969696"/><path d="M316.565 24.2c0 4.492-3.467 7.602-7.627 7.602-4.159 0-7.626-3.455-7.626-7.601 0-1.383.347-1.383 1.387-1.037 1.733 1.037 3.466.691 4.853-.691 1.386-1.382 1.386-3.11.693-4.837-.693-1.728-.693-1.728 1.04-1.728 3.813.691 7.28 4.146 7.28 8.293z" fill="#FF0008"/><path d="M308.592 11.416c-1.387-3.455 0-7.256 3.119-8.638 3.467-1.382 7.28 0 9.013 3.455 1.734 3.801 0 7.256-3.813 8.984 1.04-3.455.347-5.529-2.08-6.565-2.426-1.382-4.16-.691-6.239 2.764zm-3.12 21.423l-.693.69c-.694 1.037-1.734 2.42-2.427 3.456-1.04 1.382-1.387 2.764-1.04 4.146.347 1.383-.347 2.074-1.733 1.383-1.387-.692-2.427-1.383-3.467-2.074-.693-.69-.693-1.382.347-1.727 3.12-.691 4.16-3.801 5.546-5.874 1.04-1.382.694-1.382 2.427-.691.347 0 .693.345 1.04.69zm1.733-12.785c0 1.382-1.04 2.765-2.426 3.11-1.387.345-3.12-.346-3.467-2.073-.346-1.382-.693-2.419-1.733-3.11-.693-.691-.347-1.037.347-1.728.346-.345 1.04-1.036 1.386-.345 1.04 1.037 2.08 1.037 3.467 1.382 1.386 0 2.426 1.037 2.426 2.764zm20.106 8.293c0 .345 0 1.037-.347 1.382-.346.691-1.039 1.728-1.386 2.419-.693-.691-1.387-1.037-1.733-1.728-.694-.346-1.387-1.037-2.08-1.037-1.04-.345-2.427-.69-3.467-1.036-1.386-.346-1.04-1.037-.693-2.073.346-1.382 1.04-.346 1.733-.346.693.346 1.387.346 2.427.691 1.386.691 2.773.691 4.506.346.693-.346 1.04 0 1.04 1.382z" fill="#969696"/><path d="M309.978 12.453c0-1.728 1.04-2.765 2.427-3.11 1.04-.346 2.773.345 3.466 1.382.694 1.037.694 2.764-.346 3.455-.693.691-1.387 1.728-2.427 2.073-.346.346-1.733 0-2.08-.69-.693-1.037-.693-2.42-1.04-3.11zm-16.292 41.463c5.546 1.037 10.399-4.146 9.359-9.675 0-.345-.693-.69-.693-.69-3.12 1.381-4.853-1.037-6.933-2.765-.347-.346-.693-1.037-.693-1.382-.347-1.728-.347-2.073-2.08-1.382-5.2 1.727-7.28 7.947-3.813 12.439 0 .69 1.733 2.764 4.853 3.455z" fill="#969696"/></svg>