<svg width="18" height="18" fill="none" xmlns="http://www.w3.org/2000/svg"><g clip-path="url(#clip0_280_664)" stroke="#FF0008" stroke-width="1.5"><path d="M1.5 9.153c0-1.716 0-2.575.39-3.286.389-.711 1.1-1.153 2.523-2.036l1.5-.93C7.417 1.966 8.169 1.5 9 1.5c.83 0 1.583.467 3.087 1.4l1.5.931c1.423.883 2.134 1.325 2.524 2.036.389.711.389 1.57.389 3.286v1.14c0 2.926 0 4.39-.879 5.298-.878.909-2.293.909-5.121.909h-3c-2.828 0-4.243 0-5.121-.909-.879-.909-.879-2.372-.879-5.297V9.153z"/><path d="M11.25 13.5h-4.5" stroke-linecap="round"/></g><defs><clipPath id="clip0_280_664"><path fill="#fff" d="M0 0h18v18H0z"/></clipPath></defs></svg>