<svg width="202" height="50" fill="none" xmlns="http://www.w3.org/2000/svg"><path d="M103.364.405l.732.365c1.34.61 1.95 2.07 1.584 3.41-.365 1.46-1.584 2.313-3.169 2.313-1.341 0-2.56-1.096-2.803-2.435-.244-1.583.487-2.922 1.95-3.531.244-.122.366-.122.609-.244.366.122.732.122 1.097.122z" fill="#969696"/><path d="M100.195 12.216c-1.463-2.436-3.29-4.627-5.485-6.332-1.585-1.217-3.413-2.192-5.363-2.922-.244-.122-.488-.244-.61-.365.244.121.61.121.854.243 4.631 1.461 8.288 4.018 11.214 7.793.609.73.609.974 1.219-.122.121-.122.243-.365.487-.487-.122.122-.244.487-.366.73-1.097 2.923-2.803 5.601-4.753 8.036-5.242 6.697-11.58 12.176-19.016 16.316-2.681 1.46-5.485 2.557-8.532 3.044-2.316.365-4.632.365-6.948-.365-3.047-1.096-4.876-3.531-4.997-6.697-.122-2.435.365-4.749 1.34-7.062l-.365 2.922c-.122 1.461 0 3.044.61 4.383.73 1.827 2.071 3.166 4.022 3.897-2.316-4.262-3.291-8.767-2.682-13.637v1.46c0 .488.122.975.122 1.462.366 4.018 1.828 7.549 4.266 10.715l.366.365c.244.122.487 0 .61.122-.123-.122-.123-.366-.245-.487-2.56-3.166-4.022-6.697-4.51-10.593-.487-5.601.854-10.593 4.389-14.976 3.534-4.384 8.166-6.94 13.773-7.55 8.533-.852 15.968 3.288 19.869 9.985.122.243.244.365.365.609-.243-.244-.487-.366-.73-.731-2.439-2.922-5.364-4.992-8.777-6.331-2.682-.974-5.485-1.34-8.41-1.218-.123 0-.366.122-.488.122l.365.365c1.341.974 2.56 1.826 3.901 2.8.488.366.731.366 1.34.244.488-.244 1.22-.365 1.951-.609v.122c-.61.243-1.219.609-1.828.852-.61.244-.488.244-.122.73 1.219 1.462 2.56 2.923 3.778 4.506.366.365.488.365.976.243 1.219-.487 2.316-.974 3.535-1.46.243-.122.609-.122.853-.244-1.22.852-2.438 1.46-3.779 2.191-.853.487-.731.487-.244 1.218.122.243.366.609.488.852.487.852.853 1.705 1.34 2.557a31.184 31.184 0 01-2.437-3.165c-.488-.61-.488-.61-1.097-.244-2.804 1.704-5.485 3.53-8.289 5.357l-.244.244c-.365.122-.365.365-.122.73.366.61.732 1.218 1.22 1.827.365.487.609.974.975 1.46l-.122.123c-.732-.974-1.585-2.07-2.316-3.044-.244-.366-.488-.366-.732-.122-2.803 2.07-5.485 4.261-8.288 6.331-.366.244-.244.487-.122.73.61.975 1.219 1.827 1.828 2.801.122.244.244.365.366.609l-.122.122-2.56-2.922c-.365-.487-.365-.487-.975-.122-.975.852-2.072 1.826-3.047 2.678-.122.122-.366.244-.488.366l-.122-.122c1.097-1.096 2.194-2.313 3.291-3.41.366-.364.366-.486.122-.973l-2.925-5.114c-.244-.487-.244-.609-.732-.122-.487.487-1.097.974-1.584 1.583l-.122-.122c.488-.609.975-1.34 1.463-1.948.365-.365.365-.73.243-1.218-.487-1.217-.73-2.556-1.097-3.774-.121-.365-.121-.852-.243-1.461l-.488.974c-1.097 2.679-1.585 5.48-1.585 8.401.122 3.653 1.098 7.062 3.048 10.228.365.609.731.852 1.34.73.61-.121 1.341-.121 1.95-.243 2.439-.365 4.755-1.34 7.07-2.435 4.145-1.948 7.802-4.627 11.337-7.55 4.266-3.53 8.166-7.426 11.58-11.688-.244-.609.609-1.583.243-2.191zm-24.378 2.678c-.244.122-.366.244-.61.365-2.194 1.827-4.388 3.775-6.582 5.601-.366.244-.366.487-.244.974.854 1.827 1.829 3.653 2.682 5.48.244.365.366.486.731.121 1.22-1.096 2.56-2.07 3.779-3.044 1.34-1.096 2.803-2.07 4.266-3.044.244-.243.488-.365.244-.73-1.34-1.827-2.682-3.531-4.022-5.358-.122-.243-.122-.243-.244-.365zm5.12 5.601c.243-.122.365-.244.609-.365 2.803-1.827 5.607-3.531 8.41-5.358.488-.365.61-.365.122-.852-1.34-1.461-2.681-2.8-4.022-4.261-.366-.366-.732-.366-1.22-.122-2.315 1.34-4.631 2.557-6.947 3.896-1.097.609-1.097.73-.366 1.826.122.122.244.366.366.487.853 1.34 1.828 2.8 2.681 4.14 0 .244.122.366.366.609zm3.656-11.81l-.366-.366c-1.584-1.217-3.29-2.435-5.241-3.165a1.042 1.042 0 00-.853 0c-1.829.487-3.657 1.217-5.242 2.191-.61.365-.61.365-.244.853.976 1.582 2.073 3.165 3.048 4.626.366.61.366.61 1.097.122 1.463-.852 2.925-1.826 4.388-2.679.975-.487 1.95-.852 2.925-1.339.122 0 .366-.122.488-.243zm-18.162 5.479c.122 2.07.61 4.018 1.219 5.844.122.365.244.487.61.122 1.95-2.07 4.144-3.896 6.46-5.601.365-.244.365-.487.122-.852L71.55 9.293c-.488-.73-.488-.73-1.097-.121a16.819 16.819 0 00-3.413 3.774c-.488.244-.732.73-.61 1.218z" fill="#284997"/><path d="M55.46 37.785c.245.974.489 2.07.854 3.043 1.463 4.14 4.876 6.575 9.264 6.819 3.291.122 6.338-.609 9.264-1.826 5.972-2.192 11.336-5.601 16.211-9.498 7.802-6.21 14.262-13.515 19.259-22.16 0-.121.122-.243.122-.243s.122-.122.244-.122c-.122.244-.122.366-.244.61-1.463 2.8-3.047 5.6-4.51 8.4-.244.487-.365.853-.365 1.462-.122 6.33-2.438 11.81-7.07 16.193-3.9 3.653-8.655 5.723-14.14 5.966-1.462.122-2.925-.122-4.388-.122-.61 0-1.097 0-1.584.244-2.926 1.34-5.973 2.435-9.142 2.922-2.438.366-4.876.366-7.192-.487-3.779-1.34-6.094-4.018-6.46-8.158-.244-1.095-.366-2.07-.122-3.044zm29.133 5.479c2.804.243 7.923-2.07 10.97-4.627 3.17-2.679 6.217-7.55 6.339-10.106-4.632 6.21-10.605 10.836-17.309 14.733zM12.067 20.738c-.366 1.462-.731 2.8-1.097 4.262-.61 2.8-1.34 5.48-1.95 8.28-.122.486-.366.73-.853.73H6.095c-.61 0-.732-.243-.976-.73-1.34-4.749-2.56-9.376-3.9-14.124-.366-1.34-.732-2.557-1.097-3.897-.122-.608-.122-.608.487-.608h2.56c.61 0 .731.243.853.73.732 3.288 1.585 6.453 2.438 9.74.244.853.488 1.827.732 2.68 0 .121.121.243.243.243 0-.122.122-.244.122-.244.488-1.826.853-3.774 1.341-5.6.61-2.314 1.097-4.505 1.707-6.819.121-.609.365-.73.975-.73h1.584c.488 0 .732.243.854.73.73 3.288 1.584 6.697 2.315 9.984.244.974.488 1.948.854 2.8.122-.243.122-.486.243-.852.976-4.018 1.95-7.914 3.048-11.932.244-.852.244-.852.975-.852h2.316c.853 0 .853 0 .61.852-.732 2.557-1.463 4.992-2.195 7.55-.975 3.408-1.95 6.696-2.925 10.105-.244 1.096-.244.852-1.097.852h-1.585c-.975 0-.975 0-1.097-.852l-2.194-9.497-.731-2.922c-.366.121-.488.121-.488.121zm111.775 2.801h5.12c.731 0 .731 0 .731.73-.122 4.87-3.413 9.132-8.41 9.863-7.314.974-11.824-4.749-11.824-9.984 0-5.845 4.754-9.74 9.264-9.984 3.169-.244 5.851.608 8.167 2.8.853.73 1.462 1.705 1.828 2.679.244.487.122.487-.366.487h-3.535c-.365 0-.609-.122-.731-.366-1.585-1.948-3.535-2.435-5.851-1.948-2.438.61-3.9 2.192-4.51 4.627-.609 2.557 0 4.749 1.829 6.697 2.194 2.435 7.557 2.557 9.629-1.583.244-.609.244-.609-.366-.609h-5.728c-.854 0-.854 0-.854-.852v-1.461c0-.974 0-.974 1.097-.974 1.341-.122 2.926-.122 4.51-.122zm-84.105 0h5.241c.61 0 .731 0 .61.73-.244 3.531-1.585 6.575-4.632 8.523-3.291 2.07-6.704 2.192-10.117.487-3.413-1.704-5.242-4.505-5.485-8.4-.244-5.236 2.925-9.498 8.166-10.472 4.023-.73 7.557.365 10.117 3.775.366.365.61.852.853 1.339.244.609.244.73-.365.73h-3.291c-.366 0-.61-.121-.854-.365-1.706-2.191-4.631-2.435-6.704-1.704-2.316.852-3.9 3.165-4.022 5.722-.122 2.192.731 4.018 2.316 5.48 2.194 2.07 7.313 2.19 9.264-1.949.243-.487.243-.609-.366-.609H34.74c-.975 0-.975 0-.975-.974V24.27c0-.731 0-.731.731-.731h5.242zm128.352.731c.122 5.6-4.632 10.105-10.117 10.105-5.363 0-10.117-4.627-10.117-10.227 0-4.992 4.266-9.984 10.239-9.984 5.851 0 10.239 4.87 9.995 10.106zm-3.901 0v-.975c-.365-2.313-1.462-4.14-3.656-5.113-2.072-.974-4.145-.73-5.973.608-2.925 2.192-3.535 6.332-1.463 9.254 2.804 3.896 8.411 3.41 10.483-.974.366-.73.609-1.705.609-2.8zm-28.035 2.07v6.696c0 .852 0 .852-.731.852h-2.56c-.365 0-.487-.121-.487-.487V15.259c0-.487.122-.73.609-.608h6.582c1.707 0 3.291.487 4.632 1.704 1.829 1.705 2.316 4.018 1.707 6.332-.488 2.191-1.951 3.652-4.267 4.261-.609.122-.609.122-.243.609l4.388 5.844c.122.122.244.365.365.609-.243 0-.487.122-.731.122h-2.925c-.488 0-.854-.122-1.097-.609-1.463-2.192-2.926-4.262-4.388-6.453-.122-.244-.366-.487-.488-.609-.244-.122-.244-.122-.366-.122zm0-5.236v2.435c0 .243 0 .609.366.609 1.463 0 2.925.122 4.266-.366.61-.243.975-.608 1.219-1.095.853-1.949-.122-4.018-2.194-4.384-.975-.121-2.072-.121-3.169-.121-.366 0-.488.121-.488.487v2.435zm44.369.365v-5.966c0-.73 0-.852.853-.852h2.316c.732 0 .732 0 .732.73v8.158c0 1.704 0 3.41-.122 5.114-.366 3.53-2.926 5.722-6.461 5.722-3.778.122-5.972-2.191-6.582-4.505a9.25 9.25 0 01-.365-2.557v-11.81c0-.852 0-.852.853-.852h2.072c.853 0 .853 0 .853.852v11.445c0 .73.122 1.461.366 2.192.487 1.217 1.463 1.826 3.047 1.704 1.341-.121 2.072-.73 2.438-1.948.122-.487.244-1.096.244-1.704-.244-1.948-.244-3.897-.244-5.723zm7.192 2.801v-8.767c0-.852 0-.852.853-.852h6.582c.853 0 1.585.243 2.438.487 1.706.608 2.804 1.826 3.169 3.53a9.205 9.205 0 010 3.653c-.487 2.435-2.316 4.14-4.997 4.505-1.097.122-2.316.122-3.413.244-.732 0-.732 0-.732.73v5.48c0 .73 0 .73-.731.73h-2.438c-.487 0-.609-.122-.609-.609v-2.557c-.122-2.191-.122-4.383-.122-6.575zm3.778-3.532v2.192c0 .365.122.609.488.609 1.097-.122 2.194 0 3.169-.244 1.341-.243 1.95-1.217 1.95-2.557 0-1.339-.731-2.313-2.072-2.556-.975-.122-2.072-.122-3.169-.244-.366 0-.487.244-.487.487a5.05 5.05 0 01.121 2.313z" fill="#284997"/><path d="M102.511 18.669s-.609.73-.975 1.217c-5.241 7.914-11.823 14.49-19.99 19.481-3.413 1.949-6.826 3.653-10.727 4.384-2.194.487-4.51.608-6.704.121-2.56-.608-4.388-1.948-5.729-4.14-1.219-2.07-1.706-4.26-1.706-6.696.122.243.122.609.244.852.365 1.34.853 2.679 1.584 3.897 1.707 2.8 4.266 4.261 7.557 4.383 2.438.121 4.754-.487 6.948-1.218 4.267-1.46 8.167-3.774 11.824-6.331 6.338-4.262 11.701-9.619 16.455-15.463.122-.244.732-.853.732-.853m-51.927 7.793v-7.062c0-.852 0-.852-.853-.852h-2.316c-.365 0-.61-.122-.61-.61V15.26c0-.487.245-.608.61-.608h10.117c.854 0 .854 0 .854.852v1.948c0 .487-.122.609-.61.609h-2.194c-.975 0-.975 0-.975.974v14.244c0 .731 0 .731-.731.731h-2.316c-.854 0-.854 0-.854-.852v-3.531c-.122-1.218-.122-2.435-.122-3.531z" fill="#284997"/><path d="M116.894 14.164c-1.097 0-1.95-.61-2.559-1.583-.122-.244-.122-.487.122-.73.853-.488 1.097-1.705.731-2.558-.244-.365.122-.365.244-.487 1.097-.608 2.438-.487 3.291.366.975.73 1.219 2.07.853 3.287-.488.974-1.463 1.705-2.682 1.705z" fill="#969696"/><path d="M111.165 8.685c0 1.582-1.218 2.678-2.681 2.678s-2.682-1.217-2.682-2.678c0-.487.122-.487.488-.366.609.366 1.219.244 1.706-.243.488-.487.488-1.096.244-1.705s-.244-.609.366-.609c1.341.244 2.559 1.461 2.559 2.923z" fill="#FF0008"/><path d="M108.362 4.18c-.488-1.218 0-2.557 1.097-3.044 1.219-.487 2.56 0 3.169 1.217.61 1.34 0 2.557-1.341 3.166.366-1.218.122-1.948-.731-2.314-.853-.487-1.463-.243-2.194.975zm-1.097 7.549l-.244.243c-.244.365-.609.852-.853 1.218-.366.487-.488.974-.366 1.46.122.488-.122.731-.609.488-.488-.244-.853-.487-1.219-.73-.244-.244-.244-.488.122-.61 1.097-.243 1.462-1.339 1.95-2.07.366-.487.244-.487.853-.243.122 0 .244.122.366.244zm.61-4.506c0 .487-.366.975-.854 1.096-.487.122-1.097-.121-1.219-.73-.122-.487-.243-.853-.609-1.096-.244-.244-.122-.365.122-.609.122-.122.365-.365.487-.122.366.366.732.366 1.219.487.488 0 .854.366.854.974zm7.069 2.923c0 .121 0 .365-.122.487-.122.243-.365.608-.487.852-.244-.244-.488-.365-.61-.609-.244-.122-.487-.365-.731-.365-.366-.122-.853-.244-1.219-.365-.488-.122-.366-.366-.244-.73.122-.488.366-.123.61-.123.243.122.487.122.853.244.487.243.975.243 1.585.122.243-.122.365 0 .365.487z" fill="#969696"/><path d="M108.85 4.545c0-.609.365-.974.853-1.096.365-.122.975.122 1.219.487.243.365.243.974-.122 1.218-.244.243-.488.608-.853.73-.122.122-.61 0-.732-.243-.244-.366-.244-.853-.365-1.096zm-5.729 14.611c1.95.365 3.656-1.461 3.291-3.41 0-.121-.244-.243-.244-.243-1.097.487-1.707-.365-2.438-.974-.122-.122-.244-.365-.244-.487-.122-.609-.122-.73-.731-.487-1.828.609-2.56 2.8-1.341 4.383 0 .244.61.974 1.707 1.218z" fill="#969696"/><path d="M112.291 40.67c.489 0 .873.118 1.154.351.28.234.42.556.42.965 0 .41-.14.732-.42.965-.281.234-.665.35-1.154.35h-.933v1.143h-.539v-3.773h1.472zm-.016 2.163c.341 0 .602-.072.781-.216.18-.148.27-.358.27-.63 0-.274-.09-.482-.27-.626-.179-.147-.44-.221-.781-.221h-.917v1.693h.917zm4.878.199c0 .04-.003.092-.011.156h-2.318a.914.914 0 00.329.61c.191.15.426.226.706.226.342 0 .617-.115.825-.345l.286.334a1.245 1.245 0 01-.485.345 1.665 1.665 0 01-.642.119 1.71 1.71 0 01-.803-.183 1.356 1.356 0 01-.544-.523 1.506 1.506 0 01-.189-.755c0-.277.061-.527.183-.75.126-.222.297-.395.512-.517a1.46 1.46 0 01.739-.189 1.4 1.4 0 01.728.189c.215.122.382.295.501.517.122.223.183.479.183.766zm-1.412-1.035a.906.906 0 00-.626.226.92.92 0 00-.291.593h1.833a.898.898 0 00-.296-.587.874.874 0 00-.62-.232zm3.737 2.28a.801.801 0 01-.28.151 1.225 1.225 0 01-.345.049c-.287 0-.51-.077-.668-.232-.159-.155-.238-.376-.238-.663v-1.569h-.485v-.426h.485v-.625h.518v.625h.819v.426h-.819v1.547c0 .155.038.273.113.356a.441.441 0 00.334.124.627.627 0 00.405-.135l.161.372zm1.122-2.21a.884.884 0 01.399-.377c.176-.087.39-.13.641-.13v.502a.992.992 0 00-.118-.006c-.28 0-.501.085-.663.254-.158.165-.237.402-.237.711v1.423h-.518v-2.857h.496v.48zm2.876 2.41a1.55 1.55 0 01-.766-.189 1.392 1.392 0 01-.533-.517 1.506 1.506 0 01-.189-.755c0-.28.063-.53.189-.75.129-.222.307-.395.533-.517a1.55 1.55 0 01.766-.189c.284 0 .537.063.76.189.226.122.402.295.528.517.13.22.194.47.194.75s-.064.532-.194.755a1.36 1.36 0 01-.528.517 1.519 1.519 0 01-.76.189zm0-.453a.963.963 0 00.49-.124.903.903 0 00.345-.356c.083-.154.124-.33.124-.528s-.041-.372-.124-.523a.86.86 0 00-.345-.356.963.963 0 00-.49-.124.91.91 0 00-.841.48 1.068 1.068 0 00-.124.523c0 .198.041.374.124.528a.96.96 0 00.345.356.993.993 0 00.496.124zm3.443.453a1.6 1.6 0 01-.781-.189 1.387 1.387 0 01-.534-.517 1.469 1.469 0 01-.194-.755c0-.28.064-.53.194-.75.129-.222.307-.395.534-.517a1.6 1.6 0 01.781-.189c.259 0 .489.052.69.157.205.104.363.255.475.453l-.394.253a.88.88 0 00-.776-.41c-.187 0-.356.041-.507.124a.902.902 0 00-.35.356 1.068 1.068 0 00-.124.523c0 .201.041.379.124.534a.91.91 0 00.35.35c.151.083.32.124.507.124a.952.952 0 00.442-.102.88.88 0 00.334-.308l.394.248c-.112.198-.27.35-.475.458a1.478 1.478 0 01-.69.157zm3.323-2.917c.363 0 .651.106.863.318.216.209.323.516.323.922v1.644h-.517V42.86c0-.276-.067-.485-.2-.625-.132-.14-.323-.21-.571-.21-.28 0-.501.083-.663.248-.162.162-.243.395-.243.7v1.472h-.517v-4h.517v1.548c.108-.137.248-.243.421-.319.176-.075.372-.113.587-.113zm4.742 1.472c0 .04-.003.092-.01.156h-2.319a.914.914 0 00.329.61c.191.15.426.226.706.226.342 0 .617-.115.825-.345l.286.334a1.245 1.245 0 01-.485.345 1.662 1.662 0 01-.642.119 1.71 1.71 0 01-.803-.183 1.356 1.356 0 01-.544-.523 1.506 1.506 0 01-.189-.755c0-.277.061-.527.183-.75.126-.222.297-.395.512-.517a1.46 1.46 0 01.739-.189 1.4 1.4 0 01.728.189c.215.122.382.295.501.517.122.223.183.479.183.766zm-1.412-1.035a.902.902 0 00-.625.226.917.917 0 00-.292.593h1.833a.898.898 0 00-.296-.587.872.872 0 00-.62-.232zm5.705-.437c.359 0 .643.104.852.313.212.208.318.518.318.927v1.644h-.518V42.86c0-.276-.064-.485-.194-.625-.125-.14-.307-.21-.544-.21-.263 0-.471.083-.626.248-.154.162-.231.395-.231.7v1.472h-.518V42.86c0-.276-.065-.485-.194-.625-.126-.14-.307-.21-.544-.21-.263 0-.471.083-.626.248-.154.162-.232.395-.232.7v1.472h-.517v-2.857h.496v.426a.982.982 0 01.41-.334 1.33 1.33 0 01.576-.119c.223 0 .421.045.593.135a.93.93 0 01.399.394c.108-.166.257-.295.448-.389.194-.093.411-.14.652-.14zm2.122.027h.518v2.857h-.518v-2.857zm.259-.55a.352.352 0 01-.253-.097.321.321 0 01-.097-.237.342.342 0 01.35-.34c.101 0 .183.033.248.098a.298.298 0 01.102.231.338.338 0 01-.35.345zm2.492 3.44c-.291 0-.552-.063-.782-.189a1.392 1.392 0 01-.533-.517 1.469 1.469 0 01-.194-.755c0-.28.064-.53.194-.75.129-.222.307-.395.533-.517.23-.126.491-.189.782-.189.259 0 .489.052.69.157.205.104.363.255.475.453l-.394.253a.88.88 0 00-.776-.41c-.187 0-.356.041-.507.124a.902.902 0 00-.35.356 1.068 1.068 0 00-.124.523c0 .201.041.379.124.534a.91.91 0 00.35.35c.151.083.32.124.507.124a.955.955 0 00.442-.102.88.88 0 00.334-.308l.394.248c-.112.198-.27.35-.475.458a1.478 1.478 0 01-.69.157zm2.875-2.917c.395 0 .697.097.906.291.212.194.318.484.318.868v1.725h-.491v-.377a.83.83 0 01-.372.307 1.422 1.422 0 01-.566.103c-.32 0-.577-.077-.771-.232a.747.747 0 01-.285-.61.74.74 0 01.275-.603c.183-.154.474-.232.873-.232h.819v-.102c0-.223-.064-.394-.194-.512-.129-.119-.32-.178-.571-.178-.169 0-.334.028-.496.086a1.235 1.235 0 00-.41.221l-.216-.388c.148-.119.324-.209.529-.27.205-.064.422-.097.652-.097zm-.119 2.518a.98.98 0 00.513-.13.769.769 0 00.312-.377v-.399h-.798c-.438 0-.657.148-.657.442a.4.4 0 00.167.34c.111.082.266.124.463.124zm2.301-3.634h.517v4h-.517v-4zm3.778.696h-1.294v-.47h3.121v.47h-1.294v3.304h-.533V41.14zm2.766.927a.884.884 0 01.399-.377c.176-.087.39-.13.642-.13v.502a1.011 1.011 0 00-.119-.006c-.28 0-.501.085-.663.254-.158.165-.237.402-.237.711v1.423h-.518v-2.857h.496v.48zm2.714-.507c.395 0 .697.097.906.291.212.194.318.484.318.868v1.725h-.491v-.377a.83.83 0 01-.372.307 1.422 1.422 0 01-.566.103c-.32 0-.577-.077-.771-.232a.748.748 0 01-.286-.61c0-.25.092-.452.275-.603.184-.154.475-.232.874-.232h.819v-.102c0-.223-.065-.394-.194-.512-.129-.119-.32-.178-.571-.178-.169 0-.335.028-.496.086a1.235 1.235 0 00-.41.221l-.216-.388c.148-.119.324-.209.529-.27a2.17 2.17 0 01.652-.097zm-.119 2.518a.973.973 0 00.512-.13.77.77 0 00.313-.377v-.399h-.798c-.438 0-.657.148-.657.442a.4.4 0 00.167.34c.111.082.266.124.463.124zm5.012-3.634v4h-.496v-.452a1.123 1.123 0 01-.437.36c-.176.083-.37.125-.582.125a1.5 1.5 0 01-.744-.183 1.341 1.341 0 01-.518-.513 1.568 1.568 0 01-.183-.765c0-.288.061-.541.183-.76.126-.22.299-.39.518-.512a1.5 1.5 0 01.744-.184c.205 0 .393.04.566.119.172.075.316.189.431.34v-1.575h.518zm-1.472 3.58c.18 0 .343-.041.49-.124a.903.903 0 00.345-.356c.083-.154.124-.33.124-.528s-.041-.372-.124-.523a.86.86 0 00-.345-.356.981.981 0 00-.49-.124.91.91 0 00-.841.48 1.068 1.068 0 00-.124.523c0 .198.041.374.124.528a.96.96 0 00.345.356.996.996 0 00.496.124zm2.451-2.437h.517v2.857h-.517v-2.857zm.259-.55a.356.356 0 01-.254-.097.325.325 0 01-.097-.237c0-.093.033-.172.097-.237a.346.346 0 01.254-.102c.1 0 .183.032.248.097a.298.298 0 01.102.231.338.338 0 01-.35.345zm2.772.523c.363 0 .651.106.863.318.215.209.323.516.323.922v1.644h-.517V42.86c0-.276-.067-.485-.2-.625s-.323-.21-.571-.21c-.281 0-.502.083-.663.248-.162.162-.243.395-.243.7v1.472h-.518v-2.857h.496v.431c.105-.147.245-.26.421-.34.18-.078.383-.118.609-.118zm4.893.027v2.47c0 .499-.124.867-.372 1.104-.248.241-.618.362-1.111.362-.269 0-.526-.038-.771-.114a1.503 1.503 0 01-.593-.312l.248-.4c.133.116.297.206.491.27.198.069.401.103.609.103.334 0 .581-.08.739-.237.161-.159.242-.4.242-.723v-.226a1.167 1.167 0 01-.452.334 1.517 1.517 0 01-.577.108 1.6 1.6 0 01-.744-.173 1.337 1.337 0 01-.518-.49 1.386 1.386 0 01-.188-.723c0-.27.062-.508.188-.717.126-.212.299-.375.518-.49a1.6 1.6 0 01.744-.173c.215 0 .415.04.598.119.187.079.34.196.458.35v-.442h.491zm-1.488 2.286c.187 0 .354-.04.501-.119a.864.864 0 00.351-.328.927.927 0 00.129-.486c0-.276-.092-.5-.275-.668-.183-.173-.419-.259-.706-.259-.291 0-.528.086-.712.259a.867.867 0 00-.275.668c0 .18.042.342.124.486a.91.91 0 00.351.328c.151.08.321.119.512.119zm5.687.614c-.377 0-.718-.082-1.024-.247a1.88 1.88 0 01-.712-.69 1.931 1.931 0 01-.258-.992c0-.367.086-.696.258-.987.173-.295.412-.525.717-.69a2.083 2.083 0 011.025-.253c.294 0 .564.05.808.15.245.098.453.243.626.437l-.351.34a1.406 1.406 0 00-1.062-.448c-.28 0-.533.063-.76.19a1.39 1.39 0 00-.722 1.26c0 .274.063.522.188.744.13.22.308.392.534.518.227.126.48.189.76.189.421 0 .775-.151 1.062-.453l.351.34a1.677 1.677 0 01-.631.442c-.244.1-.514.15-.809.15zm3.236-.01a1.55 1.55 0 01-.766-.189 1.392 1.392 0 01-.533-.517 1.506 1.506 0 01-.189-.755c0-.28.063-.53.189-.75.129-.222.307-.395.533-.517a1.55 1.55 0 01.766-.189c.284 0 .537.063.76.189.226.122.403.295.528.517.13.22.194.47.194.75s-.064.532-.194.755a1.353 1.353 0 01-.528.517 1.519 1.519 0 01-.76.189zm0-.453a.963.963 0 00.49-.124.903.903 0 00.345-.356c.083-.154.124-.33.124-.528s-.041-.372-.124-.523a.86.86 0 00-.345-.356.963.963 0 00-.49-.124.91.91 0 00-.841.48 1.068 1.068 0 00-.124.523c0 .198.041.374.124.528a.96.96 0 00.345.356.996.996 0 00.496.124zm5.772-2.464c.36 0 .644.104.852.313.212.208.318.518.318.927v1.644h-.517V42.86c0-.276-.065-.485-.194-.625-.126-.14-.308-.21-.545-.21-.262 0-.471.083-.625.248-.155.162-.232.395-.232.7v1.472h-.518V42.86c0-.276-.064-.485-.194-.625-.126-.14-.307-.21-.544-.21-.263 0-.471.083-.626.248-.154.162-.231.395-.231.7v1.472h-.518v-2.857h.496v.426a.982.982 0 01.41-.334c.169-.08.361-.119.577-.119.222 0 .42.045.593.135.172.09.305.221.399.394a1.09 1.09 0 01.447-.389c.194-.093.411-.14.652-.14zm3.637 0a1.5 1.5 0 01.744.184 1.3 1.3 0 01.512.512c.126.219.189.472.189.76 0 .287-.063.543-.189.765a1.3 1.3 0 01-.512.513 1.5 1.5 0 01-.744.183c-.205 0-.393-.04-.566-.119a1.171 1.171 0 01-.431-.345v1.477h-.518v-3.903h.496v.453a1.08 1.08 0 01.437-.356c.176-.082.37-.124.582-.124zm-.043 2.464a.916.916 0 00.836-.48c.086-.154.129-.33.129-.528s-.043-.372-.129-.523a.871.871 0 00-.345-.356.969.969 0 00-.491-.124.949.949 0 00-.836.48 1.079 1.079 0 00-.124.523c0 .198.042.374.124.528a.912.912 0 00.836.48zm3.217-2.464c.395 0 .697.097.906.291.212.194.318.484.318.868v1.725h-.491v-.377a.83.83 0 01-.372.307 1.418 1.418 0 01-.566.103c-.32 0-.577-.077-.771-.232a.747.747 0 01-.285-.61.74.74 0 01.275-.603c.183-.154.474-.232.873-.232h.819v-.102c0-.223-.064-.394-.194-.512-.129-.119-.32-.178-.571-.178-.169 0-.334.028-.496.086a1.245 1.245 0 00-.41.221l-.215-.388c.147-.119.323-.209.528-.27.205-.064.422-.097.652-.097zm-.118 2.518a.978.978 0 00.512-.13.769.769 0 00.312-.377v-.399h-.798c-.438 0-.657.148-.657.442a.4.4 0 00.167.34c.111.082.266.124.464.124zm3.825-2.518c.363 0 .651.106.863.318.215.209.323.516.323.922v1.644h-.517V42.86c0-.276-.067-.485-.2-.625s-.323-.21-.571-.21c-.281 0-.502.083-.663.248-.162.162-.243.395-.243.7v1.472h-.517v-2.857h.496v.431c.104-.147.244-.26.42-.34.18-.078.383-.118.609-.118zm4.62.027l-1.386 3.143c-.122.291-.266.496-.431.615a.968.968 0 01-.588.178c-.14 0-.276-.024-.409-.07a.807.807 0 01-.324-.195l.221-.388c.148.14.318.21.512.21.126 0 .23-.034.313-.102.086-.065.164-.178.232-.34l.091-.199-1.261-2.852h.539l.997 2.286.987-2.286h.507z" fill="#221F21"/></svg>