<svg width="191" height="1358" fill="none" xmlns="http://www.w3.org/2000/svg"><g opacity=".1" fill="#969696"><path d="M1 659.648l2.465-4.942c4.11-9.058 13.97-13.176 23.01-10.705 9.862 2.47 15.614 10.705 15.614 21.411 0 9.059-7.396 17.294-16.435 18.941C14.97 686 5.93 681.059 1.822 671.177 1 669.53 1 668.706.178 667.059c.822-2.47.822-4.941.822-7.411zm79.713 21.412c-16.436 9.882-31.228 22.235-42.733 37.058-8.218 10.706-14.792 23.059-19.723 36.236-.821 1.647-1.643 3.294-2.465 4.117.822-1.647.822-4.117 1.644-5.764 9.861-31.294 27.118-56 52.594-75.765 4.93-4.118 6.574-4.118-.822-8.235-.822-.824-2.465-1.647-3.287-3.294.822.823 3.287 1.647 4.93 2.47 19.723 7.412 37.802 18.941 54.238 32.118 45.198 35.412 82.178 78.235 110.119 128.47 9.861 18.118 17.257 37.059 20.545 57.647 2.465 15.648 2.465 31.295-2.466 46.942-7.396 20.588-23.832 32.941-45.198 33.764-16.435.824-32.049-2.47-47.663-9.058l19.723 2.47c9.861.824 20.544 0 29.584-4.118 12.326-4.941 21.366-14 26.297-27.176-28.763 15.647-59.169 22.235-92.04 18.118h9.862c3.287 0 6.574-.824 9.861-.824 27.119-2.47 50.95-12.353 72.317-28.823l2.465-2.471c.822-1.647 0-3.294.822-4.118-.822.824-2.465.824-3.287 1.647-21.367 17.295-45.198 27.177-71.495 30.471-37.802 3.294-71.495-5.765-101.08-29.647-29.584-23.882-46.841-55.177-50.95-93.059-5.753-57.647 22.188-107.882 67.386-134.235 1.644-.824 2.465-1.647 4.109-2.471-1.644 1.647-2.465 3.294-4.93 4.941-19.723 16.471-33.694 36.236-42.733 59.295-6.575 18.117-9.04 37.058-8.218 56.823 0 .824.822 2.471.822 3.294l2.465-2.47c6.574-9.059 12.327-17.295 18.9-26.353 2.466-3.294 2.466-4.942 1.645-9.059-1.644-3.294-2.466-8.235-4.11-13.177h.822c1.644 4.118 4.11 8.236 5.753 12.353 1.643 4.118 1.643 3.294 4.93.824 9.862-8.235 19.723-17.294 30.407-25.53 2.465-2.47 2.465-3.294 1.643-6.588-3.287-8.235-6.574-15.647-9.861-23.882-.822-1.647-.822-4.118-1.644-5.765 5.753 8.235 9.861 16.471 14.792 25.529 3.287 5.765 3.287 4.942 8.218 1.648 1.644-.824 4.109-2.471 5.752-3.295 5.753-3.294 11.505-5.764 17.258-9.058-6.574 5.764-13.97 11.529-21.366 16.47-4.109 3.294-4.109 3.294-1.644 7.412 11.505 18.941 23.832 37.059 36.158 56l1.644 1.647c.822 2.471 2.465 2.471 4.931.824 4.109-2.471 8.218-4.942 12.326-8.236 3.288-2.47 6.575-4.117 9.862-6.588l.822.824c-6.575 4.941-13.971 10.705-20.545 15.647-2.465 1.647-2.465 3.294-.822 4.941 13.971 18.941 28.763 37.059 42.733 56 1.643 2.47 3.287 1.647 4.931.823 6.574-4.117 12.326-8.235 18.901-12.353 1.643-.823 2.465-1.647 4.109-2.47l.821.823-19.722 17.294c-3.288 2.471-3.288 2.471-.822 6.589 5.752 6.588 12.327 14 18.079 20.588.822.823 1.644 2.471 2.465 3.294l-.821.824c-7.397-7.412-15.614-14.824-23.01-22.236-2.466-2.47-3.288-2.47-6.575-.823l-34.514 19.764c-3.288 1.648-4.109 1.648-.822 4.942 3.287 3.294 6.574 7.411 10.683 10.706l-.822.823c-4.109-3.294-9.039-6.588-13.148-9.882-2.466-2.471-4.931-2.471-8.218-1.647-8.218 3.294-17.258 4.941-25.475 7.411-2.466.824-5.753.824-9.862 1.647l6.574 3.295c18.08 7.411 36.981 10.705 56.703 10.705 24.654-.823 47.664-7.411 69.03-20.588 4.109-2.47 5.753-4.941 4.931-9.059-.822-4.117-.822-9.058-1.644-13.176-2.465-16.471-9.039-32.118-16.435-47.765-13.149-28-31.228-52.706-50.951-76.588-23.832-28.824-50.129-55.176-78.891-78.235-4.109 1.647-10.683-4.118-14.792-1.647zm18.08 164.706c.82 1.647 1.643 2.47 2.464 4.117 12.327 14.824 25.476 29.647 37.802 44.471 1.644 2.47 3.288 2.47 6.575 1.647 12.326-5.765 24.653-12.353 36.98-18.118 2.465-1.647 3.287-2.47.822-4.941-7.396-8.235-13.971-17.294-20.545-25.529-7.396-9.059-13.97-18.942-20.544-28.824-1.644-1.647-2.466-3.294-4.931-1.647-12.327 9.059-23.832 18.118-36.159 27.176-1.643.824-1.643.824-2.465 1.648zm37.801-34.589c-.822-1.647-1.643-2.47-2.465-4.117-12.327-18.942-23.832-37.883-36.159-56.824-2.465-3.294-2.465-4.118-5.752-.823-9.862 9.058-18.901 18.117-28.763 27.176-2.465 2.471-2.465 4.941-.821 8.235 9.04 15.647 17.257 31.294 26.297 46.942 4.109 7.411 4.93 7.411 12.326 2.47.822-.823 2.466-1.647 3.288-2.47 9.039-5.765 18.901-12.353 27.94-18.118 1.644 0 2.466-.824 4.109-2.471zm-79.713-24.706l-2.465 2.471c-8.218 10.706-16.436 22.235-21.366 35.412-.822 1.647-.822 4.117 0 5.764 3.287 12.353 8.217 24.706 14.792 35.412 2.465 4.118 2.465 4.118 5.752 1.647 10.683-6.588 21.366-14 31.228-20.588 4.109-2.471 4.109-2.471.822-7.412-5.753-9.882-12.327-19.764-18.08-29.647-3.287-6.588-5.752-13.176-9.04-19.764 0-.824-.821-2.471-1.643-3.295zm36.98 122.706c13.971-.823 27.119-4.117 39.446-8.235 2.465-.824 3.287-1.647.822-4.118-13.971-13.176-26.297-28-37.802-43.647-1.644-2.47-3.287-2.47-5.753-.823L60.99 874.589c-4.93 3.294-4.93 3.294-.822 7.412 7.396 9.059 15.614 16.47 25.476 23.059 1.643 3.294 4.93 4.941 8.217 4.117z"/><path d="M253.287 983.294c6.574-1.647 13.97-3.294 20.545-5.765 27.94-9.882 44.376-32.941 46.02-62.588.821-22.235-4.109-42.824-12.327-62.588-14.792-40.353-37.802-76.589-64.099-109.53-41.911-52.706-91.218-96.353-149.565-130.117-.821 0-1.643-.824-1.643-.824s-.822-.823-.822-1.647c1.644.824 2.465.824 4.109 1.647 18.901 9.882 37.802 20.588 56.703 30.471 3.287 1.647 5.752 2.47 9.861 2.47 42.733.824 79.713 16.471 109.297 47.765 24.654 26.353 38.624 58.471 40.268 95.529.821 9.883-.822 19.765-.822 29.647 0 4.118 0 7.412 1.643 10.706 9.04 19.765 16.436 40.353 19.723 61.765 2.466 16.471 2.466 32.941-3.287 48.588-9.039 25.53-27.119 41.177-55.059 43.647-7.396 1.647-13.971 2.471-20.545.824zm36.98-196.824c1.644-18.941-13.97-53.529-31.227-74.117-18.08-21.412-50.951-42-68.208-42.824 41.911 31.294 73.138 71.647 99.435 116.941zm-152.029 490c9.861 2.47 18.901 4.94 28.762 7.41 18.901 4.12 36.98 9.06 55.881 13.18 3.287.82 4.931 2.47 4.931 5.76v14c0 4.12-1.644 4.95-4.931 6.59-32.049 9.06-63.277 17.3-95.326 26.36-9.04 2.47-17.258 4.94-26.297 7.41-4.11.82-4.11.82-4.11-3.3v-17.29c0-4.12 1.644-4.94 4.931-5.77 22.188-4.94 43.555-10.7 65.743-16.47 5.752-1.64 12.327-3.29 18.079-4.94.822 0 1.644-.82 1.644-1.64-.822 0-1.644-.83-1.644-.83-12.327-3.29-25.475-5.76-37.802-9.06-15.614-4.11-30.406-7.41-46.02-11.53-4.109-.82-4.93-2.47-4.93-6.58v-10.71c0-3.29 1.643-4.94 4.93-5.77 22.188-4.94 45.198-10.7 67.386-15.64 6.575-1.65 13.149-3.3 18.901-5.77-1.643-.82-3.287-.82-5.752-1.64-27.119-6.59-53.416-13.18-80.535-20.59-5.752-1.65-5.752-1.65-5.752-6.59v-15.65c0-5.76 0-5.76 5.752-4.12 17.258 4.95 33.693 9.89 50.951 14.83 23.01 6.59 45.198 13.17 68.208 19.76 7.396 1.65 5.752 1.65 5.752 7.41V1246c0 6.59 0 6.59-5.752 7.41-21.367 4.94-42.733 9.88-64.099 14.83-6.575 1.64-13.149 3.29-19.723 4.94.822 2.47.822 3.29.822 3.29zm18.901-755.176v-34.588c0-4.941 0-4.941 4.93-4.941 32.872.823 61.634 23.058 66.565 56.823 6.574 49.412-32.05 79.882-67.386 79.882-39.446 0-65.743-32.117-67.387-62.588-1.643-21.412 4.11-39.529 18.901-55.176 4.931-5.765 11.505-9.883 18.08-12.353 3.287-1.647 3.287-.824 3.287 2.47v23.883c0 2.47-.822 4.117-2.466 4.941-13.148 10.706-16.435 23.882-13.148 39.529 4.109 16.471 14.792 26.353 31.228 30.471 17.257 4.118 32.049 0 45.198-12.353 16.435-14.824 17.257-51.059-10.684-65.059-4.109-1.647-4.109-1.647-4.109 2.471v38.706c0 5.764.001 5.764-5.752 5.764h-9.861c-6.575 0-6.575 0-6.575-7.411-.821-9.059-.821-19.765-.821-30.471zm0 568.236v-35.41c0-4.12 0-4.94 4.93-4.12 23.832 1.65 44.377 10.71 57.525 31.29 13.97 22.24 14.792 45.3 3.287 68.36-11.505 23.06-30.406 35.41-56.703 37.06-35.336 1.64-64.099-19.77-70.673-55.18-4.93-27.18 2.465-51.06 25.475-68.35 2.466-2.47 5.753-4.12 9.04-5.77 4.109-1.64 4.931-1.64 4.931 2.47v22.24c0 2.47-.822 4.12-2.466 5.76-14.792 11.53-16.435 31.3-11.505 45.3 5.753 15.64 21.367 26.35 38.624 27.17 14.792.83 27.119-4.94 36.98-15.64 13.97-14.83 14.792-49.42-13.148-62.59-3.287-1.65-4.109-1.65-4.109 2.47v38.7c0 6.59 0 6.59-6.575 6.59h-10.683c-4.93 0-4.93 0-4.93-4.94v-35.41zm4.93-867.176c37.802-.824 68.208 31.294 68.208 68.352 0 36.236-31.227 68.353-69.029 68.353-33.694 0-67.387-28.823-67.387-69.176 0-39.529 32.872-69.176 68.208-67.529zm0 26.353h-6.574c-15.614 2.47-27.941 9.882-34.515 24.705-6.574 14-4.93 28 4.109 40.353 14.792 19.765 42.733 23.883 62.456 9.883 26.297-18.941 23.01-56.824-6.575-70.824-4.93-2.47-11.505-4.117-18.901-4.117zm13.971 189.411h45.198c5.752 0 5.752 0 5.752 4.941v17.295c0 2.47-.822 3.294-3.287 3.294H101.257c-3.287 0-4.93-.824-4.109-4.118v-44.471c0-11.529 3.288-22.235 11.505-31.294 11.505-12.353 27.119-15.647 42.733-11.529 14.792 3.294 24.654 13.176 28.763 28.823.821 4.118.821 4.118 4.108 1.648l39.446-29.648c.822-.823 2.465-1.647 4.109-2.47 0 1.647.822 3.294.822 4.941v19.765c0 3.294-.822 5.764-4.109 7.412-14.792 9.882-28.763 19.764-43.555 29.647-1.643.823-3.287 2.47-4.109 3.294-.821 1.647-.821 1.647-.821 2.47zm-35.337 0h16.436c1.643 0 4.109 0 4.109-2.47 0-9.883.821-19.765-2.466-28.824-1.643-4.117-4.109-6.588-7.396-8.235-13.148-5.765-27.119.823-29.584 14.823-.822 6.589-.822 14-.822 21.412 0 2.471.822 3.294 3.287 3.294h16.436zm2.465-299.765h-40.267c-4.93 0-5.752 0-5.752-5.765v-15.647c0-4.941 0-4.941 4.93-4.941h55.06c11.505 0 23.01 0 34.515.824 23.831 2.47 38.623 19.764 38.623 43.647.822 25.529-14.792 40.353-30.406 44.47-5.752 1.647-11.505 2.471-17.257 2.471h-79.713c-5.752 0-5.752 0-5.752-5.765v-14c0-5.765 0-5.765 5.752-5.765h77.248c4.93 0 9.861-.823 14.792-2.47 8.217-3.294 12.326-9.883 11.505-20.588-.822-9.059-4.931-14-13.149-16.471-3.287-.824-7.396-1.647-11.505-1.647-13.148 1.647-26.297 1.647-38.624 1.647zm18.901-48.588h-59.168c-5.752 0-5.752 0-5.752-5.765V39.53c0-5.765 1.643-10.707 3.287-16.471 4.109-11.53 12.326-18.941 23.831-21.412a62.123 62.123 0 0124.654 0c16.435 3.294 27.94 15.647 30.406 33.765.822 7.412.822 15.647 1.643 23.059 0 4.94 0 4.94 4.931 4.94h36.98c4.931 0 4.931 0 4.931 4.942v16.47c0 3.295-.822 4.118-4.109 4.118h-17.257c-14.793.824-29.585.824-44.377.824zm-23.831-25.53h14.792c2.465 0 4.109-.823 4.109-3.294-.822-7.412 0-14.823-1.644-21.412-1.644-9.058-8.218-13.176-17.257-13.176-9.04 0-15.614 4.941-17.258 14-.822 6.588-.822 14-1.643 21.412 0 2.47 1.643 3.294 3.287 3.294 5.752-1.647 10.683-1.647 15.614-.824z"/><path d="M124.267 665.411s4.931 4.118 8.218 6.589c53.416 35.411 97.792 79.882 131.485 135.059 13.149 23.058 24.654 46.117 29.585 72.47 3.287 14.824 4.109 30.471.821 45.294-4.108 17.294-13.148 29.647-27.94 38.706-13.97 8.235-28.763 11.53-45.198 11.53 1.643-.824 4.109-.824 5.752-1.647 9.04-2.471 18.079-5.765 26.297-10.706 18.901-11.53 28.763-28.824 29.584-51.059.822-16.471-3.287-32.118-8.217-46.941-9.862-28.824-25.476-55.177-42.733-79.883C203.159 742 167 705.764 127.555 673.647c-1.644-.824-5.753-4.941-5.753-4.941m52.594 350.824h-47.663c-5.753 0-5.753 0-5.753 5.76v15.65c0 2.47-.822 4.12-4.109 4.12h-15.613c-3.288 0-4.11-1.65-4.11-4.12v-68.351c0-5.765 0-5.765 5.753-5.765h13.149c3.287 0 4.108.824 4.108 4.118v14.823c0 6.589 0 6.589 6.575 6.589h96.148c4.931 0 4.931 0 4.931 4.941v15.645c0 5.77 0 5.77-5.752 5.77h-23.832c-8.218.82-16.436.82-23.832.82zM93.861 568.236c0 7.412-4.109 13.176-10.683 17.294-1.643.823-3.287.823-4.93-.824-3.288-5.764-11.505-7.411-17.258-4.941-2.465 1.647-2.465-.823-3.287-1.647-4.109-7.412-3.287-16.47 2.465-22.235 4.931-6.588 13.97-8.235 22.188-5.765 6.575 3.294 11.505 9.882 11.505 18.118zm-36.98 38.705c10.683 0 18.08 8.236 18.08 18.118 0 9.882-8.218 18.118-18.08 18.118-3.287 0-3.287-.824-2.465-3.295 2.465-4.117 1.643-8.235-1.644-11.529-3.287-3.294-7.396-3.294-11.505-1.647-4.109 1.647-4.109 1.647-4.109-2.471 1.644-9.058 9.862-17.294 19.723-17.294zm-30.406 18.942c-8.218 3.294-17.257 0-20.544-7.412-3.287-8.235 0-17.294 8.218-21.412 9.04-4.117 17.257 0 21.366 9.059-8.218-2.47-13.149-.823-15.614 4.942-3.287 5.764-1.643 9.882 6.574 14.823zm50.951 7.411l1.643 1.647c2.466 1.647 5.753 4.118 8.218 5.765 3.287 2.471 6.574 3.294 9.861 2.471 3.288-.824 4.931.823 3.288 4.117-1.644 3.294-3.288 5.765-4.931 8.236-1.644 1.647-3.287 1.647-4.109-.824-1.644-7.412-9.04-9.882-13.97-13.176-3.287-2.471-3.287-1.647-1.644-5.765 0-.824.822-1.647 1.644-2.471z"/><path d="M47.02 629.176c3.287 0 6.574 2.471 7.396 5.765.822 3.294-.822 7.412-4.93 8.235-3.288.824-5.753 1.647-7.397 4.118-1.643 1.647-2.465.823-4.109-.824-.822-.823-2.465-2.47-.822-3.294 2.466-2.47 2.466-4.941 3.288-8.235 0-3.294 2.465-5.765 6.574-5.765zm19.723-47.764c.821 0 2.465 0 3.287.823 1.643.824 4.109 2.471 5.752 3.294-1.643 1.647-2.465 3.294-4.109 4.118-.822 1.647-2.465 3.294-2.465 4.941-.822 2.471-1.644 5.765-2.465 8.235-.822 3.295-2.466 2.471-4.931 1.647-3.287-.823-.822-2.47-.822-4.117.822-1.647.822-3.294 1.644-5.765 1.643-3.294 1.643-6.588.821-10.706-.821-1.647 0-2.47 3.288-2.47zM28.94 622.588c-4.108 0-6.574-2.47-7.395-5.764-.822-2.471.821-6.589 3.287-8.236 2.465-1.647 6.574-1.647 8.218.824 1.643 1.647 4.108 3.294 4.93 5.765.822.823 0 4.117-1.643 4.941-2.466 1.647-5.753 1.647-7.396 2.47zm98.614 38.706c2.466-13.176-9.861-24.706-23.009-22.235-.822 0-1.644 1.647-1.644 1.647 3.287 7.412-2.465 11.529-6.574 16.471-.822.823-2.466 1.647-3.287 1.647-4.11.823-4.931.823-3.288 4.941 4.11 12.353 18.901 17.294 29.585 9.059 1.643 0 6.574-4.118 8.217-11.53z"/></g></svg>