<svg width="156" height="169" fill="none" xmlns="http://www.w3.org/2000/svg"><g clip-path="url(#clip0_280_843)" fill="#69D6BA"><path d="M95.453 107.192c-3.424-.939-3.827-2.078-3.357-7.441.269-2.95 2.35-2.749 4.364-2.749h7.249c.067-1.609.134-2.882.269-4.424h4.564c.134 1.408.202 2.748.336 4.357 2.752 0 5.437.067 8.122 0 2.551-.067 3.558 1.14 3.625 3.62.134 5.229 0 5.631-3.692 6.704 4.497 18.502 8.928 37.004 13.425 55.574h4.162c0-4.693.134-9.386-.067-14.011-.135-3.419 1.342-5.43 4.564-6.436 2.484-.804 4.9-1.81 7.317-2.614 4.296-1.475 7.182.402 7.249 4.961.135 5.027 0 9.988.068 15.016 0 1.341-.605 2.882 1.543 3.687.605.201.538 2.614.739 4.29H80.618c-.269-1.877-1.343-3.888 1.477-5.095.335-.134.47-.871.604-1.34 4.229-17.631 8.525-35.329 12.754-53.026v-1.073zm13.693 39.284c-.335.201-.604.335-.939.536.469 1.475.604 3.151 1.476 4.424.94 1.408 2.35 6.436 1.074 7.777-1.007 1.072-3.087 1.608-4.631 1.608-1.477 0-4.095-.804-4.229-1.608-.403-2.347-.739-5.565.604-7.039 1.745-2.011 1.208-3.553 1.208-5.833-4.027 2.682-7.518 5.363-11.411 7.442-3.826 2.011-4.296 5.363-4.699 9.117h37.926c-.94-2.682-1.141-5.766-2.819-7.173-4.162-3.553-8.995-6.235-13.56-9.251zm1.746-4.961c3.624 2.413 6.981 4.625 11.008 7.307-1.141-4.626-2.014-8.447-3.02-12.603-2.82 1.81-5.303 3.419-7.988 5.296zm-17.185-5.363c-1.006 4.223-1.88 8.044-2.953 12.603 4.027-2.682 7.384-4.894 10.941-7.307-2.819-1.877-5.168-3.419-7.988-5.296zm15.171-5.162v5.698c2.886-1.877 5.37-3.553 8.592-5.698h-8.592zm-12.888-.067a4.61 4.61 0 01-.202.536c2.484 1.676 5.035 3.285 7.854 5.162v-5.698H95.99zm7.719-8.648c-2.819 1.877-5.236 3.553-7.72 5.229.068.201.202.402.27.603h7.383v-5.832h.067zm5.035 5.765h7.652c.067-.201.134-.335.201-.536-2.551-1.676-5.034-3.352-7.853-5.229v5.765zm0-15.619c3.624-1.609 4.161-2.212 3.289-4.089-.403-.872-1.813-1.274-3.289-2.213v6.302zm-5.035.268v-6.637c-1.477 1.006-2.819 1.475-3.155 2.347-1.208 2.748 1.41 3.016 3.155 4.29zm-97.735-3.151c-1.88-.201-3.893.134-3.893-2.681 0-2.95.604-3.687 3.625-3.687h12.552c1.947 0 4.23-.537 4.565 2.48.268 2.816-.269 3.419-4.028 4.022a3.957 3.957 0 00-.134.939v4.826h21.48c6.176 0 9.398 3.218 9.398 9.319v34.792c0 6.1-3.29 9.318-9.33 9.318H9.061c-5.706 0-8.928-3.218-8.928-8.916-.067-11.128.067-22.39-.134-33.586-.067-3.351.537-6.033 3.356-7.91 3.357-2.212 3.088-5.43 2.618-8.916zm39.269 25.943c0-4.223.268-8.111-.135-11.932-.134-1.274-1.745-3.352-2.886-3.419-4.162-.402-8.39-.134-12.553-.134 5.236 5.095 10.204 10.123 15.574 15.485zM84.645 34.189h36.047v16.29c0 1.407-.403 2.882 1.208 4.022 1.007.737.336 2.48-1.007 2.883-.604.134-1.208.134-1.812.134H85.988c-.604 0-1.208 0-1.812-.135-1.477-.469-2.014-2.212-.739-3.016 1.41-.872 1.208-1.944 1.208-3.084V34.19zm3.625 3.62c0 2.95-.134 5.765.067 8.513.067.67 1.074 1.341 1.678 1.944.605-.603 1.611-1.206 1.679-1.81.201-2.815.067-5.698.067-8.647h-3.49zm32.422-14.547H84.645V6.436c0-1.274.269-2.548-1.275-3.486-1.141-.67-.537-2.48.806-2.816.47-.134 1.074-.067 1.61-.067 11.278 0 22.555 0 33.832.067.873 0 1.745.603 2.618.872-.336.871-.739 1.743-1.007 2.681-.201.67-.47 1.408-.47 2.078-.067 5.698-.067 11.463-.067 17.497zm-28.864-3.754c0-2.95.134-5.832-.067-8.648-.067-.603-1.074-1.14-1.678-1.743-.605.603-1.611 1.14-1.678 1.743-.202 2.816-.068 5.698-.068 8.648h3.49zm10.807 7.374h16.916c1.342 0 2.819-.067 2.752 1.81-.067 1.81-1.477 1.81-2.819 1.81H85.652c-1.41 0-2.819-.134-2.752-1.877 0-1.81 1.477-1.81 2.82-1.81 5.638.067 11.277.067 16.915.067zM14.969 12.067h19.668c0 4.692-.134 9.25.067 13.876.067 1.61.537 3.42 1.343 4.76 3.893 6.503 8.055 12.804 12.015 19.24 3.759 6.1.269 12.535-6.981 12.535-10.875.067-21.749 0-32.623 0-3.155 0-5.84-1.072-7.451-4.022-1.611-2.95-1.276-5.832.47-8.648 3.96-6.234 7.853-12.535 11.881-18.77 1.141-1.743 1.611-3.486 1.544-5.497 0-4.357.067-8.849.067-13.474zm9.8 46.322c5.37 0 10.74.134 16.043-.067 1.477-.067 3.222-.871 4.162-1.877 1.41-1.475.403-3.218-.537-4.76-1.88-2.882-3.826-5.765-5.504-8.781-.806-1.408-1.813-1.877-3.356-1.877-7.25.067-14.5 0-21.75.134-1.006 0-2.281.804-2.886 1.676-2.08 2.882-3.826 5.899-5.772 8.915-.873 1.408-1.678 2.883-.672 4.559 1.007 1.743 2.551 2.078 4.43 2.078 5.237-.067 10.54 0 15.842 0zM38.194.402h-26.85v7.642h26.85V.402z"/><path d="M7.854 54.501c1.946-3.084 3.759-6.1 5.705-8.983.336-.47 1.276-.603 2.014-.603a852.57 852.57 0 0118.527 0c.738 0 1.812.402 2.215 1.005 1.88 2.682 3.558 5.497 5.504 8.514H7.854v.067z"/></g><defs><clipPath id="clip0_280_843"><path fill="#fff" d="M0 0h156v169H0z"/></clipPath></defs></svg>