<svg width="18" height="19" fill="none" xmlns="http://www.w3.org/2000/svg"><path d="M4.67 4.15c.042.667.15 1.32.32 1.942l-.856.9c-.293-.9-.478-1.853-.543-2.843H4.67zm7.04 9.014a8.71 8.71 0 001.856.338v1.117a10.55 10.55 0 01-2.713-.562l.857-.893zM5.355 2.65H2.856c-.393 0-.714.338-.714.75 0 7.043 5.434 12.75 12.138 12.75.393 0 .714-.337.714-.75v-2.617c0-.413-.321-.75-.714-.75a7.79 7.79 0 01-2.549-.428.573.573 0 00-.221-.037.713.713 0 00-.507.217l-1.57 1.65a11.105 11.105 0 01-4.706-4.942l1.57-1.65a.78.78 0 00.18-.765A8.913 8.913 0 016.069 3.4c0-.412-.321-.75-.714-.75z" fill="#FF0008"/></svg>