<svg width="110" height="63" fill="none" xmlns="http://www.w3.org/2000/svg"><path d="M89.766 43.414H18.82c-9.761 0-17.7-8-17.7-17.838 0-9.836 7.939-17.837 17.7-17.837h70.946c9.761 0 17.701 8 17.701 17.837s-7.94 17.838-17.701 17.838z" stroke="#221F21" stroke-width="2" stroke-miterlimit="10"/><path d="M47.007 7.712V4.456a2.515 2.515 0 012.515-2.515h9.287a2.515 2.515 0 012.515 2.514v3.388m27.883 44.761h.89a4.477 4.477 0 004.476-4.477V43.65H13.99v4.477a4.477 4.477 0 004.477 4.477h2.291m57.161 0h-3.842m-10.808 0H46.697m-10.808 0h-4.083" stroke="#221F21" stroke-width="2" stroke-miterlimit="10"/><path d="M26.203 59.584a5.658 5.658 0 100-11.315 5.658 5.658 0 000 11.315zm42.257 0a5.658 5.658 0 100-11.315 5.658 5.658 0 000 11.315zm-27.17 0a5.658 5.658 0 100-11.315 5.658 5.658 0 000 11.315zm42.258 0a5.658 5.658 0 100-11.315 5.658 5.658 0 000 11.315z" stroke="#221F21" stroke-width="2" stroke-miterlimit="10"/><path d="M28.54 43.377V8.173m51.872 35.204V8.173M28.54 25.743h25.742" stroke="#221F21" stroke-width="2" stroke-miterlimit="10" stroke-linecap="round" stroke-linejoin="round"/></svg>