<svg width="104" height="60" fill="none" xmlns="http://www.w3.org/2000/svg"><path d="M61.905 37.272H15.718c-8.074 0-14.641-6.583-14.641-14.676 0-8.094 6.567-14.677 14.642-14.677h46.186c8.074 0 14.642 6.583 14.642 14.677 0 8.093-6.568 14.676-14.642 14.676z" stroke="#221F21" stroke-width="2" stroke-miterlimit="10"/><path d="M18.2 7.897v-2.51a2.238 2.238 0 012.24-2.237h7.365a2.238 2.238 0 012.239 2.238v2.618M84.137 52.77h-3.822V21.477h9.366c1.938 0 3.768 1.079 4.737 2.805l7.213 12.626a9.64 9.64 0 011.292 4.856v11.008h-6.288m-49.322-.002h33.002V41.549H6.783v6.798c0 2.482 1.938 4.425 4.414 4.425h6.434m16.961 0h-4.017" stroke="#221F21" stroke-width="2" stroke-miterlimit="10"/><path d="M24.008 58.921c3.449 0 6.245-2.802 6.245-6.259 0-3.456-2.796-6.259-6.245-6.259-3.448 0-6.244 2.803-6.244 6.26 0 3.456 2.796 6.258 6.244 6.258zm16.795 0c3.449 0 6.245-2.802 6.245-6.259 0-3.456-2.796-6.259-6.245-6.259-3.448 0-6.244 2.803-6.244 6.26 0 3.456 2.796 6.258 6.244 6.258zm49.417 0c3.448 0 6.244-2.802 6.244-6.259 0-3.456-2.796-6.259-6.245-6.259-3.448 0-6.244 2.803-6.244 6.26 0 3.456 2.796 6.258 6.245 6.258z" stroke="#221F21" stroke-width="2" stroke-miterlimit="10"/><path d="M1.83 22.704h25.193" stroke="#221F21" stroke-width="2" stroke-miterlimit="10" stroke-linecap="round" stroke-linejoin="round"/><path d="M60.32 37.242v4.138M18.2 37.242v4.138" stroke="#221F21" stroke-width="2" stroke-miterlimit="10" stroke-linejoin="round"/><path d="M80.315 31.727h8.936l2.368 3.562h9.151" stroke="#221F21" stroke-width="2" stroke-miterlimit="10" stroke-linecap="round" stroke-linejoin="round"/></svg>