<svg width="51" height="51" fill="none" xmlns="http://www.w3.org/2000/svg"><path d="M25.585.97c.476.336.95.673 1.358 1.01l3.46 3.432c.205.202.34.27.612.134 1.832-.47 3.596-.942 5.429-1.413 1.018-.27 1.832.202 2.104 1.212.475 1.75.95 3.567 1.493 5.317a.817.817 0 00.475.471c1.697.471 3.393.943 5.158 1.414 1.357.336 1.832 1.144 1.425 2.49-.475 1.683-.882 3.433-1.357 5.115-.068.27 0 .472.203.606 1.29 1.28 2.579 2.625 3.868 3.904.747.808.815 1.683 0 2.49-1.289 1.28-2.51 2.558-3.8 3.837-.271.27-.34.471-.204.875.475 1.75.95 3.5 1.358 5.25.271 1.01-.204 1.818-1.222 2.087-1.764.471-3.529 1.01-5.293 1.48-.34.068-.476.203-.543.54-.475 1.75-.95 3.5-1.493 5.25-.272 1.009-1.018 1.48-2.104 1.21-1.833-.47-3.597-.941-5.43-1.413-.27-.067-.474 0-.61.135-1.222 1.212-2.511 2.423-3.733 3.635-.34.336-.746.538-1.086.807h-.814a40.205 40.205 0 01-1.765-1.413l-3.054-3.029c-.203-.202-.339-.27-.61-.135-1.833.471-3.597.943-5.43 1.414-1.018.27-1.832-.202-2.103-1.212-.476-1.75-1.018-3.567-1.494-5.317-.067-.27-.203-.404-.475-.471-1.764-.471-3.529-.943-5.293-1.481-1.086-.27-1.561-1.01-1.29-2.087.476-1.817.95-3.567 1.426-5.317.068-.27.068-.471-.136-.673-1.29-1.279-2.511-2.558-3.8-3.837-.883-.942-.883-1.75 0-2.692a196.05 196.05 0 013.732-3.77c.272-.269.272-.47.204-.74-.475-1.75-.95-3.5-1.426-5.317-.271-1.01.204-1.818 1.222-2.087 1.561-.47 3.122-.875 4.683-1.279.814-.202 1.221-.538 1.425-1.413.34-1.548.814-3.096 1.29-4.644.27-.943 1.085-1.414 2.035-1.212l5.497 1.413c.272.068.476 0 .611-.134 1.29-1.279 2.58-2.49 3.869-3.77.271-.269.61-.47.95-.673h.678zm-.61 46.039h.339l3.461-3.635c.61-.606 1.29-.74 2.104-.538 1.629.47 3.257.875 4.886 1.279.068-.135.068-.337.136-.472.407-1.48.882-3.029 1.29-4.51.203-.74.61-1.144 1.357-1.346l1.425-.403a253.5 253.5 0 003.597-1.01c-.407-1.683-.882-3.298-1.29-4.914-.203-.807-.068-1.413.543-1.951.475-.404.815-.876 1.29-1.28.814-.74 1.629-1.48 2.51-2.355-1.357-1.28-2.51-2.423-3.732-3.5-.678-.606-.882-1.28-.61-2.154.474-1.616.882-3.231 1.289-4.846-.204-.068-.34-.068-.475-.135-1.493-.404-3.054-.808-4.547-1.279-.679-.202-1.154-.606-1.29-1.279-.135-.606-.339-1.211-.475-1.75-.271-1.077-.61-2.154-.882-3.23-1.697.47-3.325.874-4.954 1.278-.747.202-1.425.068-1.968-.538l-1.63-1.616c-.678-.673-1.356-1.279-2.103-2.086-1.221 1.211-2.375 2.423-3.529 3.634-.61.606-1.221.808-2.104.539-1.628-.471-3.257-.875-4.886-1.279-.068.135-.136.337-.136.471a115.336 115.336 0 01-1.29 4.577c-.203.673-.61 1.077-1.289 1.28-.475.134-.95.268-1.493.403-1.221.336-2.443.673-3.597 1.01.408 1.682.883 3.298 1.29 4.913.203.808.068 1.414-.543 1.952-.543.471-1.018 1.01-1.493 1.548a63.434 63.434 0 01-2.172 2.02c.204.269.34.336.475.47 1.018 1.01 2.036 2.087 3.054 3.097.747.673.882 1.48.61 2.423-.474 1.548-.813 3.096-1.22 4.644.135.068.27.068.407.135 1.56.404 3.053.875 4.614 1.279.747.202 1.154.606 1.358 1.346.068.202.136.471.203.673a363.95 363.95 0 011.222 4.308c1.629-.404 3.258-.808 4.886-1.28.815-.201 1.493-.134 2.036.54 1.018 1.144 2.172 2.355 3.326 3.567z" fill="#F47722"/><path d="M32.915 16.652c.61.068 1.154.404 1.425 1.01.272.606.136 1.279-.34 1.817-1.22 1.28-2.51 2.49-3.732 3.702-3.8 3.837-7.669 7.606-11.47 11.443-.474.471-1.017.74-1.696.538-.678-.202-1.018-.673-1.154-1.279-.135-.605.136-1.144.611-1.548 2.036-1.952 4.004-3.97 6.04-5.923 2.986-2.961 5.973-5.923 8.89-8.885.34-.47.747-.875 1.426-.875zm4.343 15.818c-.068 3.096-2.443 5.452-5.565 5.452-2.986 0-5.429-2.558-5.429-5.452 0-2.961 2.579-5.452 5.497-5.452 2.986 0 5.565 2.558 5.497 5.452zm-7.669 0c0 1.212.95 2.154 2.104 2.154 1.29 0 2.24-.942 2.24-2.221 0-1.212-.95-2.154-2.172-2.087-1.221 0-2.171.943-2.171 2.154zm-5.497-13.058c0 2.962-2.51 5.452-5.497 5.452-2.986 0-5.497-2.49-5.497-5.452 0-2.962 2.511-5.452 5.497-5.452 3.122.067 5.43 2.49 5.497 5.452zm-5.497 2.154c1.222 0 2.172-.942 2.172-2.154s-.95-2.154-2.172-2.154c-1.29 0-2.171.942-2.171 2.154s.95 2.154 2.171 2.154z" fill="#F47722"/></svg>