<svg width="48" height="66" fill="none" xmlns="http://www.w3.org/2000/svg"><path d="M3.258 29.97c.067-.336.203-.942.407-1.548.475-1.413.678-2.894.407-4.375-.204-.942-.61-1.817-1.154-2.625-.407-.673-.882-1.279-1.086-2.087-.271-1.144 0-2.288.34-3.365.34-1.01.95-1.75 1.968-2.221 3.122-1.481 4.886-3.971 5.768-7.27.272-1.01.611-1.884 1.494-2.49.95-.673 1.9-1.346 3.121-1.346.679 0 1.358.134 2.036.336 1.086.27 2.104.539 3.19.471a8.898 8.898 0 004.343-1.346c.679-.404 1.358-.807 2.172-1.01 2.308-.538 4.819.606 5.972 2.626.136.269.34.538.475.875 1.086 2.019 2.715 3.23 4.887 3.836.61.202 1.221.337 1.764.539 2.24.74 3.665 2.961 3.325 5.25-.135.942-.339 1.817-.474 2.76-.204 1.144-.136 2.22.067 3.365.136.942.543 1.75 1.086 2.558.068.134.204.269.272.404.95 1.211 1.153 2.625.814 4.105a10.53 10.53 0 01-.543 1.549c-.407.942-1.018 1.615-1.9 2.086l-.815.404c-2.24 1.077-3.596 2.827-4.14 5.25 0 .067-.067.202-.067.27-.272 1.817-1.29 3.096-2.85 4.038-.272.135-.544.336-.815.471-1.018.539-2.104.606-3.19.202-.746-.27-1.56-.538-2.375-.606-1.9-.202-3.665.202-5.158 1.48-.068.068-.135.068-.135.136-1.018 1.01-2.24 1.278-3.597.942-1.222-.27-2.376-.606-3.462-1.144-.746-.404-1.357-1.01-1.696-1.818-.068-.134-.136-.269-.136-.336-1.086-2.558-2.918-4.173-5.768-4.577-1.63-.202-2.715-1.01-3.53-2.423-.542-1.01-1.017-1.952-1.017-3.366zm19.816 7.875c8.687 0 15.745-7 15.745-15.615 0-8.616-7.058-15.616-15.745-15.616-8.686 0-15.812 7-15.812 15.616.068 8.548 7.126 15.615 15.812 15.615zM26.74 48.75l14.115-5.79c2.375 5.453 4.75 10.905 7.126 16.424a735.793 735.793 0 00-10.52-4.913c-1.085 3.702-2.239 7.404-3.325 11.038h-.067l-7.33-16.76zM13.845 65.644a989.759 989.759 0 01-3.326-11.174C7.06 56.087 3.597 57.702 0 59.385c2.375-5.317 4.75-10.5 7.126-15.75 4.072 3.298 8.822 4.913 14.048 5.452-2.51 5.52-4.886 11.038-7.33 16.558z" fill="#fff"/><path d="M23.074 8.633c7.534 0 13.71 6.125 13.71 13.597 0 7.47-6.176 13.596-13.777 13.596-7.534 0-13.641-6.125-13.641-13.596.067-7.54 6.175-13.597 13.708-13.597zm-1.9 20.664c3.936-3.904 7.805-7.74 11.74-11.645l-2.646-2.625-9.094 9.02-3.665-3.635c-.882.875-1.764 1.75-2.579 2.625a542.793 542.793 0 006.244 6.26z" fill="#fff"/></svg>