<svg width="172" height="163" viewBox="0 0 172 163" fill="none" xmlns="http://www.w3.org/2000/svg">
<g clip-path="url(#clip0_280_789)">
<path d="M166.966 163H144.846C144.846 155.91 145.129 149.104 144.704 142.297C144.562 139.745 143.144 136.98 141.514 134.994C138.819 131.662 138.89 129.11 141.655 125.919C143.215 124.147 144.491 121.594 144.704 119.254C145.2 114.433 145.697 109.399 144.562 104.791C143.57 100.749 141.159 96.2118 137.898 93.8721C134.566 91.3906 130.028 91.816 126.767 96.4954C124.569 99.5441 121.095 98.6224 118.613 95.5028C114.856 90.6816 111.594 91.7451 108.262 96.2118C95.7131 113.441 74.6562 113.37 62.0363 96.07C58.7749 91.6033 55.5845 90.8234 51.8269 95.5737C49.2036 98.9769 45.3042 99.3314 43.1063 95.9282C40.1286 91.3197 35.9456 91.9578 32.9678 93.6594C29.9901 95.361 26.8706 99.0478 26.3034 102.238C25.2399 108.548 23.8928 116.135 26.4452 121.311C29.8483 128.259 29.7065 132.513 26.5161 139.603C23.6801 145.913 25.9489 154.492 25.9489 162.716H3.68673C3.68673 155.981 4.04122 149.387 3.54493 142.793C3.33223 140.028 0.99258 137.547 0.425392 134.782C-0.141797 132.087 -0.141797 129.039 0.425392 126.344C0.99258 123.579 3.33223 121.027 3.61583 118.262C4.18302 112.519 3.61583 106.776 3.89942 100.962C4.8211 84.9386 17.6537 71.9639 33.6768 70.8295C37.4345 70.5459 41.3339 71.184 43.9571 66.859C44.5243 65.9373 50.2671 66.5045 51.8978 68.1352C56.2226 72.3893 58.704 71.5385 62.3199 67.3553C65.6521 63.4558 69.6224 59.6981 74.089 57.0748C79.9027 53.6007 82.7387 44.0291 77.9884 39.0661C69.5515 30.1326 60.7601 21.6246 52.0396 13.1165C51.047 12.1239 48.9909 12.2657 47.8565 11.344C45.6587 9.50062 43.7444 7.3736 41.6884 5.31749C44.028 3.61588 46.2968 0.496265 48.7073 0.354464C59.7675 -0.212739 70.8277 0.141763 81.8879 0.141763C95.0041 0.141763 108.191 0.141763 121.307 0.141763C125.065 0.141763 129.035 0.779866 128.326 5.38839C127.972 7.65721 124.711 9.57152 122.513 11.344C120.811 12.6911 118.33 13.1874 116.841 14.6763C109.184 21.9791 101.952 29.7781 94.2242 37.01C88.765 42.0439 91.601 48.1413 91.1756 53.8134C91.1756 54.3097 91.8846 55.0896 92.3809 55.2314C100.038 57.5002 105.426 62.3923 109.964 68.9151C110.815 70.1205 116.345 69.8369 117.833 68.3479C121.946 64.2357 124.782 63.9521 128.61 68.4897C129.815 69.9078 132.509 70.4041 134.566 70.5459C153.992 71.7512 166.824 85.1513 167.037 104.72C167.108 108.619 167.959 112.802 166.824 116.418C164.768 123.083 172.638 125.848 172 130.882C171.433 135.562 165.477 138.256 166.753 144.637C167.888 150.38 166.966 156.548 166.966 163ZM92.7354 65.1574C88.9777 62.7468 86.9217 60.4071 84.9365 60.478C83.2349 60.5489 80.1863 63.7394 80.4699 65.0865C80.8244 67.1426 83.3058 69.9078 85.2201 70.1914C86.9217 70.475 89.0486 67.7807 92.7354 65.1574ZM91.1047 22.3336C94.8623 18.6468 98.3363 15.2435 101.81 11.8403H91.1047V22.3336ZM66.5738 11.6985C71.4658 16.3071 75.0816 19.8521 79.4064 23.8934V11.6985H66.5738ZM76.5705 81.6772C72.8838 79.1957 70.615 76.6433 68.8425 76.856C66.9992 77.1396 64.6595 79.9756 64.1632 82.1026C63.8796 83.1661 67.141 86.2857 68.8425 86.2857C70.8277 86.2857 72.8838 84.0169 76.5705 81.6772ZM85.1492 105.358C87.7016 101.813 90.2539 99.6859 89.8994 98.2679C89.4031 96.2118 87.0635 93.7303 85.0074 93.234C83.8021 92.9504 80.5408 95.9991 80.399 97.7007C80.3281 99.615 82.7387 101.671 85.1492 105.358ZM108.971 81.5354C105.284 79.1248 103.228 76.7851 101.314 76.856C99.6125 76.9269 96.6348 80.2592 96.9184 81.5354C97.3438 83.5206 99.8961 85.8603 101.952 86.2857C103.37 86.5694 105.426 84.0169 108.971 81.5354Z" fill="#E3E7ED"/>
</g>
<defs>
<clipPath id="clip0_280_789">
<rect width="172" height="163" fill="white"/>
</clipPath>
</defs>
</svg>
