<svg width="185" height="184" viewBox="0 0 185 184" fill="none" xmlns="http://www.w3.org/2000/svg">
<g clip-path="url(#clip0_280_792)">
<path d="M40.9548 28.6379C40.9548 22.7855 40.7203 17.1671 41.033 11.6268C41.3456 4.36985 45.4098 0.234143 52.6004 0.156111C79.5649 4.6391e-05 106.451 4.6391e-05 133.416 0.156111C140.763 0.234143 144.67 4.52592 145.296 12.3291C145.53 14.9822 145.374 17.7134 145.374 20.3665C145.374 22.7855 145.374 25.1264 145.374 28.4038C154.049 28.4038 162.1 28.0916 170.072 28.5598C173.12 28.7159 176.012 30.7447 179.06 31.9933C177.888 34.8024 175.777 37.5335 175.621 40.3427C175.23 51.8915 173.823 63.8304 176.324 74.8329C177.419 79.5149 181.092 82.246 175.934 86.4598C174.605 87.5522 173.98 90.1273 173.902 92.0781C173.667 99.6472 173.511 107.216 173.98 114.785C174.136 117.204 176.168 119.545 177.184 121.964C178.044 124.071 179.842 126.802 179.138 128.363C178.278 130.314 175.308 132.499 173.276 132.499C150.532 132.811 127.71 132.811 104.966 132.499C102.934 132.499 100.042 130.08 99.2607 128.129C98.6354 126.646 100.589 123.993 101.605 121.886C101.84 121.34 103.403 121.106 103.403 120.716C103.403 109.323 103.325 97.9305 103.09 86.5378C103.09 86.1476 101.84 85.8355 101.293 85.3673C97.8539 82.246 98.1665 79.3588 101.136 75.9254C102.778 74.0526 104.263 71.3995 104.419 68.9805C104.888 62.4258 104.654 55.7931 104.575 49.1604C104.575 45.1807 105.591 40.967 100.589 38.548C99.417 38.0017 98.5573 33.866 99.417 32.8516C100.98 30.8228 103.794 28.872 106.295 28.7159C113.876 28.1697 121.458 28.4818 129.039 28.4818C130.211 28.4818 131.384 28.1697 132.869 27.9356V12.4072H53.3819V28.7939C64.5585 31.5251 75.1099 36.5191 80.6591 47.2095C84.2544 54.1544 86.9899 62.3478 87.1462 69.9949C87.537 89.1909 75.9696 101.91 52.913 109.713V131.953H41.1893V110.025C16.7258 101.052 5.39292 87.162 6.1745 67.8881C6.87793 48.7702 18.6798 35.1926 40.9548 28.6379ZM23.9945 72.3359C24.7761 72.2579 25.5577 72.1799 26.2611 72.1018C27.5116 74.5989 30.0127 77.33 29.7782 79.6709C29.153 84.8211 30.9506 86.7719 36.2653 86.1476C38.1411 85.9135 41.033 87.3961 42.2053 89.0348C45.0972 92.9364 48.458 92.9364 51.3498 89.1909C52.6785 87.5522 55.7267 86.2256 57.8369 86.3817C62.5264 86.8499 64.7149 84.587 64.0114 79.749C63.777 77.8762 65.4964 75.6133 66.5906 73.7405C67.4504 72.1799 69.5606 70.8533 69.6388 69.3707C69.6388 67.8881 67.763 66.4055 66.747 64.8448C65.5746 63.0501 63.9333 61.3334 63.3862 59.3826C62.6046 56.5734 62.6827 53.6082 62.292 49.1604C56.5083 53.062 52.913 55.0128 51.0372 48.5361C50.7246 47.3656 48.2235 46.1171 46.7385 46.1951C45.3317 46.1951 43.0651 47.5217 42.6743 48.7702C41.4238 52.7498 39.6261 53.6082 35.7182 51.8915C32.3574 50.4089 27.668 54.3885 29.3093 57.1196C33.2953 63.6743 28.3714 64.3766 24.0727 65.7032V72.3359H23.9945ZM127.554 74.5989C127.554 66.7176 128.023 59.6947 127.319 52.7498C127.085 50.4869 123.646 48.5361 121.614 46.4292C119.816 48.1459 116.612 49.7066 116.455 51.5013C115.908 59.1485 116.221 66.8737 116.221 74.5989H127.554ZM116.143 87.006C116.143 94.4971 115.752 101.754 116.377 109.011C116.534 111.04 119.816 114.317 121.692 114.317C123.568 114.317 127.007 111.196 127.163 109.167C127.867 101.988 127.398 94.6531 127.398 87.006H116.143Z" fill="#F2D4C0"/>
<path d="M46.9729 167.925V184H23.6819V167.301C18.6797 167.301 14.1466 167.145 9.61342 167.301C3.1263 167.535 -1.64434e-05 164.648 0.234458 158.171C0.312616 155.518 -0.547122 152.397 0.54709 150.212C1.87578 147.637 4.61131 145.608 7.11236 143.969C8.28473 143.189 10.4732 143.813 12.1926 143.813C66.278 143.813 120.363 143.735 174.37 143.969C177.809 143.969 183.906 145.53 184.297 147.403C185.469 152.865 184.844 158.874 183.906 164.57C183.671 165.819 179.451 166.989 176.95 167.223C172.417 167.613 167.805 167.379 162.569 167.379V183.922H139.121V168.081H46.9729V167.925Z" fill="#F2D4C0"/>
<path d="M46.7385 78.3443C40.9548 77.9541 37.6722 74.9109 37.6722 69.0585C37.6722 63.2061 41.1111 59.8507 46.8948 59.9287C52.6004 60.0067 56.0393 63.2841 56.0393 69.2145C55.9611 75.0669 52.6004 77.9541 46.7385 78.3443Z" fill="#F2D4C0"/>
</g>
<defs>
<clipPath id="clip0_280_792">
<rect width="185" height="184" fill="white"/>
</clipPath>
</defs>
</svg>
