<svg width="100" height="100" viewBox="0 0 100 100" fill="none" xmlns="http://www.w3.org/2000/svg">
<g clip-path="url(#clip0_280_797)">
<path d="M99.9 53.1C97.9 53.5 95.9 53.9 93.9 54.3C92.6 54.6 91.3 54.9 89.9 55.2C89.7 55.2 89.5 55.4 89.5 55.6C89 58.8 88.2 61.9 87 64.8C86.9 65.1 86.9 65.2 87.2 65.4C89.6 67.5 92 69.7 94.4 71.9C94.6 72.1 94.6 72.3 94.5 72.6C93.6 74.2 92.7 75.7 91.8 77.3C91.6 77.6 91.5 77.6 91.2 77.5C88.1 76.5 85 75.5 82 74.5C81.7 74.4 81.6 74.5 81.4 74.7C79.4 77.2 77.2 79.5 74.7 81.4C74.5 81.6 74.5 81.7 74.5 82C75.5 85.1 76.5 88.2 77.5 91.2C77.5 91.3 77.4 91.6 77.3 91.7C75.7 92.6 74.1 93.5 72.5 94.5C72.2 94.7 72 94.6 71.8 94.4C69.7 92 67.5 89.6 65.4 87.3C65.2 87.1 65 87 64.8 87.1C61.8 88.3 58.7 89.1 55.6 89.6C55.5 89.6 55.3 89.8 55.2 90C54.5 93.1 53.9 96.2 53.2 99.3C53.1 99.7 53 99.9 52.5 99.9C50.8 99.9 49 99.9 47.3 99.9C47 99.9 46.8 99.8 46.7 99.5C46 96.3 45.4 93.2 44.7 90C44.7 89.9 44.5 89.7 44.3 89.6C41.1 89.1 38 88.3 35 87.1C34.9 87 34.6 87.1 34.5 87.2C32.3 89.6 30.2 92 28 94.4C27.8 94.6 27.6 94.6 27.4 94.5C25.8 93.6 24.2 92.7 22.6 91.8C22.3 91.6 22.3 91.5 22.4 91.2C23.4 88.1 24.4 85 25.4 82C25.4 81.8 25.4 81.6 25.3 81.5C22.8 79.5 20.5 77.2 18.5 74.7C18.4 74.6 18.1 74.5 18 74.6C14.9 75.6 11.8 76.6 8.7 77.6C8.6 77.6 8.3 77.6 8.2 77.4C7.2 75.7 6.2 74 5.2 72.2C6.8 70.7 8.4 69.3 10 67.9C10.9 67.1 11.9 66.3 12.8 65.4C12.9 65.3 12.9 65 12.9 64.9C11.8 62.1 11 59.3 10.5 56.4C10.4 56.1 10.4 55.7 10.3 55.4C7.1 54.7 3.9 54 0.7 53.3C0.1 53.1 0 52.9 0 52.4C0 50.7 0 49 0 47.3C0 47 0.1 46.8 0.5 46.7C3.6 46.1 6.6 45.4 9.7 44.8C9.9 44.8 10.1 44.7 10.3 44.7C10.5 43.7 10.6 42.7 10.9 41.7C11.5 39.5 12.2 37.3 12.9 35.2C13 34.9 13 34.7 12.7 34.5C10.2 32.3 7.8 30.1 5.3 27.8C5.9 26.7 6.5 25.6 7.2 24.6C7.6 24 7.9 23.4 8.2 22.8C8.3 22.5 8.5 22.4 8.8 22.5C11.9 23.5 14.9 24.5 18 25.5C18.3 25.6 18.4 25.6 18.6 25.4C20.6 22.9 22.9 20.6 25.4 18.6C25.5 18.5 25.6 18.2 25.5 18.1C24.5 15 23.5 12 22.5 8.89997C22.4 8.59997 22.4 8.39997 22.7 8.19998C24.3 7.29997 25.9 6.39998 27.4 5.49998C27.7 5.29998 27.8 5.39998 28 5.59998C30.2 7.99998 32.3 10.4 34.5 12.8C34.6 12.9 34.9 13 35 12.9C38 11.7 41.1 10.9 44.3 10.4C44.5 10.4 44.7 10.2 44.7 10.1C45.4 6.79998 46.1 3.49998 46.8 0.199976V0.0999756H53.1C53.1 0.199976 53.1 0.299976 53.1 0.399976C53.8 3.59998 54.5 6.79998 55.2 10.1C55.2 10.2 55.5 10.4 55.6 10.4C58.8 10.9 61.9 11.7 64.9 12.9C65 13 65.3 12.9 65.4 12.8C67.6 10.4 69.7 7.99998 71.9 5.59998C72.1 5.29998 72.3 5.29998 72.6 5.49998C74.1 6.39998 75.7 7.29997 77.3 8.19998C77.6 8.39997 77.7 8.49998 77.6 8.79998C76.6 11.9 75.6 15 74.6 18C74.5 18.3 74.6 18.4 74.8 18.6C77.3 20.6 79.5 22.8 81.5 25.3C81.7 25.5 81.8 25.6 82.1 25.5C85.2 24.5 88.2 23.5 91.3 22.5C91.6 22.4 91.7 22.4 91.9 22.7C92.8 24.3 93.7 25.9 94.6 27.5C94.8 27.8 94.7 27.9 94.5 28.1C92.1 30.2 89.8 32.3 87.4 34.4C87.1 34.7 87 34.9 87.2 35.3C88.4 38.2 89.1 41.2 89.6 44.2C89.6 44.5 89.7 44.7 90.1 44.8C90.5 44.8 90.9 45 91.3 45C94.2 45.6 97 46.2 99.9 46.8V53.1ZM49.4 84.8C68.8 85 84.4 69.7 84.8 50.7C85.2 31.3 69.7 15.5 50.6 15.2C31.2 14.8 15.4 30.3 15.1 49.4C14.8 68.6 30.1 84.4 49.4 84.8Z" fill="#545454"/>
<path d="M47.7 41.9999C51.6 41.7999 54 45.3999 52.7 48.8999C53.5 48.8999 54.2 48.8999 55 48.8999C55.1 48.8999 55.2 48.5999 55.2 48.3999C55.2 47.2999 55 46.0999 55.3 44.9999C55.7 42.8999 55.6 40.8999 55.7 38.7999C55.9 33.6999 56 28.5999 56.1 23.4999C56.1 22.7999 56.1 22.7999 56.8 22.7999C57.8 22.7999 57.8 22.7999 57.8 23.7999C58 29.7999 58.2 35.8999 58.4 41.8999C58.4 42.6999 58.5 43.4999 58.5 44.1999C58.5 44.5999 58.6 44.6999 59 44.6999C59.4 44.6999 59.8 44.6999 60.2 44.6999C60.7 44.6999 60.8 44.5999 60.8 44.0999C60.8 40.9999 60.8 37.7999 60.8 34.6999C60.8 33.0999 60.8 31.4999 60.8 29.8999C60.8 29.3999 60.9 29.2999 61.4 29.2999C62.4 29.2999 63.5 29.2999 64.6 29.2999C64.6 29.8999 64.6 30.3999 64.6 30.8999C64.6 31.2999 64.7 31.4999 65.1 31.4999C65.4 31.4999 65.7 31.2999 65.9 31.6999C65.6 31.7999 65.4 31.8999 65.1 31.8999C64.6 31.8999 64.5 32.0999 64.6 32.4999C64.6 32.5999 64.6 32.6999 64.6 32.7999C64.5 33.2999 64.8 33.4999 65.3 33.3999C65.5 33.3999 65.7 33.4999 66 33.5999C65.8 33.6999 65.5 33.7999 65.3 33.7999C64.8 33.7999 64.6 33.9999 64.7 34.4999C64.7 34.5999 64.7 34.7999 64.7 34.8999C64.6 35.2999 64.9 35.3999 65.3 35.3999C65.6 35.3999 65.8 35.4999 66.1 35.5999C65.8 35.6999 65.6 35.7999 65.3 35.7999C64.9 35.7999 64.7 35.9999 64.8 36.3999C64.8 36.4999 64.8 36.4999 64.8 36.5999C64.8 37.3999 64.8 37.3999 65.6 37.3999C65.7 37.3999 65.8 37.3999 65.9 37.3999C66 37.3999 66.1 37.4999 66.1 37.5999C66.1 37.6999 66 37.7999 65.9 37.7999C65.8 37.7999 65.8 37.7999 65.7 37.7999C65.4 37.7999 64.9 37.7999 64.9 37.8999C64.8 38.2999 64.8 38.6999 64.8 39.0999C64.8 39.1999 65.1 39.2999 65.3 39.2999C65.6 39.3999 65.8 39.3999 66.1 39.4999C65.8 39.5999 65.6 39.6999 65.3 39.6999C64.9 39.6999 64.7 39.7999 64.7 40.2999C64.7 40.4999 64.7 40.5999 64.7 40.7999C64.7 41.1999 64.8 41.2999 65.2 41.2999C65.4 41.2999 65.6 41.2999 65.8 41.2999C65.9 41.2999 66 41.3999 66 41.4999C66 41.5999 65.9 41.6999 65.8 41.6999C65.7 41.6999 65.7 41.6999 65.6 41.6999C65.3 41.6999 64.8 41.6999 64.8 41.7999C64.7 42.1999 64.7 42.5999 64.8 42.9999C64.8 43.0999 65.1 43.1999 65.3 43.1999C65.5 43.2999 65.8 43.3999 66.1 43.3999C65.8 43.4999 65.6 43.5999 65.3 43.5999C64.9 43.5999 64.7 43.6999 64.7 44.1999C64.7 44.2999 64.7 44.4999 64.7 44.5999C64.6 45.0999 64.8 45.1999 65.3 45.1999C65.5 45.1999 65.8 45.2999 66.1 45.3999C65.9 45.4999 65.6 45.5999 65.4 45.5999C64.9 45.5999 64.7 45.6999 64.8 46.1999C64.8 46.2999 64.8 46.4999 64.8 46.5999C64.8 46.9999 64.9 47.0999 65.3 47.0999C65.5 47.0999 65.7 47.0999 65.9 47.0999C66 47.0999 66.1 47.2999 66.2 47.2999C66.1 47.3999 66 47.4999 65.9 47.4999C65.6 47.4999 65.2 47.4999 65 47.4999C64.9 47.5999 64.9 47.5999 64.9 47.6999C64.9 48.0999 64.8 48.6999 65 48.8999C65.2 49.0999 65.8 48.9999 66.4 49.0999C66.2 49.2999 66.1 49.4999 66 49.4999C65.3 49.3999 65 49.7999 64.5 50.1999C61.4 53.1999 58.3 56.0999 55.2 59.0999C54.9 59.3999 54.5 59.6999 54.2 59.9999C53.2 61.0999 52.1 61.8999 50.7 62.4999C50.5 62.5999 50.3 62.7999 50 62.9999C50.2 63.1999 50.3 63.3999 50.5 63.4999C52.3 65.1999 54 66.8999 55.8 68.6999C56.4 69.2999 56.9 69.9999 57.4 70.7999C58.3 72.2999 57.7 73.4999 56 73.8999C55.5 73.9999 54.9 74.0999 54.4 74.0999C52.1 74.0999 49.8 74.0999 47.6 74.0999H47C47.6 76.2999 50.7 79.5999 55 79.6999C59.2 79.7999 63.1 76.8999 64.2 72.7999C65.3 68.8999 63.4 63.4999 58 61.6999C58.1 61.4999 58.2 61.3999 58.3 61.1999C60.4 58.1999 62.4 55.1999 64.5 52.1999C64.7 51.8999 65 51.7999 65.3 51.7999C66.1 51.7999 66.9 51.7999 67.7 51.7999C68.2 51.7999 68.3 51.5999 68.3 51.1999C68.3 48.3999 68.3 45.5999 68.3 42.7999C68.3 42.2999 68.4 42.0999 68.9 42.0999C69.7 42.0999 70.5 42.0999 71.3 42.0999C71.7 42.0999 71.9 42.1999 71.8 42.5999C71.8 43.7999 71.8 44.9999 71.8 46.2999C71.8 46.8999 72 46.9999 72.5 46.9999C74.5 46.9999 76.5 46.9999 78.5 46.9999C79.4 46.9999 79.3 46.8999 79.4 47.7999C79.5 50.8999 79.5 53.8999 79.7 56.9999C79.8 58.0999 79.5 58.6999 78.7 59.3999C74.3 63.1999 69.9 67.0999 65.5 70.8999C65.1 71.2999 64.8 71.6999 64.7 72.1999C64 75.8999 60.9 79.0999 57.3 79.7999C53.3 80.5999 49.4 78.8999 47.3 75.5999C47.2 75.3999 47 75.1999 46.9 74.9999C46.7 74.0999 46 73.9999 45.2 73.9999C41.2 73.9999 37.2 73.9999 33.2 73.9999C32.3 73.9999 31.4 73.7999 30.6 73.6999C29.6 73.4999 29.1 72.6999 29.3 71.6999C29.5 70.5999 30.2 69.6999 31 68.8999C32 67.8999 33 66.8999 34 65.8999C34.2 65.6999 34.4 65.5999 34.6 65.4999C34.3 65.2999 34.1 65.0999 33.9 64.9999C30.9 62.8999 27.9 60.7999 24.9 58.7999C24.6 58.5999 24.4 58.2999 24.4 57.8999C24.4 55.7999 24.4 53.7999 24.4 51.6999V51.1999C24.7 51.1999 24.9 51.1999 25.1 51.1999C27 51.1999 28.8 51.1999 30.7 51.1999C31.1 51.1999 31.3 51.0999 31.3 50.5999C31.3 50.5999 31.3 50.5999 31.3 50.4999C31.6 48.7999 31.1 47.3999 29.7 46.3999C29.3 46.0999 28.9 45.5999 28.6 45.1999C28.2 44.6999 27.8 44.2999 27.1 44.1999C26.3 44.0999 25.8 43.1999 25.8 42.3999C25.8 41.5999 26.3 40.8999 27.1 40.5999C27.9 40.2999 28.7 40.5999 29.2 41.2999C29.7 41.9999 29.7 42.8999 29.2 43.5999C29 43.7999 28.9 43.9999 28.6 44.1999C29.4 45.0999 30.3 45.9999 31.2 46.9999C31.3 46.6999 31.3 46.5999 31.4 46.3999H35C35 46.8999 35 47.3999 35 47.8999C35 48.7999 35 49.7999 35 50.6999C35 51.0999 35.1 51.1999 35.5 51.1999C35.9 51.1999 36.4 51.1999 36.8 51.1999C37.3 51.1999 37.3 50.9999 37.3 50.5999C37.3 47.2999 37.3 43.9999 37.3 40.6999V39.9999C37.9 39.9999 38.4 39.9999 38.9 39.9999C39.3 39.9999 39.4 39.8999 39.4 39.4999C39.4 37.0999 39.4 34.7999 39.4 32.3999C39.4 32.2999 39.4 32.0999 39.4 31.9999C39.4 31.8999 39.5 31.7999 39.6 31.7999C39.6 31.7999 39.8 31.8999 39.8 31.9999C39.8 32.1999 39.8 32.2999 39.8 32.4999C39.8 34.7999 39.8 37.0999 39.8 39.3999C39.8 39.9999 39.9 40.1999 40.5 40.0999C40.7 40.0999 41 40.0999 41.3 40.0999C41.2 40.7999 41.7 40.7999 42.1 40.8999C41.3 41.1999 41.3 41.1999 41.3 41.9999C41.3 42.1999 41.3 42.2999 41.3 42.4999C41.3 42.9999 41.1 43.6999 42.2 43.6999C41.1 43.6999 41.4 44.3999 41.3 44.9999V45.0999C41.4 45.5999 40.9 46.4999 42.2 46.3999C41 46.3999 41.3 47.1999 41.3 47.7999C41.3 51.4999 41.3 55.1999 41.3 58.9999C41.3 59.3999 41.2 59.6999 40.9 59.9999C37.7 63.0999 34.5 66.1999 31.4 69.3999C30.8 69.9999 30.2 70.7999 29.8 71.5999C29.2 72.6999 29.7 73.4999 30.9 73.7999C31.4 73.8999 32 73.9999 32.5 73.9999C36.8 73.9999 41.1 73.9999 45.4 73.9999C45.6 73.9999 45.8 73.9999 46 73.9999C44.8 69.7999 45.9 66.1999 49.1 63.2999C49 63.0999 48.8 62.9999 48.7 62.8999C47.7 61.8999 46.8 60.9999 45.8 60.0999C45.5 59.7999 45.3 59.4999 45.3 58.9999C45.3 55.8999 45.3 52.7999 45.3 49.6999C45.3 49.1999 45.1 48.9999 44.6 49.0999C44 49.1999 43.7 48.9999 43.6 48.2999C43.2 46.3999 43.7 44.7999 45.1 43.4999C45.4 43.1999 45.5 42.9999 45.5 42.5999C45.5 36.2999 45.5 29.9999 45.5 23.7999C45.5 22.9999 45.5 22.9999 46.3 22.9999C47.6 22.9999 47.6 22.9999 47.6 24.2999C47.6 24.9999 47.6 25.7999 47.6 26.4999C47.6 26.7999 47.7 26.9999 48 27.0999C49.4 27.5999 49.4 27.5999 49.4 29.0999C49.4 30.9999 49.4 32.7999 49.5 34.6999C49.5 35.1999 49.4 35.4999 49.1 35.8999C48.7 36.4999 48.2 37.0999 47.9 37.6999C47.7 37.9999 47.6 38.3999 47.6 38.7999C47.7 39.6999 47.7 40.7999 47.7 41.9999ZM49.4 63.3999C49.3 63.3999 49.3 63.4999 49.2 63.4999C46.4 65.5999 45 70.0999 46.2 73.3999C46.3 73.6999 46.5 73.7999 46.8 73.7999C49.5 73.7999 52.2 73.7999 54.9 73.7999C55.3 73.7999 55.8 73.6999 56.2 73.4999C56.8 73.1999 57.1 72.5999 56.9 71.9999C56.7 71.4999 56.5 70.9999 56.2 70.5999C55.5 69.7999 54.8 68.9999 54 68.1999C52.5 66.3999 51 64.8999 49.4 63.3999Z" fill="#545454"/>
</g>
<defs>
<clipPath id="clip0_280_797">
<rect width="99.9" height="99.9" fill="white"/>
</clipPath>
</defs>
</svg>
