<svg width="48" height="38" viewBox="0 0 48 38" fill="none" xmlns="http://www.w3.org/2000/svg">
<path d="M6.60463 18.7013L0 11.2474L7.67205 0H39.7612L47.5 10.2491L41.8961 17.1706L41.2289 16.6381L46.4993 10.1825L39.3609 0.798631H8.07233L1.0007 11.1808L7.20505 18.1689L6.60463 18.7013Z" fill="#201600"/>
<path d="M23.75 37.1363L10.6741 23.2933L11.2746 22.6943L23.75 35.9383L35.6917 22.9605L36.2921 23.493L23.75 37.1363Z" fill="#201600"/>
<path d="M26.8188 20.6979C26.6854 20.6979 26.4852 20.6979 26.3518 20.6313C26.2851 20.0989 26.2851 17.8361 26.2851 15.8395C26.4852 15.773 26.6854 15.7064 26.8855 15.7064C27.6861 15.7064 28.1531 16.7047 28.1531 17.9692C28.2198 19.4999 27.6193 20.6979 26.8188 20.6979ZM27.6861 15.1074C27.1524 15.1074 26.7521 15.2405 26.3518 15.4402C26.3518 14.1757 26.3518 13.1109 26.4185 12.7115L23.8834 13.1774V13.3771L24.1502 13.4436C24.4838 13.5102 24.6172 13.7098 24.684 14.1757C24.7507 15.1074 24.7507 20.0323 24.684 20.831C25.3511 20.9641 26.0849 21.0972 26.8188 21.0972C28.8202 21.0972 30.021 19.8327 30.021 17.8361C29.9543 16.2388 29.0203 15.1074 27.6861 15.1074Z" fill="#201600"/>
<path d="M14.3434 12.8447H7.67203V13.1775L8.07231 13.244C8.5393 13.3106 8.73944 13.6434 8.80616 14.3754C8.93958 15.773 8.87287 18.302 8.80616 19.5C8.73944 20.2321 8.5393 20.5648 8.07231 20.6314H7.67203V20.9641H11.9417V20.6314L11.4747 20.5648C11.0077 20.4983 10.8076 20.1655 10.7408 19.4334C10.6741 18.901 10.6741 18.1024 10.6741 17.1041L11.6081 17.1706C12.2085 17.1706 12.4087 17.6365 12.5421 18.302H12.8757V15.5734H12.5421C12.4087 16.2389 12.1418 16.7048 11.6081 16.7048H10.6741C10.6741 15.3737 10.7408 14.1758 10.7408 13.4437H12.0751C13.0758 13.4437 13.6095 14.1092 14.0098 15.2406L14.4101 15.1075L14.3434 12.8447Z" fill="#201600"/>
<path d="M16.3448 15.3737C15.5443 15.3737 15.2774 16.5051 15.2774 18.0358C15.2774 19.4999 15.6777 20.6979 16.4115 20.6979C17.2788 20.6979 17.4789 19.5665 17.4789 18.0358C17.5457 16.5716 17.1454 15.3737 16.3448 15.3737ZM16.4782 14.9744C18.3462 14.9744 19.3469 16.3054 19.3469 18.0358C19.3469 19.6996 18.2795 21.0972 16.4115 21.0972C14.5435 21.0972 13.5428 19.7662 13.5428 18.0358C13.5428 16.372 14.5435 14.9744 16.4782 14.9744Z" fill="#201600"/>
<path d="M32.2226 17.3702L34.0239 17.3037C34.0239 16.5051 33.8905 15.3737 33.29 15.3737C32.5562 15.3737 32.2226 16.5051 32.2226 17.3702ZM30.4881 18.1023C30.4881 16.5051 31.4888 15.0409 33.4235 15.0409C35.0246 15.0409 35.7584 16.2388 35.7584 17.8361H32.2226C32.1559 19.2337 32.8897 20.2985 34.224 20.2985C34.8244 20.2985 35.158 20.1654 35.4916 19.8992L35.625 20.0989C35.2247 20.6313 34.4242 21.1637 33.3567 21.1637C31.6889 21.0972 30.4881 19.8992 30.4881 18.1023Z" fill="#201600"/>
<path d="M40.2282 15.3071C39.7612 15.1075 39.1608 14.9744 38.4937 14.9744C37.0927 14.9744 36.2254 15.8395 36.2254 16.8378C36.2254 17.8361 36.8925 18.2354 37.7598 18.5682C38.6938 18.901 38.9607 19.1672 38.9607 19.633C38.9607 20.0989 38.6271 20.4982 38.0267 20.4982C37.2928 20.4982 36.7591 20.0989 36.3588 18.901L36.092 18.9675L36.1587 20.6979C36.6257 20.8975 37.4262 21.0307 38.1601 21.0307C39.6278 21.0307 40.5618 20.232 40.5618 19.0341C40.5618 18.2354 40.1615 17.7696 39.1608 17.3703C38.0934 16.9709 37.6931 16.7047 37.6931 16.1723C37.6931 15.6399 38.0267 15.3071 38.4937 15.3071C39.1608 15.3071 39.6278 15.7064 39.9614 16.7713L40.2282 16.7047V15.3071Z" fill="#201600"/>
<path d="M24.217 15.174C23.5498 14.7747 22.4157 14.9743 21.8153 16.3719L21.882 15.0409L19.3469 15.5067V15.7064L19.6138 15.773C19.9473 15.8395 20.0807 15.9726 20.1475 16.505C20.2142 17.4368 20.2142 19.034 20.1475 19.8327C20.0807 20.2985 19.9473 20.4982 19.6138 20.5647L19.3469 20.6313V20.9641H22.8827V20.6313H22.4157C22.0154 20.5647 21.9487 20.3651 21.882 19.8992C21.8153 19.1671 21.8153 17.703 21.8153 16.7713C22.0154 16.505 22.816 16.2388 23.6166 16.7713L24.217 15.174Z" fill="#201600"/>
<path d="M8.73947 7.78664C8.8729 7.72009 9.07304 7.72009 9.20646 7.72009C9.54003 7.72009 9.74017 7.78665 9.94031 7.9863C10.2072 8.18596 10.3406 8.58528 10.3406 9.2508C10.3406 9.98288 10.1405 10.3822 9.94031 10.5819C9.74017 10.7815 9.4066 10.9146 9.07304 10.9146C8.93961 10.9146 8.80618 10.9146 8.67276 10.9146V7.78664H8.73947ZM9.07304 10.5819C9.13975 10.5819 9.20646 10.5819 9.20646 10.5819C9.60674 10.5819 10.007 10.3156 10.007 9.2508C10.007 8.45217 9.74017 8.05286 9.27318 8.05286C9.20646 8.05286 9.13975 8.05286 9.07304 8.05286V10.5819Z" fill="#201600"/>
<path d="M10.941 8.31904C10.8076 8.31904 10.7409 8.25249 10.7409 8.05283C10.7409 7.85317 10.8076 7.78662 10.941 7.78662C11.0744 7.78662 11.1412 7.85317 11.1412 8.05283C11.1412 8.25249 11.0744 8.31904 10.941 8.31904ZM10.7409 8.65181H11.0744V10.9146H10.7409V8.65181Z" fill="#201600"/>
<path d="M12.7423 10.3822C12.7423 10.5819 12.7423 10.7816 12.7423 10.9147H12.4087V10.6485C12.342 10.8481 12.1418 10.9147 11.9417 10.9147C11.6081 10.9147 11.408 10.6485 11.408 10.2491C11.408 9.65017 11.875 9.45051 12.342 9.45051V9.38396C12.342 9.0512 12.2753 8.85154 12.0084 8.85154C11.875 8.85154 11.7416 8.91809 11.6081 8.98464L11.5414 8.71843C11.6081 8.65188 11.875 8.58533 12.0751 8.58533C12.5421 8.58533 12.7423 8.85154 12.7423 9.38396V10.3822ZM12.4087 9.71672C12.2086 9.71672 11.8083 9.78327 11.8083 10.2491C11.8083 10.5154 11.9417 10.6485 12.0751 10.6485C12.2086 10.6485 12.342 10.5154 12.4087 10.3157C12.4087 10.2491 12.4087 10.2491 12.4087 10.1826V9.71672Z" fill="#201600"/>
<path d="M13.2093 9.25085C13.2093 8.98464 13.2093 8.85154 13.2093 8.65188H13.5428V8.91809C13.6096 8.71843 13.8097 8.58533 14.0766 8.58533C14.2767 8.58533 14.4768 8.65188 14.5436 8.91809C14.6103 8.78498 14.677 8.71843 14.7437 8.65188C14.8104 8.58533 14.9438 8.58533 15.0773 8.58533C15.4108 8.58533 15.611 8.78499 15.611 9.38396V10.8481H15.2774V9.45051C15.2774 9.1843 15.2107 8.85154 14.9438 8.85154C14.8104 8.85154 14.677 8.98464 14.6103 9.1843C14.6103 9.25085 14.6103 9.31741 14.6103 9.38396V10.8481H14.2767V9.38396C14.2767 9.11775 14.21 8.85154 13.9431 8.85154C13.8097 8.85154 13.6763 8.98464 13.6096 9.25085C13.6096 9.31741 13.6096 9.38396 13.6096 9.45051V10.9147H13.276V9.25085H13.2093Z" fill="#201600"/>
<path d="M16.3448 9.78325C16.3448 10.4488 16.6117 10.6484 16.8785 10.6484C17.0119 10.6484 17.1454 10.5819 17.2788 10.5819L17.3455 10.8481C17.2121 10.9146 17.0119 10.9812 16.8785 10.9812C16.3448 10.9812 16.0779 10.5153 16.0779 9.8498C16.0779 9.11772 16.4115 8.65186 16.8118 8.65186C17.2788 8.65186 17.4789 9.11772 17.4789 9.65014C17.4789 9.7167 17.4789 9.78325 17.4789 9.8498H16.3448V9.78325ZM17.0786 9.51704C17.0786 9.05117 16.9452 8.85151 16.7451 8.85151C16.5449 8.85151 16.4115 9.18428 16.3448 9.51704H17.0786Z" fill="#201600"/>
<path d="M17.7458 9.25085C17.7458 8.98464 17.7458 8.85154 17.7458 8.65188H18.0793V8.91809C18.1461 8.71843 18.3462 8.58533 18.613 8.58533C18.9466 8.58533 19.1468 8.78499 19.1468 9.38396V10.9147H18.8132V9.45051C18.8132 9.1843 18.7465 8.91809 18.4796 8.91809C18.3462 8.91809 18.2128 9.0512 18.1461 9.31741C18.1461 9.38396 18.1461 9.45051 18.1461 9.51706V10.9147H17.8125V9.25085H17.7458Z" fill="#201600"/>
<path d="M20.0808 8.11951V8.65193H20.481V8.91814H20.0808V10.2492C20.0808 10.5154 20.2142 10.6485 20.2809 10.6485C20.3476 10.6485 20.4143 10.6485 20.4143 10.6485V10.9147C20.3476 10.9147 20.2809 10.9813 20.1475 10.9813C20.014 10.9813 19.8806 10.9147 19.8139 10.8482C19.7472 10.7151 19.6805 10.582 19.6805 10.2492V8.91814H19.4136V8.65193H19.6805V8.25261L20.0808 8.11951Z" fill="#201600"/>
<path d="M24.0836 9.51699C24.0836 9.11767 24.0168 8.65181 24.0836 8.31904C24.0168 8.65181 23.9501 9.05112 23.8167 9.38388L23.4164 10.848H23.1496L22.816 9.45044C22.6826 9.05112 22.6159 8.65181 22.5491 8.31904C22.5491 8.71836 22.5491 9.11767 22.4824 9.58354L22.4157 10.9146H22.0821L22.2823 7.78662H22.6826L23.0161 9.25078C23.1496 9.65009 23.2163 9.98286 23.283 10.3156C23.3497 9.98286 23.4164 9.65009 23.4831 9.25078L23.8167 7.78662H24.217L24.4171 10.9146H24.0836V9.51699Z" fill="#201600"/>
<path d="M25.0843 8.31904C24.9508 8.31904 24.8841 8.25249 24.8841 8.05283C24.8841 7.85317 24.9508 7.78662 25.0843 7.78662C25.2177 7.78662 25.2844 7.85317 25.2844 8.05283C25.2844 8.25249 25.2177 8.31904 25.0843 8.31904ZM24.9508 8.65181H25.2844V10.9146H24.9508V8.65181Z" fill="#201600"/>
<path d="M26.0183 9.78325C26.0183 10.4488 26.2851 10.6484 26.552 10.6484C26.6854 10.6484 26.8188 10.5819 26.9522 10.5819L27.019 10.8481C26.8855 10.9146 26.6854 10.9812 26.552 10.9812C26.0183 10.9812 25.7514 10.5153 25.7514 9.8498C25.7514 9.11772 26.085 8.65186 26.4852 8.65186C26.9522 8.65186 27.1524 9.11772 27.1524 9.65014C27.1524 9.7167 27.1524 9.78325 27.1524 9.8498H26.0183V9.78325ZM26.7521 9.51704C26.7521 9.05117 26.6187 8.85151 26.4185 8.85151C26.1517 8.85151 26.085 9.18428 26.0183 9.51704H26.7521Z" fill="#201600"/>
<path d="M27.4192 10.5154C27.4859 10.5819 27.6194 10.6485 27.7528 10.6485C27.9529 10.6485 28.0864 10.5154 28.0864 10.3157C28.0864 10.116 28.0197 10.0495 27.8195 9.84983C27.5527 9.65017 27.3525 9.45051 27.3525 9.1843C27.3525 8.78499 27.6194 8.58533 27.9529 8.58533C28.1531 8.58533 28.2865 8.65188 28.3532 8.71843L28.2865 8.98464C28.2198 8.91809 28.0864 8.85154 27.9529 8.85154C27.7528 8.85154 27.6861 8.98464 27.6861 9.11775C27.6861 9.25085 27.7528 9.38396 27.9529 9.51706C28.2198 9.71672 28.4199 9.91638 28.4199 10.1826C28.4199 10.6485 28.0864 10.8481 27.7528 10.8481C27.6194 10.8481 27.4192 10.7816 27.2858 10.715L27.4192 10.5154Z" fill="#201600"/>
<path d="M28.9537 8.31904C28.8202 8.31904 28.7535 8.25249 28.7535 8.05283C28.7535 7.85317 28.8202 7.78662 28.9537 7.78662C29.0871 7.78662 29.1538 7.85317 29.1538 8.05283C29.1538 8.25249 29.0871 8.31904 28.9537 8.31904ZM28.7535 8.65181H29.0871V10.9146H28.7535V8.65181Z" fill="#201600"/>
<path d="M30.6882 11.7133C30.5548 11.7798 30.4213 11.8464 30.3546 11.8464C30.1545 11.8464 29.9543 11.7133 29.9543 11.5136C29.9543 11.314 30.1545 11.0477 30.2879 10.9812C29.7542 10.9812 29.4873 10.5153 29.4873 9.8498C29.4873 9.11772 29.8209 8.65186 30.2212 8.65186C30.6882 8.65186 30.8883 9.11772 30.8883 9.65014C30.8883 9.7167 30.8883 9.78325 30.8883 9.8498H29.8209C29.8209 10.5153 30.0878 10.715 30.3546 10.715C30.488 10.715 30.6215 10.6484 30.7549 10.6484L30.8216 10.9146C30.7549 10.9146 30.7549 10.9812 30.6882 10.9812C30.488 11.1143 30.2212 11.314 30.2212 11.5136C30.2212 11.6467 30.2879 11.7133 30.4213 11.7133C30.488 11.7133 30.5548 11.7133 30.6215 11.6467L30.6882 11.7133ZM30.5548 9.51704C30.5548 9.05117 30.4213 8.85151 30.2212 8.85151C29.9543 8.85151 29.8876 9.18428 29.8209 9.51704H30.5548Z" fill="#201600"/>
<path d="M32.356 10.8481C32.2893 10.9147 32.1559 10.9147 31.9558 10.9147C31.4888 10.9147 31.1552 10.5154 31.1552 9.78327C31.1552 9.11775 31.4888 8.58533 32.0225 8.58533C32.1559 8.58533 32.2893 8.58533 32.356 8.65188L32.2893 8.91809C32.2226 8.91809 32.1559 8.85154 32.0225 8.85154C31.6889 8.85154 31.4888 9.25085 31.4888 9.71672C31.4888 10.2491 31.6889 10.5819 32.0225 10.5819C32.0892 10.5819 32.2226 10.5819 32.2893 10.5154L32.356 10.8481Z" fill="#201600"/>
<path d="M32.5561 10.6484L33.29 9.25083C33.3567 9.11772 33.4234 9.05117 33.4901 8.91807H32.6896V8.65186H33.8904V8.91807L33.1566 10.3157C33.0899 10.4488 33.0231 10.5153 32.9564 10.6484H33.8237V10.9146H32.5561V10.6484Z" fill="#201600"/>
<path d="M34.224 9.25085C34.224 8.98464 34.224 8.85154 34.224 8.65188H34.5576V8.91809C34.6243 8.71843 34.8244 8.58533 35.0913 8.58533C35.4249 8.58533 35.625 8.78499 35.625 9.38396V10.9147H35.2914V9.45051C35.2914 9.1843 35.2247 8.91809 34.9579 8.91809C34.8244 8.91809 34.691 9.0512 34.6243 9.31741C34.6243 9.38396 34.6243 9.45051 34.6243 9.51706V10.9147H34.2907V9.25085H34.224Z" fill="#201600"/>
<path d="M36.2254 8.31904C36.092 8.31904 36.0253 8.25249 36.0253 8.05283C36.0253 7.85317 36.092 7.78662 36.2254 7.78662C36.3588 7.78662 36.4255 7.85317 36.4255 8.05283C36.4255 8.25249 36.3588 8.31904 36.2254 8.31904ZM36.092 8.65181H36.4255V10.9146H36.092V8.65181Z" fill="#201600"/>
<path d="M37.2261 9.71667C37.2928 9.65012 37.2928 9.51701 37.3595 9.45046L37.8265 8.65183H38.2268L37.6264 9.58357L38.2935 10.9146H37.8932L37.3595 9.84978L37.2261 10.0494V10.9146H36.8925V7.72009H37.2261V9.71667Z" fill="#201600"/>
<path d="M39.6945 10.3822C39.6945 10.5819 39.6945 10.7816 39.6945 10.9147H39.3609V10.6485C39.2942 10.8481 39.0941 10.9147 38.8939 10.9147C38.5604 10.9147 38.3602 10.6485 38.3602 10.2491C38.3602 9.65017 38.8272 9.45051 39.2942 9.45051V9.38396C39.2942 9.0512 39.2275 8.85154 38.9607 8.85154C38.8272 8.85154 38.6938 8.91809 38.5604 8.98464L38.4937 8.71843C38.5604 8.65188 38.8272 8.58533 39.0274 8.58533C39.4944 8.58533 39.6945 8.85154 39.6945 9.38396V10.3822ZM39.3609 9.71672C39.1608 9.71672 38.7605 9.78327 38.7605 10.2491C38.7605 10.5154 38.8939 10.6485 39.0274 10.6485C39.1608 10.6485 39.2942 10.5154 39.3609 10.3157C39.3609 10.2491 39.3609 10.2491 39.3609 10.1826V9.71672Z" fill="#201600"/>
<path d="M18.4796 27.4861V26.9537L18.8799 26.4213C19.4136 25.7558 19.8806 25.1568 19.8806 24.5578C19.8806 24.2251 19.6805 24.0254 19.3469 24.0254C19.0801 24.0254 18.8799 24.1585 18.7465 24.2251L18.6131 23.5595C18.8132 23.4264 19.1468 23.2933 19.5471 23.2933C20.481 23.2933 20.7479 23.8923 20.7479 24.4913C20.7479 25.2899 20.2809 25.8889 19.8139 26.4213L19.5471 26.6875H20.8146V27.4196H18.4796V27.4861Z" fill="black"/>
<path d="M23.6166 25.3565C23.6166 26.8206 23.0829 27.4862 22.4157 27.4862C21.4817 27.4862 21.2149 26.4213 21.2149 25.3565C21.2149 24.1585 21.6152 23.2268 22.4824 23.2268C23.4164 23.2934 23.6166 24.4248 23.6166 25.3565ZM22.0154 25.423C22.0154 26.4213 22.1489 26.8206 22.4157 26.8206C22.6826 26.8206 22.7493 26.3548 22.7493 25.423C22.7493 24.5579 22.6826 24.0254 22.4157 24.0254C22.1489 23.9589 22.0154 24.4248 22.0154 25.423Z" fill="black"/>
<path d="M23.9501 27.4861V26.9537L24.3504 26.4213C24.8841 25.7558 25.3511 25.1568 25.3511 24.5578C25.3511 24.2251 25.151 24.0254 24.8174 24.0254C24.5506 24.0254 24.3504 24.1585 24.217 24.2251L24.0836 23.5595C24.2837 23.4264 24.6173 23.2933 25.0175 23.2933C25.9515 23.2933 26.2184 23.8923 26.2184 24.4913C26.2184 25.2899 25.7514 25.8889 25.2844 26.4213L25.0175 26.6875H26.2851V27.4196H23.9501V27.4861Z" fill="black"/>
<path d="M27.6194 24.092L26.8855 24.4247L26.7521 23.7592L27.6861 23.2933H28.4199V27.4196H27.6194V24.092Z" fill="black"/>
</svg>
