<svg width="47" height="38" viewBox="0 0 47 38" fill="none" xmlns="http://www.w3.org/2000/svg">
<path d="M6.48455 18.7013L0 11.2474L7.53256 0H39.0383L46.6363 10.2491L41.1343 17.1706L40.4793 16.6381L45.6538 10.1825L38.6453 0.798631H7.92556L0.982507 11.1808L7.07405 18.1689L6.48455 18.7013Z" fill="#201600"/>
<path d="M23.3182 37.1363L10.4801 23.2933L11.0696 22.6943L23.3182 35.9383L35.0427 22.9605L35.6322 23.493L23.3182 37.1363Z" fill="#201600"/>
<path d="M26.3312 20.6979C26.2002 20.6979 26.0037 20.6979 25.8727 20.6313C25.8072 20.0989 25.8072 17.8361 25.8072 15.8395C26.0037 15.773 26.2002 15.7064 26.3967 15.7064C27.1827 15.7064 27.6412 16.7047 27.6412 17.9692C27.7067 19.4999 27.1172 20.6979 26.3312 20.6979ZM27.1827 15.1074C26.6587 15.1074 26.2657 15.2405 25.8727 15.4402C25.8727 14.1757 25.8727 13.1109 25.9382 12.7115L23.4492 13.1774V13.3771L23.7112 13.4436C24.0387 13.5102 24.1697 13.7098 24.2352 14.1757C24.3007 15.1074 24.3007 20.0323 24.2352 20.831C24.8902 20.9641 25.6107 21.0972 26.3312 21.0972C28.2962 21.0972 29.4752 19.8327 29.4752 17.8361C29.4097 16.2388 28.4927 15.1074 27.1827 15.1074Z" fill="#201600"/>
<path d="M14.0826 12.8447H7.53257V13.1775L7.92557 13.244C8.38407 13.3106 8.58057 13.6434 8.64607 14.3754C8.77708 15.773 8.71157 18.302 8.64607 19.5C8.58057 20.2321 8.38407 20.5648 7.92557 20.6314H7.53257V20.9641H11.7246V20.6314L11.2661 20.5648C10.8076 20.4983 10.6111 20.1655 10.5456 19.4334C10.4801 18.901 10.4801 18.1024 10.4801 17.1041L11.3971 17.1706C11.9866 17.1706 12.1831 17.6365 12.3141 18.302H12.6416V15.5734H12.3141C12.1831 16.2389 11.9211 16.7048 11.3971 16.7048H10.4801C10.4801 15.3737 10.5456 14.1758 10.5456 13.4437H11.8556C12.8381 13.4437 13.3621 14.1092 13.7551 15.2406L14.1481 15.1075L14.0826 12.8447Z" fill="#201600"/>
<path d="M16.0476 15.3737C15.2616 15.3737 14.9996 16.5051 14.9996 18.0358C14.9996 19.4999 15.3926 20.6979 16.1131 20.6979C16.9646 20.6979 17.1611 19.5665 17.1611 18.0358C17.2266 16.5716 16.8336 15.3737 16.0476 15.3737ZM16.1786 14.9744C18.0126 14.9744 18.9952 16.3054 18.9952 18.0358C18.9952 19.6996 17.9471 21.0972 16.1131 21.0972C14.2791 21.0972 13.2966 19.7662 13.2966 18.0358C13.2966 16.372 14.2791 14.9744 16.1786 14.9744Z" fill="#201600"/>
<path d="M31.6368 17.3702L33.4053 17.3037C33.4053 16.5051 33.2743 15.3737 32.6848 15.3737C31.9643 15.3737 31.6368 16.5051 31.6368 17.3702ZM29.9338 18.1023C29.9338 16.5051 30.9163 15.0409 32.8158 15.0409C34.3878 15.0409 35.1083 16.2388 35.1083 17.8361H31.6368C31.5713 19.2337 32.2918 20.2985 33.6018 20.2985C34.1913 20.2985 34.5188 20.1654 34.8463 19.8992L34.9773 20.0989C34.5843 20.6313 33.7983 21.1637 32.7503 21.1637C31.1128 21.0972 29.9338 19.8992 29.9338 18.1023Z" fill="#201600"/>
<path d="M39.4968 15.3071C39.0383 15.1075 38.4488 14.9744 37.7938 14.9744C36.4183 14.9744 35.5668 15.8395 35.5668 16.8378C35.5668 17.8361 36.2218 18.2354 37.0733 18.5682C37.9903 18.901 38.2523 19.1672 38.2523 19.633C38.2523 20.0989 37.9248 20.4982 37.3353 20.4982C36.6148 20.4982 36.0908 20.0989 35.6978 18.901L35.4358 18.9675L35.5013 20.6979C35.9598 20.8975 36.7458 21.0307 37.4663 21.0307C38.9073 21.0307 39.8243 20.232 39.8243 19.0341C39.8243 18.2354 39.4313 17.7696 38.4488 17.3703C37.4008 16.9709 37.0078 16.7047 37.0078 16.1723C37.0078 15.6399 37.3353 15.3071 37.7938 15.3071C38.4488 15.3071 38.9073 15.7064 39.2348 16.7713L39.4968 16.7047V15.3071Z" fill="#201600"/>
<path d="M23.7767 15.174C23.1217 14.7747 22.0082 14.9743 21.4187 16.3719L21.4842 15.0409L18.9951 15.5067V15.7064L19.2571 15.773C19.5847 15.8395 19.7157 15.9726 19.7812 16.505C19.8467 17.4368 19.8467 19.034 19.7812 19.8327C19.7157 20.2985 19.5847 20.4982 19.2571 20.5647L18.9951 20.6313V20.9641H22.4667V20.6313H22.0082C21.6152 20.5647 21.5497 20.3651 21.4842 19.8992C21.4187 19.1671 21.4187 17.703 21.4187 16.7713C21.6152 16.505 22.4012 16.2388 23.1872 16.7713L23.7767 15.174Z" fill="#201600"/>
<path d="M8.58056 7.78664C8.71156 7.72009 8.90806 7.72009 9.03906 7.72009C9.36656 7.72009 9.56306 7.78665 9.75957 7.9863C10.0216 8.18596 10.1526 8.58528 10.1526 9.2508C10.1526 9.98288 9.95607 10.3822 9.75957 10.5819C9.56306 10.7815 9.23556 10.9146 8.90806 10.9146C8.77706 10.9146 8.64606 10.9146 8.51506 10.9146V7.78664H8.58056ZM8.90806 10.5819C8.97356 10.5819 9.03906 10.5819 9.03906 10.5819C9.43206 10.5819 9.82507 10.3156 9.82507 9.2508C9.82507 8.45217 9.56306 8.05286 9.10456 8.05286C9.03906 8.05286 8.97356 8.05286 8.90806 8.05286V10.5819Z" fill="#201600"/>
<path d="M10.7421 8.31904C10.6111 8.31904 10.5456 8.25249 10.5456 8.05283C10.5456 7.85317 10.6111 7.78662 10.7421 7.78662C10.8731 7.78662 10.9386 7.85317 10.9386 8.05283C10.9386 8.25249 10.8731 8.31904 10.7421 8.31904ZM10.5456 8.65181H10.8731V10.9146H10.5456V8.65181Z" fill="#201600"/>
<path d="M12.5106 10.3822C12.5106 10.5819 12.5106 10.7816 12.5106 10.9147H12.1831V10.6485C12.1176 10.8481 11.9211 10.9147 11.7246 10.9147C11.3971 10.9147 11.2006 10.6485 11.2006 10.2491C11.2006 9.65017 11.6591 9.45051 12.1176 9.45051V9.38396C12.1176 9.0512 12.0521 8.85154 11.7901 8.85154C11.6591 8.85154 11.5281 8.91809 11.3971 8.98464L11.3316 8.71843C11.3971 8.65188 11.6591 8.58533 11.8556 8.58533C12.3141 8.58533 12.5106 8.85154 12.5106 9.38396V10.3822ZM12.1831 9.71672C11.9866 9.71672 11.5936 9.78327 11.5936 10.2491C11.5936 10.5154 11.7246 10.6485 11.8556 10.6485C11.9866 10.6485 12.1176 10.5154 12.1831 10.3157C12.1831 10.2491 12.1831 10.2491 12.1831 10.1826V9.71672Z" fill="#201600"/>
<path d="M12.9691 9.25085C12.9691 8.98464 12.9691 8.85154 12.9691 8.65188H13.2966V8.91809C13.3621 8.71843 13.5586 8.58533 13.8206 8.58533C14.0171 8.58533 14.2136 8.65188 14.2791 8.91809C14.3446 8.78498 14.4101 8.71843 14.4756 8.65188C14.5411 8.58533 14.6721 8.58533 14.8031 8.58533C15.1306 8.58533 15.3271 8.78499 15.3271 9.38396V10.8481H14.9996V9.45051C14.9996 9.1843 14.9341 8.85154 14.6721 8.85154C14.5411 8.85154 14.4101 8.98464 14.3446 9.1843C14.3446 9.25085 14.3446 9.31741 14.3446 9.38396V10.8481H14.0171V9.38396C14.0171 9.11775 13.9516 8.85154 13.6896 8.85154C13.5586 8.85154 13.4276 8.98464 13.3621 9.25085C13.3621 9.31741 13.3621 9.38396 13.3621 9.45051V10.9147H13.0346V9.25085H12.9691Z" fill="#201600"/>
<path d="M16.0476 9.78325C16.0476 10.4488 16.3096 10.6484 16.5716 10.6484C16.7026 10.6484 16.8336 10.5819 16.9646 10.5819L17.0301 10.8481C16.8991 10.9146 16.7026 10.9812 16.5716 10.9812C16.0476 10.9812 15.7856 10.5153 15.7856 9.8498C15.7856 9.11772 16.1131 8.65186 16.5061 8.65186C16.9646 8.65186 17.1611 9.11772 17.1611 9.65014C17.1611 9.7167 17.1611 9.78325 17.1611 9.8498H16.0476V9.78325ZM16.7681 9.51704C16.7681 9.05117 16.6371 8.85151 16.4406 8.85151C16.2441 8.85151 16.1131 9.18428 16.0476 9.51704H16.7681Z" fill="#201600"/>
<path d="M17.4231 9.25085C17.4231 8.98464 17.4231 8.85154 17.4231 8.65188H17.7506V8.91809C17.8161 8.71843 18.0126 8.58533 18.2746 8.58533C18.6022 8.58533 18.7987 8.78499 18.7987 9.38396V10.9147H18.4712V9.45051C18.4712 9.1843 18.4057 8.91809 18.1436 8.91809C18.0126 8.91809 17.8816 9.0512 17.8161 9.31741C17.8161 9.38396 17.8161 9.45051 17.8161 9.51706V10.9147H17.4886V9.25085H17.4231Z" fill="#201600"/>
<path d="M19.7157 8.11951V8.65193H20.1087V8.91814H19.7157V10.2492C19.7157 10.5154 19.8467 10.6485 19.9122 10.6485C19.9777 10.6485 20.0432 10.6485 20.0432 10.6485V10.9147C19.9777 10.9147 19.9122 10.9813 19.7812 10.9813C19.6502 10.9813 19.5192 10.9147 19.4537 10.8482C19.3882 10.7151 19.3227 10.582 19.3227 10.2492V8.91814H19.0606V8.65193H19.3227V8.25261L19.7157 8.11951Z" fill="#201600"/>
<path d="M23.6457 9.51699C23.6457 9.11767 23.5802 8.65181 23.6457 8.31904C23.5802 8.65181 23.5147 9.05112 23.3837 9.38388L22.9907 10.848H22.7287L22.4012 9.45044C22.2702 9.05112 22.2047 8.65181 22.1392 8.31904C22.1392 8.71836 22.1392 9.11767 22.0737 9.58354L22.0082 10.9146H21.6807L21.8772 7.78662H22.2702L22.5977 9.25078C22.7287 9.65009 22.7942 9.98286 22.8597 10.3156C22.9252 9.98286 22.9907 9.65009 23.0562 9.25078L23.3837 7.78662H23.7767L23.9732 10.9146H23.6457V9.51699Z" fill="#201600"/>
<path d="M24.6282 8.31904C24.4972 8.31904 24.4317 8.25249 24.4317 8.05283C24.4317 7.85317 24.4972 7.78662 24.6282 7.78662C24.7592 7.78662 24.8247 7.85317 24.8247 8.05283C24.8247 8.25249 24.7592 8.31904 24.6282 8.31904ZM24.4972 8.65181H24.8247V10.9146H24.4972V8.65181Z" fill="#201600"/>
<path d="M25.5452 9.78325C25.5452 10.4488 25.8072 10.6484 26.0692 10.6484C26.2002 10.6484 26.3312 10.5819 26.4622 10.5819L26.5277 10.8481C26.3967 10.9146 26.2002 10.9812 26.0692 10.9812C25.5452 10.9812 25.2832 10.5153 25.2832 9.8498C25.2832 9.11772 25.6107 8.65186 26.0037 8.65186C26.4622 8.65186 26.6587 9.11772 26.6587 9.65014C26.6587 9.7167 26.6587 9.78325 26.6587 9.8498H25.5452V9.78325ZM26.2657 9.51704C26.2657 9.05117 26.1347 8.85151 25.9382 8.85151C25.6762 8.85151 25.6107 9.18428 25.5452 9.51704H26.2657Z" fill="#201600"/>
<path d="M26.9207 10.5154C26.9862 10.5819 27.1172 10.6485 27.2482 10.6485C27.4447 10.6485 27.5757 10.5154 27.5757 10.3157C27.5757 10.116 27.5102 10.0495 27.3137 9.84983C27.0517 9.65017 26.8552 9.45051 26.8552 9.1843C26.8552 8.78499 27.1172 8.58533 27.4447 8.58533C27.6412 8.58533 27.7722 8.65188 27.8377 8.71843L27.7722 8.98464C27.7067 8.91809 27.5757 8.85154 27.4447 8.85154C27.2482 8.85154 27.1827 8.98464 27.1827 9.11775C27.1827 9.25085 27.2482 9.38396 27.4447 9.51706C27.7067 9.71672 27.9032 9.91638 27.9032 10.1826C27.9032 10.6485 27.5757 10.8481 27.2482 10.8481C27.1172 10.8481 26.9207 10.7816 26.7897 10.715L26.9207 10.5154Z" fill="#201600"/>
<path d="M28.4272 8.31904C28.2962 8.31904 28.2307 8.25249 28.2307 8.05283C28.2307 7.85317 28.2962 7.78662 28.4272 7.78662C28.5582 7.78662 28.6237 7.85317 28.6237 8.05283C28.6237 8.25249 28.5582 8.31904 28.4272 8.31904ZM28.2307 8.65181H28.5582V10.9146H28.2307V8.65181Z" fill="#201600"/>
<path d="M30.1302 11.7133C29.9992 11.7798 29.8682 11.8464 29.8027 11.8464C29.6062 11.8464 29.4097 11.7133 29.4097 11.5136C29.4097 11.314 29.6062 11.0477 29.7372 10.9812C29.2132 10.9812 28.9512 10.5153 28.9512 9.8498C28.9512 9.11772 29.2787 8.65186 29.6717 8.65186C30.1302 8.65186 30.3267 9.11772 30.3267 9.65014C30.3267 9.7167 30.3267 9.78325 30.3267 9.8498H29.2787C29.2787 10.5153 29.5407 10.715 29.8027 10.715C29.9337 10.715 30.0647 10.6484 30.1957 10.6484L30.2612 10.9146C30.1957 10.9146 30.1957 10.9812 30.1302 10.9812C29.9337 11.1143 29.6717 11.314 29.6717 11.5136C29.6717 11.6467 29.7372 11.7133 29.8682 11.7133C29.9337 11.7133 29.9992 11.7133 30.0647 11.6467L30.1302 11.7133ZM29.9992 9.51704C29.9992 9.05117 29.8682 8.85151 29.6717 8.85151C29.4097 8.85151 29.3442 9.18428 29.2787 9.51704H29.9992Z" fill="#201600"/>
<path d="M31.7677 10.8481C31.7022 10.9147 31.5712 10.9147 31.3747 10.9147C30.9162 10.9147 30.5887 10.5154 30.5887 9.78327C30.5887 9.11775 30.9162 8.58533 31.4402 8.58533C31.5712 8.58533 31.7022 8.58533 31.7677 8.65188L31.7022 8.91809C31.6367 8.91809 31.5712 8.85154 31.4402 8.85154C31.1127 8.85154 30.9162 9.25085 30.9162 9.71672C30.9162 10.2491 31.1127 10.5819 31.4402 10.5819C31.5057 10.5819 31.6367 10.5819 31.7022 10.5154L31.7677 10.8481Z" fill="#201600"/>
<path d="M31.9642 10.6484L32.6847 9.25083C32.7502 9.11772 32.8157 9.05117 32.8812 8.91807H32.0952V8.65186H33.2742V8.91807L32.5537 10.3157C32.4882 10.4488 32.4227 10.5153 32.3572 10.6484H33.2087V10.9146H31.9642V10.6484Z" fill="#201600"/>
<path d="M33.6018 9.25085C33.6018 8.98464 33.6018 8.85154 33.6018 8.65188H33.9293V8.91809C33.9948 8.71843 34.1913 8.58533 34.4533 8.58533C34.7808 8.58533 34.9773 8.78499 34.9773 9.38396V10.9147H34.6498V9.45051C34.6498 9.1843 34.5843 8.91809 34.3223 8.91809C34.1913 8.91809 34.0603 9.0512 33.9948 9.31741C33.9948 9.38396 33.9948 9.45051 33.9948 9.51706V10.9147H33.6673V9.25085H33.6018Z" fill="#201600"/>
<path d="M35.5668 8.31904C35.4358 8.31904 35.3703 8.25249 35.3703 8.05283C35.3703 7.85317 35.4358 7.78662 35.5668 7.78662C35.6978 7.78662 35.7633 7.85317 35.7633 8.05283C35.7633 8.25249 35.6978 8.31904 35.5668 8.31904ZM35.4358 8.65181H35.7633V10.9146H35.4358V8.65181Z" fill="#201600"/>
<path d="M36.5493 9.71667C36.6148 9.65012 36.6148 9.51701 36.6803 9.45046L37.1388 8.65183H37.5318L36.9423 9.58357L37.5973 10.9146H37.2043L36.6803 9.84978L36.5493 10.0494V10.9146H36.2218V7.72009H36.5493V9.71667Z" fill="#201600"/>
<path d="M38.9728 10.3822C38.9728 10.5819 38.9728 10.7816 38.9728 10.9147H38.6453V10.6485C38.5798 10.8481 38.3833 10.9147 38.1868 10.9147C37.8593 10.9147 37.6628 10.6485 37.6628 10.2491C37.6628 9.65017 38.1213 9.45051 38.5798 9.45051V9.38396C38.5798 9.0512 38.5143 8.85154 38.2523 8.85154C38.1213 8.85154 37.9903 8.91809 37.8593 8.98464L37.7938 8.71843C37.8593 8.65188 38.1213 8.58533 38.3178 8.58533C38.7763 8.58533 38.9728 8.85154 38.9728 9.38396V10.3822ZM38.6453 9.71672C38.4488 9.71672 38.0558 9.78327 38.0558 10.2491C38.0558 10.5154 38.1868 10.6485 38.3178 10.6485C38.4488 10.6485 38.5798 10.5154 38.6453 10.3157C38.6453 10.2491 38.6453 10.2491 38.6453 10.1826V9.71672Z" fill="#201600"/>
<path d="M18.1437 27.4861V26.9537L18.5367 26.4213C19.0607 25.7558 19.5192 25.1568 19.5192 24.5578C19.5192 24.2251 19.3227 24.0254 18.9952 24.0254C18.7332 24.0254 18.5367 24.1585 18.4057 24.2251L18.2747 23.5595C18.4712 23.4264 18.7987 23.2933 19.1917 23.2933C20.1087 23.2933 20.3707 23.8923 20.3707 24.4913C20.3707 25.2899 19.9122 25.8889 19.4537 26.4213L19.1917 26.6875H20.4362V27.4196H18.1437V27.4861Z" fill="black"/>
<path d="M23.1872 25.3565C23.1872 26.8206 22.6632 27.4862 22.0082 27.4862C21.0912 27.4862 20.8292 26.4213 20.8292 25.3565C20.8292 24.1585 21.2222 23.2268 22.0737 23.2268C22.9907 23.2934 23.1872 24.4248 23.1872 25.3565ZM21.6152 25.423C21.6152 26.4213 21.7462 26.8206 22.0082 26.8206C22.2702 26.8206 22.3357 26.3548 22.3357 25.423C22.3357 24.5579 22.2702 24.0254 22.0082 24.0254C21.7462 23.9589 21.6152 24.4248 21.6152 25.423Z" fill="black"/>
<path d="M23.5147 27.4861V26.9537L23.9077 26.4213C24.4317 25.7558 24.8902 25.1568 24.8902 24.5578C24.8902 24.2251 24.6937 24.0254 24.3662 24.0254C24.1042 24.0254 23.9077 24.1585 23.7767 24.2251L23.6457 23.5595C23.8422 23.4264 24.1697 23.2933 24.5627 23.2933C25.4797 23.2933 25.7417 23.8923 25.7417 24.4913C25.7417 25.2899 25.2832 25.8889 24.8247 26.4213L24.5627 26.6875H25.8072V27.4196H23.5147V27.4861Z" fill="black"/>
<path d="M26.1347 27.4861V26.9537L26.5277 26.4213C27.0517 25.7558 27.5102 25.1568 27.5102 24.5578C27.5102 24.2251 27.3137 24.0254 26.9862 24.0254C26.7242 24.0254 26.5277 24.1585 26.3967 24.2251L26.2657 23.5595C26.4622 23.4264 26.7897 23.2933 27.1827 23.2933C28.0997 23.2933 28.3617 23.8923 28.3617 24.4913C28.3617 25.2899 27.9032 25.8889 27.4447 26.4213L27.1827 26.6875H28.4272V27.4196H26.1347V27.4861Z" fill="black"/>
</svg>
