<svg width="48" height="38" viewBox="0 0 48 38" fill="none" xmlns="http://www.w3.org/2000/svg">
<path d="M6.60463 18.7013L0 11.2474L7.67205 0H39.7612L47.5 10.2491L41.8961 17.1706L41.2289 16.6381L46.4993 10.1825L39.3609 0.798631H8.07233L1.0007 11.1808L7.20505 18.1689L6.60463 18.7013Z" fill="#201600"/>
<path d="M23.75 37.1363L10.6742 23.2933L11.2746 22.6943L23.75 35.9383L35.6917 22.9605L36.2921 23.493L23.75 37.1363Z" fill="#201600"/>
<path d="M26.8188 20.698C26.6854 20.698 26.4852 20.698 26.3518 20.6314C26.2851 20.099 26.2851 17.8362 26.2851 15.8396C26.4852 15.7731 26.6854 15.7065 26.8855 15.7065C27.6861 15.7065 28.1531 16.7048 28.1531 17.9693C28.2198 19.5 27.6194 20.698 26.8188 20.698ZM27.6861 15.1076C27.1524 15.1076 26.7521 15.2407 26.3518 15.4403C26.3518 14.1758 26.3518 13.111 26.4185 12.7117L23.8834 13.1775V13.3772L24.1503 13.4437C24.4838 13.5103 24.6173 13.71 24.684 14.1758C24.7507 15.1076 24.7507 20.0325 24.684 20.8311C25.3511 20.9642 26.085 21.0973 26.8188 21.0973C28.8202 21.0973 30.0211 19.8328 30.0211 17.8362C29.9543 16.239 29.0204 15.1076 27.6861 15.1076Z" fill="#201600"/>
<path d="M14.3434 12.8447H7.67205V13.1775L8.07233 13.244C8.53933 13.3106 8.73947 13.6434 8.80618 14.3754C8.93961 15.773 8.87289 18.302 8.80618 19.5C8.73947 20.2321 8.53933 20.5648 8.07233 20.6314H7.67205V20.9641H11.9417V20.6314L11.4747 20.5648C11.0077 20.4983 10.8076 20.1655 10.7409 19.4334C10.6742 18.901 10.6742 18.1024 10.6742 17.1041L11.6081 17.1706C12.2086 17.1706 12.4087 17.6365 12.5421 18.302H12.8757V15.5734H12.5421C12.4087 16.2389 12.1419 16.7048 11.6081 16.7048H10.6742C10.6742 15.3737 10.7409 14.1758 10.7409 13.4437H12.0751C13.0758 13.4437 13.6095 14.1092 14.0098 15.2406L14.4101 15.1075L14.3434 12.8447Z" fill="#201600"/>
<path d="M16.3448 15.3738C15.5442 15.3738 15.2774 16.5052 15.2774 18.0359C15.2774 19.5001 15.6777 20.698 16.4115 20.698C17.2788 20.698 17.4789 19.5666 17.4789 18.0359C17.5456 16.5718 17.1454 15.3738 16.3448 15.3738ZM16.4782 14.9745C18.3462 14.9745 19.3469 16.3055 19.3469 18.0359C19.3469 19.6997 18.2795 21.0973 16.4115 21.0973C14.5435 21.0973 13.5428 19.7663 13.5428 18.0359C13.5428 16.3721 14.5435 14.9745 16.4782 14.9745Z" fill="#201600"/>
<path d="M32.2226 17.3704L34.0239 17.3038C34.0239 16.5052 33.8904 15.3738 33.29 15.3738C32.5562 15.3738 32.2226 16.5052 32.2226 17.3704ZM30.4881 18.1024C30.4881 16.5052 31.4888 15.041 33.4234 15.041C35.0246 15.041 35.7584 16.239 35.7584 17.8362H32.2226C32.1559 19.2338 32.8897 20.2987 34.224 20.2987C34.8244 20.2987 35.158 20.1656 35.4916 19.8994L35.625 20.099C35.2247 20.6314 34.4241 21.1639 33.3567 21.1639C31.6889 21.0973 30.4881 19.8994 30.4881 18.1024Z" fill="#201600"/>
<path d="M40.2282 15.3073C39.7612 15.1076 39.1608 14.9745 38.4937 14.9745C37.0927 14.9745 36.2254 15.8397 36.2254 16.838C36.2254 17.8362 36.8925 18.2356 37.7598 18.5683C38.6938 18.9011 38.9607 19.1673 38.9607 19.6332C38.9607 20.099 38.6271 20.4984 38.0267 20.4984C37.2928 20.4984 36.7591 20.099 36.3588 18.9011L36.092 18.9676L36.1587 20.698C36.6257 20.8977 37.4263 21.0308 38.1601 21.0308C39.6278 21.0308 40.5618 20.2321 40.5618 19.0342C40.5618 18.2356 40.1615 17.7697 39.1608 17.3704C38.0934 16.9711 37.6931 16.7049 37.6931 16.1724C37.6931 15.64 38.0267 15.3073 38.4937 15.3073C39.1608 15.3073 39.6278 15.7066 39.9614 16.7714L40.2282 16.7049V15.3073Z" fill="#201600"/>
<path d="M24.217 15.1741C23.5499 14.7748 22.4157 14.9745 21.8153 16.3721L21.882 15.041L19.3469 15.5069V15.7065L19.6138 15.7731C19.9473 15.8396 20.0808 15.9727 20.1475 16.5052C20.2142 17.4369 20.2142 19.0342 20.1475 19.8328C20.0808 20.2987 19.9473 20.4983 19.6138 20.5649L19.3469 20.6314V20.9642H22.8827V20.6314H22.4157C22.0154 20.5649 21.9487 20.3652 21.882 19.8993C21.8153 19.1673 21.8153 17.7031 21.8153 16.7714C22.0154 16.5052 22.816 16.239 23.6166 16.7714L24.217 15.1741Z" fill="#201600"/>
<path d="M8.73946 7.78677C8.87289 7.72021 9.07303 7.72021 9.20645 7.72021C9.54002 7.72021 9.74016 7.78677 9.9403 7.98643C10.2072 8.18608 10.3406 8.5854 10.3406 9.25092C10.3406 9.983 10.1404 10.3823 9.9403 10.582C9.74016 10.7816 9.40659 10.9147 9.07303 10.9147C8.9396 10.9147 8.80617 10.9147 8.67274 10.9147V7.78677H8.73946ZM9.07303 10.582C9.13974 10.582 9.20645 10.582 9.20645 10.582C9.60673 10.582 10.007 10.3158 10.007 9.25092C10.007 8.45229 9.74016 8.05298 9.27317 8.05298C9.20645 8.05298 9.13974 8.05298 9.07303 8.05298V10.582Z" fill="#201600"/>
<path d="M10.941 8.31916C10.8076 8.31916 10.7409 8.25261 10.7409 8.05295C10.7409 7.8533 10.8076 7.78674 10.941 7.78674C11.0744 7.78674 11.1412 7.8533 11.1412 8.05295C11.1412 8.25261 11.0744 8.31916 10.941 8.31916ZM10.7409 8.65193H11.0744V10.9147H10.7409V8.65193Z" fill="#201600"/>
<path d="M12.7423 10.3824C12.7423 10.582 12.7423 10.7817 12.7423 10.9148H12.4087V10.6486C12.342 10.8482 12.1418 10.9148 11.9417 10.9148C11.6081 10.9148 11.408 10.6486 11.408 10.2493C11.408 9.65029 11.875 9.45063 12.342 9.45063V9.38408C12.342 9.05132 12.2753 8.85166 12.0084 8.85166C11.875 8.85166 11.7416 8.91821 11.6081 8.98477L11.5414 8.71855C11.6081 8.652 11.875 8.58545 12.0751 8.58545C12.5421 8.58545 12.7423 8.85166 12.7423 9.38408V10.3824ZM12.4087 9.71684C12.2086 9.71684 11.8083 9.7834 11.8083 10.2493C11.8083 10.5155 11.9417 10.6486 12.0751 10.6486C12.2086 10.6486 12.342 10.5155 12.4087 10.3158C12.4087 10.2493 12.4087 10.2493 12.4087 10.1827V9.71684Z" fill="#201600"/>
<path d="M13.2093 9.25098C13.2093 8.98476 13.2093 8.85166 13.2093 8.652H13.5428V8.91821C13.6095 8.71855 13.8097 8.58545 14.0765 8.58545C14.2767 8.58545 14.4768 8.652 14.5435 8.91821C14.6102 8.78511 14.677 8.71855 14.7437 8.652C14.8104 8.58545 14.9438 8.58545 15.0772 8.58545C15.4108 8.58545 15.611 8.78511 15.611 9.38408V10.8482H15.2774V9.45063C15.2774 9.18442 15.2107 8.85166 14.9438 8.85166C14.8104 8.85166 14.677 8.98477 14.6102 9.18442C14.6102 9.25098 14.6102 9.31753 14.6102 9.38408V10.8482H14.2767V9.38408C14.2767 9.11787 14.21 8.85166 13.9431 8.85166C13.8097 8.85166 13.6763 8.98476 13.6095 9.25098C13.6095 9.31753 13.6095 9.38408 13.6095 9.45063V10.9148H13.276V9.25098H13.2093Z" fill="#201600"/>
<path d="M16.3448 9.78337C16.3448 10.4489 16.6117 10.6486 16.8785 10.6486C17.0119 10.6486 17.1454 10.582 17.2788 10.582L17.3455 10.8482C17.2121 10.9148 17.0119 10.9813 16.8785 10.9813C16.3448 10.9813 16.0779 10.5155 16.0779 9.84992C16.0779 9.11785 16.4115 8.65198 16.8118 8.65198C17.2788 8.65198 17.4789 9.11785 17.4789 9.65027C17.4789 9.71682 17.4789 9.78337 17.4789 9.84992H16.3448V9.78337ZM17.0787 9.51716C17.0787 9.05129 16.9452 8.85164 16.7451 8.85164C16.5449 8.85164 16.4115 9.1844 16.3448 9.51716H17.0787Z" fill="#201600"/>
<path d="M17.7458 9.25098C17.7458 8.98476 17.7458 8.85166 17.7458 8.652H18.0793V8.91821C18.1461 8.71855 18.3462 8.58545 18.613 8.58545C18.9466 8.58545 19.1468 8.78511 19.1468 9.38408V10.9148H18.8132V9.45063C18.8132 9.18442 18.7465 8.91821 18.4796 8.91821C18.3462 8.91821 18.2128 9.05132 18.1461 9.31753C18.1461 9.38408 18.1461 9.45063 18.1461 9.51719V10.9148H17.8125V9.25098H17.7458Z" fill="#201600"/>
<path d="M20.0808 8.11963V8.65205H20.481V8.91826H20.0808V10.2493C20.0808 10.5155 20.2142 10.6486 20.2809 10.6486C20.3476 10.6486 20.4143 10.6486 20.4143 10.6486V10.9148C20.3476 10.9148 20.2809 10.9814 20.1475 10.9814C20.014 10.9814 19.8806 10.9148 19.8139 10.8483C19.7472 10.7152 19.6805 10.5821 19.6805 10.2493V8.91826H19.4136V8.65205H19.6805V8.25273L20.0808 8.11963Z" fill="#201600"/>
<path d="M24.0836 9.51711C24.0836 9.1178 24.0168 8.65193 24.0836 8.31916C24.0168 8.65193 23.9501 9.05124 23.8167 9.38401L23.4164 10.8482H23.1496L22.816 9.45056C22.6826 9.05124 22.6159 8.65193 22.5491 8.31916C22.5491 8.71848 22.5491 9.1178 22.4824 9.58366L22.4157 10.9147H22.0822L22.2823 7.78674H22.6826L23.0161 9.2509C23.1496 9.65022 23.2163 9.98298 23.283 10.3157C23.3497 9.98298 23.4164 9.65022 23.4831 9.2509L23.8167 7.78674H24.217L24.4171 10.9147H24.0836V9.51711Z" fill="#201600"/>
<path d="M25.0843 8.31916C24.9508 8.31916 24.8841 8.25261 24.8841 8.05295C24.8841 7.8533 24.9508 7.78674 25.0843 7.78674C25.2177 7.78674 25.2844 7.8533 25.2844 8.05295C25.2844 8.25261 25.2177 8.31916 25.0843 8.31916ZM24.9508 8.65193H25.2844V10.9147H24.9508V8.65193Z" fill="#201600"/>
<path d="M26.0183 9.78337C26.0183 10.4489 26.2851 10.6486 26.552 10.6486C26.6854 10.6486 26.8188 10.582 26.9522 10.582L27.019 10.8482C26.8855 10.9148 26.6854 10.9813 26.552 10.9813C26.0183 10.9813 25.7514 10.5155 25.7514 9.84992C25.7514 9.11785 26.085 8.65198 26.4853 8.65198C26.9522 8.65198 27.1524 9.11785 27.1524 9.65027C27.1524 9.71682 27.1524 9.78337 27.1524 9.84992H26.0183V9.78337ZM26.7521 9.51716C26.7521 9.05129 26.6187 8.85164 26.4185 8.85164C26.1517 8.85164 26.085 9.1844 26.0183 9.51716H26.7521Z" fill="#201600"/>
<path d="M27.4192 10.5155C27.486 10.582 27.6194 10.6486 27.7528 10.6486C27.9529 10.6486 28.0864 10.5155 28.0864 10.3158C28.0864 10.1162 28.0197 10.0496 27.8195 9.84995C27.5527 9.65029 27.3525 9.45063 27.3525 9.18442C27.3525 8.78511 27.6194 8.58545 27.9529 8.58545C28.1531 8.58545 28.2865 8.652 28.3532 8.71855L28.2865 8.98477C28.2198 8.91821 28.0864 8.85166 27.9529 8.85166C27.7528 8.85166 27.6861 8.98476 27.6861 9.11787C27.6861 9.25098 27.7528 9.38408 27.9529 9.51719C28.2198 9.71684 28.4199 9.9165 28.4199 10.1827C28.4199 10.6486 28.0864 10.8482 27.7528 10.8482C27.6194 10.8482 27.4192 10.7817 27.2858 10.7151L27.4192 10.5155Z" fill="#201600"/>
<path d="M28.9536 8.31916C28.8202 8.31916 28.7535 8.25261 28.7535 8.05295C28.7535 7.8533 28.8202 7.78674 28.9536 7.78674C29.0871 7.78674 29.1538 7.8533 29.1538 8.05295C29.1538 8.25261 29.0871 8.31916 28.9536 8.31916ZM28.7535 8.65193H29.0871V10.9147H28.7535V8.65193Z" fill="#201600"/>
<path d="M30.6882 11.7134C30.5548 11.78 30.4213 11.8465 30.3546 11.8465C30.1545 11.8465 29.9543 11.7134 29.9543 11.5137C29.9543 11.3141 30.1545 11.0479 30.2879 10.9813C29.7542 10.9813 29.4873 10.5155 29.4873 9.84992C29.4873 9.11785 29.8209 8.65198 30.2212 8.65198C30.6882 8.65198 30.8883 9.11785 30.8883 9.65027C30.8883 9.71682 30.8883 9.78337 30.8883 9.84992H29.8209C29.8209 10.5155 30.0878 10.7151 30.3546 10.7151C30.488 10.7151 30.6215 10.6486 30.7549 10.6486L30.8216 10.9148C30.7549 10.9148 30.7549 10.9813 30.6882 10.9813C30.488 11.1144 30.2212 11.3141 30.2212 11.5137C30.2212 11.6468 30.2879 11.7134 30.4213 11.7134C30.488 11.7134 30.5548 11.7134 30.6215 11.6468L30.6882 11.7134ZM30.5548 9.51716C30.5548 9.05129 30.4213 8.85164 30.2212 8.85164C29.9543 8.85164 29.8876 9.1844 29.8209 9.51716H30.5548Z" fill="#201600"/>
<path d="M32.356 10.8482C32.2893 10.9148 32.1559 10.9148 31.9557 10.9148C31.4887 10.9148 31.1552 10.5155 31.1552 9.7834C31.1552 9.11787 31.4887 8.58545 32.0225 8.58545C32.1559 8.58545 32.2893 8.58545 32.356 8.652L32.2893 8.91821C32.2226 8.91821 32.1559 8.85166 32.0225 8.85166C31.6889 8.85166 31.4887 9.25098 31.4887 9.71684C31.4887 10.2493 31.6889 10.582 32.0225 10.582C32.0892 10.582 32.2226 10.582 32.2893 10.5155L32.356 10.8482Z" fill="#201600"/>
<path d="M32.5562 10.6486L33.29 9.25095C33.3567 9.11785 33.4235 9.05129 33.4902 8.91819H32.6896V8.65198H33.8904V8.91819L33.1566 10.3158C33.0899 10.4489 33.0232 10.5155 32.9565 10.6486H33.8237V10.9148H32.5562V10.6486Z" fill="#201600"/>
<path d="M34.224 9.25098C34.224 8.98476 34.224 8.85166 34.224 8.652H34.5576V8.91821C34.6243 8.71855 34.8244 8.58545 35.0913 8.58545C35.4249 8.58545 35.625 8.78511 35.625 9.38408V10.9148H35.2914V9.45063C35.2914 9.18442 35.2247 8.91821 34.9579 8.91821C34.8244 8.91821 34.691 9.05132 34.6243 9.31753C34.6243 9.38408 34.6243 9.45063 34.6243 9.51719V10.9148H34.2907V9.25098H34.224Z" fill="#201600"/>
<path d="M36.2254 8.31916C36.092 8.31916 36.0253 8.25261 36.0253 8.05295C36.0253 7.8533 36.092 7.78674 36.2254 7.78674C36.3588 7.78674 36.4255 7.8533 36.4255 8.05295C36.4255 8.25261 36.3588 8.31916 36.2254 8.31916ZM36.092 8.65193H36.4255V10.9147H36.092V8.65193Z" fill="#201600"/>
<path d="M37.2261 9.71679C37.2928 9.65024 37.2928 9.51713 37.3595 9.45058L37.8265 8.65195H38.2268L37.6264 9.58369L38.2935 10.9147H37.8932L37.3595 9.8499L37.2261 10.0496V10.9147H36.8925V7.72021H37.2261V9.71679Z" fill="#201600"/>
<path d="M39.6945 10.3824C39.6945 10.582 39.6945 10.7817 39.6945 10.9148H39.3609V10.6486C39.2942 10.8482 39.0941 10.9148 38.894 10.9148C38.5604 10.9148 38.3602 10.6486 38.3602 10.2493C38.3602 9.65029 38.8272 9.45063 39.2942 9.45063V9.38408C39.2942 9.05132 39.2275 8.85166 38.9607 8.85166C38.8272 8.85166 38.6938 8.91821 38.5604 8.98477L38.4937 8.71855C38.5604 8.652 38.8272 8.58545 39.0274 8.58545C39.4944 8.58545 39.6945 8.85166 39.6945 9.38408V10.3824ZM39.3609 9.71684C39.1608 9.71684 38.7605 9.7834 38.7605 10.2493C38.7605 10.5155 38.894 10.6486 39.0274 10.6486C39.1608 10.6486 39.2942 10.5155 39.3609 10.3158C39.3609 10.2493 39.3609 10.2493 39.3609 10.1827V9.71684Z" fill="#201600"/>
<path d="M18.4796 27.4864V26.954L18.8799 26.4216C19.4136 25.756 19.8806 25.1571 19.8806 24.5581C19.8806 24.2253 19.6805 24.0257 19.3469 24.0257C19.08 24.0257 18.8799 24.1588 18.7465 24.2253L18.613 23.5598C18.8132 23.4267 19.1467 23.2936 19.547 23.2936C20.481 23.2936 20.7479 23.8926 20.7479 24.4915C20.7479 25.2902 20.2809 25.8891 19.8139 26.4216L19.547 26.6878H20.8146V27.4198H18.4796V27.4864Z" fill="black"/>
<path d="M23.6165 25.3567C23.6165 26.8209 23.0828 27.4864 22.4157 27.4864C21.4817 27.4864 21.2149 26.4216 21.2149 25.3567C21.2149 24.1588 21.6151 23.2271 22.4824 23.2271C23.4164 23.2936 23.6165 24.425 23.6165 25.3567ZM22.0154 25.4233C22.0154 26.4216 22.1488 26.8209 22.4157 26.8209C22.6826 26.8209 22.7493 26.355 22.7493 25.4233C22.7493 24.5581 22.6826 24.0257 22.4157 24.0257C22.1488 23.9591 22.0154 24.425 22.0154 25.4233Z" fill="black"/>
<path d="M23.9501 27.4864V26.954L24.3504 26.4216C24.8841 25.756 25.3511 25.1571 25.3511 24.5581C25.3511 24.2253 25.151 24.0257 24.8174 24.0257C24.5505 24.0257 24.3504 24.1588 24.217 24.2253L24.0836 23.5598C24.2837 23.4267 24.6173 23.2936 25.0175 23.2936C25.9515 23.2936 26.2184 23.8926 26.2184 24.4915C26.2184 25.2902 25.7514 25.8891 25.2844 26.4216L25.0175 26.6878H26.2851V27.4198H23.9501V27.4864Z" fill="black"/>
<path d="M26.7521 26.6878C26.8855 26.7543 27.1524 26.8209 27.3525 26.8209C27.7528 26.8209 27.9529 26.5547 27.9529 26.2219C27.9529 25.756 27.6194 25.5564 27.1524 25.5564H27.019V24.9574H27.0857C27.4192 24.9574 27.7528 24.8243 27.7528 24.425C27.7528 24.0922 27.5527 23.9591 27.2858 23.9591C27.0857 23.9591 26.8855 24.0257 26.7521 24.0922L26.6187 23.4932C26.8188 23.3601 27.1524 23.2936 27.4859 23.2936C28.2198 23.2936 28.5534 23.7594 28.5534 24.2919C28.5534 24.6912 28.3532 25.0239 27.9529 25.2236C28.3532 25.3567 28.6868 25.6895 28.6868 26.2884C28.6868 26.954 28.2198 27.5529 27.2858 27.5529C26.9522 27.5529 26.6854 27.4864 26.4852 27.3533L26.7521 26.6878Z" fill="black"/>
</svg>
