<svg width="190" height="108" viewBox="0 0 190 108" fill="none" xmlns="http://www.w3.org/2000/svg">
<path d="M65.2935 63.256C63.8293 64.0199 62.4287 64.4019 60.9009 63.7653C59.8186 63.3196 59.0547 62.5557 58.5454 61.5371C57.9088 60.2639 57.8451 58.927 58.4181 57.6538C58.991 56.3806 60.1369 55.6167 61.4738 55.1074C61.4102 54.9164 61.3465 54.7254 61.2192 54.5981C57.6542 47.0224 54.1528 39.4468 50.5878 31.8711C49.9512 30.5342 49.3782 29.1337 49.3782 27.6058C49.3782 26.4599 49.6329 25.4414 50.0785 24.4228C51.6064 21.0488 54.9167 19.0116 58.8001 19.1389C59.755 19.2026 60.7099 19.3936 61.6011 19.5846C63.6383 20.0302 65.7391 20.6031 67.7762 21.0488C68.4765 21.1761 68.7948 21.5581 68.9858 22.2583C70.5137 27.6058 72.0415 33.017 73.633 38.3645C73.6967 38.5555 73.7604 38.6828 73.8877 38.8738C73.9514 38.6828 73.9514 38.4919 74.015 38.3645C75.2882 33.5263 78.153 30.2159 83.1185 28.9427C84.0098 28.6881 85.0284 28.6244 85.9833 28.6244C87.0655 28.5608 88.2114 28.6244 89.2936 28.6244C89.6756 28.6244 89.8666 28.7517 90.0576 29.1337C91.8401 33.0807 93.6226 37.0913 95.4051 41.0383C95.4687 41.1656 95.5324 41.3566 95.5961 41.4839C95.6597 41.4839 95.6597 41.4839 95.7234 41.4839V41.0383C95.7234 37.0277 95.7234 33.017 95.7234 29.0064C95.7234 28.5608 95.8507 28.4334 96.2327 28.4971C97.3786 28.4971 98.5881 28.4971 99.7977 28.4971V41.6749C99.8614 41.6749 99.8614 41.6749 99.925 41.7386C99.9887 41.6113 100.052 41.4203 100.18 41.2929C101.962 37.2823 103.808 33.2717 105.591 29.261C105.718 28.9427 105.909 28.8154 106.291 28.8154C108.01 28.8791 109.729 28.7517 111.384 28.9427C116.668 29.7067 119.978 32.8897 121.697 37.7916C122.143 39.1285 122.334 40.5927 122.334 42.0569C122.334 51.0331 122.334 59.9456 122.334 68.9218C122.334 69.4947 122.27 70.1314 122.079 70.7043C121.57 72.4231 120.106 73.5054 118.45 73.5054C116.732 73.5054 115.267 72.4231 114.822 70.7043C114.631 70.004 114.567 69.3038 114.567 68.6035C114.567 60.2002 114.567 51.7333 114.567 43.3301V42.6298H112.148V73.3144H84.1371V42.3752H81.5907V42.9481C81.5907 48.3593 81.5907 53.7705 81.5907 59.118C81.5907 60.2639 81.4633 61.3461 80.7631 62.3647C80.6994 62.492 80.6994 62.683 80.7631 62.8103C81.145 64.0836 81.4633 65.3568 81.8453 66.63C82.2909 68.0942 82.1 69.5584 81.336 70.8953C79.7445 73.76 75.8612 75.4152 72.6781 74.3966C71.023 73.8873 69.8134 72.8688 69.1131 71.3409C67.9036 68.7945 66.694 66.248 65.5481 63.7016C65.4208 63.6379 65.3571 63.4469 65.2935 63.256ZM67.4579 62.2374C67.4579 62.3011 67.5216 62.3647 67.5216 62.4284C68.7948 65.1021 70.0044 67.8396 71.2776 70.5133C71.7869 71.5956 72.6781 72.1685 73.824 72.3595C75.5429 72.6141 77.0071 72.1048 78.2803 70.9589C79.6172 69.7494 79.8718 68.3488 79.1079 66.6937C73.7604 55.2347 68.4129 43.7757 63.0017 32.3168C62.938 32.1894 62.8744 32.0621 62.8107 31.9348C60.8372 34.9905 58.0998 35.7544 54.6621 35.0542C57.6542 41.4203 60.5826 47.7227 63.5746 54.0888C64.7842 53.5158 65.9937 53.3249 67.2033 53.7705C68.4129 54.2161 69.3041 55.0437 69.8134 56.2533C70.9593 58.4814 70.1954 60.4549 67.4579 62.2374ZM74.9699 51.9243C74.9699 51.9243 75.0336 51.9243 75.0336 51.8607C74.9699 51.7333 74.9699 51.5424 74.9063 51.415C74.3333 49.4415 73.7604 47.4044 73.1874 45.4309C71.0866 38.2372 69.0495 31.0435 67.0123 23.8498C66.885 23.4679 66.694 23.2769 66.312 23.1496C64.6569 22.7676 63.0017 22.3856 61.3465 21.94C60.3279 21.6854 59.2457 21.4307 58.1634 21.4307C55.5533 21.4944 53.1342 23.2132 52.243 25.6324C50.8424 29.261 53.5799 33.1443 57.3995 32.826C59.2457 32.6987 60.7735 31.4892 61.1555 29.834C61.4102 28.7517 61.2192 27.7332 60.5189 26.7783C60.5189 26.9056 60.5826 27.0329 60.6462 27.1602C60.9009 27.7968 61.0282 28.4334 60.8372 29.07C60.5826 30.3433 59.8186 31.1709 58.5454 31.5528C57.2085 31.9984 55.9353 31.6801 54.9167 30.7252C52.9432 28.9427 53.3252 25.5687 55.617 24.0408C58.0998 22.4493 61.4102 23.2132 62.8744 25.8233C63.129 26.2053 63.32 26.6509 63.511 27.0329C67.2033 34.9269 70.8956 42.8208 74.588 50.7148C74.6516 51.2241 74.7789 51.5424 74.9699 51.9243Z" fill="#221F21"/>
<path d="M93.8772 1.1866V1.75955C93.8772 4.05134 93.8772 6.34313 93.8772 8.69859C93.8772 8.82591 93.8772 9.01689 93.8772 9.14422C93.9409 9.6535 94.2592 9.97181 94.7685 9.97181C95.2141 9.97181 95.5324 9.6535 95.5961 9.14422C95.5961 9.01689 95.5961 8.82591 95.5961 8.69859C95.5961 6.15215 95.5961 3.60571 95.5961 1.12294C95.5961 0.740972 95.6597 0.486328 96.1054 0.486328C97.1239 0.486328 98.1425 0.486328 99.2247 0.486328C99.6067 0.486328 99.734 0.677311 99.734 1.05928C99.734 3.60571 99.734 6.21581 99.734 8.76225C99.734 8.88957 99.734 9.01689 99.734 9.14422C99.7977 9.58984 100.116 9.90815 100.562 9.90815C100.944 9.90815 101.326 9.6535 101.389 9.20788C101.389 9.01689 101.389 8.88957 101.389 8.69859C101.389 6.34313 101.389 4.05134 101.389 1.69589V1.12294C101.644 1.1866 101.771 1.25026 101.962 1.37758C104.891 2.84178 106.8 5.19724 108.01 8.1893C108.456 9.3352 108.71 10.5448 108.965 11.7543C109.029 12.1363 109.156 12.2636 109.538 12.2636C110.238 12.2636 110.938 12.2636 111.639 12.2636C111.893 12.2636 112.021 12.3909 112.021 12.6456C112.021 13.1549 112.021 13.6641 112.021 14.1734C112.021 14.4917 111.893 14.5554 111.639 14.5554C110.811 14.5554 109.983 14.5554 109.092 14.5554H83.8825C83.3095 14.5554 83.3095 14.5554 83.3095 13.9824C83.3095 13.6005 83.3095 13.1549 83.3095 12.7729C83.3095 12.4546 83.4368 12.3273 83.7551 12.3909C84.3918 12.3909 85.092 12.3909 85.7286 12.3909C86.1743 12.3909 86.3016 12.2636 86.3652 11.818C86.8109 8.76225 88.0841 6.08849 90.1849 3.7967C91.1398 2.84178 92.1584 2.01419 93.3679 1.44124C93.4953 1.37758 93.5589 1.31392 93.6862 1.31392C93.6862 1.1866 93.7499 1.1866 93.8772 1.1866Z" fill="#221F21"/>
<path d="M97.5696 16.2106C100.371 16.2106 103.235 16.2106 106.036 16.2106C106.355 16.2106 106.546 16.2743 106.546 16.5926C106.546 20.094 105.209 22.895 102.28 24.8049C99.4157 26.651 96.4237 26.7783 93.4316 25.1232C90.1849 23.3407 88.7207 20.4123 88.5934 16.7199C88.5934 16.338 88.7207 16.147 89.1663 16.147C91.9674 16.2106 94.7685 16.2106 97.5696 16.2106Z" fill="#221F21"/>
<path d="M13.7702 103.766C13.7702 103.829 13.7702 103.893 13.7066 103.957C13.6429 104.02 13.5792 104.02 13.5156 104.084C13.4519 104.084 13.3246 104.148 13.1336 104.148C13.0063 104.148 12.8153 104.148 12.5607 104.148C12.306 104.148 12.115 104.148 11.9877 104.148C11.8604 104.148 11.7331 104.084 11.6058 104.084C11.5421 104.084 11.4784 104.02 11.4148 103.957C11.3511 103.893 11.3511 103.829 11.3511 103.766V98.8002C11.3511 98.5455 11.3511 98.2909 11.2875 98.0363C11.2238 97.7816 11.1601 97.5906 11.0328 97.4633C10.9055 97.2723 10.7782 97.145 10.5872 97.0813C10.3962 97.0177 10.2052 96.954 10.0142 96.954C9.75959 96.954 9.44128 97.0813 9.18664 97.2723C8.86834 97.4633 8.61369 97.7816 8.23173 98.2272V103.829C8.23173 103.893 8.23173 103.957 8.16807 104.02C8.1044 104.084 8.04074 104.084 7.97708 104.148C7.91342 104.148 7.7861 104.211 7.59512 104.211C7.46779 104.211 7.27681 104.211 7.02217 104.211C6.76752 104.211 6.57654 104.211 6.44922 104.211C6.3219 104.211 6.19458 104.148 6.06725 104.148C6.00359 104.148 5.93993 104.084 5.87627 104.02C5.81261 103.957 5.81261 103.893 5.81261 103.829V98.8638C5.81261 98.6092 5.81261 98.3546 5.74895 98.0999C5.68529 97.8453 5.62163 97.6543 5.49431 97.527C5.36698 97.336 5.23966 97.2087 5.04868 97.145C4.8577 97.0813 4.66671 97.0177 4.47573 97.0177C4.15743 97.0177 3.90278 97.145 3.58448 97.336C3.26617 97.527 3.01153 97.8453 2.62956 98.2909V103.893C2.62956 103.957 2.62956 104.02 2.5659 104.084C2.50224 104.148 2.43858 104.148 2.37492 104.211C2.31126 104.211 2.18394 104.275 1.99295 104.275C1.86563 104.275 1.67465 104.275 1.42001 104.275C1.16536 104.275 0.974379 104.275 0.847057 104.275C0.719735 104.275 0.592414 104.211 0.465092 104.211C0.401431 104.211 0.33777 104.148 0.274109 104.084C0.401431 103.893 0.401431 103.829 0.401431 103.766V95.3625C0.401431 95.2988 0.401431 95.2352 0.465092 95.1715C0.528753 95.1079 0.528753 95.1079 0.656075 95.0442C0.719735 95.0442 0.847057 94.9805 0.974379 94.9805C1.1017 94.9805 1.29268 94.9805 1.48367 94.9805C1.67465 94.9805 1.86563 94.9805 1.99295 94.9805C2.12028 94.9805 2.2476 95.0442 2.31126 95.0442C2.37492 95.1079 2.43858 95.1079 2.43858 95.1715C2.50224 95.2352 2.50224 95.2988 2.50224 95.3625V96.3174C2.94787 95.8081 3.45716 95.4262 3.90278 95.1715C4.34841 94.9169 4.8577 94.7896 5.36698 94.7896C5.68529 94.7896 6.00359 94.8532 6.3219 94.9169C6.57654 94.9805 6.83119 95.1079 7.08583 95.2352C7.27681 95.3625 7.46779 95.5535 7.65878 95.7445C7.7861 95.9354 7.97708 96.1264 8.04074 96.3811C8.29539 96.1264 8.55003 95.8718 8.80467 95.6808C9.05932 95.4898 9.31396 95.2988 9.50494 95.2352C9.75959 95.1079 9.95057 95.0442 10.2052 94.9805C10.4599 94.9169 10.6508 94.9169 10.9055 94.9169C11.4784 94.9169 11.9241 94.9805 12.306 95.1715C12.688 95.3625 13.0063 95.6171 13.2609 95.9354C13.5156 96.2538 13.6429 96.6357 13.7702 97.0813C13.8975 97.527 13.8976 97.9726 13.8976 98.4819V103.766H13.7702Z" fill="#221F21"/>
<path d="M23.2557 103.766C23.2557 103.83 23.2557 103.893 23.192 103.957C23.1284 104.021 23.0011 104.021 22.8737 104.084C22.7464 104.084 22.5554 104.148 22.3008 104.148C22.0461 104.148 21.7915 104.148 21.6642 104.084C21.5369 104.084 21.4732 104.021 21.4095 103.957C21.3459 103.893 21.3459 103.83 21.3459 103.766V103.129C21.0276 103.511 20.5819 103.766 20.1363 104.021C19.6907 104.212 19.1814 104.339 18.6721 104.339C18.2265 104.339 17.8445 104.275 17.4626 104.148C17.0806 104.021 16.7623 103.83 16.5076 103.639C16.253 103.384 15.9984 103.129 15.871 102.811C15.7437 102.493 15.6164 102.047 15.6164 101.602C15.6164 101.092 15.6801 100.71 15.871 100.328C16.062 99.9464 16.3167 99.6917 16.6986 99.4371C17.0806 99.1825 17.5262 99.0551 18.0992 98.9278C18.6721 98.8005 19.3087 98.7368 20.0727 98.7368H20.9003V98.2275C20.9003 97.9729 20.9003 97.7183 20.8366 97.5273C20.7729 97.3363 20.7093 97.1453 20.5819 97.018C20.4546 96.8907 20.3273 96.7633 20.0727 96.6997C19.8817 96.636 19.627 96.636 19.3087 96.636C18.9268 96.636 18.5448 96.6997 18.2265 96.7633C17.9082 96.827 17.6535 96.9543 17.3989 97.0816C17.1443 97.209 16.9533 97.2726 16.826 97.4C16.635 97.4636 16.5076 97.5273 16.444 97.5273C16.3803 97.5273 16.3167 97.5273 16.253 97.4636C16.1893 97.3999 16.1257 97.3363 16.1257 97.2726C16.062 97.209 16.062 97.0816 16.062 96.9543C16.062 96.827 16.062 96.6997 16.062 96.5724C16.062 96.3814 16.062 96.2541 16.1257 96.1267C16.1257 95.9994 16.1893 95.9358 16.3167 95.8084C16.3803 95.7448 16.5713 95.6174 16.7623 95.4901C16.9533 95.3628 17.2079 95.2991 17.5262 95.1718C17.8445 95.1082 18.1628 94.9808 18.4811 94.9172C18.7994 94.8535 19.1814 94.8535 19.5634 94.8535C20.2 94.8535 20.7729 94.9172 21.2822 95.0445C21.7278 95.1718 22.1098 95.3628 22.4281 95.6174C22.7464 95.8721 22.9374 96.254 23.0647 96.636C23.192 97.0816 23.2557 97.5273 23.2557 98.1002V103.766ZM20.9003 100.201H20.009C19.627 100.201 19.3087 100.201 19.0541 100.265C18.7994 100.328 18.5448 100.392 18.4175 100.519C18.2265 100.647 18.0992 100.774 18.0355 100.901C17.9718 101.029 17.9082 101.22 17.9082 101.474C17.9082 101.856 18.0355 102.111 18.2265 102.302C18.4175 102.493 18.7358 102.62 19.1814 102.62C19.4997 102.62 19.818 102.556 20.0727 102.365C20.3273 102.175 20.6456 101.92 20.9003 101.602V100.201Z" fill="#221F21"/>
<path d="M38.9799 103.766C38.9799 103.83 38.9799 103.893 38.9163 103.957C38.8526 104.021 38.789 104.021 38.7253 104.084C38.6616 104.084 38.5343 104.148 38.3433 104.148C38.216 104.148 38.025 104.148 37.7704 104.148C37.5157 104.148 37.3248 104.148 37.1974 104.148C37.0701 104.148 36.9428 104.084 36.8155 104.084C36.7518 104.084 36.6882 104.021 36.6245 103.957C36.5608 103.893 36.5608 103.83 36.5608 103.766V98.8003C36.5608 98.5457 36.5608 98.291 36.4972 98.0364C36.4335 97.7817 36.3698 97.5908 36.2425 97.4634C36.1152 97.2724 35.9879 97.1451 35.8606 97.0815C35.6696 97.0178 35.4786 96.9541 35.2876 96.9541C35.033 96.9541 34.7147 97.0815 34.46 97.2724C34.1417 97.4634 33.8871 97.7817 33.5051 98.2274V103.83C33.5051 103.893 33.5051 103.957 33.4414 104.021C33.3778 104.084 33.3141 104.084 33.2505 104.148C33.1868 104.148 33.0595 104.211 32.8685 104.211C32.7412 104.211 32.5502 104.211 32.2955 104.211C32.0409 104.211 31.8499 104.211 31.7226 104.211C31.5953 104.211 31.468 104.148 31.3406 104.148C31.277 104.148 31.2133 104.084 31.1496 104.021C31.086 103.957 31.086 103.893 31.086 103.83V98.864C31.086 98.6093 31.086 98.3547 31.0223 98.1C30.9587 97.8454 30.895 97.6544 30.7677 97.5271C30.6404 97.3361 30.513 97.2088 30.3857 97.1451C30.1947 97.0815 30.0038 97.0178 29.8128 97.0178C29.4945 97.0178 29.2398 97.1451 28.9215 97.3361C28.6032 97.5271 28.3486 97.8454 27.9666 98.291V103.893C27.9666 103.957 27.9666 104.021 27.9029 104.084C27.8393 104.148 27.7756 104.148 27.712 104.211C27.6483 104.211 27.521 104.275 27.33 104.275C27.2027 104.275 27.0117 104.275 26.757 104.275C26.5024 104.275 26.3114 104.275 26.1841 104.275C26.0568 104.275 25.9295 104.211 25.8021 104.211C25.7385 104.211 25.6748 104.148 25.6111 104.084C25.5475 104.021 25.5475 103.957 25.5475 103.893V95.4899C25.5475 95.4263 25.5475 95.3626 25.6111 95.299C25.6111 95.2353 25.6748 95.2353 25.8021 95.1716C25.8658 95.1716 25.9931 95.108 26.1204 95.108C26.2478 95.108 26.4387 95.108 26.6297 95.108C26.8207 95.108 27.0117 95.108 27.139 95.108C27.2663 95.108 27.3937 95.1716 27.4573 95.1716C27.521 95.2353 27.5846 95.2353 27.5846 95.299C27.5846 95.3626 27.6483 95.4263 27.6483 95.4899V96.4449C28.0939 95.9356 28.6032 95.5536 29.0488 95.299C29.4945 95.0443 30.0038 94.917 30.513 94.917C30.8313 94.917 31.1496 94.9807 31.468 95.0443C31.7226 95.108 31.9772 95.2353 32.2319 95.3626C32.4229 95.4899 32.6139 95.6809 32.8048 95.8719C32.9322 96.0629 33.1231 96.2539 33.1868 96.5085C33.4414 96.2539 33.6961 95.9992 33.9507 95.8083C34.2054 95.6173 34.46 95.4263 34.651 95.3626C34.9056 95.2353 35.0966 95.1716 35.3513 95.108C35.6059 95.0443 35.7969 95.0443 36.0515 95.0443C36.6245 95.0443 37.0701 95.108 37.4521 95.299C37.834 95.4899 38.1524 95.7446 38.407 96.0629C38.6616 96.3812 38.789 96.7632 38.9163 97.2088C39.0436 97.6544 39.0436 98.1 39.0436 98.6093V103.766H38.9799Z" fill="#221F21"/>
<path d="M45.7917 104.084L44.7731 107.076C44.7094 107.204 44.5821 107.331 44.3275 107.395C44.0728 107.458 43.6909 107.522 43.2452 107.522C42.9906 107.522 42.7996 107.522 42.6723 107.458C42.545 107.458 42.4176 107.395 42.354 107.331C42.2903 107.267 42.2267 107.204 42.2267 107.14C42.2267 107.076 42.2267 106.949 42.2903 106.885L43.4362 104.084C43.3726 104.021 43.3089 104.021 43.2452 103.893C43.1816 103.766 43.1179 103.702 43.1179 103.639L40.2532 95.9356C40.1895 95.7446 40.1259 95.5536 40.1259 95.4263C40.1259 95.299 40.1895 95.2353 40.2532 95.1716C40.3168 95.108 40.4442 95.0443 40.6351 95.0443C40.8261 95.0443 41.0808 94.9807 41.3354 94.9807C41.5901 94.9807 41.8447 94.9807 41.972 94.9807C42.0993 94.9807 42.2267 95.0443 42.354 95.0443C42.4176 95.108 42.4813 95.108 42.545 95.2353C42.6086 95.299 42.6086 95.4263 42.6723 95.5536L44.6458 101.156L46.4283 95.4263C46.4919 95.2353 46.4919 95.1716 46.5556 95.108C46.6193 95.0443 46.6829 95.0443 46.8739 94.9807C47.0012 94.9807 47.2559 94.917 47.5742 94.917C47.8288 94.917 48.0835 94.917 48.2745 94.9807C48.4654 94.9807 48.5928 95.0443 48.6564 95.108C48.7201 95.1716 48.7837 95.299 48.7837 95.3626C48.7837 95.4899 48.7837 95.6173 48.7201 95.7446L45.7917 104.084Z" fill="#221F21"/>
<path d="M64.699 97.7816C64.699 98.9275 64.5717 99.8824 64.2534 100.646C63.9351 101.41 63.5531 102.111 62.9802 102.62C62.4072 103.129 61.7706 103.511 61.0067 103.702C60.2427 103.957 59.2878 104.084 58.2056 104.084H55.2772C55.0862 104.084 54.8952 104.02 54.7679 103.893C54.6406 103.766 54.5769 103.575 54.5769 103.32V92.6887C54.5769 92.4341 54.6406 92.2431 54.7679 92.1158C54.8952 91.9885 55.0862 91.9248 55.2772 91.9248H58.3966C59.4788 91.9248 60.4337 92.0521 61.134 92.3068C61.8979 92.5614 62.5345 92.9434 63.0438 93.4527C63.5531 93.962 63.9351 94.5986 64.2534 95.2988C64.5717 95.9991 64.699 96.8267 64.699 97.7816ZM62.1526 97.9089C62.1526 97.336 62.0889 96.763 61.9616 96.3174C61.8342 95.8081 61.5796 95.3625 61.325 95.0442C61.0067 94.6622 60.6247 94.4076 60.1791 94.2166C59.7334 94.0256 59.0968 93.8983 58.3329 93.8983H57.0597V102.174H58.3329C59.0332 102.174 59.6061 102.111 60.0517 101.92C60.4974 101.729 60.8793 101.474 61.1976 101.156C61.5159 100.774 61.7706 100.392 61.8979 99.8188C62.0252 99.1821 62.1526 98.6092 62.1526 97.9089Z" fill="#221F21"/>
<path d="M77.6858 97.8455C77.6858 98.8641 77.5585 99.7553 77.3038 100.583C77.0492 101.411 76.6672 102.047 76.1579 102.62C75.6486 103.193 75.0757 103.575 74.3117 103.893C73.6115 104.212 72.7202 104.339 71.7653 104.339C70.8104 104.339 69.9828 104.212 69.2825 103.957C68.5823 103.702 68.0093 103.32 67.5 102.811C67.0544 102.302 66.6724 101.665 66.4178 100.901C66.1631 100.137 66.0358 99.1824 66.0358 98.1002C66.0358 97.1452 66.1631 96.254 66.4178 95.4264C66.6724 94.6625 67.0544 93.9622 67.5637 93.3893C68.073 92.8163 68.6459 92.4343 69.4099 92.116C70.1101 91.7977 71.0014 91.6704 71.9563 91.6704C72.8475 91.6704 73.6751 91.7977 74.3754 92.0524C75.0757 92.307 75.6486 92.689 76.1579 93.1983C76.6035 93.7076 76.9855 94.3442 77.2402 95.1081C77.5585 95.872 77.6858 96.7633 77.6858 97.8455ZM75.0757 97.9728C75.0757 97.3362 75.012 96.7633 74.9484 96.254C74.821 95.7447 74.6937 95.2991 74.4391 94.9171C74.1844 94.5351 73.8661 94.2805 73.4842 94.0259C73.1022 93.8349 72.5929 93.7076 71.9563 93.7076C71.3197 93.7076 70.8104 93.8349 70.4284 94.0259C70.0465 94.2805 69.6645 94.5351 69.4099 94.9171C69.1552 95.2991 68.9642 95.7447 68.9006 96.254C68.7732 96.7633 68.7732 97.3362 68.7732 97.8455C68.7732 98.4821 68.8369 99.1187 68.9006 99.628C69.0279 100.137 69.1552 100.583 69.4099 100.965C69.6645 101.347 69.9828 101.602 70.3648 101.856C70.7467 102.047 71.256 102.174 71.8926 102.174C72.5292 102.174 73.0385 102.047 73.4205 101.856C73.8025 101.602 74.1844 101.347 74.4391 100.965C74.6937 100.583 74.8847 100.137 74.9484 99.628C75.012 99.1187 75.0757 98.5458 75.0757 97.9728Z" fill="#221F21"/>
<path d="M86.9803 100.392C86.9803 101.029 86.8529 101.602 86.5983 102.048C86.3436 102.557 86.0253 102.939 85.6434 103.257C85.2614 103.575 84.7521 103.83 84.2428 103.957C83.6699 104.148 83.0969 104.212 82.4603 104.212C82.0147 104.212 81.6327 104.148 81.3144 104.085C80.9325 104.021 80.6142 103.957 80.3595 103.83C80.1049 103.703 79.8502 103.639 79.6593 103.512C79.4683 103.384 79.3409 103.321 79.2773 103.257C79.2136 103.193 79.15 103.066 79.0863 102.875C79.0226 102.748 79.0226 102.493 79.0226 102.238C79.0226 102.048 79.0226 101.857 79.0226 101.729C79.0226 101.602 79.0863 101.475 79.0863 101.411C79.0863 101.347 79.15 101.284 79.2136 101.22C79.2773 101.156 79.3409 101.156 79.4046 101.156C79.4683 101.156 79.5956 101.22 79.7866 101.284C79.9776 101.411 80.1685 101.475 80.4232 101.602C80.6778 101.729 80.9961 101.857 81.3144 101.92C81.6327 102.048 82.0784 102.048 82.524 102.048C82.8423 102.048 83.0969 101.984 83.3516 101.92C83.6062 101.857 83.7972 101.729 83.9882 101.602C84.1792 101.475 84.3065 101.284 84.3702 101.093C84.4338 100.902 84.4975 100.711 84.4975 100.456C84.4975 100.201 84.4338 99.9467 84.2428 99.7557C84.1155 99.5647 83.9245 99.3738 83.6699 99.2464C83.4153 99.1191 83.1606 98.9281 82.8423 98.8008C82.524 98.6735 82.2057 98.5462 81.8874 98.3552C81.5691 98.2279 81.2508 98.0369 80.9325 97.8459C80.6142 97.6549 80.3595 97.4003 80.1049 97.1456C79.8502 96.891 79.6593 96.5727 79.5319 96.1907C79.4046 95.8087 79.2773 95.3631 79.2773 94.8538C79.2773 94.2809 79.4046 93.7716 79.5956 93.326C79.7866 92.8803 80.1049 92.4984 80.4868 92.2437C80.8688 91.9254 81.3144 91.7344 81.7601 91.6071C82.2694 91.4798 82.7786 91.4161 83.3516 91.4161C83.6699 91.4161 83.9245 91.4161 84.2428 91.4798C84.5611 91.5435 84.8158 91.6071 85.0704 91.6708C85.3251 91.7344 85.5161 91.8618 85.707 91.9254C85.898 91.9891 86.0254 92.1164 86.089 92.1801C86.1527 92.2437 86.2163 92.3074 86.2163 92.371C86.2163 92.4347 86.28 92.4984 86.28 92.562C86.28 92.6257 86.28 92.753 86.3437 92.8167C86.3437 92.944 86.3437 93.0713 86.3437 93.1986C86.3437 93.3896 86.3437 93.5169 86.3437 93.6443C86.3437 93.7716 86.3436 93.8989 86.28 93.9626C86.28 94.0262 86.2163 94.0899 86.2163 94.1536C86.1527 94.2172 86.089 94.2172 86.0253 94.2172C85.9617 94.2172 85.8344 94.1536 85.707 94.0899C85.5797 94.0262 85.3887 93.8989 85.1341 93.7716C84.9431 93.6443 84.6885 93.5806 84.3702 93.5169C84.0519 93.4533 83.7335 93.3896 83.4152 93.3896C83.1606 93.3896 82.906 93.4533 82.715 93.5169C82.524 93.5806 82.333 93.6443 82.2057 93.7716C82.0784 93.8989 81.951 94.0262 81.8874 94.2172C81.8237 94.4082 81.7601 94.5355 81.7601 94.7265C81.7601 94.9811 81.8237 95.2358 81.9511 95.4268C82.0784 95.6178 82.2694 95.8087 82.524 95.9361C82.7786 96.0634 83.0333 96.2544 83.3516 96.3817C83.6699 96.509 83.9882 96.6363 84.3065 96.8273C84.6248 96.9546 84.9431 97.1456 85.2614 97.3366C85.5797 97.5276 85.8344 97.7822 86.089 98.0369C86.3437 98.2915 86.5346 98.6098 86.662 98.9918C86.9166 99.5011 86.9803 99.9467 86.9803 100.392ZM83.7972 88.6151C83.8609 88.5514 83.9882 88.4241 84.0519 88.3604C84.1155 88.2967 84.2428 88.2331 84.3065 88.2331C84.4338 88.2331 84.5611 88.1694 84.6885 88.1694C84.8158 88.1694 85.0704 88.1694 85.2614 88.1694C85.5797 88.1694 85.7707 88.1694 85.9617 88.2331C86.1527 88.2967 86.2163 88.2967 86.28 88.3604C86.3436 88.4241 86.3437 88.4877 86.3437 88.5514C86.28 88.6151 86.28 88.6787 86.1527 88.806L84.0519 90.7159C83.9882 90.7795 83.9245 90.8432 83.8609 90.8432C83.7972 90.9069 83.7336 90.9069 83.6062 90.9705C83.5426 90.9705 83.4152 91.0342 83.2879 91.0342C83.1606 91.0342 82.9696 91.0342 82.7786 91.0342C82.5877 91.0342 82.3967 91.0342 82.2694 91.0342C82.142 91.0342 82.0784 90.9705 82.0147 90.9705C81.951 90.9069 81.9511 90.9069 81.9511 90.8432C81.9511 90.7795 82.0147 90.7159 82.0784 90.5885L83.7972 88.6151Z" fill="#221F21"/>
<path d="M101.559 103.448C101.495 103.575 101.495 103.702 101.431 103.83C101.368 103.893 101.24 104.021 101.113 104.021C100.986 104.084 100.795 104.084 100.604 104.084C100.413 104.084 100.158 104.084 99.8398 104.084C99.4579 104.084 99.2032 104.084 98.9486 104.084C98.7576 104.084 98.5666 104.021 98.4393 104.021C98.312 103.957 98.2483 103.893 98.1847 103.83C98.121 103.766 98.0573 103.639 98.0573 103.448L96.0838 95.7446L94.2377 103.448C94.2377 103.575 94.174 103.702 94.1104 103.83C94.0467 103.893 93.983 104.021 93.8557 104.021C93.7284 104.084 93.5374 104.084 93.3464 104.148C93.1554 104.148 92.8371 104.148 92.5188 104.148C92.1369 104.148 91.8822 104.148 91.6276 104.148C91.4366 104.148 91.2456 104.084 91.1183 104.084C90.991 104.021 90.9273 103.957 90.8636 103.893C90.8 103.83 90.7363 103.702 90.7363 103.511L87.9989 92.8799C87.9352 92.6253 87.9352 92.4979 87.9352 92.3706C87.9352 92.2433 87.9352 92.116 88.0626 92.0523C88.1262 91.9887 88.2535 91.925 88.4445 91.925C88.6355 91.925 88.8902 91.925 89.2085 91.925C89.5268 91.925 89.7178 91.925 89.9087 91.925C90.0997 91.925 90.227 91.9887 90.2907 91.9887C90.3544 92.0523 90.418 92.0523 90.4817 92.116C90.4817 92.1796 90.5453 92.307 90.5453 92.3706L92.7098 101.729L94.9379 92.4343C94.9379 92.307 95.0016 92.2433 95.0653 92.116C95.1289 92.0523 95.1926 91.9887 95.2562 91.925C95.3836 91.8613 95.5109 91.8613 95.6382 91.8613C95.8292 91.8613 96.0202 91.8613 96.3385 91.8613C96.6568 91.8613 96.9114 91.8613 97.0388 91.8613C97.2297 91.8613 97.3571 91.925 97.4844 91.925C97.6117 91.9887 97.6754 92.0523 97.6754 92.116C97.739 92.1796 97.739 92.307 97.8027 92.4343L100.094 101.729L102.259 92.4343C102.259 92.307 102.323 92.2433 102.323 92.1796C102.323 92.116 102.386 92.0523 102.514 91.9887C102.577 91.925 102.705 91.925 102.896 91.925C103.087 91.925 103.278 91.925 103.596 91.925C103.85 91.925 104.105 91.925 104.232 91.925C104.36 91.925 104.487 91.9887 104.551 92.0523C104.614 92.116 104.678 92.2433 104.614 92.3706C104.614 92.4979 104.551 92.6889 104.487 92.9436L101.559 103.448Z" fill="#221F21"/>
<path d="M108.689 103.766C108.689 103.83 108.689 103.893 108.625 103.957C108.561 104.021 108.498 104.021 108.434 104.084C108.37 104.148 108.243 104.148 108.052 104.148C107.925 104.148 107.67 104.148 107.479 104.148C107.225 104.148 107.034 104.148 106.906 104.148C106.715 104.148 106.588 104.084 106.524 104.084C106.461 104.084 106.333 104.021 106.333 103.957C106.27 103.893 106.27 103.83 106.27 103.766V92.2433C106.27 92.1796 106.27 92.116 106.333 92.0523C106.397 91.9887 106.461 91.9887 106.524 91.925C106.652 91.925 106.779 91.8613 106.906 91.8613C107.034 91.8613 107.288 91.8613 107.479 91.8613C107.734 91.8613 107.925 91.8613 108.052 91.8613C108.179 91.8613 108.307 91.925 108.434 91.925C108.498 91.9887 108.625 91.9887 108.625 92.0523C108.689 92.116 108.689 92.1796 108.689 92.2433V103.766Z" fill="#221F21"/>
<path d="M121.294 103.129C121.357 103.384 121.421 103.511 121.421 103.638C121.421 103.766 121.421 103.893 121.357 103.957C121.294 104.02 121.166 104.084 120.975 104.084C120.784 104.084 120.53 104.084 120.275 104.084C119.957 104.084 119.702 104.084 119.511 104.084C119.32 104.084 119.193 104.084 119.129 104.02C119.065 104.02 119.002 103.957 118.938 103.893C118.874 103.829 118.874 103.766 118.874 103.702L118.047 101.283H113.463L112.699 103.638C112.699 103.702 112.636 103.829 112.572 103.829C112.508 103.893 112.445 103.957 112.381 103.957C112.317 104.02 112.19 104.02 111.999 104.02C111.808 104.02 111.617 104.02 111.362 104.02C111.044 104.02 110.853 104.02 110.662 104.02C110.471 104.02 110.408 103.957 110.344 103.893C110.28 103.829 110.28 103.702 110.28 103.575C110.28 103.447 110.344 103.256 110.408 103.065L114.164 92.243C114.227 92.1157 114.227 92.052 114.291 91.9883C114.355 91.9247 114.418 91.861 114.545 91.861C114.673 91.7974 114.8 91.7974 114.991 91.7974C115.182 91.7974 115.437 91.7974 115.755 91.7974C116.137 91.7974 116.392 91.7974 116.646 91.7974C116.837 91.7974 117.028 91.861 117.156 91.861C117.283 91.9247 117.347 91.9247 117.41 91.9883C117.474 92.052 117.538 92.1793 117.538 92.243L121.294 103.129ZM115.691 94.2165L113.973 99.373H117.41L115.691 94.2165Z" fill="#221F21"/>
<path d="M133.134 97.7816C133.134 98.9275 133.007 99.8824 132.689 100.646C132.37 101.41 131.989 102.111 131.416 102.62C130.843 103.129 130.206 103.511 129.442 103.702C128.678 103.957 127.723 104.084 126.641 104.084H123.713C123.522 104.084 123.331 104.02 123.203 103.893C123.076 103.766 123.012 103.575 123.012 103.32V92.6887C123.012 92.4341 123.076 92.2431 123.203 92.1158C123.331 91.9885 123.522 91.9248 123.713 91.9248H126.832C127.914 91.9248 128.869 92.0521 129.569 92.3068C130.333 92.5614 130.97 92.9434 131.479 93.4527C131.989 93.962 132.37 94.5986 132.689 95.2988C133.007 95.9991 133.134 96.8267 133.134 97.7816ZM130.588 97.9089C130.588 97.336 130.524 96.763 130.397 96.3174C130.27 95.8081 130.015 95.3625 129.76 95.0442C129.442 94.6622 129.06 94.4076 128.614 94.2166C128.169 94.0256 127.532 93.8983 126.768 93.8983H125.495V102.174H126.768C127.469 102.174 128.042 102.111 128.487 101.92C128.933 101.729 129.315 101.474 129.633 101.156C129.951 100.774 130.206 100.392 130.333 99.8188C130.524 99.1821 130.588 98.6092 130.588 97.9089Z" fill="#221F21"/>
<path d="M143.575 102.238C143.575 102.366 143.575 102.557 143.575 102.62C143.575 102.748 143.575 102.811 143.511 102.875C143.511 102.939 143.448 103.002 143.448 103.066C143.384 103.13 143.384 103.193 143.32 103.257C143.257 103.321 143.129 103.448 142.938 103.512C142.747 103.639 142.493 103.703 142.238 103.83C141.983 103.957 141.601 104.021 141.283 104.084C140.901 104.148 140.519 104.212 140.074 104.212C139.246 104.212 138.482 104.084 137.845 103.83C137.145 103.575 136.572 103.193 136.127 102.684C135.681 102.175 135.299 101.538 135.044 100.774C134.79 100.01 134.662 99.1189 134.662 98.1003C134.662 97.0818 134.79 96.1269 135.044 95.3629C135.299 94.5353 135.681 93.8987 136.19 93.3258C136.7 92.7528 137.272 92.3709 137.973 92.0526C138.673 91.7979 139.437 91.6069 140.265 91.6069C140.583 91.6069 140.901 91.6069 141.219 91.6706C141.538 91.7343 141.792 91.7979 142.111 91.8616C142.365 91.9252 142.62 92.0526 142.811 92.1799C143.002 92.3072 143.193 92.3709 143.257 92.4982C143.32 92.5618 143.384 92.6255 143.448 92.6892C143.511 92.7528 143.511 92.8165 143.511 92.8802C143.511 92.9438 143.511 93.0711 143.575 93.1985C143.575 93.3258 143.575 93.4531 143.575 93.6441C143.575 93.8351 143.575 93.9624 143.575 94.1534C143.575 94.2807 143.511 94.408 143.511 94.4717C143.448 94.5353 143.448 94.599 143.384 94.6627C143.32 94.7263 143.32 94.7263 143.257 94.7263C143.193 94.7263 143.066 94.6627 142.875 94.5353C142.747 94.408 142.556 94.2807 142.302 94.1534C142.047 94.026 141.792 93.8987 141.474 93.7714C141.156 93.6441 140.774 93.5804 140.328 93.5804C139.819 93.5804 139.437 93.7077 139.055 93.8987C138.673 94.0897 138.355 94.408 138.1 94.7263C137.845 95.1083 137.654 95.5539 137.463 96.0632C137.336 96.5725 137.272 97.1454 137.272 97.8457C137.272 98.546 137.336 99.1826 137.463 99.6919C137.591 100.201 137.845 100.647 138.1 100.965C138.355 101.283 138.673 101.538 139.119 101.729C139.501 101.92 139.946 101.984 140.392 101.984C140.837 101.984 141.219 101.92 141.538 101.856C141.856 101.729 142.111 101.665 142.365 101.538C142.62 101.411 142.811 101.283 142.938 101.22C143.066 101.092 143.193 101.092 143.257 101.092C143.32 101.092 143.384 101.092 143.384 101.156C143.448 101.156 143.448 101.22 143.448 101.283C143.448 101.347 143.511 101.474 143.511 101.602C143.575 101.856 143.575 101.984 143.575 102.238Z" fill="#221F21"/>
<path d="M152.869 103.129C152.869 103.32 152.869 103.448 152.869 103.575C152.869 103.702 152.806 103.83 152.806 103.893C152.742 103.957 152.742 104.021 152.678 104.084C152.615 104.084 152.551 104.148 152.551 104.148H145.357C145.103 104.148 144.912 104.084 144.784 103.957C144.657 103.83 144.593 103.575 144.593 103.32V102.938C144.593 102.811 144.593 102.684 144.593 102.62C144.593 102.493 144.657 102.429 144.657 102.302C144.721 102.175 144.721 102.111 144.848 101.984C144.912 101.856 145.039 101.729 145.103 101.538L149.814 94.0259H145.103C145.039 94.0259 144.975 94.0259 144.912 93.9623C144.848 93.8986 144.784 93.8986 144.784 93.7713C144.721 93.7076 144.721 93.5803 144.721 93.453C144.721 93.3256 144.721 93.1983 144.721 93.0073C144.721 92.8164 144.721 92.689 144.721 92.5617C144.721 92.4344 144.784 92.3071 144.784 92.2434C144.848 92.1797 144.848 92.1161 144.912 92.0524C144.975 92.0524 145.039 91.9888 145.103 91.9888H151.851C152.105 91.9888 152.296 92.0524 152.424 92.1797C152.551 92.3071 152.615 92.4981 152.615 92.7527V93.1983C152.615 93.3893 152.615 93.5166 152.615 93.6439C152.615 93.7713 152.551 93.8986 152.551 94.0259C152.487 94.1532 152.487 94.2806 152.36 94.4079C152.296 94.5352 152.233 94.6625 152.105 94.8535L147.458 102.238H152.551C152.678 102.238 152.742 102.302 152.806 102.493C152.806 102.493 152.869 102.747 152.869 103.129Z" fill="#221F21"/>
<path d="M161.782 103.129C161.782 103.32 161.782 103.448 161.782 103.575C161.782 103.702 161.718 103.766 161.718 103.893C161.655 103.957 161.655 104.021 161.591 104.084C161.527 104.148 161.464 104.148 161.464 104.148H155.352C155.161 104.148 154.97 104.084 154.843 103.957C154.716 103.83 154.652 103.639 154.652 103.384V92.7527C154.652 92.4981 154.716 92.3071 154.843 92.1797C154.97 92.0524 155.161 91.9888 155.352 91.9888H161.464C161.527 91.9888 161.591 91.9888 161.591 92.0524C161.655 92.1161 161.655 92.1161 161.718 92.2434C161.718 92.3071 161.782 92.4344 161.782 92.5617C161.782 92.689 161.782 92.8164 161.782 93.0073C161.782 93.1983 161.782 93.3256 161.782 93.453C161.782 93.5803 161.718 93.6439 161.718 93.7713C161.718 93.8349 161.655 93.8986 161.591 93.9623C161.527 94.0259 161.527 94.0259 161.464 94.0259H157.135V97.018H160.827C160.891 97.018 160.954 97.018 160.954 97.0816C161.018 97.1453 161.018 97.1453 161.082 97.2726C161.145 97.3363 161.145 97.4636 161.145 97.5909C161.145 97.7182 161.145 97.8456 161.145 98.0366C161.145 98.2275 161.145 98.3549 161.145 98.4822C161.145 98.6095 161.082 98.6732 161.082 98.8005C161.082 98.8641 161.018 98.9278 160.954 98.9278C160.891 98.9915 160.827 98.9915 160.827 98.9915H157.135V102.429H161.527C161.591 102.429 161.655 102.429 161.655 102.493C161.718 102.556 161.718 102.556 161.782 102.684C161.782 102.747 161.846 102.875 161.846 103.002C161.782 102.747 161.782 102.938 161.782 103.129Z" fill="#221F21"/>
<path d="M174.068 103.193C174.068 103.32 174.068 103.447 174.005 103.575C173.941 103.702 173.877 103.766 173.814 103.829C173.75 103.893 173.623 103.957 173.495 104.02C173.368 104.084 173.241 104.084 173.114 104.084H172.031C171.84 104.084 171.649 104.084 171.458 104.02C171.267 103.957 171.14 103.893 171.013 103.766C170.885 103.638 170.758 103.511 170.631 103.32C170.503 103.129 170.376 102.874 170.185 102.556L167.129 96.8904C166.938 96.5721 166.747 96.1901 166.62 95.8081C166.429 95.4262 166.302 95.0442 166.111 94.6622C166.111 95.1079 166.174 95.5535 166.174 95.9991C166.174 96.4447 166.174 96.8904 166.174 97.3996V103.766C166.174 103.829 166.174 103.893 166.111 103.957C166.047 104.02 166.047 104.02 165.92 104.084C165.856 104.148 165.729 104.148 165.602 104.148C165.474 104.148 165.283 104.148 165.029 104.148C164.838 104.148 164.647 104.148 164.456 104.148C164.328 104.148 164.201 104.084 164.137 104.084C164.074 104.084 164.01 104.02 163.946 103.957C163.883 103.893 163.883 103.829 163.883 103.766V92.8161C163.883 92.4977 163.946 92.3068 164.137 92.1794C164.328 92.0521 164.519 91.9885 164.774 91.9885H166.111C166.365 91.9885 166.556 91.9885 166.684 92.0521C166.875 92.1158 167.002 92.1794 167.129 92.2431C167.257 92.3068 167.384 92.4978 167.511 92.6251C167.639 92.7524 167.766 93.007 167.83 93.2617L170.185 97.718C170.312 97.9726 170.44 98.2272 170.567 98.4819C170.694 98.7365 170.822 98.9912 170.949 99.2458C171.076 99.5005 171.204 99.7551 171.331 100.01C171.458 100.264 171.586 100.519 171.649 100.774C171.649 100.328 171.586 99.8824 171.586 99.3731C171.586 98.9275 171.586 98.4182 171.586 98.0363V92.3068C171.586 92.2431 171.586 92.1795 171.649 92.1158C171.713 92.0521 171.777 92.0521 171.84 91.9885C171.904 91.9248 172.031 91.9248 172.159 91.9248C172.286 91.9248 172.477 91.9248 172.732 91.9248C172.923 91.9248 173.114 91.9248 173.241 91.9248C173.368 91.9248 173.495 91.9885 173.559 91.9885C173.623 92.0521 173.686 92.0521 173.75 92.1158C173.75 92.1795 173.814 92.2431 173.814 92.3068V103.193H174.068Z" fill="#221F21"/>
<path d="M179.161 103.766C179.161 103.83 179.161 103.893 179.098 103.957C179.034 104.021 178.97 104.021 178.907 104.084C178.843 104.148 178.716 104.148 178.525 104.148C178.397 104.148 178.143 104.148 177.952 104.148C177.697 104.148 177.506 104.148 177.379 104.148C177.188 104.148 177.06 104.084 176.997 104.084C176.933 104.084 176.806 104.021 176.806 103.957C176.742 103.893 176.742 103.83 176.742 103.766V92.2433C176.742 92.1796 176.742 92.116 176.806 92.0523C176.87 91.9887 176.933 91.9887 176.997 91.925C177.124 91.925 177.251 91.8613 177.379 91.8613C177.506 91.8613 177.761 91.8613 177.952 91.8613C178.206 91.8613 178.397 91.8613 178.525 91.8613C178.652 91.8613 178.779 91.925 178.907 91.925C178.97 91.9887 179.098 91.9887 179.098 92.0523C179.161 92.116 179.161 92.1796 179.161 92.2433V103.766Z" fill="#221F21"/>
<path d="M189.029 103.129C189.029 103.32 189.029 103.448 189.029 103.575C189.029 103.702 188.965 103.766 188.965 103.893C188.965 103.957 188.902 104.021 188.838 104.084C188.774 104.148 188.711 104.148 188.711 104.148H182.599C182.408 104.148 182.217 104.084 182.09 103.957C181.962 103.83 181.899 103.639 181.899 103.384V92.7527C181.899 92.4981 181.962 92.3071 182.09 92.1797C182.217 92.0524 182.408 91.9888 182.599 91.9888H188.711C188.774 91.9888 188.838 91.9888 188.838 92.0524C188.902 92.1161 188.902 92.1161 188.965 92.2434C188.965 92.3071 189.029 92.4344 189.029 92.5617C189.029 92.689 189.029 92.8164 189.029 93.0073C189.029 93.1983 189.029 93.3256 189.029 93.453C189.029 93.5803 188.965 93.6439 188.965 93.7713C188.965 93.8986 188.902 93.8986 188.838 93.9623C188.774 94.0259 188.774 94.0259 188.711 94.0259H184.382V97.018H188.074C188.138 97.018 188.201 97.018 188.201 97.0816C188.265 97.1453 188.265 97.1453 188.329 97.2726C188.329 97.3363 188.392 97.4636 188.392 97.5909C188.392 97.7182 188.392 97.8456 188.392 98.0366C188.392 98.2275 188.392 98.3549 188.392 98.4822C188.392 98.6095 188.329 98.6732 188.329 98.8005C188.329 98.8641 188.265 98.9278 188.201 98.9278C188.138 98.9915 188.074 98.9915 188.074 98.9915H184.382V102.429H188.774C188.838 102.429 188.902 102.429 188.902 102.493C188.965 102.556 188.965 102.556 189.029 102.684C189.029 102.747 189.092 102.875 189.092 103.002C189.029 102.747 189.029 102.938 189.029 103.129Z" fill="#221F21"/>
</svg>
