<svg width="201" height="100" viewBox="0 0 201 100" fill="none" xmlns="http://www.w3.org/2000/svg">
<g clip-path="url(#clip0_290_742)">
<path d="M4.5325 95.8442C4.5325 96.4662 4.47029 97.0261 4.34588 97.3993C4.22147 97.7725 4.09707 98.1457 3.84825 98.3945C3.59943 98.6434 3.35061 98.8922 2.97739 99.0166C2.66637 99.141 2.23094 99.2032 1.79551 99.2032C1.54669 99.2032 1.36008 99.2032 1.17346 99.141C0.986852 99.0788 0.862443 99.0788 0.800239 99.0166C0.738035 98.9544 0.675831 98.9544 0.613626 98.8922C0.613626 98.83 0.551422 98.7678 0.551422 98.7056C0.551422 98.6434 0.551422 98.5812 0.551422 98.4568C0.551422 98.3945 0.551422 98.2701 0.551422 98.0835C0.551422 97.8969 0.551422 97.7725 0.551422 97.6481C0.551422 97.5237 0.551422 97.4615 0.613626 97.3993C0.613626 97.3371 0.675831 97.2749 0.675831 97.2749C0.675831 97.2127 0.738035 97.2127 0.800239 97.2127C0.862443 97.2127 0.924648 97.2127 0.986852 97.2127C1.11126 97.2127 1.17346 97.2127 1.29787 97.2127C1.48449 97.2127 1.60889 97.2127 1.7333 97.1505C1.85771 97.0883 1.91992 97.0261 2.04432 96.9016C2.10653 96.7772 2.16873 96.6528 2.23094 96.4662C2.29314 96.2796 2.29314 96.0308 2.29314 95.6576V87.3844C2.29314 87.3222 2.29314 87.26 2.35535 87.1978C2.41755 87.1356 2.47975 87.1356 2.54196 87.0734C2.60416 87.0112 2.72857 87.0112 2.91518 87.0112C3.03959 87.0112 3.22621 87.0112 3.47502 87.0112C3.72384 87.0112 3.91045 87.0112 4.03486 87.0112C4.15927 87.0112 4.28368 87.0734 4.40809 87.0734C4.47029 87.1356 4.5325 87.1356 4.5947 87.1978C4.6569 87.26 4.6569 87.3222 4.6569 87.3844V95.8442H4.5325ZM4.71911 84.5852C4.71911 85.0206 4.5947 85.3939 4.40809 85.5805C4.22147 85.7671 3.84825 85.8293 3.35061 85.8293C2.85298 85.8293 2.47975 85.7671 2.29314 85.5805C2.10653 85.3939 2.04432 85.0828 2.04432 84.6474C2.04432 84.212 2.16873 83.8387 2.35535 83.6521C2.54196 83.4655 2.91518 83.4033 3.41282 83.4033C3.91045 83.4033 4.28368 83.4655 4.47029 83.6521C4.6569 83.8387 4.71911 84.1498 4.71911 84.5852Z" fill="#221F21"/>
<path d="M14.423 91.2416C14.423 91.5526 14.3608 91.7392 14.2364 91.8637C14.1119 91.9881 13.9253 92.0503 13.7387 92.0503H8.76238C8.76238 92.4235 8.82459 92.7345 8.88679 92.9833C8.949 93.2944 9.0734 93.481 9.26002 93.7298C9.44663 93.9164 9.69545 94.103 9.94426 94.1652C10.2553 94.2896 10.5663 94.3518 10.9395 94.3518C11.375 94.3518 11.686 94.3518 11.997 94.2896C12.308 94.2274 12.5568 94.1652 12.8057 94.103C13.0545 94.0408 13.2411 93.9786 13.3655 93.9164C13.4899 93.8542 13.6143 93.8542 13.7387 93.8542C13.8009 93.8542 13.8631 93.8542 13.8631 93.9164C13.9253 93.9164 13.9253 93.9786 13.9253 94.0408C13.9253 94.103 13.9875 94.1652 13.9875 94.2896C13.9875 94.414 13.9875 94.5384 13.9875 94.6628C13.9875 94.7873 13.9875 94.9117 13.9875 95.0361C13.9875 95.1605 13.9875 95.2227 13.9875 95.2849C13.9875 95.3471 13.9875 95.4093 13.9253 95.4715C13.9253 95.5337 13.8631 95.5337 13.8009 95.5959C13.7387 95.6581 13.6765 95.7203 13.4899 95.7825C13.3033 95.8447 13.1167 95.9069 12.8057 95.9691C12.5568 96.0313 12.1836 96.0936 11.8726 96.1558C11.4994 96.218 11.1261 96.218 10.7529 96.218C10.0065 96.218 9.38443 96.1558 8.82459 95.9691C8.26475 95.7825 7.82932 95.5337 7.45609 95.1605C7.08287 94.7873 6.83405 94.2896 6.64744 93.7298C6.46083 93.1699 6.39862 92.4857 6.39862 91.7392C6.39862 90.9928 6.52303 90.3708 6.70964 89.7487C6.89625 89.1889 7.14507 88.6912 7.5183 88.2558C7.89152 87.8204 8.32695 87.5094 8.82459 87.3227C9.32222 87.1361 9.94426 87.0117 10.5663 87.0117C11.2506 87.0117 11.8104 87.1361 12.308 87.3227C12.8057 87.5094 13.1789 87.8204 13.4899 88.1936C13.8009 88.5668 14.0497 89.0023 14.1742 89.4377C14.2986 89.9353 14.423 90.433 14.423 91.055V91.2416ZM12.1836 90.5574C12.1836 89.9353 12.0592 89.3755 11.8104 89.0023C11.5616 88.629 11.1261 88.4424 10.5041 88.4424C10.1931 88.4424 9.94426 88.5046 9.75765 88.629C9.50883 88.7534 9.38443 88.8778 9.19781 89.0645C9.0734 89.2511 8.949 89.4999 8.88679 89.7487C8.82459 89.9975 8.76238 90.2463 8.76238 90.5574H12.1836Z" fill="#221F21"/>
<path d="M22.1363 93.2319C22.1363 93.7296 22.0741 94.1028 21.8875 94.476C21.7009 94.8492 21.4521 95.1603 21.141 95.3469C20.83 95.5957 20.4568 95.7823 20.0214 95.9067C19.5859 96.0311 19.0883 96.0933 18.5907 96.0933C18.2796 96.0933 17.9686 96.0933 17.7198 96.0311C17.471 95.9689 17.16 95.9067 16.9734 95.8445C16.7245 95.7823 16.5379 95.7201 16.4135 95.6579C16.2891 95.5957 16.1647 95.5335 16.1025 95.4713C16.0403 95.4091 15.9781 95.2847 15.9159 95.1603C15.8537 95.0359 15.8537 94.8493 15.8537 94.5382C15.8537 94.3516 15.8537 94.2272 15.8537 94.1028C15.8537 93.9784 15.8537 93.9162 15.9159 93.854C15.9159 93.7918 15.9781 93.7296 15.9781 93.7296C16.0403 93.7296 16.0403 93.6674 16.1025 93.6674C16.1647 93.6674 16.2891 93.7296 16.4135 93.7918C16.5379 93.854 16.7245 93.9784 16.9111 94.0406C17.0978 94.1028 17.3466 94.2272 17.5954 94.2894C17.8442 94.3516 18.1552 94.4138 18.4663 94.4138C18.6529 94.4138 18.8395 94.4138 19.0261 94.3516C19.2127 94.2894 19.3371 94.2272 19.4615 94.165C19.5859 94.1028 19.6481 93.9784 19.7103 93.854C19.7725 93.7296 19.7725 93.6052 19.7725 93.4186C19.7725 93.2319 19.7103 93.0453 19.5859 92.9209C19.4615 92.7965 19.3371 92.6721 19.1505 92.5477C18.9639 92.4233 18.7773 92.3611 18.5285 92.2989C18.2796 92.2367 18.0308 92.1123 17.782 91.9879C17.5332 91.8634 17.2844 91.739 17.0356 91.6146C16.7867 91.4902 16.6001 91.3036 16.4135 91.117C16.2269 90.9304 16.1025 90.6816 15.9781 90.4327C15.8537 90.1839 15.7915 89.8107 15.7915 89.4375C15.7915 89.0643 15.8537 88.691 16.0403 88.38C16.1647 88.069 16.4135 87.758 16.7245 87.5091C17.0356 87.2603 17.3466 87.0737 17.782 86.9493C18.2174 86.8249 18.6529 86.7627 19.1505 86.7627C19.3993 86.7627 19.6481 86.7627 19.897 86.8249C20.1458 86.8871 20.3324 86.8871 20.5812 86.9493C20.7678 87.0115 20.9544 87.0737 21.0788 87.1359C21.2032 87.1981 21.3277 87.2603 21.3899 87.3225C21.4521 87.3847 21.5143 87.3847 21.5143 87.4469C21.5143 87.5092 21.5765 87.5713 21.5765 87.6336C21.5765 87.6958 21.5765 87.758 21.6387 87.8824C21.6387 88.0068 21.6387 88.069 21.6387 88.2556C21.6387 88.4422 21.6387 88.5666 21.6387 88.6288C21.6387 88.7532 21.6387 88.8154 21.5765 88.8776C21.5765 88.9398 21.5143 89.0021 21.5143 89.0021C21.4521 89.0021 21.4521 89.0643 21.3899 89.0643C21.3277 89.0643 21.2654 89.002 21.141 88.9398C21.0166 88.8776 20.8922 88.8154 20.7056 88.7532C20.519 88.691 20.3324 88.6288 20.0836 88.5666C19.8348 88.5044 19.5859 88.4422 19.2749 88.4422C19.0883 88.4422 18.9017 88.4422 18.7151 88.5044C18.5907 88.5666 18.4663 88.6288 18.3418 88.691C18.2174 88.7532 18.1552 88.8776 18.093 89.0021C18.0308 89.1265 18.0308 89.2509 18.0308 89.3753C18.0308 89.5619 18.093 89.7485 18.2174 89.8729C18.3418 89.9973 18.4663 90.1217 18.6529 90.1839C18.8395 90.3083 19.0883 90.3705 19.2749 90.4327C19.5237 90.4949 19.7725 90.6194 20.0214 90.7438C20.2702 90.8682 20.519 90.9926 20.7678 91.117C21.0166 91.2414 21.2032 91.428 21.3899 91.6146C21.5765 91.8012 21.7631 92.0501 21.8253 92.2989C22.0741 92.5477 22.1363 92.8587 22.1363 93.2319Z" fill="#221F21"/>
<path d="M28.4811 94.7247C28.4811 94.9735 28.4811 95.2223 28.4189 95.3467C28.3567 95.4711 28.3567 95.5955 28.2945 95.6577C28.2323 95.7199 28.1701 95.7821 28.0457 95.8443C27.9213 95.9065 27.7969 95.9065 27.6725 95.9687C27.5481 96.0309 27.3615 96.0309 27.1748 96.0309C26.9882 96.0309 26.8638 96.0309 26.6772 96.0309C26.2418 96.0309 25.8063 95.9687 25.4953 95.8443C25.1843 95.7199 24.8733 95.5333 24.6867 95.2845C24.4379 95.0357 24.3134 94.7247 24.189 94.3514C24.0646 93.9782 24.0024 93.5428 24.0024 93.0451V88.8153H23.0072C22.8827 88.8153 22.8205 88.753 22.7583 88.6286C22.6961 88.5042 22.6961 88.2554 22.6961 87.8822C22.6961 87.6956 22.6961 87.5712 22.6961 87.4468C22.6961 87.3223 22.7583 87.1979 22.7583 87.1357C22.7583 87.0735 22.8205 87.0113 22.8828 87.0113C22.945 87.0113 23.0072 86.9491 23.0694 86.9491H24.0646V85.1452C24.0646 85.083 24.0646 85.0208 24.1268 84.9586C24.189 84.8964 24.2512 84.8964 24.3134 84.8342C24.3757 84.772 24.5001 84.772 24.6867 84.772C24.8111 84.772 24.9977 84.772 25.2465 84.772C25.4953 84.772 25.6819 84.772 25.8063 84.772C25.9308 84.772 26.0552 84.8342 26.1796 84.8342C26.2418 84.8964 26.304 84.8964 26.3662 84.9586C26.4284 85.0208 26.4284 85.083 26.4284 85.1452V86.9491H28.2323C28.2945 86.9491 28.3567 86.9491 28.4189 87.0113C28.4811 87.0113 28.4811 87.0735 28.5433 87.1357C28.5433 87.1979 28.6055 87.3223 28.6055 87.4468C28.6055 87.5712 28.6055 87.6956 28.6055 87.8822C28.6055 88.1932 28.5433 88.442 28.5433 88.6286C28.4811 88.753 28.4189 88.8153 28.2945 88.8153H26.4906V92.6719C26.4906 93.1073 26.5528 93.4806 26.6772 93.6672C26.8016 93.916 27.0504 93.9782 27.4237 93.9782C27.5481 93.9782 27.6725 93.9782 27.7347 93.916C27.8591 93.916 27.9213 93.8538 27.9835 93.8538C28.0457 93.8538 28.1079 93.7916 28.1701 93.7916C28.2323 93.7916 28.2945 93.7294 28.2945 93.7294C28.3567 93.7294 28.3567 93.7294 28.4189 93.7916C28.4811 93.7916 28.4811 93.8538 28.4811 93.916C28.4811 93.9782 28.5433 94.0404 28.5433 94.1648C28.4811 94.4136 28.4811 94.6002 28.4811 94.7247Z" fill="#221F21"/>
<path d="M37.5007 91.2416C37.5007 91.5526 37.4385 91.7392 37.3141 91.8637C37.1897 91.9881 37.0031 92.0503 36.8165 92.0503H31.8402C31.8402 92.4235 31.9024 92.7345 31.9646 92.9833C32.0268 93.2944 32.1512 93.481 32.3378 93.7298C32.5244 93.9164 32.7732 94.103 33.022 94.1652C33.3331 94.2896 33.6441 94.3518 34.0173 94.3518C34.4527 94.3518 34.7638 94.3518 35.0748 94.2896C35.3858 94.2274 35.6346 94.1652 35.8834 94.103C36.1323 94.0408 36.3189 93.9786 36.4433 93.9164C36.5677 93.8542 36.6921 93.8542 36.8165 93.8542C36.8787 93.8542 36.9409 93.8542 36.9409 93.9164C37.0031 93.9164 37.0031 93.9786 37.0031 94.0408C37.0031 94.103 37.0653 94.1652 37.0653 94.2896C37.0653 94.414 37.0653 94.5384 37.0653 94.6628C37.0653 94.7873 37.0653 94.9117 37.0653 95.0361C37.0653 95.1605 37.0653 95.2227 37.0653 95.2849C37.0653 95.3471 37.0031 95.4093 37.0031 95.4715C37.0031 95.5337 36.9409 95.5337 36.8787 95.5959C36.8165 95.6581 36.7543 95.7203 36.5677 95.7825C36.3811 95.8447 36.1323 95.9069 35.8834 95.9691C35.6346 96.0313 35.2614 96.0936 34.9504 96.1558C34.5771 96.218 34.2039 96.218 33.8307 96.218C33.0842 96.218 32.4622 96.1558 31.9024 95.9691C31.3425 95.7825 30.9071 95.5337 30.5339 95.1605C30.1606 94.7873 29.9118 94.2896 29.7252 93.7298C29.5386 93.1699 29.4764 92.4857 29.4764 91.7392C29.4764 90.9928 29.6008 90.3708 29.7874 89.7487C29.974 89.1889 30.2228 88.6912 30.5961 88.2558C30.9693 87.8204 31.4047 87.5094 31.9024 87.3227C32.4 87.1361 33.022 87.0117 33.6441 87.0117C34.3283 87.0117 34.8882 87.1361 35.3858 87.3227C35.8834 87.5094 36.2567 87.8204 36.5677 88.1936C36.8787 88.5668 37.1275 89.0023 37.2519 89.4377C37.3763 89.9353 37.5007 90.433 37.5007 91.055V91.2416ZM35.2614 90.5574C35.2614 89.9353 35.137 89.3755 34.8882 89.0023C34.6393 88.629 34.2039 88.4424 33.5819 88.4424C33.2709 88.4424 33.022 88.5046 32.8354 88.629C32.5866 88.7534 32.4622 88.8778 32.2756 89.0645C32.1512 89.2511 32.0268 89.4999 31.9646 89.7487C31.9024 89.9975 31.8402 90.2463 31.8402 90.5574H35.2614Z" fill="#221F21"/>
<path d="M45.2141 93.2315C45.2141 93.7291 45.1519 94.1023 44.9653 94.4756C44.7787 94.8488 44.5298 95.1598 44.2188 95.3464C43.9078 95.5952 43.5346 95.7819 43.0991 95.9063C42.6637 96.0307 42.1661 96.0929 41.6684 96.0929C41.3574 96.0929 41.0464 96.0929 40.7976 96.0307C40.4866 95.9685 40.2999 95.9063 40.0511 95.8441C39.8023 95.7819 39.6157 95.7197 39.4913 95.6575C39.3669 95.5952 39.2425 95.533 39.1803 95.4708C39.1181 95.4086 39.0559 95.2842 38.9937 95.1598C38.9315 95.0354 38.9315 94.7866 38.9315 94.5378C38.9315 94.3512 38.9315 94.2268 38.9315 94.1023C38.9315 93.9779 38.9315 93.9157 38.9937 93.8535C38.9937 93.7913 39.0559 93.7291 39.0559 93.7291C39.1181 93.7291 39.1181 93.6669 39.1803 93.6669C39.2425 93.6669 39.3669 93.7291 39.4913 93.7913C39.6157 93.8535 39.8023 93.9779 39.9889 94.0401C40.1755 94.1023 40.4244 94.2268 40.6732 94.289C40.922 94.3512 41.233 94.4134 41.544 94.4134C41.7306 94.4134 41.9173 94.4134 42.1039 94.3512C42.2905 94.289 42.4149 94.2267 42.5393 94.1645C42.6637 94.1023 42.7259 93.9779 42.7881 93.8535C42.8503 93.7291 42.8503 93.6047 42.8503 93.4181C42.8503 93.2315 42.7881 93.1071 42.6637 92.9205C42.5393 92.796 42.4149 92.6716 42.2283 92.5472C42.0417 92.4228 41.8551 92.3606 41.6062 92.2984C41.3574 92.2362 41.1086 92.1118 40.8598 91.9874C40.611 91.863 40.3621 91.7386 40.1133 91.6142C39.8645 91.4898 39.6779 91.3032 39.4913 91.1165C39.3047 90.9299 39.1803 90.6811 39.0559 90.4323C38.9315 90.1835 38.8692 89.8102 38.8692 89.437C38.8692 89.0638 38.9315 88.6906 39.1181 88.3796C39.2425 88.0685 39.4913 87.7575 39.8023 87.5087C40.1133 87.2599 40.4244 87.0733 40.8598 86.9489C41.2952 86.8244 41.7306 86.7622 42.2283 86.7622C42.4771 86.7622 42.7259 86.7622 42.9747 86.8244C43.2235 86.8867 43.4102 86.8866 43.659 86.9489C43.8456 87.0111 44.0322 87.0733 44.1566 87.1355C44.281 87.1977 44.4054 87.2599 44.4676 87.3221C44.5298 87.3843 44.592 87.3843 44.592 87.4465C44.592 87.5087 44.6542 87.5709 44.6542 87.6331C44.6542 87.6953 44.6542 87.7575 44.7164 87.8819C44.7164 88.0063 44.7164 88.0685 44.7164 88.2551C44.7164 88.4418 44.7164 88.5662 44.7164 88.6906C44.7164 88.815 44.7165 88.8772 44.6542 88.9394C44.6542 89.0016 44.592 89.0638 44.592 89.0638C44.5298 89.0638 44.5298 89.126 44.4676 89.126C44.4054 89.126 44.3432 89.0638 44.2188 89.0016C44.0944 88.9394 43.97 88.8772 43.7834 88.815C43.5968 88.7528 43.4102 88.6906 43.1613 88.6284C42.9125 88.5662 42.6637 88.504 42.3527 88.504C42.1661 88.504 41.9795 88.504 41.7929 88.5662C41.6684 88.6284 41.544 88.6906 41.4196 88.7528C41.2952 88.815 41.233 88.9394 41.1708 89.0638C41.1086 89.1882 41.1086 89.3126 41.1086 89.437C41.1086 89.6236 41.1708 89.8103 41.2952 89.9347C41.4196 90.0591 41.544 90.1835 41.7306 90.2457C41.9173 90.3701 42.1661 90.4323 42.3527 90.4945C42.6015 90.5567 42.8503 90.6811 43.0991 90.8055C43.348 90.9299 43.5968 91.0543 43.8456 91.1787C44.0944 91.3032 44.281 91.4898 44.4676 91.6764C44.6542 91.863 44.8409 92.1118 44.9031 92.3606C45.1519 92.5472 45.2141 92.8583 45.2141 93.2315ZM42.5393 83.341C42.6015 83.2788 42.6637 83.2166 42.7259 83.1544C42.7881 83.0922 42.8503 83.0922 42.9747 83.03C43.0369 83.03 43.1613 82.9678 43.348 82.9678C43.4724 82.9678 43.659 82.9678 43.8456 82.9678C44.1566 82.9678 44.3432 82.9678 44.5298 83.03C44.7164 83.03 44.7787 83.0922 44.9031 83.1544C44.9653 83.2166 45.0275 83.2788 45.0275 83.341C45.0275 83.4032 44.9653 83.4654 44.9653 83.5276L43.1613 85.6426C43.0991 85.7048 43.0369 85.767 43.0369 85.767C42.9747 85.8292 42.9125 85.8292 42.8503 85.8914C42.7881 85.8914 42.6637 85.9536 42.5393 85.9536C42.4149 85.9536 42.2905 85.9536 42.1039 85.9536C41.9173 85.9536 41.7306 85.9536 41.6062 85.9536C41.4818 85.9536 41.4196 85.8914 41.3574 85.8914C41.2952 85.8292 41.2952 85.8292 41.2952 85.767C41.2952 85.7048 41.3574 85.6426 41.4196 85.5804L42.5393 83.341Z" fill="#221F21"/>
<path d="M60.0187 95.5336C60.0187 95.5958 60.0187 95.658 59.9565 95.7202C59.8943 95.7824 59.8321 95.7824 59.7699 95.8446C59.7077 95.8446 59.5833 95.9068 59.3967 95.9068C59.2723 95.9068 59.0856 95.9068 58.8368 95.9068C58.588 95.9068 58.4014 95.9068 58.277 95.9068C58.1526 95.9068 58.0282 95.8446 57.9038 95.8446C57.8416 95.8446 57.7794 95.7824 57.7172 95.7202C57.655 95.658 57.655 95.5958 57.655 95.5336V90.6817C57.655 90.4329 57.6549 90.184 57.5927 89.9352C57.5305 89.6864 57.4683 89.4998 57.3439 89.3754C57.2195 89.1888 57.0951 89.0644 56.9085 89.0022C56.7219 88.94 56.5353 88.8777 56.3487 88.8777C56.0998 88.8777 55.7888 89.0022 55.54 89.1888C55.229 89.3754 54.9802 89.6864 54.6069 90.1218V95.5958C54.6069 95.658 54.6069 95.7202 54.5447 95.7824C54.4825 95.8446 54.4203 95.8446 54.3581 95.9068C54.2959 95.9068 54.1715 95.969 53.9849 95.969C53.8605 95.969 53.6739 95.969 53.4251 95.969C53.1762 95.969 52.9896 95.969 52.8652 95.969C52.7408 95.969 52.6164 95.9068 52.492 95.9068C52.4298 95.9068 52.3676 95.8446 52.3054 95.7824C52.2432 95.7202 52.2432 95.658 52.2432 95.5958V90.7439C52.2432 90.4951 52.2432 90.2462 52.181 89.9974C52.1188 89.7486 52.0566 89.562 51.9322 89.4376C51.8077 89.251 51.6833 89.1266 51.5589 89.0644C51.3723 89.0022 51.1857 88.9399 50.9991 88.9399C50.6881 88.9399 50.4393 89.0644 50.1282 89.251C49.8172 89.4376 49.5684 89.7486 49.1952 90.184V95.658C49.1952 95.7202 49.1952 95.7824 49.133 95.8446C49.0708 95.9068 49.0086 95.9068 48.9464 95.969C48.8841 95.969 48.7597 96.0312 48.5731 96.0312C48.4487 96.0312 48.2621 96.0312 48.0133 96.0312C47.7645 96.0312 47.5779 96.0312 47.4534 96.0312C47.329 96.0312 47.2046 95.969 47.0802 95.969C47.018 95.969 46.9558 95.9068 46.8936 95.8446C46.8314 95.7824 46.8314 95.7202 46.8314 95.658V87.4471C46.8314 87.3848 46.8314 87.3226 46.8936 87.2604C46.8936 87.1982 46.9558 87.1982 47.0802 87.136C47.1424 87.136 47.2668 87.0738 47.3912 87.0738C47.5157 87.0738 47.7023 87.0738 47.8889 87.0738C48.0755 87.0738 48.2621 87.0738 48.3865 87.0738C48.5109 87.0738 48.6353 87.136 48.6975 87.136C48.7597 87.136 48.8219 87.1982 48.8219 87.2604C48.8841 87.3226 48.8841 87.3848 48.8841 87.4471V88.3801C49.3196 87.8825 49.8172 87.5093 50.2526 87.2604C50.6881 87.0116 51.1857 86.8872 51.6833 86.8872C51.9944 86.8872 52.3054 86.9494 52.6164 87.0116C52.8652 87.0738 53.114 87.1982 53.3629 87.3226C53.5495 87.447 53.7361 87.6337 53.9227 87.8203C54.0471 88.0069 54.2337 88.1935 54.2959 88.4423C54.5447 88.1935 54.7936 87.9447 55.0424 87.7581C55.2912 87.5715 55.54 87.3848 55.7266 87.3226C55.9754 87.1982 56.162 87.136 56.4109 87.0738C56.6597 87.0116 56.8463 87.0116 57.0951 87.0116C57.655 87.0116 58.0904 87.0738 58.4636 87.2604C58.8368 87.447 59.1479 87.6959 59.3967 88.0069C59.6455 88.3179 59.7699 88.6911 59.8943 89.1266C60.0187 89.562 60.0187 89.9974 60.0187 90.4951V95.5336Z" fill="#221F21"/>
<path d="M66.6745 95.8446L65.6793 98.7682C65.6171 98.8926 65.4927 99.017 65.2438 99.0792C64.995 99.1415 64.6218 99.2037 64.1864 99.2037C63.9376 99.2037 63.7509 99.2037 63.6265 99.1414C63.5021 99.1414 63.3777 99.0792 63.3155 99.017C63.2533 98.9548 63.1911 98.8926 63.1911 98.8304C63.1911 98.7682 63.1911 98.6438 63.2533 98.5816L64.373 95.8446C64.3108 95.7824 64.2486 95.7824 64.1864 95.658C64.1242 95.5336 64.062 95.4714 64.062 95.4092L61.2628 87.8825C61.2006 87.6959 61.1384 87.5093 61.1384 87.3848C61.1384 87.2604 61.2006 87.1982 61.2628 87.136C61.325 87.0738 61.4494 87.0116 61.636 87.0116C61.8226 87.0116 62.0714 86.9494 62.3202 86.9494C62.5691 86.9494 62.8179 86.9494 62.9423 86.9494C63.0667 86.9494 63.1911 87.0116 63.3155 87.0116C63.3777 87.0738 63.4399 87.0738 63.5021 87.1982C63.5643 87.2604 63.5643 87.3848 63.6265 87.5092L65.5549 92.9832L67.2966 87.3848C67.3588 87.1982 67.3588 87.136 67.421 87.0738C67.4832 87.0116 67.5454 87.0116 67.732 86.9494C67.8564 86.9494 68.1052 86.8872 68.4163 86.8872C68.6651 86.8872 68.9139 86.8872 69.1005 86.9494C69.2871 86.9494 69.4115 87.0116 69.4737 87.0738C69.5359 87.136 69.5981 87.2604 69.5981 87.3226C69.5981 87.447 69.5981 87.5715 69.5359 87.6959L66.6745 95.8446Z" fill="#221F21"/>
<path d="M83.4075 87.5715C83.4075 88.2558 83.2831 88.8156 83.0965 89.3754C82.9099 89.8731 82.5989 90.3085 82.1634 90.6817C81.7902 91.055 81.2926 91.3038 80.6705 91.4904C80.1107 91.677 79.4264 91.7392 78.6178 91.7392H77.6847V95.5337C77.6847 95.5959 77.6847 95.6581 77.6225 95.7203C77.5603 95.7825 77.4981 95.7825 77.4359 95.8447C77.3737 95.8447 77.2493 95.9069 77.0627 95.9069C76.9383 95.9069 76.6894 95.9069 76.5028 95.9069C76.254 95.9069 76.0674 95.9069 75.943 95.9069C75.7564 95.9069 75.632 95.8447 75.5698 95.8447C75.5076 95.7825 75.3832 95.7825 75.3832 95.7203C75.321 95.6581 75.321 95.5959 75.321 95.5337V84.8345C75.321 84.5235 75.3832 84.3369 75.5698 84.2125C75.6942 84.0881 75.943 84.0259 76.1918 84.0259H78.991C79.302 84.0259 79.5508 84.0259 79.7997 84.0881C80.0485 84.0881 80.3595 84.1503 80.7327 84.2125C81.1059 84.2747 81.4792 84.3991 81.7902 84.5857C82.1634 84.7723 82.4745 85.0211 82.7233 85.3322C82.9721 85.6432 83.1587 85.9542 83.2831 86.3274C83.3453 86.6385 83.4075 87.0739 83.4075 87.5715ZM80.8571 87.7581C80.8571 87.3227 80.7949 87.0117 80.6083 86.7007C80.4839 86.4518 80.2973 86.203 80.0485 86.0786C79.8619 85.9542 79.613 85.892 79.3642 85.8298C79.1154 85.7676 78.8666 85.7676 78.6178 85.7676H77.6847V89.8109H78.7422C79.1154 89.8109 79.4264 89.7487 79.7375 89.6243C79.9863 89.4999 80.2351 89.3754 80.3595 89.1888C80.5461 89.0022 80.6705 88.7534 80.7327 88.5046C80.7949 88.318 80.8571 88.0692 80.8571 87.7581Z" fill="#221F21"/>
<path d="M94.1067 95.5334C94.1067 95.5956 94.1067 95.6578 94.0445 95.72C94.0445 95.7822 93.9823 95.7822 93.8578 95.8444C93.7956 95.8444 93.609 95.9066 93.4224 95.9066C93.2358 95.9066 92.987 95.9066 92.676 95.9066C92.4272 95.9066 92.2405 95.9066 92.0539 95.9066C91.9295 95.9066 91.8051 95.8444 91.6807 95.8444C91.6185 95.7822 91.5563 95.7822 91.4941 95.72C91.4319 95.6578 91.4319 95.5956 91.3697 95.5334L90.3122 92.8586C90.1878 92.5476 90.0634 92.2988 89.939 92.0499C89.8146 91.8011 89.6902 91.6145 89.5035 91.4901C89.3791 91.3035 89.1925 91.2413 89.0059 91.1169C88.8193 91.0547 88.5705 90.9925 88.3217 90.9925H87.5752V95.5334C87.5752 95.5956 87.5752 95.6578 87.513 95.72C87.4508 95.7822 87.3886 95.7822 87.3264 95.8444C87.2642 95.8444 87.1398 95.9066 86.9532 95.9066C86.8288 95.9066 86.5799 95.9066 86.3933 95.9066C86.1445 95.9066 85.9579 95.9066 85.8335 95.9066C85.6469 95.9066 85.5847 95.8444 85.4603 95.8444C85.3981 95.8444 85.2737 95.7822 85.2737 95.72C85.2115 95.6578 85.2115 95.5956 85.2115 95.5334V84.7098C85.2115 84.461 85.2737 84.2744 85.3981 84.15C85.5225 84.0256 85.7091 83.9634 85.8957 83.9634H89.0059C89.3169 83.9634 89.5657 83.9634 89.7524 83.9634C89.939 83.9634 90.1256 83.9634 90.3122 84.0256C90.8098 84.0878 91.2453 84.2122 91.6185 84.3988C91.9917 84.5854 92.3027 84.772 92.6138 85.0208C92.8626 85.2697 93.1114 85.5807 93.2358 85.9539C93.3602 86.3271 93.4224 86.7626 93.4224 87.198C93.4224 87.5712 93.3602 87.9445 93.298 88.3177C93.1736 88.6287 93.0492 88.9397 92.8626 89.1885C92.676 89.4374 92.4271 89.6862 92.1161 89.8728C91.8051 90.0594 91.4941 90.246 91.1209 90.3082C91.3075 90.3704 91.4941 90.4948 91.6185 90.6192C91.8051 90.7436 91.9295 90.8681 92.0539 91.0547C92.1783 91.2413 92.3027 91.4279 92.4271 91.6767C92.5516 91.9255 92.676 92.1743 92.8004 92.4232L93.7956 94.7869C93.8578 95.0357 93.92 95.1601 93.9823 95.2846C94.1067 95.409 94.1067 95.4712 94.1067 95.5334ZM90.9964 87.4468C90.9964 87.0736 90.9342 86.7004 90.7476 86.4516C90.561 86.2027 90.25 86.0161 89.8768 85.8917C89.7524 85.8917 89.628 85.8295 89.4413 85.8295C89.2547 85.8295 89.0681 85.8295 88.8193 85.8295H87.7618V89.1885H89.0059C89.3791 89.1885 89.628 89.1263 89.939 89.0641C90.1878 89.0019 90.4366 88.8775 90.561 88.6909C90.7476 88.5665 90.872 88.3799 90.9342 88.1311C90.9342 87.9445 90.9964 87.7578 90.9964 87.4468Z" fill="#221F21"/>
<path d="M106.423 89.8107C106.423 90.8059 106.299 91.6768 106.05 92.4855C105.801 93.2941 105.428 93.9162 104.93 94.476C104.433 95.0358 103.873 95.4091 103.126 95.7201C102.442 96.0311 101.571 96.1555 100.638 96.1555C99.705 96.1555 98.8964 96.0311 98.2121 95.7823C97.5279 95.5335 96.968 95.1602 96.4704 94.6626C96.035 94.165 95.6617 93.5429 95.4129 92.7965C95.1641 92.05 95.0397 91.117 95.0397 90.0595C95.0397 89.1264 95.1641 88.2556 95.4129 87.4469C95.6617 86.7005 96.035 86.0162 96.5326 85.4564C97.0302 84.8965 97.5901 84.5233 98.3365 84.2123C99.0208 83.9013 99.8916 83.7769 100.825 83.7769C101.696 83.7769 102.504 83.9013 103.188 84.1501C103.873 84.3989 104.433 84.7721 104.93 85.2698C105.366 85.7674 105.739 86.3894 105.988 87.1359C106.299 87.8823 106.423 88.7532 106.423 89.8107ZM103.873 89.9351C103.873 89.313 103.811 88.7532 103.748 88.2556C103.624 87.7579 103.499 87.3225 103.251 86.9493C103.002 86.5761 102.691 86.3272 102.318 86.0784C101.944 85.8918 101.447 85.7674 100.825 85.7674C100.203 85.7674 99.705 85.8918 99.3318 86.0784C98.9586 86.3272 98.5853 86.5761 98.3365 86.9493C98.0877 87.3225 97.9011 87.7579 97.8389 88.2556C97.7145 88.7532 97.7145 89.313 97.7145 89.8107C97.7145 90.4327 97.7767 91.0548 97.8389 91.5524C97.9633 92.05 98.0877 92.4855 98.3365 92.8587C98.5853 93.2319 98.8964 93.4807 99.2696 93.7295C99.6428 93.9162 100.14 94.0406 100.763 94.0406C101.385 94.0406 101.882 93.9162 102.255 93.7295C102.629 93.4807 103.002 93.2319 103.251 92.8587C103.499 92.4855 103.686 92.05 103.748 91.5524C103.811 90.9926 103.873 90.4949 103.873 89.9351Z" fill="#221F21"/>
<path d="M115.132 84.9589C115.132 85.1456 115.132 85.27 115.132 85.3944C115.132 85.5188 115.069 85.6432 115.069 85.7054C115.007 85.7676 115.007 85.8298 114.945 85.892C114.883 85.9542 114.883 85.9542 114.821 85.9542H110.902V89.1266H114.572C114.634 89.1266 114.696 89.1266 114.696 89.1888C114.758 89.1888 114.758 89.251 114.821 89.3754C114.883 89.4376 114.883 89.5621 114.883 89.6865C114.883 89.8109 114.883 89.9353 114.883 90.1219C114.883 90.3085 114.883 90.4329 114.883 90.5573C114.883 90.6817 114.821 90.8061 114.821 90.8683C114.758 90.9306 114.758 90.9927 114.696 91.055C114.634 91.1172 114.634 91.1172 114.572 91.1172H110.902V95.5337C110.902 95.5959 110.902 95.6581 110.84 95.7203C110.777 95.7825 110.715 95.7825 110.653 95.8447C110.529 95.9069 110.404 95.9069 110.28 95.9069C110.155 95.9069 109.907 95.9069 109.72 95.9069C109.471 95.9069 109.284 95.9069 109.16 95.9069C108.973 95.9069 108.849 95.8447 108.787 95.8447C108.725 95.7825 108.6 95.7825 108.6 95.7203C108.538 95.6581 108.538 95.5959 108.538 95.5337V84.7723C108.538 84.5235 108.6 84.3369 108.725 84.2125C108.849 84.0881 109.036 84.0259 109.222 84.0259H114.821C114.883 84.0259 114.945 84.0259 114.945 84.0881C115.007 84.1503 115.007 84.1503 115.069 84.2747C115.132 84.3369 115.132 84.4613 115.132 84.5857C115.132 84.6479 115.132 84.7723 115.132 84.9589Z" fill="#221F21"/>
<path d="M124.151 94.9116C124.151 95.0982 124.151 95.2226 124.151 95.3471C124.151 95.4715 124.089 95.5337 124.089 95.6581C124.027 95.7203 124.027 95.7825 123.965 95.8447C123.902 95.9069 123.84 95.9069 123.84 95.9069H117.869C117.682 95.9069 117.495 95.8447 117.371 95.7203C117.247 95.5959 117.184 95.4093 117.184 95.1604V84.7723C117.184 84.5235 117.247 84.3369 117.371 84.2125C117.495 84.0881 117.682 84.0259 117.869 84.0259H123.84C123.902 84.0259 123.965 84.0259 123.965 84.0881C124.027 84.1503 124.027 84.1503 124.089 84.2747C124.089 84.3369 124.151 84.4613 124.151 84.5857C124.151 84.7101 124.151 84.8345 124.151 85.0211C124.151 85.2078 124.151 85.3322 124.151 85.4566C124.151 85.581 124.089 85.6432 124.089 85.7676C124.089 85.8298 124.027 85.892 123.965 85.9542C123.902 86.0164 123.84 86.0164 123.84 86.0164H119.61V88.94H123.218C123.28 88.94 123.343 88.94 123.343 89.0022C123.405 89.0644 123.405 89.0644 123.467 89.1888C123.467 89.251 123.529 89.3754 123.529 89.4998C123.529 89.6243 123.529 89.7487 123.529 89.9353C123.529 90.1219 123.529 90.2463 123.529 90.3707C123.529 90.4951 123.467 90.5573 123.467 90.6817C123.467 90.7439 123.405 90.8061 123.343 90.8061C123.28 90.8683 123.218 90.8683 123.218 90.8683H119.61V94.2274H123.902C123.965 94.2274 124.027 94.2274 124.027 94.2896C124.089 94.3518 124.089 94.3518 124.151 94.4762C124.151 94.5384 124.214 94.6628 124.214 94.7872C124.151 94.6006 124.151 94.725 124.151 94.9116Z" fill="#221F21"/>
<path d="M133.171 92.2991C133.171 92.9212 133.047 93.481 132.798 93.9164C132.549 94.4141 132.238 94.7873 131.865 95.0983C131.491 95.4093 130.994 95.6582 130.496 95.7826C129.936 95.9692 129.376 96.0314 128.754 96.0314C128.319 96.0314 127.946 95.9692 127.635 95.907C127.262 95.8448 126.95 95.7826 126.702 95.6582C126.453 95.5337 126.204 95.4715 126.017 95.3471C125.831 95.2227 125.706 95.1605 125.644 95.0983C125.582 95.0361 125.52 94.9117 125.458 94.7251C125.395 94.6007 125.395 94.3519 125.395 94.103C125.395 93.9164 125.395 93.7298 125.395 93.6054C125.395 93.481 125.458 93.3566 125.458 93.2944C125.458 93.2322 125.52 93.17 125.582 93.1078C125.644 93.0456 125.706 93.0456 125.769 93.0456C125.831 93.0456 125.955 93.1078 126.142 93.17C126.328 93.2944 126.515 93.3566 126.764 93.481C127.013 93.6054 127.324 93.7298 127.635 93.792C127.946 93.9164 128.381 93.9164 128.817 93.9164C129.128 93.9164 129.376 93.8542 129.625 93.792C129.874 93.7298 130.061 93.6054 130.247 93.481C130.434 93.3566 130.558 93.17 130.621 92.9834C130.683 92.7968 130.745 92.6101 130.745 92.3613C130.745 92.1125 130.683 91.8637 130.496 91.6771C130.372 91.4905 130.185 91.3039 129.936 91.1794C129.687 91.055 129.439 90.8684 129.128 90.744C128.817 90.6196 128.506 90.4952 128.195 90.3086C127.884 90.1842 127.573 89.9976 127.262 89.8109C126.95 89.6243 126.702 89.3755 126.453 89.1267C126.204 88.8779 126.017 88.5669 125.893 88.1936C125.769 87.8204 125.644 87.385 125.644 86.8873C125.644 86.3275 125.769 85.8299 125.955 85.3944C126.142 84.959 126.453 84.5858 126.826 84.337C127.199 84.026 127.635 83.8393 128.07 83.7149C128.568 83.5905 129.065 83.5283 129.625 83.5283C129.936 83.5283 130.185 83.5283 130.496 83.5905C130.807 83.6527 131.056 83.7149 131.305 83.7771C131.554 83.8393 131.74 83.9638 131.989 84.026C132.176 84.0882 132.3 84.2126 132.362 84.2748C132.424 84.337 132.487 84.3992 132.487 84.4614C132.487 84.5236 132.549 84.5858 132.549 84.648C132.549 84.7102 132.549 84.8346 132.611 84.8968C132.611 85.0212 132.611 85.1456 132.611 85.27C132.611 85.4567 132.611 85.5811 132.611 85.7055C132.611 85.8299 132.611 85.9543 132.549 86.0165C132.549 86.0787 132.487 86.1409 132.487 86.2031C132.424 86.2653 132.362 86.2653 132.3 86.2653C132.238 86.2653 132.113 86.2031 131.989 86.1409C131.865 86.0787 131.678 85.9543 131.429 85.8299C131.243 85.7055 130.994 85.6433 130.683 85.5811C130.372 85.5189 130.061 85.4566 129.75 85.4566C129.501 85.4566 129.252 85.5189 129.065 85.5811C128.879 85.6433 128.692 85.7055 128.568 85.8299C128.443 85.9543 128.319 86.0787 128.257 86.2653C128.195 86.4519 128.132 86.5763 128.132 86.7629C128.132 87.0118 128.195 87.2606 128.319 87.4472C128.443 87.6338 128.63 87.8204 128.879 87.9448C129.128 88.0692 129.376 88.2558 129.687 88.3803C129.999 88.5047 130.31 88.6291 130.621 88.8157C130.932 88.9401 131.243 89.1267 131.554 89.3133C131.865 89.4999 132.113 89.7487 132.362 89.9976C132.611 90.2464 132.798 90.5574 132.922 90.9306C133.047 91.4283 133.171 91.8015 133.171 92.2991Z" fill="#221F21"/>
<path d="M138.583 92.5478C138.583 93.1076 138.52 93.6052 138.458 93.9785C138.334 94.4139 138.209 94.7871 137.961 95.0981C137.712 95.4092 137.401 95.658 137.028 95.7824C136.654 95.969 136.157 96.0312 135.597 96.0312C135.41 96.0312 135.224 96.0312 135.037 95.969C134.85 95.969 134.664 95.9068 134.539 95.8446C134.415 95.7824 134.228 95.7824 134.166 95.7202C134.042 95.658 133.98 95.5958 133.917 95.5958C133.855 95.5336 133.855 95.5336 133.855 95.4714C133.855 95.4092 133.793 95.347 133.793 95.2848C133.793 95.2225 133.793 95.0981 133.731 95.0359C133.731 94.9115 133.731 94.7871 133.731 94.6627C133.731 94.4761 133.731 94.2895 133.731 94.1029C133.731 93.9785 133.731 93.8541 133.793 93.7919C133.793 93.7296 133.855 93.6674 133.855 93.6052C133.917 93.543 133.917 93.543 133.98 93.543C134.042 93.543 134.104 93.543 134.166 93.6052C134.228 93.6674 134.353 93.6674 134.415 93.7296C134.539 93.7918 134.602 93.7918 134.726 93.8541C134.85 93.9163 134.975 93.9163 135.161 93.9163C135.348 93.9163 135.472 93.9163 135.597 93.8541C135.721 93.7918 135.846 93.7296 135.908 93.6052C135.97 93.4808 136.032 93.3564 136.095 93.1698C136.157 92.9832 136.157 92.7344 136.157 92.4234V84.2746C136.157 84.2124 136.157 84.1502 136.219 84.088C136.281 84.0258 136.343 84.0258 136.406 83.9636C136.468 83.9636 136.592 83.9014 136.779 83.9014C136.965 83.9014 137.152 83.9014 137.339 83.9014C137.587 83.9014 137.774 83.9014 137.898 83.9014C138.023 83.9014 138.147 83.9636 138.272 83.9636C138.396 83.9636 138.458 84.0258 138.458 84.088C138.52 84.1502 138.52 84.2124 138.52 84.2746V92.5478H138.583Z" fill="#221F21"/>
<path d="M151.832 89.8107C151.832 90.8059 151.708 91.6768 151.459 92.4855C151.21 93.2941 150.837 93.9162 150.339 94.476C149.842 95.0358 149.282 95.4091 148.535 95.7201C147.851 96.0311 146.98 96.1555 146.047 96.1555C145.114 96.1555 144.305 96.0311 143.621 95.7823C142.937 95.5335 142.377 95.1602 141.88 94.6626C141.444 94.165 141.071 93.5429 140.822 92.7965C140.573 92.05 140.449 91.117 140.449 90.0595C140.449 89.1264 140.573 88.2556 140.822 87.4469C141.071 86.7005 141.444 86.0162 141.942 85.4564C142.439 84.8965 142.999 84.5233 143.746 84.2123C144.43 83.9013 145.301 83.7769 146.234 83.7769C147.105 83.7769 147.913 83.9013 148.598 84.1501C149.282 84.3989 149.842 84.7721 150.339 85.2698C150.775 85.7674 151.148 86.3894 151.397 87.1359C151.77 87.8823 151.832 88.7532 151.832 89.8107ZM149.344 89.9351C149.344 89.313 149.282 88.7532 149.22 88.2556C149.095 87.7579 148.971 87.3225 148.722 86.9493C148.473 86.5761 148.162 86.3272 147.789 86.0784C147.416 85.8918 146.918 85.7674 146.296 85.7674C145.674 85.7674 145.176 85.8918 144.803 86.0784C144.43 86.3272 144.057 86.5761 143.808 86.9493C143.559 87.3225 143.372 87.7579 143.31 88.2556C143.186 88.7532 143.186 89.313 143.186 89.8107C143.186 90.4327 143.248 91.0548 143.31 91.5524C143.435 92.05 143.559 92.4855 143.808 92.8587C144.057 93.2319 144.368 93.4807 144.741 93.7295C145.114 93.9162 145.612 94.0406 146.234 94.0406C146.856 94.0406 147.353 93.9162 147.727 93.7295C148.1 93.4807 148.473 93.2319 148.722 92.8587C148.971 92.4855 149.157 92.05 149.22 91.5524C149.282 90.9926 149.344 90.4949 149.344 89.9351Z" fill="#221F21"/>
<path d="M163.713 95.036C163.713 95.1604 163.713 95.2848 163.651 95.4093C163.589 95.5337 163.527 95.5959 163.464 95.6581C163.402 95.7203 163.278 95.7825 163.153 95.8447C163.029 95.9069 162.905 95.9069 162.78 95.9069H161.723C161.536 95.9069 161.349 95.9069 161.163 95.8447C160.976 95.7825 160.852 95.7203 160.727 95.5959C160.603 95.4715 160.479 95.3471 160.354 95.1604C160.23 94.9738 160.105 94.725 159.919 94.414L156.933 88.8778C156.746 88.5668 156.56 88.1936 156.435 87.8203C156.249 87.4471 156.124 87.0739 155.938 86.7007C155.938 87.1361 156 87.5715 156 88.0069C156 88.4424 156 88.8778 156 89.3754V95.5959C156 95.6581 156 95.7203 155.938 95.7825C155.875 95.8447 155.875 95.8447 155.751 95.9069C155.689 95.9691 155.564 95.9691 155.44 95.9691C155.316 95.9691 155.129 95.9691 154.88 95.9691C154.694 95.9691 154.507 95.9691 154.32 95.9691C154.196 95.9691 154.072 95.9069 154.009 95.9069C153.947 95.8447 153.885 95.8447 153.823 95.7825C153.761 95.7203 153.761 95.6581 153.761 95.5959V84.8967C153.761 84.5857 153.823 84.3991 154.009 84.2747C154.196 84.1503 154.383 84.0881 154.631 84.0881H155.938C156.186 84.0881 156.373 84.0881 156.498 84.1503C156.684 84.2125 156.809 84.2747 156.933 84.3369C157.057 84.3991 157.182 84.5857 157.306 84.7101C157.431 84.8967 157.555 85.0833 157.617 85.3322L159.919 89.6865C160.043 89.9353 160.168 90.1841 160.292 90.4329C160.416 90.6817 160.541 90.9306 160.665 91.1794C160.79 91.4282 160.914 91.677 161.038 91.9258C161.163 92.1746 161.287 92.4235 161.349 92.6723C161.349 92.2368 161.287 91.8014 161.287 91.3038C161.287 90.8683 161.287 90.3707 161.287 89.9975V84.3991C161.287 84.3369 161.287 84.2747 161.349 84.2125C161.412 84.1503 161.474 84.1503 161.536 84.0881C161.598 84.0259 161.723 84.0259 161.847 84.0259C161.971 84.0259 162.158 84.0259 162.407 84.0259C162.594 84.0259 162.78 84.0259 162.905 84.0259C163.029 84.0259 163.153 84.0881 163.216 84.0881C163.278 84.1503 163.34 84.1503 163.402 84.2125C163.464 84.2747 163.464 84.3369 163.464 84.3991V95.036H163.713Z" fill="#221F21"/>
<path d="M176.03 94.9737C176.092 95.2225 176.154 95.347 176.154 95.4714C176.154 95.5958 176.154 95.7202 176.092 95.7824C176.03 95.8446 175.905 95.9068 175.719 95.9068C175.532 95.9068 175.283 95.9068 175.034 95.9068C174.723 95.9068 174.475 95.9068 174.288 95.9068C174.101 95.9068 173.977 95.9068 173.915 95.8446C173.853 95.8446 173.728 95.7824 173.728 95.7202C173.666 95.658 173.666 95.5958 173.666 95.5336L172.857 93.1698H168.379L167.632 95.4714C167.632 95.5336 167.57 95.658 167.508 95.658C167.445 95.7202 167.383 95.7824 167.321 95.7824C167.259 95.8446 167.134 95.8446 166.948 95.8446C166.761 95.8446 166.575 95.8446 166.326 95.8446C166.015 95.8446 165.828 95.8446 165.642 95.8446C165.455 95.8446 165.393 95.7824 165.331 95.7202C165.268 95.658 165.268 95.5336 165.268 95.4092C165.268 95.2847 165.331 95.0981 165.393 94.9115L169.063 84.3368C169.125 84.2124 169.125 84.1502 169.187 84.088C169.249 84.0258 169.312 83.9636 169.436 83.9636C169.56 83.9014 169.685 83.9014 169.871 83.9014C170.058 83.9014 170.307 83.9014 170.618 83.9014C170.991 83.9014 171.24 83.9014 171.489 83.9014C171.675 83.9014 171.862 83.9636 171.986 83.9636C172.111 84.0258 172.173 84.0258 172.235 84.088C172.297 84.1502 172.36 84.2746 172.36 84.3368L176.03 94.9737ZM170.556 86.2651L168.876 91.3037H172.235L170.556 86.2651Z" fill="#221F21"/>
<path d="M184.241 94.8493C184.241 95.0359 184.241 95.1603 184.241 95.2848C184.241 95.4092 184.178 95.5336 184.178 95.5958C184.178 95.658 184.116 95.7202 184.054 95.7824C183.992 95.8446 183.93 95.8446 183.867 95.8446H178.456C178.269 95.8446 178.082 95.7824 177.958 95.658C177.834 95.5336 177.771 95.347 177.771 95.0981V84.2746C177.771 84.2124 177.771 84.1502 177.834 84.088C177.896 84.0258 177.958 84.0258 178.02 83.9636C178.082 83.9636 178.207 83.9014 178.393 83.9014C178.58 83.9014 178.767 83.9014 178.953 83.9014C179.202 83.9014 179.389 83.9014 179.513 83.9014C179.638 83.9014 179.762 83.9636 179.886 83.9636C179.949 84.0258 180.073 84.0258 180.073 84.088C180.135 84.1502 180.135 84.2124 180.135 84.2746V93.8541H183.867C183.93 93.8541 183.992 93.8541 184.054 93.9163C184.116 93.9785 184.116 93.9785 184.178 94.1029C184.178 94.1651 184.241 94.2895 184.241 94.4139C184.241 94.5383 184.241 94.6627 184.241 94.8493Z" fill="#221F21"/>
<path d="M195.5 95.036C195.5 95.1604 195.5 95.2848 195.437 95.4093C195.375 95.5337 195.313 95.5959 195.251 95.6581C195.189 95.7203 195.064 95.7825 194.94 95.8447C194.815 95.9069 194.691 95.9069 194.567 95.9069H193.509C193.322 95.9069 193.136 95.9069 192.949 95.8447C192.763 95.7825 192.638 95.7203 192.514 95.5959C192.389 95.4715 192.265 95.3471 192.141 95.1604C192.016 94.9738 191.892 94.725 191.705 94.414L188.719 88.8778C188.533 88.5668 188.346 88.1936 188.222 87.8203C188.035 87.4471 187.911 87.0739 187.724 86.7007C187.724 87.1361 187.786 87.5715 187.786 88.0069C187.786 88.4424 187.786 88.8778 187.786 89.3754V95.5959C187.786 95.6581 187.786 95.7203 187.724 95.7825C187.662 95.8447 187.662 95.8447 187.537 95.9069C187.475 95.9691 187.351 95.9691 187.226 95.9691C187.102 95.9691 186.915 95.9691 186.667 95.9691C186.48 95.9691 186.293 95.9691 186.107 95.9691C185.982 95.9691 185.858 95.9069 185.796 95.9069C185.734 95.8447 185.671 95.8447 185.609 95.7825C185.547 95.7203 185.547 95.6581 185.547 95.5959V84.8967C185.547 84.5857 185.609 84.3991 185.796 84.2747C185.982 84.1503 186.169 84.0881 186.418 84.0881H187.724C187.973 84.0881 188.159 84.0881 188.284 84.1503C188.471 84.2125 188.595 84.2747 188.719 84.3369C188.844 84.3991 188.968 84.5857 189.093 84.7101C189.217 84.8967 189.341 85.0833 189.404 85.3322L191.705 89.6865C191.83 89.9353 191.954 90.1841 192.078 90.4329C192.203 90.6817 192.327 90.9306 192.452 91.1794C192.576 91.4282 192.7 91.677 192.825 91.9258C192.949 92.1746 193.074 92.4235 193.136 92.6723C193.136 92.2368 193.136 91.8014 193.074 91.3038C193.011 90.8061 193.074 90.3707 193.074 89.9975V84.3991C193.074 84.3369 193.074 84.2747 193.136 84.2125C193.198 84.1503 193.26 84.1503 193.322 84.0881C193.385 84.0259 193.509 84.0259 193.633 84.0259C193.758 84.0259 193.944 84.0259 194.193 84.0259C194.38 84.0259 194.567 84.0259 194.691 84.0259C194.815 84.0259 194.94 84.0881 195.002 84.0881C195.064 84.1503 195.126 84.1503 195.189 84.2125C195.189 84.2747 195.251 84.3369 195.251 84.3991V95.036H195.5Z" fill="#221F21"/>
<path d="M200.538 95.5336C200.538 95.5958 200.538 95.658 200.476 95.7202C200.414 95.7824 200.352 95.7824 200.289 95.8446C200.227 95.8446 200.103 95.9068 199.916 95.9068C199.792 95.9068 199.543 95.9068 199.356 95.9068C199.107 95.9068 198.921 95.9068 198.796 95.9068C198.61 95.9068 198.485 95.8446 198.423 95.8446C198.361 95.8446 198.237 95.7824 198.237 95.7202C198.174 95.658 198.174 95.5958 198.174 95.5336V84.2746C198.174 84.2124 198.174 84.1502 198.237 84.088C198.299 84.0258 198.361 84.0258 198.423 83.9636C198.548 83.9636 198.672 83.9014 198.796 83.9014C198.921 83.9014 199.17 83.9014 199.356 83.9014C199.605 83.9014 199.792 83.9014 199.916 83.9014C200.041 83.9014 200.165 83.9636 200.289 83.9636C200.352 84.0258 200.476 84.0258 200.476 84.088C200.538 84.1502 200.538 84.2124 200.538 84.2746V95.5336Z" fill="#221F21"/>
<path d="M129.128 68.4124C128.319 68.4124 127.573 68.1636 126.826 67.7282C126.266 67.4172 125.831 66.9817 125.458 66.4219C124.525 67.977 122.596 68.7234 120.73 68.2258C118.677 67.666 117.558 66.1731 117.558 64.0581C117.558 61.6944 117.558 59.3306 117.558 57.029V39.363C117.558 39.1142 117.558 38.8654 117.495 38.6166C117.433 38.3678 117.433 38.1812 117.371 37.9323C117.247 37.4969 117.184 36.9993 117.184 36.5016C117.184 33.2048 117.184 29.908 117.184 26.6112V23.5631C114.51 23.1899 112.084 22.0702 109.471 19.9553V67.977H61.636V8.19869H63.2533C63.751 8.19869 64.1864 8.19869 64.684 8.19869H102.629C103.251 7.01681 104.37 6.33256 105.739 6.27036C107.294 6.20816 108.476 6.8302 109.222 8.07428C110.404 10.127 111.648 11.8065 113.017 13.2994C114.261 14.6679 115.38 15.5388 116.562 16.0986C117.869 16.7829 119.051 16.7829 120.295 16.1608C120.854 15.912 121.414 15.6632 121.974 15.4144C122.285 15.29 122.596 15.1656 122.907 15.0412C123.405 14.7923 124.213 14.7301 124.898 15.4766C125.147 15.7254 125.395 15.9742 125.644 16.223C125.893 16.0364 126.08 15.8498 126.266 15.6632C126.639 15.2278 127.448 14.5435 128.754 15.1656C129.065 15.3522 129.439 15.4766 129.75 15.6632C130.558 16.0986 131.429 16.4719 132.238 16.9695C134.539 18.2758 136.343 19.8309 137.836 21.6348C140.387 24.745 141.257 28.3529 140.511 32.334C140.076 34.5111 139.267 36.6882 137.836 39.1142C136.903 40.7315 135.161 41.478 133.42 40.9803H133.358V57.5267C133.358 59.766 133.358 61.9432 133.358 64.1825C133.358 65.6132 132.735 66.7951 131.616 67.5416C130.807 68.1636 129.936 68.4124 129.128 68.4124ZM124.338 41.8512H126.577V48.5693C126.577 53.7322 126.577 58.833 126.577 63.9959C126.577 65.1156 126.888 65.7999 127.697 66.2353C128.692 66.8573 129.687 66.7951 130.683 66.1731C131.305 65.7376 131.616 65.1156 131.616 64.2447C131.616 62.0054 131.616 59.8282 131.616 57.5889V38.3056L132.86 38.8654C132.984 38.9276 133.171 38.9898 133.295 39.052C133.544 39.1764 133.731 39.2386 133.917 39.3008C134.913 39.5496 135.846 39.1764 136.343 38.2434C137.65 35.9418 138.458 34.0135 138.832 31.9607C139.454 28.4773 138.707 25.4293 136.53 22.6923C135.224 21.0128 133.544 19.6443 131.429 18.4624C130.683 18.027 129.812 17.5915 129.003 17.2183C128.692 17.0317 128.319 16.9073 128.008 16.7207C127.821 16.6585 127.759 16.6585 127.759 16.6585C127.759 16.6585 127.697 16.6585 127.635 16.7829C127.324 17.1561 127.013 17.4049 126.702 17.7159L126.639 17.7782L126.826 18.8978C126.95 19.7687 127.075 20.5773 127.262 21.4482L128.381 28.1663C128.443 28.4151 128.506 28.8505 128.195 29.2237C127.759 29.7836 127.324 30.2812 126.888 30.841L125.769 32.2717L124.649 30.841C124.214 30.2812 123.778 29.7214 123.343 29.1615C123.032 28.7883 123.094 28.2907 123.156 28.1041C123.716 24.745 124.276 21.3238 124.836 17.9648C124.836 17.9026 124.898 17.7782 124.898 17.7159C124.836 17.6537 124.836 17.6537 124.773 17.5915C124.462 17.2805 124.089 16.9695 123.778 16.5963C123.467 16.7207 123.156 16.8451 122.845 16.9695C122.285 17.2183 121.788 17.4049 121.228 17.6537C119.548 18.4624 117.744 18.4624 115.94 17.5293C114.572 16.8451 113.266 15.8498 111.897 14.3569C110.466 12.8018 109.098 10.9979 107.916 8.82074C107.543 8.13649 106.921 7.82547 106.05 7.88767C105.241 7.94988 104.681 8.2609 104.308 9.00735C103.873 9.87821 103.188 9.87821 102.877 9.87821H64.8706C64.4352 9.87821 63.9998 9.87821 63.6265 9.87821V66.2353H107.978V15.9742L109.471 17.4049C112.519 20.3285 115.256 21.7592 118.366 21.9458L119.175 22.008V26.6734C119.175 29.9702 119.175 33.267 119.175 36.5638C119.175 36.8749 119.237 37.2481 119.362 37.6835C119.424 37.9323 119.486 38.1812 119.486 38.43C119.548 38.741 119.548 39.1142 119.548 39.4252V57.0913C119.548 59.455 119.548 61.8188 119.548 64.1203C119.548 65.4888 120.108 66.2353 121.477 66.6085C122.596 66.9195 123.84 66.4219 124.338 65.4266C124.525 65.1156 124.587 64.618 124.587 64.1825C124.587 58.7086 124.587 53.2346 124.587 47.7606L124.338 41.8512ZM124.711 28.4773C125.022 28.8505 125.271 29.2237 125.582 29.597C125.893 29.2237 126.142 28.8505 126.453 28.4773L125.582 23.0655C125.271 24.8694 124.96 26.6734 124.711 28.4773ZM105.49 64.2447H65.7415V11.9932L66.6746 11.9309C66.799 11.9309 66.9234 11.9309 67.0478 11.9309H103.997C105.055 11.9309 105.49 12.3664 105.49 13.3616V64.2447ZM67.421 62.503H103.686V13.6105H67.421V62.503ZM132.3 36.7505V24.9316L133.731 25.9891C135.348 27.2332 135.224 32.1473 133.917 34.2001L132.3 36.7505Z" fill="#221F21"/>
<path d="M125.582 16.2849C124.089 16.2849 122.534 15.8494 121.103 14.9786C119.237 13.8589 117.869 12.055 117.495 10.0022C117.06 8.0117 117.558 5.95896 118.74 4.27944C120.108 2.35111 122.099 1.23143 124.525 0.92041C124.525 0.92041 124.587 0.92041 124.649 0.92041L124.96 0.92041H126.453L126.764 0.982614C126.95 1.04482 127.137 1.04482 127.324 1.10702C130.994 1.72907 133.917 4.96369 133.855 8.50933C133.855 11.3707 132.487 13.6723 129.874 15.103C128.506 15.9116 127.013 16.2849 125.582 16.2849ZM125.084 2.66213C124.96 2.72433 124.836 2.72433 124.711 2.72433C122.721 2.97315 121.228 3.84401 120.108 5.33691C119.175 6.6432 118.802 8.19831 119.113 9.69121C119.424 11.2463 120.481 12.677 121.912 13.4857C124.276 14.8542 126.639 14.9164 129.003 13.5479C131.056 12.4282 132.051 10.6865 132.051 8.44713C132.051 5.77234 129.75 3.22197 126.95 2.72433C126.764 2.66213 126.515 2.66213 126.328 2.59993L126.204 2.66213H125.084Z" fill="#221F21"/>
<path d="M133.171 33.7024V26.6733C134.291 27.5442 134.353 31.8985 133.171 33.7024Z" fill="white"/>
<path d="M83.5319 32.8934C82.5988 32.7068 81.728 32.5202 80.9193 32.3336C80.6083 32.2714 80.3595 32.3336 80.1729 32.6446C79.6752 33.3288 79.1776 33.9509 78.6178 34.6351C77.9957 32.147 77.4359 29.7832 76.8761 27.3572C76.4406 27.3572 76.0674 27.4194 75.5698 27.4194V34.6973C75.0099 34.2619 74.5123 33.9509 74.0769 33.5154C73.4548 32.8312 72.8328 32.6446 71.9619 33.1422C71.2777 33.5154 70.469 33.7021 69.7226 33.9509C69.5982 34.0131 69.4737 34.0131 69.2249 34.0753C70.3446 31.5249 71.4021 28.9745 72.4596 26.4864C72.0241 26.0509 71.5887 25.7399 71.2155 25.3045C68.7273 22.4431 70.158 18.5242 73.3304 17.1557C75.1965 16.3471 77.0627 16.4093 78.8044 17.4045C81.5414 18.8974 82.5988 22.1943 80.7327 24.9313C80.4217 25.3667 80.0485 25.6777 79.6752 26.1131C80.2973 27.1706 80.9193 28.3525 81.5414 29.4722C82.2256 30.5296 82.8477 31.6493 83.5319 32.8934ZM75.8808 19.2085C75.5698 19.2707 75.2587 19.2707 74.9477 19.3329C72.8328 19.8927 72.1485 22.3187 73.6414 23.8738C74.5123 24.7446 75.8808 24.9935 77.1871 24.4958C78.68 23.8738 79.302 22.1321 78.5556 20.7636C77.9957 19.7061 77.0627 19.2085 75.8808 19.2085Z" fill="#69D6BA"/>
<path d="M102.318 41.1044H69.5981V37.8076H102.318V41.1044ZM70.469 40.2336H101.447V38.6785H70.469V40.2336Z" fill="#221F21"/>
<path d="M102.318 48.5068H69.5981V45.21H102.318V48.5068ZM70.469 47.6359H101.447V46.0808H70.469V47.6359Z" fill="#221F21"/>
<path d="M102.318 56.6555H69.5981V53.4209H102.318V56.6555ZM70.469 55.7847H101.447V54.2918H70.469V55.7847Z" fill="#221F21"/>
<path d="M102.069 33.8271H85.1492V30.5303H102.069V33.8271ZM86.0201 32.9562H101.198V31.4011H86.0201V32.9562Z" fill="#221F21"/>
<path d="M102.069 27.2332H85.1492V23.9985H102.069V27.2332ZM86.0201 26.3623H101.198V24.8694H86.0201V26.3623Z" fill="#221F21"/>
<path d="M102.069 21.0126H88.6949V17.7158H102.069V21.0126ZM89.5035 20.1418H101.136V18.5867H89.5035V20.1418Z" fill="#221F21"/>
</g>
<defs>
<clipPath id="clip0_290_742">
<rect width="199.987" height="98.2828" fill="white" transform="translate(0.551453 0.92041)"/>
</clipPath>
</defs>
</svg>
