<svg width="189" height="100" viewBox="0 0 189 100" fill="none" xmlns="http://www.w3.org/2000/svg">
<g clip-path="url(#clip0_292_804)">
<path d="M72.1692 34.6645C68.9648 34.0745 65.7604 33.5583 62.6306 33.0422C61.3638 32.8209 61.0657 32.3785 61.5128 31.1987C64.27 24.3408 66.9528 17.5567 69.71 10.6988C70.1571 9.519 70.6042 9.29778 71.7966 9.81396C75.3735 11.2888 79.0995 12.3211 83.0491 12.2474C83.4217 12.2474 83.7943 12.0999 84.1669 11.8787C86.1789 10.8463 88.1165 9.66648 90.203 8.7816C93.5564 7.30679 97.0589 6.64313 100.71 6.79061C101.307 6.79061 101.754 6.71687 102.126 6.27443C103.02 5.24206 104.213 5.16832 105.48 5.09458C108.311 4.9471 111.143 5.02084 113.826 5.90573C116.136 6.64313 118.372 7.60175 120.458 8.70786C122.023 9.519 123.439 9.59274 125.153 9.07656C127.687 8.26542 130.295 7.67549 132.903 7.01183C133.648 6.79061 134.244 7.15931 134.393 7.89671C135.735 14.8283 137.076 21.8336 138.418 28.7652C138.716 30.24 138.641 30.24 137.374 30.83C135.884 31.4936 134.468 32.1573 132.978 32.8209C133.35 34.2958 133.127 35.6231 131.934 36.508C130.518 37.6141 128.953 37.7615 127.24 37.2454C126.867 37.0979 126.643 37.0979 126.345 37.3191C125.749 37.6141 125.078 37.909 124.482 38.1302C124.11 38.2777 123.961 38.499 123.961 38.8676C123.812 40.4899 123.439 41.9647 122.172 43.1446C120.607 44.6194 118.67 44.8406 116.732 44.7669C116.136 45.5043 115.614 46.3154 114.944 46.9791C113.602 48.3064 111.888 48.7489 110.025 48.5276C109.802 48.5276 109.578 48.5276 109.429 48.6014C107.417 50.6661 104.958 50.7398 102.424 49.7812C101.679 49.4863 101.232 49.6337 100.636 50.1499C98.0276 52.6571 93.5564 51.4772 92.3641 48.0852C92.2896 47.9377 92.2151 47.7165 92.2151 47.4953C89.5323 48.6751 86.1044 46.9791 85.2847 44.1032C83.5707 44.7669 82.0058 44.3244 80.739 43.1446C79.4721 41.9647 78.5779 40.6374 79.025 38.7939C77.9072 38.9414 76.8639 39.2364 75.8207 39.2364C73.7341 39.3101 72.4673 38.0565 72.3182 35.9918C72.1692 35.6968 72.1692 35.2544 72.1692 34.6645ZM114.571 43.882C112.634 42.7759 110.696 41.6698 108.684 40.5637C107.939 40.1212 107.79 39.6051 108.088 39.0889C108.386 38.5727 108.982 38.499 109.653 38.9414C111.739 40.1212 113.751 41.3011 115.838 42.4809C118.148 43.8083 121.352 42.3334 121.725 39.6788C121.8 39.0889 121.8 38.7202 121.129 38.499C120.682 38.3515 120.235 38.0565 119.787 37.7615C116.956 36.213 114.198 34.5907 111.963 32.231C110.92 31.1249 110.1 29.9451 109.876 28.4703C109.802 27.8803 110.1 27.5116 110.622 27.3642C111.218 27.2167 111.739 27.5854 111.739 28.0278C111.888 29.2814 112.559 29.7976 113.677 30.0188C113.9 30.0926 114.124 30.1663 114.348 30.24C118.819 31.8623 123.364 33.0422 127.538 35.3281C128.432 35.8443 129.922 35.5493 130.593 34.8857C131.115 34.2958 131.115 33.5583 130.369 32.3785C129.401 30.83 127.91 29.7239 126.42 28.6915C124.035 27.0692 121.352 26.0368 118.744 24.857C114.198 22.7923 109.802 20.5063 105.256 18.3678C104.958 18.2204 104.511 18.0729 104.213 18.2204C103.542 18.4416 102.871 18.6628 102.35 19.1052C101.381 19.9901 100.561 20.9488 99.7416 21.9811C97.357 24.7095 94.2271 25.2994 90.7992 24.857C90.1285 24.7832 89.5323 24.4883 88.9362 24.1933C87.8184 23.6034 87.3713 22.571 87.8184 21.3912C88.1165 20.5063 88.5636 19.6214 89.0107 18.7365C89.8304 17.3355 90.9482 16.1556 91.3953 14.5333C91.5444 13.9434 91.7679 13.4272 91.9915 12.9111C92.4386 11.7312 93.1093 10.8463 94.3762 10.4039C94.8978 10.1827 95.4939 10.0352 96.0156 9.81396C96.8353 9.519 97.7296 9.22404 98.6238 8.92908C98.6238 8.85534 98.5493 8.70786 98.5493 8.63412C96.4627 9.1503 94.2271 9.44526 92.2151 10.1827C90.054 10.9201 88.0419 12.0999 86.0299 13.1323C84.614 13.8697 83.1981 14.4596 81.5587 14.3121C79.3231 14.0172 77.162 14.0172 75.0009 13.206C73.7341 12.7636 72.5418 12.3211 71.2004 11.8787C68.5922 18.3678 66.0585 24.857 63.4503 31.3461C66.133 31.8623 68.6667 32.231 71.2004 32.8209C74.2557 33.4846 77.3111 34.3695 80.3664 35.1806C80.8135 35.3281 81.1861 35.4756 81.7077 35.1806C83.1236 34.3695 84.614 34.4432 85.9554 35.4756C86.7006 36.0655 87.2967 36.9504 87.9674 37.6878C87.9674 37.6878 88.0419 37.6141 88.1165 37.5403C90.7247 35.4756 93.7055 36.213 94.9723 39.3101C95.4939 40.4899 95.4194 41.6698 95.1959 42.9234C97.5805 42.8496 99.22 43.9557 100.04 46.0205C100.636 47.4953 101.754 48.0852 103.095 48.3064C103.319 48.3802 103.542 48.4539 103.84 48.5276C105.182 48.8226 106.374 48.5276 107.417 47.569C105.629 46.4629 103.84 45.3568 102.126 44.3244C101.381 43.882 101.083 43.3658 101.456 42.7759C101.828 42.186 102.35 42.1122 103.095 42.6284C105.033 43.8083 106.896 44.9881 108.833 46.0942C109.206 46.3154 109.578 46.6104 110.025 46.6841C112.112 46.9053 113.9 45.7255 114.571 43.882ZM132.53 9.1503C132.307 9.1503 132.158 9.1503 132.083 9.22404C129.103 9.96144 126.196 10.7726 123.215 11.51C122.843 11.5837 122.321 11.6575 122.023 11.51C120.458 10.8463 118.968 10.1827 117.477 9.44526C113.9 7.60175 110.1 6.86435 106.15 7.01183C104.809 7.01183 103.691 7.30679 102.648 8.33916C101.679 9.29778 100.561 10.0352 99.4435 10.6988C98.6983 11.1413 97.7296 11.3625 96.8353 11.5837C95.0468 11.8787 94.0036 12.9111 93.631 14.6071C93.1838 16.3031 92.3641 17.7779 91.3208 19.1052C90.8737 19.7689 90.4266 20.4326 90.1285 21.17C89.7559 22.0549 89.9049 22.4236 90.8737 22.7185C93.6309 23.4559 97.357 22.6448 99.0709 19.9901C99.8906 18.6628 101.008 17.6304 102.424 16.893C103.84 16.1556 105.256 15.9344 106.821 16.8193C109.429 18.2941 112.112 19.6214 114.795 20.875C117.999 22.3498 121.203 23.6771 124.408 25.2257C126.941 26.4055 129.326 27.9541 131.189 30.0926C132.083 31.1249 132.083 31.1249 133.35 30.535C134.393 30.0188 135.511 29.5764 136.555 29.0602C135.139 22.3498 133.872 15.7869 132.53 9.1503ZM93.631 41.1536C93.5564 40.7849 93.4819 40.3425 93.3329 39.9C92.6622 38.0565 90.8737 37.6141 89.4578 39.0151C88.2655 40.195 87.5203 41.6698 87.0732 43.2183C86.8496 43.9557 87.1477 44.6194 87.8184 45.0618C88.4145 45.4305 89.0852 45.7992 89.7559 46.0942C90.054 46.2417 90.5756 46.1679 90.7992 46.0205C92.5131 44.8406 93.4074 43.2183 93.631 41.1536ZM80.739 39.6051C80.6645 40.7849 81.8568 42.1122 83.0491 42.4809C83.4217 42.5547 83.9433 42.5547 84.3159 42.4072C85.6573 41.7435 86.477 39.8263 86.1044 38.4252C85.7318 36.9504 84.2414 36.0655 83.0491 36.5817C81.7077 37.1716 81.0371 38.4252 80.739 39.6051ZM95.792 44.6931C94.8978 44.6931 94.3762 44.9144 94.0036 45.578C93.5564 46.3892 93.8545 47.1266 94.1526 47.7902C94.8233 49.4863 97.506 50.2237 98.9219 49.0438C99.1454 48.8226 99.369 48.7489 99.1454 48.3064C98.7728 47.569 98.4748 46.8316 98.1767 46.1679C97.7296 45.0618 96.7608 44.6931 95.792 44.6931ZM124.557 35.918C121.427 34.7382 118.446 33.7058 115.465 32.5997C117.477 34.2957 119.713 35.6231 122.098 36.7292C122.247 36.8029 122.396 36.8029 122.47 36.8029C123.141 36.5817 123.737 36.2867 124.557 35.918ZM79.025 36.7292V36.4342C77.3856 35.9918 75.8207 35.5493 74.1067 35.1069C74.1067 35.3281 74.1067 35.4756 74.1067 35.6231C74.1067 36.8767 74.6283 37.4666 75.8952 37.3928C76.9385 37.3191 77.9817 37.0241 79.025 36.7292Z" fill="#F47722"/>
<path d="M141.324 30.6089C140.653 30.6089 140.28 30.3877 140.131 29.7978C139.386 26.037 138.567 22.2763 137.747 18.5155C136.853 14.0911 135.958 9.66666 134.99 5.31598C134.691 4.06239 134.915 3.84117 136.107 3.39873C138.865 2.51385 141.696 1.62896 144.454 0.744079C144.677 0.670339 144.901 0.596599 145.124 0.596599C145.795 0.522858 146.242 0.670339 146.391 1.40774C146.987 3.84117 147.658 6.34834 148.254 8.78178C148.925 11.5839 149.595 14.386 150.266 17.1882C151.086 20.5065 151.906 23.7511 152.725 26.9956C153.023 28.2492 152.725 28.6179 151.459 28.8391C148.925 29.2816 146.466 29.7978 143.932 30.2402C143.038 30.2402 142.143 30.3877 141.324 30.6089ZM141.845 28.4704C144.826 27.8805 147.732 27.3643 150.639 26.7744C148.627 18.663 146.689 10.6253 144.677 2.58759C142.069 3.39873 139.535 4.20987 136.927 5.02102C138.641 12.9112 140.206 20.654 141.845 28.4704Z" fill="#F47722"/>
<path d="M58.4575 33.0425C57.4142 32.7476 56.5944 32.5263 55.8492 32.3051C53.241 31.5677 50.6328 30.7566 48.0992 29.9454C47.1304 29.6505 46.9068 29.1343 47.354 28.2494C50.4838 21.6865 53.5391 15.0499 56.669 8.487C57.3397 7.08593 57.9358 5.75861 58.532 4.35754C58.9046 3.47266 59.4262 3.25144 60.2459 3.69388C62.9287 4.87372 65.6114 6.12731 68.2941 7.30715C68.8903 7.60211 69.0393 8.04456 68.7412 8.8557C68.0705 10.6255 67.3253 12.3952 66.5801 14.165C64.7917 18.6632 62.9287 23.0876 61.1402 27.5857C60.544 29.1343 59.8733 30.6828 59.2027 32.2314C59.1281 32.5263 58.681 32.8213 58.4575 33.0425ZM60.0969 5.68487C56.5199 13.2801 53.0175 20.8016 49.4405 28.3231C52.1232 29.1343 54.7314 29.8717 57.3396 30.6091C57.4887 30.6828 57.8613 30.4616 57.9358 30.3141C58.3084 29.5767 58.532 28.8393 58.8301 28.1019C60.9166 23.0138 63.0032 17.852 65.0897 12.7639C65.6114 11.4366 66.133 10.1093 66.7292 8.70822C64.4936 7.67585 62.407 6.71723 60.0969 5.68487Z" fill="#F47722"/>
<path d="M9.79587 91.0763C9.79587 91.3713 9.72135 91.5925 9.57231 91.74C9.42327 91.8875 9.27423 91.9612 8.97615 91.9612H3.53618C3.53618 92.3299 3.6107 92.6986 3.68523 92.9936C3.75975 93.2885 3.90879 93.5835 4.13235 93.8047C4.35591 94.0259 4.57947 94.1734 4.87755 94.3209C5.17563 94.4684 5.54823 94.4684 5.99535 94.4684C6.44247 94.4684 6.81507 94.4684 7.18767 94.3946C7.56027 94.3209 7.78383 94.2471 8.08191 94.1734C8.30547 94.0997 8.52903 94.0259 8.67807 93.9522C8.82711 93.8784 8.97615 93.8784 9.05067 93.8784C9.12519 93.8784 9.19971 93.8784 9.19971 93.8784C9.27423 93.8784 9.27423 93.9522 9.27423 94.0259C9.27423 94.0997 9.34875 94.1734 9.34875 94.2471C9.34875 94.3946 9.34875 94.4684 9.34875 94.6896C9.34875 94.8371 9.34875 94.9846 9.34875 95.0583C9.34875 95.132 9.34875 95.2795 9.34875 95.3533C9.34875 95.427 9.34875 95.5007 9.27423 95.5745C9.27423 95.6482 9.19971 95.6482 9.19971 95.722C9.12519 95.7957 9.05067 95.7957 8.82711 95.9432C8.60355 96.0169 8.37999 96.0907 8.08191 96.1644C7.78383 96.2381 7.41123 96.3119 7.03863 96.3856C6.66603 96.4594 6.21891 96.4594 5.77179 96.4594C4.95207 96.4594 4.28139 96.3856 3.68523 96.1644C3.08906 95.9432 2.56742 95.6482 2.19482 95.2795C1.82222 94.8371 1.52414 94.3946 1.30058 93.731C1.07702 93.141 1.0025 92.4036 1.0025 91.5188C1.0025 90.7076 1.07702 90.0439 1.30058 89.3803C1.52414 88.7166 1.82222 88.2004 2.19482 87.758C2.56742 87.3156 3.08906 86.9469 3.6107 86.7256C4.20687 86.5044 4.80303 86.3569 5.54823 86.3569C6.29343 86.3569 6.96411 86.4307 7.48575 86.6519C8.00739 86.8731 8.45451 87.1681 8.82711 87.5368C9.19971 87.9055 9.42327 88.4217 9.57231 88.9378C9.72135 89.454 9.79587 90.044 9.79587 90.7076V91.0763ZM7.33671 90.3389C7.33671 89.6015 7.18767 89.0853 6.88959 88.6429C6.59151 88.2742 6.14439 88.053 5.47371 88.053C5.17563 88.053 4.87755 88.1267 4.65399 88.2004C4.43043 88.3479 4.20687 88.4954 4.05783 88.7166C3.90879 88.9378 3.75975 89.1591 3.68523 89.454C3.6107 89.749 3.53618 90.044 3.53618 90.3389H7.33671Z" fill="#221F21"/>
<path d="M18.2166 93.2885C18.2166 93.8047 18.1421 94.2471 17.9185 94.6158C17.6949 94.9845 17.4714 95.3532 17.0988 95.5744C16.7262 95.8694 16.3536 96.0169 15.8319 96.1644C15.3848 96.3118 14.8632 96.3856 14.267 96.3856C13.8944 96.3856 13.5963 96.3856 13.2983 96.3118C13.0002 96.2381 12.7021 96.1644 12.4785 96.0906C12.255 96.0169 12.0314 95.9431 11.8824 95.8694C11.7333 95.7957 11.5843 95.7219 11.5098 95.6482C11.4353 95.5744 11.3607 95.5007 11.3607 95.3532C11.2862 95.2057 11.2862 94.9845 11.2862 94.6896C11.2862 94.4683 11.2862 94.3209 11.2862 94.2471C11.2862 94.0996 11.2862 94.0259 11.3607 93.9522C11.3607 93.8784 11.4353 93.8047 11.4353 93.8047C11.5098 93.8047 11.5098 93.8047 11.5843 93.8047C11.6588 93.8047 11.7333 93.8784 11.8824 93.9522C12.0314 94.0259 12.1805 94.0996 12.404 94.2471C12.6276 94.3209 12.8511 94.4683 13.1492 94.5421C13.4473 94.6158 13.7454 94.6896 14.118 94.6896C14.3415 94.6896 14.5651 94.6896 14.7141 94.6158C14.8632 94.5421 15.0122 94.4683 15.1613 94.3946C15.3103 94.3209 15.3848 94.1734 15.4593 94.0996C15.5339 93.9522 15.5339 93.8047 15.5339 93.6572C15.5339 93.436 15.4593 93.2885 15.3848 93.141C15.2358 92.9935 15.0867 92.846 14.8632 92.7723C14.6396 92.6986 14.4161 92.5511 14.1925 92.4774C13.9689 92.4036 13.6709 92.2561 13.3728 92.1824C13.0747 92.1086 12.8511 91.9612 12.5531 91.8137C12.3295 91.6662 12.0314 91.5187 11.8824 91.2975C11.6588 91.0763 11.5098 90.8551 11.3607 90.5601C11.2117 90.2651 11.2117 89.8964 11.2117 89.454C11.2117 89.0116 11.2862 88.6429 11.4353 88.2741C11.5843 87.9054 11.8824 87.6105 12.1805 87.3893C12.4785 87.168 12.8511 86.9468 13.3728 86.7993C13.8199 86.6519 14.3415 86.5781 14.9377 86.5781C15.2358 86.5781 15.4593 86.5781 15.7574 86.6519C16.0555 86.7256 16.2791 86.7256 16.5026 86.7993C16.7262 86.8731 16.8752 86.9468 17.0243 87.0206C17.1733 87.0943 17.2478 87.168 17.3223 87.168C17.3969 87.2418 17.3969 87.2418 17.4714 87.3155C17.4714 87.3893 17.5459 87.3893 17.5459 87.463C17.5459 87.5367 17.5459 87.6105 17.5459 87.758C17.5459 87.8317 17.5459 87.9792 17.5459 88.1267C17.5459 88.2742 17.5459 88.4216 17.5459 88.5691C17.5459 88.7166 17.5459 88.7903 17.4714 88.8641C17.4714 88.9378 17.3969 89.0116 17.3969 89.0116C17.3223 89.0116 17.3223 89.0116 17.2478 89.0116C17.1733 89.0116 17.0988 89.0116 16.9497 88.9378C16.8007 88.8641 16.6517 88.7903 16.5026 88.7166C16.2791 88.6428 16.0555 88.5691 15.8319 88.4954C15.6084 88.4216 15.3103 88.4216 14.9377 88.4216C14.7141 88.4216 14.4906 88.4216 14.3415 88.4954C14.1925 88.5691 14.0435 88.6428 13.8944 88.7166C13.8199 88.7903 13.6709 88.9378 13.6709 89.0116C13.5963 89.159 13.5963 89.2328 13.5963 89.3803C13.5963 89.6015 13.6709 89.749 13.8199 89.8964C13.9689 90.0439 14.118 90.1914 14.3415 90.2651C14.5651 90.3389 14.7887 90.4864 15.0867 90.5601C15.3848 90.6338 15.6084 90.7813 15.9065 90.8551C16.2045 90.9288 16.4281 91.0763 16.7262 91.2238C17.0243 91.3712 17.2478 91.5187 17.4714 91.7399C17.6949 91.9612 17.844 92.1824 17.993 92.4774C18.1421 92.7723 18.2166 92.8461 18.2166 93.2885Z" fill="#221F21"/>
<path d="M25.2215 94.9106C25.2215 95.2056 25.2215 95.4268 25.147 95.5743C25.147 95.7218 25.0725 95.8692 24.9979 95.8692C24.9234 95.943 24.8489 96.0167 24.6999 96.0167C24.5508 96.0905 24.4763 96.0905 24.2527 96.1642C24.1037 96.1642 23.9547 96.2379 23.7311 96.2379C23.5821 96.2379 23.3585 96.2379 23.1349 96.2379C22.6133 96.2379 22.1662 96.1642 21.7936 96.0167C21.421 95.8693 21.1229 95.7218 20.8993 95.4268C20.6758 95.1319 20.4522 94.8369 20.3777 94.4682C20.2287 94.0995 20.2287 93.5833 20.2287 93.0671V88.4952H19.1854C19.0363 88.4952 18.9618 88.4215 18.8873 88.274C18.8128 88.1265 18.8128 87.8316 18.8128 87.4629C18.8128 87.2416 18.8128 87.0942 18.8128 86.9467C18.8128 86.7992 18.8873 86.7255 18.8873 86.6517C18.8873 86.578 18.9618 86.5042 19.0363 86.5042C19.1109 86.5042 19.1109 86.4305 19.1854 86.4305H20.3032V84.4395C20.3032 84.3658 20.3032 84.292 20.3777 84.292C20.3777 84.2183 20.4522 84.2183 20.6013 84.1445C20.6758 84.0708 20.8248 84.0708 20.9739 84.0708C21.1229 84.0708 21.3465 84.0708 21.57 84.0708C21.7936 84.0708 22.0171 84.0708 22.1662 84.0708C22.3152 84.0708 22.4643 84.1445 22.5388 84.1445C22.6133 84.2183 22.6878 84.2183 22.7623 84.292C22.8369 84.3658 22.8369 84.4395 22.8369 84.4395V86.4305H24.7744C24.8489 86.4305 24.9234 86.4305 24.9234 86.5042C24.9979 86.5042 24.9979 86.578 25.0725 86.6517C25.0725 86.7255 25.147 86.7992 25.147 86.9467C25.147 87.0942 25.147 87.2416 25.147 87.4629C25.147 87.8316 25.147 88.1265 25.0725 88.274C24.9979 88.4215 24.9234 88.4952 24.7744 88.4952H22.8369V92.6984C22.8369 93.2146 22.9114 93.5833 23.0604 93.8045C23.2095 94.0257 23.5075 94.1732 23.8801 94.1732C24.0292 94.1732 24.1037 94.1732 24.2527 94.1732C24.3273 94.1732 24.4763 94.0995 24.5508 94.0995C24.6253 94.0995 24.6999 94.0257 24.7744 94.0257C24.8489 94.0257 24.8489 94.0257 24.9234 94.0257C24.9979 94.0257 24.9979 94.0257 25.0725 94.0257C25.147 94.0257 25.147 94.0995 25.147 94.1732C25.147 94.247 25.147 94.3207 25.2215 94.4682C25.2215 94.6157 25.2215 94.7632 25.2215 94.9106Z" fill="#221F21"/>
<path d="M35.1327 91.0763C35.1327 91.3713 35.0582 91.5925 34.9091 91.74C34.7601 91.8875 34.611 91.9612 34.313 91.9612H28.7985C28.7985 92.3299 28.873 92.6986 28.9475 92.9936C29.022 93.2885 29.1711 93.5835 29.3946 93.8047C29.6182 94.0259 29.8418 94.1734 30.1398 94.3209C30.4379 94.4684 30.8105 94.4684 31.2576 94.4684C31.7048 94.4684 32.0774 94.4684 32.45 94.3946C32.8226 94.3209 33.0461 94.2471 33.3442 94.1734C33.5678 94.0997 33.7913 94.0259 33.9404 93.9522C34.0894 93.8784 34.2384 93.8784 34.313 93.8784C34.3875 93.8784 34.3875 93.8784 34.462 93.8784C34.5365 93.8784 34.5365 93.9522 34.5365 94.0259C34.5365 94.0997 34.611 94.1734 34.611 94.2471C34.611 94.3946 34.611 94.4684 34.611 94.6896C34.611 94.8371 34.611 94.9846 34.611 95.0583C34.611 95.132 34.611 95.2795 34.611 95.3533C34.611 95.427 34.611 95.5007 34.5365 95.5745C34.5365 95.6482 34.462 95.6482 34.462 95.722C34.3875 95.7957 34.313 95.7957 34.0894 95.9432C33.8658 96.0169 33.6423 96.0907 33.3442 96.1644C33.0461 96.2381 32.6735 96.3119 32.3009 96.3856C31.9283 96.4594 31.4812 96.4594 31.0341 96.4594C30.2144 96.4594 29.5437 96.3856 28.9475 96.1644C28.3514 95.9432 27.8297 95.6482 27.4571 95.2795C27.0845 94.8371 26.7864 94.3946 26.5629 93.731C26.3393 93.141 26.2648 92.4036 26.2648 91.5188C26.2648 90.7076 26.3393 90.0439 26.5629 89.3803C26.7864 88.7166 27.0845 88.2004 27.4571 87.758C27.8297 87.3156 28.3514 86.9469 28.873 86.7256C29.4692 86.5044 30.0653 86.3569 30.8105 86.3569C31.5557 86.3569 32.2264 86.4307 32.748 86.6519C33.2697 86.8731 33.7168 87.1681 34.0894 87.5368C34.462 87.9055 34.6856 88.4217 34.8346 88.9378C34.9836 89.454 35.0582 90.044 35.0582 90.7076V91.0763H35.1327ZM32.6735 90.3389C32.6735 89.6015 32.5245 89.0853 32.2264 88.6429C31.9283 88.2742 31.4812 88.053 30.8105 88.053C30.5124 88.053 30.2144 88.1267 29.9908 88.2004C29.7672 88.3479 29.5437 88.4954 29.3946 88.7166C29.2456 88.9378 29.0966 89.1591 29.022 89.454C28.9475 89.749 28.873 90.044 28.873 90.3389H32.6735Z" fill="#221F21"/>
<path d="M43.5535 93.2881C43.5535 93.8043 43.4789 94.2467 43.2554 94.6154C43.0318 94.9841 42.8083 95.3529 42.4357 95.5741C42.0631 95.869 41.6905 96.0165 41.1688 96.164C40.7217 96.3115 40.2001 96.3852 39.6039 96.3852C39.2313 96.3852 38.9332 96.3852 38.6351 96.3115C38.3371 96.2377 38.039 96.164 37.8154 96.0903C37.5919 96.0165 37.3683 95.9428 37.2193 95.869C37.0702 95.7953 36.9212 95.7216 36.8467 95.6478C36.7721 95.5741 36.6976 95.5003 36.6976 95.3528C36.6976 95.2054 36.6231 94.9842 36.6231 94.6892C36.6231 94.468 36.6231 94.3205 36.6231 94.2467C36.6231 94.0993 36.6231 94.0255 36.6976 93.9518C36.6976 93.878 36.7721 93.8043 36.7721 93.8043C36.8467 93.8043 36.8467 93.8043 36.9212 93.8043C36.9957 93.8043 37.0702 93.878 37.2193 93.9518C37.3683 94.0255 37.5173 94.0993 37.7409 94.2467C37.9645 94.3205 38.188 94.468 38.4861 94.5417C38.7842 94.6154 39.0823 94.6892 39.4549 94.6892C39.6784 94.6892 39.902 94.6892 40.051 94.6154C40.2001 94.5417 40.3491 94.468 40.4981 94.3942C40.6472 94.3205 40.7217 94.173 40.7962 94.0993C40.8707 93.9518 40.8707 93.8043 40.8707 93.6568C40.8707 93.4356 40.7962 93.2881 40.7217 93.1406C40.5727 92.9932 40.4236 92.8457 40.2001 92.7719C39.9765 92.6982 39.7529 92.5507 39.5294 92.477C39.3058 92.4032 39.0077 92.2558 38.7097 92.182C38.4116 92.0345 38.188 91.9608 37.8899 91.8133C37.6664 91.6658 37.3683 91.5184 37.2193 91.2971C36.9957 91.0759 36.8467 90.8547 36.6976 90.5597C36.5486 90.2648 36.4741 89.8961 36.4741 89.4536C36.4741 89.0112 36.5486 88.6425 36.6976 88.2738C36.8467 87.9051 37.1447 87.6101 37.4428 87.3889C37.7409 87.1677 38.1135 86.9465 38.6351 86.799C39.0823 86.6515 39.6039 86.5778 40.2001 86.5778C40.4981 86.5778 40.7217 86.5778 41.0198 86.6515C41.3179 86.7252 41.5414 86.7252 41.765 86.799C41.9885 86.8727 42.1376 86.9465 42.2866 87.0202C42.4357 87.0939 42.5102 87.1677 42.5847 87.1677C42.6592 87.2414 42.6592 87.2414 42.7337 87.3152C42.7337 87.3889 42.8083 87.3889 42.8083 87.4626C42.8083 87.5364 42.8083 87.6101 42.8083 87.7576C42.8083 87.8313 42.8083 87.9788 42.8083 88.1263C42.8083 88.2738 42.8083 88.4213 42.8083 88.5687C42.8083 88.7162 42.8083 88.79 42.7337 88.8637C42.7337 88.9374 42.6592 89.0112 42.6592 89.0112C42.5847 89.0112 42.5847 89.0112 42.5102 89.0112C42.4357 89.0112 42.3611 89.0112 42.2121 88.9374C42.0631 88.8637 41.914 88.79 41.765 88.7162C41.5414 88.6425 41.3179 88.5687 41.0943 88.495C40.8707 88.4213 40.5727 88.4213 40.2001 88.4213C39.9765 88.4213 39.7529 88.4213 39.6039 88.495C39.4549 88.5687 39.3058 88.6425 39.1568 88.7162C39.0823 88.79 38.9332 88.9374 38.9332 89.0112C38.8587 89.1587 38.8587 89.2324 38.8587 89.3799C38.8587 89.6011 38.9332 89.7486 39.0823 89.8961C39.2313 90.0436 39.3803 90.191 39.6039 90.2648C39.8275 90.3385 40.051 90.486 40.3491 90.5597C40.6472 90.6335 40.8707 90.781 41.1688 90.8547C41.4669 90.9284 41.6905 91.0759 41.9885 91.2234C42.2866 91.3709 42.5102 91.5184 42.7337 91.7396C42.9573 91.9608 43.1063 92.182 43.2554 92.477C43.4789 92.5507 43.5535 92.8457 43.5535 93.2881ZM40.6472 82.522C40.7217 82.4483 40.7217 82.3746 40.7962 82.3008C40.8707 82.2271 40.9453 82.2271 41.0198 82.1533C41.0943 82.1533 41.2433 82.0796 41.3924 82.0796C41.5414 82.0796 41.765 82.0796 41.9885 82.0796C42.2866 82.0796 42.5102 82.0796 42.7337 82.1533C42.8828 82.1533 43.0318 82.2271 43.1063 82.3008C43.1809 82.3746 43.2554 82.3746 43.1809 82.4483C43.1809 82.522 43.1063 82.5958 43.1063 82.6695L41.1688 84.9555C41.0943 85.0292 41.0943 85.1029 41.0198 85.1029C40.9453 85.1767 40.8707 85.1767 40.7962 85.1767C40.7217 85.1767 40.5727 85.2504 40.4981 85.2504C40.3491 85.2504 40.2001 85.2504 39.9765 85.2504C39.7529 85.2504 39.5294 85.2504 39.3803 85.2504C39.2313 85.2504 39.1568 85.1767 39.0823 85.1767C39.0077 85.1029 39.0077 85.1029 39.0077 85.0292C39.0077 84.9555 39.0823 84.8817 39.0823 84.808L40.6472 82.522Z" fill="#221F21"/>
<path d="M59.7988 95.7952C59.7988 95.869 59.7988 95.9427 59.7243 95.9427C59.6498 96.0164 59.6498 96.0164 59.5007 96.0902C59.4262 96.0902 59.2772 96.1639 59.1281 96.1639C58.9791 96.1639 58.7555 96.1639 58.532 96.1639C58.3084 96.1639 58.0849 96.1639 57.9358 96.1639C57.7868 96.1639 57.6377 96.0902 57.5632 96.0902C57.4887 96.0902 57.4142 96.0164 57.3397 95.9427C57.3397 95.869 57.2651 95.869 57.2651 95.7952V90.4859C57.2651 90.191 57.2651 89.896 57.1906 89.6748C57.1161 89.4536 57.0416 89.2323 56.8925 89.0111C56.7435 88.8636 56.5945 88.7162 56.4454 88.5687C56.2964 88.4949 56.0728 88.4212 55.7747 88.4212C55.4767 88.4212 55.1786 88.5687 54.8805 88.7899C54.5824 89.0111 54.2098 89.3798 53.8372 89.8223V95.7215C53.8372 95.7952 53.8372 95.869 53.7627 95.869C53.6882 95.9427 53.6882 95.9427 53.5391 96.0165C53.4646 96.0165 53.3156 96.0902 53.1665 96.0902C53.0175 96.0902 52.7939 96.0902 52.5704 96.0902C52.3468 96.0902 52.1233 96.0902 51.9742 96.0902C51.8252 96.0902 51.6761 96.0165 51.6016 96.0165C51.5271 96.0165 51.4526 95.9427 51.3781 95.869C51.3035 95.7952 51.3035 95.7952 51.3035 95.7215V90.4122C51.3035 90.1172 51.3035 89.8223 51.229 89.601C51.1545 89.3798 51.08 89.1586 51.0054 88.9374C50.8564 88.7899 50.7074 88.6424 50.5583 88.4949C50.4093 88.4212 50.1857 88.3474 49.8876 88.3474C49.5896 88.3474 49.2915 88.4949 48.9934 88.7162C48.6953 88.9374 48.3227 89.3061 48.0247 89.7485V95.6477C48.0247 95.7215 48.0246 95.7952 47.9501 95.7952C47.8756 95.869 47.8756 95.869 47.7266 95.9427C47.652 95.9427 47.503 96.0165 47.354 96.0165C47.2049 96.0165 46.9814 96.0165 46.7578 96.0165C46.5342 96.0165 46.3107 96.0165 46.1616 96.0165C46.0126 96.0165 45.8636 95.9427 45.789 95.9427C45.7145 95.9427 45.64 95.869 45.5655 95.7952C45.491 95.7215 45.491 95.7215 45.491 95.6477V86.7252C45.491 86.6514 45.491 86.5777 45.5655 86.5777C45.5655 86.5039 45.64 86.5039 45.7145 86.4302C45.789 86.4302 45.9381 86.3565 46.0871 86.3565C46.2362 86.3565 46.3852 86.3565 46.6088 86.3565C46.8323 86.3565 46.9814 86.3565 47.1304 86.3565C47.2794 86.3565 47.354 86.4302 47.4285 86.4302C47.503 86.4302 47.5775 86.5039 47.5775 86.5777C47.5775 86.6514 47.652 86.6514 47.652 86.7252V87.7575C48.1737 87.2413 48.6208 86.7989 49.1424 86.5777C49.6641 86.2827 50.1857 86.209 50.7074 86.209C51.08 86.209 51.3781 86.2827 51.6761 86.3565C51.9742 86.4302 52.2723 86.5777 52.4959 86.6514C52.7194 86.7989 52.943 86.9464 53.092 87.1676C53.2411 87.3888 53.3901 87.61 53.5391 87.8313C53.8372 87.5363 54.0608 87.3151 54.3589 87.0939C54.5824 86.8726 54.8805 86.7252 55.1041 86.5777C55.3276 86.4302 55.6257 86.3565 55.8493 86.2827C56.0728 86.209 56.3709 86.209 56.5945 86.209C57.1906 86.209 57.7123 86.2827 58.0849 86.5039C58.4575 86.7252 58.8301 86.9464 59.0536 87.3151C59.2772 87.6838 59.5007 88.0525 59.5753 88.4949C59.6498 88.9374 59.7243 89.4536 59.7243 89.9697V95.7952H59.7988Z" fill="#221F21"/>
<path d="M67.1763 96.1644L66.0585 99.3352C65.984 99.4827 65.835 99.6302 65.5369 99.7039C65.2388 99.7777 64.8662 99.7777 64.3446 99.7777C64.0465 99.7777 63.8229 99.7777 63.6739 99.7777C63.5249 99.7777 63.3758 99.7039 63.3013 99.6302C63.2268 99.5565 63.1523 99.4827 63.1523 99.409C63.1523 99.3352 63.1523 99.2615 63.2268 99.114L64.4191 96.0907C64.3446 96.0169 64.2701 96.0169 64.1955 95.8694C64.121 95.7957 64.0465 95.722 64.0465 95.5745L60.9912 87.463C60.9167 87.2418 60.8421 87.0206 60.8421 86.9469C60.8421 86.8731 60.9167 86.7256 60.9912 86.6519C61.0657 86.5782 61.2147 86.5044 61.3638 86.5044C61.5873 86.5044 61.8109 86.4307 62.109 86.4307C62.4071 86.4307 62.6306 86.4307 62.7797 86.4307C62.9287 86.4307 63.0777 86.4307 63.1523 86.5044C63.2268 86.5782 63.3013 86.5782 63.3758 86.7256C63.4503 86.7994 63.4503 86.9469 63.5249 87.0943L65.6114 93.0673L67.5489 86.9469C67.6235 86.7994 67.6235 86.6519 67.698 86.5782C67.7725 86.5044 67.847 86.5044 67.9961 86.4307C68.1451 86.4307 68.3687 86.3569 68.7413 86.3569C69.0393 86.3569 69.2629 86.3569 69.4865 86.4307C69.71 86.4307 69.7845 86.5044 69.9336 86.5782C70.0081 86.6519 70.0826 86.7256 70.0826 86.8731C70.0826 87.0206 70.0826 87.1681 70.0081 87.3156L67.1763 96.1644Z" fill="#221F21"/>
<path d="M87.2967 95.2057C87.2967 95.3532 87.2967 95.5007 87.2222 95.6482C87.1477 95.7956 87.0732 95.8694 86.9987 95.9431C86.9241 96.0169 86.7751 96.0906 86.7006 96.0906C86.5515 96.0906 86.477 96.1643 86.328 96.1643H85.2102C84.9866 96.1643 84.7631 96.1643 84.614 96.0906C84.465 96.0169 84.3159 95.9431 84.1669 95.8694C84.0179 95.7219 83.8688 95.5744 83.7198 95.3532C83.5707 95.132 83.4217 94.837 83.2727 94.542L79.9938 88.4953C79.7702 88.1266 79.6212 87.7579 79.3976 87.3155C79.1741 86.8731 79.025 86.5043 78.876 86.1356C78.876 86.6518 78.9505 87.0943 78.9505 87.5367C78.9505 87.9792 78.9505 88.4953 78.9505 89.0115V95.7956C78.9505 95.8694 78.9505 95.9431 78.876 95.9431C78.876 96.0169 78.8015 96.0169 78.6524 96.0906C78.5779 96.0906 78.4289 96.1643 78.2798 96.1643C78.1308 96.1643 77.9072 96.1643 77.6837 96.1643C77.4601 96.1643 77.2365 96.1643 77.0875 96.1643C76.9385 96.1643 76.7894 96.0906 76.7149 96.0906C76.6404 96.0169 76.5659 96.0169 76.5659 95.9431C76.5659 95.8694 76.4913 95.7956 76.4913 95.7956V84.1447C76.4913 83.8497 76.5659 83.6285 76.7894 83.4073C76.9385 83.2598 77.2365 83.186 77.4601 83.186H78.876C79.0995 83.186 79.3231 83.186 79.5467 83.2598C79.6957 83.3335 79.8447 83.4073 79.9938 83.481C80.1428 83.5547 80.2919 83.7022 80.3664 83.9234C80.5154 84.0709 80.5899 84.2921 80.739 84.5871L83.2727 89.3065C83.4217 89.6014 83.5707 89.8964 83.7198 90.1176C83.8688 90.4126 84.0179 90.6338 84.1669 90.9288C84.3159 91.2237 84.465 91.445 84.5395 91.7399C84.6885 92.0349 84.7631 92.2561 84.9121 92.5511C84.9121 92.1086 84.9121 91.5924 84.8376 91.0763C84.8376 90.5601 84.8376 90.1176 84.8376 89.6014V83.5547C84.8376 83.481 84.8376 83.4073 84.9121 83.4073C84.9866 83.3335 84.9866 83.3335 85.1357 83.2598C85.2102 83.186 85.3592 83.186 85.5083 83.186C85.6573 83.186 85.8809 83.186 86.1044 83.186C86.328 83.186 86.5515 83.186 86.7006 83.186C86.8496 83.186 86.9987 83.2598 87.0732 83.2598C87.1477 83.3335 87.2222 83.3335 87.2222 83.4073C87.2222 83.481 87.2967 83.5547 87.2967 83.5547V95.2057Z" fill="#221F21"/>
<path d="M92.8112 95.7956C92.8112 95.8694 92.8112 95.9431 92.7367 95.9431C92.6622 96.0169 92.5877 96.0169 92.5132 96.0906C92.4386 96.0906 92.2896 96.1643 92.1406 96.1643C91.9915 96.1643 91.768 96.1643 91.4699 96.1643C91.2463 96.1643 91.0228 96.1643 90.7992 96.1643C90.6502 96.1643 90.5011 96.0906 90.4266 96.0906C90.3521 96.0906 90.2776 96.0169 90.203 95.9431C90.1285 95.8694 90.1285 95.7956 90.1285 95.7956V83.5547C90.1285 83.481 90.1285 83.4073 90.203 83.4073C90.2776 83.3335 90.3521 83.3335 90.4266 83.2598C90.5011 83.2598 90.6502 83.186 90.7992 83.186C90.9482 83.186 91.1718 83.186 91.4699 83.186C91.768 83.186 91.917 83.186 92.1406 83.186C92.2896 83.186 92.4386 83.2598 92.5132 83.2598C92.5877 83.2598 92.6622 83.3335 92.7367 83.4073C92.8112 83.481 92.8112 83.5547 92.8112 83.5547V95.7956Z" fill="#221F21"/>
<path d="M103.468 95.1315C103.468 95.3527 103.468 95.5002 103.468 95.6477C103.468 95.7952 103.393 95.8689 103.393 95.9426C103.393 96.0164 103.319 96.0901 103.244 96.0901C103.17 96.0901 103.17 96.1639 103.095 96.1639H96.5372C96.3137 96.1639 96.1646 96.0901 95.9411 95.9426C95.792 95.7952 95.7175 95.5739 95.7175 95.279V83.9967C95.7175 83.7017 95.792 83.4805 95.9411 83.333C96.0901 83.1856 96.3137 83.1118 96.5372 83.1118H103.095C103.17 83.1118 103.244 83.1118 103.244 83.1856C103.319 83.1856 103.319 83.2593 103.393 83.333C103.393 83.4068 103.468 83.5543 103.468 83.628C103.468 83.7755 103.468 83.923 103.468 84.1442C103.468 84.3654 103.468 84.5129 103.468 84.5866C103.468 84.7341 103.393 84.8078 103.393 84.8816C103.393 84.9553 103.319 85.0291 103.244 85.0291C103.17 85.0291 103.17 85.1028 103.095 85.1028H98.4002V88.2736H102.35C102.424 88.2736 102.499 88.2736 102.499 88.3474C102.573 88.3474 102.573 88.4211 102.648 88.4949C102.648 88.5686 102.722 88.6423 102.722 88.7898C102.722 88.9373 102.722 89.0848 102.722 89.2323C102.722 89.4535 102.722 89.601 102.722 89.7484C102.722 89.8959 102.648 89.9697 102.648 90.0434C102.648 90.1171 102.573 90.1909 102.499 90.1909C102.424 90.1909 102.424 90.2646 102.35 90.2646H98.4002V93.8779H103.095C103.17 93.8779 103.244 93.8779 103.244 93.9516C103.319 93.9516 103.319 94.0254 103.393 94.0991C103.393 94.1729 103.468 94.3203 103.468 94.3941C103.468 94.7628 103.468 94.9103 103.468 95.1315Z" fill="#221F21"/>
<path d="M113.677 95.132C113.677 95.3532 113.677 95.5007 113.677 95.6482C113.677 95.7956 113.602 95.8694 113.602 95.9431C113.602 96.0169 113.528 96.0906 113.453 96.0906C113.379 96.0906 113.379 96.1643 113.304 96.1643H105.629C105.331 96.1643 105.182 96.0906 105.033 95.9431C104.883 95.7956 104.809 95.5744 104.809 95.2795V94.837C104.809 94.6895 104.809 94.6158 104.809 94.4683C104.809 94.3208 104.883 94.2471 104.883 94.0996C104.958 93.9521 104.958 93.8784 105.033 93.7309C105.107 93.5834 105.182 93.4359 105.331 93.2147L110.398 85.2508H105.331C105.256 85.2508 105.182 85.2508 105.107 85.177C105.033 85.177 105.033 85.1033 104.958 85.0295C104.958 84.9558 104.883 84.8083 104.883 84.7346C104.883 84.5871 104.883 84.4396 104.883 84.2184C104.883 83.9972 104.883 83.8497 104.883 83.7022C104.883 83.5547 104.958 83.481 104.958 83.4073C104.958 83.3335 105.033 83.2598 105.107 83.2598C105.182 83.2598 105.256 83.186 105.331 83.186H112.559C112.857 83.186 113.006 83.2598 113.155 83.4073C113.304 83.5547 113.379 83.776 113.379 83.9972V84.5134C113.379 84.6608 113.379 84.8821 113.379 84.9558C113.379 85.1033 113.304 85.177 113.304 85.3245C113.23 85.472 113.23 85.5457 113.155 85.6932C113.081 85.8407 113.006 85.9882 112.857 86.1356L107.864 93.9521H113.304C113.453 93.9521 113.528 94.0259 113.602 94.1733C113.677 94.4683 113.677 94.6895 113.677 95.132Z" fill="#221F21"/>
<path d="M126.122 95.1315C126.196 95.3527 126.271 95.5739 126.271 95.7214C126.271 95.8689 126.271 95.9426 126.196 96.0164C126.122 96.0901 125.973 96.1639 125.824 96.1639C125.6 96.1639 125.377 96.1639 125.078 96.1639C124.706 96.1639 124.482 96.1639 124.259 96.1639C124.035 96.1639 123.886 96.1639 123.812 96.0901C123.737 96.0901 123.663 96.0164 123.588 95.9426C123.513 95.8689 123.513 95.7952 123.513 95.7214L122.619 93.1405H117.701L116.881 95.6477C116.881 95.7214 116.807 95.7952 116.807 95.8689C116.732 95.9426 116.658 96.0164 116.583 96.0164C116.509 96.0164 116.36 96.0901 116.136 96.0901C115.987 96.0901 115.689 96.0901 115.465 96.0901C115.167 96.0901 114.944 96.0901 114.72 96.0901C114.571 96.0901 114.422 96.0164 114.348 95.9426C114.273 95.8689 114.273 95.7214 114.273 95.6477C114.273 95.5002 114.348 95.3527 114.422 95.0578L118.446 83.5543C118.521 83.4068 118.521 83.333 118.595 83.2593C118.67 83.1856 118.744 83.1118 118.819 83.1118C118.968 83.0381 119.117 83.0381 119.34 83.0381C119.564 83.0381 119.787 83.0381 120.16 83.0381C120.533 83.0381 120.905 83.0381 121.129 83.0381C121.352 83.0381 121.576 83.0381 121.65 83.1118C121.8 83.1118 121.874 83.1856 121.949 83.2593C122.023 83.333 122.023 83.4068 122.098 83.5543L126.122 95.1315ZM120.16 85.6927L118.297 91.2233H122.023L120.16 85.6927Z" fill="#221F21"/>
<path d="M140.951 95.5007C140.877 95.6481 140.877 95.7956 140.802 95.8694C140.728 95.9431 140.653 96.0169 140.504 96.0906C140.355 96.1643 140.206 96.1643 139.982 96.1643C139.759 96.1643 139.461 96.1643 139.163 96.1643C138.79 96.1643 138.492 96.1643 138.268 96.1643C138.045 96.1643 137.821 96.0906 137.747 96.0906C137.598 96.0169 137.523 95.9431 137.449 95.8694C137.374 95.7956 137.374 95.6481 137.3 95.5007L135.213 87.3155L133.201 95.5007C133.201 95.6481 133.127 95.7956 133.052 95.8694C132.978 95.9431 132.903 96.0169 132.754 96.0906C132.605 96.1643 132.456 96.1643 132.232 96.1643C132.009 96.1643 131.711 96.1643 131.338 96.1643C130.965 96.1643 130.667 96.1643 130.369 96.1643C130.146 96.1643 129.922 96.0906 129.848 96.0906C129.699 96.0169 129.624 95.9431 129.55 95.8694C129.475 95.7956 129.475 95.6481 129.401 95.5007L126.42 84.2184C126.345 83.9972 126.345 83.776 126.345 83.6285C126.345 83.481 126.345 83.4073 126.494 83.3335C126.569 83.2598 126.718 83.186 126.941 83.186C127.165 83.186 127.389 83.186 127.761 83.186C128.059 83.186 128.357 83.186 128.506 83.186C128.655 83.186 128.804 83.186 128.953 83.2598C129.028 83.2598 129.102 83.3335 129.177 83.4073C129.177 83.481 129.252 83.5547 129.252 83.7022L131.562 93.5834L133.946 83.776C133.946 83.6285 134.021 83.5547 134.021 83.481C134.095 83.4073 134.17 83.3335 134.244 83.3335C134.319 83.2598 134.468 83.2598 134.691 83.2598C134.841 83.2598 135.139 83.2598 135.437 83.2598C135.735 83.2598 136.033 83.2598 136.182 83.2598C136.405 83.2598 136.554 83.3335 136.629 83.3335C136.704 83.4073 136.778 83.4073 136.853 83.481C136.927 83.5547 136.927 83.7022 136.927 83.776L139.386 93.5834L141.696 83.7022C141.696 83.6285 141.771 83.481 141.771 83.4073C141.771 83.3335 141.845 83.2598 141.994 83.2598C142.069 83.186 142.218 83.186 142.367 83.186C142.516 83.186 142.814 83.186 143.112 83.186C143.41 83.186 143.634 83.186 143.783 83.186C143.932 83.186 144.081 83.2598 144.156 83.3335C144.23 83.4073 144.23 83.481 144.23 83.6285C144.23 83.776 144.156 83.9972 144.156 84.2184L140.951 95.5007Z" fill="#221F21"/>
<path d="M157.42 89.5272C157.42 90.6333 157.271 91.592 157.048 92.4031C156.749 93.2142 156.377 93.9517 155.855 94.5416C155.334 95.1315 154.663 95.5739 153.843 95.8689C153.023 96.1639 152.129 96.3113 151.086 96.3113C150.043 96.3113 149.148 96.1639 148.403 95.9426C147.658 95.6477 146.987 95.279 146.54 94.7628C146.019 94.2466 145.646 93.5092 145.422 92.6981C145.199 91.8869 145.05 90.8546 145.05 89.7485C145.05 88.7161 145.199 87.7575 145.422 86.9463C145.72 86.1352 146.093 85.3978 146.615 84.8079C147.136 84.2179 147.807 83.7755 148.627 83.4805C149.446 83.1856 150.341 83.0381 151.384 83.0381C152.353 83.0381 153.247 83.1856 153.992 83.4068C154.737 83.7017 155.408 84.0704 155.855 84.5866C156.377 85.1028 156.749 85.8402 156.973 86.6514C157.271 87.4625 157.42 88.4211 157.42 89.5272ZM154.588 89.6747C154.588 89.0111 154.514 88.3474 154.439 87.8312C154.365 87.2413 154.141 86.7988 153.918 86.4301C153.694 86.0614 153.322 85.6927 152.874 85.5453C152.427 85.324 151.906 85.2503 151.235 85.2503C150.564 85.2503 150.043 85.3978 149.596 85.619C149.148 85.8402 148.776 86.2089 148.552 86.5776C148.254 87.0201 148.105 87.4625 147.956 87.9787C147.882 88.4949 147.807 89.0848 147.807 89.6747C147.807 90.4121 147.882 91.002 147.956 91.592C148.031 92.1819 148.254 92.6243 148.478 93.0668C148.701 93.4355 149.074 93.8042 149.521 93.9517C149.968 94.1729 150.49 94.2466 151.16 94.2466C151.831 94.2466 152.353 94.0991 152.8 93.8779C153.247 93.6567 153.62 93.288 153.843 92.9193C154.141 92.4768 154.29 92.0344 154.439 91.4445C154.588 90.8546 154.588 90.2646 154.588 89.6747Z" fill="#221F21"/>
<path d="M170.536 89.5272C170.536 90.7071 170.387 91.7394 170.089 92.5506C169.79 93.3617 169.343 94.0991 168.747 94.6153C168.151 95.1315 167.48 95.5739 166.586 95.7952C165.766 96.0164 164.723 96.1639 163.605 96.1639H160.401C160.177 96.1639 160.028 96.0901 159.805 95.9426C159.656 95.7952 159.581 95.5739 159.581 95.279V83.9967C159.581 83.7017 159.656 83.4805 159.805 83.333C159.954 83.1856 160.177 83.1118 160.401 83.1118H163.754C164.947 83.1118 165.915 83.2593 166.735 83.4805C167.555 83.7755 168.226 84.1442 168.822 84.6604C169.343 85.1765 169.79 85.8402 170.089 86.6514C170.387 87.5362 170.536 88.4949 170.536 89.5272ZM167.778 89.601C167.778 89.011 167.704 88.4211 167.555 87.9049C167.406 87.3888 167.182 86.9463 166.884 86.5039C166.586 86.1352 166.139 85.8402 165.617 85.619C165.096 85.3978 164.425 85.324 163.68 85.324H162.338V94.0991H163.754C164.5 94.0991 165.096 94.0254 165.617 93.8042C166.139 93.5829 166.512 93.3617 166.884 92.993C167.182 92.6243 167.48 92.1819 167.629 91.592C167.704 91.002 167.778 90.3384 167.778 89.601Z" fill="#221F21"/>
<path d="M183.428 95.2057C183.428 95.3532 183.428 95.5007 183.353 95.6482C183.279 95.7956 183.204 95.8694 183.13 95.9431C183.055 96.0169 182.906 96.0906 182.831 96.0906C182.682 96.0906 182.608 96.1643 182.459 96.1643H181.341C181.117 96.1643 180.894 96.1643 180.745 96.0906C180.596 96.0169 180.447 95.9431 180.298 95.8694C180.149 95.7219 180 95.5744 179.851 95.3532C179.702 95.132 179.553 94.837 179.404 94.542L176.125 88.4953C175.901 88.1266 175.752 87.7579 175.528 87.3155C175.305 86.8731 175.156 86.5043 175.007 86.1356C175.007 86.6518 175.081 87.0943 175.081 87.5367C175.081 87.9792 175.081 88.4953 175.081 89.0115V95.7956C175.081 95.8694 175.081 95.9431 175.007 95.9431C175.007 96.0169 174.932 96.0169 174.783 96.0906C174.709 96.0906 174.56 96.1643 174.411 96.1643C174.262 96.1643 174.038 96.1643 173.815 96.1643C173.591 96.1643 173.367 96.1643 173.218 96.1643C173.069 96.1643 172.92 96.0906 172.846 96.0906C172.771 96.0169 172.697 96.0169 172.697 95.9431C172.697 95.8694 172.622 95.7956 172.622 95.7956V84.1447C172.622 83.8497 172.697 83.6285 172.92 83.4073C173.069 83.2598 173.367 83.186 173.591 83.186H175.007C175.23 83.186 175.454 83.186 175.678 83.2598C175.901 83.3335 175.976 83.4073 176.125 83.481C176.274 83.5547 176.423 83.7022 176.497 83.9234C176.646 84.0709 176.721 84.2921 176.87 84.5871L179.404 89.3065C179.553 89.6014 179.702 89.8964 179.851 90.1176C180 90.4126 180.149 90.6338 180.298 90.9288C180.447 91.2237 180.596 91.445 180.67 91.7399C180.819 92.0349 180.894 92.2561 181.043 92.5511C181.043 92.1086 181.043 91.5924 180.968 91.0763C180.968 90.5601 180.968 90.1176 180.968 89.6014V83.5547C180.968 83.481 180.968 83.4073 181.043 83.4073C181.117 83.3335 181.117 83.3335 181.267 83.2598C181.341 83.186 181.49 83.186 181.639 83.186C181.788 83.186 182.012 83.186 182.235 83.186C182.459 83.186 182.682 83.186 182.831 83.186C182.98 83.186 183.13 83.2598 183.204 83.2598C183.279 83.3335 183.353 83.3335 183.353 83.4073C183.353 83.481 183.428 83.5547 183.428 83.5547V95.2057Z" fill="#221F21"/>
<path d="M188.942 95.7956C188.942 95.8694 188.942 95.9431 188.868 95.9431C188.793 96.0169 188.719 96.0169 188.644 96.0906C188.57 96.0906 188.42 96.1643 188.271 96.1643C188.122 96.1643 187.899 96.1643 187.601 96.1643C187.377 96.1643 187.154 96.1643 186.93 96.1643C186.781 96.1643 186.632 96.0906 186.557 96.0906C186.483 96.0906 186.408 96.0169 186.334 95.9431C186.259 95.8694 186.259 95.7956 186.259 95.7956V83.5547C186.259 83.481 186.259 83.4073 186.334 83.4073C186.408 83.3335 186.483 83.3335 186.557 83.2598C186.632 83.2598 186.781 83.186 186.93 83.186C187.079 83.186 187.303 83.186 187.601 83.186C187.899 83.186 188.048 83.186 188.271 83.186C188.42 83.186 188.57 83.2598 188.644 83.2598C188.719 83.2598 188.793 83.3335 188.868 83.4073C188.942 83.481 188.942 83.5547 188.942 83.5547V95.7956Z" fill="#221F21"/>
</g>
<defs>
<clipPath id="clip0_292_804">
<rect width="188.014" height="99.3282" fill="white" transform="translate(0.927979 0.449219)"/>
</clipPath>
</defs>
</svg>
