<svg width="198" height="121" viewBox="0 0 198 121" fill="none" xmlns="http://www.w3.org/2000/svg">
<g clip-path="url(#clip0_292_776)">
<path d="M5.06272 116.08C5.06272 116.824 4.98812 117.494 4.83891 117.941C4.6897 118.387 4.54049 118.833 4.24207 119.131C3.94365 119.429 3.64523 119.726 3.1976 119.875C2.82457 120.024 2.30234 120.098 1.7801 120.098C1.48168 120.098 1.25787 120.098 1.03405 120.024C0.810235 119.95 0.661025 119.95 0.58642 119.875C0.511815 119.801 0.43721 119.801 0.362605 119.726C0.362605 119.652 0.288 119.578 0.288 119.503C0.288 119.429 0.288 119.354 0.288 119.206C0.288 119.131 0.288 118.982 0.288 118.759C0.288 118.536 0.288 118.387 0.288 118.238C0.288 118.089 0.288 118.015 0.362605 117.941C0.362605 117.866 0.43721 117.792 0.43721 117.792C0.43721 117.717 0.511815 117.717 0.58642 117.717C0.58642 117.717 0.73563 117.717 0.810235 117.717C0.959445 117.717 1.03405 117.717 1.18326 117.717C1.40708 117.717 1.55629 117.717 1.7055 117.643C1.85471 117.568 1.92931 117.494 2.07852 117.345C2.15313 117.196 2.22773 117.048 2.30234 116.824C2.37694 116.601 2.37694 116.304 2.37694 115.857V105.812C2.37694 105.737 2.37694 105.663 2.45155 105.588C2.52615 105.514 2.60076 105.514 2.67536 105.44C2.74997 105.365 2.89918 105.365 3.12299 105.365C3.2722 105.365 3.49602 105.365 3.79444 105.365C4.09286 105.365 4.31667 105.365 4.46588 105.365C4.61509 105.365 4.7643 105.44 4.91351 105.44C4.98812 105.514 5.06272 105.514 5.13733 105.588C5.21193 105.663 5.21193 105.737 5.21193 105.812V116.08H5.06272ZM5.28654 102.612C5.28654 103.133 5.13733 103.579 4.91351 103.803C4.6897 104.026 4.24207 104.1 3.64523 104.1C3.04839 104.1 2.60076 104.026 2.37694 103.803C2.15313 103.579 2.07852 103.207 2.07852 102.686C2.07852 102.166 2.22773 101.719 2.45155 101.496C2.67536 101.273 3.12299 101.198 3.71983 101.198C4.31667 101.198 4.7643 101.273 4.98812 101.496C5.21193 101.645 5.28654 102.017 5.28654 102.612Z" fill="#221F21"/>
<path d="M16.9249 110.5C16.9249 110.872 16.8503 111.095 16.7011 111.244C16.5519 111.393 16.3281 111.467 16.1043 111.467H10.1359C10.1359 111.914 10.2105 112.286 10.2851 112.583C10.3597 112.955 10.5089 113.179 10.7327 113.476C10.9565 113.699 11.2549 113.923 11.5534 113.997C11.9264 114.146 12.2994 114.22 12.8217 114.22C13.2693 114.22 13.7169 114.22 14.0899 114.146C14.463 114.072 14.7614 113.997 15.0598 113.923C15.3582 113.848 15.582 113.774 15.7312 113.699C15.8805 113.625 16.0297 113.625 16.1789 113.625C16.2535 113.625 16.3281 113.625 16.3281 113.699C16.4027 113.699 16.4027 113.774 16.4027 113.848C16.4027 113.923 16.4773 113.997 16.4773 114.146C16.4773 114.295 16.4773 114.444 16.4773 114.592C16.4773 114.741 16.4773 114.89 16.4773 115.039C16.4773 115.188 16.4773 115.262 16.4773 115.336C16.4773 115.411 16.4027 115.485 16.4027 115.56C16.4027 115.634 16.3281 115.634 16.2535 115.709C16.1789 115.783 16.1043 115.857 15.8805 115.932C15.6566 116.006 15.3582 116.081 15.0598 116.155C14.7614 116.229 14.3138 116.304 13.9407 116.378C13.4931 116.453 13.0455 116.453 12.5978 116.453C11.7026 116.453 10.9565 116.378 10.2851 116.155C9.61363 115.932 9.0914 115.634 8.64377 115.188C8.19614 114.741 7.89772 114.146 7.6739 113.476C7.45009 112.807 7.37548 111.988 7.37548 111.095C7.37548 110.202 7.52469 109.458 7.74851 108.714C7.97232 108.044 8.27074 107.449 8.71837 106.928C9.166 106.407 9.68824 106.035 10.2851 105.812C10.8819 105.589 11.628 105.44 12.374 105.44C13.1947 105.44 13.8661 105.589 14.463 105.812C15.0598 106.035 15.5074 106.407 15.8805 106.854C16.2535 107.3 16.5519 107.821 16.7011 108.342C16.8503 108.937 16.9995 109.533 16.9995 110.277V110.5H16.9249ZM14.2391 109.756C14.2391 109.012 14.0899 108.342 13.7915 107.895C13.4931 107.449 12.9709 107.226 12.2248 107.226C11.8518 107.226 11.5534 107.3 11.3296 107.449C11.1057 107.598 10.8819 107.747 10.6581 107.97C10.5089 108.193 10.3597 108.491 10.2851 108.788C10.2105 109.086 10.1359 109.384 10.1359 109.756H14.2391Z" fill="#221F21"/>
<path d="M26.176 112.955C26.176 113.55 26.1013 113.997 25.8775 114.443C25.6537 114.89 25.3553 115.262 24.9823 115.485C24.6092 115.783 24.1616 116.006 23.6394 116.155C23.1171 116.303 22.5203 116.378 21.9235 116.378C21.5504 116.378 21.1774 116.378 20.879 116.303C20.5806 116.229 20.2822 116.155 19.9837 116.08C19.6853 116.006 19.4615 115.931 19.3123 115.857C19.1631 115.783 19.0139 115.708 18.9393 115.634C18.8647 115.559 18.7901 115.411 18.7154 115.262C18.6408 115.113 18.6408 114.89 18.6408 114.518C18.6408 114.294 18.6408 114.146 18.6408 113.997C18.6408 113.848 18.7154 113.773 18.7154 113.699C18.7154 113.625 18.79 113.55 18.79 113.55C18.8647 113.55 18.8647 113.476 18.9393 113.476C19.0139 113.476 19.1631 113.55 19.3123 113.625C19.4615 113.699 19.6853 113.848 19.9091 113.922C20.1329 113.997 20.4314 114.146 20.7298 114.22C21.0282 114.294 21.4012 114.369 21.7743 114.369C21.9981 114.369 22.2219 114.369 22.4457 114.294C22.6695 114.22 22.8187 114.146 22.9679 114.071C23.1171 113.997 23.1917 113.848 23.2664 113.699C23.341 113.55 23.341 113.401 23.341 113.178C23.341 112.955 23.2664 112.732 23.1171 112.583C22.9679 112.434 22.8187 112.285 22.5949 112.136C22.3711 111.988 22.1473 111.913 21.8489 111.839C21.5504 111.764 21.252 111.616 20.9536 111.467C20.6552 111.318 20.3568 111.169 20.0583 111.02C19.7599 110.871 19.5361 110.648 19.3123 110.425C19.0885 110.202 18.9393 109.904 18.79 109.607C18.6408 109.309 18.5662 108.862 18.5662 108.416C18.5662 107.969 18.6408 107.523 18.8647 107.151C19.0139 106.779 19.3123 106.407 19.6853 106.109C20.0583 105.812 20.4314 105.588 20.9536 105.44C21.4758 105.291 21.9981 105.216 22.5949 105.216C22.8933 105.216 23.1917 105.216 23.4902 105.291C23.7886 105.365 24.0124 105.365 24.3108 105.44C24.5346 105.514 24.7585 105.588 24.9077 105.663C25.0569 105.737 25.2061 105.812 25.2807 105.886C25.3553 105.96 25.4299 105.96 25.4299 106.035C25.4299 106.109 25.5045 106.184 25.5045 106.258C25.5045 106.332 25.5045 106.407 25.5791 106.556C25.5791 106.705 25.5791 106.779 25.5791 107.002C25.5791 107.225 25.5791 107.374 25.5791 107.449C25.5791 107.597 25.5791 107.672 25.5045 107.746C25.5045 107.821 25.4299 107.895 25.4299 107.895C25.3553 107.895 25.3553 107.969 25.2807 107.969C25.2061 107.969 25.1315 107.895 24.9823 107.821C24.8331 107.746 24.6838 107.672 24.46 107.597C24.2362 107.523 24.0124 107.449 23.714 107.374C23.4156 107.3 23.1171 107.225 22.7441 107.225C22.5203 107.225 22.2965 107.225 22.0727 107.3C21.9235 107.374 21.7743 107.449 21.625 107.523C21.4758 107.597 21.4012 107.746 21.3266 107.895C21.252 108.044 21.252 108.193 21.252 108.342C21.252 108.565 21.3266 108.788 21.4758 108.937C21.625 109.086 21.7743 109.234 21.9981 109.309C22.2219 109.458 22.5203 109.532 22.7441 109.607C23.0425 109.681 23.341 109.83 23.6394 109.979C23.9378 110.127 24.2362 110.276 24.5346 110.425C24.8331 110.574 25.0569 110.797 25.2807 111.02C25.5045 111.244 25.7283 111.541 25.8029 111.839C26.1013 112.136 26.176 112.509 26.176 112.955Z" fill="#221F21"/>
<path d="M33.7857 114.741C33.7857 115.039 33.7857 115.336 33.7111 115.485C33.6365 115.634 33.6365 115.783 33.5619 115.857C33.4872 115.932 33.4126 116.006 33.2634 116.08C33.1142 116.155 32.965 116.155 32.8158 116.229C32.6666 116.304 32.4428 116.304 32.219 116.304C31.9951 116.304 31.8459 116.304 31.6221 116.304C31.0999 116.304 30.5777 116.229 30.2046 116.08C29.8316 115.932 29.4586 115.708 29.2348 115.411C28.9363 115.113 28.7871 114.741 28.6379 114.295C28.4887 113.848 28.4141 113.327 28.4141 112.732V107.672H27.2204C27.0712 107.672 26.9966 107.598 26.922 107.449C26.8474 107.3 26.8474 107.002 26.8474 106.556C26.8474 106.333 26.8474 106.184 26.8474 106.035C26.8474 105.886 26.922 105.737 26.922 105.663C26.922 105.589 26.9966 105.514 27.0712 105.514C27.1458 105.514 27.2204 105.44 27.295 105.44H28.4887V103.282C28.4887 103.208 28.4887 103.133 28.5633 103.059C28.6379 102.984 28.7125 102.984 28.7871 102.91C28.8617 102.835 29.0109 102.835 29.2348 102.835C29.384 102.835 29.6078 102.835 29.9062 102.835C30.2046 102.835 30.4284 102.835 30.5777 102.835C30.7269 102.835 30.8761 102.91 31.0253 102.91C31.0999 102.984 31.1745 102.984 31.2491 103.059C31.3237 103.133 31.3237 103.208 31.3237 103.282V105.44H33.4872C33.5619 105.44 33.6365 105.44 33.7111 105.514C33.7857 105.514 33.7857 105.589 33.8603 105.663C33.8603 105.737 33.9349 105.886 33.9349 106.035C33.9349 106.184 33.9349 106.333 33.9349 106.556C33.9349 106.928 33.8603 107.226 33.8603 107.449C33.7857 107.598 33.7111 107.672 33.5619 107.672H31.3983V112.286C31.3983 112.806 31.4729 113.253 31.6221 113.476C31.7713 113.774 32.0698 113.848 32.5174 113.848C32.6666 113.848 32.8158 113.848 32.8904 113.774C33.0396 113.774 33.1142 113.699 33.1888 113.699C33.2634 113.699 33.338 113.625 33.4126 113.625C33.4873 113.625 33.5619 113.551 33.5619 113.551C33.6365 113.551 33.6365 113.551 33.7111 113.625C33.7857 113.625 33.7857 113.699 33.7857 113.774C33.7857 113.848 33.8603 113.923 33.8603 114.071C33.7857 114.369 33.7857 114.518 33.7857 114.741Z" fill="#221F21"/>
<path d="M44.6034 110.5C44.6034 110.872 44.5288 111.095 44.3796 111.244C44.2304 111.393 44.0066 111.467 43.7828 111.467H37.8143C37.8143 111.914 37.889 112.286 37.9636 112.583C38.0382 112.955 38.1874 113.179 38.4112 113.476C38.635 113.699 38.9334 113.923 39.2318 113.997C39.6049 114.146 39.9779 114.22 40.5001 114.22C40.9478 114.22 41.3954 114.22 41.7684 114.146C42.1414 114.072 42.4399 113.997 42.7383 113.923C43.0367 113.848 43.2605 113.774 43.4097 113.699C43.5589 113.625 43.7081 113.625 43.8574 113.625C43.932 113.625 44.0066 113.625 44.0066 113.699C44.0812 113.699 44.0812 113.774 44.0812 113.848C44.0812 113.923 44.1558 113.997 44.1558 114.146C44.1558 114.295 44.1558 114.444 44.1558 114.592C44.1558 114.741 44.1558 114.89 44.1558 115.039C44.1558 115.188 44.1558 115.262 44.1558 115.336C44.1558 115.411 44.1558 115.485 44.0812 115.56C44.0812 115.634 44.0066 115.634 43.932 115.709C43.8574 115.783 43.7828 115.857 43.5589 115.932C43.3351 116.006 43.0367 116.081 42.7383 116.155C42.4399 116.229 41.9922 116.304 41.6192 116.378C41.1716 116.453 40.7239 116.453 40.2763 116.453C39.3811 116.453 38.635 116.378 37.9636 116.155C37.2921 115.932 36.7699 115.634 36.3222 115.188C35.8746 114.741 35.5762 114.146 35.3524 113.476C35.1286 112.807 35.054 111.988 35.054 111.095C35.054 110.202 35.2032 109.458 35.427 108.714C35.6508 108.044 35.9492 107.449 36.3969 106.928C36.8445 106.407 37.3667 106.035 37.9636 105.812C38.5604 105.589 39.3064 105.44 40.0525 105.44C40.8732 105.44 41.5446 105.589 42.1414 105.812C42.7383 106.035 43.1859 106.407 43.5589 106.854C43.932 107.3 44.2304 107.821 44.3796 108.342C44.5288 108.937 44.678 109.533 44.678 110.277V110.5H44.6034ZM41.9176 109.756C41.9176 109.012 41.7684 108.342 41.47 107.895C41.1716 107.449 40.6493 107.226 39.9033 107.226C39.5303 107.226 39.2318 107.3 39.008 107.449C38.7842 107.598 38.5604 107.747 38.3366 107.97C38.1874 108.193 38.0382 108.491 37.9636 108.788C37.889 109.086 37.8143 109.384 37.8143 109.756H41.9176Z" fill="#221F21"/>
<path d="M53.8544 112.955C53.8544 113.55 53.7798 113.997 53.556 114.443C53.3322 114.89 53.0338 115.262 52.6607 115.485C52.2877 115.783 51.8401 116.006 51.3179 116.155C50.7956 116.304 50.1988 116.378 49.6019 116.378C49.2289 116.378 48.8559 116.378 48.5575 116.304C48.1844 116.229 47.886 116.155 47.6622 116.08C47.4384 116.006 47.14 115.932 46.9908 115.857C46.8415 115.783 46.6923 115.708 46.6177 115.634C46.5431 115.559 46.4685 115.411 46.3939 115.262C46.3193 115.113 46.3193 114.815 46.3193 114.518C46.3193 114.295 46.3193 114.146 46.3193 113.997C46.3193 113.848 46.3193 113.774 46.3939 113.699C46.3939 113.625 46.4685 113.55 46.4685 113.55C46.5431 113.55 46.5431 113.476 46.6177 113.476C46.6923 113.476 46.8415 113.55 46.9908 113.625C47.14 113.699 47.3638 113.848 47.5876 113.922C47.8114 113.997 48.1098 114.146 48.4083 114.22C48.7067 114.295 49.0797 114.369 49.4527 114.369C49.6765 114.369 49.9004 114.369 50.1242 114.295C50.348 114.22 50.4972 114.146 50.6464 114.071C50.7956 113.997 50.8702 113.848 50.9448 113.699C51.0194 113.55 51.0194 113.402 51.0194 113.178C51.0194 112.955 50.9448 112.806 50.7956 112.583C50.6464 112.434 50.4972 112.285 50.2734 112.137C50.0496 111.988 49.8257 111.913 49.5273 111.839C49.2289 111.765 48.9305 111.616 48.6321 111.467C48.3337 111.318 48.0352 111.169 47.7368 111.02C47.4384 110.872 47.2146 110.648 46.9908 110.425C46.7669 110.202 46.6177 109.904 46.4685 109.607C46.3193 109.309 46.2447 108.863 46.2447 108.416C46.2447 107.97 46.3193 107.523 46.5431 107.151C46.6923 106.779 46.9908 106.407 47.3638 106.109C47.7368 105.812 48.1098 105.589 48.6321 105.44C49.1543 105.291 49.6765 105.216 50.2734 105.216C50.5718 105.216 50.8702 105.216 51.1686 105.291C51.4671 105.365 51.6909 105.365 51.9893 105.44C52.2131 105.514 52.4369 105.589 52.5861 105.663C52.7353 105.737 52.8846 105.812 52.9592 105.886C53.0338 105.961 53.1084 105.961 53.1084 106.035C53.1084 106.109 53.183 106.184 53.183 106.258C53.183 106.333 53.183 106.407 53.2576 106.556C53.2576 106.705 53.2576 106.779 53.2576 107.002C53.2576 107.226 53.2576 107.374 53.2576 107.523C53.2576 107.672 53.2576 107.746 53.183 107.821C53.183 107.895 53.1084 107.97 53.1084 107.97C53.0338 107.97 53.0338 108.044 52.9592 108.044C52.8846 108.044 52.8099 107.97 52.6607 107.895C52.5115 107.821 52.3623 107.746 52.1385 107.672C51.9147 107.598 51.6909 107.523 51.3925 107.449C51.094 107.374 50.7956 107.3 50.4226 107.3C50.1988 107.3 49.975 107.3 49.7511 107.374C49.6019 107.449 49.4527 107.523 49.3035 107.598C49.1543 107.672 49.0797 107.821 49.0051 107.97C48.9305 108.118 48.9305 108.267 48.9305 108.416C48.9305 108.639 49.0051 108.863 49.1543 109.011C49.3035 109.16 49.4527 109.309 49.6765 109.383C49.9004 109.532 50.1988 109.607 50.4226 109.681C50.721 109.755 51.0194 109.904 51.3179 110.053C51.6163 110.202 51.9147 110.351 52.2131 110.5C52.5115 110.648 52.7353 110.872 52.9592 111.095C53.183 111.318 53.4068 111.616 53.4814 111.913C53.7798 112.137 53.8544 112.509 53.8544 112.955ZM50.6464 101.049C50.721 100.975 50.7956 100.901 50.8702 100.826C50.9448 100.752 51.0194 100.752 51.1686 100.677C51.2432 100.677 51.3925 100.603 51.6163 100.603C51.7655 100.603 51.9893 100.603 52.2131 100.603C52.5861 100.603 52.8099 100.603 53.0338 100.677C53.2576 100.677 53.3322 100.752 53.4814 100.826C53.556 100.901 53.6306 100.975 53.6306 101.049C53.6306 101.124 53.556 101.198 53.556 101.273L51.3925 103.803C51.3179 103.877 51.2432 103.951 51.2432 103.951C51.1686 104.026 51.094 104.026 51.0194 104.1C50.9448 104.1 50.7956 104.175 50.6464 104.175C50.4972 104.175 50.348 104.175 50.1242 104.175C49.9004 104.175 49.6765 104.175 49.5273 104.175C49.3781 104.175 49.3035 104.1 49.2289 104.1C49.1543 104.026 49.1543 104.026 49.1543 103.951C49.1543 103.877 49.2289 103.803 49.3035 103.728L50.6464 101.049Z" fill="#221F21"/>
<path d="M71.6104 115.708C71.6104 115.783 71.6104 115.857 71.5358 115.931C71.4612 116.006 71.3866 116.006 71.312 116.08C71.2374 116.08 71.0882 116.155 70.8644 116.155C70.7152 116.155 70.4913 116.155 70.1929 116.155C69.8945 116.155 69.6707 116.155 69.5215 116.155C69.3723 116.155 69.2231 116.08 69.0739 116.08C68.9992 116.08 68.9246 116.006 68.85 115.931C68.7754 115.857 68.7754 115.783 68.7754 115.708V109.904C68.7754 109.607 68.7754 109.309 68.7008 109.011C68.6262 108.714 68.5516 108.49 68.4024 108.342C68.2532 108.193 68.104 107.97 67.8802 107.895C67.6564 107.821 67.4325 107.746 67.2087 107.746C66.9103 107.746 66.5373 107.895 66.2389 108.118C65.8658 108.342 65.5674 108.714 65.1198 109.235V115.783C65.1198 115.857 65.1198 115.931 65.0452 116.006C64.9706 116.08 64.896 116.08 64.8214 116.155C64.7468 116.155 64.5976 116.229 64.3737 116.229C64.2245 116.229 64.0007 116.229 63.7023 116.229C63.4039 116.229 63.1801 116.229 63.0308 116.229C62.8816 116.229 62.7324 116.155 62.5832 116.155C62.5086 116.155 62.434 116.08 62.3594 116.006C62.2848 115.931 62.2848 115.857 62.2848 115.783V109.979C62.2848 109.681 62.2848 109.383 62.2102 109.086C62.1356 108.788 62.061 108.565 61.9118 108.416C61.7626 108.193 61.6133 108.044 61.4641 107.97C61.2403 107.895 61.0165 107.821 60.7927 107.821C60.4197 107.821 60.1212 107.97 59.7482 108.193C59.3752 108.416 59.0768 108.788 58.6291 109.309V115.857C58.6291 115.931 58.6291 116.006 58.5545 116.08C58.4799 116.155 58.4053 116.155 58.3307 116.229C58.2561 116.229 58.1069 116.304 57.8831 116.304C57.7339 116.304 57.5101 116.304 57.2117 116.304C56.9132 116.304 56.6894 116.304 56.5402 116.304C56.391 116.304 56.2418 116.229 56.0926 116.229C56.018 116.229 55.9434 116.155 55.8688 116.08C55.7942 116.006 55.7942 115.931 55.7942 115.857V106.035C55.7942 105.961 55.7942 105.886 55.8688 105.812C55.9434 105.737 55.9434 105.737 56.0926 105.663C56.1672 105.663 56.3164 105.588 56.4656 105.588C56.6148 105.588 56.8386 105.588 57.0624 105.588C57.2863 105.588 57.5101 105.588 57.6593 105.588C57.8085 105.588 57.9577 105.663 58.0323 105.663C58.1069 105.663 58.1815 105.737 58.1815 105.812C58.1815 105.886 58.2561 105.961 58.2561 106.035V107.151C58.7784 106.556 59.3752 106.109 59.8974 105.812C60.4197 105.514 61.0165 105.365 61.6133 105.365C61.9864 105.365 62.3594 105.44 62.7324 105.514C63.0308 105.588 63.3293 105.737 63.6277 105.886C63.8515 106.035 64.0753 106.258 64.2991 106.481C64.4483 106.705 64.6722 106.928 64.7468 107.225C65.0452 106.928 65.3436 106.63 65.642 106.407C65.9404 106.184 66.2389 105.961 66.4627 105.886C66.7611 105.737 66.9849 105.663 67.2833 105.588C67.5818 105.514 67.8056 105.514 68.104 105.514C68.7754 105.514 69.2977 105.588 69.7453 105.812C70.1929 106.035 70.566 106.333 70.8644 106.705C71.1628 107.077 71.312 107.523 71.4612 108.044C71.6104 108.565 71.6104 109.086 71.6104 109.681V115.708Z" fill="#221F21"/>
<path d="M79.5932 116.08L78.3995 119.578C78.3249 119.726 78.1757 119.875 77.8772 119.95C77.5788 120.024 77.1312 120.098 76.609 120.098C76.3105 120.098 76.0867 120.098 75.9375 120.024C75.7883 120.024 75.6391 119.95 75.5645 119.875C75.4899 119.801 75.4153 119.726 75.4153 119.652C75.4153 119.578 75.4153 119.429 75.4899 119.354L76.8328 116.08C76.7582 116.006 76.6836 116.006 76.609 115.857C76.5344 115.783 76.4598 115.634 76.4598 115.559L73.1025 106.556C73.0279 106.333 72.9533 106.109 72.9533 105.961C72.9533 105.812 73.0279 105.737 73.1025 105.663C73.1771 105.588 73.3263 105.514 73.5502 105.514C73.774 105.514 74.0724 105.44 74.3708 105.44C74.6692 105.44 74.9677 105.44 75.1169 105.44C75.2661 105.44 75.4153 105.514 75.5645 105.514C75.6391 105.588 75.7137 105.588 75.7883 105.737C75.8629 105.812 75.8629 105.961 75.9375 106.109L78.2503 112.657L80.3392 105.961C80.4138 105.737 80.4138 105.663 80.4884 105.588C80.563 105.514 80.6376 105.514 80.8615 105.44C81.0107 105.44 81.3091 105.365 81.6821 105.365C81.9805 105.365 82.2789 105.365 82.5028 105.44C82.7266 105.44 82.8758 105.514 82.9504 105.588C83.025 105.663 83.0996 105.812 83.0996 105.886C83.0996 106.035 83.0996 106.184 83.025 106.333L79.5932 116.08Z" fill="#221F21"/>
<path d="M98.319 114.965C98.319 115.188 98.319 115.337 98.319 115.486C98.319 115.634 98.2444 115.709 98.2444 115.858C98.2444 115.932 98.1698 116.006 98.0952 116.081C98.0206 116.155 97.946 116.155 97.946 116.155H90.7839C90.5601 116.155 90.3363 116.081 90.1871 115.932C90.0379 115.783 89.9633 115.56 89.9633 115.262V102.836C89.9633 102.538 90.0379 102.315 90.1871 102.166C90.3363 102.017 90.5601 101.943 90.7839 101.943H97.946C98.0206 101.943 98.0952 101.943 98.0952 102.017C98.1698 102.092 98.1698 102.092 98.2444 102.241C98.2444 102.315 98.319 102.464 98.319 102.613C98.319 102.761 98.319 102.91 98.319 103.133C98.319 103.357 98.319 103.505 98.319 103.654C98.319 103.803 98.2444 103.878 98.2444 104.026C98.2444 104.101 98.1698 104.175 98.0952 104.25C98.0206 104.324 98.0206 104.324 97.946 104.324H92.7983V107.821H97.1254C97.2 107.821 97.2746 107.821 97.2746 107.896C97.3492 107.97 97.3492 107.97 97.4238 108.119C97.4238 108.193 97.4984 108.342 97.4984 108.491C97.4984 108.64 97.4984 108.789 97.4984 109.012C97.4984 109.235 97.4984 109.384 97.4984 109.533C97.4984 109.682 97.4238 109.756 97.4238 109.905C97.3492 109.979 97.3492 110.054 97.2746 110.054C97.2 110.128 97.1254 110.128 97.1254 110.128H92.7983V114.146H97.946C98.0206 114.146 98.0952 114.146 98.0952 114.221C98.1698 114.295 98.1698 114.295 98.2444 114.444C98.2444 114.518 98.319 114.667 98.319 114.816C98.319 114.593 98.319 114.741 98.319 114.965Z" fill="#221F21"/>
<path d="M108.764 114.89C108.764 115.113 108.764 115.262 108.764 115.411C108.764 115.559 108.689 115.708 108.689 115.783C108.615 115.857 108.615 115.931 108.54 116.006C108.465 116.08 108.391 116.08 108.316 116.08H101.751C101.527 116.08 101.303 116.006 101.154 115.857C101.005 115.708 100.93 115.485 100.93 115.187V102.24C100.93 102.166 100.93 102.091 101.005 102.017C101.079 101.942 101.154 101.942 101.229 101.868C101.378 101.868 101.452 101.793 101.676 101.793C101.825 101.793 102.124 101.793 102.348 101.793C102.646 101.793 102.87 101.793 103.019 101.793C103.168 101.793 103.318 101.868 103.467 101.868C103.541 101.942 103.691 101.942 103.691 102.017C103.765 102.091 103.765 102.166 103.765 102.24V113.699H108.242C108.316 113.699 108.391 113.699 108.465 113.773C108.54 113.848 108.54 113.848 108.615 113.997C108.615 114.071 108.689 114.22 108.689 114.369C108.764 114.443 108.764 114.666 108.764 114.89Z" fill="#221F21"/>
<path d="M122.118 115.038C122.193 115.336 122.267 115.485 122.267 115.634C122.267 115.783 122.267 115.931 122.193 116.006C122.118 116.08 121.969 116.155 121.745 116.155C121.521 116.155 121.223 116.155 120.924 116.155C120.551 116.155 120.253 116.155 120.029 116.155C119.805 116.155 119.656 116.155 119.581 116.08C119.507 116.08 119.432 116.006 119.358 115.931C119.283 115.857 119.283 115.783 119.283 115.708L118.313 112.881H112.942L112.046 115.634C112.046 115.708 111.972 115.857 111.897 115.857C111.823 115.931 111.748 116.006 111.673 116.006C111.599 116.08 111.45 116.08 111.226 116.08C111.002 116.08 110.778 116.08 110.48 116.08C110.107 116.08 109.883 116.08 109.659 116.08C109.435 116.08 109.361 116.006 109.286 115.931C109.211 115.857 109.211 115.708 109.211 115.559C109.211 115.411 109.286 115.187 109.361 114.964L113.762 102.314C113.837 102.166 113.837 102.091 113.911 102.017C113.986 101.942 114.061 101.868 114.21 101.868C114.359 101.793 114.508 101.793 114.732 101.793C114.956 101.793 115.254 101.793 115.627 101.793C116.075 101.793 116.373 101.793 116.672 101.793C116.896 101.793 117.12 101.868 117.269 101.868C117.418 101.942 117.493 101.942 117.567 102.017C117.642 102.091 117.716 102.24 117.716 102.314L122.118 115.038ZM115.553 104.547L113.538 110.574H117.567L115.553 104.547Z" fill="#221F21"/>
<path d="M132.563 111.839C132.563 112.583 132.414 113.253 132.115 113.774C131.817 114.369 131.444 114.815 130.996 115.187C130.548 115.56 129.952 115.857 129.355 116.006C128.683 116.229 128.012 116.304 127.266 116.304C126.744 116.304 126.296 116.229 125.923 116.155C125.475 116.08 125.102 116.006 124.804 115.857C124.505 115.708 124.207 115.634 123.983 115.485C123.759 115.336 123.61 115.262 123.536 115.187C123.461 115.113 123.386 114.964 123.312 114.741C123.237 114.592 123.237 114.295 123.237 113.997C123.237 113.774 123.237 113.55 123.237 113.402C123.237 113.253 123.312 113.104 123.312 113.03C123.312 112.955 123.386 112.881 123.461 112.806C123.536 112.732 123.61 112.732 123.685 112.732C123.759 112.732 123.909 112.806 124.132 112.881C124.356 113.03 124.58 113.104 124.878 113.253C125.177 113.402 125.55 113.55 125.923 113.625C126.296 113.774 126.818 113.774 127.34 113.774C127.713 113.774 128.012 113.699 128.31 113.625C128.609 113.55 128.832 113.402 129.056 113.253C129.28 113.104 129.429 112.881 129.504 112.658C129.579 112.434 129.653 112.211 129.653 111.913C129.653 111.616 129.579 111.318 129.355 111.095C129.206 110.872 128.982 110.648 128.683 110.5C128.385 110.351 128.086 110.128 127.713 109.979C127.34 109.83 126.967 109.681 126.594 109.458C126.221 109.309 125.848 109.086 125.475 108.863C125.102 108.639 124.804 108.342 124.505 108.044C124.207 107.746 123.983 107.374 123.834 106.928C123.685 106.481 123.536 105.961 123.536 105.365C123.536 104.696 123.685 104.1 123.909 103.579C124.132 103.059 124.505 102.612 124.953 102.315C125.401 102.017 125.923 101.719 126.445 101.57C127.042 101.422 127.639 101.347 128.31 101.347C128.683 101.347 128.982 101.347 129.355 101.422C129.728 101.496 130.026 101.57 130.325 101.645C130.623 101.719 130.847 101.868 131.071 101.942C131.294 102.017 131.444 102.166 131.518 102.24C131.593 102.314 131.667 102.389 131.667 102.463C131.667 102.538 131.742 102.612 131.742 102.687C131.742 102.761 131.742 102.91 131.817 102.984C131.817 103.133 131.817 103.282 131.817 103.431C131.817 103.654 131.817 103.803 131.817 103.952C131.817 104.1 131.817 104.249 131.742 104.324C131.742 104.398 131.667 104.472 131.667 104.547C131.593 104.621 131.518 104.621 131.444 104.621C131.369 104.621 131.22 104.547 131.071 104.472C130.921 104.398 130.698 104.249 130.399 104.1C130.175 103.952 129.877 103.877 129.504 103.803C129.131 103.728 128.758 103.654 128.385 103.654C128.086 103.654 127.788 103.728 127.564 103.803C127.34 103.877 127.117 103.952 126.967 104.1C126.818 104.249 126.669 104.398 126.594 104.621C126.52 104.844 126.445 104.993 126.445 105.216C126.445 105.514 126.52 105.812 126.669 106.035C126.818 106.258 127.042 106.481 127.34 106.63C127.639 106.779 127.937 107.002 128.31 107.151C128.683 107.3 129.056 107.449 129.429 107.672C129.802 107.821 130.175 108.044 130.548 108.267C130.921 108.491 131.22 108.788 131.518 109.086C131.817 109.383 132.041 109.756 132.19 110.202C132.488 110.723 132.563 111.244 132.563 111.839Z" fill="#221F21"/>
<path d="M144.127 103.058C144.127 103.282 144.127 103.43 144.127 103.579C144.127 103.728 144.052 103.877 144.052 103.951C144.052 104.026 143.977 104.1 143.903 104.175C143.828 104.249 143.754 104.249 143.754 104.249H140.172V115.708C140.172 115.783 140.172 115.857 140.098 115.931C140.023 116.006 139.949 116.006 139.874 116.08C139.799 116.155 139.65 116.155 139.426 116.155C139.203 116.155 138.979 116.155 138.755 116.155C138.457 116.155 138.233 116.155 138.084 116.155C137.86 116.155 137.711 116.08 137.636 116.08C137.561 116.08 137.412 116.006 137.412 115.931C137.337 115.857 137.337 115.783 137.337 115.708V104.249H133.756C133.682 104.249 133.607 104.249 133.533 104.175C133.458 104.1 133.458 104.026 133.383 103.951C133.383 103.877 133.309 103.728 133.309 103.579C133.309 103.43 133.309 103.282 133.309 103.058C133.309 102.835 133.309 102.686 133.309 102.463C133.309 102.314 133.383 102.166 133.383 102.091C133.458 102.017 133.458 101.942 133.533 101.868C133.607 101.793 133.682 101.793 133.756 101.793H143.828C143.903 101.793 143.977 101.793 143.977 101.868C144.052 101.942 144.052 101.942 144.127 102.091C144.127 102.166 144.201 102.314 144.201 102.463C144.052 102.612 144.127 102.835 144.127 103.058Z" fill="#221F21"/>
<path d="M151.587 110.723V115.708C151.587 115.783 151.587 115.857 151.512 115.931C151.438 116.006 151.363 116.006 151.289 116.08C151.214 116.08 151.065 116.155 150.841 116.155C150.617 116.155 150.393 116.155 150.17 116.155C149.871 116.155 149.647 116.155 149.498 116.155C149.349 116.155 149.2 116.08 149.05 116.08C148.901 116.08 148.827 116.006 148.827 115.931C148.752 115.857 148.752 115.783 148.752 115.708V110.723L144.873 102.984C144.723 102.686 144.649 102.538 144.574 102.389C144.5 102.24 144.574 102.091 144.649 102.017C144.723 101.942 144.873 101.868 145.096 101.868C145.32 101.868 145.619 101.868 146.066 101.868C146.439 101.868 146.663 101.868 146.887 101.868C147.111 101.868 147.26 101.942 147.335 101.942C147.484 102.017 147.558 102.017 147.558 102.091C147.633 102.166 147.633 102.24 147.708 102.314L149.274 105.812C149.423 106.184 149.573 106.481 149.722 106.853C149.871 107.225 150.02 107.597 150.17 108.044C150.319 107.672 150.468 107.3 150.617 106.853C150.766 106.481 150.916 106.109 151.065 105.812L152.631 102.314C152.706 102.166 152.706 102.091 152.781 102.017C152.855 101.942 152.93 101.868 153.005 101.868C153.079 101.793 153.228 101.793 153.452 101.793C153.676 101.793 153.9 101.793 154.198 101.793C154.646 101.793 154.944 101.793 155.168 101.793C155.392 101.793 155.541 101.868 155.616 101.942C155.69 102.017 155.69 102.166 155.69 102.314C155.616 102.463 155.541 102.686 155.392 102.91L151.587 110.723Z" fill="#221F21"/>
<path d="M166.508 113.923C166.508 114.071 166.508 114.295 166.508 114.369C166.508 114.518 166.508 114.592 166.433 114.667C166.433 114.741 166.359 114.816 166.359 114.89C166.359 114.964 166.284 115.039 166.21 115.113C166.135 115.188 165.986 115.336 165.762 115.411C165.538 115.56 165.24 115.634 164.941 115.783C164.643 115.932 164.195 116.006 163.822 116.08C163.375 116.155 162.927 116.229 162.405 116.229C161.435 116.229 160.54 116.08 159.794 115.783C158.973 115.485 158.301 115.039 157.779 114.443C157.257 113.848 156.809 113.104 156.511 112.211C156.213 111.318 156.063 110.277 156.063 109.086C156.063 107.895 156.213 106.779 156.511 105.886C156.809 104.919 157.257 104.175 157.854 103.505C158.451 102.835 159.122 102.389 159.943 102.017C160.763 101.719 161.659 101.496 162.629 101.496C163.002 101.496 163.375 101.496 163.748 101.571C164.121 101.645 164.419 101.719 164.792 101.794C165.091 101.868 165.389 102.017 165.613 102.166C165.837 102.315 166.06 102.389 166.135 102.538C166.21 102.612 166.284 102.687 166.359 102.761C166.433 102.835 166.433 102.91 166.433 102.984C166.433 103.059 166.508 103.208 166.508 103.356C166.508 103.505 166.508 103.654 166.508 103.877C166.508 104.1 166.508 104.249 166.508 104.473C166.508 104.621 166.433 104.77 166.433 104.845C166.433 104.919 166.359 104.993 166.284 105.068C166.21 105.142 166.21 105.142 166.135 105.142C166.06 105.142 165.911 105.068 165.687 104.919C165.538 104.77 165.314 104.621 165.016 104.473C164.718 104.324 164.419 104.175 164.046 104.026C163.673 103.877 163.225 103.803 162.703 103.803C162.106 103.803 161.659 103.952 161.211 104.175C160.763 104.398 160.39 104.77 160.092 105.142C159.794 105.589 159.57 106.11 159.346 106.705C159.197 107.3 159.122 107.97 159.122 108.788C159.122 109.607 159.197 110.351 159.346 110.946C159.495 111.541 159.794 112.062 160.092 112.434C160.39 112.806 160.763 113.104 161.286 113.327C161.733 113.551 162.256 113.625 162.778 113.625C163.3 113.625 163.748 113.551 164.121 113.476C164.494 113.327 164.792 113.253 165.091 113.104C165.389 112.955 165.613 112.806 165.762 112.732C165.911 112.583 166.06 112.583 166.135 112.583C166.21 112.583 166.284 112.583 166.284 112.658C166.359 112.658 166.359 112.732 166.359 112.806C166.359 112.881 166.433 113.03 166.433 113.179C166.508 113.476 166.508 113.699 166.508 113.923Z" fill="#221F21"/>
<path d="M177.4 114.965C177.4 115.188 177.4 115.337 177.4 115.486C177.4 115.634 177.326 115.783 177.326 115.858C177.326 115.932 177.251 116.006 177.177 116.081C177.102 116.081 177.027 116.155 177.027 116.155H168.597C168.299 116.155 168.075 116.081 167.926 115.932C167.776 115.783 167.702 115.486 167.702 115.188V114.741C167.702 114.593 167.702 114.444 167.702 114.369C167.702 114.221 167.776 114.146 167.776 113.997C167.851 113.848 167.851 113.774 168 113.625C168.075 113.476 168.224 113.328 168.299 113.104L173.819 104.324H168.299C168.224 104.324 168.149 104.324 168.075 104.25C168 104.175 167.926 104.175 167.926 104.026C167.851 103.952 167.851 103.803 167.851 103.654C167.851 103.505 167.851 103.357 167.851 103.133C167.851 102.91 167.851 102.761 167.851 102.613C167.851 102.464 167.926 102.315 167.926 102.241C168 102.166 168 102.092 168.075 102.017C168.149 102.017 168.224 101.943 168.299 101.943H176.207C176.505 101.943 176.729 102.017 176.878 102.166C177.027 102.315 177.102 102.538 177.102 102.836V103.357C177.102 103.58 177.102 103.729 177.102 103.878C177.102 104.026 177.027 104.175 177.027 104.324C176.953 104.473 176.953 104.622 176.804 104.77C176.729 104.919 176.654 105.068 176.505 105.291L171.059 113.923H177.027C177.177 113.923 177.251 113.997 177.326 114.221C177.326 114.221 177.4 114.518 177.4 114.965Z" fill="#221F21"/>
<path d="M191.128 115.113C191.128 115.262 191.128 115.411 191.053 115.56C190.979 115.709 190.904 115.783 190.829 115.858C190.755 115.932 190.605 116.006 190.456 116.081C190.307 116.155 190.158 116.155 190.009 116.155H188.74C188.517 116.155 188.293 116.155 188.069 116.081C187.845 116.006 187.696 115.932 187.547 115.783C187.397 115.634 187.248 115.486 187.099 115.262C186.95 115.039 186.801 114.741 186.577 114.369L182.996 107.747C182.772 107.375 182.548 106.928 182.399 106.482C182.175 106.035 182.026 105.589 181.802 105.143C181.802 105.663 181.877 106.184 181.877 106.705C181.877 107.226 181.877 107.747 181.877 108.342V115.783C181.877 115.858 181.877 115.932 181.802 116.006C181.727 116.081 181.727 116.081 181.578 116.155C181.504 116.23 181.354 116.23 181.205 116.23C181.056 116.23 180.832 116.23 180.534 116.23C180.31 116.23 180.086 116.23 179.862 116.23C179.713 116.23 179.564 116.155 179.489 116.155C179.415 116.081 179.34 116.081 179.266 116.006C179.266 115.932 179.191 115.858 179.191 115.783V102.985C179.191 102.613 179.266 102.389 179.489 102.241C179.713 102.092 179.937 102.017 180.235 102.017H181.802C182.101 102.017 182.324 102.017 182.474 102.092C182.697 102.166 182.847 102.241 182.996 102.315C183.145 102.389 183.294 102.613 183.443 102.761C183.593 102.985 183.742 103.208 183.816 103.505L186.577 108.714C186.726 109.012 186.875 109.309 187.024 109.607C187.174 109.905 187.323 110.202 187.472 110.5C187.621 110.798 187.77 111.095 187.92 111.393C188.069 111.691 188.218 111.988 188.293 112.286C188.293 111.765 188.218 111.244 188.218 110.649C188.218 110.128 188.218 109.533 188.218 109.086V102.389C188.218 102.315 188.218 102.241 188.293 102.166C188.367 102.092 188.442 102.092 188.517 102.017C188.591 101.943 188.74 101.943 188.89 101.943C189.039 101.943 189.263 101.943 189.561 101.943C189.785 101.943 190.009 101.943 190.158 101.943C190.307 101.943 190.456 102.017 190.531 102.017C190.605 102.092 190.68 102.092 190.755 102.166C190.755 102.241 190.829 102.315 190.829 102.389V115.113H191.128Z" fill="#221F21"/>
<path d="M197.171 115.708C197.171 115.783 197.171 115.857 197.096 115.931C197.022 116.006 196.947 116.006 196.872 116.08C196.798 116.155 196.649 116.155 196.425 116.155C196.275 116.155 195.977 116.155 195.753 116.155C195.455 116.155 195.231 116.155 195.082 116.155C194.858 116.155 194.709 116.08 194.634 116.08C194.56 116.08 194.41 116.006 194.41 115.931C194.336 115.857 194.336 115.783 194.336 115.708V102.24C194.336 102.166 194.336 102.091 194.41 102.017C194.485 101.942 194.56 101.942 194.634 101.868C194.783 101.868 194.933 101.793 195.082 101.793C195.231 101.793 195.529 101.793 195.753 101.793C196.052 101.793 196.275 101.793 196.425 101.793C196.574 101.793 196.723 101.868 196.872 101.868C196.947 101.942 197.096 101.942 197.096 102.017C197.171 102.091 197.171 102.166 197.171 102.24V115.708Z" fill="#221F21"/>
<path d="M100.035 82.819C98.0206 82.819 96.0063 82.819 94.0665 82.819C92.4252 82.819 91.2316 81.6284 91.2316 79.8426C91.0823 61.8353 96.9761 48.6647 109.137 39.3635C110.853 38.0241 112.792 36.9079 114.583 35.8662C115.329 35.4197 116.075 34.9733 116.821 34.5268C117.194 34.3036 117.642 34.0803 118.015 33.8571L114.21 25.8208L139.277 33.485L127.191 56.1057L124.431 49.3344C112.345 55.2872 107.197 65.4814 108.167 81.1076L108.242 82.7446H103.243C102.198 82.819 101.079 82.819 100.035 82.819ZM94.2904 79.6938C97.2746 79.6938 100.259 79.6938 103.243 79.6938H104.959C104.362 63.1003 110.853 52.0132 124.655 45.8371L126.147 45.1674L127.639 48.8135L134.801 35.4197L120.104 30.9551L122.118 35.2709L120.85 35.9406C120.551 36.0894 120.253 36.2382 120.029 36.387C119.507 36.6847 118.985 36.9079 118.537 37.2056C117.791 37.652 117.045 38.0985 116.224 38.5449C114.359 39.5867 112.643 40.6284 111.076 41.819C99.6619 50.4506 94.2158 62.8027 94.2904 79.6938Z" fill="#221F21"/>
<path d="M99.6619 51.1947L98.5428 49.9297C98.0206 49.3345 97.4984 48.7392 96.9761 48.1439C95.484 46.5069 93.9173 44.7954 92.4998 43.084C91.7538 42.2655 91.6792 41.0749 91.6792 40.0332C91.6792 34.8989 91.6792 29.839 91.6792 24.7047V20.5377H83.0996L99.8857 0.372559L116.746 20.6121H113.389C112.867 20.6121 112.419 20.6121 111.897 20.6121C110.927 20.6121 109.957 20.6121 108.988 20.6121C108.54 20.6121 108.316 20.6121 108.167 20.6121C108.167 20.7609 108.167 20.9842 108.167 21.3562V25.3744C108.167 30.1366 108.167 34.9733 108.242 39.7355C108.242 41.447 107.645 42.9352 106.376 44.2002C105.108 45.5395 103.84 46.8789 102.497 48.2183L99.6619 51.1947ZM89.6648 17.4869H94.6634V24.7791C94.6634 29.839 94.6634 34.9733 94.6634 40.0332C94.6634 40.8517 94.738 41.0749 94.8126 41.1493C96.1555 42.7864 97.7222 44.4234 99.1397 46.0604C99.2889 46.2092 99.4381 46.4325 99.5873 46.5813L100.11 46.0604C101.452 44.6466 102.721 43.3072 103.989 41.9678C104.66 41.2982 104.959 40.6285 104.959 39.7355C104.884 34.9733 104.884 30.1366 104.884 25.3744V21.3562C104.884 20.2401 105.033 19.0495 105.854 18.3054C106.749 17.4869 108.018 17.4869 109.062 17.5613C109.361 17.5613 109.659 17.5613 109.957 17.5613L99.8857 5.28363L89.6648 17.4869Z" fill="#221F21"/>
<path d="M91.0077 73.3691L90.3363 69.3509C88.8442 60.3473 83.8457 53.7992 74.5946 48.8881L71.8343 55.7339L59.7482 33.0388L84.8155 25.3745L81.0107 33.4108C81.3091 33.5596 81.6821 33.7829 81.9805 33.9317C89.2172 37.801 94.4396 42.0424 98.4683 47.1767C100.408 49.6322 100.483 50.7484 98.9159 53.4272C96.6031 57.4453 94.9618 62.2076 93.8427 68.2348C93.7681 68.8301 93.5443 69.3509 93.2459 69.8718L91.0077 73.3691ZM72.9533 44.4979L74.4454 45.242C83.2488 49.5578 88.9934 55.3618 91.8284 62.8028C92.9475 58.6359 94.365 55.1386 96.1555 51.939C96.9762 50.5252 96.9762 50.5252 95.9317 49.1858C92.2014 44.3491 87.2775 40.4054 80.4138 36.7593C79.8916 36.4616 79.3694 36.164 78.8471 35.8664L76.8328 34.7502L78.8471 30.5088L64.1499 34.9734L71.312 48.3673L72.9533 44.4979Z" fill="#221F21"/>
</g>
<defs>
<clipPath id="clip0_292_776">
<rect width="196.883" height="119.726" fill="white" transform="translate(0.287964 0.372559)"/>
</clipPath>
</defs>
</svg>
