<svg width="20" height="20" viewBox="0 0 20 20" fill="none" xmlns="http://www.w3.org/2000/svg">
<g clip-path="url(#clip0_277_563)">
<path d="M10 1.66748C6.77502 1.66748 4.16669 4.27581 4.16669 7.50081C4.16669 11.8758 10 18.3341 10 18.3341C10 18.3341 15.8334 11.8758 15.8334 7.50081C15.8334 4.27581 13.225 1.66748 10 1.66748ZM5.83335 7.50081C5.83335 5.20081 7.70002 3.33415 10 3.33415C12.3 3.33415 14.1667 5.20081 14.1667 7.50081C14.1667 9.90081 11.7667 13.4925 10 15.7341C8.26669 13.5091 5.83335 9.87581 5.83335 7.50081Z" fill="white"/>
<path d="M10 9.58415C11.1506 9.58415 12.0834 8.65141 12.0834 7.50081C12.0834 6.35022 11.1506 5.41748 10 5.41748C8.84943 5.41748 7.91669 6.35022 7.91669 7.50081C7.91669 8.65141 8.84943 9.58415 10 9.58415Z" fill="white"/>
</g>
<defs>
<clipPath id="clip0_277_563">
<rect width="20" height="20" fill="white" transform="translate(0 0.000976562)"/>
</clipPath>
</defs>
</svg>
