<svg width="20" height="20" viewBox="0 0 20 20" fill="none" xmlns="http://www.w3.org/2000/svg">
<g clip-path="url(#clip0_280_978)">
<path d="M9.99169 1.66748C5.39169 1.66748 1.66669 5.40081 1.66669 10.0008C1.66669 14.6008 5.39169 18.3341 9.99169 18.3341C14.6 18.3341 18.3334 14.6008 18.3334 10.0008C18.3334 5.40081 14.6 1.66748 9.99169 1.66748ZM10 16.6675C6.31669 16.6675 3.33335 13.6841 3.33335 10.0008C3.33335 6.31748 6.31669 3.33415 10 3.33415C13.6834 3.33415 16.6667 6.31748 16.6667 10.0008C16.6667 13.6841 13.6834 16.6675 10 16.6675ZM10.4167 5.83415H9.16669V10.8341L13.5417 13.4591L14.1667 12.4341L10.4167 10.2091V5.83415Z" fill="white"/>
</g>
<defs>
<clipPath id="clip0_280_978">
<rect width="20" height="20" fill="white" transform="translate(0 0.000976562)"/>
</clipPath>
</defs>
</svg>
