<svg width="18" height="18" viewBox="0 0 18 18" fill="none" xmlns="http://www.w3.org/2000/svg">
<g clip-path="url(#clip0_277_560)">
<path d="M4.905 3.75098C4.95 4.41848 5.0625 5.07098 5.2425 5.69348L4.3425 6.59348C4.035 5.69348 3.84 4.74098 3.7725 3.75098H4.905ZM12.3 12.766C12.9375 12.946 13.59 13.0585 14.25 13.1035V14.221C13.26 14.1535 12.3075 13.9585 11.4 13.6585L12.3 12.766ZM5.625 2.25098H3C2.5875 2.25098 2.25 2.58848 2.25 3.00098C2.25 10.0435 7.9575 15.751 15 15.751C15.4125 15.751 15.75 15.4135 15.75 15.001V12.3835C15.75 11.971 15.4125 11.6335 15 11.6335C14.07 11.6335 13.1625 11.4835 12.3225 11.206C12.2475 11.176 12.165 11.1685 12.09 11.1685C11.895 11.1685 11.7075 11.2435 11.5575 11.386L9.9075 13.036C7.785 11.9485 6.045 10.216 4.965 8.09348L6.615 6.44348C6.825 6.23348 6.885 5.94098 6.8025 5.67848C6.525 4.83848 6.375 3.93848 6.375 3.00098C6.375 2.58848 6.0375 2.25098 5.625 2.25098Z" fill="white"/>
</g>
<defs>
<clipPath id="clip0_277_560">
<rect width="18" height="18" fill="white" transform="translate(0 0.000976562)"/>
</clipPath>
</defs>
</svg>
