<svg width="306" height="77" viewBox="0 0 306 77" fill="none" xmlns="http://www.w3.org/2000/svg">
<path d="M157.361 1.00107C157.732 1.18672 158.103 1.37236 158.474 1.558C160.515 2.48622 161.443 4.71394 160.886 6.75602C160.33 8.98375 158.474 10.2833 156.062 10.2833C154.02 10.2833 152.165 8.61246 151.794 6.57038C151.423 4.15701 152.536 2.11493 154.763 1.18672C155.134 1.00107 155.319 1.00107 155.691 0.81543C156.247 1.00107 156.804 1.00107 157.361 1.00107Z" fill="#969696"/>
<path d="M152.536 19.0084C150.309 15.2955 147.526 11.9539 144.185 9.35489C141.773 7.49845 138.989 6.0133 136.02 4.89944C135.649 4.7138 135.278 4.52816 135.093 4.34251C135.464 4.52816 136.02 4.52816 136.392 4.7138C143.443 6.94152 149.01 10.84 153.464 16.595C154.392 17.7088 154.392 18.0801 155.319 16.4093C155.505 16.2237 155.691 15.8524 156.062 15.6668C155.876 15.8524 155.691 16.4093 155.505 16.7806C153.835 21.2361 151.237 25.3202 148.268 29.0331C140.288 39.2435 130.639 47.5975 119.319 53.9093C115.237 56.1371 110.969 57.8079 106.33 58.5504C102.804 59.1074 99.2781 59.1074 95.7524 57.9935C91.1132 56.3227 88.3297 52.6098 88.1441 47.7831C87.9585 44.0702 88.7008 40.543 90.1853 37.0158C89.9998 38.5009 89.8142 39.9861 89.6286 41.4712C89.4431 43.6989 89.6286 46.1123 90.5565 48.1544C91.6699 50.939 93.7111 52.9811 96.6802 54.095C93.1544 47.5975 91.6699 40.7286 92.5977 33.3029C92.5977 34.0455 92.5977 34.7881 92.5977 35.5306C92.5977 36.2732 92.7833 37.0158 92.7833 37.7583C93.34 43.8846 95.5668 49.2682 99.2781 54.095C99.4637 54.2806 99.6493 54.4663 99.8348 54.6519C100.206 54.8376 100.577 54.6519 100.763 54.8376C100.577 54.6519 100.577 54.2806 100.392 54.095C96.4946 49.2682 94.2678 43.8846 93.5256 37.944C92.7833 29.4044 94.8245 21.793 100.206 15.1098C105.587 8.42667 112.639 4.52816 121.175 3.59994C134.165 2.30043 145.484 8.61231 151.422 18.8227C151.608 19.194 151.794 19.3796 151.979 19.7509C151.608 19.3796 151.237 19.194 150.866 18.6371C147.154 14.1816 142.701 11.0257 137.505 8.9836C133.422 7.49845 129.154 6.94152 124.701 7.12716C124.515 7.12716 124.144 7.31281 123.959 7.31281C124.144 7.49845 124.33 7.6841 124.515 7.86974C126.556 9.35489 128.412 10.6544 130.453 12.1395C131.196 12.6965 131.567 12.6965 132.495 12.5108C133.237 12.1395 134.35 11.9539 135.464 11.5826V11.7683C134.536 12.1395 133.608 12.6965 132.68 13.0678C131.752 13.439 131.938 13.439 132.495 14.1816C134.35 16.4093 136.392 18.6371 138.247 21.0504C138.804 21.6074 138.989 21.6074 139.732 21.4217C141.587 20.6791 143.258 19.9366 145.113 19.194C145.484 19.0084 146.041 19.0084 146.412 18.8227C144.556 20.1222 142.701 21.0504 140.66 22.1643C139.361 22.9069 139.546 22.9069 140.288 24.0207C140.474 24.392 140.845 24.9489 141.031 25.3202C141.773 26.6197 142.33 27.9192 143.072 29.2187C141.773 27.7336 140.474 26.0628 139.361 24.392C138.618 23.4638 138.618 23.4638 137.691 24.0207C133.422 26.6197 129.34 29.4044 125.072 32.189C124.886 32.3747 124.886 32.3747 124.701 32.5603C124.144 32.746 124.144 33.1173 124.515 33.6742C125.072 34.6024 125.629 35.5306 126.371 36.4588C126.928 37.2014 127.299 37.944 127.855 38.6866L127.67 38.8722C126.556 37.3871 125.258 35.7163 124.144 34.2311C123.773 33.6742 123.402 33.6742 123.031 34.0455C118.763 37.2014 114.68 40.543 110.412 43.6989C109.855 44.0702 110.041 44.4415 110.227 44.8128C111.154 46.298 112.082 47.5975 113.01 49.0826C113.196 49.4539 113.381 49.6395 113.567 50.0108L113.381 50.1965C112.082 48.7113 110.783 47.2262 109.484 45.741C108.928 44.9984 108.928 44.9984 108 45.5554C106.515 46.8549 104.845 48.34 103.361 49.6395C103.175 49.8252 102.804 50.0108 102.618 50.1965L102.433 50.0108C104.103 48.34 105.773 46.4836 107.443 44.8128C108 44.2559 108 44.0702 107.629 43.3277C106.144 40.7286 104.66 38.1296 103.175 35.5306C102.804 34.7881 102.804 34.6024 102.062 35.345C101.319 36.0876 100.392 36.8301 99.6493 37.7583L99.4637 37.5727C100.206 36.6445 100.948 35.5306 101.691 34.6024C102.247 34.0455 102.247 33.4886 102.062 32.746C101.319 30.8895 100.948 28.8475 100.392 26.991C100.206 26.4341 100.206 25.6915 100.02 24.7633C99.6493 25.5059 99.4637 25.8772 99.2781 26.2485C97.608 30.3326 96.8658 34.6024 96.8658 39.0579C97.0513 44.6272 98.5359 49.8252 101.505 54.6519C102.062 55.5801 102.618 55.9514 103.546 55.7658C104.474 55.5801 105.587 55.5801 106.515 55.3945C110.227 54.8376 113.752 53.3524 117.278 51.6816C123.587 48.7113 129.154 44.6272 134.536 40.1717C141.031 34.7881 146.969 28.8475 152.165 22.3499C151.794 21.4217 153.093 19.9366 152.536 19.0084ZM115.422 23.0925C115.051 23.2782 114.866 23.4638 114.495 23.6494C111.154 26.4341 107.814 29.4044 104.474 32.189C103.917 32.5603 103.917 32.9316 104.103 33.6742C105.402 36.4588 106.886 39.2435 108.185 42.0282C108.556 42.5851 108.742 42.7707 109.299 42.2138C111.154 40.543 113.196 39.0579 115.051 37.5727C117.093 35.9019 119.319 34.4168 121.546 32.9316C121.917 32.5603 122.288 32.3747 121.917 31.8178C119.876 29.0331 117.835 26.4341 115.794 23.6494C115.608 23.2782 115.608 23.2782 115.422 23.0925ZM123.216 31.6321C123.587 31.4465 123.773 31.2608 124.144 31.0752C128.412 28.2905 132.68 25.6915 136.948 22.9069C137.691 22.3499 137.876 22.3499 137.134 21.6074C135.093 19.3796 133.051 17.3376 131.01 15.1098C130.453 14.5529 129.897 14.5529 129.154 14.9242C125.629 16.9663 122.103 18.8227 118.577 20.8648C116.907 21.793 116.907 21.9786 118.02 23.6494C118.206 23.8351 118.392 24.2064 118.577 24.392C119.876 26.4341 121.361 28.6618 122.66 30.7039C122.66 31.0752 122.845 31.2608 123.216 31.6321ZM128.783 13.6247C128.598 13.439 128.412 13.2534 128.227 13.0678C125.814 11.2113 123.216 9.35489 120.247 8.24103C119.876 8.05538 119.319 8.05538 118.948 8.24103C116.165 8.9836 113.381 10.0975 110.969 11.5826C110.041 12.1395 110.041 12.1395 110.598 12.8821C112.082 15.2955 113.752 17.7088 115.237 19.9366C115.794 20.8648 115.794 20.8648 116.907 20.1222C119.134 18.8227 121.361 17.3376 123.587 16.0381C125.072 15.2955 126.556 14.7386 128.041 13.996C128.227 13.996 128.598 13.8103 128.783 13.6247ZM101.134 21.9786C101.319 25.1346 102.062 28.1049 102.989 30.8895C103.175 31.4465 103.361 31.6321 103.917 31.0752C106.886 27.9192 110.227 25.1346 113.752 22.5356C114.309 22.1643 114.309 21.793 113.938 21.2361C112.268 19.0084 110.598 16.7806 108.928 14.5529C108.185 13.439 108.185 13.439 107.258 14.3673C105.216 16.0381 103.546 17.8945 102.062 20.1222C101.319 20.4935 100.948 21.2361 101.134 21.9786Z" fill="#969696"/>
<path d="M84.4331 57.9937C84.8042 59.4788 85.1753 61.1496 85.732 62.6347C87.9588 68.9466 93.1547 72.6595 99.8351 73.0308C104.845 73.2164 109.485 72.1026 113.938 70.2461C123.031 66.9045 131.196 61.7065 138.619 55.7659C150.495 46.2981 160.33 35.1595 167.938 21.9788C167.938 21.7932 168.124 21.6075 168.124 21.6075C168.124 21.6075 168.309 21.4219 168.495 21.4219C168.309 21.7932 168.309 21.9788 168.124 22.3501C165.897 26.6199 163.485 30.8897 161.258 35.1595C160.887 35.9021 160.701 36.459 160.701 37.3872C160.516 47.0407 156.99 55.3946 149.938 62.0778C144 67.6471 136.763 70.8031 128.412 71.1744C126.186 71.36 123.959 70.9887 121.732 70.9887C120.804 70.9887 120.062 70.9887 119.32 71.36C114.866 73.4021 110.227 75.0729 105.402 75.8154C101.691 76.3724 97.9795 76.3724 94.4537 75.0729C88.7011 73.0308 85.1753 68.9466 84.6186 62.6347C84.2475 60.964 84.0619 59.4788 84.4331 57.9937ZM128.784 66.3476C133.052 66.7189 140.845 63.1917 145.485 59.2932C150.309 55.209 154.949 47.7833 155.134 43.8847C148.083 53.3526 138.99 60.407 128.784 66.3476Z" fill="#969696"/>
<path d="M18.371 32.0035C17.8143 34.2312 17.2576 36.2733 16.7009 38.501C15.7731 42.7708 14.6597 46.855 13.7319 51.1248C13.5463 51.8673 13.1752 52.2386 12.4329 52.2386C11.3195 52.2386 10.2061 52.2386 9.27825 52.2386C8.35042 52.2386 8.16485 51.8673 7.79372 51.1248C5.75248 43.8847 3.89681 36.8302 1.85557 29.5901C1.29887 27.548 0.742169 25.6916 0.185468 23.6495C-9.93982e-05 22.7213 -9.94205e-05 22.7213 0.927736 22.7213C2.22671 22.7213 3.52567 22.7213 4.82464 22.7213C5.75248 22.7213 5.93805 23.0926 6.12361 23.8351C7.23701 28.8475 8.53598 33.6743 9.83495 38.6866C10.2061 39.9861 10.5772 41.4713 10.9484 42.7708C10.9484 42.9564 11.1339 43.1421 11.3195 43.1421C11.3195 42.9564 11.5051 42.7708 11.5051 42.7708C12.2473 39.9861 12.804 37.0158 13.5463 34.2312C14.4741 30.704 15.2164 27.3624 16.1442 23.8351C16.3298 22.9069 16.7009 22.7213 17.6288 22.7213C18.371 22.7213 19.1133 22.7213 20.0411 22.7213C20.7834 22.7213 21.1545 23.0926 21.3401 23.8351C22.4535 28.8475 23.7525 34.0455 24.8659 39.0579C25.237 40.5431 25.6082 42.0282 26.1649 43.3277C26.3504 42.9564 26.3504 42.5851 26.536 42.0282C28.0205 35.902 29.5051 29.9614 31.1752 23.8351C31.5463 22.5356 31.5463 22.5356 32.6597 22.5356C33.7731 22.5356 35.0721 22.5356 36.1855 22.5356C37.4844 22.5356 37.4844 22.5356 37.1133 23.8351C35.9999 27.7337 34.8865 31.4465 33.7731 35.345C32.2886 40.5431 30.804 45.5554 29.3195 50.7535C28.9484 52.4243 28.9484 52.053 27.6494 52.053C26.9071 52.053 25.9793 52.053 25.237 52.053C23.7525 52.053 23.7525 52.053 23.5669 50.7535C22.4535 45.9267 21.3401 41.1 20.2267 36.2733C19.8556 34.7881 19.4844 33.303 19.1133 31.8178C18.5566 32.0035 18.371 32.0035 18.371 32.0035Z" fill="#969696"/>
<path d="M188.536 36.2734C191.134 36.2734 193.732 36.2734 196.33 36.2734C197.443 36.2734 197.443 36.2734 197.443 37.3873C197.258 44.813 192.247 51.3105 184.639 52.4244C173.505 53.9096 166.639 45.1843 166.639 37.2016C166.639 28.2907 173.876 22.3501 180.742 21.9789C185.567 21.6076 189.649 22.9071 193.175 26.2487C194.474 27.3625 195.402 28.8477 195.959 30.3328C196.33 31.0754 196.144 31.0754 195.402 31.0754C193.546 31.0754 191.876 31.0754 190.021 31.0754C189.464 31.0754 189.093 30.8898 188.907 30.5185C186.495 27.5482 183.526 26.8056 180 27.5482C176.289 28.4764 174.062 30.8898 173.134 34.6026C172.206 38.5011 173.134 41.8427 175.918 44.813C179.258 48.5259 187.423 48.7115 190.577 42.3997C190.948 41.4714 190.948 41.4714 190.021 41.4714C187.052 41.4714 184.082 41.4714 181.299 41.4714C180 41.4714 180 41.4714 180 40.1719C180 39.4294 180 38.6868 180 37.9442C180 36.4591 180 36.4591 181.67 36.4591C183.711 36.2734 186.124 36.2734 188.536 36.2734Z" fill="#969696"/>
<path d="M60.4947 36.2732C63.0926 36.2732 65.6906 36.2732 68.4741 36.2732C69.4019 36.2732 69.5875 36.2732 69.4019 37.3871C69.0308 42.7707 66.9895 47.4118 62.3504 50.3821C57.3401 53.538 52.1442 53.7237 46.9483 51.1247C41.7524 48.5257 38.9689 44.2559 38.5978 38.3153C38.2267 30.3326 43.0514 23.8351 51.0308 22.3499C57.1545 21.2361 62.5359 22.9069 66.4328 28.1049C66.9895 28.6618 67.3607 29.4044 67.7318 30.147C68.103 31.0752 68.103 31.2608 67.1751 31.2608C65.505 31.2608 63.8349 31.2608 62.1648 31.2608C61.6081 31.2608 61.237 31.0752 60.8658 30.7039C58.2679 27.3623 53.8143 26.991 50.6597 28.1049C47.1339 29.4044 44.7215 32.9316 44.5359 36.8301C44.3504 40.1717 45.6493 42.9564 48.0617 45.1841C51.4019 48.34 59.1957 48.5257 62.1648 42.2138C62.5359 41.4712 62.5359 41.2856 61.6081 41.2856C58.639 41.2856 55.8555 41.2856 52.8865 41.2856C51.4019 41.2856 51.4019 41.2856 51.4019 39.8004C51.4019 39.0578 51.4019 38.1296 51.4019 37.3871C51.4019 36.2732 51.4019 36.2732 52.5153 36.2732C55.2988 36.2732 57.8968 36.2732 60.4947 36.2732Z" fill="#969696"/>
<path d="M255.897 37.3874C256.082 45.927 248.845 52.7958 240.495 52.7958C232.33 52.7958 225.093 45.7414 225.093 37.2018C225.093 29.5904 231.587 21.979 240.68 21.979C249.587 21.979 256.268 29.4047 255.897 37.3874ZM249.959 37.3874C249.959 36.8305 249.959 36.4592 249.959 35.9023C249.402 32.375 247.732 29.5904 244.392 28.1052C241.237 26.6201 238.082 26.9914 235.299 29.0335C230.845 32.375 229.917 38.6869 233.072 43.1424C237.34 49.083 245.876 48.3404 249.031 41.6572C249.587 40.5434 249.959 39.0582 249.959 37.3874Z" fill="#969696"/>
<path d="M207.278 40.5429C207.278 43.6989 207.278 46.8548 207.278 50.0107C207.278 50.1964 207.278 50.5677 207.278 50.7533C207.278 52.0528 207.278 52.0528 206.165 52.0528C204.866 52.0528 203.567 52.0528 202.268 52.0528C201.711 52.0528 201.526 51.8672 201.526 51.3102C201.526 51.1246 201.526 50.7533 201.526 50.5677C201.526 41.8424 201.526 32.9315 201.526 24.2063C201.526 24.0206 201.526 23.835 201.526 23.6494C201.526 22.9068 201.711 22.5355 202.453 22.7211C203.196 22.7211 203.938 22.7211 204.866 22.7211C207.464 22.7211 209.876 22.7211 212.474 22.7211C215.072 22.7211 217.484 23.4637 219.526 25.3201C222.309 27.9192 223.051 31.4464 222.124 34.9736C221.381 38.3152 219.154 40.5429 215.629 41.4711C214.701 41.6568 214.701 41.6568 215.258 42.3994C217.484 45.3696 219.711 48.3399 221.938 51.3102C222.124 51.4959 222.309 51.8672 222.495 52.2385C222.124 52.2385 221.752 52.4241 221.381 52.4241C219.897 52.4241 218.412 52.4241 216.928 52.4241C216.185 52.4241 215.629 52.2385 215.258 51.4959C213.031 48.1543 210.804 44.9984 208.577 41.6568C208.392 41.2855 208.02 40.9142 207.835 40.7286C207.464 40.5429 207.464 40.5429 207.278 40.5429ZM207.278 32.5602C207.278 33.8597 207.278 34.9736 207.278 36.2731C207.278 36.6444 207.278 37.2013 207.835 37.2013C210.062 37.2013 212.289 37.387 214.33 36.6444C215.258 36.2731 215.814 35.7162 216.185 34.9736C217.484 32.0033 216 28.8474 212.845 28.2904C211.361 28.1048 209.691 28.1048 208.02 28.1048C207.464 28.1048 207.278 28.2904 207.278 28.8474C207.278 29.9612 207.278 31.2607 207.278 32.5602Z" fill="#969696"/>
<path d="M274.825 33.1172C274.825 30.1469 274.825 26.991 274.825 24.0207C274.825 22.9068 274.825 22.7212 276.124 22.7212C277.237 22.7212 278.536 22.7212 279.649 22.7212C280.763 22.7212 280.763 22.7212 280.763 23.8351C280.763 27.9192 280.763 32.189 280.763 36.2732C280.763 38.8722 280.763 41.4712 280.577 44.0702C280.021 49.4539 276.124 52.7954 270.742 52.7954C264.99 52.9811 261.649 49.4539 260.722 45.9266C260.35 44.6271 260.165 43.3276 260.165 42.0281C260.165 36.0875 260.165 29.9613 260.165 24.0207C260.165 22.7212 260.165 22.7212 261.464 22.7212C262.577 22.7212 263.691 22.7212 264.618 22.7212C265.917 22.7212 265.917 22.7212 265.917 24.0207C265.917 26.6197 265.917 29.4044 265.917 32.0034C265.917 35.1593 265.917 38.3152 265.917 41.4712C265.917 42.5851 266.103 43.6989 266.474 44.8128C267.216 46.6692 268.701 47.5974 271.113 47.4118C273.155 47.2261 274.268 46.2979 274.825 44.4415C275.01 43.6989 275.196 42.7707 275.196 41.8425C274.825 38.8722 274.825 35.9019 274.825 33.1172Z" fill="#969696"/>
<path d="M285.773 37.387C285.773 32.9316 285.773 28.4761 285.773 24.0207C285.773 22.7212 285.773 22.7212 287.072 22.7212C290.412 22.7212 293.753 22.7212 297.093 22.7212C298.392 22.7212 299.505 23.0925 300.804 23.4638C303.402 24.392 305.072 26.2484 305.629 28.8474C306 30.7039 306 32.5603 305.629 34.4167C304.887 38.1296 302.103 40.7286 298.021 41.2855C296.351 41.4712 294.495 41.4712 292.825 41.6568C291.711 41.6568 291.711 41.6568 291.711 42.7707C291.711 45.5553 291.711 48.34 291.711 51.1247C291.711 52.2385 291.711 52.2385 290.598 52.2385C289.299 52.2385 288.186 52.2385 286.887 52.2385C286.144 52.2385 285.959 52.0529 285.959 51.3103C285.959 50.0108 285.959 48.7113 285.959 47.4118C285.773 44.0702 285.773 40.7286 285.773 37.387ZM291.526 32.0034C291.526 33.1172 291.526 34.2311 291.526 35.345C291.526 35.9019 291.711 36.2732 292.268 36.2732C293.938 36.0875 295.608 36.2732 297.093 35.9019C299.134 35.5306 300.062 34.0455 300.062 32.0034C300.062 29.9613 298.948 28.4761 296.907 28.1049C295.423 27.9192 293.753 27.9192 292.082 27.7336C291.526 27.7336 291.34 28.1049 291.34 28.4761C291.711 29.7756 291.711 30.8895 291.526 32.0034Z" fill="#969696"/>
<path d="M156.062 28.8475C156.062 28.8475 155.134 29.9613 154.577 30.7039C146.598 42.7707 136.577 52.7955 124.144 60.4069C118.948 63.3772 113.753 65.9762 107.814 67.09C104.474 67.8326 100.948 68.0182 97.6082 67.2757C93.7113 66.3475 90.9278 64.3054 88.8866 60.9638C87.0309 57.8078 86.2886 54.4663 86.2886 50.7534C86.4742 51.1247 86.4742 51.6816 86.6598 52.0529C87.2165 54.095 87.9587 56.1371 89.0721 57.9935C91.6701 62.2633 95.567 64.491 100.577 64.6767C104.289 64.8623 107.814 63.9341 111.155 62.8202C117.649 60.5925 123.588 57.0653 129.155 53.1668C138.804 46.6692 146.969 38.5009 154.206 29.59C154.392 29.2187 155.32 28.2905 155.32 28.2905" fill="#969696"/>
<path d="M76.2678 40.1717C76.2678 36.6445 76.2678 32.9316 76.2678 29.4044C76.2678 28.1049 76.2678 28.1049 74.9689 28.1049C73.8555 28.1049 72.5565 28.1049 71.4431 28.1049C70.8864 28.1049 70.5153 27.9192 70.5153 27.1766C70.5153 26.0628 70.5153 24.7633 70.5153 23.6494C70.5153 22.9068 70.8864 22.7212 71.4431 22.7212C72.3709 22.7212 73.4843 22.7212 74.4122 22.7212C78.4946 22.7212 82.7627 22.7212 86.8452 22.7212C88.1441 22.7212 88.1441 22.7212 88.1441 24.0207C88.1441 24.9489 88.1441 26.0628 88.1441 26.991C88.1441 27.7336 87.9586 27.9192 87.2163 27.9192C86.1029 27.9192 84.9895 27.9192 83.8761 27.9192C82.3916 27.9192 82.3916 27.9192 82.3916 29.4044C82.3916 35.1593 82.3916 41.0999 82.3916 46.8549C82.3916 48.34 82.3916 49.6395 82.3916 51.1247C82.3916 52.2385 82.3915 52.2385 81.2781 52.2385C80.1647 52.2385 78.8658 52.2385 77.7524 52.2385C76.4534 52.2385 76.4534 52.2385 76.4534 50.939C76.4534 49.0826 76.4534 47.4118 76.4534 45.5553C76.2678 43.6989 76.2678 41.8425 76.2678 40.1717Z" fill="#969696"/>
<path d="M177.959 21.9789C176.289 21.9789 174.99 21.0507 174.062 19.5656C173.876 19.1943 173.876 18.823 174.247 18.4517C175.546 17.7091 175.917 15.8527 175.361 14.5532C174.99 13.9962 175.546 13.9962 175.732 13.8106C177.402 12.8824 179.443 13.068 180.742 14.3675C182.227 15.4814 182.598 17.5235 182.041 19.3799C181.299 20.8651 179.814 21.9789 177.959 21.9789Z" fill="#969696"/>
<path d="M169.237 13.6249C169.237 16.0382 167.381 17.709 165.155 17.709C162.928 17.709 161.072 15.8526 161.072 13.6249C161.072 12.8823 161.258 12.8823 161.814 13.0679C162.742 13.6249 163.67 13.4392 164.412 12.6967C165.155 11.9541 165.155 11.0259 164.783 10.0977C164.412 9.16943 164.412 9.16943 165.34 9.16943C167.381 9.54072 169.237 11.3972 169.237 13.6249Z" fill="#FF0008"/>
<path d="M164.969 6.75621C164.227 4.89978 164.969 2.8577 166.639 2.11512C168.495 1.37255 170.536 2.11512 171.464 3.97156C172.392 6.01364 171.464 7.87007 169.422 8.79829C169.979 6.94186 169.608 5.82799 168.309 5.27106C167.01 4.52849 166.082 4.89978 164.969 6.75621Z" fill="#969696"/>
<path d="M163.299 18.266C163.113 18.4517 163.113 18.4517 162.928 18.6373C162.557 19.1943 162 19.9368 161.629 20.4938C161.072 21.2363 160.887 21.9789 161.072 22.7215C161.258 23.4641 160.887 23.8354 160.144 23.4641C159.402 23.0928 158.845 22.7215 158.289 22.3502C157.917 21.9789 157.917 21.6076 158.474 21.422C160.144 21.0507 160.701 19.3799 161.443 18.266C162 17.5235 161.814 17.5235 162.742 17.8948C162.928 17.8948 163.113 18.0804 163.299 18.266Z" fill="#969696"/>
<path d="M164.227 11.3973C164.227 12.1399 163.67 12.8825 162.928 13.0681C162.186 13.2538 161.258 12.8825 161.072 11.9543C160.887 11.2117 160.701 10.6548 160.144 10.2835C159.773 9.91218 159.959 9.72654 160.33 9.35525C160.516 9.16961 160.887 8.79832 161.072 9.16961C161.629 9.72654 162.186 9.72654 162.928 9.91218C163.67 9.91218 164.227 10.4691 164.227 11.3973Z" fill="#969696"/>
<path d="M174.99 15.8525C174.99 16.0382 174.99 16.4095 174.804 16.5951C174.619 16.9664 174.247 17.5233 174.062 17.8946C173.691 17.5233 173.32 17.3377 173.134 16.9664C172.763 16.7808 172.392 16.4095 172.021 16.4095C171.464 16.2238 170.722 16.0382 170.165 15.8525C169.423 15.6669 169.608 15.2956 169.794 14.7387C169.979 13.9961 170.35 14.553 170.722 14.553C171.093 14.7387 171.464 14.7387 172.021 14.9243C172.763 15.2956 173.505 15.2956 174.433 15.11C174.804 14.9243 174.99 15.11 174.99 15.8525Z" fill="#969696"/>
<path d="M165.711 7.31283C165.711 6.38462 166.268 5.82768 167.01 5.64204C167.567 5.4564 168.495 5.82769 168.866 6.38462C169.237 6.94155 169.237 7.86976 168.68 8.24105C168.309 8.61234 167.938 9.16927 167.381 9.35491C167.196 9.54056 166.454 9.35491 166.268 8.98363C165.897 8.4267 165.897 7.68412 165.711 7.31283Z" fill="#969696"/>
<path d="M156.99 29.59C159.959 30.1469 162.557 27.3623 162 24.392C162 24.2063 161.629 24.0207 161.629 24.0207C159.959 24.7632 159.031 23.4637 157.918 22.5355C157.732 22.3499 157.546 21.9786 157.546 21.793C157.361 20.8647 157.361 20.6791 156.433 21.0504C153.649 21.9786 152.536 25.3202 154.392 27.7335C154.392 28.1048 155.32 29.2187 156.99 29.59Z" fill="#969696"/>
<path d="M164.291 54.2669C164.78 54.2669 165.164 54.3837 165.445 54.6173C165.725 54.8509 165.865 55.1726 165.865 55.5823C165.865 55.992 165.725 56.3136 165.445 56.5472C165.164 56.7809 164.78 56.8977 164.291 56.8977H163.358V58.0405H162.819V54.2669H164.291ZM164.275 56.4286C164.616 56.4286 164.877 56.3568 165.056 56.213C165.236 56.0657 165.326 55.8554 165.326 55.5823C165.326 55.3091 165.236 55.1007 165.056 54.9569C164.877 54.8096 164.616 54.7359 164.275 54.7359H163.358V56.4286H164.275ZM169.153 56.6281C169.153 56.6676 169.15 56.7198 169.142 56.7844H166.824C166.857 57.036 166.966 57.2391 167.153 57.3936C167.344 57.5446 167.579 57.62 167.859 57.62C168.201 57.62 168.476 57.505 168.684 57.275L168.97 57.6093C168.841 57.7602 168.679 57.8752 168.485 57.9543C168.294 58.0333 168.08 58.0729 167.843 58.0729C167.541 58.0729 167.274 58.0118 167.04 57.8896C166.806 57.7638 166.625 57.5895 166.496 57.3667C166.37 57.1438 166.307 56.8923 166.307 56.6119C166.307 56.3352 166.368 56.0854 166.49 55.8626C166.616 55.6398 166.787 55.4673 167.002 55.3451C167.222 55.2193 167.468 55.1564 167.741 55.1564C168.014 55.1564 168.257 55.2193 168.469 55.3451C168.684 55.4673 168.851 55.6398 168.97 55.8626C169.092 56.0854 169.153 56.3406 169.153 56.6281ZM167.741 55.5931C167.493 55.5931 167.284 55.6685 167.115 55.8195C166.95 55.9704 166.853 56.1681 166.824 56.4125H168.657C168.629 56.1717 168.53 55.9758 168.361 55.8249C168.195 55.6703 167.989 55.5931 167.741 55.5931ZM171.478 57.8734C171.403 57.9381 171.309 57.9884 171.198 58.0244C171.087 58.0567 170.972 58.0729 170.853 58.0729C170.566 58.0729 170.343 57.9956 170.185 57.8411C170.026 57.6865 169.947 57.4655 169.947 57.178V55.6092H169.462V55.1833H169.947V54.558H170.465V55.1833H171.284V55.6092H170.465V57.1564C170.465 57.311 170.503 57.4296 170.578 57.5122C170.657 57.5949 170.769 57.6362 170.912 57.6362C171.07 57.6362 171.205 57.5913 171.317 57.5014L171.478 57.8734ZM172.6 55.6631C172.69 55.4978 172.823 55.372 172.999 55.2858C173.175 55.1995 173.389 55.1564 173.64 55.1564V55.6577C173.612 55.6542 173.572 55.6524 173.522 55.6524C173.242 55.6524 173.021 55.7368 172.859 55.9057C172.701 56.0711 172.622 56.3083 172.622 56.6173V58.0405H172.104V55.1833H172.6V55.6631ZM175.476 58.0729C175.192 58.0729 174.937 58.01 174.71 57.8842C174.484 57.7584 174.306 57.5859 174.177 57.3667C174.051 57.1438 173.988 56.8923 173.988 56.6119C173.988 56.3316 174.051 56.0818 174.177 55.8626C174.306 55.6398 174.484 55.4673 174.71 55.3451C174.937 55.2193 175.192 55.1564 175.476 55.1564C175.76 55.1564 176.013 55.2193 176.236 55.3451C176.462 55.4673 176.638 55.6398 176.764 55.8626C176.894 56.0818 176.958 56.3316 176.958 56.6119C176.958 56.8923 176.894 57.1438 176.764 57.3667C176.638 57.5859 176.462 57.7584 176.236 57.8842C176.013 58.01 175.76 58.0729 175.476 58.0729ZM175.476 57.62C175.659 57.62 175.823 57.5787 175.966 57.496C176.114 57.4098 176.229 57.2912 176.311 57.1402C176.394 56.9857 176.435 56.8096 176.435 56.6119C176.435 56.4143 176.394 56.24 176.311 56.089C176.229 55.9345 176.114 55.8159 175.966 55.7332C175.823 55.6506 175.659 55.6092 175.476 55.6092C175.292 55.6092 175.127 55.6506 174.98 55.7332C174.836 55.8159 174.721 55.9345 174.635 56.089C174.552 56.24 174.511 56.4143 174.511 56.6119C174.511 56.8096 174.552 56.9857 174.635 57.1402C174.721 57.2912 174.836 57.4098 174.98 57.496C175.127 57.5787 175.292 57.62 175.476 57.62ZM178.919 58.0729C178.628 58.0729 178.368 58.01 178.138 57.8842C177.911 57.7584 177.733 57.5859 177.604 57.3667C177.474 57.1438 177.41 56.8923 177.41 56.6119C177.41 56.3316 177.474 56.0818 177.604 55.8626C177.733 55.6398 177.911 55.4673 178.138 55.3451C178.368 55.2193 178.628 55.1564 178.919 55.1564C179.178 55.1564 179.408 55.2085 179.609 55.3127C179.814 55.417 179.972 55.5679 180.084 55.7656L179.69 56.0189C179.6 55.8824 179.489 55.7799 179.356 55.7117C179.223 55.6434 179.076 55.6092 178.914 55.6092C178.727 55.6092 178.558 55.6506 178.407 55.7332C178.26 55.8159 178.143 55.9345 178.057 56.089C177.974 56.24 177.933 56.4143 177.933 56.6119C177.933 56.8132 177.974 56.9911 178.057 57.1456C178.143 57.2966 178.26 57.4134 178.407 57.496C178.558 57.5787 178.727 57.62 178.914 57.62C179.076 57.62 179.223 57.5859 179.356 57.5176C179.489 57.4493 179.6 57.3469 179.69 57.2103L180.084 57.4583C179.972 57.656 179.814 57.8087 179.609 57.9165C179.408 58.0208 179.178 58.0729 178.919 58.0729ZM182.242 55.1564C182.605 55.1564 182.893 55.2624 183.105 55.4745C183.321 55.6829 183.428 55.9902 183.428 56.3963V58.0405H182.911V56.4556C182.911 56.1789 182.844 55.9704 182.711 55.8303C182.579 55.6901 182.388 55.62 182.14 55.62C181.86 55.62 181.639 55.7027 181.477 55.868C181.315 56.0297 181.234 56.2633 181.234 56.5688V58.0405H180.717V54.0405H181.234V55.5877C181.342 55.4511 181.482 55.3451 181.655 55.2696C181.831 55.1941 182.027 55.1564 182.242 55.1564ZM186.984 56.6281C186.984 56.6676 186.981 56.7198 186.974 56.7844H184.655C184.688 57.036 184.797 57.2391 184.984 57.3936C185.175 57.5446 185.41 57.62 185.69 57.62C186.032 57.62 186.307 57.505 186.515 57.275L186.801 57.6093C186.672 57.7602 186.51 57.8752 186.316 57.9543C186.125 58.0333 185.912 58.0729 185.674 58.0729C185.372 58.0729 185.105 58.0118 184.871 57.8896C184.637 57.7638 184.456 57.5895 184.327 57.3667C184.201 57.1438 184.138 56.8923 184.138 56.6119C184.138 56.3352 184.199 56.0854 184.321 55.8626C184.447 55.6398 184.618 55.4673 184.833 55.3451C185.053 55.2193 185.299 55.1564 185.572 55.1564C185.845 55.1564 186.088 55.2193 186.3 55.3451C186.515 55.4673 186.682 55.6398 186.801 55.8626C186.923 56.0854 186.984 56.3406 186.984 56.6281ZM185.572 55.5931C185.324 55.5931 185.115 55.6685 184.947 55.8195C184.781 55.9704 184.684 56.1681 184.655 56.4125H186.488C186.46 56.1717 186.361 55.9758 186.192 55.8249C186.027 55.6703 185.82 55.5931 185.572 55.5931ZM191.277 55.1564C191.636 55.1564 191.92 55.2606 192.129 55.4691C192.341 55.6775 192.447 55.9866 192.447 56.3963V58.0405H191.929V56.4556C191.929 56.1789 191.865 55.9704 191.735 55.8303C191.61 55.6901 191.428 55.62 191.191 55.62C190.928 55.62 190.72 55.7027 190.565 55.868C190.411 56.0297 190.334 56.2633 190.334 56.5688V58.0405H189.816V56.4556C189.816 56.1789 189.751 55.9704 189.622 55.8303C189.496 55.6901 189.315 55.62 189.078 55.62C188.815 55.62 188.607 55.7027 188.452 55.868C188.298 56.0297 188.22 56.2633 188.22 56.5688V58.0405H187.703V55.1833H188.199V55.6092C188.303 55.4619 188.44 55.3505 188.609 55.275C188.778 55.1959 188.97 55.1564 189.185 55.1564C189.408 55.1564 189.606 55.2013 189.778 55.2912C189.951 55.381 190.084 55.5122 190.177 55.6847C190.285 55.5194 190.434 55.39 190.625 55.2966C190.819 55.2031 191.036 55.1564 191.277 55.1564ZM193.399 55.1833H193.917V58.0405H193.399V55.1833ZM193.658 54.6335C193.557 54.6335 193.473 54.6011 193.405 54.5364C193.34 54.4718 193.308 54.3927 193.308 54.2992C193.308 54.2058 193.34 54.1267 193.405 54.062C193.473 53.9938 193.557 53.9596 193.658 53.9596C193.759 53.9596 193.841 53.992 193.906 54.0567C193.974 54.1177 194.008 54.195 194.008 54.2885C194.008 54.3855 193.974 54.4682 193.906 54.5364C193.841 54.6011 193.759 54.6335 193.658 54.6335ZM196.15 58.0729C195.859 58.0729 195.598 58.01 195.368 57.8842C195.142 57.7584 194.964 57.5859 194.835 57.3667C194.705 57.1438 194.641 56.8923 194.641 56.6119C194.641 56.3316 194.705 56.0818 194.835 55.8626C194.964 55.6398 195.142 55.4673 195.368 55.3451C195.598 55.2193 195.859 55.1564 196.15 55.1564C196.409 55.1564 196.639 55.2085 196.84 55.3127C197.045 55.417 197.203 55.5679 197.315 55.7656L196.921 56.0189C196.831 55.8824 196.72 55.7799 196.587 55.7117C196.454 55.6434 196.306 55.6092 196.145 55.6092C195.958 55.6092 195.789 55.6506 195.638 55.7332C195.491 55.8159 195.374 55.9345 195.288 56.089C195.205 56.24 195.164 56.4143 195.164 56.6119C195.164 56.8132 195.205 56.9911 195.288 57.1456C195.374 57.2966 195.491 57.4134 195.638 57.496C195.789 57.5787 195.958 57.62 196.145 57.62C196.306 57.62 196.454 57.5859 196.587 57.5176C196.72 57.4493 196.831 57.3469 196.921 57.2103L197.315 57.4583C197.203 57.656 197.045 57.8087 196.84 57.9165C196.639 58.0208 196.409 58.0729 196.15 58.0729ZM199.025 55.1564C199.42 55.1564 199.722 55.2534 199.931 55.4475C200.143 55.6416 200.249 55.9309 200.249 56.3154V58.0405H199.758V57.6632C199.672 57.7961 199.548 57.8986 199.386 57.9704C199.228 58.0387 199.039 58.0729 198.82 58.0729C198.5 58.0729 198.243 57.9956 198.049 57.8411C197.859 57.6865 197.764 57.4835 197.764 57.2319C197.764 56.9803 197.855 56.7791 198.039 56.6281C198.222 56.4736 198.513 56.3963 198.912 56.3963H199.731V56.2939C199.731 56.0711 199.667 55.9003 199.537 55.7817C199.408 55.6631 199.217 55.6038 198.966 55.6038C198.797 55.6038 198.632 55.6326 198.47 55.6901C198.308 55.744 198.171 55.8177 198.06 55.9111L197.844 55.523C197.992 55.4044 198.168 55.3145 198.373 55.2534C198.578 55.1887 198.795 55.1564 199.025 55.1564ZM198.906 57.6739C199.104 57.6739 199.275 57.6308 199.419 57.5446C199.562 57.4547 199.667 57.3289 199.731 57.1672V56.7683H198.933C198.495 56.7683 198.276 56.9156 198.276 57.2103C198.276 57.3541 198.331 57.4673 198.443 57.55C198.554 57.6326 198.709 57.6739 198.906 57.6739ZM201.207 54.0405H201.724V58.0405H201.207V54.0405ZM204.985 54.7359H203.691V54.2669H206.812V54.7359H205.518V58.0405H204.985V54.7359ZM207.751 55.6631C207.841 55.4978 207.974 55.372 208.15 55.2858C208.326 55.1995 208.54 55.1564 208.792 55.1564V55.6577C208.763 55.6542 208.724 55.6524 208.673 55.6524C208.393 55.6524 208.172 55.7368 208.01 55.9057C207.852 56.0711 207.773 56.3083 207.773 56.6173V58.0405H207.255V55.1833H207.751V55.6631ZM210.465 55.1564C210.86 55.1564 211.162 55.2534 211.371 55.4475C211.583 55.6416 211.689 55.9309 211.689 56.3154V58.0405H211.198V57.6632C211.112 57.7961 210.988 57.8986 210.826 57.9704C210.668 58.0387 210.479 58.0729 210.26 58.0729C209.94 58.0729 209.683 57.9956 209.489 57.8411C209.299 57.6865 209.203 57.4835 209.203 57.2319C209.203 56.9803 209.295 56.7791 209.478 56.6281C209.662 56.4736 209.953 56.3963 210.352 56.3963H211.171V56.2939C211.171 56.0711 211.106 55.9003 210.977 55.7817C210.848 55.6631 210.657 55.6038 210.406 55.6038C210.237 55.6038 210.071 55.6326 209.91 55.6901C209.748 55.744 209.611 55.8177 209.5 55.9111L209.284 55.523C209.432 55.4044 209.608 55.3145 209.813 55.2534C210.017 55.1887 210.235 55.1564 210.465 55.1564ZM210.346 57.6739C210.544 57.6739 210.715 57.6308 210.858 57.5446C211.002 57.4547 211.106 57.3289 211.171 57.1672V56.7683H210.373C209.935 56.7683 209.716 56.9156 209.716 57.2103C209.716 57.3541 209.771 57.4673 209.883 57.55C209.994 57.6326 210.149 57.6739 210.346 57.6739ZM215.358 54.0405V58.0405H214.862V57.5877C214.747 57.7458 214.601 57.8662 214.425 57.9489C214.249 58.0315 214.055 58.0729 213.843 58.0729C213.566 58.0729 213.318 58.0118 213.099 57.8896C212.88 57.7674 212.707 57.5967 212.581 57.3774C212.459 57.1546 212.398 56.8995 212.398 56.6119C212.398 56.3244 212.459 56.0711 212.581 55.8518C212.707 55.6326 212.88 55.4619 213.099 55.3397C213.318 55.2175 213.566 55.1564 213.843 55.1564C214.048 55.1564 214.236 55.1959 214.409 55.275C214.581 55.3505 214.725 55.4637 214.84 55.6146V54.0405H215.358ZM213.886 57.62C214.066 57.62 214.229 57.5787 214.376 57.496C214.524 57.4098 214.639 57.2912 214.721 57.1402C214.804 56.9857 214.845 56.8096 214.845 56.6119C214.845 56.4143 214.804 56.24 214.721 56.089C214.639 55.9345 214.524 55.8159 214.376 55.7332C214.229 55.6506 214.066 55.6092 213.886 55.6092C213.703 55.6092 213.537 55.6506 213.39 55.7332C213.246 55.8159 213.131 55.9345 213.045 56.089C212.962 56.24 212.921 56.4143 212.921 56.6119C212.921 56.8096 212.962 56.9857 213.045 57.1402C213.131 57.2912 213.246 57.4098 213.39 57.496C213.537 57.5787 213.703 57.62 213.886 57.62ZM216.337 55.1833H216.854V58.0405H216.337V55.1833ZM216.596 54.6335C216.495 54.6335 216.411 54.6011 216.342 54.5364C216.278 54.4718 216.245 54.3927 216.245 54.2992C216.245 54.2058 216.278 54.1267 216.342 54.062C216.411 53.9938 216.495 53.9596 216.596 53.9596C216.696 53.9596 216.779 53.992 216.844 54.0567C216.912 54.1177 216.946 54.195 216.946 54.2885C216.946 54.3855 216.912 54.4682 216.844 54.5364C216.779 54.6011 216.696 54.6335 216.596 54.6335ZM219.368 55.1564C219.731 55.1564 220.019 55.2624 220.231 55.4745C220.446 55.6829 220.554 55.9902 220.554 56.3963V58.0405H220.037V56.4556C220.037 56.1789 219.97 55.9704 219.837 55.8303C219.704 55.6901 219.514 55.62 219.266 55.62C218.985 55.62 218.764 55.7027 218.603 55.868C218.441 56.0297 218.36 56.2633 218.36 56.5688V58.0405H217.842V55.1833H218.338V55.6146C218.443 55.4673 218.583 55.3541 218.759 55.275C218.939 55.1959 219.142 55.1564 219.368 55.1564ZM224.261 55.1833V57.6524C224.261 58.1519 224.137 58.5203 223.889 58.7575C223.641 58.9983 223.271 59.1187 222.778 59.1187C222.509 59.1187 222.252 59.081 222.007 59.0055C221.763 58.9336 221.565 58.8294 221.414 58.6928L221.662 58.2939C221.795 58.4089 221.959 58.4988 222.153 58.5634C222.351 58.6317 222.554 58.6659 222.762 58.6659C223.096 58.6659 223.343 58.5868 223.501 58.4287C223.662 58.2705 223.743 58.0297 223.743 57.7063V57.4799C223.621 57.6272 223.47 57.7386 223.291 57.8141C223.114 57.886 222.922 57.9219 222.714 57.9219C222.441 57.9219 222.193 57.8644 221.97 57.7494C221.751 57.6308 221.578 57.4673 221.452 57.2588C221.326 57.0468 221.264 56.806 221.264 56.5365C221.264 56.2669 221.326 56.0279 221.452 55.8195C221.578 55.6074 221.751 55.4439 221.97 55.3289C222.193 55.2139 222.441 55.1564 222.714 55.1564C222.929 55.1564 223.129 55.1959 223.312 55.275C223.499 55.3541 223.652 55.4709 223.77 55.6254V55.1833H224.261ZM222.773 57.4691C222.96 57.4691 223.127 57.4296 223.274 57.3505C223.425 57.2714 223.542 57.1618 223.625 57.0216C223.711 56.8779 223.754 56.7162 223.754 56.5365C223.754 56.2597 223.662 56.0369 223.479 55.868C223.296 55.6955 223.06 55.6092 222.773 55.6092C222.482 55.6092 222.245 55.6955 222.061 55.868C221.878 56.0369 221.786 56.2597 221.786 56.5365C221.786 56.7162 221.828 56.8779 221.91 57.0216C221.997 57.1618 222.113 57.2714 222.261 57.3505C222.412 57.4296 222.582 57.4691 222.773 57.4691ZM228.46 58.0837C228.083 58.0837 227.742 58.001 227.436 57.8357C227.134 57.6668 226.897 57.4367 226.724 57.1456C226.552 56.8509 226.466 56.5203 226.466 56.1537C226.466 55.7871 226.552 55.4583 226.724 55.1672C226.897 54.8725 227.136 54.6425 227.441 54.4771C227.747 54.3082 228.088 54.2238 228.466 54.2238C228.76 54.2238 229.03 54.2741 229.274 54.3747C229.519 54.4718 229.727 54.6173 229.9 54.8114L229.549 55.151C229.265 54.8527 228.911 54.7036 228.487 54.7036C228.207 54.7036 227.954 54.7665 227.727 54.8922C227.501 55.018 227.323 55.1923 227.193 55.4152C227.068 55.6344 227.005 55.8806 227.005 56.1537C227.005 56.4269 227.068 56.6748 227.193 56.8977C227.323 57.1169 227.501 57.2894 227.727 57.4152C227.954 57.541 228.207 57.6039 228.487 57.6039C228.908 57.6039 229.262 57.4529 229.549 57.151L229.9 57.4907C229.727 57.6847 229.517 57.8321 229.269 57.9327C229.025 58.0333 228.755 58.0837 228.46 58.0837ZM231.696 58.0729C231.412 58.0729 231.157 58.01 230.93 57.8842C230.704 57.7584 230.526 57.5859 230.397 57.3667C230.271 57.1438 230.208 56.8923 230.208 56.6119C230.208 56.3316 230.271 56.0818 230.397 55.8626C230.526 55.6398 230.704 55.4673 230.93 55.3451C231.157 55.2193 231.412 55.1564 231.696 55.1564C231.98 55.1564 232.233 55.2193 232.456 55.3451C232.682 55.4673 232.859 55.6398 232.984 55.8626C233.114 56.0818 233.178 56.3316 233.178 56.6119C233.178 56.8923 233.114 57.1438 232.984 57.3667C232.859 57.5859 232.682 57.7584 232.456 57.8842C232.233 58.01 231.98 58.0729 231.696 58.0729ZM231.696 57.62C231.879 57.62 232.043 57.5787 232.186 57.496C232.334 57.4098 232.449 57.2912 232.531 57.1402C232.614 56.9857 232.655 56.8096 232.655 56.6119C232.655 56.4143 232.614 56.24 232.531 56.089C232.449 55.9345 232.334 55.8159 232.186 55.7332C232.043 55.6506 231.879 55.6092 231.696 55.6092C231.513 55.6092 231.347 55.6506 231.2 55.7332C231.056 55.8159 230.941 55.9345 230.855 56.089C230.772 56.24 230.731 56.4143 230.731 56.6119C230.731 56.8096 230.772 56.9857 230.855 57.1402C230.941 57.2912 231.056 57.4098 231.2 57.496C231.347 57.5787 231.513 57.62 231.696 57.62ZM237.468 55.1564C237.828 55.1564 238.112 55.2606 238.32 55.4691C238.532 55.6775 238.638 55.9866 238.638 56.3963V58.0405H238.121V56.4556C238.121 56.1789 238.056 55.9704 237.927 55.8303C237.801 55.6901 237.619 55.62 237.382 55.62C237.12 55.62 236.911 55.7027 236.757 55.868C236.602 56.0297 236.525 56.2633 236.525 56.5688V58.0405H236.007V56.4556C236.007 56.1789 235.943 55.9704 235.813 55.8303C235.687 55.6901 235.506 55.62 235.269 55.62C235.006 55.62 234.798 55.7027 234.643 55.868C234.489 56.0297 234.412 56.2633 234.412 56.5688V58.0405H233.894V55.1833H234.39V55.6092C234.494 55.4619 234.631 55.3505 234.8 55.275C234.969 55.1959 235.161 55.1564 235.377 55.1564C235.599 55.1564 235.797 55.2013 235.97 55.2912C236.142 55.381 236.275 55.5122 236.369 55.6847C236.476 55.5194 236.625 55.39 236.816 55.2966C237.01 55.2031 237.227 55.1564 237.468 55.1564ZM241.105 55.1564C241.382 55.1564 241.63 55.2175 241.849 55.3397C242.068 55.4619 242.239 55.6326 242.361 55.8518C242.487 56.0711 242.55 56.3244 242.55 56.6119C242.55 56.8995 242.487 57.1546 242.361 57.3774C242.239 57.5967 242.068 57.7674 241.849 57.8896C241.63 58.0118 241.382 58.0729 241.105 58.0729C240.9 58.0729 240.712 58.0333 240.539 57.9543C240.37 57.8752 240.226 57.7602 240.108 57.6093V59.0864H239.59V55.1833H240.086V55.6362C240.201 55.4781 240.347 55.3595 240.523 55.2804C240.699 55.1977 240.893 55.1564 241.105 55.1564ZM241.062 57.62C241.245 57.62 241.409 57.5787 241.553 57.496C241.7 57.4098 241.815 57.2912 241.898 57.1402C241.984 56.9857 242.027 56.8096 242.027 56.6119C242.027 56.4143 241.984 56.24 241.898 56.089C241.815 55.9345 241.7 55.8159 241.553 55.7332C241.409 55.6506 241.245 55.6092 241.062 55.6092C240.882 55.6092 240.719 55.6524 240.572 55.7386C240.428 55.8213 240.313 55.9381 240.226 56.089C240.144 56.24 240.102 56.4143 240.102 56.6119C240.102 56.8096 240.144 56.9857 240.226 57.1402C240.309 57.2912 240.424 57.4098 240.572 57.496C240.719 57.5787 240.882 57.62 241.062 57.62ZM244.279 55.1564C244.674 55.1564 244.976 55.2534 245.185 55.4475C245.397 55.6416 245.503 55.9309 245.503 56.3154V58.0405H245.012V57.6632C244.926 57.7961 244.802 57.8986 244.64 57.9704C244.482 58.0387 244.294 58.0729 244.074 58.0729C243.754 58.0729 243.497 57.9956 243.303 57.8411C243.113 57.6865 243.018 57.4835 243.018 57.2319C243.018 56.9803 243.109 56.7791 243.293 56.6281C243.476 56.4736 243.767 56.3963 244.166 56.3963H244.985V56.2939C244.985 56.0711 244.921 55.9003 244.791 55.7817C244.662 55.6631 244.471 55.6038 244.22 55.6038C244.051 55.6038 243.886 55.6326 243.724 55.6901C243.562 55.744 243.426 55.8177 243.314 55.9111L243.099 55.523C243.246 55.4044 243.422 55.3145 243.627 55.2534C243.832 55.1887 244.049 55.1564 244.279 55.1564ZM244.161 57.6739C244.358 57.6739 244.529 57.6308 244.673 57.5446C244.816 57.4547 244.921 57.3289 244.985 57.1672V56.7683H244.187C243.749 56.7683 243.53 56.9156 243.53 57.2103C243.53 57.3541 243.586 57.4673 243.697 57.55C243.808 57.6326 243.963 57.6739 244.161 57.6739ZM247.986 55.1564C248.349 55.1564 248.637 55.2624 248.849 55.4745C249.064 55.6829 249.172 55.9902 249.172 56.3963V58.0405H248.655V56.4556C248.655 56.1789 248.588 55.9704 248.455 55.8303C248.322 55.6901 248.132 55.62 247.884 55.62C247.603 55.62 247.382 55.7027 247.221 55.868C247.059 56.0297 246.978 56.2633 246.978 56.5688V58.0405H246.461V55.1833H246.957V55.6146C247.061 55.4673 247.201 55.3541 247.377 55.275C247.557 55.1959 247.76 55.1564 247.986 55.1564ZM252.606 55.1833L251.22 58.3262C251.098 58.6174 250.954 58.8222 250.789 58.9408C250.627 59.0594 250.431 59.1187 250.201 59.1187C250.061 59.1187 249.925 59.0953 249.792 59.0486C249.662 59.0055 249.554 58.9408 249.468 58.8546L249.689 58.4664C249.837 58.6066 250.007 58.6767 250.201 58.6767C250.327 58.6767 250.431 58.6425 250.514 58.5742C250.6 58.5095 250.678 58.3963 250.746 58.2346L250.837 58.0351L249.576 55.1833H250.115L251.112 57.4691L252.099 55.1833H252.606Z" fill="#221F21"/>
</svg>
