<svg width="573" height="150" viewBox="0 0 573 150" fill="none" xmlns="http://www.w3.org/2000/svg">
<path d="M471.213 124.428V128.483H470.122V117.955H473.241C473.865 117.955 474.411 118.033 474.879 118.189C475.347 118.345 475.814 118.501 476.126 118.813C476.438 119.047 476.75 119.359 476.906 119.749C477.062 120.139 477.14 120.529 477.14 121.075C477.14 121.543 477.062 122.01 476.828 122.4C476.594 122.79 476.36 123.18 475.97 123.492C475.58 123.804 475.191 124.038 474.645 124.194C474.099 124.35 473.553 124.428 472.851 124.428H471.213ZM471.213 118.891V123.492H472.773C473.787 123.492 474.567 123.258 475.113 122.868C475.658 122.478 475.892 121.854 475.892 121.075C475.892 119.593 474.879 118.891 472.929 118.891H471.213Z" fill="#221F21"/>
<path d="M479.558 124.974C479.558 125.442 479.636 125.832 479.792 126.222C479.948 126.612 480.104 126.924 480.338 127.157C480.571 127.391 480.883 127.625 481.273 127.703C481.663 127.859 482.053 127.937 482.521 127.937C483.457 127.937 484.393 127.625 485.251 127.079V128.015C484.393 128.561 483.457 128.795 482.287 128.795C481.741 128.795 481.195 128.717 480.727 128.561C480.26 128.405 479.87 128.093 479.558 127.781C479.246 127.469 479.012 127.001 478.778 126.534C478.622 126.066 478.544 125.52 478.544 124.896C478.544 124.35 478.622 123.804 478.856 123.336C479.012 122.868 479.324 122.478 479.636 122.088C479.948 121.776 480.416 121.465 480.883 121.309C481.351 121.153 481.897 120.997 482.443 120.997C482.989 120.997 483.457 121.075 483.925 121.231C484.315 121.387 484.705 121.621 485.017 121.932C485.329 122.244 485.563 122.634 485.641 123.102C485.719 123.57 485.874 124.038 485.874 124.584V125.052H479.558V124.974ZM484.627 124.116C484.627 123.336 484.393 122.712 484.003 122.322C483.613 121.854 483.067 121.699 482.287 121.699C481.897 121.699 481.585 121.776 481.273 121.854C480.961 121.932 480.727 122.166 480.494 122.322C480.26 122.556 480.104 122.79 479.948 123.102C479.792 123.414 479.714 123.726 479.636 124.116H484.627Z" fill="#221F21"/>
<path d="M491.567 128.405C491.177 128.561 490.787 128.639 490.398 128.639C488.994 128.639 488.292 127.937 488.292 126.534V121.854H486.81V120.997H488.292V119.125L489.384 118.813V120.997H491.567V121.854H489.384V126.456C489.384 127.001 489.462 127.313 489.696 127.547C489.852 127.781 490.242 127.859 490.631 127.859C490.943 127.859 491.255 127.781 491.567 127.625V128.405Z" fill="#221F21"/>
<path d="M497.572 122.01C497.338 121.854 497.026 121.776 496.636 121.776C496.324 121.776 496.09 121.854 495.857 121.932C495.623 122.01 495.467 122.166 495.311 122.322C495.155 122.478 494.999 122.634 494.921 122.868C494.843 123.102 494.687 123.336 494.609 123.492C494.531 123.648 494.453 123.96 494.453 124.194C494.453 124.428 494.375 124.662 494.375 124.896V128.561H493.283V121.075H494.375V122.712C494.453 122.478 494.609 122.166 494.765 122.01C494.921 121.776 495.077 121.621 495.311 121.465C495.545 121.309 495.701 121.231 495.934 121.153C496.168 121.075 496.402 121.075 496.714 121.075C496.87 121.075 497.026 121.075 497.182 121.075C497.338 121.075 497.416 121.153 497.572 121.153V122.01Z" fill="#221F21"/>
<path d="M502.641 128.717C502.017 128.717 501.472 128.639 500.926 128.405C500.458 128.249 499.99 127.937 499.6 127.625C499.21 127.313 498.976 126.846 498.742 126.378C498.586 125.91 498.43 125.364 498.43 124.818C498.43 124.194 498.508 123.648 498.742 123.18C498.976 122.712 499.21 122.244 499.6 121.932C499.99 121.621 500.458 121.309 500.926 121.153C501.472 120.997 502.017 120.919 502.719 120.919C503.343 120.919 503.889 120.997 504.357 121.153C504.825 121.309 505.293 121.621 505.605 121.932C505.917 122.244 506.229 122.712 506.385 123.18C506.541 123.648 506.697 124.194 506.697 124.818C506.697 125.442 506.619 125.91 506.385 126.378C506.229 126.846 505.917 127.235 505.527 127.625C505.137 127.937 504.747 128.249 504.201 128.405C503.889 128.561 503.265 128.717 502.641 128.717ZM502.719 121.698C502.251 121.698 501.861 121.776 501.472 121.932C501.082 122.088 500.77 122.244 500.458 122.556C500.224 122.79 499.99 123.18 499.834 123.57C499.678 123.96 499.6 124.428 499.6 124.896C499.6 125.364 499.678 125.754 499.834 126.144C499.99 126.534 500.146 126.846 500.458 127.079C500.692 127.313 501.082 127.547 501.394 127.703C501.783 127.859 502.173 127.937 502.641 127.937C503.109 127.937 503.577 127.859 503.889 127.703C504.279 127.547 504.591 127.391 504.825 127.079C505.059 126.846 505.293 126.456 505.371 126.066C505.449 125.676 505.605 125.208 505.605 124.74C505.605 123.726 505.371 122.946 504.825 122.4C504.435 121.932 503.655 121.698 502.719 121.698Z" fill="#221F21"/>
<path d="M514.651 128.171C514.027 128.483 513.247 128.717 512.311 128.717C511.688 128.717 511.142 128.639 510.674 128.405C510.206 128.249 509.738 127.937 509.426 127.625C509.114 127.313 508.802 126.923 508.646 126.456C508.49 125.988 508.334 125.52 508.334 124.974C508.334 124.428 508.412 123.882 508.646 123.414C508.802 122.946 509.114 122.478 509.504 122.088C509.894 121.698 510.362 121.465 510.908 121.231C511.454 120.997 512.077 120.919 512.779 120.919C513.481 120.919 514.105 121.075 514.729 121.309V122.322C514.105 121.932 513.403 121.776 512.701 121.776C512.155 121.776 511.766 121.854 511.376 122.01C510.986 122.166 510.674 122.4 510.362 122.712C510.128 123.024 509.894 123.336 509.738 123.726C509.582 124.116 509.504 124.506 509.504 124.974C509.504 125.364 509.582 125.754 509.66 126.144C509.816 126.534 509.972 126.846 510.206 127.079C510.44 127.391 510.752 127.547 511.142 127.781C511.532 127.937 511.999 128.015 512.467 128.015C513.247 128.015 514.027 127.781 514.651 127.391V128.171Z" fill="#221F21"/>
<path d="M522.527 128.483V124.116C522.527 123.258 522.371 122.634 521.982 122.244C521.67 121.854 521.124 121.621 520.344 121.621C520.032 121.621 519.642 121.698 519.33 121.776C519.018 121.932 518.706 122.088 518.472 122.322C518.238 122.556 518.082 122.868 517.926 123.18C517.77 123.492 517.692 123.882 517.692 124.272V128.483H516.601V117.409H517.692V122.322C518.394 121.309 519.33 120.841 520.578 120.841C521.514 120.841 522.215 121.075 522.761 121.621C523.229 122.166 523.463 122.868 523.463 123.882V128.483H522.527Z" fill="#221F21"/>
<path d="M526.661 124.974C526.661 125.442 526.739 125.832 526.895 126.222C527.051 126.612 527.207 126.924 527.441 127.157C527.675 127.391 527.986 127.625 528.376 127.703C528.766 127.859 529.156 127.937 529.624 127.937C530.56 127.937 531.496 127.625 532.354 127.079V128.015C531.496 128.561 530.56 128.795 529.39 128.795C528.844 128.795 528.298 128.717 527.83 128.561C527.363 128.405 526.973 128.093 526.661 127.781C526.349 127.469 526.115 127.001 525.881 126.534C525.725 126.066 525.647 125.52 525.647 124.896C525.647 124.35 525.725 123.804 525.959 123.336C526.193 122.868 526.427 122.478 526.739 122.088C527.051 121.776 527.519 121.465 527.986 121.309C528.454 121.075 529 120.997 529.546 120.997C530.092 120.997 530.56 121.075 531.028 121.231C531.418 121.387 531.808 121.621 532.12 121.932C532.432 122.244 532.666 122.634 532.744 123.102C532.822 123.57 532.977 124.038 532.977 124.584V125.052H526.661V124.974ZM531.808 124.116C531.808 123.336 531.574 122.712 531.184 122.322C530.794 121.854 530.248 121.699 529.468 121.699C529.078 121.699 528.766 121.776 528.454 121.854C528.142 121.932 527.908 122.166 527.675 122.322C527.441 122.556 527.285 122.79 527.129 123.102C526.973 123.414 526.895 123.726 526.817 124.116H531.808Z" fill="#221F21"/>
<path d="M545.767 128.483V124.116C545.767 123.648 545.689 123.258 545.611 122.946C545.533 122.634 545.377 122.4 545.221 122.166C545.065 122.01 544.831 121.854 544.597 121.776C544.363 121.699 544.051 121.621 543.661 121.621C543.349 121.621 543.038 121.699 542.804 121.776C542.492 121.932 542.258 122.088 542.102 122.322C541.868 122.556 541.712 122.79 541.634 123.102C541.478 123.414 541.478 123.726 541.478 124.116V128.483H540.386V123.96C540.386 122.4 539.684 121.621 538.28 121.621C537.969 121.621 537.657 121.699 537.423 121.776C537.111 121.932 536.877 122.088 536.721 122.322C536.487 122.556 536.331 122.79 536.253 123.102C536.175 123.414 536.097 123.726 536.097 124.116V128.405H535.005V120.919H536.097V122.166C536.721 121.231 537.579 120.763 538.748 120.763C539.06 120.763 539.372 120.841 539.606 120.919C539.84 120.997 540.152 121.075 540.308 121.231C540.542 121.387 540.698 121.543 540.854 121.776C541.01 122.01 541.088 122.166 541.166 122.4C541.478 121.854 541.868 121.465 542.336 121.153C542.804 120.841 543.349 120.763 543.973 120.763C545.845 120.763 546.781 121.776 546.781 123.804V128.405H545.767V128.483Z" fill="#221F21"/>
<path d="M549.978 119.125C549.744 119.125 549.588 119.047 549.432 118.969C549.276 118.813 549.198 118.657 549.198 118.501C549.198 118.345 549.276 118.111 549.432 118.033C549.588 117.877 549.744 117.877 549.978 117.877C550.056 117.877 550.212 117.877 550.29 117.955C550.368 117.955 550.446 118.033 550.524 118.111C550.602 118.189 550.68 118.267 550.68 118.345C550.758 118.423 550.758 118.501 550.758 118.579C550.758 118.657 550.758 118.735 550.68 118.813C550.602 118.891 550.602 118.969 550.524 119.047C550.446 119.125 550.368 119.125 550.29 119.203C550.134 119.125 550.056 119.125 549.978 119.125ZM549.432 120.997H550.524V128.483H549.432V120.997Z" fill="#221F21"/>
<path d="M558.947 128.171C558.323 128.483 557.543 128.717 556.607 128.717C555.983 128.717 555.437 128.639 554.969 128.405C554.501 128.249 554.033 127.937 553.722 127.625C553.41 127.313 553.098 126.923 552.942 126.456C552.786 125.988 552.63 125.52 552.63 124.974C552.63 124.428 552.708 123.882 552.942 123.414C553.176 122.946 553.41 122.478 553.799 122.088C554.189 121.698 554.657 121.465 555.203 121.231C555.749 120.997 556.373 120.919 557.075 120.919C557.777 120.919 558.401 121.075 559.024 121.309V122.322C558.401 121.932 557.699 121.776 556.997 121.776C556.451 121.776 556.061 121.854 555.671 122.01C555.281 122.166 554.969 122.4 554.657 122.712C554.345 123.024 554.189 123.336 554.033 123.726C553.877 124.116 553.799 124.506 553.799 124.974C553.799 125.364 553.877 125.754 553.955 126.144C554.111 126.534 554.267 126.846 554.501 127.079C554.735 127.391 555.047 127.547 555.437 127.781C555.827 127.937 556.295 128.015 556.763 128.015C557.543 128.015 558.323 127.781 558.947 127.391V128.171Z" fill="#221F21"/>
<path d="M565.965 128.483V127.157C565.653 127.625 565.341 128.015 564.795 128.249C564.327 128.483 563.782 128.639 563.158 128.639C562.768 128.639 562.378 128.561 562.066 128.483C561.754 128.405 561.442 128.249 561.208 128.015C560.974 127.859 560.818 127.625 560.662 127.313C560.506 127.079 560.506 126.768 560.506 126.456C560.506 125.754 560.74 125.208 561.208 124.818C561.676 124.428 562.378 124.116 563.392 124.038L565.965 123.726C565.965 122.322 565.341 121.543 564.015 121.543C563.002 121.543 562.066 121.854 561.208 122.478V121.465C561.364 121.387 561.598 121.231 561.832 121.153C562.066 121.075 562.3 120.997 562.534 120.919C562.768 120.841 563.08 120.763 563.314 120.763C563.548 120.763 563.86 120.685 564.093 120.685C565.029 120.685 565.809 120.919 566.277 121.387C566.745 121.854 566.979 122.556 566.979 123.492V128.327H565.965V128.483ZM563.781 124.896C563.392 124.974 563.08 124.974 562.768 125.052C562.534 125.13 562.3 125.208 562.066 125.364C561.91 125.52 561.754 125.676 561.676 125.832C561.598 125.988 561.52 126.222 561.52 126.534C561.52 126.768 561.598 126.924 561.676 127.079C561.754 127.235 561.91 127.391 562.066 127.547C562.222 127.703 562.378 127.781 562.612 127.859C562.846 127.937 563.08 127.937 563.392 127.937C563.781 127.937 564.093 127.859 564.405 127.781C564.717 127.625 565.029 127.469 565.263 127.235C565.497 127.001 565.653 126.768 565.809 126.456C565.965 126.144 566.043 125.832 566.043 125.442V124.74L563.781 124.896Z" fill="#221F21"/>
<path d="M570.722 117.409H569.63V128.483H570.722V117.409Z" fill="#221F21"/>
<path d="M446.96 135.97V145.562H445.868V135.97H442.437V135.034H450.469V135.97H446.96Z" fill="#221F21"/>
<path d="M454.836 139.011C454.603 138.855 454.291 138.777 453.901 138.777C453.589 138.777 453.355 138.855 453.121 138.933C452.887 139.011 452.731 139.167 452.575 139.323C452.419 139.479 452.263 139.635 452.185 139.869C452.107 140.103 451.951 140.337 451.873 140.493C451.795 140.649 451.717 140.961 451.717 141.195C451.717 141.429 451.639 141.663 451.639 141.897V145.562H450.547V138.075H451.639V139.713C451.717 139.479 451.873 139.167 452.029 139.011C452.185 138.777 452.341 138.621 452.575 138.465C452.809 138.309 452.965 138.231 453.199 138.153C453.433 138.075 453.667 138.075 453.979 138.075C454.135 138.075 454.291 138.075 454.447 138.075C454.603 138.075 454.681 138.153 454.836 138.153V139.011Z" fill="#221F21"/>
<path d="M461.309 145.562V144.236C460.997 144.704 460.685 145.094 460.139 145.328C459.671 145.562 459.126 145.718 458.502 145.718C458.112 145.718 457.722 145.64 457.41 145.562C457.098 145.484 456.786 145.328 456.552 145.094C456.318 144.938 456.162 144.704 456.006 144.392C455.85 144.158 455.85 143.846 455.85 143.534C455.85 142.832 456.084 142.287 456.552 141.897C457.02 141.507 457.722 141.195 458.736 141.117L461.309 140.805C461.309 139.401 460.685 138.621 459.359 138.621C458.346 138.621 457.41 138.933 456.552 139.557V138.543C456.708 138.465 456.942 138.309 457.176 138.231C457.41 138.153 457.644 138.075 457.878 137.997C458.112 137.919 458.424 137.841 458.658 137.841C458.892 137.841 459.203 137.763 459.437 137.763C460.373 137.763 461.153 137.997 461.621 138.465C462.089 138.933 462.323 139.635 462.323 140.571V145.406H461.309V145.562ZM459.126 141.897C458.736 141.975 458.424 141.975 458.112 142.053C457.8 142.131 457.644 142.209 457.41 142.365C457.176 142.521 457.098 142.676 457.02 142.832C456.942 142.988 456.864 143.222 456.864 143.534C456.864 143.768 456.942 143.924 457.02 144.08C457.098 144.236 457.254 144.392 457.41 144.548C457.566 144.704 457.722 144.782 457.956 144.86C458.19 144.938 458.424 144.938 458.736 144.938C459.126 144.938 459.437 144.86 459.749 144.782C460.061 144.626 460.373 144.47 460.607 144.236C460.841 144.002 460.997 143.768 461.153 143.456C461.309 143.144 461.387 142.832 461.387 142.443V141.741L459.126 141.897Z" fill="#221F21"/>
<path d="M470.979 145.562V144.236C470.667 144.704 470.278 145.094 469.732 145.328C469.186 145.562 468.64 145.718 467.938 145.718C467.392 145.718 466.924 145.64 466.456 145.484C465.988 145.328 465.676 145.094 465.364 144.704C465.053 144.392 464.819 144.002 464.663 143.534C464.507 143.066 464.429 142.52 464.429 141.975C464.429 141.351 464.507 140.805 464.741 140.337C464.897 139.869 465.208 139.401 465.52 139.011C465.832 138.621 466.3 138.387 466.768 138.153C467.236 137.919 467.782 137.841 468.406 137.841C469.654 137.841 470.511 138.309 471.057 139.167V134.41H472.149V145.484H470.979V145.562ZM470.979 141.039C470.979 140.727 470.901 140.415 470.823 140.103C470.667 139.791 470.511 139.557 470.278 139.401C470.044 139.167 469.81 139.011 469.42 138.933C469.108 138.777 468.718 138.777 468.328 138.777C467.938 138.777 467.548 138.855 467.158 139.011C466.768 139.167 466.456 139.401 466.222 139.635C465.988 139.947 465.754 140.259 465.598 140.649C465.442 141.039 465.364 141.507 465.364 141.975C465.364 142.443 465.442 142.91 465.52 143.222C465.676 143.612 465.832 143.924 466.066 144.158C466.3 144.392 466.612 144.626 466.924 144.782C467.236 144.938 467.626 145.016 468.016 145.016C468.484 145.016 468.874 144.938 469.186 144.782C469.498 144.626 469.81 144.47 470.044 144.236C470.278 144.002 470.511 143.69 470.589 143.378C470.745 143.066 470.823 142.676 470.823 142.365V141.039H470.979Z" fill="#221F21"/>
<path d="M475.346 136.126C475.112 136.126 474.957 136.048 474.801 135.97C474.645 135.814 474.567 135.658 474.567 135.502C474.567 135.346 474.645 135.112 474.801 135.034C474.957 134.878 475.112 134.878 475.346 134.878C475.424 134.878 475.58 134.878 475.658 134.956C475.736 134.956 475.814 135.034 475.892 135.112C475.97 135.19 476.048 135.268 476.048 135.346C476.126 135.424 476.126 135.502 476.126 135.58C476.126 135.658 476.126 135.736 476.048 135.814C476.048 135.892 475.97 135.97 475.892 136.048C475.814 136.126 475.736 136.126 475.658 136.204C475.58 136.126 475.424 136.126 475.346 136.126ZM474.801 138.075H475.892V145.562H474.801V138.075Z" fill="#221F21"/>
<path d="M484.393 145.562V141.273C484.393 139.557 483.691 138.699 482.287 138.699C481.897 138.699 481.585 138.777 481.273 138.855C480.961 138.933 480.65 139.167 480.416 139.401C480.182 139.635 480.026 139.869 479.87 140.181C479.714 140.493 479.636 140.805 479.636 141.195V145.484H478.544V137.997H479.636V139.323C480.26 138.309 481.195 137.841 482.521 137.841C483.457 137.841 484.159 138.075 484.705 138.621C485.173 139.167 485.407 139.947 485.407 140.961V145.562H484.393Z" fill="#221F21"/>
<path d="M495.155 144.938C495.155 146.342 494.765 147.356 494.063 148.057C493.361 148.759 492.191 149.071 490.71 149.071C489.774 149.071 488.916 148.915 488.058 148.525V147.59C488.994 148.057 489.852 148.291 490.71 148.291C492.971 148.291 494.063 147.278 494.063 145.172V144.236C493.439 145.25 492.425 145.718 491.021 145.718C490.476 145.718 490.008 145.64 489.54 145.484C489.072 145.328 488.76 145.094 488.448 144.782C488.136 144.47 487.902 144.08 487.746 143.612C487.59 143.144 487.512 142.599 487.512 142.053C487.512 141.429 487.59 140.883 487.824 140.337C487.98 139.869 488.292 139.401 488.604 139.011C488.916 138.621 489.384 138.387 489.852 138.153C490.32 137.919 490.866 137.841 491.489 137.841C492.737 137.841 493.595 138.309 494.141 139.167V138.075H495.233V144.938H495.155ZM494.063 140.961C494.063 140.649 493.985 140.337 493.907 140.103C493.751 139.791 493.595 139.557 493.361 139.401C493.127 139.167 492.893 139.011 492.581 138.933C492.269 138.777 491.879 138.777 491.567 138.777C491.099 138.777 490.71 138.855 490.32 139.011C489.93 139.167 489.618 139.401 489.384 139.635C489.15 139.947 488.916 140.259 488.76 140.649C488.604 141.039 488.526 141.507 488.526 141.975C488.526 142.443 488.604 142.832 488.682 143.222C488.838 143.612 488.994 143.924 489.228 144.158C489.462 144.392 489.774 144.626 490.086 144.782C490.398 144.938 490.788 145.016 491.177 145.016C491.567 145.016 491.957 144.938 492.347 144.782C492.659 144.626 492.971 144.47 493.205 144.236C493.439 144.002 493.673 143.69 493.751 143.378C493.907 143.066 493.985 142.676 493.985 142.365V140.961H494.063Z" fill="#221F21"/>
<path d="M510.908 145.172C509.972 145.562 508.958 145.718 507.71 145.718C506.852 145.718 506.073 145.562 505.371 145.328C504.669 145.094 504.123 144.704 503.577 144.236C503.109 143.768 502.719 143.222 502.485 142.599C502.251 141.975 502.095 141.273 502.095 140.493C502.095 139.713 502.251 138.933 502.485 138.309C502.797 137.607 503.187 137.062 503.733 136.516C504.279 136.048 504.903 135.58 505.605 135.346C506.385 135.034 507.164 134.878 508.1 134.878C509.114 134.878 510.05 135.034 510.83 135.268V136.282C509.972 135.892 509.036 135.736 508.1 135.736C507.32 135.736 506.619 135.892 505.995 136.126C505.371 136.36 504.903 136.672 504.435 137.14C504.045 137.529 503.733 138.075 503.499 138.621C503.265 139.167 503.187 139.791 503.187 140.493C503.187 141.117 503.265 141.663 503.499 142.209C503.733 142.754 503.967 143.222 504.357 143.612C504.747 144.002 505.215 144.314 505.761 144.548C506.307 144.782 507.008 144.938 507.71 144.938C508.88 144.938 509.894 144.704 510.752 144.314V145.172H510.908Z" fill="#221F21"/>
<path d="M516.757 145.718C516.133 145.718 515.587 145.64 515.041 145.406C514.573 145.25 514.105 144.938 513.715 144.626C513.325 144.314 513.091 143.846 512.857 143.378C512.701 142.91 512.545 142.365 512.545 141.819C512.545 141.195 512.623 140.649 512.857 140.181C513.091 139.713 513.325 139.245 513.715 138.933C514.105 138.621 514.573 138.309 515.041 138.153C515.587 137.997 516.133 137.919 516.835 137.919C517.458 137.919 518.004 137.997 518.472 138.153C518.94 138.309 519.408 138.621 519.72 138.933C520.032 139.245 520.344 139.713 520.5 140.181C520.656 140.649 520.812 141.195 520.812 141.819C520.812 142.443 520.734 142.91 520.5 143.378C520.344 143.846 520.032 144.236 519.642 144.626C519.252 144.938 518.862 145.25 518.316 145.406C518.004 145.64 517.458 145.718 516.757 145.718ZM516.835 138.699C516.367 138.699 515.977 138.777 515.587 138.933C515.197 139.089 514.885 139.245 514.573 139.557C514.339 139.791 514.105 140.181 513.949 140.571C513.793 140.961 513.715 141.429 513.715 141.897C513.715 142.365 513.793 142.754 513.949 143.144C514.105 143.534 514.261 143.846 514.573 144.08C514.807 144.314 515.197 144.548 515.509 144.704C515.899 144.86 516.289 144.938 516.757 144.938C517.224 144.938 517.692 144.86 518.004 144.704C518.394 144.548 518.706 144.392 518.94 144.08C519.174 143.846 519.408 143.456 519.486 143.066C519.642 142.676 519.72 142.209 519.72 141.741C519.72 140.727 519.486 139.947 518.94 139.401C518.55 138.933 517.848 138.699 516.835 138.699Z" fill="#221F21"/>
<path d="M533.913 145.562V141.195C533.913 140.727 533.835 140.337 533.757 140.025C533.679 139.713 533.523 139.479 533.367 139.245C533.211 139.089 532.977 138.933 532.743 138.855C532.51 138.777 532.198 138.699 531.808 138.699C531.496 138.699 531.184 138.777 530.95 138.855C530.638 139.011 530.404 139.167 530.248 139.401C530.014 139.635 529.858 139.869 529.78 140.181C529.624 140.493 529.624 140.805 529.624 141.195V145.562H528.532V141.039C528.532 139.479 527.83 138.699 526.427 138.699C526.115 138.699 525.803 138.777 525.569 138.855C525.257 139.011 525.023 139.167 524.867 139.401C524.633 139.635 524.477 139.869 524.399 140.181C524.321 140.493 524.243 140.805 524.243 141.195V145.484H523.151V137.997H524.243V139.245C524.867 138.309 525.725 137.841 526.895 137.841C527.207 137.841 527.518 137.919 527.752 137.997C527.986 138.075 528.298 138.153 528.454 138.309C528.688 138.465 528.844 138.621 529 138.855C529.156 139.089 529.234 139.245 529.312 139.479C529.624 138.933 530.014 138.543 530.482 138.231C530.95 137.919 531.496 137.841 532.12 137.841C533.991 137.841 534.927 138.855 534.927 140.883V145.484H533.913V145.562Z" fill="#221F21"/>
<path d="M538.592 144.314V148.993H537.501V138.075H538.592V139.479C538.904 138.933 539.372 138.543 539.84 138.309C540.386 137.997 541.01 137.919 541.634 137.919C542.18 137.919 542.648 137.997 543.115 138.153C543.583 138.309 543.895 138.543 544.207 138.855C544.519 139.167 544.753 139.557 544.909 140.025C545.065 140.493 545.143 140.961 545.143 141.585C545.143 142.209 545.065 142.754 544.909 143.3C544.753 143.846 544.441 144.236 544.129 144.626C543.817 145.016 543.349 145.25 542.881 145.484C542.414 145.718 541.868 145.796 541.244 145.796C540.152 145.718 539.216 145.25 538.592 144.314ZM538.592 142.443C538.592 142.754 538.67 143.066 538.826 143.378C538.982 143.69 539.138 143.924 539.372 144.158C539.606 144.392 539.918 144.548 540.23 144.704C540.542 144.86 540.932 144.938 541.322 144.938C541.79 144.938 542.102 144.86 542.492 144.704C542.804 144.548 543.115 144.314 543.349 144.002C543.583 143.69 543.817 143.378 543.895 142.91C544.051 142.521 544.129 142.053 544.129 141.507C544.129 141.039 544.051 140.649 543.973 140.337C543.817 139.947 543.661 139.713 543.427 139.401C543.193 139.167 542.96 138.933 542.57 138.855C542.258 138.699 541.868 138.621 541.478 138.621C541.01 138.621 540.62 138.699 540.308 138.855C539.918 139.011 539.684 139.167 539.372 139.479C539.138 139.713 538.904 140.025 538.826 140.337C538.67 140.649 538.592 141.039 538.592 141.429V142.443Z" fill="#221F21"/>
<path d="M552.318 145.562V144.236C552.006 144.704 551.694 145.094 551.148 145.328C550.68 145.562 550.134 145.718 549.51 145.718C549.12 145.718 548.73 145.64 548.419 145.562C548.107 145.484 547.795 145.328 547.561 145.094C547.327 144.938 547.171 144.704 547.015 144.392C546.859 144.158 546.859 143.846 546.859 143.534C546.859 142.832 547.093 142.287 547.561 141.897C548.029 141.507 548.73 141.195 549.744 141.117L552.318 140.805C552.318 139.401 551.694 138.621 550.368 138.621C549.354 138.621 548.418 138.933 547.561 139.557V138.543C547.717 138.465 547.951 138.309 548.185 138.231C548.418 138.153 548.652 138.075 548.886 137.997C549.12 137.919 549.432 137.841 549.666 137.841C549.9 137.841 550.212 137.763 550.446 137.763C551.382 137.763 552.162 137.997 552.63 138.465C553.098 138.933 553.332 139.635 553.332 140.571V145.406H552.318V145.562ZM550.134 141.897C549.744 141.975 549.432 141.975 549.12 142.053C548.886 142.131 548.652 142.209 548.419 142.365C548.263 142.521 548.107 142.676 548.029 142.832C547.951 142.988 547.873 143.222 547.873 143.534C547.873 143.768 547.951 143.924 548.029 144.08C548.107 144.236 548.263 144.392 548.419 144.548C548.574 144.704 548.73 144.782 548.964 144.86C549.198 144.938 549.432 144.938 549.744 144.938C550.134 144.938 550.446 144.86 550.758 144.782C551.07 144.626 551.382 144.47 551.616 144.236C551.85 144.002 552.006 143.768 552.162 143.456C552.318 143.144 552.396 142.832 552.396 142.443V141.741L550.134 141.897Z" fill="#221F21"/>
<path d="M561.754 145.562V141.273C561.754 139.557 561.052 138.699 559.648 138.699C559.258 138.699 558.947 138.777 558.635 138.855C558.323 138.933 558.011 139.167 557.777 139.401C557.543 139.635 557.387 139.869 557.231 140.181C557.075 140.493 556.997 140.805 556.997 141.195V145.484H555.905V137.997H556.997V139.323C557.621 138.309 558.557 137.841 559.882 137.841C560.818 137.841 561.52 138.075 562.066 138.621C562.534 139.167 562.768 139.947 562.768 140.961V145.562H561.754Z" fill="#221F21"/>
<path d="M567.915 146.888C567.603 147.59 567.213 148.135 566.745 148.525C566.277 148.915 565.809 149.071 565.185 149.071C564.873 149.071 564.639 149.071 564.405 148.993V148.135C564.561 148.135 564.639 148.213 564.795 148.213C564.951 148.213 565.029 148.213 565.185 148.213C565.575 148.213 565.809 148.135 566.121 147.901C566.355 147.746 566.589 147.434 566.823 147.044L567.603 145.484L564.327 137.997H565.497L567.915 143.924C567.915 144.002 567.993 144.08 567.993 144.158C567.993 144.236 568.071 144.392 568.071 144.47H568.149C568.149 144.392 568.227 144.314 568.227 144.236C568.227 144.158 568.305 144.08 568.305 143.924L570.878 137.997H572.048L567.915 146.888Z" fill="#221F21"/>
<path d="M294.379 0.704689C295.072 1.05022 295.765 1.39575 296.459 1.74127C300.272 3.46891 302.005 7.61525 300.965 11.4161C299.925 15.5624 296.459 17.9811 291.952 17.9811C288.139 17.9811 284.673 14.8713 283.979 11.0705C283.286 6.57866 285.366 2.77786 289.526 1.05022C290.219 0.704689 290.566 0.704689 291.259 0.359161C292.299 0.704689 293.339 0.704689 294.379 0.704689Z" fill="#969696"/>
<path d="M285.366 34.2209C281.206 27.3103 276.006 21.0908 269.766 16.2534C265.26 12.7982 260.06 10.0339 254.514 7.96077C253.82 7.61524 253.127 7.26971 252.78 6.92418C253.474 7.26971 254.514 7.26971 255.207 7.61524C268.38 11.7616 278.779 19.0177 287.099 29.729C288.832 31.8022 288.832 32.4933 290.566 29.3835C290.912 29.038 291.259 28.3469 291.952 28.0014C291.605 28.3469 291.259 29.3835 290.912 30.0746C287.792 38.3672 282.939 45.9688 277.393 52.8794C262.487 71.8834 244.461 87.4322 223.315 99.1801C215.689 103.326 207.715 106.436 199.049 107.818C192.463 108.855 185.876 108.855 179.29 106.782C170.624 103.672 165.424 96.7615 165.077 87.7777C164.731 80.8672 166.117 74.3021 168.89 67.7371C168.544 70.5013 168.197 73.2655 167.85 76.0298C167.504 80.1761 167.85 84.668 169.584 88.4688C171.664 93.6517 175.477 97.4525 181.023 99.5257C174.437 87.4322 171.664 74.6477 173.397 60.8265C173.397 62.2087 173.397 63.5908 173.397 64.9729C173.397 66.355 173.744 67.7371 173.744 69.1192C174.783 80.5216 178.943 90.5419 185.876 99.5257C186.223 99.8712 186.57 100.217 186.916 100.562C187.61 100.908 188.303 100.562 188.65 100.908C188.303 100.562 188.303 99.8712 187.956 99.5257C180.677 90.5419 176.517 80.5216 175.13 69.4647C173.744 53.5705 177.557 39.4038 187.61 26.9648C197.663 14.5258 210.835 7.26971 226.781 5.54207C251.047 3.12337 272.193 14.8713 283.286 33.8754C283.632 34.5664 283.979 34.9119 284.326 35.603C283.632 34.9119 282.939 34.5664 282.246 33.5298C275.313 25.2372 266.993 19.3632 257.287 15.5624C249.66 12.7982 241.687 11.7616 233.368 12.1071C233.021 12.1071 232.328 12.4526 231.981 12.4526C232.328 12.7982 232.674 13.1437 233.021 13.4892C236.834 16.2534 240.301 18.6721 244.114 21.4364C245.501 22.4729 246.194 22.4729 247.927 22.1274C249.314 21.4364 251.394 21.0908 253.474 20.3998V20.7453C251.74 21.4364 250.007 22.4729 248.274 23.164C246.541 23.8551 246.887 23.8551 247.927 25.2372C251.394 29.3835 255.207 33.5298 258.673 38.0217C259.713 39.0583 260.06 39.0583 261.447 38.7128C264.913 37.3306 268.033 35.9485 271.5 34.5664C272.193 34.2209 273.233 34.2209 273.926 33.8754C270.46 36.2941 266.993 38.0217 263.18 40.0949C260.753 41.477 261.1 41.477 262.487 43.5501C262.833 44.2412 263.527 45.2778 263.873 45.9688C265.26 48.3875 266.3 50.8062 267.686 53.2249C265.26 50.4607 262.833 47.351 260.753 44.2412C259.367 42.5136 259.367 42.5136 257.633 43.5501C249.66 48.3875 242.034 53.5705 234.061 58.7534C233.714 59.0989 233.714 59.0989 233.368 59.4444C232.328 59.79 232.328 60.481 233.021 61.5176C234.061 63.2452 235.101 64.9729 236.488 66.7005C237.528 68.0826 238.221 69.4647 239.261 70.8468L238.914 71.1924C236.834 68.4282 234.408 65.3184 232.328 62.5542C231.635 61.5176 230.941 61.5176 230.248 62.2086C222.275 68.0826 214.649 74.3021 206.676 80.1761C205.636 80.8672 205.982 81.5582 206.329 82.2493C208.062 85.0135 209.795 87.4322 211.529 90.1964C211.875 90.8875 212.222 91.233 212.569 91.9241L212.222 92.2696C209.795 89.5054 207.369 86.7411 204.942 83.9769C203.902 82.5948 203.902 82.5948 202.169 83.6314C199.396 86.0501 196.276 88.8143 193.503 91.233C193.156 91.5785 192.463 91.9241 192.116 92.2696L191.769 91.9241C194.889 88.8143 198.009 85.359 201.129 82.2493C202.169 81.2127 202.169 80.8672 201.476 79.485C198.703 74.6477 195.929 69.8103 193.156 64.9729C192.463 63.5908 192.463 63.2452 191.076 64.6273C189.69 66.0095 187.956 67.3916 186.57 69.1192L186.223 68.7737C187.61 67.046 188.996 64.9729 190.383 63.2452C191.423 62.2087 191.423 61.1721 191.076 59.79C189.69 56.3347 188.996 52.5339 187.956 49.0786C187.61 48.042 187.61 46.6599 187.263 44.9323C186.57 46.3144 186.223 47.0054 185.876 47.6965C182.756 55.2981 181.37 63.2452 181.37 71.5379C181.717 81.9037 184.49 91.5785 190.036 100.562C191.076 102.29 192.116 102.981 193.849 102.635C195.583 102.29 197.663 102.29 199.396 101.944C206.329 100.908 212.915 98.1436 219.502 95.0338C231.288 89.5054 241.687 81.9037 251.74 73.6111C263.873 63.5908 274.966 52.5339 284.672 40.4404C283.979 38.7128 286.406 35.9485 285.366 34.2209ZM216.035 41.8225C215.342 42.168 214.995 42.5136 214.302 42.8591C208.062 48.042 201.822 53.5705 195.583 58.7534C194.543 59.4444 194.543 60.1355 194.889 61.5176C197.316 66.7005 200.089 71.8834 202.516 77.0664C203.209 78.1029 203.556 78.4485 204.596 77.4119C208.062 74.3021 211.875 71.5379 215.342 68.7737C219.155 65.6639 223.315 62.8997 227.475 60.1355C228.168 59.4444 228.861 59.0989 228.168 58.0623C224.355 52.8794 220.542 48.042 216.728 42.8591C216.382 42.168 216.382 42.168 216.035 41.8225ZM230.595 57.7168C231.288 57.3713 231.635 57.0257 232.328 56.6802C240.301 51.4973 248.274 46.6599 256.247 41.477C257.634 40.4404 257.98 40.4404 256.594 39.0583C252.78 34.9119 248.967 31.1111 245.154 26.9648C244.114 25.9282 243.074 25.9282 241.687 26.6193C235.101 30.4201 228.515 33.8754 221.928 37.6762C218.808 39.4038 218.808 39.7493 220.888 42.8591C221.235 43.2046 221.582 43.8957 221.928 44.2412C224.355 48.042 227.128 52.1883 229.555 55.9892C229.555 56.6802 229.901 57.0257 230.595 57.7168ZM240.994 24.2006C240.648 23.8551 240.301 23.5095 239.954 23.164C235.448 19.7087 230.595 16.2534 225.048 14.1803C224.355 13.8347 223.315 13.8347 222.622 14.1803C217.422 15.5624 212.222 17.6355 207.715 20.3998C205.982 21.4364 205.982 21.4364 207.022 22.8185C209.795 27.3103 212.915 31.8022 215.689 35.9485C216.728 37.6762 216.728 37.6762 218.808 36.2941C222.968 33.8754 227.128 31.1111 231.288 28.6924C234.061 27.3103 236.834 26.2737 239.608 24.8916C239.954 24.8916 240.648 24.5461 240.994 24.2006ZM189.343 39.7493C189.69 45.6233 191.076 51.1518 192.809 56.3347C193.156 57.3713 193.503 57.7168 194.543 56.6802C200.089 50.8062 206.329 45.6233 212.915 40.7859C213.955 40.0949 213.955 39.4038 213.262 38.3672C210.142 34.2209 207.022 30.0746 203.902 25.9282C202.516 23.8551 202.516 23.8551 200.782 25.5827C196.969 28.6924 193.849 32.1477 191.076 36.2941C189.69 36.9851 188.996 38.3672 189.343 39.7493Z" fill="#284997"/>
<path d="M158.145 106.782C158.838 109.546 159.531 112.656 160.571 115.42C164.731 127.168 174.437 134.078 186.917 134.77C196.276 135.115 204.943 133.042 213.262 129.587C230.248 123.367 245.501 113.692 259.367 102.635C281.553 85.0135 299.926 64.2818 314.138 39.7493C314.138 39.4038 314.485 39.0583 314.485 39.0583C314.485 39.0583 314.832 38.7128 315.178 38.7128C314.832 39.4038 314.832 39.7493 314.485 40.4404C310.325 48.3875 305.819 56.3347 301.659 64.2818C300.966 65.6639 300.619 66.7005 300.619 68.4282C300.272 86.3956 293.686 101.944 280.513 114.383C269.42 124.749 255.901 130.623 240.301 131.314C236.142 131.66 231.982 130.969 227.822 130.969C226.089 130.969 224.702 130.969 223.315 131.66C214.996 135.461 206.329 138.57 197.316 139.952C190.383 140.989 183.45 140.989 176.864 138.57C166.118 134.77 159.531 127.168 158.491 115.42C157.798 112.31 157.451 109.546 158.145 106.782ZM240.995 122.331C248.968 123.022 263.527 116.457 272.193 109.2C281.206 101.599 289.873 87.7777 290.219 80.5216C277.047 98.1436 260.061 111.274 240.995 122.331Z" fill="#284997"/>
<path d="M34.736 58.4079C33.696 62.5542 32.656 66.355 31.6161 70.5014C29.8828 78.4485 27.8029 86.0501 26.0696 93.9973C25.723 95.3794 25.0297 96.0704 23.6431 96.0704C21.5631 96.0704 19.4832 96.0704 17.75 96.0704C16.0167 96.0704 15.67 95.3794 14.9767 93.9973C11.1636 80.5217 7.69702 67.3916 3.88384 53.916C2.84388 50.1152 1.80392 46.6599 0.763966 42.8591C0.417313 41.1315 0.417313 41.1315 2.15058 41.1315C4.57715 41.1315 7.00372 41.1315 9.43029 41.1315C11.1636 41.1315 11.5102 41.8225 11.8569 43.2046C13.9368 52.5339 16.3633 61.5176 18.7899 70.8469C19.4832 73.2656 20.1765 76.0298 20.8698 78.4485C20.8698 78.794 21.2165 79.1396 21.5631 79.1396C21.5631 78.794 21.9098 78.4485 21.9098 78.4485C23.2964 73.2656 24.3364 67.7371 25.723 62.5542C27.4562 55.9892 28.8429 49.7697 30.5761 43.2046C30.9228 41.477 31.6161 41.1315 33.3493 41.1315C34.736 41.1315 36.1226 41.1315 37.8558 41.1315C39.2424 41.1315 39.9357 41.8225 40.2824 43.2046C42.3623 52.5339 44.7889 62.2087 46.8688 71.5379C47.5621 74.3022 48.2554 77.0664 49.2954 79.4851C49.642 78.794 49.642 78.103 49.9887 77.0664C52.7619 65.664 55.5351 54.6071 58.655 43.2046C59.3483 40.7859 59.3483 40.7859 61.4282 40.7859C63.5081 40.7859 65.9347 40.7859 68.0146 40.7859C70.4412 40.7859 70.4412 40.7859 69.7479 43.2046C67.668 50.4607 65.5881 57.3713 63.5081 64.6274C60.7349 74.3022 57.9617 83.6314 55.1885 93.3062C54.4952 96.4159 54.4952 95.7249 52.0686 95.7249C50.682 95.7249 48.9487 95.7249 47.5621 95.7249C44.7889 95.7249 44.7889 95.7249 44.4422 93.3062C42.3623 84.3225 40.2824 75.3387 38.2025 66.355C37.5092 63.5908 36.8159 60.8266 36.1226 58.0623C35.0826 58.4079 34.736 58.4079 34.736 58.4079Z" fill="#284997"/>
<path d="M352.617 66.355C357.47 66.355 362.323 66.355 367.176 66.355C369.256 66.355 369.256 66.355 369.256 68.4281C368.909 82.2492 359.55 94.3427 345.337 96.4159C324.538 99.1801 311.712 82.9403 311.712 68.0826C311.712 51.4973 325.231 40.4404 338.057 39.7493C347.07 39.0583 354.697 41.477 361.283 47.6965C363.71 49.7696 365.443 52.5338 366.483 55.2981C367.176 56.6802 366.83 56.6802 365.443 56.6802C361.976 56.6802 358.857 56.6802 355.39 56.6802C354.35 56.6802 353.657 56.3347 353.31 55.6436C348.804 50.1152 343.257 48.733 336.671 50.1152C329.738 51.8428 325.578 56.3347 323.845 63.2452C322.111 70.5013 323.845 76.7208 329.044 82.2492C335.284 89.1598 350.537 89.5053 356.43 77.7574C357.123 76.0297 357.123 76.0297 355.39 76.0297C349.844 76.0297 344.297 76.0297 339.097 76.0297C336.671 76.0297 336.671 76.0297 336.671 73.611C336.671 72.2289 336.671 70.8468 336.671 69.4647C336.671 66.7005 336.671 66.7005 339.791 66.7005C343.604 66.355 348.11 66.355 352.617 66.355Z" fill="#284997"/>
<path d="M113.426 66.355C118.279 66.355 123.132 66.355 128.332 66.355C130.065 66.355 130.412 66.355 130.065 68.4282C129.372 78.4485 125.559 87.0867 116.893 92.6151C107.533 98.4891 97.8267 98.8346 88.1204 93.9972C78.4141 89.1598 73.2143 81.2127 72.521 70.1558C71.8277 55.2981 80.8407 43.2046 95.7468 40.4404C107.186 38.3672 117.239 41.477 124.519 51.1518C125.559 52.1883 126.252 53.5704 126.946 54.9526C127.639 56.6802 127.639 57.0257 125.906 57.0257C122.786 57.0257 119.666 57.0257 116.546 57.0257C115.506 57.0257 114.813 56.6802 114.119 55.9891C109.266 49.7696 100.947 49.0786 95.0535 51.1518C88.4671 53.5704 83.9606 60.1355 83.6139 67.3916C83.2673 73.6111 85.6938 78.794 90.2003 82.9403C96.4401 88.8143 110.999 89.1598 116.546 77.4119C117.239 76.0298 117.239 75.6842 115.506 75.6842C109.96 75.6842 104.76 75.6842 99.2133 75.6842C96.4401 75.6842 96.4401 75.6842 96.4401 72.92C96.4401 71.5379 96.4401 69.8103 96.4401 68.4282C96.4401 66.355 96.4401 66.355 98.52 66.355C103.72 66.355 108.573 66.355 113.426 66.355Z" fill="#284997"/>
<path d="M478.451 68.4282C478.798 84.3225 465.279 97.107 449.679 97.107C434.427 97.107 420.907 83.9769 420.907 68.0827C420.907 53.916 433.04 39.7494 450.026 39.7494C466.665 39.7494 479.145 53.5705 478.451 68.4282ZM467.359 68.4282C467.359 67.3916 467.359 66.7005 467.359 65.664C466.319 59.0989 463.199 53.916 456.959 51.1518C451.066 48.3876 445.173 49.0786 439.973 52.8794C431.653 59.0989 429.92 70.8469 435.813 79.1395C443.786 90.1964 459.732 88.8143 465.625 76.3753C466.665 74.3022 467.359 71.5379 467.359 68.4282Z" fill="#284997"/>
<path d="M387.628 74.3021C387.628 80.1761 387.628 86.0501 387.628 91.9241C387.628 92.2696 387.628 92.9606 387.628 93.3062C387.628 95.7249 387.628 95.7249 385.548 95.7249C383.122 95.7249 380.695 95.7249 378.269 95.7249C377.229 95.7249 376.882 95.3793 376.882 94.3428C376.882 93.9972 376.882 93.3062 376.882 92.9606C376.882 76.7208 376.882 60.1355 376.882 43.8957C376.882 43.5501 376.882 43.2046 376.882 42.8591C376.882 41.477 377.229 40.7859 378.615 41.1314C380.002 41.1314 381.389 41.1314 383.122 41.1314C387.975 41.1314 392.482 41.1314 397.335 41.1314C402.188 41.1314 406.694 42.5136 410.508 45.9688C415.707 50.8062 417.094 57.3713 415.361 63.9363C413.974 70.1558 409.814 74.3021 403.228 76.0298C401.495 76.3753 401.495 76.3753 402.534 77.7574C406.694 83.2859 410.854 88.8143 415.014 94.3428C415.361 94.6883 415.707 95.3793 416.054 96.0704C415.361 96.0704 414.667 96.4159 413.974 96.4159C411.201 96.4159 408.428 96.4159 405.654 96.4159C404.268 96.4159 403.228 96.0704 402.534 94.6883C398.375 88.4688 394.215 82.5948 390.055 76.3753C389.708 75.6842 389.015 74.9932 388.668 74.6477C387.975 74.3021 387.975 74.3021 387.628 74.3021ZM387.628 59.4444C387.628 61.8631 387.628 63.9363 387.628 66.355C387.628 67.046 387.628 68.0826 388.668 68.0826C392.828 68.0826 396.988 68.4282 400.801 67.046C402.534 66.355 403.574 65.3184 404.268 63.9363C406.694 58.4078 403.921 52.5339 398.028 51.4973C395.255 51.1518 392.135 51.1518 389.015 51.1518C387.975 51.1518 387.628 51.4973 387.628 52.5339C387.628 54.607 387.628 57.0257 387.628 59.4444Z" fill="#284997"/>
<path d="M513.81 60.481C513.81 54.9526 513.81 49.0786 513.81 43.5502C513.81 41.477 513.81 41.1315 516.237 41.1315C518.317 41.1315 520.743 41.1315 522.823 41.1315C524.903 41.1315 524.903 41.1315 524.903 43.2046C524.903 50.8063 524.903 58.7534 524.903 66.355C524.903 71.1924 524.903 76.0298 524.556 80.8672C523.517 90.8875 516.237 97.107 506.184 97.107C495.438 97.4525 489.198 90.8875 487.465 84.3225C486.771 81.9038 486.425 79.4851 486.425 77.0664C486.425 66.0095 486.425 54.6071 486.425 43.5502C486.425 41.1315 486.425 41.1315 488.851 41.1315C490.931 41.1315 493.011 41.1315 494.744 41.1315C497.171 41.1315 497.171 41.1315 497.171 43.5502C497.171 48.3876 497.171 53.5705 497.171 58.4079C497.171 64.2818 497.171 70.1558 497.171 76.0298C497.171 78.103 497.518 80.1761 498.211 82.2493C499.598 85.7046 502.371 87.4322 506.877 87.0867C510.69 86.7412 512.77 85.0135 513.81 81.5582C514.157 80.1761 514.504 78.4485 514.504 76.7208C513.81 71.1924 513.81 65.664 513.81 60.481Z" fill="#284997"/>
<path d="M534.263 68.4282C534.263 60.1355 534.263 51.8428 534.263 43.5502C534.263 41.1315 534.263 41.1315 536.689 41.1315C542.929 41.1315 549.169 41.1315 555.409 41.1315C557.835 41.1315 559.915 41.8225 562.342 42.5136C567.195 44.2412 570.315 47.6965 571.355 52.5339C572.048 55.9892 572.048 59.4445 571.355 62.8997C569.968 69.8103 564.768 74.6477 557.142 75.6843C554.022 76.0298 550.556 76.0298 547.436 76.3753C545.356 76.3753 545.356 76.3753 545.356 78.4485C545.356 83.6314 545.356 88.8143 545.356 93.9972C545.356 96.0704 545.356 96.0704 543.276 96.0704C540.849 96.0704 538.769 96.0704 536.343 96.0704C534.956 96.0704 534.61 95.7249 534.61 94.3428C534.61 91.9241 534.61 89.5054 534.61 87.0867C534.263 80.8672 534.263 74.6477 534.263 68.4282ZM545.009 58.4079C545.009 60.481 545.009 62.5542 545.009 64.6274C545.009 65.664 545.356 66.355 546.396 66.355C549.516 66.0095 552.635 66.355 555.409 65.664C559.222 64.9729 560.955 62.2087 560.955 58.4079C560.955 54.6071 558.875 51.8428 555.062 51.1518C552.289 50.8063 549.169 50.8063 546.049 50.4607C545.009 50.4607 544.662 51.1518 544.662 51.8428C545.356 54.2615 545.356 56.3347 545.009 58.4079Z" fill="#284997"/>
<path d="M291.953 52.5339C291.953 52.5339 290.219 54.6071 289.179 55.9892C274.273 78.4485 255.554 97.107 232.328 111.274C222.622 116.802 212.916 121.639 201.823 123.713C195.583 125.095 188.997 125.44 182.757 124.058C175.477 122.331 170.277 118.53 166.464 112.31C162.998 106.436 161.611 100.217 161.611 93.3062C161.958 93.9973 161.958 95.0339 162.304 95.7249C163.344 99.5257 164.731 103.327 166.811 106.782C171.664 114.729 178.944 118.875 188.303 119.221C195.236 119.566 201.823 117.839 208.063 115.766C220.195 111.619 231.288 105.054 241.688 97.7981C259.714 85.7046 274.967 70.5014 288.486 53.916C288.833 53.225 290.566 51.4973 290.566 51.4973" fill="#284997"/>
<path d="M142.891 73.6111C142.891 67.0461 142.891 60.1355 142.891 53.5705C142.891 51.1518 142.891 51.1518 140.465 51.1518C138.385 51.1518 135.958 51.1518 133.878 51.1518C132.839 51.1518 132.145 50.8063 132.145 49.4241C132.145 47.351 132.145 44.9323 132.145 42.8591C132.145 41.477 132.839 41.1315 133.878 41.1315C135.612 41.1315 137.692 41.1315 139.425 41.1315C147.051 41.1315 155.024 41.1315 162.651 41.1315C165.077 41.1315 165.077 41.1315 165.077 43.5502C165.077 45.2778 165.077 47.351 165.077 49.0786C165.077 50.4607 164.731 50.8063 163.344 50.8063C161.264 50.8063 159.184 50.8063 157.104 50.8063C154.331 50.8063 154.331 50.8063 154.331 53.5705C154.331 64.2818 154.331 75.3387 154.331 86.0501C154.331 88.8143 154.331 91.233 154.331 93.9972C154.331 96.0704 154.331 96.0704 152.251 96.0704C150.171 96.0704 147.745 96.0704 145.665 96.0704C143.238 96.0704 143.238 96.0704 143.238 93.6517C143.238 90.1964 143.238 87.0867 143.238 83.6314C142.891 80.1761 142.891 76.7209 142.891 73.6111Z" fill="#284997"/>
<path d="M332.857 39.7493C329.737 39.7493 327.311 38.0217 325.578 35.2575C325.231 34.5664 325.231 33.8754 325.924 33.1843C328.351 31.8022 329.044 28.3469 328.004 25.9282C327.311 24.8916 328.351 24.8916 328.698 24.5461C331.817 22.8185 335.631 23.164 338.057 25.5827C340.83 27.6559 341.524 31.4567 340.484 34.9119C339.097 37.6762 336.324 39.7493 332.857 39.7493Z" fill="#969696"/>
<path d="M316.565 24.2006C316.565 28.6924 313.098 31.8022 308.938 31.8022C304.779 31.8022 301.312 28.3469 301.312 24.2006C301.312 22.8185 301.659 22.8185 302.699 23.164C304.432 24.2006 306.165 23.8551 307.552 22.4729C308.938 21.0908 308.938 19.3632 308.245 17.6356C307.552 15.9079 307.552 15.9079 309.285 15.9079C313.098 16.599 316.565 20.0542 316.565 24.2006Z" fill="#FF0008"/>
<path d="M308.592 11.4161C307.205 7.96079 308.592 4.15999 311.711 2.77788C315.178 1.39576 318.991 2.77788 320.724 6.23316C322.458 10.034 320.724 13.4892 316.911 15.2169C317.951 11.7616 317.258 9.68843 314.831 8.65185C312.405 7.26974 310.671 7.96079 308.592 11.4161Z" fill="#969696"/>
<path d="M305.472 32.8388C305.125 33.1843 305.125 33.1843 304.779 33.5298C304.085 34.5664 303.045 35.9485 302.352 36.9851C301.312 38.3672 300.965 39.7493 301.312 41.1314C301.659 42.5135 300.965 43.2046 299.579 42.5135C298.192 41.8225 297.152 41.1314 296.112 40.4404C295.419 39.7493 295.419 39.0583 296.459 38.7127C299.579 38.0217 300.619 34.9119 302.005 32.8388C303.045 31.4567 302.699 31.4567 304.432 32.1477C304.779 32.1477 305.125 32.4932 305.472 32.8388Z" fill="#969696"/>
<path d="M307.205 20.0543C307.205 21.4364 306.165 22.8185 304.779 23.164C303.392 23.5095 301.659 22.8185 301.312 21.0908C300.966 19.7087 300.619 18.6721 299.579 17.9811C298.886 17.29 299.232 16.9445 299.926 16.2534C300.272 15.9079 300.966 15.2169 301.312 15.9079C302.352 16.9445 303.392 16.9445 304.779 17.29C306.165 17.29 307.205 18.3266 307.205 20.0543Z" fill="#969696"/>
<path d="M327.311 28.3469C327.311 28.6924 327.311 29.3835 326.964 29.729C326.618 30.4201 325.925 31.4567 325.578 32.1477C324.885 31.4567 324.191 31.1111 323.845 30.4201C323.151 30.0745 322.458 29.3835 321.765 29.3835C320.725 29.038 319.338 28.6924 318.298 28.3469C316.912 28.0014 317.258 27.3103 317.605 26.2737C317.951 24.8916 318.645 25.9282 319.338 25.9282C320.031 26.2737 320.725 26.2737 321.765 26.6193C323.151 27.3103 324.538 27.3103 326.271 26.9648C326.964 26.6193 327.311 26.9648 327.311 28.3469Z" fill="#969696"/>
<path d="M309.978 12.4527C309.978 10.725 311.018 9.68843 312.405 9.3429C313.445 8.99738 315.178 9.68843 315.871 10.725C316.565 11.7616 316.565 13.4892 315.525 14.1803C314.832 14.8714 314.138 15.9079 313.098 16.2535C312.752 16.599 311.365 16.2535 311.018 15.5624C310.325 14.5258 310.325 13.1437 309.978 12.4527Z" fill="#969696"/>
<path d="M293.686 53.916C299.232 54.9526 304.085 49.7696 303.045 44.2412C303.045 43.8957 302.352 43.5501 302.352 43.5501C299.232 44.9323 297.499 42.5136 295.419 40.7859C295.072 40.4404 294.726 39.7493 294.726 39.4038C294.379 37.6762 294.379 37.3306 292.646 38.0217C287.446 39.7493 285.366 45.9688 288.833 50.4607C288.833 51.1518 290.566 53.2249 293.686 53.916Z" fill="#969696"/>
</svg>
