<svg width="202" height="50" viewBox="0 0 202 50" fill="none" xmlns="http://www.w3.org/2000/svg">
<path d="M103.364 0.405067C103.608 0.526824 103.852 0.648581 104.096 0.770338C105.436 1.37912 106.046 2.84021 105.68 4.17954C105.315 5.64062 104.096 6.49292 102.511 6.49292C101.17 6.49292 99.9514 5.39711 99.7076 4.05778C99.4638 2.47494 100.195 1.13561 101.658 0.526824C101.902 0.405067 102.024 0.405067 102.267 0.28331C102.633 0.405067 102.999 0.405067 103.364 0.405067Z" fill="#969696"/>
<path d="M100.195 12.2155C98.7324 9.78036 96.9041 7.58873 94.71 5.88413C93.1254 4.66656 91.297 3.6925 89.3468 2.96196C89.103 2.84021 88.8592 2.71845 88.7373 2.59669C88.9811 2.71845 89.3467 2.71845 89.5905 2.84021C94.2224 4.30129 97.8792 6.85819 100.805 10.6327C101.414 11.3632 101.414 11.6067 102.024 10.5109C102.145 10.3891 102.267 10.1456 102.511 10.0239C102.389 10.1456 102.267 10.5109 102.145 10.7544C101.048 13.6766 99.3419 16.3552 97.3916 18.7904C92.1503 25.487 85.8119 30.9661 78.3765 35.1058C75.6948 36.5669 72.8913 37.6627 69.844 38.1498C67.5281 38.515 65.2121 38.515 62.8962 37.7845C59.8489 36.6887 58.0205 34.2535 57.8986 31.0879C57.7767 28.6527 58.2643 26.3393 59.2394 24.0259C59.1175 25 58.9956 25.9741 58.8737 26.9481C58.7518 28.4092 58.8737 29.992 59.4832 31.3314C60.2145 33.1577 61.5554 34.4971 63.5056 35.2276C61.1897 30.9661 60.2145 26.4611 60.824 21.5908C60.824 22.0778 60.824 22.5649 60.824 23.0519C60.824 23.5389 60.9459 24.0259 60.9459 24.513C61.3116 28.531 62.7743 32.0619 65.2121 35.2276C65.334 35.3493 65.4559 35.4711 65.5778 35.5929C65.8216 35.7146 66.0654 35.5929 66.1873 35.7146C66.0654 35.5929 66.0654 35.3493 65.9435 35.2276C63.3837 32.0619 61.921 28.531 61.4335 24.6347C60.9459 19.0339 62.2867 14.0419 65.8216 9.6586C69.3564 5.27535 73.9884 2.71845 79.5954 2.10966C88.1278 1.25736 95.5632 5.3971 99.4638 12.0937C99.5857 12.3373 99.7076 12.459 99.8295 12.7025C99.5857 12.459 99.3419 12.3373 99.0981 11.972C96.6603 9.04982 93.7349 6.97995 90.3219 5.64062C87.6403 4.66656 84.8367 4.30129 81.9113 4.42305C81.7894 4.42305 81.5457 4.5448 81.4238 4.5448C81.5457 4.66656 81.6675 4.78832 81.7894 4.91008C83.1303 5.88413 84.3492 6.73643 85.69 7.71049C86.1776 8.07576 86.4213 8.07576 87.0308 7.954C87.5184 7.71049 88.2497 7.58873 88.9811 7.34522V7.46698C88.3716 7.71049 87.7622 8.07576 87.1527 8.31927C86.5432 8.56279 86.6651 8.56279 87.0308 9.04982C88.2497 10.5109 89.5905 11.972 90.8095 13.5548C91.1751 13.9201 91.297 13.9201 91.7846 13.7983C93.0035 13.3113 94.1005 12.8243 95.3195 12.3373C95.5632 12.2155 95.9289 12.2155 96.1727 12.0937C94.9538 12.946 93.7349 13.5548 92.3941 14.2854C91.5408 14.7724 91.6627 14.7724 92.1503 15.5029C92.2722 15.7465 92.5159 16.1117 92.6378 16.3552C93.1254 17.2075 93.4911 18.0598 93.9786 18.9121C93.1254 17.9381 92.2722 16.8423 91.5408 15.7465C91.0532 15.1377 91.0532 15.1377 90.4438 15.5029C87.6403 17.2075 84.9586 19.0339 82.1551 20.8603C82.0332 20.982 82.0332 20.982 81.9113 21.1038C81.5457 21.2255 81.5457 21.469 81.7894 21.8343C82.1551 22.4431 82.5208 23.0519 83.0084 23.6607C83.374 24.1477 83.6178 24.6347 83.9835 25.1218L83.8616 25.2435C83.1303 24.2695 82.277 23.1736 81.5457 22.1996C81.3019 21.8343 81.0581 21.8343 80.8143 22.0778C78.0108 24.1477 75.3292 26.3393 72.5256 28.4092C72.16 28.6527 72.2819 28.8962 72.4038 29.1397C73.0132 30.1138 73.6227 30.9661 74.2321 31.9402C74.354 32.1837 74.4759 32.3054 74.5978 32.5489L74.4759 32.6707C73.6227 31.6966 72.7694 30.7226 71.9162 29.7485C71.5505 29.2615 71.5505 29.2615 70.941 29.6268C69.9659 30.4791 68.8689 31.4531 67.8937 32.3054C67.7719 32.4272 67.5281 32.5489 67.4062 32.6707L67.2843 32.5489C68.3813 31.4531 69.4783 30.2356 70.5754 29.1397C70.941 28.7745 70.941 28.6527 70.6973 28.1657C69.7221 26.4611 68.747 24.7565 67.7719 23.0519C67.5281 22.5649 67.5281 22.4431 67.0405 22.9301C66.5529 23.4172 65.9435 23.9042 65.4559 24.513L65.334 24.3912C65.8216 23.7824 66.3091 23.0519 66.7967 22.4431C67.1624 22.0778 67.1624 21.7126 67.0405 21.2255C66.5529 20.008 66.3091 18.6686 65.9435 17.4511C65.8216 17.0858 65.8216 16.5988 65.6997 15.99C65.4559 16.477 65.334 16.7205 65.2121 16.964C64.1151 19.6427 63.6275 22.4431 63.6275 25.3653C63.7494 29.018 64.7246 32.4272 66.6748 35.5929C67.0405 36.2016 67.4062 36.4452 68.0156 36.3234C68.6251 36.2016 69.3565 36.2016 69.9659 36.0799C72.4038 35.7146 74.7197 34.7406 77.0357 33.6448C81.18 31.6966 84.8367 29.018 88.3716 26.0958C92.6378 22.5649 96.5384 18.6686 99.9514 14.4071C99.7076 13.7983 100.561 12.8243 100.195 12.2155ZM75.8167 14.8942C75.5729 15.0159 75.4511 15.1377 75.2073 15.2594C73.0132 17.0858 70.8192 19.0339 68.6251 20.8603C68.2594 21.1038 68.2594 21.3473 68.3813 21.8343C69.2346 23.6607 70.2097 25.487 71.0629 27.3134C71.3067 27.6787 71.4286 27.8004 71.7943 27.4351C73.0132 26.3393 74.354 25.3653 75.5729 24.3912C76.9138 23.2954 78.3765 22.3213 79.8392 21.3473C80.083 21.1038 80.3267 20.982 80.0829 20.6167C78.7421 18.7904 77.4013 17.0858 76.0605 15.2594C75.9386 15.0159 75.9386 15.0159 75.8167 14.8942ZM80.9362 20.495C81.18 20.3732 81.3019 20.2515 81.5457 20.1297C84.3492 18.3034 87.1527 16.5988 89.9562 14.7724C90.4438 14.4071 90.5657 14.4071 90.0781 13.9201C88.7373 12.459 87.3965 11.1197 86.0557 9.6586C85.69 9.29333 85.3243 9.29333 84.8367 9.53685C82.5208 10.8762 80.2048 12.0937 77.8889 13.4331C76.7919 14.0419 76.7919 14.1636 77.5232 15.2594C77.6451 15.3812 77.767 15.6247 77.8889 15.7465C78.7421 17.0858 79.7173 18.5469 80.5705 19.8862C80.5705 20.1297 80.6924 20.2515 80.9362 20.495ZM84.593 8.68455C84.4711 8.56279 84.3492 8.44103 84.2273 8.31927C82.6427 7.1017 80.9362 5.88413 78.9859 5.15359C78.7421 5.03183 78.3765 5.03183 78.1327 5.15359C76.3043 5.64062 74.4759 6.37116 72.8913 7.34522C72.2819 7.71049 72.2819 7.71049 72.6475 8.19752C73.6227 9.78036 74.7197 11.3632 75.6948 12.8243C76.0605 13.4331 76.0605 13.4331 76.7919 12.946C78.2546 12.0937 79.7173 11.1197 81.18 10.2674C82.1551 9.78036 83.1303 9.41509 84.1054 8.92806C84.2273 8.92806 84.4711 8.8063 84.593 8.68455ZM66.431 14.1636C66.5529 16.2335 67.0405 18.1816 67.65 20.008C67.7719 20.3732 67.8937 20.495 68.2594 20.1297C70.2097 18.0598 72.4037 16.2335 74.7197 14.5289C75.0854 14.2854 75.0854 14.0419 74.8416 13.6766C73.7446 12.2155 72.6475 10.7544 71.5505 9.29333C71.0629 8.56279 71.0629 8.56279 70.4535 9.17157C69.1127 10.2674 68.0156 11.485 67.0405 12.946C66.5529 13.1896 66.3091 13.6766 66.431 14.1636Z" fill="#284997"/>
<path d="M55.4609 37.7845C55.7047 38.7586 55.9485 39.8544 56.3141 40.8284C57.7768 44.9682 61.1898 47.4033 65.5779 47.6468C68.869 47.7686 71.9163 47.038 74.8417 45.8205C80.8144 43.6288 86.1777 40.2196 91.0534 36.3234C98.8545 30.1138 105.315 22.8084 110.312 14.1636C110.312 14.0419 110.434 13.9201 110.434 13.9201C110.434 13.9201 110.556 13.7983 110.678 13.7983C110.556 14.0419 110.556 14.1636 110.434 14.4071C108.971 17.2075 107.387 20.008 105.924 22.8084C105.68 23.2954 105.559 23.6607 105.559 24.2695C105.437 30.6008 103.121 36.0799 98.4888 40.4632C94.5882 44.1159 89.8344 46.1857 84.3493 46.4293C82.8866 46.551 81.4239 46.3075 79.9612 46.3075C79.3517 46.3075 78.8642 46.3075 78.3766 46.551C75.4512 47.8903 72.4039 48.9862 69.2347 49.4732C66.7968 49.8385 64.359 49.8385 62.0431 48.9862C58.2644 47.6468 55.9485 44.9682 55.5828 40.8284C55.339 39.7326 55.2171 38.7586 55.4609 37.7845ZM84.5931 43.2636C87.3966 43.5071 92.5161 41.1937 95.5634 38.6368C98.7326 35.9581 101.78 31.0879 101.902 28.531C97.2699 34.7406 91.2972 39.3673 84.5931 43.2636Z" fill="#284997"/>
<path d="M12.0672 20.7385C11.7015 22.1996 11.3359 23.5389 10.9702 25C10.3607 27.8004 9.62938 30.4791 9.01992 33.2795C8.89803 33.7665 8.65424 34.01 8.16668 34.01C7.43532 34.01 6.70397 34.01 6.09451 34.01C5.48505 34.01 5.36316 33.7665 5.11937 33.2795C3.77856 28.531 2.55964 23.9042 1.21883 19.1557C0.853152 17.8163 0.487475 16.5988 0.121799 15.2594C-9.28193e-05 14.6507 -9.28305e-05 14.6507 0.609368 14.6507C1.46261 14.6507 2.31586 14.6507 3.1691 14.6507C3.77856 14.6507 3.90045 14.8942 4.02235 15.3812C4.7537 18.6686 5.60694 21.8343 6.46019 25.1218C6.70397 25.9741 6.94776 26.9481 7.19154 27.8004C7.19154 27.9222 7.31343 28.0439 7.43532 28.0439C7.43532 27.9222 7.55722 27.8004 7.55722 27.8004C8.04478 25.9741 8.41046 24.026 8.89803 22.1996C9.50749 19.8862 9.99506 17.6946 10.6045 15.3812C10.7264 14.7724 10.9702 14.6507 11.5797 14.6507C12.0672 14.6507 12.5548 14.6507 13.1643 14.6507C13.6518 14.6507 13.8956 14.8942 14.0175 15.3812C14.7488 18.6686 15.6021 22.0778 16.3334 25.3653C16.5772 26.3393 16.821 27.3134 17.1867 28.1657C17.3086 27.9222 17.3086 27.6787 17.4305 27.3134C18.4056 23.2954 19.3807 19.3992 20.4778 15.3812C20.7216 14.5289 20.7216 14.5289 21.4529 14.5289C22.1843 14.5289 23.0375 14.5289 23.7689 14.5289C24.6221 14.5289 24.6221 14.5289 24.3783 15.3812C23.647 17.9381 22.9156 20.3732 22.1843 22.9301C21.2091 26.3393 20.234 29.6268 19.2589 33.036C19.0151 34.1318 19.0151 33.8883 18.1618 33.8883C17.6743 33.8883 17.0648 33.8883 16.5772 33.8883C15.6021 33.8883 15.6021 33.8883 15.4802 33.036C14.7488 29.8703 14.0175 26.7046 13.2861 23.5389C13.0424 22.5649 12.7986 21.5908 12.5548 20.6168C12.1891 20.7385 12.0672 20.7385 12.0672 20.7385Z" fill="#284997"/>
<path d="M123.842 23.5389C125.549 23.5389 127.255 23.5389 128.962 23.5389C129.693 23.5389 129.693 23.5389 129.693 24.2694C129.571 29.1397 126.28 33.4012 121.283 34.1318C113.969 35.1058 109.459 29.3832 109.459 24.1477C109.459 18.3034 114.213 14.4071 118.723 14.1636C121.892 13.9201 124.574 14.7724 126.89 16.964C127.743 17.6946 128.352 18.6686 128.718 19.6427C128.962 20.1297 128.84 20.1297 128.352 20.1297C127.133 20.1297 126.036 20.1297 124.817 20.1297C124.452 20.1297 124.208 20.0079 124.086 19.7644C122.501 17.8163 120.551 17.3293 118.235 17.8163C115.797 18.4251 114.335 20.008 113.725 22.4431C113.116 25 113.725 27.1916 115.554 29.1397C117.748 31.5749 123.111 31.6966 125.183 27.5569C125.427 26.9481 125.427 26.9481 124.817 26.9481C122.867 26.9481 120.917 26.9481 119.089 26.9481C118.235 26.9481 118.235 26.9481 118.235 26.0958C118.235 25.6088 118.235 25.1217 118.235 24.6347C118.235 23.6607 118.235 23.6607 119.332 23.6607C120.673 23.5389 122.258 23.5389 123.842 23.5389Z" fill="#284997"/>
<path d="M39.7367 23.5389C41.4432 23.5389 43.1497 23.5389 44.9781 23.5389C45.5875 23.5389 45.7094 23.5389 45.5875 24.2695C45.3438 27.8004 44.0029 30.8443 40.9556 32.7924C37.6646 34.8623 34.2516 34.9841 30.8386 33.2795C27.4256 31.5749 25.5972 28.7745 25.3535 24.8782C25.1097 19.6427 28.2789 15.3812 33.5202 14.4071C37.5427 13.6766 41.0775 14.7724 43.6373 18.1816C44.0029 18.5469 44.2467 19.0339 44.4905 19.5209C44.7343 20.1297 44.7343 20.2515 44.1248 20.2515C43.0278 20.2515 41.9308 20.2515 40.8337 20.2515C40.4681 20.2515 40.2243 20.1297 39.9805 19.8862C38.274 17.6946 35.3486 17.4511 33.2764 18.1816C30.9605 19.0339 29.3759 21.3473 29.254 23.9042C29.1321 26.0958 29.9854 27.9222 31.57 29.3832C33.764 31.4531 38.8835 31.5749 40.8337 27.4351C41.0775 26.9481 41.0775 26.8264 40.4681 26.8264C38.5178 26.8264 36.6894 26.8264 34.7391 26.8264C33.764 26.8264 33.764 26.8264 33.764 25.8523C33.764 25.3653 33.764 24.7565 33.764 24.2695C33.764 23.5389 33.764 23.5389 34.4954 23.5389C36.3237 23.5389 38.0302 23.5389 39.7367 23.5389Z" fill="#284997"/>
<path d="M168.089 24.2695C168.211 29.8703 163.457 34.3753 157.972 34.3753C152.609 34.3753 147.855 29.7485 147.855 24.1477C147.855 19.1557 152.121 14.1636 158.094 14.1636C163.945 14.1636 168.333 19.0339 168.089 24.2695ZM164.188 24.2695C164.188 23.9042 164.188 23.6607 164.188 23.2954C163.823 20.982 162.726 19.1557 160.532 18.1816C158.46 17.2075 156.387 17.4511 154.559 18.7904C151.634 20.982 151.024 25.1218 153.096 28.0439C155.9 31.9402 161.507 31.4531 163.579 27.0699C163.945 26.3393 164.188 25.3653 164.188 24.2695Z" fill="#284997"/>
<path d="M136.153 26.3393C136.153 28.4092 136.153 30.4791 136.153 32.5489C136.153 32.6707 136.153 32.9142 136.153 33.036C136.153 33.8883 136.153 33.8883 135.422 33.8883C134.569 33.8883 133.715 33.8883 132.862 33.8883C132.497 33.8883 132.375 33.7665 132.375 33.4012C132.375 33.2795 132.375 33.036 132.375 32.9142C132.375 27.1916 132.375 21.3473 132.375 15.6247C132.375 15.5029 132.375 15.3812 132.375 15.2594C132.375 14.7724 132.497 14.5289 132.984 14.6506C133.472 14.6506 133.959 14.6506 134.569 14.6506C136.275 14.6506 137.86 14.6506 139.566 14.6506C141.273 14.6506 142.857 15.1377 144.198 16.3552C146.027 18.0598 146.514 20.3732 145.905 22.6866C145.417 24.8782 143.954 26.3393 141.638 26.9481C141.029 27.0699 141.029 27.0699 141.395 27.5569C142.857 29.505 144.32 31.4531 145.783 33.4012C145.905 33.523 146.027 33.7665 146.148 34.01C145.905 34.01 145.661 34.1318 145.417 34.1318C144.442 34.1318 143.467 34.1318 142.492 34.1318C142.004 34.1318 141.638 34.01 141.395 33.523C139.932 31.3314 138.469 29.2615 137.007 27.0699C136.885 26.8264 136.641 26.5828 136.519 26.4611C136.275 26.3393 136.275 26.3393 136.153 26.3393ZM136.153 21.1038C136.153 21.9561 136.153 22.6866 136.153 23.5389C136.153 23.7824 136.153 24.1477 136.519 24.1477C137.982 24.1477 139.444 24.2695 140.785 23.7824C141.395 23.5389 141.76 23.1736 142.004 22.6866C142.857 20.7385 141.882 18.6686 139.81 18.3034C138.835 18.1816 137.738 18.1816 136.641 18.1816C136.275 18.1816 136.153 18.3034 136.153 18.6686C136.153 19.3992 136.153 20.2515 136.153 21.1038Z" fill="#284997"/>
<path d="M180.522 21.469C180.522 19.5209 180.522 17.4511 180.522 15.5029C180.522 14.7724 180.522 14.6507 181.375 14.6507C182.107 14.6507 182.96 14.6507 183.691 14.6507C184.423 14.6507 184.423 14.6507 184.423 15.3812C184.423 18.0598 184.423 20.8603 184.423 23.5389C184.423 25.2435 184.423 26.9481 184.301 28.6527C183.935 32.1837 181.375 34.3753 177.84 34.3753C174.062 34.4971 171.868 32.1837 171.258 29.8703C171.014 29.018 170.893 28.1657 170.893 27.3134C170.893 23.4172 170.893 19.3992 170.893 15.5029C170.893 14.6506 170.893 14.6507 171.746 14.6507C172.477 14.6507 173.209 14.6507 173.818 14.6507C174.671 14.6507 174.671 14.6506 174.671 15.5029C174.671 17.2075 174.671 19.0339 174.671 20.7385C174.671 22.8084 174.671 24.8782 174.671 26.9481C174.671 27.6787 174.793 28.4092 175.037 29.1397C175.524 30.3573 176.5 30.9661 178.084 30.8443C179.425 30.7226 180.156 30.1138 180.522 28.8962C180.644 28.4092 180.766 27.8004 180.766 27.1916C180.522 25.2435 180.522 23.2954 180.522 21.469Z" fill="#284997"/>
<path d="M187.714 24.2695C187.714 21.3473 187.714 18.4251 187.714 15.5029C187.714 14.6506 187.714 14.6507 188.567 14.6507C190.761 14.6507 192.955 14.6507 195.149 14.6507C196.002 14.6507 196.734 14.8942 197.587 15.1377C199.293 15.7465 200.391 16.964 200.756 18.6686C201 19.8862 201 21.1038 200.756 22.3213C200.269 24.7565 198.44 26.4611 195.759 26.8264C194.662 26.9481 193.443 26.9481 192.346 27.0699C191.614 27.0699 191.614 27.0699 191.614 27.8004C191.614 29.6268 191.614 31.4531 191.614 33.2795C191.614 34.01 191.614 34.01 190.883 34.01C190.03 34.01 189.298 34.01 188.445 34.01C187.958 34.01 187.836 33.8883 187.836 33.4012C187.836 32.5489 187.836 31.6966 187.836 30.8443C187.714 28.6527 187.714 26.4611 187.714 24.2695ZM191.492 20.7385C191.492 21.469 191.492 22.1996 191.492 22.9301C191.492 23.2954 191.614 23.5389 191.98 23.5389C193.077 23.4172 194.174 23.5389 195.149 23.2954C196.49 23.0519 197.099 22.0778 197.099 20.7385C197.099 19.3992 196.368 18.4251 195.027 18.1816C194.052 18.0598 192.955 18.0598 191.858 17.9381C191.492 17.9381 191.371 18.1816 191.371 18.4251C191.614 19.2774 191.614 20.008 191.492 20.7385Z" fill="#284997"/>
<path d="M102.511 18.6686C102.511 18.6686 101.902 19.3992 101.536 19.8862C96.2947 27.8004 89.7126 34.3753 81.5458 39.3674C78.1328 41.3155 74.7198 43.0201 70.8193 43.7506C68.6252 44.2376 66.3093 44.3594 64.1152 43.8724C61.5555 43.2636 59.7271 41.9243 58.3863 39.7326C57.1674 37.6628 56.6798 35.4711 56.6798 33.036C56.8017 33.2795 56.8017 33.6448 56.9236 33.8883C57.2893 35.2276 57.7768 36.5669 58.5082 37.7845C60.2147 40.5849 62.7744 42.046 66.0655 42.1678C68.5033 42.2895 70.8193 41.6807 73.0133 40.9502C77.2796 39.4891 81.1801 37.1757 84.8369 34.6188C91.1753 30.3573 96.5385 25 101.292 19.1557C101.414 18.9122 102.024 18.3034 102.024 18.3034" fill="#284997"/>
<path d="M50.0975 26.0958C50.0975 23.7824 50.0975 21.3473 50.0975 19.0339C50.0975 18.1816 50.0975 18.1816 49.2443 18.1816C48.5129 18.1816 47.6597 18.1816 46.9283 18.1816C46.5626 18.1816 46.3188 18.0598 46.3188 17.5728C46.3188 16.8423 46.3188 15.99 46.3188 15.2594C46.3188 14.7724 46.5626 14.6507 46.9283 14.6507C47.5378 14.6507 48.2691 14.6507 48.8786 14.6507C51.5602 14.6507 54.3637 14.6507 57.0453 14.6507C57.8986 14.6507 57.8986 14.6506 57.8986 15.5029C57.8986 16.1117 57.8986 16.8423 57.8986 17.4511C57.8986 17.9381 57.7767 18.0598 57.2891 18.0598C56.5578 18.0598 55.8264 18.0598 55.0951 18.0598C54.1199 18.0598 54.1199 18.0598 54.1199 19.0339C54.1199 22.8084 54.1199 26.7046 54.1199 30.4791C54.1199 31.4531 54.1199 32.3054 54.1199 33.2795C54.1199 34.01 54.1199 34.01 53.3886 34.01C52.6572 34.01 51.804 34.01 51.0726 34.01C50.2194 34.01 50.2194 34.01 50.2194 33.1577C50.2194 31.9402 50.2194 30.8443 50.2194 29.6268C50.0975 28.4092 50.0975 27.1916 50.0975 26.0958Z" fill="#284997"/>
<path d="M116.894 14.1636C115.797 14.1636 114.944 13.5548 114.335 12.5808C114.213 12.3373 114.213 12.0938 114.457 11.8502C115.31 11.3632 115.554 10.1456 115.188 9.29334C114.944 8.92807 115.31 8.92807 115.432 8.80631C116.529 8.19752 117.87 8.31928 118.723 9.17158C119.698 9.90212 119.942 11.2415 119.576 12.459C119.088 13.4331 118.113 14.1636 116.894 14.1636Z" fill="#969696"/>
<path d="M111.165 8.68455C111.165 10.2674 109.947 11.3632 108.484 11.3632C107.021 11.3632 105.802 10.1456 105.802 8.68455C105.802 8.19752 105.924 8.19752 106.29 8.31927C106.899 8.68455 107.509 8.56279 107.996 8.07576C108.484 7.58873 108.484 6.97995 108.24 6.37116C107.996 5.76237 107.996 5.76237 108.606 5.76237C109.947 6.00589 111.165 7.22346 111.165 8.68455Z" fill="#FF0008"/>
<path d="M108.362 4.17954C107.874 2.96197 108.362 1.62264 109.459 1.13561C110.678 0.648585 112.019 1.13561 112.628 2.35318C113.238 3.69251 112.628 4.91008 111.287 5.51887C111.653 4.3013 111.409 3.57076 110.556 3.20548C109.703 2.71846 109.093 2.96197 108.362 4.17954Z" fill="#969696"/>
<path d="M107.265 11.7285C107.143 11.8502 107.143 11.8502 107.021 11.972C106.777 12.3373 106.412 12.8243 106.168 13.1896C105.802 13.6766 105.68 14.1636 105.802 14.6506C105.924 15.1377 105.68 15.3812 105.193 15.1377C104.705 14.8942 104.34 14.6506 103.974 14.4071C103.73 14.1636 103.73 13.9201 104.096 13.7983C105.193 13.5548 105.558 12.459 106.046 11.7285C106.412 11.2414 106.29 11.2414 106.899 11.485C107.021 11.485 107.143 11.6067 107.265 11.7285Z" fill="#969696"/>
<path d="M107.875 7.22347C107.875 7.7105 107.509 8.19752 107.021 8.31928C106.534 8.44104 105.924 8.19752 105.802 7.58874C105.68 7.10171 105.559 6.73644 105.193 6.49292C104.949 6.24941 105.071 6.12765 105.315 5.88414C105.437 5.76238 105.68 5.51887 105.802 5.76238C106.168 6.12765 106.534 6.12765 107.021 6.24941C107.509 6.24941 107.875 6.61468 107.875 7.22347Z" fill="#969696"/>
<path d="M114.944 10.1456C114.944 10.2674 114.944 10.5109 114.822 10.6327C114.7 10.8762 114.457 11.2414 114.335 11.485C114.091 11.2414 113.847 11.1197 113.725 10.8762C113.481 10.7544 113.238 10.5109 112.994 10.5109C112.628 10.3891 112.141 10.2674 111.775 10.1456C111.287 10.0239 111.409 9.78036 111.531 9.41509C111.653 8.92806 111.897 9.29333 112.141 9.29333C112.384 9.41509 112.628 9.41509 112.994 9.53685C113.481 9.78036 113.969 9.78036 114.579 9.6586C114.822 9.53685 114.944 9.6586 114.944 10.1456Z" fill="#969696"/>
<path d="M108.85 4.54481C108.85 3.93603 109.215 3.57076 109.703 3.449C110.068 3.32724 110.678 3.57076 110.922 3.93603C111.165 4.3013 111.165 4.91009 110.8 5.1536C110.556 5.39711 110.312 5.76239 109.947 5.88414C109.825 6.0059 109.337 5.88414 109.215 5.64063C108.971 5.27536 108.971 4.78833 108.85 4.54481Z" fill="#969696"/>
<path d="M103.121 19.1557C105.071 19.5209 106.777 17.6946 106.412 15.7465C106.412 15.6247 106.168 15.5029 106.168 15.5029C105.071 15.99 104.461 15.1377 103.73 14.5289C103.608 14.4071 103.486 14.1636 103.486 14.0419C103.364 13.4331 103.364 13.3113 102.755 13.5548C100.927 14.1636 100.195 16.3552 101.414 17.9381C101.414 18.1816 102.024 18.9121 103.121 19.1557Z" fill="#969696"/>
<path d="M112.291 40.6708C112.78 40.6708 113.164 40.7876 113.445 41.0212C113.725 41.2548 113.865 41.5765 113.865 41.9862C113.865 42.3959 113.725 42.7175 113.445 42.9511C113.164 43.1847 112.78 43.3015 112.291 43.3015H111.358V44.4444H110.819V40.6708H112.291ZM112.275 42.8325C112.616 42.8325 112.877 42.7607 113.056 42.6169C113.236 42.4695 113.326 42.2593 113.326 41.9862C113.326 41.713 113.236 41.5046 113.056 41.3608C112.877 41.2135 112.616 41.1398 112.275 41.1398H111.358V42.8325H112.275ZM117.153 43.032C117.153 43.0715 117.15 43.1236 117.142 43.1883H114.824C114.857 43.4399 114.966 43.643 115.153 43.7975C115.344 43.9484 115.579 44.0239 115.859 44.0239C116.201 44.0239 116.476 43.9089 116.684 43.6789L116.97 44.0131C116.841 44.1641 116.679 44.2791 116.485 44.3582C116.294 44.4372 116.08 44.4768 115.843 44.4768C115.541 44.4768 115.274 44.4157 115.04 44.2935C114.806 44.1677 114.625 43.9934 114.496 43.7705C114.37 43.5477 114.307 43.2962 114.307 43.0158C114.307 42.7391 114.368 42.4893 114.49 42.2665C114.616 42.0437 114.787 41.8712 115.002 41.749C115.222 41.6232 115.468 41.5603 115.741 41.5603C116.014 41.5603 116.257 41.6232 116.469 41.749C116.684 41.8712 116.851 42.0437 116.97 42.2665C117.092 42.4893 117.153 42.7445 117.153 43.032ZM115.741 41.9969C115.493 41.9969 115.284 42.0724 115.115 42.2234C114.95 42.3743 114.853 42.572 114.824 42.8164H116.657C116.629 42.5756 116.53 42.3797 116.361 42.2288C116.195 42.0742 115.989 41.9969 115.741 41.9969ZM119.478 44.2773C119.403 44.342 119.309 44.3923 119.198 44.4282C119.087 44.4606 118.972 44.4768 118.853 44.4768C118.566 44.4768 118.343 44.3995 118.185 44.2449C118.026 44.0904 117.947 43.8694 117.947 43.5819V42.0131H117.462V41.5872H117.947V40.9619H118.465V41.5872H119.284V42.0131H118.465V43.5603C118.465 43.7148 118.503 43.8334 118.578 43.9161C118.657 43.9988 118.769 44.0401 118.912 44.0401C119.07 44.0401 119.205 43.9952 119.317 43.9053L119.478 44.2773ZM120.6 42.067C120.69 41.9017 120.823 41.7759 120.999 41.6897C121.175 41.6034 121.389 41.5603 121.64 41.5603V42.0616C121.612 42.058 121.572 42.0562 121.522 42.0562C121.242 42.0562 121.021 42.1407 120.859 42.3096C120.701 42.4749 120.622 42.7121 120.622 43.0212V44.4444H120.104V41.5872H120.6V42.067ZM123.476 44.4768C123.192 44.4768 122.937 44.4139 122.71 44.2881C122.484 44.1623 122.306 43.9898 122.177 43.7705C122.051 43.5477 121.988 43.2962 121.988 43.0158C121.988 42.7355 122.051 42.4857 122.177 42.2665C122.306 42.0437 122.484 41.8712 122.71 41.749C122.937 41.6232 123.192 41.5603 123.476 41.5603C123.76 41.5603 124.013 41.6232 124.236 41.749C124.462 41.8712 124.638 42.0437 124.764 42.2665C124.894 42.4857 124.958 42.7355 124.958 43.0158C124.958 43.2962 124.894 43.5477 124.764 43.7705C124.638 43.9898 124.462 44.1623 124.236 44.2881C124.013 44.4139 123.76 44.4768 123.476 44.4768ZM123.476 44.0239C123.659 44.0239 123.823 43.9826 123.966 43.8999C124.114 43.8137 124.229 43.6951 124.311 43.5441C124.394 43.3896 124.435 43.2135 124.435 43.0158C124.435 42.8182 124.394 42.6439 124.311 42.4929C124.229 42.3384 124.114 42.2198 123.966 42.1371C123.823 42.0544 123.659 42.0131 123.476 42.0131C123.292 42.0131 123.127 42.0544 122.98 42.1371C122.836 42.2198 122.721 42.3384 122.635 42.4929C122.552 42.6439 122.511 42.8182 122.511 43.0158C122.511 43.2135 122.552 43.3896 122.635 43.5441C122.721 43.6951 122.836 43.8137 122.98 43.8999C123.127 43.9826 123.292 44.0239 123.476 44.0239ZM126.919 44.4768C126.628 44.4768 126.368 44.4139 126.138 44.2881C125.911 44.1623 125.733 43.9898 125.604 43.7705C125.474 43.5477 125.41 43.2962 125.41 43.0158C125.41 42.7355 125.474 42.4857 125.604 42.2665C125.733 42.0437 125.911 41.8712 126.138 41.749C126.368 41.6232 126.628 41.5603 126.919 41.5603C127.178 41.5603 127.408 41.6124 127.609 41.7166C127.814 41.8208 127.972 41.9718 128.084 42.1695L127.69 42.4228C127.6 42.2863 127.489 42.1838 127.356 42.1155C127.223 42.0473 127.076 42.0131 126.914 42.0131C126.727 42.0131 126.558 42.0544 126.407 42.1371C126.26 42.2198 126.143 42.3384 126.057 42.4929C125.974 42.6439 125.933 42.8182 125.933 43.0158C125.933 43.2171 125.974 43.395 126.057 43.5495C126.143 43.7005 126.26 43.8173 126.407 43.8999C126.558 43.9826 126.727 44.0239 126.914 44.0239C127.076 44.0239 127.223 43.9898 127.356 43.9215C127.489 43.8532 127.6 43.7508 127.69 43.6142L128.084 43.8622C127.972 44.0599 127.814 44.2126 127.609 44.3204C127.408 44.4246 127.178 44.4768 126.919 44.4768ZM130.242 41.5603C130.605 41.5603 130.893 41.6663 131.105 41.8783C131.321 42.0868 131.428 42.3941 131.428 42.8002V44.4444H130.911V42.8595C130.911 42.5828 130.844 42.3743 130.711 42.2341C130.579 42.094 130.388 42.0239 130.14 42.0239C129.86 42.0239 129.639 42.1066 129.477 42.2719C129.315 42.4336 129.234 42.6672 129.234 42.9727V44.4444H128.717V40.4444H129.234V41.9916C129.342 41.855 129.482 41.749 129.655 41.6735C129.831 41.598 130.027 41.5603 130.242 41.5603ZM134.984 43.032C134.984 43.0715 134.981 43.1236 134.974 43.1883H132.655C132.688 43.4399 132.797 43.643 132.984 43.7975C133.175 43.9484 133.41 44.0239 133.69 44.0239C134.032 44.0239 134.307 43.9089 134.515 43.6789L134.801 44.0131C134.672 44.1641 134.51 44.2791 134.316 44.3582C134.125 44.4372 133.912 44.4768 133.674 44.4768C133.372 44.4768 133.105 44.4157 132.871 44.2935C132.637 44.1677 132.456 43.9934 132.327 43.7705C132.201 43.5477 132.138 43.2962 132.138 43.0158C132.138 42.7391 132.199 42.4893 132.321 42.2665C132.447 42.0437 132.618 41.8712 132.833 41.749C133.053 41.6232 133.299 41.5603 133.572 41.5603C133.845 41.5603 134.088 41.6232 134.3 41.749C134.515 41.8712 134.682 42.0437 134.801 42.2665C134.923 42.4893 134.984 42.7445 134.984 43.032ZM133.572 41.9969C133.324 41.9969 133.115 42.0724 132.947 42.2234C132.781 42.3743 132.684 42.572 132.655 42.8164H134.488C134.46 42.5756 134.361 42.3797 134.192 42.2288C134.027 42.0742 133.82 41.9969 133.572 41.9969ZM139.277 41.5603C139.636 41.5603 139.92 41.6645 140.129 41.873C140.341 42.0814 140.447 42.3905 140.447 42.8002V44.4444H139.929V42.8595C139.929 42.5828 139.865 42.3743 139.735 42.2341C139.61 42.094 139.428 42.0239 139.191 42.0239C138.928 42.0239 138.72 42.1066 138.565 42.2719C138.411 42.4336 138.334 42.6672 138.334 42.9727V44.4444H137.816V42.8595C137.816 42.5828 137.751 42.3743 137.622 42.2341C137.496 42.094 137.315 42.0239 137.078 42.0239C136.815 42.0239 136.607 42.1066 136.452 42.2719C136.298 42.4336 136.22 42.6672 136.22 42.9727V44.4444H135.703V41.5872H136.199V42.0131C136.303 41.8658 136.44 41.7544 136.609 41.6789C136.778 41.5998 136.97 41.5603 137.185 41.5603C137.408 41.5603 137.606 41.6052 137.778 41.6951C137.951 41.7849 138.084 41.9161 138.177 42.0886C138.285 41.9233 138.434 41.7939 138.625 41.7004C138.819 41.607 139.036 41.5603 139.277 41.5603ZM141.399 41.5872H141.917V44.4444H141.399V41.5872ZM141.658 41.0374C141.557 41.0374 141.473 41.005 141.405 40.9403C141.34 40.8756 141.308 40.7966 141.308 40.7031C141.308 40.6097 141.34 40.5306 141.405 40.4659C141.473 40.3976 141.557 40.3635 141.658 40.3635C141.759 40.3635 141.841 40.3958 141.906 40.4605C141.974 40.5216 142.008 40.5989 142.008 40.6923C142.008 40.7894 141.974 40.872 141.906 40.9403C141.841 41.005 141.759 41.0374 141.658 41.0374ZM144.15 44.4768C143.859 44.4768 143.598 44.4139 143.368 44.2881C143.142 44.1623 142.964 43.9898 142.835 43.7705C142.705 43.5477 142.641 43.2962 142.641 43.0158C142.641 42.7355 142.705 42.4857 142.835 42.2665C142.964 42.0437 143.142 41.8712 143.368 41.749C143.598 41.6232 143.859 41.5603 144.15 41.5603C144.409 41.5603 144.639 41.6124 144.84 41.7166C145.045 41.8208 145.203 41.9718 145.315 42.1695L144.921 42.4228C144.831 42.2863 144.72 42.1838 144.587 42.1155C144.454 42.0473 144.306 42.0131 144.145 42.0131C143.958 42.0131 143.789 42.0544 143.638 42.1371C143.491 42.2198 143.374 42.3384 143.288 42.4929C143.205 42.6439 143.164 42.8182 143.164 43.0158C143.164 43.2171 143.205 43.395 143.288 43.5495C143.374 43.7005 143.491 43.8173 143.638 43.8999C143.789 43.9826 143.958 44.0239 144.145 44.0239C144.306 44.0239 144.454 43.9898 144.587 43.9215C144.72 43.8532 144.831 43.7508 144.921 43.6142L145.315 43.8622C145.203 44.0599 145.045 44.2126 144.84 44.3204C144.639 44.4246 144.409 44.4768 144.15 44.4768ZM147.025 41.5603C147.42 41.5603 147.722 41.6573 147.931 41.8514C148.143 42.0455 148.249 42.3348 148.249 42.7193V44.4444H147.758V44.067C147.672 44.2 147.548 44.3025 147.386 44.3743C147.228 44.4426 147.039 44.4768 146.82 44.4768C146.5 44.4768 146.243 44.3995 146.049 44.2449C145.859 44.0904 145.764 43.8874 145.764 43.6358C145.764 43.3842 145.855 43.1829 146.039 43.032C146.222 42.8775 146.513 42.8002 146.912 42.8002H147.731V42.6978C147.731 42.4749 147.667 42.3042 147.537 42.1856C147.408 42.067 147.217 42.0077 146.966 42.0077C146.797 42.0077 146.632 42.0365 146.47 42.094C146.308 42.1479 146.171 42.2216 146.06 42.315L145.844 41.9269C145.992 41.8083 146.168 41.7184 146.373 41.6573C146.578 41.5926 146.795 41.5603 147.025 41.5603ZM146.906 44.0778C147.104 44.0778 147.275 44.0347 147.419 43.9484C147.562 43.8586 147.667 43.7328 147.731 43.5711V43.1722H146.933C146.495 43.1722 146.276 43.3195 146.276 43.6142C146.276 43.758 146.331 43.8712 146.443 43.9538C146.554 44.0365 146.709 44.0778 146.906 44.0778ZM149.207 40.4444H149.724V44.4444H149.207V40.4444ZM152.985 41.1398H151.691V40.6708H154.812V41.1398H153.518V44.4444H152.985V41.1398ZM155.751 42.067C155.841 41.9017 155.974 41.7759 156.15 41.6897C156.326 41.6034 156.54 41.5603 156.792 41.5603V42.0616C156.763 42.058 156.724 42.0562 156.673 42.0562C156.393 42.0562 156.172 42.1407 156.01 42.3096C155.852 42.4749 155.773 42.7121 155.773 43.0212V44.4444H155.255V41.5872H155.751V42.067ZM158.465 41.5603C158.86 41.5603 159.162 41.6573 159.371 41.8514C159.583 42.0455 159.689 42.3348 159.689 42.7193V44.4444H159.198V44.067C159.112 44.2 158.988 44.3025 158.826 44.3743C158.668 44.4426 158.479 44.4768 158.26 44.4768C157.94 44.4768 157.683 44.3995 157.489 44.2449C157.299 44.0904 157.203 43.8874 157.203 43.6358C157.203 43.3842 157.295 43.1829 157.478 43.032C157.662 42.8775 157.953 42.8002 158.352 42.8002H159.171V42.6978C159.171 42.4749 159.106 42.3042 158.977 42.1856C158.848 42.067 158.657 42.0077 158.406 42.0077C158.237 42.0077 158.071 42.0365 157.91 42.094C157.748 42.1479 157.611 42.2216 157.5 42.315L157.284 41.9269C157.432 41.8083 157.608 41.7184 157.813 41.6573C158.017 41.5926 158.235 41.5603 158.465 41.5603ZM158.346 44.0778C158.544 44.0778 158.715 44.0347 158.858 43.9484C159.002 43.8586 159.106 43.7328 159.171 43.5711V43.1722H158.373C157.935 43.1722 157.716 43.3195 157.716 43.6142C157.716 43.758 157.771 43.8712 157.883 43.9538C157.994 44.0365 158.149 44.0778 158.346 44.0778ZM163.358 40.4444V44.4444H162.862V43.9916C162.747 44.1497 162.601 44.2701 162.425 44.3528C162.249 44.4354 162.055 44.4768 161.843 44.4768C161.566 44.4768 161.318 44.4157 161.099 44.2935C160.88 44.1713 160.707 44.0006 160.581 43.7813C160.459 43.5585 160.398 43.3033 160.398 43.0158C160.398 42.7283 160.459 42.4749 160.581 42.2557C160.707 42.0365 160.88 41.8658 161.099 41.7436C161.318 41.6214 161.566 41.5603 161.843 41.5603C162.048 41.5603 162.236 41.5998 162.409 41.6789C162.581 41.7544 162.725 41.8676 162.84 42.0185V40.4444H163.358ZM161.886 44.0239C162.066 44.0239 162.229 43.9826 162.376 43.8999C162.524 43.8137 162.639 43.6951 162.721 43.5441C162.804 43.3896 162.845 43.2135 162.845 43.0158C162.845 42.8182 162.804 42.6439 162.721 42.4929C162.639 42.3384 162.524 42.2198 162.376 42.1371C162.229 42.0544 162.066 42.0131 161.886 42.0131C161.703 42.0131 161.537 42.0544 161.39 42.1371C161.246 42.2198 161.131 42.3384 161.045 42.4929C160.962 42.6439 160.921 42.8182 160.921 43.0158C160.921 43.2135 160.962 43.3896 161.045 43.5441C161.131 43.6951 161.246 43.8137 161.39 43.8999C161.537 43.9826 161.703 44.0239 161.886 44.0239ZM164.337 41.5872H164.854V44.4444H164.337V41.5872ZM164.596 41.0374C164.495 41.0374 164.411 41.005 164.342 40.9403C164.278 40.8756 164.245 40.7966 164.245 40.7031C164.245 40.6097 164.278 40.5306 164.342 40.4659C164.411 40.3976 164.495 40.3635 164.596 40.3635C164.696 40.3635 164.779 40.3958 164.844 40.4605C164.912 40.5216 164.946 40.5989 164.946 40.6923C164.946 40.7894 164.912 40.872 164.844 40.9403C164.779 41.005 164.696 41.0374 164.596 41.0374ZM167.368 41.5603C167.731 41.5603 168.019 41.6663 168.231 41.8783C168.446 42.0868 168.554 42.3941 168.554 42.8002V44.4444H168.037V42.8595C168.037 42.5828 167.97 42.3743 167.837 42.2341C167.704 42.094 167.514 42.0239 167.266 42.0239C166.985 42.0239 166.764 42.1066 166.603 42.2719C166.441 42.4336 166.36 42.6672 166.36 42.9727V44.4444H165.842V41.5872H166.338V42.0185C166.443 41.8712 166.583 41.7579 166.759 41.6789C166.939 41.5998 167.142 41.5603 167.368 41.5603ZM172.261 41.5872V44.0563C172.261 44.5558 172.137 44.9242 171.889 45.1614C171.641 45.4022 171.271 45.5226 170.778 45.5226C170.509 45.5226 170.252 45.4849 170.007 45.4094C169.763 45.3375 169.565 45.2333 169.414 45.0967L169.662 44.6978C169.795 44.8128 169.959 44.9026 170.153 44.9673C170.351 45.0356 170.554 45.0698 170.762 45.0698C171.096 45.0698 171.343 44.9907 171.501 44.8326C171.662 44.6744 171.743 44.4336 171.743 44.1102V43.8838C171.621 44.0311 171.47 44.1425 171.291 44.218C171.114 44.2899 170.922 44.3258 170.714 44.3258C170.441 44.3258 170.193 44.2683 169.97 44.1533C169.751 44.0347 169.578 43.8712 169.452 43.6627C169.326 43.4507 169.264 43.2099 169.264 42.9404C169.264 42.6708 169.326 42.4318 169.452 42.2234C169.578 42.0113 169.751 41.8478 169.97 41.7328C170.193 41.6178 170.441 41.5603 170.714 41.5603C170.929 41.5603 171.129 41.5998 171.312 41.6789C171.499 41.7579 171.652 41.8747 171.77 42.0293V41.5872H172.261ZM170.773 43.873C170.96 43.873 171.127 43.8334 171.274 43.7544C171.425 43.6753 171.542 43.5657 171.625 43.4255C171.711 43.2818 171.754 43.12 171.754 42.9404C171.754 42.6636 171.662 42.4408 171.479 42.2719C171.296 42.0994 171.06 42.0131 170.773 42.0131C170.482 42.0131 170.245 42.0994 170.061 42.2719C169.878 42.4408 169.786 42.6636 169.786 42.9404C169.786 43.12 169.828 43.2818 169.91 43.4255C169.997 43.5657 170.113 43.6753 170.261 43.7544C170.412 43.8334 170.582 43.873 170.773 43.873ZM176.46 44.4875C176.083 44.4875 175.742 44.4049 175.436 44.2396C175.134 44.0706 174.897 43.8406 174.724 43.5495C174.552 43.2548 174.466 42.9242 174.466 42.5576C174.466 42.191 174.552 41.8622 174.724 41.5711C174.897 41.2764 175.136 41.0463 175.441 40.881C175.747 40.7121 176.088 40.6277 176.466 40.6277C176.76 40.6277 177.03 40.678 177.274 40.7786C177.519 40.8756 177.727 41.0212 177.9 41.2153L177.549 41.5549C177.265 41.2566 176.911 41.1074 176.487 41.1074C176.207 41.1074 175.954 41.1703 175.727 41.2961C175.501 41.4219 175.323 41.5962 175.193 41.819C175.068 42.0383 175.005 42.2845 175.005 42.5576C175.005 42.8307 175.068 43.0787 175.193 43.3015C175.323 43.5208 175.501 43.6933 175.727 43.8191C175.954 43.9449 176.207 44.0077 176.487 44.0077C176.908 44.0077 177.262 43.8568 177.549 43.5549L177.9 43.8945C177.727 44.0886 177.517 44.236 177.269 44.3366C177.025 44.4372 176.755 44.4875 176.46 44.4875ZM179.696 44.4768C179.412 44.4768 179.157 44.4139 178.93 44.2881C178.704 44.1623 178.526 43.9898 178.397 43.7705C178.271 43.5477 178.208 43.2962 178.208 43.0158C178.208 42.7355 178.271 42.4857 178.397 42.2665C178.526 42.0437 178.704 41.8712 178.93 41.749C179.157 41.6232 179.412 41.5603 179.696 41.5603C179.98 41.5603 180.233 41.6232 180.456 41.749C180.682 41.8712 180.859 42.0437 180.984 42.2665C181.114 42.4857 181.178 42.7355 181.178 43.0158C181.178 43.2962 181.114 43.5477 180.984 43.7705C180.859 43.9898 180.682 44.1623 180.456 44.2881C180.233 44.4139 179.98 44.4768 179.696 44.4768ZM179.696 44.0239C179.879 44.0239 180.043 43.9826 180.186 43.8999C180.334 43.8137 180.449 43.6951 180.531 43.5441C180.614 43.3896 180.655 43.2135 180.655 43.0158C180.655 42.8182 180.614 42.6439 180.531 42.4929C180.449 42.3384 180.334 42.2198 180.186 42.1371C180.043 42.0544 179.879 42.0131 179.696 42.0131C179.513 42.0131 179.347 42.0544 179.2 42.1371C179.056 42.2198 178.941 42.3384 178.855 42.4929C178.772 42.6439 178.731 42.8182 178.731 43.0158C178.731 43.2135 178.772 43.3896 178.855 43.5441C178.941 43.6951 179.056 43.8137 179.2 43.8999C179.347 43.9826 179.513 44.0239 179.696 44.0239ZM185.468 41.5603C185.828 41.5603 186.112 41.6645 186.32 41.873C186.532 42.0814 186.638 42.3905 186.638 42.8002V44.4444H186.121V42.8595C186.121 42.5828 186.056 42.3743 185.927 42.2341C185.801 42.094 185.619 42.0239 185.382 42.0239C185.12 42.0239 184.911 42.1066 184.757 42.2719C184.602 42.4336 184.525 42.6672 184.525 42.9727V44.4444H184.007V42.8595C184.007 42.5828 183.943 42.3743 183.813 42.2341C183.687 42.094 183.506 42.0239 183.269 42.0239C183.006 42.0239 182.798 42.1066 182.643 42.2719C182.489 42.4336 182.412 42.6672 182.412 42.9727V44.4444H181.894V41.5872H182.39V42.0131C182.494 41.8658 182.631 41.7544 182.8 41.6789C182.969 41.5998 183.161 41.5603 183.377 41.5603C183.599 41.5603 183.797 41.6052 183.97 41.6951C184.142 41.7849 184.275 41.9161 184.369 42.0886C184.476 41.9233 184.625 41.7939 184.816 41.7004C185.01 41.607 185.227 41.5603 185.468 41.5603ZM189.105 41.5603C189.382 41.5603 189.63 41.6214 189.849 41.7436C190.068 41.8658 190.239 42.0365 190.361 42.2557C190.487 42.4749 190.55 42.7283 190.55 43.0158C190.55 43.3033 190.487 43.5585 190.361 43.7813C190.239 44.0006 190.068 44.1713 189.849 44.2935C189.63 44.4157 189.382 44.4768 189.105 44.4768C188.9 44.4768 188.712 44.4372 188.539 44.3582C188.37 44.2791 188.226 44.1641 188.108 44.0131V45.4902H187.59V41.5872H188.086V42.0401C188.201 41.8819 188.347 41.7633 188.523 41.6843C188.699 41.6016 188.893 41.5603 189.105 41.5603ZM189.062 44.0239C189.245 44.0239 189.409 43.9826 189.553 43.8999C189.7 43.8137 189.815 43.6951 189.898 43.5441C189.984 43.3896 190.027 43.2135 190.027 43.0158C190.027 42.8182 189.984 42.6439 189.898 42.4929C189.815 42.3384 189.7 42.2198 189.553 42.1371C189.409 42.0544 189.245 42.0131 189.062 42.0131C188.882 42.0131 188.719 42.0562 188.572 42.1425C188.428 42.2252 188.313 42.342 188.226 42.4929C188.144 42.6439 188.102 42.8182 188.102 43.0158C188.102 43.2135 188.144 43.3896 188.226 43.5441C188.309 43.6951 188.424 43.8137 188.572 43.8999C188.719 43.9826 188.882 44.0239 189.062 44.0239ZM192.279 41.5603C192.674 41.5603 192.976 41.6573 193.185 41.8514C193.397 42.0455 193.503 42.3348 193.503 42.7193V44.4444H193.012V44.067C192.926 44.2 192.802 44.3025 192.64 44.3743C192.482 44.4426 192.294 44.4768 192.074 44.4768C191.754 44.4768 191.497 44.3995 191.303 44.2449C191.113 44.0904 191.018 43.8874 191.018 43.6358C191.018 43.3842 191.109 43.1829 191.293 43.032C191.476 42.8775 191.767 42.8002 192.166 42.8002H192.985V42.6978C192.985 42.4749 192.921 42.3042 192.791 42.1856C192.662 42.067 192.471 42.0077 192.22 42.0077C192.051 42.0077 191.886 42.0365 191.724 42.094C191.562 42.1479 191.426 42.2216 191.314 42.315L191.099 41.9269C191.246 41.8083 191.422 41.7184 191.627 41.6573C191.832 41.5926 192.049 41.5603 192.279 41.5603ZM192.161 44.0778C192.358 44.0778 192.529 44.0347 192.673 43.9484C192.816 43.8586 192.921 43.7328 192.985 43.5711V43.1722H192.187C191.749 43.1722 191.53 43.3195 191.53 43.6142C191.53 43.758 191.586 43.8712 191.697 43.9538C191.808 44.0365 191.963 44.0778 192.161 44.0778ZM195.986 41.5603C196.349 41.5603 196.637 41.6663 196.849 41.8783C197.064 42.0868 197.172 42.3941 197.172 42.8002V44.4444H196.655V42.8595C196.655 42.5828 196.588 42.3743 196.455 42.2341C196.322 42.094 196.132 42.0239 195.884 42.0239C195.603 42.0239 195.382 42.1066 195.221 42.2719C195.059 42.4336 194.978 42.6672 194.978 42.9727V44.4444H194.461V41.5872H194.957V42.0185C195.061 41.8712 195.201 41.7579 195.377 41.6789C195.557 41.5998 195.76 41.5603 195.986 41.5603ZM200.606 41.5872L199.22 44.7301C199.098 45.0212 198.954 45.2261 198.789 45.3447C198.627 45.4633 198.431 45.5226 198.201 45.5226C198.061 45.5226 197.925 45.4992 197.792 45.4525C197.662 45.4094 197.554 45.3447 197.468 45.2584L197.689 44.8703C197.837 45.0105 198.007 45.0805 198.201 45.0805C198.327 45.0805 198.431 45.0464 198.514 44.9781C198.6 44.9134 198.678 44.8002 198.746 44.6385L198.837 44.439L197.576 41.5872H198.115L199.112 43.873L200.099 41.5872H200.606Z" fill="#221F21"/>
</svg>
