<svg width="191" height="1358" viewBox="0 0 191 1358" fill="none" xmlns="http://www.w3.org/2000/svg">
<g opacity="0.1">
<path d="M1 659.648C1.82179 658 2.64357 656.353 3.46535 654.706C7.57426 645.648 17.4356 641.53 26.4753 644.001C36.3366 646.471 42.0891 654.706 42.0891 665.412C42.0891 674.471 34.6931 682.706 25.6535 684.353C14.9703 686 5.9307 681.059 1.82179 671.177C1 669.53 1 668.706 0.178222 667.059C1 664.589 1 662.118 1 659.648Z" fill="#969696"/>
<path d="M80.7129 681.06C64.2772 690.942 49.4852 703.295 37.9802 718.118C29.7624 728.824 23.1881 741.177 18.2574 754.354C17.4357 756.001 16.6139 757.648 15.7921 758.471C16.6139 756.824 16.6139 754.354 17.4357 752.707C27.297 721.413 44.5545 696.707 70.0297 676.942C74.9604 672.824 76.604 672.824 69.2079 668.707C68.3862 667.883 66.7426 667.06 65.9208 665.413C66.7426 666.236 69.2079 667.06 70.8515 667.883C90.5743 675.295 108.653 686.824 125.089 700.001C170.287 735.413 207.267 778.236 235.208 828.471C245.069 846.589 252.465 865.53 255.753 886.118C258.218 901.766 258.218 917.413 253.287 933.06C245.891 953.648 229.455 966.001 208.089 966.824C191.654 967.648 176.04 964.354 160.426 957.766C167 958.589 173.574 959.413 180.149 960.236C190.01 961.06 200.693 960.236 209.733 956.118C222.059 951.177 231.099 942.118 236.03 928.942C207.267 944.589 176.861 951.177 143.99 947.06C147.277 947.06 150.564 947.06 153.852 947.06C157.139 947.06 160.426 946.236 163.713 946.236C190.832 943.766 214.663 933.883 236.03 917.413C236.852 916.589 237.673 915.766 238.495 914.942C239.317 913.295 238.495 911.648 239.317 910.824C238.495 911.648 236.852 911.648 236.03 912.471C214.663 929.766 190.832 939.648 164.535 942.942C126.733 946.236 93.0396 937.177 63.4555 913.295C33.8713 889.413 16.6139 858.118 12.505 820.236C6.75248 762.589 34.6931 712.354 79.8911 686.001C81.5347 685.177 82.3565 684.354 84 683.53C82.3565 685.177 81.5347 686.824 79.0693 688.471C59.3465 704.942 45.3763 724.707 36.3366 747.766C29.7624 765.883 27.297 784.824 28.1188 804.589C28.1188 805.413 28.9406 807.06 28.9406 807.883C29.7624 807.06 30.5842 806.236 31.406 805.413C37.9802 796.354 43.7327 788.118 50.3069 779.06C52.7723 775.766 52.7723 774.118 51.9505 770.001C50.3069 766.707 49.4852 761.766 47.8416 756.824L48.6634 756.824C50.3069 760.942 52.7723 765.06 54.4159 769.177C56.0594 773.295 56.0594 772.471 59.3465 770.001C69.2079 761.766 79.0693 752.707 89.7525 744.471C92.2178 742.001 92.2178 741.177 91.3961 737.883C88.1089 729.648 84.8218 722.236 81.5347 714.001C80.7129 712.354 80.7129 709.883 79.8911 708.236C85.6436 716.471 89.7525 724.707 94.6832 733.765C97.9703 739.53 97.9703 738.707 102.901 735.413C104.545 734.589 107.01 732.942 108.653 732.118C114.406 728.824 120.158 726.354 125.911 723.06C119.337 728.824 111.941 734.589 104.545 739.53C100.436 742.824 100.436 742.824 102.901 746.942C114.406 765.883 126.733 784.001 139.059 802.942C139.881 803.766 139.881 803.766 140.703 804.589C141.525 807.06 143.168 807.06 145.634 805.413C149.743 802.942 153.852 800.471 157.96 797.177C161.248 794.707 164.535 793.06 167.822 790.589L168.644 791.413C162.069 796.354 154.673 802.118 148.099 807.06C145.634 808.707 145.634 810.354 147.277 812.001C161.248 830.942 176.04 849.06 190.01 868.001C191.653 870.471 193.297 869.648 194.941 868.824C201.515 864.707 207.267 860.589 213.842 856.471C215.485 855.648 216.307 854.824 217.951 854.001L218.772 854.824C212.198 860.589 205.624 866.354 199.05 872.118C195.762 874.589 195.762 874.589 198.228 878.707C203.98 885.295 210.555 892.707 216.307 899.295C217.129 900.118 217.951 901.766 218.772 902.589L217.951 903.413C210.554 896.001 202.337 888.589 194.941 881.177C192.475 878.707 191.653 878.707 188.366 880.354C176.861 886.942 165.356 893.53 153.852 900.118C150.564 901.766 149.743 901.766 153.03 905.06C156.317 908.354 159.604 912.471 163.713 915.766L162.891 916.589C158.782 913.295 153.852 910.001 149.743 906.707C147.277 904.236 144.812 904.236 141.525 905.06C133.307 908.354 124.267 910.001 116.05 912.471C113.584 913.295 110.297 913.295 106.188 914.118C109.475 915.766 111.119 916.589 112.762 917.413C130.842 924.824 149.743 928.118 169.465 928.118C194.119 927.295 217.129 920.707 238.495 907.53C242.604 905.06 244.248 902.589 243.426 898.471C242.604 894.354 242.604 889.413 241.782 885.295C239.317 868.824 232.743 853.177 225.347 837.53C212.198 809.53 194.119 784.824 174.396 760.942C150.564 732.118 124.267 705.766 95.505 682.707C91.3961 684.354 84.8218 678.589 80.7129 681.06ZM98.7921 845.766C99.6139 847.413 100.436 848.236 101.257 849.883C113.584 864.707 126.733 879.53 139.059 894.354C140.703 896.824 142.347 896.824 145.634 896.001C157.96 890.236 170.287 883.648 182.614 877.883C185.079 876.236 185.901 875.413 183.436 872.942C176.04 864.707 169.465 855.648 162.891 847.413C155.495 838.354 148.921 828.471 142.347 818.589C140.703 816.942 139.881 815.295 137.416 816.942C125.089 826.001 113.584 835.06 101.257 844.118C99.6139 844.942 99.6139 844.942 98.7921 845.766ZM136.594 811.177C135.772 809.53 134.951 808.707 134.129 807.06C121.802 788.118 110.297 769.177 97.9703 750.236C95.505 746.942 95.505 746.118 92.2178 749.413C82.3565 758.471 73.3168 767.53 63.4555 776.589C60.9901 779.06 60.9901 781.53 62.6337 784.824C71.6733 800.471 79.8911 816.118 88.9307 831.766C93.0396 839.177 93.8614 839.177 101.257 834.236C102.079 833.413 103.723 832.589 104.545 831.766C113.584 826.001 123.446 819.413 132.485 813.648C134.129 813.648 134.951 812.824 136.594 811.177ZM56.8812 786.471C56.0594 787.295 55.2376 788.118 54.4159 788.942C46.198 799.648 37.9802 811.177 33.0495 824.354C32.2277 826.001 32.2277 828.471 33.0495 830.118C36.3367 842.471 41.2673 854.824 47.8416 865.53C50.3069 869.648 50.3069 869.648 53.5941 867.177C64.2772 860.589 74.9604 853.177 84.8218 846.589C88.9307 844.118 88.9307 844.118 85.6436 839.177C79.8911 829.295 73.3169 819.413 67.5644 809.53C64.2772 802.942 61.8119 796.354 58.5248 789.766C58.5248 788.942 57.703 787.295 56.8812 786.471ZM93.8614 909.177C107.832 908.354 120.98 905.06 133.307 900.942C135.772 900.118 136.594 899.295 134.129 896.824C120.158 883.648 107.832 868.824 96.3268 853.177C94.6832 850.707 93.0396 850.707 90.5743 852.354C80.7129 859.766 70.8515 867.177 60.9901 874.589C56.0594 877.883 56.0594 877.883 60.1683 882.001C67.5644 891.06 75.7822 898.471 85.6436 905.06C87.2872 908.354 90.5743 910.001 93.8614 909.177Z" fill="#969696"/>
<path d="M253.287 983.294C259.861 981.647 267.257 980 273.832 977.529C301.772 967.647 318.208 944.588 319.852 914.941C320.673 892.706 315.743 872.117 307.525 852.353C292.733 812 269.723 775.764 243.426 742.823C201.515 690.117 152.208 646.47 93.8614 612.706C93.0396 612.706 92.2178 611.882 92.2178 611.882C92.2178 611.882 91.396 611.059 91.396 610.235C93.0396 611.059 93.8614 611.059 95.505 611.882C114.406 621.764 133.307 632.47 152.208 642.353C155.495 644 157.96 644.823 162.069 644.823C204.802 645.647 241.782 661.294 271.366 692.588C296.02 718.941 309.99 751.059 311.634 788.117C312.455 798 310.812 807.882 310.812 817.764C310.812 821.882 310.812 825.176 312.455 828.47C321.495 848.235 328.891 868.823 332.178 890.235C334.644 906.706 334.644 923.176 328.891 938.823C319.852 964.353 301.772 980 273.832 982.47C266.436 984.117 259.861 984.941 253.287 983.294ZM290.267 786.47C291.911 767.529 276.297 732.941 259.04 712.353C240.96 690.941 208.089 670.353 190.832 669.529C232.743 700.823 263.97 741.176 290.267 786.47Z" fill="#969696"/>
<path d="M138.238 1276.47C148.099 1278.94 157.139 1281.41 167 1283.88C185.901 1288 203.98 1292.94 222.881 1297.06C226.168 1297.88 227.812 1299.53 227.812 1302.82C227.812 1307.77 227.812 1312.71 227.812 1316.82C227.812 1320.94 226.168 1321.77 222.881 1323.41C190.832 1332.47 159.604 1340.71 127.555 1349.77C118.515 1352.24 110.297 1354.71 101.258 1357.18C97.1486 1358 97.1486 1358 97.1486 1353.88C97.1486 1348.12 97.1486 1342.35 97.1486 1336.59C97.1486 1332.47 98.7922 1331.65 102.079 1330.82C124.267 1325.88 145.634 1320.12 167.822 1314.35C173.574 1312.71 180.149 1311.06 185.901 1309.41C186.723 1309.41 187.545 1308.59 187.545 1307.77C186.723 1307.77 185.901 1306.94 185.901 1306.94C173.574 1303.65 160.426 1301.18 148.099 1297.88C132.485 1293.77 117.693 1290.47 102.079 1286.35C97.9704 1285.53 97.1486 1283.88 97.1486 1279.77C97.1486 1276.47 97.1486 1273.18 97.1486 1269.06C97.1486 1265.77 98.7922 1264.12 102.079 1263.29C124.267 1258.35 147.277 1252.59 169.465 1247.65C176.04 1246 182.614 1244.35 188.366 1241.88C186.723 1241.06 185.079 1241.06 182.614 1240.24C155.495 1233.65 129.198 1227.06 102.079 1219.65C96.3268 1218 96.3268 1218 96.3268 1213.06C96.3268 1208.12 96.3268 1202.35 96.3268 1197.41C96.3268 1191.65 96.3268 1191.65 102.079 1193.29C119.337 1198.24 135.772 1203.18 153.03 1208.12C176.04 1214.71 198.228 1221.29 221.238 1227.88C228.634 1229.53 226.99 1229.53 226.99 1235.29C226.99 1238.59 226.99 1242.71 226.99 1246C226.99 1252.59 226.99 1252.59 221.238 1253.41C199.871 1258.35 178.505 1263.29 157.139 1268.24C150.564 1269.88 143.99 1271.53 137.416 1273.18C138.238 1275.65 138.238 1276.47 138.238 1276.47Z" fill="#969696"/>
<path d="M157.139 521.294C157.139 509.765 157.139 498.235 157.139 486.706C157.139 481.765 157.139 481.765 162.069 481.765C194.941 482.588 223.703 504.823 228.634 538.588C235.208 588 196.584 618.47 161.248 618.47C121.802 618.47 95.5049 586.353 93.8614 555.882C92.2178 534.47 97.9703 516.353 112.762 500.706C117.693 494.941 124.267 490.823 130.842 488.353C134.129 486.706 134.129 487.529 134.129 490.823C134.129 499.059 134.129 506.47 134.129 514.706C134.129 517.176 133.307 518.823 131.663 519.647C118.515 530.353 115.228 543.529 118.515 559.176C122.624 575.647 133.307 585.529 149.743 589.647C167 593.765 181.792 589.647 194.941 577.294C211.376 562.47 212.198 526.235 184.257 512.235C180.148 510.588 180.148 510.588 180.148 514.706C180.148 527.882 180.148 541.059 180.148 553.412C180.148 559.176 180.149 559.176 174.396 559.176C171.109 559.176 167.822 559.176 164.535 559.176C157.96 559.176 157.96 559.176 157.96 551.765C157.139 542.706 157.139 532 157.139 521.294Z" fill="#969696"/>
<path d="M157.139 1089.53C157.139 1078 157.139 1066.47 157.139 1054.12C157.139 1050 157.139 1049.18 162.069 1050C185.901 1051.65 206.446 1060.71 219.594 1081.29C233.564 1103.53 234.386 1126.59 222.881 1149.65C211.376 1172.71 192.475 1185.06 166.178 1186.71C130.842 1188.35 102.079 1166.94 95.505 1131.53C90.5743 1104.35 97.9703 1080.47 120.98 1063.18C123.446 1060.71 126.733 1059.06 130.02 1057.41C134.129 1055.77 134.951 1055.77 134.951 1059.88C134.951 1067.29 134.951 1074.71 134.951 1082.12C134.951 1084.59 134.129 1086.24 132.485 1087.88C117.693 1099.41 116.05 1119.18 120.98 1133.18C126.733 1148.82 142.347 1159.53 159.604 1160.35C174.396 1161.18 186.723 1155.41 196.584 1144.71C210.554 1129.88 211.376 1095.29 183.436 1082.12C180.149 1080.47 179.327 1080.47 179.327 1084.59C179.327 1097.77 179.327 1110.12 179.327 1123.29C179.327 1129.88 179.327 1129.88 172.752 1129.88C169.465 1129.88 165.356 1129.88 162.069 1129.88C157.139 1129.88 157.139 1129.88 157.139 1124.94C157.139 1112.59 157.139 1101.06 157.139 1089.53Z" fill="#969696"/>
<path d="M162.069 222.354C199.871 221.53 230.277 253.648 230.277 290.706C230.277 326.942 199.05 359.059 161.248 359.059C127.554 359.059 93.8614 330.236 93.8614 289.883C93.8614 250.354 126.733 220.707 162.069 222.354ZM162.069 248.707C159.604 248.707 157.96 248.707 155.495 248.707C139.881 251.177 127.554 258.589 120.98 273.412C114.406 287.412 116.05 301.412 125.089 313.765C139.881 333.53 167.822 337.648 187.545 323.648C213.842 304.707 210.555 266.824 180.97 252.824C176.04 250.354 169.465 248.707 162.069 248.707Z" fill="#969696"/>
<path d="M176.04 438.118C190.01 438.118 203.98 438.118 217.951 438.118C218.772 438.118 220.416 438.118 221.238 438.118C226.99 438.118 226.99 438.118 226.99 443.059C226.99 448.824 226.99 454.589 226.99 460.354C226.99 462.824 226.168 463.648 223.703 463.648C222.881 463.648 221.238 463.648 220.416 463.648C181.792 463.648 142.347 463.648 103.723 463.648C102.901 463.648 102.079 463.648 101.257 463.648C97.9703 463.648 96.3268 462.824 97.1485 459.53C97.1485 456.236 97.1485 452.942 97.1485 448.824C97.1485 437.295 97.1485 426.589 97.1485 415.059C97.1485 403.53 100.436 392.824 108.653 383.765C120.158 371.412 135.772 368.118 151.386 372.236C166.178 375.53 176.04 385.412 180.149 401.059C180.97 405.177 180.97 405.177 184.257 402.707C197.406 392.824 210.554 382.942 223.703 373.059C224.525 372.236 226.168 371.412 227.812 370.589C227.812 372.236 228.634 373.883 228.634 375.53C228.634 382.118 228.634 388.706 228.634 395.295C228.634 398.589 227.812 401.059 224.525 402.707C209.733 412.589 195.762 422.471 180.97 432.354C179.327 433.177 177.683 434.824 176.861 435.648C176.04 437.295 176.04 437.295 176.04 438.118ZM140.703 438.118C146.455 438.118 151.386 438.118 157.139 438.118C158.782 438.118 161.248 438.118 161.248 435.648C161.248 425.765 162.069 415.883 158.782 406.824C157.139 402.707 154.673 400.236 151.386 398.589C138.238 392.824 124.267 399.412 121.802 413.412C120.98 420.001 120.98 427.412 120.98 434.824C120.98 437.295 121.802 438.118 124.267 438.118C129.198 438.118 134.951 438.118 140.703 438.118Z" fill="#969696"/>
<path d="M143.168 138.353C130.02 138.353 116.05 138.353 102.901 138.353C97.9703 138.353 97.1486 138.353 97.1486 132.588C97.1486 127.647 97.1486 121.882 97.1486 116.941C97.1486 112 97.1486 112 102.079 112C120.158 112 139.059 112 157.139 112C168.644 112 180.149 112 191.654 112.824C215.485 115.294 230.277 132.588 230.277 156.471C231.099 182 215.485 196.824 199.871 200.941C194.119 202.588 188.366 203.412 182.614 203.412C156.317 203.412 129.198 203.412 102.901 203.412C97.1486 203.412 97.1486 203.412 97.1486 197.647C97.1486 192.706 97.1486 187.765 97.1486 183.647C97.1486 177.882 97.1486 177.882 102.901 177.882C114.406 177.882 126.733 177.882 138.238 177.882C152.208 177.882 166.178 177.882 180.149 177.882C185.079 177.882 190.01 177.059 194.941 175.412C203.158 172.118 207.267 165.529 206.446 154.824C205.624 145.765 201.515 140.824 193.297 138.353C190.01 137.529 185.901 136.706 181.792 136.706C168.644 138.353 155.495 138.353 143.168 138.353Z" fill="#969696"/>
<path d="M162.069 89.7648C142.347 89.7648 122.624 89.7648 102.901 89.7648C97.1485 89.7648 97.1485 89.7648 97.1485 84.0001C97.1485 69.1766 97.1485 54.353 97.1485 39.5294C97.1485 33.7647 98.7921 28.8235 100.436 23.0588C104.545 11.5294 112.762 4.11774 124.267 1.64715C132.485 8.23787e-05 140.703 8.20195e-05 148.921 1.64715C165.356 4.94126 176.861 17.2941 179.327 35.4118C180.149 42.8235 180.149 51.0589 180.97 58.4706C180.97 63.4118 180.97 63.4119 185.901 63.4118C198.228 63.4118 210.554 63.4118 222.881 63.4118C227.812 63.4118 227.812 63.4118 227.812 68.3529C227.812 74.1177 227.812 79.0588 227.812 84.8235C227.812 88.1177 226.99 88.9412 223.703 88.9412C217.951 88.9412 212.198 88.9412 206.446 88.9412C191.653 89.7647 176.861 89.7648 162.069 89.7648ZM138.238 64.2353C143.168 64.2353 148.099 64.2353 153.03 64.2353C155.495 64.2353 157.139 63.4118 157.139 60.9412C156.317 53.5295 157.139 46.1177 155.495 39.5294C153.851 30.4706 147.277 26.353 138.238 26.353C129.198 26.353 122.624 31.2942 120.98 40.353C120.158 46.9412 120.158 54.3531 119.337 61.7648C119.337 64.2354 120.98 65.0589 122.624 65.0589C128.376 63.4118 133.307 63.4118 138.238 64.2353Z" fill="#969696"/>
<path d="M124.267 665.411C124.267 665.411 129.198 669.529 132.485 672C185.901 707.411 230.277 751.882 263.97 807.059C277.119 830.117 288.624 853.176 293.555 879.529C296.842 894.353 297.664 910 294.376 924.823C290.268 942.117 281.228 954.47 266.436 963.529C252.466 971.764 237.673 975.059 221.238 975.059C222.881 974.235 225.347 974.235 226.99 973.412C236.03 970.941 245.069 967.647 253.287 962.706C272.188 951.176 282.05 933.882 282.871 911.647C283.693 895.176 279.584 879.529 274.654 864.706C264.792 835.882 249.178 809.529 231.921 784.823C203.159 742 167 705.764 127.555 673.647C125.911 672.823 121.802 668.706 121.802 668.706" fill="#969696"/>
<path d="M174.396 1019.53C158.782 1019.53 142.347 1019.53 126.733 1019.53C120.98 1019.53 120.98 1019.53 120.98 1025.29C120.98 1030.24 120.98 1036 120.98 1040.94C120.98 1043.41 120.158 1045.06 116.871 1045.06C111.941 1045.06 106.188 1045.06 101.258 1045.06C97.9704 1045.06 97.1486 1043.41 97.1486 1040.94C97.1486 1036.82 97.1486 1031.88 97.1486 1027.77C97.1486 1009.65 97.1486 990.707 97.1486 972.589C97.1486 966.824 97.1486 966.824 102.901 966.824C107.01 966.824 111.941 966.824 116.05 966.824C119.337 966.824 120.158 967.648 120.158 970.942C120.158 975.883 120.158 980.824 120.158 985.765C120.158 992.354 120.158 992.354 126.733 992.354C152.208 992.354 178.505 992.354 203.98 992.354C210.555 992.354 216.307 992.354 222.881 992.354C227.812 992.354 227.812 992.354 227.812 997.295C227.812 1002.24 227.812 1008 227.812 1012.94C227.812 1018.71 227.812 1018.71 222.06 1018.71C213.842 1018.71 206.446 1018.71 198.228 1018.71C190.01 1019.53 181.792 1019.53 174.396 1019.53Z" fill="#969696"/>
<path d="M93.8614 568.236C93.8614 575.648 89.7525 581.412 83.1782 585.53C81.5347 586.353 79.8911 586.353 78.2475 584.706C74.9604 578.942 66.7426 577.295 60.9901 579.765C58.5248 581.412 58.5248 578.942 57.703 578.118C53.5941 570.706 54.4159 561.648 60.1683 555.883C65.099 549.295 74.1386 547.648 82.3564 550.118C88.9307 553.412 93.8614 560 93.8614 568.236Z" fill="#969696"/>
<path d="M56.8812 606.941C67.5644 606.941 74.9604 615.177 74.9604 625.059C74.9604 634.941 66.7426 643.177 56.8812 643.177C53.5941 643.177 53.5941 642.353 54.4158 639.882C56.8812 635.765 56.0594 631.647 52.7723 628.353C49.4851 625.059 45.3762 625.059 41.2673 626.706C37.1584 628.353 37.1584 628.353 37.1584 624.235C38.802 615.177 47.0198 606.941 56.8812 606.941Z" fill="#969696"/>
<path d="M26.4753 625.883C18.2575 629.177 9.21788 625.883 5.93075 618.471C2.64362 610.236 5.93075 601.177 14.1486 597.059C23.1882 592.942 31.406 597.059 35.5149 606.118C27.2971 603.648 22.3664 605.295 19.9011 611.06C16.6139 616.824 18.2575 620.942 26.4753 625.883Z" fill="#969696"/>
<path d="M77.4257 633.294C78.2475 634.118 78.2475 634.118 79.0693 634.941C81.5346 636.588 84.8218 639.059 87.2871 640.706C90.5742 643.177 93.8614 644 97.1485 643.177C100.436 642.353 102.079 644 100.436 647.294C98.7921 650.588 97.1485 653.059 95.5049 655.53C93.8614 657.177 92.2178 657.177 91.396 654.706C89.7525 647.294 82.3564 644.824 77.4257 641.53C74.1386 639.059 74.1386 639.883 75.7822 635.765C75.7822 634.941 76.6039 634.118 77.4257 633.294Z" fill="#969696"/>
<path d="M47.0198 629.176C50.3069 629.176 53.5941 631.647 54.4158 634.941C55.2376 638.235 53.5941 642.353 49.4852 643.176C46.198 644 43.7327 644.823 42.0891 647.294C40.4455 648.941 39.6238 648.117 37.9802 646.47C37.1584 645.647 35.5148 644 37.1584 643.176C39.6238 640.706 39.6238 638.235 40.4455 634.941C40.4455 631.647 42.9109 629.176 47.0198 629.176Z" fill="#969696"/>
<path d="M66.7426 581.412C67.5644 581.412 69.2079 581.412 70.0297 582.235C71.6733 583.059 74.1386 584.706 75.7822 585.529C74.1386 587.176 73.3168 588.823 71.6733 589.647C70.8515 591.294 69.2079 592.941 69.2079 594.588C68.3861 597.059 67.5644 600.353 66.7426 602.823C65.9208 606.118 64.2772 605.294 61.8119 604.47C58.5247 603.647 60.9901 602 60.9901 600.353C61.8119 598.706 61.8119 597.059 62.6337 594.588C64.2772 591.294 64.2772 588 63.4554 583.882C62.6337 582.235 63.4554 581.412 66.7426 581.412Z" fill="#969696"/>
<path d="M28.9406 622.588C24.8317 622.588 22.3664 620.118 21.5446 616.824C20.7228 614.353 22.3664 610.235 24.8317 608.588C27.2971 606.941 31.406 606.941 33.0495 609.412C34.6931 611.059 37.1584 612.706 37.9802 615.177C38.802 616 37.9802 619.294 36.3367 620.118C33.8713 621.765 30.5842 621.765 28.9406 622.588Z" fill="#969696"/>
<path d="M127.554 661.294C130.02 648.118 117.693 636.588 104.545 639.059C103.723 639.059 102.901 640.706 102.901 640.706C106.188 648.118 100.436 652.235 96.3267 657.177C95.5049 658 93.8614 658.824 93.0396 658.824C88.9307 659.647 88.1089 659.647 89.7525 663.765C93.8614 676.118 108.653 681.059 119.337 672.824C120.98 672.824 125.911 668.706 127.554 661.294Z" fill="#969696"/>
</g>
</svg>
