<svg width="156" height="169" viewBox="0 0 156 169" fill="none" xmlns="http://www.w3.org/2000/svg">
<g clip-path="url(#clip0_280_843)">
<path d="M95.4527 107.192C92.0293 106.253 91.6265 105.114 92.0964 99.7508C92.3649 96.8012 94.4458 97.0023 96.4596 97.0023C98.8761 97.0023 101.225 97.0023 103.709 97.0023C103.776 95.3934 103.843 94.1197 103.978 92.5779H108.542C108.676 93.9857 108.744 95.3264 108.878 96.9353C111.63 96.9353 114.315 97.0023 117 96.9353C119.551 96.8682 120.558 98.0749 120.625 100.555C120.759 105.784 120.625 106.186 116.933 107.259C121.43 125.761 125.861 144.263 130.358 162.833H134.52C134.52 158.14 134.654 153.447 134.453 148.822C134.318 145.403 135.795 143.392 139.017 142.386C141.501 141.582 143.917 140.576 146.334 139.772C150.63 138.297 153.516 140.174 153.583 144.733C153.718 149.76 153.583 154.721 153.651 159.749C153.651 161.09 153.046 162.631 155.194 163.436C155.799 163.637 155.732 166.05 155.933 167.726H80.6179C80.3494 165.849 79.2754 163.838 82.0947 162.631C82.4303 162.497 82.5645 161.76 82.6988 161.291C86.9277 143.66 91.2238 125.962 95.4527 108.265C95.4527 107.996 95.4527 107.661 95.4527 107.192ZM109.146 146.476C108.811 146.677 108.542 146.811 108.207 147.012C108.676 148.487 108.811 150.163 109.683 151.436C110.623 152.844 112.033 157.872 110.757 159.213C109.75 160.285 107.67 160.821 106.126 160.821C104.649 160.821 102.031 160.017 101.897 159.213C101.494 156.866 101.158 153.648 102.501 152.174C104.246 150.163 103.709 148.621 103.709 146.341C99.6816 149.023 96.1911 151.704 92.2978 153.783C88.4716 155.794 88.0017 159.146 87.599 162.9H125.525C124.585 160.218 124.384 157.134 122.706 155.727C118.544 152.174 113.711 149.492 109.146 146.476ZM110.892 141.515C114.516 143.928 117.873 146.14 121.9 148.822C120.759 144.196 119.886 140.375 118.88 136.219C116.06 138.029 113.577 139.638 110.892 141.515ZM93.7074 136.152C92.7005 140.375 91.8279 144.196 90.7539 148.755C94.7814 146.073 98.1377 143.861 101.695 141.448C98.8761 139.571 96.5267 138.029 93.7074 136.152ZM108.878 130.99V136.688C111.764 134.811 114.248 133.135 117.47 130.99H108.878ZM95.9897 130.923C95.9226 131.124 95.8554 131.325 95.7883 131.459C98.2719 133.135 100.823 134.744 103.642 136.621V130.923H95.9897ZM103.709 122.275C100.89 124.152 98.4733 125.828 95.9897 127.504C96.0568 127.705 96.191 127.906 96.2582 128.107H103.642V122.275H103.709ZM108.744 128.04H116.396C116.463 127.839 116.53 127.705 116.597 127.504C114.046 125.828 111.563 124.152 108.744 122.275V128.04ZM108.744 112.421C112.368 110.812 112.905 110.209 112.033 108.332C111.63 107.46 110.22 107.058 108.744 106.119V112.421ZM103.709 112.689V106.052C102.232 107.058 100.89 107.527 100.554 108.399C99.346 111.147 101.964 111.415 103.709 112.689Z" fill="#69D6BA"/>
<path d="M5.97418 109.538C4.09466 109.337 2.0809 109.672 2.0809 106.857C2.0809 103.907 2.68503 103.17 5.70568 103.17C9.86747 103.17 14.0964 103.17 18.2582 103.17C20.2048 103.17 22.4871 102.633 22.8227 105.65C23.0912 108.466 22.5542 109.069 18.7952 109.672C18.7281 109.94 18.6609 110.276 18.6609 110.611C18.6609 112.086 18.6609 113.56 18.6609 115.437H21.5473C27.7229 115.437 33.9656 115.437 40.1411 115.437C46.3167 115.437 49.5387 118.655 49.5387 124.756C49.5387 136.353 49.5387 147.95 49.5387 159.548C49.5387 165.648 46.2496 168.866 40.2083 168.866C29.8038 168.866 19.4664 168.866 9.06196 168.866C3.35628 168.866 0.134252 165.648 0.134252 159.95C0.0671259 148.822 0.201377 137.56 2.81259e-07 126.364C-0.0671254 123.013 0.537005 120.331 3.35628 118.454C6.71256 116.242 6.44406 113.024 5.97418 109.538ZM45.2427 135.481C45.2427 131.258 45.5112 127.37 45.1084 123.549C44.9742 122.275 43.3632 120.197 42.222 120.13C38.0602 119.728 33.8313 119.996 29.6695 119.996C34.9053 125.091 39.8726 130.119 45.2427 135.481Z" fill="#69D6BA"/>
<path d="M84.6454 34.1887H120.692C120.692 39.7528 120.692 45.1157 120.692 50.4787C120.692 51.8865 120.289 53.3613 121.9 54.5009C122.907 55.2383 122.236 56.9813 120.893 57.3835C120.289 57.5176 119.685 57.5176 119.081 57.5176C108.072 57.5176 96.9966 57.5176 85.988 57.5176C85.3838 57.5176 84.7797 57.5176 84.1756 57.3835C82.6988 56.9142 82.1618 55.1713 83.4372 54.3668C84.8468 53.4953 84.6454 52.4228 84.6454 51.2831C84.6454 45.585 84.6454 39.9539 84.6454 34.1887ZM88.2702 37.8087C88.2702 40.7583 88.136 43.5739 88.3374 46.3224C88.4045 46.9928 89.4114 47.6631 90.0155 48.2665C90.6196 47.6631 91.6265 47.0598 91.6936 46.4565C91.895 43.6409 91.7608 40.7583 91.7608 37.8087H88.2702Z" fill="#69D6BA"/>
<path d="M120.692 23.2618H84.6454V21.0496C84.6454 16.1559 84.6454 11.3293 84.6454 6.43556C84.6454 5.16186 84.9139 3.88816 83.37 2.94964C82.2289 2.27927 82.833 0.469274 84.1756 0.134089C84.6454 1.52998e-05 85.2496 0.0670522 85.7866 0.0670522C97.0637 0.0670522 108.341 0.0670522 119.618 0.134089C120.491 0.134089 121.363 0.737421 122.236 1.00557C121.9 1.87705 121.497 2.74853 121.229 3.68704C121.028 4.35741 120.759 5.09482 120.759 5.76519C120.692 11.4633 120.692 17.2285 120.692 23.2618ZM91.8279 19.5077C91.8279 16.5581 91.9621 13.6755 91.7608 10.86C91.6936 10.2567 90.6867 9.72036 90.0826 9.11703C89.4785 9.72036 88.4716 10.2567 88.4045 10.86C88.2031 13.6755 88.3374 16.5581 88.3374 19.5077H91.8279Z" fill="#69D6BA"/>
<path d="M102.635 26.8817C108.274 26.8817 113.912 26.8817 119.551 26.8817C120.893 26.8817 122.37 26.8147 122.303 28.6917C122.236 30.5017 120.826 30.5017 119.484 30.5017C108.207 30.5017 96.9294 30.5017 85.6523 30.5017C84.2427 30.5017 82.8331 30.3677 82.9002 28.6247C82.9002 26.8147 84.3769 26.8147 85.7195 26.8147C91.358 26.8817 96.9966 26.8817 102.635 26.8817Z" fill="#69D6BA"/>
<path d="M14.969 12.0667H34.6368C34.6368 16.7592 34.5026 21.3177 34.704 25.9433C34.7711 27.5522 35.241 29.3622 36.0465 30.7029C39.9398 37.2055 44.1015 43.5069 48.062 49.9425C51.821 56.0428 48.3305 62.4784 41.0809 62.4784C30.2065 62.5454 19.3322 62.4784 8.45783 62.4784C5.30293 62.4784 2.6179 61.4058 1.00688 58.4562C-0.604131 55.5065 -0.268503 52.624 1.47676 49.8084C5.43718 43.574 9.33046 37.2725 13.358 31.0381C14.4991 29.2951 14.969 27.5522 14.9019 25.5411C14.9019 21.1837 14.969 16.6922 14.969 12.0667ZM24.7694 58.3891C30.1394 58.3891 35.5095 58.5232 40.8124 58.3221C42.2892 58.2551 44.0344 57.4506 44.9742 56.4451C46.3838 54.9703 45.3769 53.2273 44.4372 51.6854C42.5577 48.8029 40.611 45.9203 38.9329 42.9036C38.1274 41.4958 37.1205 41.0266 35.5766 41.0266C28.327 41.0936 21.0775 41.0266 13.8279 41.1607C12.821 41.1607 11.5456 41.9651 10.9415 42.8366C8.86059 45.7192 7.11532 48.7358 5.16867 51.7525C4.29604 53.1603 3.49053 54.6351 4.49742 56.311C5.5043 58.054 7.04819 58.3891 8.92771 58.3891C14.1635 58.3221 19.4664 58.3891 24.7694 58.3891Z" fill="#69D6BA"/>
<path d="M38.1945 0.4021H11.3442V8.0443H38.1945V0.4021Z" fill="#69D6BA"/>
<path d="M7.8537 54.5011C9.80034 51.4174 11.6127 48.4007 13.5594 45.5181C13.895 45.0489 14.8348 44.9148 15.5732 44.9148C21.7487 44.8477 27.9243 44.8477 34.0998 44.9148C34.8382 44.9148 35.9122 45.317 36.315 45.9203C38.1945 48.6018 39.8726 51.4174 41.8193 54.434H7.8537V54.5011Z" fill="#69D6BA"/>
</g>
<defs>
<clipPath id="clip0_280_843">
<rect width="156" height="169" fill="white"/>
</clipPath>
</defs>
</svg>
