<svg width="18" height="19" viewBox="0 0 18 19" fill="none" xmlns="http://www.w3.org/2000/svg">
<path d="M4.66963 4.14941C4.71247 4.81691 4.81957 5.46941 4.99094 6.09191L4.13412 6.99191C3.84138 6.09191 3.65573 5.13941 3.59147 4.14941H4.66963V4.14941ZM11.7098 13.1644C12.3167 13.3444 12.9379 13.4569 13.5662 13.5019V14.6194C12.6237 14.5519 11.7169 14.3569 10.853 14.0569L11.7098 13.1644V13.1644ZM5.35508 2.64941H2.85604C2.46333 2.64941 2.14203 2.98691 2.14203 3.39941C2.14203 10.4419 7.57566 16.1494 14.2802 16.1494C14.6729 16.1494 14.9942 15.8119 14.9942 15.3994V12.7819C14.9942 12.3694 14.6729 12.0319 14.2802 12.0319C13.3949 12.0319 12.5309 11.8819 11.7312 11.6044C11.6598 11.5744 11.5813 11.5669 11.5099 11.5669C11.3242 11.5669 11.1457 11.6419 11.0029 11.7844L9.43209 13.4344C7.41144 12.3469 5.75493 10.6144 4.72675 8.49191L6.29758 6.84191C6.4975 6.63191 6.55462 6.33941 6.47608 6.07691C6.2119 5.23691 6.06909 4.33691 6.06909 3.39941C6.06909 2.98691 5.74779 2.64941 5.35508 2.64941Z" fill="#FF0008"/>
</svg>
