<svg width="110" height="63" viewBox="0 0 110 63" fill="none" xmlns="http://www.w3.org/2000/svg">
<path d="M89.7658 43.4138H18.8203C9.05868 43.4138 1.11926 35.4132 1.11926 25.5765C1.11926 15.7398 9.05868 7.73926 18.8203 7.73926H89.7658C99.5274 7.73926 107.467 15.7398 107.467 25.5765C107.467 35.4132 99.5274 43.4138 89.7658 43.4138Z" stroke="#221F21" stroke-width="2" stroke-miterlimit="10"/>
<path d="M47.0069 7.71166V4.4555C47.0069 3.06673 48.1328 1.94092 49.5215 1.94092H58.8093C60.1981 1.94092 61.3239 3.06674 61.3239 4.4555V7.84282" stroke="#221F21" stroke-width="2" stroke-miterlimit="10"/>
<path d="M89.2075 52.6036H90.0961C92.5686 52.6036 94.573 50.5992 94.573 48.1267V43.6499H13.99C13.99 45.1421 13.9901 46.6344 13.9901 48.1266C13.9901 50.5992 15.9944 52.6036 18.4669 52.6036H20.7581M77.9194 52.6036H74.0766M63.2688 52.6036H46.6969M35.8891 52.6036H31.8061" stroke="#221F21" stroke-width="2" stroke-miterlimit="10"/>
<path d="M26.2033 59.5842C29.328 59.5842 31.8611 57.0511 31.8611 53.9264C31.8611 50.8016 29.328 48.2686 26.2033 48.2686C23.0786 48.2686 20.5455 50.8016 20.5455 53.9264C20.5455 57.0511 23.0786 59.5842 26.2033 59.5842Z" stroke="#221F21" stroke-width="2" stroke-miterlimit="10"/>
<path d="M68.4606 59.5842C71.5853 59.5842 74.1184 57.0511 74.1184 53.9264C74.1184 50.8016 71.5853 48.2686 68.4606 48.2686C65.3359 48.2686 62.8028 50.8016 62.8028 53.9264C62.8028 57.0511 65.3359 59.5842 68.4606 59.5842Z" stroke="#221F21" stroke-width="2" stroke-miterlimit="10"/>
<path d="M41.2908 59.5842C44.4155 59.5842 46.9486 57.0511 46.9486 53.9264C46.9486 50.8016 44.4155 48.2686 41.2908 48.2686C38.1661 48.2686 35.633 50.8016 35.633 53.9264C35.633 57.0511 38.1661 59.5842 41.2908 59.5842Z" stroke="#221F21" stroke-width="2" stroke-miterlimit="10"/>
<path d="M83.5481 59.5842C86.6728 59.5842 89.2059 57.0511 89.2059 53.9264C89.2059 50.8016 86.6728 48.2686 83.5481 48.2686C80.4234 48.2686 77.8903 50.8016 77.8903 53.9264C77.8903 57.0511 80.4234 59.5842 83.5481 59.5842Z" stroke="#221F21" stroke-width="2" stroke-miterlimit="10"/>
<path d="M28.5399 43.3774L28.5399 8.17327" stroke="#221F21" stroke-width="2" stroke-miterlimit="10" stroke-linecap="round" stroke-linejoin="round"/>
<path d="M80.4122 43.3774L80.4122 8.17327" stroke="#221F21" stroke-width="2" stroke-miterlimit="10" stroke-linecap="round" stroke-linejoin="round"/>
<path d="M28.5399 25.7427H54.2816" stroke="#221F21" stroke-width="2" stroke-miterlimit="10" stroke-linecap="round" stroke-linejoin="round"/>
</svg>
