<svg width="104" height="60" viewBox="0 0 104 60" fill="none" xmlns="http://www.w3.org/2000/svg">
<path d="M61.9049 37.2719H15.7185C7.64398 37.2719 1.07669 30.6892 1.07669 22.5957C1.07669 14.5022 7.64398 7.91943 15.7185 7.91943H61.9049C69.9794 7.91943 76.5467 14.5022 76.5467 22.5957C76.5467 30.6892 69.9794 37.2719 61.9049 37.2719Z" stroke="#221F21" stroke-width="2" stroke-miterlimit="10"/>
<path d="M18.2001 7.89702V5.38734C18.2001 4.1511 19.2023 3.14893 20.4385 3.14893H27.8043C29.0406 3.14893 30.0427 4.1511 30.0427 5.38734V8.00493" stroke="#221F21" stroke-width="2" stroke-miterlimit="10"/>
<path d="M84.1373 52.7706H80.3147V21.4756H89.6811C91.619 21.4756 93.4492 22.5547 94.4182 24.2813L101.631 36.9072C102.493 38.418 102.923 40.0367 102.923 41.7634V52.7706H96.6352" stroke="#221F21" stroke-width="2" stroke-miterlimit="10"/>
<path d="M47.3133 52.7709H80.3147V41.5479H6.78265V48.3464C6.78265 50.8284 8.72054 52.7709 11.1967 52.7709H17.6309M34.5923 52.7709H30.5751" stroke="#221F21" stroke-width="2" stroke-miterlimit="10"/>
<path d="M24.0083 58.9213C27.4569 58.9213 30.2526 56.1191 30.2526 52.6623C30.2526 49.2056 27.4569 46.4033 24.0083 46.4033C20.5596 46.4033 17.7639 49.2056 17.7639 52.6623C17.7639 56.1191 20.5596 58.9213 24.0083 58.9213Z" stroke="#221F21" stroke-width="2" stroke-miterlimit="10"/>
<path d="M40.8033 58.9213C44.2519 58.9213 47.0476 56.1191 47.0476 52.6623C47.0476 49.2056 44.2519 46.4033 40.8033 46.4033C37.3546 46.4033 34.559 49.2056 34.559 52.6623C34.559 56.1191 37.3546 58.9213 40.8033 58.9213Z" stroke="#221F21" stroke-width="2" stroke-miterlimit="10"/>
<path d="M90.2195 58.9213C93.6681 58.9213 96.4638 56.1191 96.4638 52.6623C96.4638 49.2056 93.6681 46.4033 90.2195 46.4033C86.7708 46.4033 83.9751 49.2056 83.9751 52.6623C83.9751 56.1191 86.7708 58.9213 90.2195 58.9213Z" stroke="#221F21" stroke-width="2" stroke-miterlimit="10"/>
<path d="M1.83018 22.7036H27.0227" stroke="#221F21" stroke-width="2" stroke-miterlimit="10" stroke-linecap="round" stroke-linejoin="round"/>
<path d="M60.32 37.2422V41.3801" stroke="#221F21" stroke-width="2" stroke-miterlimit="10" stroke-linejoin="round"/>
<path d="M18.2001 37.2422V41.3801" stroke="#221F21" stroke-width="2" stroke-miterlimit="10" stroke-linejoin="round"/>
<path d="M80.3147 31.7275H89.2505L91.619 35.2887H100.77" stroke="#221F21" stroke-width="2" stroke-miterlimit="10" stroke-linecap="round" stroke-linejoin="round"/>
</svg>
