<svg width="51" height="51" viewBox="0 0 51 51" fill="none" xmlns="http://www.w3.org/2000/svg">
<path d="M25.5854 0.969482C26.0605 1.30603 26.5355 1.64257 26.9427 1.97912C28.0964 3.12337 29.2502 4.26762 30.4039 5.41187C30.6075 5.6138 30.7432 5.68111 31.0147 5.54649C32.847 5.07533 34.6115 4.60416 36.4439 4.133C37.4619 3.86376 38.2763 4.33493 38.5478 5.34456C39.0228 7.09459 39.4979 8.91193 40.0408 10.662C40.1087 10.8639 40.3123 11.0658 40.5159 11.1331C42.2125 11.6043 43.9091 12.0755 45.6736 12.5466C47.031 12.8832 47.506 13.6909 47.0988 15.037C46.6238 16.7198 46.2166 18.4698 45.7415 20.1525C45.6736 20.4218 45.7415 20.6237 45.9451 20.7583C47.2346 22.0372 48.524 23.3833 49.8134 24.6622C50.56 25.4699 50.6278 26.3449 49.8134 27.1526C48.524 28.4315 47.3024 29.7104 46.013 30.9893C45.7415 31.2585 45.6736 31.4604 45.8094 31.8643C46.2844 33.6143 46.7595 35.3643 47.1667 37.1144C47.4381 38.124 46.9631 38.9317 45.9451 39.2009C44.1806 39.6721 42.4161 40.2106 40.6516 40.6817C40.3123 40.749 40.1765 40.8837 40.1087 41.2202C39.6336 42.9702 39.1585 44.7203 38.6156 46.4703C38.3442 47.4799 37.5976 47.9511 36.5118 47.6819C34.6794 47.2107 32.9149 46.7395 31.0825 46.2684C30.8111 46.2011 30.6075 46.2684 30.4717 46.403C29.2502 47.6145 27.9607 48.8261 26.7391 50.0377C26.3998 50.3742 25.9926 50.5761 25.6533 50.8454H24.8389C24.2281 50.3742 23.6173 49.903 23.0744 49.4319C22.0564 48.4223 21.0384 47.4126 20.0204 46.403C19.8168 46.2011 19.6811 46.1338 19.4096 46.2684C17.5773 46.7395 15.8128 47.2107 13.9804 47.6819C12.9624 47.9511 12.148 47.4799 11.8766 46.4703C11.4015 44.7203 10.8586 42.9029 10.3835 41.1529C10.3156 40.8837 10.1799 40.749 9.90845 40.6817C8.14395 40.2106 6.37944 39.7394 4.61494 39.2009C3.52909 38.9317 3.05403 38.1913 3.32549 37.1144C3.80055 35.297 4.27561 33.547 4.75067 31.797C4.81853 31.5277 4.81853 31.3258 4.61494 31.1239C3.32549 29.845 2.10391 28.5661 0.814461 27.2873C-0.0677923 26.3449 -0.0677923 25.5372 0.814461 24.5949C2.03604 23.316 3.32549 22.0372 4.54707 20.8256C4.81853 20.5564 4.81853 20.3544 4.75067 20.0852C4.27561 18.3352 3.80055 16.5851 3.32549 14.7678C3.05403 13.7582 3.52909 12.9505 4.54707 12.6812C6.10798 12.2101 7.66889 11.8062 9.2298 11.4024C10.0442 11.2004 10.4514 10.8639 10.655 9.98887C10.9943 8.44077 11.4694 6.89267 11.9444 5.34456C12.2159 4.40224 13.0303 3.93107 13.9804 4.133C15.8128 4.60416 17.6451 5.07533 19.4775 5.54649C19.749 5.6138 19.9526 5.54649 20.0883 5.41187C21.3777 4.133 22.6672 2.92144 23.9566 1.64257C24.2281 1.37334 24.5674 1.17141 24.9068 0.969482H25.5854ZM24.9746 47.0088C25.1104 47.0088 25.1782 47.0088 25.314 47.0088C26.4677 45.7972 27.6214 44.5856 28.7751 43.3741C29.3859 42.7683 30.0645 42.6337 30.8789 42.8356C32.5077 43.3068 34.1365 43.7106 35.7653 44.1145C35.8331 43.9799 35.8331 43.7779 35.901 43.6433C36.3082 42.1625 36.7832 40.6144 37.1904 39.1336C37.394 38.3932 37.8012 37.9894 38.5478 37.7874C39.0228 37.6528 39.4979 37.5182 39.9729 37.3836C41.1945 37.0471 42.4161 36.7105 43.5698 36.374C43.1626 34.6912 42.6876 33.0758 42.2804 31.4604C42.0768 30.6527 42.2125 30.0469 42.8233 29.5085C43.2983 29.1046 43.6377 28.6334 44.1127 28.2296C44.9271 27.4892 45.7415 26.7488 46.6238 25.8738C45.2664 24.5949 44.1127 23.4507 42.8912 22.3737C42.2125 21.7679 42.0089 21.0948 42.2804 20.2198C42.7554 18.6044 43.1626 16.989 43.5698 15.3736C43.3662 15.3063 43.2305 15.3063 43.0947 15.239C41.6017 14.8351 40.0408 14.4313 38.5478 13.9601C37.8691 13.7582 37.394 13.3543 37.2583 12.6812C37.1226 12.0754 36.919 11.4697 36.7832 10.9312C36.5118 9.85426 36.1725 8.77731 35.901 7.70037C34.2044 8.17153 32.5756 8.57539 30.9468 8.97924C30.2003 9.18117 29.5216 9.04655 28.9787 8.44077C28.4358 7.9023 27.8928 7.36383 27.3499 6.82536C26.6713 6.15227 25.9926 5.54649 25.2461 4.73878C24.0245 5.95034 22.8708 7.1619 21.7171 8.37346C21.1063 8.97924 20.4955 9.18117 19.6132 8.91193C17.9845 8.44077 16.3557 8.03692 14.7269 7.63306C14.659 7.76768 14.5912 7.96961 14.5912 8.10423C14.184 9.65233 13.7768 11.1331 13.3017 12.6812C13.0981 13.3543 12.6909 13.7582 12.0123 13.9601C11.5372 14.0947 11.0622 14.2293 10.5192 14.364C9.29766 14.7005 8.07608 15.037 6.92237 15.3736C7.32956 17.0563 7.80462 18.6717 8.21181 20.2871C8.41541 21.0948 8.27968 21.7006 7.66889 22.2391C7.12596 22.7103 6.6509 23.2487 6.17585 23.7872C5.49719 24.4603 4.75067 25.1334 4.00415 25.8065C4.20774 26.0757 4.34347 26.143 4.4792 26.2776C5.49719 27.2873 6.51517 28.3642 7.53316 29.3738C8.27968 30.0469 8.41541 30.8546 8.14395 31.797C7.66889 33.3451 7.32956 34.8932 6.92237 36.4413C7.0581 36.5086 7.19383 36.5086 7.32956 36.5759C8.89047 36.9797 10.3835 37.4509 11.9444 37.8548C12.6909 38.0567 13.0981 38.4605 13.3017 39.2009C13.3696 39.4029 13.4375 39.6721 13.5053 39.874C13.9125 41.2875 14.3197 42.701 14.7269 44.1818C16.3557 43.7779 17.9845 43.3741 19.6132 42.9029C20.4276 42.701 21.1063 42.7683 21.6492 43.4414C22.6672 44.5856 23.8209 45.7972 24.9746 47.0088Z" fill="#F47722"/>
<path d="M32.9149 16.6523C33.5257 16.7197 34.0686 17.0562 34.3401 17.662C34.6116 18.2678 34.4758 18.9408 34.0008 19.4793C32.7792 20.7582 31.4897 21.9697 30.2682 23.1813C26.4677 27.0179 22.5993 30.7872 18.7989 34.6238C18.3238 35.095 17.7809 35.3642 17.1022 35.1623C16.4236 34.9604 16.0842 34.4892 15.9485 33.8834C15.8128 33.2776 16.0842 32.7392 16.5593 32.3353C18.5953 30.3834 20.5634 28.3641 22.5993 26.4121C25.5854 23.4505 28.5715 20.489 31.4897 17.5274C31.8291 17.0562 32.2363 16.6523 32.9149 16.6523Z" fill="#F47722"/>
<path d="M37.2583 32.4701C37.1905 35.5663 34.8152 37.9221 31.6933 37.9221C28.7073 37.9221 26.2641 35.3644 26.2641 32.4701C26.2641 29.5085 28.843 27.0181 31.7612 27.0181C34.7473 27.0181 37.3262 29.5758 37.2583 32.4701ZM29.5895 32.4701C29.5895 33.6816 30.5396 34.624 31.6933 34.624C32.9828 34.624 33.9329 33.6816 33.9329 32.4028C33.9329 31.1912 32.9828 30.2489 31.7612 30.3162C30.5396 30.3162 29.5895 31.2585 29.5895 32.4701Z" fill="#F47722"/>
<path d="M24.0924 19.412C24.0924 22.3736 21.5813 24.864 18.5953 24.864C15.6092 24.864 13.0981 22.3736 13.0981 19.412C13.0981 16.4504 15.6092 13.96 18.5953 13.96C21.7171 14.0273 24.0245 16.4504 24.0924 19.412ZM18.5953 21.5659C19.8168 21.5659 20.767 20.6235 20.767 19.412C20.767 18.2004 19.8168 17.2581 18.5953 17.2581C17.3058 17.2581 16.4236 18.2004 16.4236 19.412C16.4236 20.6235 17.3737 21.5659 18.5953 21.5659Z" fill="#F47722"/>
</svg>
