<svg width="48" height="66" viewBox="0 0 48 66" fill="none" xmlns="http://www.w3.org/2000/svg">
<path d="M3.2576 29.9702C3.32547 29.6336 3.46119 29.0279 3.66479 28.4221C4.13985 27.0086 4.34345 25.5278 4.07199 24.047C3.86839 23.1047 3.4612 22.2297 2.91827 21.4219C2.51108 20.7489 2.03602 20.1431 1.83242 19.3354C1.56096 18.1911 1.83242 17.0469 2.17175 15.9699C2.51108 14.9603 3.12187 14.2199 4.13986 13.7487C7.26168 12.2679 9.02618 9.77751 9.90843 6.47937C10.1799 5.46974 10.5192 4.59472 11.4015 3.98894C12.3516 3.31586 13.3017 2.64277 14.5233 2.64277C15.2019 2.64277 15.8806 2.77738 16.5593 2.97931C17.6451 3.24855 18.6631 3.51778 19.749 3.45047C21.3099 3.38316 22.8029 2.912 24.0923 2.1043C24.771 1.70044 25.4497 1.29659 26.2641 1.09466C28.5715 0.556191 31.0825 1.70044 32.2362 3.71971C32.372 3.98894 32.5756 4.25818 32.7113 4.59472C33.7971 6.61399 35.4259 7.82555 37.5976 8.43133C38.2084 8.63326 38.8192 8.76788 39.3621 8.9698C41.6017 9.7102 43.0269 11.9314 42.6875 14.2199C42.5518 15.1622 42.3482 16.0372 42.2125 16.9796C42.0089 18.1238 42.0767 19.2008 42.2803 20.345C42.4161 21.2873 42.8233 22.095 43.3662 22.9027C43.434 23.0374 43.5698 23.172 43.6376 23.3066C44.5878 24.5182 44.7914 25.9316 44.452 27.4124C44.3163 27.9509 44.1127 28.4894 43.9091 28.9605C43.5019 29.9029 42.8911 30.576 42.0089 31.0471C41.7374 31.1817 41.466 31.3164 41.1945 31.451C38.9549 32.5279 37.5976 34.2779 37.0547 36.7011C37.0547 36.7684 36.9868 36.903 36.9868 36.9703C36.7154 38.7876 35.6974 40.0665 34.1364 41.0088C33.865 41.1435 33.5935 41.3454 33.3221 41.48C32.3041 42.0185 31.2182 42.0858 30.1324 41.6819C29.3859 41.4127 28.5715 41.1435 27.7571 41.0761C25.8568 40.8742 24.0923 41.2781 22.5993 42.5569C22.5314 42.6243 22.4636 42.6243 22.4636 42.6916C21.4456 43.7012 20.224 43.9704 18.8667 43.6339C17.6451 43.3647 16.4914 43.0281 15.4055 42.4896C14.659 42.0858 14.0482 41.48 13.7089 40.6723C13.641 40.5377 13.5732 40.4031 13.5732 40.3358C12.4873 37.778 10.655 36.1626 7.8046 35.7587C6.17582 35.5568 5.08997 34.7491 4.27559 33.3356C3.73266 32.326 3.2576 31.3837 3.2576 29.9702ZM23.0744 37.8453C31.7612 37.8453 38.8192 30.8452 38.8192 22.2297C38.8192 13.6141 31.7612 6.61399 23.0744 6.61399C14.3876 6.61399 7.26167 13.6141 7.26167 22.2297C7.32954 30.7779 14.3876 37.8453 23.0744 37.8453Z" fill="white"/>
<path d="M26.7391 48.7493L40.8551 42.9607C43.2304 48.4127 45.6057 53.8647 47.981 59.3841C44.452 57.7013 40.9909 56.0859 37.4619 54.4705C36.376 58.1725 35.2223 61.8745 34.1364 65.5092H34.0686C31.6254 59.9225 29.1822 54.3359 26.7391 48.7493Z" fill="white"/>
<path d="M13.8446 65.6438C12.6909 61.8745 11.6051 58.1725 10.5192 54.4705C7.05809 56.0859 3.59694 57.7013 6.10352e-05 59.3841C2.37536 54.0667 4.75065 48.8839 7.12595 43.6338C11.1979 46.9319 15.9485 48.5473 21.1741 49.0858C18.6631 54.6051 16.2878 60.1245 13.8446 65.6438Z" fill="white"/>
<path d="M23.0744 8.63306C30.6075 8.63306 36.7833 14.7582 36.7833 22.2295C36.7833 29.7007 30.6075 35.8259 23.0065 35.8259C15.4734 35.8259 9.36554 29.7007 9.36554 22.2295C9.43341 14.6909 15.5413 8.63306 23.0744 8.63306ZM21.1742 29.2969C25.1104 25.393 28.9787 21.5564 32.9149 17.6524C32.0327 16.7774 31.1504 15.9024 30.2682 15.0274C27.2821 17.989 24.2281 21.0179 21.1742 24.0468C19.9526 22.8352 18.6631 21.5564 17.5094 20.4121C16.6272 21.2871 15.7449 22.1621 14.9305 23.0372C16.9665 25.1237 19.0703 27.2103 21.1742 29.2969Z" fill="white"/>
</svg>
